0, 0, Header, 1, 2, 960
1, 0, Start_track
1, 0, Time_signature, 4, 2, 24, 8
1, 0, Key_signature, 1, "major"
1, 0, Tempo, 750000
1, 0, Copyright_t, "B.  2013"
1, 80640, Time_signature, 17, 4, 6, 8
1, 84720, Time_signature, 4, 2, 24, 8
1, 157680, Time_signature, 10, 2, 24, 8
1, 167280, Tempo, 750000
1, 167280, Tempo, 500000
1, 167280, Tempo, 600000
1, 167280, Time_signature, 4, 2, 24, 8
1, 167280, Time_signature, 1, 4, 6, 8
1, 167520, Time_signature, 4, 2, 24, 8
1, 286560, Time_signature, 8, 2, 24, 8
1, 294240, Tempo, 600000
1, 294240, Tempo, 500000
1, 294240, Tempo, 750000
1, 294240, Time_signature, 3, 2, 24, 8
1, 294240, Time_signature, 1, 3, 12, 8
1, 294720, Time_signature, 3, 2, 24, 8
1, 343680, Time_signature, 5, 3, 12, 8
1, 346080, Tempo, 750000
1, 346080, Tempo, 500000
1, 346080, Tempo, 750000
1, 346080, Time_signature, 3, 2, 24, 8
1, 346080, Time_signature, 1, 3, 12, 8
1, 346560, Time_signature, 3, 2, 24, 8
1, 395520, Time_signature, 5, 3, 12, 8
1, 397920, Time_signature, 1, 3, 12, 8
1, 398400, Time_signature, 3, 2, 24, 8
1, 464640, Time_signature, 13, 3, 12, 8
1, 470880, Tempo, 750000
1, 470880, Tempo, 1200000
1, 470880, Time_signature, 3, 2, 24, 8
1, 493920, Tempo, 1200000
1, 493920, Tempo, 1200000
1, 537120, Time_signature, 7, 2, 24, 8
1, 543840, Tempo, 1200000
1, 543840, Tempo, 600000
1, 543840, Time_signature, 3, 2, 24, 8
1, 566880, Tempo, 600000
1, 566880, Tempo, 600000
1, 771360, Time_signature, 7, 2, 24, 8
1, 778080, Tempo, 600000
1, 778080, Tempo, 500000
1, 778080, Time_signature, 6, 3, 36, 8
1, 778080, Time_signature, 1, 3, 12, 8
1, 778560, Time_signature, 3, 2, 24, 8
1, 810240, Time_signature, 5, 3, 12, 8
1, 812640, Tempo, 500000
1, 812640, Tempo, 500000
1, 812640, Time_signature, 6, 3, 36, 8
1, 812640, Time_signature, 1, 3, 12, 8
1, 813120, Time_signature, 3, 2, 24, 8
1, 844800, Time_signature, 5, 3, 12, 8
1, 847200, Time_signature, 1, 3, 12, 8
1, 847680, Time_signature, 3, 2, 24, 8
1, 911040, Time_signature, 6, 3, 36, 8
1, 911040, Time_signature, 1, 3, 12, 8
1, 911520, Time_signature, 3, 2, 24, 8
1, 911521, End_track
2, 0, Start_track
2, 0, Program_c, 0, 42
2, 0, Control_c, 0, 121, 0
2, 0, Control_c, 0, 64, 0
2, 0, Control_c, 0, 91, 60
2, 0, Control_c, 0, 10, 95
2, 0, Control_c, 0, 7, 103
2, 0, Title_t, "Violoncello"
2, 0, Note_on_c, 0, 43, 65
2, 240, Note_on_c, 0, 50, 80
2, 244, Note_off_c, 0, 43, 0
2, 480, Note_on_c, 0, 59, 89
2, 484, Note_off_c, 0, 50, 0
2, 705, Note_off_c, 0, 59, 0
2, 720, Note_on_c, 0, 57, 77
2, 960, Note_off_c, 0, 57, 0
2, 960, Note_on_c, 0, 59, 74
2, 1200, Note_off_c, 0, 59, 0
2, 1200, Note_on_c, 0, 50, 69
2, 1440, Note_off_c, 0, 50, 0
2, 1440, Note_on_c, 0, 59, 85
2, 1680, Note_off_c, 0, 59, 0
2, 1680, Note_on_c, 0, 50, 67
2, 1920, Note_off_c, 0, 50, 0
2, 1920, Note_on_c, 0, 43, 65
2, 2160, Note_on_c, 0, 50, 86
2, 2164, Note_off_c, 0, 43, 0
2, 2400, Note_on_c, 0, 59, 85
2, 2404, Note_off_c, 0, 50, 0
2, 2625, Note_off_c, 0, 59, 0
2, 2640, Note_on_c, 0, 57, 73
2, 2880, Note_off_c, 0, 57, 0
2, 2880, Note_on_c, 0, 59, 81
2, 3120, Note_off_c, 0, 59, 0
2, 3120, Note_on_c, 0, 50, 66
2, 3360, Note_off_c, 0, 50, 0
2, 3360, Note_on_c, 0, 59, 85
2, 3600, Note_off_c, 0, 59, 0
2, 3600, Note_on_c, 0, 50, 65
2, 3840, Note_off_c, 0, 50, 0
2, 3840, Note_on_c, 0, 43, 67
2, 4080, Note_on_c, 0, 52, 86
2, 4084, Note_off_c, 0, 43, 0
2, 4320, Note_on_c, 0, 60, 90
2, 4324, Note_off_c, 0, 52, 0
2, 4545, Note_off_c, 0, 60, 0
2, 4560, Note_on_c, 0, 59, 78
2, 4800, Note_off_c, 0, 59, 0
2, 4800, Note_on_c, 0, 60, 77
2, 5040, Note_off_c, 0, 60, 0
2, 5040, Note_on_c, 0, 52, 69
2, 5280, Note_off_c, 0, 52, 0
2, 5280, Note_on_c, 0, 60, 92
2, 5520, Note_off_c, 0, 60, 0
2, 5520, Note_on_c, 0, 52, 72
2, 5760, Note_off_c, 0, 52, 0
2, 5760, Note_on_c, 0, 43, 69
2, 6000, Note_on_c, 0, 52, 84
2, 6004, Note_off_c, 0, 43, 0
2, 6240, Note_on_c, 0, 60, 95
2, 6244, Note_off_c, 0, 52, 0
2, 6465, Note_off_c, 0, 60, 0
2, 6480, Note_on_c, 0, 59, 73
2, 6720, Note_off_c, 0, 59, 0
2, 6720, Note_on_c, 0, 60, 82
2, 6960, Note_off_c, 0, 60, 0
2, 6960, Note_on_c, 0, 52, 74
2, 7200, Note_off_c, 0, 52, 0
2, 7200, Note_on_c, 0, 60, 89
2, 7440, Note_off_c, 0, 60, 0
2, 7440, Note_on_c, 0, 52, 74
2, 7680, Note_off_c, 0, 52, 0
2, 7680, Note_on_c, 0, 43, 67
2, 7920, Note_on_c, 0, 54, 86
2, 7924, Note_off_c, 0, 43, 0
2, 8160, Note_on_c, 0, 60, 86
2, 8164, Note_off_c, 0, 54, 0
2, 8385, Note_off_c, 0, 60, 0
2, 8400, Note_on_c, 0, 59, 74
2, 8640, Note_off_c, 0, 59, 0
2, 8640, Note_on_c, 0, 60, 81
2, 8880, Note_off_c, 0, 60, 0
2, 8880, Note_on_c, 0, 54, 70
2, 9120, Note_off_c, 0, 54, 0
2, 9120, Note_on_c, 0, 60, 86
2, 9360, Note_off_c, 0, 60, 0
2, 9360, Note_on_c, 0, 54, 69
2, 9600, Note_off_c, 0, 54, 0
2, 9600, Note_on_c, 0, 43, 71
2, 9840, Note_on_c, 0, 54, 87
2, 9844, Note_off_c, 0, 43, 0
2, 10080, Note_on_c, 0, 60, 88
2, 10084, Note_off_c, 0, 54, 0
2, 10305, Note_off_c, 0, 60, 0
2, 10320, Note_on_c, 0, 59, 74
2, 10560, Note_off_c, 0, 59, 0
2, 10560, Note_on_c, 0, 60, 83
2, 10800, Note_off_c, 0, 60, 0
2, 10800, Note_on_c, 0, 54, 72
2, 11040, Note_off_c, 0, 54, 0
2, 11040, Note_on_c, 0, 60, 85
2, 11280, Note_off_c, 0, 60, 0
2, 11280, Note_on_c, 0, 54, 70
2, 11520, Note_off_c, 0, 54, 0
2, 11520, Note_on_c, 0, 43, 63
2, 11760, Note_on_c, 0, 55, 86
2, 11764, Note_off_c, 0, 43, 0
2, 12000, Note_on_c, 0, 59, 83
2, 12004, Note_off_c, 0, 55, 0
2, 12225, Note_off_c, 0, 59, 0
2, 12240, Note_on_c, 0, 57, 72
2, 12480, Note_off_c, 0, 57, 0
2, 12480, Note_on_c, 0, 59, 79
2, 12720, Note_off_c, 0, 59, 0
2, 12720, Note_on_c, 0, 55, 73
2, 12960, Note_off_c, 0, 55, 0
2, 12960, Note_on_c, 0, 59, 79
2, 13200, Note_off_c, 0, 59, 0
2, 13200, Note_on_c, 0, 55, 76
2, 13440, Note_off_c, 0, 55, 0
2, 13440, Note_on_c, 0, 43, 67
2, 13680, Note_on_c, 0, 55, 87
2, 13684, Note_off_c, 0, 43, 0
2, 13920, Note_on_c, 0, 59, 74
2, 13924, Note_off_c, 0, 55, 0
2, 14145, Note_off_c, 0, 59, 0
2, 14160, Note_on_c, 0, 57, 71
2, 14400, Note_off_c, 0, 57, 0
2, 14400, Note_on_c, 0, 59, 77
2, 14640, Note_off_c, 0, 59, 0
2, 14640, Note_on_c, 0, 55, 73
2, 14880, Note_off_c, 0, 55, 0
2, 14880, Note_on_c, 0, 59, 83
2, 15120, Note_off_c, 0, 59, 0
2, 15120, Note_on_c, 0, 54, 73
2, 15360, Note_off_c, 0, 54, 0
2, 15360, Note_on_c, 0, 43, 63
2, 15600, Note_on_c, 0, 52, 87
2, 15604, Note_off_c, 0, 43, 0
2, 15840, Note_on_c, 0, 59, 82
2, 15844, Note_off_c, 0, 52, 0
2, 16065, Note_off_c, 0, 59, 0
2, 16080, Note_on_c, 0, 57, 73
2, 16320, Note_off_c, 0, 57, 0
2, 16320, Note_on_c, 0, 59, 76
2, 16560, Note_off_c, 0, 59, 0
2, 16560, Note_on_c, 0, 55, 75
2, 16800, Note_off_c, 0, 55, 0
2, 16800, Note_on_c, 0, 54, 68
2, 17040, Note_off_c, 0, 54, 0
2, 17040, Note_on_c, 0, 55, 76
2, 17280, Note_off_c, 0, 55, 0
2, 17280, Note_on_c, 0, 52, 72
2, 17520, Note_off_c, 0, 52, 0
2, 17520, Note_on_c, 0, 55, 78
2, 17760, Note_off_c, 0, 55, 0
2, 17760, Note_on_c, 0, 54, 72
2, 18000, Note_off_c, 0, 54, 0
2, 18000, Note_on_c, 0, 55, 77
2, 18240, Note_off_c, 0, 55, 0
2, 18240, Note_on_c, 0, 47, 62
2, 18480, Note_off_c, 0, 47, 0
2, 18480, Note_on_c, 0, 50, 78
2, 18720, Note_off_c, 0, 50, 0
2, 18720, Note_on_c, 0, 49, 76
2, 18960, Note_off_c, 0, 49, 0
2, 18960, Note_on_c, 0, 47, 73
2, 19200, Note_off_c, 0, 47, 0
2, 19200, Note_on_c, 0, 49, 77
2, 19440, Note_on_c, 0, 55, 83
2, 19444, Note_off_c, 0, 49, 0
2, 19680, Note_on_c, 0, 57, 78
2, 19684, Note_off_c, 0, 55, 0
2, 19905, Note_off_c, 0, 57, 0
2, 19920, Note_on_c, 0, 55, 71
2, 20160, Note_off_c, 0, 55, 0
2, 20160, Note_on_c, 0, 57, 82
2, 20400, Note_off_c, 0, 57, 0
2, 20400, Note_on_c, 0, 55, 70
2, 20640, Note_off_c, 0, 55, 0
2, 20640, Note_on_c, 0, 57, 84
2, 20880, Note_off_c, 0, 57, 0
2, 20880, Note_on_c, 0, 55, 77
2, 21120, Note_off_c, 0, 55, 0
2, 21120, Note_on_c, 0, 49, 69
2, 21360, Note_on_c, 0, 55, 82
2, 21364, Note_off_c, 0, 49, 0
2, 21600, Note_on_c, 0, 57, 82
2, 21604, Note_off_c, 0, 55, 0
2, 21825, Note_off_c, 0, 57, 0
2, 21840, Note_on_c, 0, 55, 70
2, 22080, Note_off_c, 0, 55, 0
2, 22080, Note_on_c, 0, 57, 79
2, 22320, Note_off_c, 0, 57, 0
2, 22320, Note_on_c, 0, 55, 75
2, 22560, Note_off_c, 0, 55, 0
2, 22560, Note_on_c, 0, 57, 79
2, 22800, Note_off_c, 0, 57, 0
2, 22800, Note_on_c, 0, 55, 77
2, 23040, Note_off_c, 0, 55, 0
2, 23040, Note_on_c, 0, 54, 79
2, 23280, Note_on_c, 0, 57, 75
2, 23284, Note_off_c, 0, 54, 0
2, 23520, Note_on_c, 0, 62, 91
2, 23524, Note_off_c, 0, 57, 0
2, 23745, Note_off_c, 0, 62, 0
2, 23760, Note_on_c, 0, 61, 71
2, 24000, Note_off_c, 0, 61, 0
2, 24000, Note_on_c, 0, 62, 83
2, 24240, Note_off_c, 0, 62, 0
2, 24240, Note_on_c, 0, 57, 73
2, 24480, Note_off_c, 0, 57, 0
2, 24480, Note_on_c, 0, 55, 75
2, 24720, Note_off_c, 0, 55, 0
2, 24720, Note_on_c, 0, 57, 82
2, 24960, Note_off_c, 0, 57, 0
2, 24960, Note_on_c, 0, 54, 72
2, 25200, Note_off_c, 0, 54, 0
2, 25200, Note_on_c, 0, 57, 78
2, 25440, Note_off_c, 0, 57, 0
2, 25440, Note_on_c, 0, 55, 77
2, 25680, Note_off_c, 0, 55, 0
2, 25680, Note_on_c, 0, 57, 77
2, 25920, Note_off_c, 0, 57, 0
2, 25920, Note_on_c, 0, 50, 72
2, 26160, Note_off_c, 0, 50, 0
2, 26160, Note_on_c, 0, 54, 83
2, 26400, Note_off_c, 0, 54, 0
2, 26400, Note_on_c, 0, 52, 73
2, 26640, Note_off_c, 0, 52, 0
2, 26640, Note_on_c, 0, 50, 76
2, 26880, Note_off_c, 0, 50, 0
2, 26880, Note_on_c, 0, 40, 65
2, 27120, Note_on_c, 0, 47, 84
2, 27124, Note_off_c, 0, 40, 0
2, 27360, Note_on_c, 0, 55, 80
2, 27364, Note_off_c, 0, 47, 0
2, 27585, Note_off_c, 0, 55, 0
2, 27600, Note_on_c, 0, 54, 76
2, 27840, Note_off_c, 0, 54, 0
2, 27840, Note_on_c, 0, 55, 78
2, 28080, Note_off_c, 0, 55, 0
2, 28080, Note_on_c, 0, 47, 72
2, 28320, Note_off_c, 0, 47, 0
2, 28320, Note_on_c, 0, 55, 83
2, 28560, Note_off_c, 0, 55, 0
2, 28560, Note_on_c, 0, 47, 72
2, 28800, Note_off_c, 0, 47, 0
2, 28800, Note_on_c, 0, 40, 71
2, 29040, Note_on_c, 0, 47, 83
2, 29044, Note_off_c, 0, 40, 0
2, 29280, Note_on_c, 0, 55, 86
2, 29284, Note_off_c, 0, 47, 0
2, 29505, Note_off_c, 0, 55, 0
2, 29520, Note_on_c, 0, 54, 76
2, 29760, Note_off_c, 0, 54, 0
2, 29760, Note_on_c, 0, 55, 79
2, 30000, Note_off_c, 0, 55, 0
2, 30000, Note_on_c, 0, 47, 69
2, 30240, Note_off_c, 0, 47, 0
2, 30240, Note_on_c, 0, 55, 84
2, 30480, Note_off_c, 0, 55, 0
2, 30480, Note_on_c, 0, 47, 72
2, 30720, Note_off_c, 0, 47, 0
2, 30720, Note_on_c, 0, 40, 67
2, 30960, Note_on_c, 0, 49, 82
2, 30964, Note_off_c, 0, 40, 0
2, 31200, Note_on_c, 0, 50, 76
2, 31204, Note_off_c, 0, 49, 0
2, 31425, Note_off_c, 0, 50, 0
2, 31440, Note_on_c, 0, 52, 83
2, 31680, Note_off_c, 0, 52, 0
2, 31680, Note_on_c, 0, 50, 76
2, 31920, Note_off_c, 0, 50, 0
2, 31920, Note_on_c, 0, 49, 71
2, 32160, Note_off_c, 0, 49, 0
2, 32160, Note_on_c, 0, 47, 78
2, 32400, Note_off_c, 0, 47, 0
2, 32400, Note_on_c, 0, 45, 73
2, 32640, Note_off_c, 0, 45, 0
2, 32640, Note_on_c, 0, 55, 84
2, 32880, Note_on_c, 0, 54, 70
2, 32884, Note_off_c, 0, 55, 0
2, 33120, Note_on_c, 0, 52, 72
2, 33124, Note_off_c, 0, 54, 0
2, 33345, Note_off_c, 0, 52, 0
2, 33360, Note_on_c, 0, 62, 94
2, 33600, Note_off_c, 0, 62, 0
2, 33600, Note_on_c, 0, 61, 75
2, 33840, Note_off_c, 0, 61, 0
2, 33840, Note_on_c, 0, 59, 75
2, 34080, Note_off_c, 0, 59, 0
2, 34080, Note_on_c, 0, 57, 74
2, 34320, Note_off_c, 0, 57, 0
2, 34320, Note_on_c, 0, 55, 73
2, 34560, Note_off_c, 0, 55, 0
2, 34560, Note_on_c, 0, 54, 73
2, 34800, Note_on_c, 0, 52, 73
2, 34804, Note_off_c, 0, 54, 0
2, 35040, Note_on_c, 0, 50, 75
2, 35044, Note_off_c, 0, 52, 0
2, 35265, Note_off_c, 0, 50, 0
2, 35280, Note_on_c, 0, 62, 102
2, 35520, Note_off_c, 0, 62, 0
2, 35520, Note_on_c, 0, 57, 78
2, 35760, Note_off_c, 0, 57, 0
2, 35760, Note_on_c, 0, 62, 86
2, 36000, Note_off_c, 0, 62, 0
2, 36000, Note_on_c, 0, 54, 70
2, 36240, Note_off_c, 0, 54, 0
2, 36240, Note_on_c, 0, 57, 79
2, 36480, Note_off_c, 0, 57, 0
2, 36480, Note_on_c, 0, 50, 68
2, 36720, Note_on_c, 0, 52, 78
2, 36724, Note_off_c, 0, 50, 0
2, 36960, Note_on_c, 0, 54, 77
2, 36964, Note_off_c, 0, 52, 0
2, 37185, Note_off_c, 0, 54, 0
2, 37200, Note_on_c, 0, 57, 79
2, 37440, Note_off_c, 0, 57, 0
2, 37440, Note_on_c, 0, 55, 76
2, 37680, Note_off_c, 0, 55, 0
2, 37680, Note_on_c, 0, 54, 78
2, 37920, Note_off_c, 0, 54, 0
2, 37920, Note_on_c, 0, 52, 71
2, 38160, Note_off_c, 0, 52, 0
2, 38160, Note_on_c, 0, 50, 70
2, 38400, Note_off_c, 0, 50, 0
2, 38400, Note_on_c, 0, 56, 84
2, 38640, Note_off_c, 0, 56, 0
2, 38640, Note_on_c, 0, 50, 69
2, 38880, Note_on_c, 0, 53, 82
2, 38884, Note_off_c, 0, 50, 0
2, 39120, Note_on_c, 0, 52, 74
2, 39124, Note_off_c, 0, 53, 0
2, 39345, Note_off_c, 0, 52, 0
2, 39360, Note_on_c, 0, 53, 78
2, 39600, Note_off_c, 0, 53, 0
2, 39600, Note_on_c, 0, 50, 72
2, 39840, Note_off_c, 0, 50, 0
2, 39840, Note_on_c, 0, 56, 80
2, 40080, Note_off_c, 0, 56, 0
2, 40080, Note_on_c, 0, 50, 69
2, 40320, Note_off_c, 0, 50, 0
2, 40320, Note_on_c, 0, 59, 83
2, 40560, Note_off_c, 0, 59, 0
2, 40560, Note_on_c, 0, 50, 64
2, 40800, Note_on_c, 0, 53, 78
2, 40804, Note_off_c, 0, 50, 0
2, 41040, Note_on_c, 0, 52, 75
2, 41044, Note_off_c, 0, 53, 0
2, 41265, Note_off_c, 0, 52, 0
2, 41280, Note_on_c, 0, 53, 77
2, 41520, Note_off_c, 0, 53, 0
2, 41520, Note_on_c, 0, 50, 72
2, 41760, Note_off_c, 0, 50, 0
2, 41760, Note_on_c, 0, 56, 81
2, 42000, Note_off_c, 0, 56, 0
2, 42000, Note_on_c, 0, 50, 70
2, 42240, Note_off_c, 0, 50, 0
2, 42240, Note_on_c, 0, 48, 71
2, 42480, Note_on_c, 0, 52, 85
2, 42484, Note_off_c, 0, 48, 0
2, 42720, Note_on_c, 0, 57, 81
2, 42724, Note_off_c, 0, 52, 0
2, 42945, Note_off_c, 0, 57, 0
2, 42960, Note_on_c, 0, 59, 78
2, 43200, Note_off_c, 0, 59, 0
2, 43200, Note_on_c, 0, 60, 79
2, 43440, Note_off_c, 0, 60, 0
2, 43440, Note_on_c, 0, 57, 75
2, 43680, Note_off_c, 0, 57, 0
2, 43680, Note_on_c, 0, 52, 70
2, 43920, Note_off_c, 0, 52, 0
2, 43920, Note_on_c, 0, 50, 72
2, 44160, Note_off_c, 0, 50, 0
2, 44160, Note_on_c, 0, 48, 71
2, 44400, Note_on_c, 0, 52, 80
2, 44404, Note_off_c, 0, 48, 0
2, 44640, Note_on_c, 0, 57, 82
2, 44644, Note_off_c, 0, 52, 0
2, 44865, Note_off_c, 0, 57, 0
2, 44880, Note_on_c, 0, 59, 78
2, 45120, Note_off_c, 0, 59, 0
2, 45120, Note_on_c, 0, 60, 79
2, 45360, Note_off_c, 0, 60, 0
2, 45360, Note_on_c, 0, 57, 76
2, 45600, Note_off_c, 0, 57, 0
2, 45600, Note_on_c, 0, 54, 70
2, 45840, Note_off_c, 0, 54, 0
2, 45840, Note_on_c, 0, 52, 78
2, 46080, Note_off_c, 0, 52, 0
2, 46080, Note_on_c, 0, 51, 75
2, 46320, Note_on_c, 0, 54, 79
2, 46324, Note_off_c, 0, 51, 0
2, 46560, Note_on_c, 0, 51, 72
2, 46564, Note_off_c, 0, 54, 0
2, 46785, Note_off_c, 0, 51, 0
2, 46800, Note_on_c, 0, 54, 77
2, 47040, Note_off_c, 0, 54, 0
2, 47040, Note_on_c, 0, 57, 77
2, 47280, Note_off_c, 0, 57, 0
2, 47280, Note_on_c, 0, 54, 71
2, 47520, Note_off_c, 0, 54, 0
2, 47520, Note_on_c, 0, 57, 80
2, 47760, Note_off_c, 0, 57, 0
2, 47760, Note_on_c, 0, 54, 76
2, 48000, Note_off_c, 0, 54, 0
2, 48000, Note_on_c, 0, 51, 72
2, 48240, Note_on_c, 0, 54, 76
2, 48244, Note_off_c, 0, 51, 0
2, 48480, Note_on_c, 0, 51, 73
2, 48484, Note_off_c, 0, 54, 0
2, 48705, Note_off_c, 0, 51, 0
2, 48720, Note_on_c, 0, 54, 76
2, 48960, Note_off_c, 0, 54, 0
2, 48960, Note_on_c, 0, 57, 78
2, 49200, Note_off_c, 0, 57, 0
2, 49200, Note_on_c, 0, 54, 74
2, 49440, Note_off_c, 0, 54, 0
2, 49440, Note_on_c, 0, 57, 85
2, 49680, Note_off_c, 0, 57, 0
2, 49680, Note_on_c, 0, 54, 70
2, 49920, Note_off_c, 0, 54, 0
2, 49920, Note_on_c, 0, 55, 74
2, 50160, Note_on_c, 0, 54, 70
2, 50164, Note_off_c, 0, 55, 0
2, 50400, Note_on_c, 0, 52, 69
2, 50404, Note_off_c, 0, 54, 0
2, 50625, Note_off_c, 0, 52, 0
2, 50640, Note_on_c, 0, 55, 78
2, 50880, Note_off_c, 0, 55, 0
2, 50880, Note_on_c, 0, 54, 74
2, 51120, Note_off_c, 0, 54, 0
2, 51120, Note_on_c, 0, 55, 79
2, 51360, Note_off_c, 0, 55, 0
2, 51360, Note_on_c, 0, 57, 85
2, 51600, Note_off_c, 0, 57, 0
2, 51600, Note_on_c, 0, 54, 68
2, 51840, Note_off_c, 0, 54, 0
2, 51840, Note_on_c, 0, 55, 79
2, 52080, Note_off_c, 0, 55, 0
2, 52080, Note_on_c, 0, 54, 77
2, 52320, Note_off_c, 0, 54, 0
2, 52320, Note_on_c, 0, 52, 74
2, 52560, Note_off_c, 0, 52, 0
2, 52560, Note_on_c, 0, 50, 72
2, 52800, Note_off_c, 0, 50, 0
2, 52800, Note_on_c, 0, 48, 74
2, 53040, Note_off_c, 0, 48, 0
2, 53040, Note_on_c, 0, 47, 75
2, 53280, Note_off_c, 0, 47, 0
2, 53280, Note_on_c, 0, 45, 70
2, 53520, Note_off_c, 0, 45, 0
2, 53520, Note_on_c, 0, 43, 75
2, 53760, Note_off_c, 0, 43, 0
2, 53760, Note_on_c, 0, 42, 79
2, 54000, Note_on_c, 0, 48, 84
2, 54004, Note_off_c, 0, 42, 0
2, 54240, Note_on_c, 0, 50, 78
2, 54244, Note_off_c, 0, 48, 0
2, 54465, Note_off_c, 0, 50, 0
2, 54480, Note_on_c, 0, 48, 74
2, 54720, Note_off_c, 0, 48, 0
2, 54720, Note_on_c, 0, 50, 76
2, 54960, Note_off_c, 0, 50, 0
2, 54960, Note_on_c, 0, 48, 74
2, 55200, Note_off_c, 0, 48, 0
2, 55200, Note_on_c, 0, 50, 84
2, 55440, Note_off_c, 0, 50, 0
2, 55440, Note_on_c, 0, 48, 71
2, 55680, Note_off_c, 0, 48, 0
2, 55680, Note_on_c, 0, 42, 71
2, 55920, Note_on_c, 0, 48, 84
2, 55924, Note_off_c, 0, 42, 0
2, 56160, Note_on_c, 0, 50, 79
2, 56164, Note_off_c, 0, 48, 0
2, 56385, Note_off_c, 0, 50, 0
2, 56400, Note_on_c, 0, 48, 75
2, 56640, Note_off_c, 0, 48, 0
2, 56640, Note_on_c, 0, 50, 81
2, 56880, Note_off_c, 0, 50, 0
2, 56880, Note_on_c, 0, 48, 74
2, 57120, Note_off_c, 0, 48, 0
2, 57120, Note_on_c, 0, 50, 78
2, 57360, Note_off_c, 0, 50, 0
2, 57360, Note_on_c, 0, 48, 71
2, 57600, Note_off_c, 0, 48, 0
2, 57600, Note_on_c, 0, 43, 69
2, 57840, Note_on_c, 0, 47, 84
2, 57844, Note_off_c, 0, 43, 0
2, 58080, Note_on_c, 0, 53, 84
2, 58084, Note_off_c, 0, 47, 0
2, 58305, Note_off_c, 0, 53, 0
2, 58320, Note_on_c, 0, 52, 75
2, 58560, Note_off_c, 0, 52, 0
2, 58560, Note_on_c, 0, 53, 84
2, 58800, Note_off_c, 0, 53, 0
2, 58800, Note_on_c, 0, 47, 70
2, 59040, Note_off_c, 0, 47, 0
2, 59040, Note_on_c, 0, 53, 81
2, 59280, Note_off_c, 0, 53, 0
2, 59280, Note_on_c, 0, 47, 69
2, 59520, Note_off_c, 0, 47, 0
2, 59520, Note_on_c, 0, 43, 76
2, 59760, Note_on_c, 0, 47, 79
2, 59764, Note_off_c, 0, 43, 0
2, 60000, Note_on_c, 0, 53, 80
2, 60004, Note_off_c, 0, 47, 0
2, 60225, Note_off_c, 0, 53, 0
2, 60240, Note_on_c, 0, 52, 75
2, 60480, Note_off_c, 0, 52, 0
2, 60480, Note_on_c, 0, 53, 77
2, 60720, Note_off_c, 0, 53, 0
2, 60720, Note_on_c, 0, 47, 71
2, 60960, Note_off_c, 0, 47, 0
2, 60960, Note_on_c, 0, 53, 80
2, 61200, Note_off_c, 0, 53, 0
2, 61200, Note_on_c, 0, 47, 72
2, 61440, Note_off_c, 0, 47, 0
2, 61440, Note_on_c, 0, 43, 75
2, 61680, Note_on_c, 0, 48, 82
2, 61684, Note_off_c, 0, 43, 0
2, 61920, Note_on_c, 0, 52, 78
2, 61924, Note_off_c, 0, 48, 0
2, 62145, Note_off_c, 0, 52, 0
2, 62160, Note_on_c, 0, 50, 76
2, 62400, Note_off_c, 0, 50, 0
2, 62400, Note_on_c, 0, 52, 78
2, 62640, Note_off_c, 0, 52, 0
2, 62640, Note_on_c, 0, 48, 72
2, 62880, Note_off_c, 0, 48, 0
2, 62880, Note_on_c, 0, 52, 80
2, 63120, Note_off_c, 0, 52, 0
2, 63120, Note_on_c, 0, 48, 74
2, 63360, Note_off_c, 0, 48, 0
2, 63360, Note_on_c, 0, 43, 72
2, 63600, Note_on_c, 0, 48, 84
2, 63604, Note_off_c, 0, 43, 0
2, 63840, Note_on_c, 0, 52, 82
2, 63844, Note_off_c, 0, 48, 0
2, 64065, Note_off_c, 0, 52, 0
2, 64080, Note_on_c, 0, 50, 76
2, 64320, Note_off_c, 0, 50, 0
2, 64320, Note_on_c, 0, 52, 81
2, 64560, Note_off_c, 0, 52, 0
2, 64560, Note_on_c, 0, 48, 69
2, 64800, Note_off_c, 0, 48, 0
2, 64800, Note_on_c, 0, 52, 83
2, 65040, Note_off_c, 0, 52, 0
2, 65040, Note_on_c, 0, 48, 70
2, 65280, Note_off_c, 0, 48, 0
2, 65280, Note_on_c, 0, 43, 77
2, 65520, Note_on_c, 0, 54, 82
2, 65524, Note_off_c, 0, 43, 0
2, 65760, Note_on_c, 0, 60, 90
2, 65764, Note_off_c, 0, 54, 0
2, 65985, Note_off_c, 0, 60, 0
2, 66000, Note_on_c, 0, 59, 73
2, 66240, Note_off_c, 0, 59, 0
2, 66240, Note_on_c, 0, 60, 79
2, 66480, Note_off_c, 0, 60, 0
2, 66480, Note_on_c, 0, 54, 70
2, 66720, Note_off_c, 0, 54, 0
2, 66720, Note_on_c, 0, 60, 88
2, 66960, Note_off_c, 0, 60, 0
2, 66960, Note_on_c, 0, 54, 73
2, 67200, Note_off_c, 0, 54, 0
2, 67200, Note_on_c, 0, 43, 65
2, 67440, Note_on_c, 0, 54, 87
2, 67444, Note_off_c, 0, 43, 0
2, 67680, Note_on_c, 0, 60, 89
2, 67684, Note_off_c, 0, 54, 0
2, 67905, Note_off_c, 0, 60, 0
2, 67920, Note_on_c, 0, 59, 74
2, 68160, Note_off_c, 0, 59, 0
2, 68160, Note_on_c, 0, 60, 78
2, 68400, Note_off_c, 0, 60, 0
2, 68400, Note_on_c, 0, 54, 69
2, 68640, Note_off_c, 0, 54, 0
2, 68640, Note_on_c, 0, 60, 89
2, 68880, Note_off_c, 0, 60, 0
2, 68880, Note_on_c, 0, 54, 75
2, 69120, Note_off_c, 0, 54, 0
2, 69120, Note_on_c, 0, 43, 66
2, 69360, Note_on_c, 0, 50, 85
2, 69364, Note_off_c, 0, 43, 0
2, 69600, Note_on_c, 0, 59, 88
2, 69604, Note_off_c, 0, 50, 0
2, 69825, Note_off_c, 0, 59, 0
2, 69840, Note_on_c, 0, 57, 75
2, 70080, Note_off_c, 0, 57, 0
2, 70080, Note_on_c, 0, 59, 82
2, 70320, Note_off_c, 0, 59, 0
2, 70320, Note_on_c, 0, 55, 71
2, 70560, Note_off_c, 0, 55, 0
2, 70560, Note_on_c, 0, 54, 70
2, 70800, Note_off_c, 0, 54, 0
2, 70800, Note_on_c, 0, 52, 72
2, 71040, Note_off_c, 0, 52, 0
2, 71040, Note_on_c, 0, 50, 77
2, 71280, Note_off_c, 0, 50, 0
2, 71280, Note_on_c, 0, 48, 73
2, 71520, Note_off_c, 0, 48, 0
2, 71520, Note_on_c, 0, 47, 75
2, 71760, Note_off_c, 0, 47, 0
2, 71760, Note_on_c, 0, 45, 71
2, 72000, Note_off_c, 0, 45, 0
2, 72000, Note_on_c, 0, 43, 71
2, 72240, Note_off_c, 0, 43, 0
2, 72240, Note_on_c, 0, 42, 76
2, 72480, Note_off_c, 0, 42, 0
2, 72480, Note_on_c, 0, 40, 68
2, 72720, Note_off_c, 0, 40, 0
2, 72720, Note_on_c, 0, 38, 74
2, 72960, Note_off_c, 0, 38, 0
2, 72960, Note_on_c, 0, 37, 71
2, 73200, Note_on_c, 0, 45, 83
2, 73204, Note_off_c, 0, 37, 0
2, 73440, Note_on_c, 0, 52, 84
2, 73444, Note_off_c, 0, 45, 0
2, 73665, Note_off_c, 0, 52, 0
2, 73680, Note_on_c, 0, 54, 81
2, 73920, Note_off_c, 0, 54, 0
2, 73920, Note_on_c, 0, 55, 78
2, 74160, Note_off_c, 0, 55, 0
2, 74160, Note_on_c, 0, 52, 77
2, 74400, Note_off_c, 0, 52, 0
2, 74400, Note_on_c, 0, 54, 73
2, 74640, Note_off_c, 0, 54, 0
2, 74640, Note_on_c, 0, 55, 78
2, 74880, Note_off_c, 0, 55, 0
2, 74880, Note_on_c, 0, 37, 68
2, 75120, Note_on_c, 0, 45, 81
2, 75124, Note_off_c, 0, 37, 0
2, 75360, Note_on_c, 0, 52, 79
2, 75364, Note_off_c, 0, 45, 0
2, 75585, Note_off_c, 0, 52, 0
2, 75600, Note_on_c, 0, 54, 81
2, 75840, Note_off_c, 0, 54, 0
2, 75840, Note_on_c, 0, 55, 81
2, 76080, Note_off_c, 0, 55, 0
2, 76080, Note_on_c, 0, 52, 73
2, 76320, Note_off_c, 0, 52, 0
2, 76320, Note_on_c, 0, 54, 79
2, 76560, Note_off_c, 0, 54, 0
2, 76560, Note_on_c, 0, 55, 74
2, 76800, Note_off_c, 0, 55, 0
2, 76800, Note_on_c, 0, 36, 67
2, 77040, Note_off_c, 0, 36, 0
2, 77040, Note_on_c, 0, 45, 84
2, 77280, Note_on_c, 0, 50, 83
2, 77284, Note_off_c, 0, 45, 0
2, 77520, Note_on_c, 0, 52, 85
2, 77524, Note_off_c, 0, 50, 0
2, 77745, Note_off_c, 0, 52, 0
2, 77760, Note_on_c, 0, 54, 79
2, 78000, Note_off_c, 0, 54, 0
2, 78000, Note_on_c, 0, 50, 76
2, 78240, Note_off_c, 0, 50, 0
2, 78240, Note_on_c, 0, 52, 82
2, 78480, Note_off_c, 0, 52, 0
2, 78480, Note_on_c, 0, 54, 77
2, 78720, Note_off_c, 0, 54, 0
2, 78720, Note_on_c, 0, 36, 65
2, 78960, Note_off_c, 0, 36, 0
2, 78960, Note_on_c, 0, 45, 87
2, 79200, Note_on_c, 0, 50, 81
2, 79204, Note_off_c, 0, 45, 0
2, 79440, Note_on_c, 0, 52, 79
2, 79444, Note_off_c, 0, 50, 0
2, 79665, Note_off_c, 0, 52, 0
2, 79680, Note_on_c, 0, 54, 80
2, 79920, Note_off_c, 0, 54, 0
2, 79920, Note_on_c, 0, 50, 74
2, 80160, Note_off_c, 0, 50, 0
2, 80160, Note_on_c, 0, 52, 77
2, 80400, Note_off_c, 0, 52, 0
2, 80400, Note_on_c, 0, 54, 78
2, 80640, Note_off_c, 0, 54, 0
2, 80640, Note_on_c, 0, 36, 62
2, 80880, Note_off_c, 0, 36, 0
2, 80880, Note_on_c, 0, 45, 83
2, 81120, Note_on_c, 0, 50, 80
2, 81124, Note_off_c, 0, 45, 0
2, 81360, Note_on_c, 0, 54, 77
2, 81364, Note_off_c, 0, 50, 0
2, 81585, Note_off_c, 0, 54, 0
2, 81600, Note_on_c, 0, 57, 82
2, 81840, Note_off_c, 0, 57, 0
2, 81840, Note_on_c, 0, 61, 83
2, 82080, Note_off_c, 0, 61, 0
2, 82080, Note_on_c, 0, 62, 80
2, 83040, Note_off_c, 0, 62, 0
2, 83040, Note_on_c, 0, 45, 66
2, 83280, Note_off_c, 0, 45, 0
2, 83280, Note_on_c, 0, 47, 80
2, 83520, Note_off_c, 0, 47, 0
2, 83520, Note_on_c, 0, 48, 81
2, 83760, Note_off_c, 0, 48, 0
2, 83760, Note_on_c, 0, 50, 77
2, 84000, Note_off_c, 0, 50, 0
2, 84000, Note_on_c, 0, 52, 80
2, 84240, Note_off_c, 0, 52, 0
2, 84240, Note_on_c, 0, 54, 77
2, 84480, Note_off_c, 0, 54, 0
2, 84480, Note_on_c, 0, 55, 74
2, 84720, Note_off_c, 0, 55, 0
2, 84720, Note_on_c, 0, 57, 83
2, 84960, Note_off_c, 0, 57, 0
2, 84960, Note_on_c, 0, 54, 77
2, 85200, Note_off_c, 0, 54, 0
2, 85200, Note_on_c, 0, 50, 69
2, 85440, Note_off_c, 0, 50, 0
2, 85440, Note_on_c, 0, 52, 75
2, 85680, Note_off_c, 0, 52, 0
2, 85680, Note_on_c, 0, 54, 81
2, 85920, Note_off_c, 0, 54, 0
2, 85920, Note_on_c, 0, 55, 73
2, 86160, Note_off_c, 0, 55, 0
2, 86160, Note_on_c, 0, 57, 80
2, 86400, Note_off_c, 0, 57, 0
2, 86400, Note_on_c, 0, 59, 79
2, 86640, Note_off_c, 0, 59, 0
2, 86640, Note_on_c, 0, 60, 79
2, 86880, Note_off_c, 0, 60, 0
2, 86880, Note_on_c, 0, 57, 72
2, 87120, Note_off_c, 0, 57, 0
2, 87120, Note_on_c, 0, 54, 74
2, 87360, Note_off_c, 0, 54, 0
2, 87360, Note_on_c, 0, 55, 79
2, 87600, Note_off_c, 0, 55, 0
2, 87600, Note_on_c, 0, 57, 81
2, 87840, Note_off_c, 0, 57, 0
2, 87840, Note_on_c, 0, 59, 77
2, 88080, Note_off_c, 0, 59, 0
2, 88080, Note_on_c, 0, 60, 84
2, 88320, Note_off_c, 0, 60, 0
2, 88320, Note_on_c, 0, 62, 82
2, 88560, Note_off_c, 0, 62, 0
2, 88560, Note_on_c, 0, 63, 76
2, 88800, Note_on_c, 0, 62, 75
2, 88804, Note_off_c, 0, 63, 0
2, 89040, Note_on_c, 0, 61, 75
2, 89044, Note_off_c, 0, 62, 0
2, 89280, Note_on_c, 0, 62, 80
2, 89284, Note_off_c, 0, 61, 0
2, 89505, Note_off_c, 0, 62, 0
2, 89520, Note_on_c, 0, 62, 78
2, 89760, Note_on_c, 0, 60, 68
2, 89764, Note_off_c, 0, 62, 0
2, 90000, Note_on_c, 0, 59, 72
2, 90004, Note_off_c, 0, 60, 0
2, 90240, Note_on_c, 0, 60, 84
2, 90244, Note_off_c, 0, 59, 0
2, 90465, Note_off_c, 0, 60, 0
2, 90480, Note_on_c, 0, 60, 77
2, 90720, Note_off_c, 0, 60, 0
2, 90720, Note_on_c, 0, 57, 74
2, 90960, Note_off_c, 0, 57, 0
2, 90960, Note_on_c, 0, 54, 73
2, 91200, Note_off_c, 0, 54, 0
2, 91200, Note_on_c, 0, 52, 74
2, 91440, Note_off_c, 0, 52, 0
2, 91440, Note_on_c, 0, 50, 70
2, 91680, Note_off_c, 0, 50, 0
2, 91680, Note_on_c, 0, 45, 68
2, 91920, Note_off_c, 0, 45, 0
2, 91920, Note_on_c, 0, 47, 78
2, 92160, Note_off_c, 0, 47, 0
2, 92160, Note_on_c, 0, 48, 79
2, 92400, Note_off_c, 0, 48, 0
2, 92400, Note_on_c, 0, 38, 68
2, 92640, Note_on_c, 0, 45, 82
2, 92644, Note_off_c, 0, 38, 0
2, 92880, Note_on_c, 0, 50, 78
2, 92884, Note_off_c, 0, 45, 0
2, 93105, Note_off_c, 0, 50, 0
2, 93120, Note_on_c, 0, 54, 78
2, 93360, Note_off_c, 0, 54, 0
2, 93360, Note_on_c, 0, 57, 81
2, 93600, Note_off_c, 0, 57, 0
2, 93600, Note_on_c, 0, 59, 78
2, 93840, Note_off_c, 0, 59, 0
2, 93840, Note_on_c, 0, 60, 79
2, 94080, Note_off_c, 0, 60, 0
2, 94080, Note_on_c, 0, 57, 72
2, 94320, Note_off_c, 0, 57, 0
2, 94320, Note_on_c, 0, 59, 73
2, 94560, Note_off_c, 0, 59, 0
2, 94560, Note_on_c, 0, 55, 75
2, 94800, Note_off_c, 0, 55, 0
2, 94800, Note_on_c, 0, 50, 73
2, 95040, Note_off_c, 0, 50, 0
2, 95040, Note_on_c, 0, 48, 68
2, 95280, Note_off_c, 0, 48, 0
2, 95280, Note_on_c, 0, 47, 72
2, 95520, Note_off_c, 0, 47, 0
2, 95520, Note_on_c, 0, 43, 73
2, 95760, Note_off_c, 0, 43, 0
2, 95760, Note_on_c, 0, 45, 79
2, 96000, Note_off_c, 0, 45, 0
2, 96000, Note_on_c, 0, 47, 80
2, 96240, Note_off_c, 0, 47, 0
2, 96240, Note_on_c, 0, 38, 68
2, 96480, Note_on_c, 0, 43, 79
2, 96484, Note_off_c, 0, 38, 0
2, 96720, Note_on_c, 0, 47, 79
2, 96724, Note_off_c, 0, 43, 0
2, 96945, Note_off_c, 0, 47, 0
2, 96960, Note_on_c, 0, 50, 79
2, 97200, Note_off_c, 0, 50, 0
2, 97200, Note_on_c, 0, 55, 83
2, 97440, Note_off_c, 0, 55, 0
2, 97440, Note_on_c, 0, 57, 80
2, 97680, Note_off_c, 0, 57, 0
2, 97680, Note_on_c, 0, 59, 79
2, 97920, Note_off_c, 0, 59, 0
2, 97920, Note_on_c, 0, 55, 69
2, 98160, Note_off_c, 0, 55, 0
2, 98160, Note_on_c, 0, 61, 86
2, 98400, Note_on_c, 0, 58, 76
2, 98404, Note_off_c, 0, 61, 0
2, 98640, Note_on_c, 0, 57, 74
2, 98644, Note_off_c, 0, 58, 0
2, 98880, Note_on_c, 0, 58, 78
2, 98884, Note_off_c, 0, 57, 0
2, 99105, Note_off_c, 0, 58, 0
2, 99120, Note_on_c, 0, 58, 66
2, 99360, Note_on_c, 0, 57, 72
2, 99364, Note_off_c, 0, 58, 0
2, 99600, Note_on_c, 0, 56, 72
2, 99604, Note_off_c, 0, 57, 0
2, 99840, Note_on_c, 0, 57, 82
2, 99844, Note_off_c, 0, 56, 0
2, 100065, Note_off_c, 0, 57, 0
2, 100080, Note_on_c, 0, 57, 84
2, 100320, Note_on_c, 0, 55, 82
2, 100324, Note_off_c, 0, 57, 0
2, 100560, Note_on_c, 0, 54, 83
2, 100564, Note_off_c, 0, 55, 0
2, 100800, Note_on_c, 0, 55, 86
2, 100804, Note_off_c, 0, 54, 0
2, 101025, Note_off_c, 0, 55, 0
2, 101040, Note_on_c, 0, 55, 81
2, 101280, Note_on_c, 0, 52, 78
2, 101284, Note_off_c, 0, 55, 0
2, 101520, Note_on_c, 0, 49, 79
2, 101524, Note_off_c, 0, 52, 0
2, 101760, Note_on_c, 0, 47, 83
2, 101764, Note_off_c, 0, 49, 0
2, 101985, Note_off_c, 0, 47, 0
2, 102000, Note_on_c, 0, 45, 82
2, 102240, Note_off_c, 0, 45, 0
2, 102240, Note_on_c, 0, 49, 85
2, 102480, Note_off_c, 0, 49, 0
2, 102480, Note_on_c, 0, 52, 85
2, 102720, Note_off_c, 0, 52, 0
2, 102720, Note_on_c, 0, 55, 86
2, 102960, Note_off_c, 0, 55, 0
2, 102960, Note_on_c, 0, 57, 85
2, 103200, Note_off_c, 0, 57, 0
2, 103200, Note_on_c, 0, 61, 93
2, 103440, Note_off_c, 0, 61, 0
2, 103440, Note_on_c, 0, 62, 90
2, 103680, Note_off_c, 0, 62, 0
2, 103680, Note_on_c, 0, 61, 86
2, 103920, Note_off_c, 0, 61, 0
2, 103920, Note_on_c, 0, 62, 102
2, 104160, Note_on_c, 0, 57, 94
2, 104164, Note_off_c, 0, 62, 0
2, 104400, Note_on_c, 0, 54, 96
2, 104404, Note_off_c, 0, 57, 0
2, 104625, Note_off_c, 0, 54, 0
2, 104640, Note_on_c, 0, 52, 92
2, 104880, Note_off_c, 0, 52, 0
2, 104880, Note_on_c, 0, 54, 101
2, 105120, Note_off_c, 0, 54, 0
2, 105120, Note_on_c, 0, 57, 103
2, 105360, Note_off_c, 0, 57, 0
2, 105360, Note_on_c, 0, 50, 92
2, 105600, Note_off_c, 0, 50, 0
2, 105600, Note_on_c, 0, 54, 101
2, 105840, Note_off_c, 0, 54, 0
2, 105840, Note_on_c, 0, 45, 85
2, 106080, Note_off_c, 0, 45, 0
2, 106080, Note_on_c, 0, 50, 102
2, 106320, Note_off_c, 0, 50, 0
2, 106320, Note_on_c, 0, 49, 96
2, 106560, Note_off_c, 0, 49, 0
2, 106560, Note_on_c, 0, 47, 95
2, 106800, Note_off_c, 0, 47, 0
2, 106800, Note_on_c, 0, 45, 96
2, 107040, Note_off_c, 0, 45, 0
2, 107040, Note_on_c, 0, 43, 95
2, 107280, Note_off_c, 0, 43, 0
2, 107280, Note_on_c, 0, 42, 96
2, 107520, Note_off_c, 0, 42, 0
2, 107520, Note_on_c, 0, 40, 93
2, 107760, Note_off_c, 0, 40, 0
2, 107760, Note_on_c, 0, 38, 94
2, 108240, Note_off_c, 0, 38, 0
2, 108240, Note_on_c, 0, 60, 113
2, 108458, Note_off_c, 0, 60, 0
2, 108480, Note_on_c, 0, 59, 99
2, 108720, Note_on_c, 0, 57, 91
2, 108724, Note_off_c, 0, 59, 0
2, 108960, Note_on_c, 0, 55, 96
2, 108964, Note_off_c, 0, 57, 0
2, 109200, Note_on_c, 0, 54, 96
2, 109204, Note_off_c, 0, 55, 0
2, 109440, Note_on_c, 0, 52, 94
2, 109444, Note_off_c, 0, 54, 0
2, 109680, Note_on_c, 0, 50, 97
2, 109684, Note_off_c, 0, 52, 0
2, 109905, Note_off_c, 0, 50, 0
2, 109920, Note_on_c, 0, 60, 117
2, 110160, Note_on_c, 0, 59, 100
2, 110164, Note_off_c, 0, 60, 0
2, 110400, Note_on_c, 0, 57, 94
2, 110404, Note_off_c, 0, 59, 0
2, 110640, Note_on_c, 0, 55, 99
2, 110644, Note_off_c, 0, 57, 0
2, 110880, Note_on_c, 0, 54, 98
2, 110884, Note_off_c, 0, 55, 0
2, 111120, Note_on_c, 0, 52, 91
2, 111124, Note_off_c, 0, 54, 0
2, 111360, Note_on_c, 0, 50, 91
2, 111364, Note_off_c, 0, 52, 0
2, 111600, Note_on_c, 0, 48, 93
2, 111604, Note_off_c, 0, 50, 0
2, 111825, Note_off_c, 0, 48, 0
2, 111840, Note_on_c, 0, 59, 108
2, 112080, Note_on_c, 0, 57, 95
2, 112084, Note_off_c, 0, 59, 0
2, 112320, Note_on_c, 0, 55, 93
2, 112324, Note_off_c, 0, 57, 0
2, 112560, Note_on_c, 0, 54, 98
2, 112564, Note_off_c, 0, 55, 0
2, 112800, Note_on_c, 0, 52, 100
2, 112804, Note_off_c, 0, 54, 0
2, 113040, Note_on_c, 0, 50, 93
2, 113044, Note_off_c, 0, 52, 0
2, 113280, Note_on_c, 0, 48, 97
2, 113284, Note_off_c, 0, 50, 0
2, 113520, Note_on_c, 0, 47, 96
2, 113524, Note_off_c, 0, 48, 0
2, 113745, Note_off_c, 0, 47, 0
2, 113760, Note_on_c, 0, 57, 111
2, 114000, Note_on_c, 0, 55, 97
2, 114004, Note_off_c, 0, 57, 0
2, 114240, Note_on_c, 0, 54, 96
2, 114244, Note_off_c, 0, 55, 0
2, 114480, Note_on_c, 0, 52, 93
2, 114484, Note_off_c, 0, 54, 0
2, 114720, Note_on_c, 0, 50, 94
2, 114724, Note_off_c, 0, 52, 0
2, 114960, Note_on_c, 0, 48, 92
2, 114964, Note_off_c, 0, 50, 0
2, 115200, Note_on_c, 0, 47, 101
2, 115204, Note_off_c, 0, 48, 0
2, 115440, Note_on_c, 0, 45, 94
2, 115444, Note_off_c, 0, 47, 0
2, 115665, Note_off_c, 0, 45, 0
2, 115680, Note_on_c, 0, 55, 105
2, 115898, Note_off_c, 0, 55, 0
2, 115920, Note_on_c, 0, 54, 98
2, 116160, Note_on_c, 0, 52, 94
2, 116164, Note_off_c, 0, 54, 0
2, 116385, Note_off_c, 0, 52, 0
2, 116400, Note_on_c, 0, 54, 110
2, 116640, Note_on_c, 0, 57, 105
2, 116644, Note_off_c, 0, 54, 0
2, 116865, Note_off_c, 0, 57, 0
2, 116880, Note_on_c, 0, 50, 83
2, 117120, Note_off_c, 0, 50, 0
2, 117120, Note_on_c, 0, 57, 104
2, 117360, Note_off_c, 0, 57, 0
2, 117360, Note_on_c, 0, 52, 90
2, 117600, Note_off_c, 0, 52, 0
2, 117600, Note_on_c, 0, 57, 106
2, 117840, Note_off_c, 0, 57, 0
2, 117840, Note_on_c, 0, 54, 93
2, 118080, Note_off_c, 0, 54, 0
2, 118080, Note_on_c, 0, 57, 103
2, 118320, Note_off_c, 0, 57, 0
2, 118320, Note_on_c, 0, 55, 94
2, 118560, Note_off_c, 0, 55, 0
2, 118560, Note_on_c, 0, 57, 109
2, 118800, Note_off_c, 0, 57, 0
2, 118800, Note_on_c, 0, 52, 90
2, 119040, Note_off_c, 0, 52, 0
2, 119040, Note_on_c, 0, 57, 102
2, 119280, Note_off_c, 0, 57, 0
2, 119280, Note_on_c, 0, 54, 98
2, 119520, Note_off_c, 0, 54, 0
2, 119520, Note_on_c, 0, 57, 100
2, 119760, Note_off_c, 0, 57, 0
2, 119760, Note_on_c, 0, 50, 89
2, 120000, Note_off_c, 0, 50, 0
2, 120000, Note_on_c, 0, 57, 109
2, 120240, Note_off_c, 0, 57, 0
2, 120240, Note_on_c, 0, 55, 92
2, 120480, Note_off_c, 0, 55, 0
2, 120480, Note_on_c, 0, 57, 100
2, 120720, Note_off_c, 0, 57, 0
2, 120720, Note_on_c, 0, 52, 94
2, 120960, Note_off_c, 0, 52, 0
2, 120960, Note_on_c, 0, 57, 103
2, 121200, Note_off_c, 0, 57, 0
2, 121200, Note_on_c, 0, 54, 93
2, 121440, Note_off_c, 0, 54, 0
2, 121440, Note_on_c, 0, 57, 105
2, 121680, Note_off_c, 0, 57, 0
2, 121680, Note_on_c, 0, 50, 91
2, 121920, Note_off_c, 0, 50, 0
2, 121920, Note_on_c, 0, 57, 103
2, 122160, Note_off_c, 0, 57, 0
2, 122160, Note_on_c, 0, 55, 92
2, 122400, Note_off_c, 0, 55, 0
2, 122400, Note_on_c, 0, 57, 97
2, 122640, Note_off_c, 0, 57, 0
2, 122640, Note_on_c, 0, 52, 93
2, 122880, Note_off_c, 0, 52, 0
2, 122880, Note_on_c, 0, 57, 98
2, 123120, Note_off_c, 0, 57, 0
2, 123120, Note_on_c, 0, 54, 65
2, 123360, Note_off_c, 0, 54, 0
2, 123360, Note_on_c, 0, 57, 77
2, 123600, Note_off_c, 0, 57, 0
2, 123600, Note_on_c, 0, 50, 71
2, 123840, Note_off_c, 0, 50, 0
2, 123840, Note_on_c, 0, 57, 82
2, 124080, Note_off_c, 0, 57, 0
2, 124080, Note_on_c, 0, 52, 74
2, 124320, Note_off_c, 0, 52, 0
2, 124320, Note_on_c, 0, 57, 80
2, 124560, Note_off_c, 0, 57, 0
2, 124560, Note_on_c, 0, 54, 79
2, 124800, Note_off_c, 0, 54, 0
2, 124800, Note_on_c, 0, 57, 78
2, 125040, Note_off_c, 0, 57, 0
2, 125040, Note_on_c, 0, 55, 75
2, 125280, Note_off_c, 0, 55, 0
2, 125280, Note_on_c, 0, 57, 87
2, 125520, Note_off_c, 0, 57, 0
2, 125520, Note_on_c, 0, 57, 71
2, 125760, Note_off_c, 0, 57, 0
2, 125760, Note_on_c, 0, 57, 85
2, 126000, Note_off_c, 0, 57, 0
2, 126000, Note_on_c, 0, 59, 70
2, 126240, Note_off_c, 0, 59, 0
2, 126240, Note_on_c, 0, 57, 86
2, 126480, Note_off_c, 0, 57, 0
2, 126480, Note_on_c, 0, 50, 64
2, 126720, Note_off_c, 0, 50, 0
2, 126720, Note_on_c, 0, 57, 87
2, 126960, Note_off_c, 0, 57, 0
2, 126960, Note_on_c, 0, 57, 69
2, 127200, Note_off_c, 0, 57, 0
2, 127200, Note_on_c, 0, 57, 88
2, 127440, Note_off_c, 0, 57, 0
2, 127440, Note_on_c, 0, 59, 69
2, 127680, Note_off_c, 0, 59, 0
2, 127680, Note_on_c, 0, 57, 89
2, 127920, Note_off_c, 0, 57, 0
2, 127920, Note_on_c, 0, 60, 73
2, 128160, Note_off_c, 0, 60, 0
2, 128160, Note_on_c, 0, 57, 87
2, 128400, Note_off_c, 0, 57, 0
2, 128400, Note_on_c, 0, 50, 66
2, 128640, Note_off_c, 0, 50, 0
2, 128640, Note_on_c, 0, 57, 86
2, 128880, Note_off_c, 0, 57, 0
2, 128880, Note_on_c, 0, 59, 67
2, 129120, Note_off_c, 0, 59, 0
2, 129120, Note_on_c, 0, 57, 86
2, 129360, Note_off_c, 0, 57, 0
2, 129360, Note_on_c, 0, 60, 67
2, 129600, Note_off_c, 0, 60, 0
2, 129600, Note_on_c, 0, 57, 88
2, 129840, Note_off_c, 0, 57, 0
2, 129840, Note_on_c, 0, 62, 67
2, 130080, Note_off_c, 0, 62, 0
2, 130080, Note_on_c, 0, 57, 87
2, 130320, Note_off_c, 0, 57, 0
2, 130320, Note_on_c, 0, 59, 68
2, 130560, Note_off_c, 0, 59, 0
2, 130560, Note_on_c, 0, 57, 88
2, 130800, Note_off_c, 0, 57, 0
2, 130800, Note_on_c, 0, 60, 71
2, 131040, Note_off_c, 0, 60, 0
2, 131040, Note_on_c, 0, 57, 87
2, 131280, Note_off_c, 0, 57, 0
2, 131280, Note_on_c, 0, 59, 68
2, 131520, Note_off_c, 0, 59, 0
2, 131520, Note_on_c, 0, 57, 84
2, 131760, Note_off_c, 0, 57, 0
2, 131760, Note_on_c, 0, 60, 65
2, 132000, Note_off_c, 0, 60, 0
2, 132000, Note_on_c, 0, 57, 88
2, 132240, Note_off_c, 0, 57, 0
2, 132240, Note_on_c, 0, 57, 72
2, 132480, Note_off_c, 0, 57, 0
2, 132480, Note_on_c, 0, 57, 84
2, 132720, Note_off_c, 0, 57, 0
2, 132720, Note_on_c, 0, 59, 66
2, 132960, Note_off_c, 0, 59, 0
2, 132960, Note_on_c, 0, 57, 86
2, 133200, Note_off_c, 0, 57, 0
2, 133200, Note_on_c, 0, 57, 68
2, 133440, Note_off_c, 0, 57, 0
2, 133440, Note_on_c, 0, 57, 92
2, 133680, Note_off_c, 0, 57, 0
2, 133680, Note_on_c, 0, 59, 70
2, 133920, Note_off_c, 0, 59, 0
2, 133920, Note_on_c, 0, 57, 86
2, 134160, Note_off_c, 0, 57, 0
2, 134160, Note_on_c, 0, 55, 71
2, 134400, Note_off_c, 0, 55, 0
2, 134400, Note_on_c, 0, 57, 87
2, 134640, Note_off_c, 0, 57, 0
2, 134640, Note_on_c, 0, 57, 69
2, 134880, Note_off_c, 0, 57, 0
2, 134880, Note_on_c, 0, 57, 92
2, 135120, Note_off_c, 0, 57, 0
2, 135120, Note_on_c, 0, 55, 69
2, 135360, Note_off_c, 0, 55, 0
2, 135360, Note_on_c, 0, 57, 90
2, 135600, Note_off_c, 0, 57, 0
2, 135600, Note_on_c, 0, 57, 67
2, 135840, Note_off_c, 0, 57, 0
2, 135840, Note_on_c, 0, 57, 88
2, 136080, Note_off_c, 0, 57, 0
2, 136080, Note_on_c, 0, 54, 66
2, 136320, Note_off_c, 0, 54, 0
2, 136320, Note_on_c, 0, 57, 93
2, 136560, Note_off_c, 0, 57, 0
2, 136560, Note_on_c, 0, 55, 90
2, 136800, Note_off_c, 0, 55, 0
2, 136800, Note_on_c, 0, 57, 99
2, 137040, Note_off_c, 0, 57, 0
2, 137040, Note_on_c, 0, 54, 95
2, 137280, Note_off_c, 0, 54, 0
2, 137280, Note_on_c, 0, 57, 99
2, 137520, Note_off_c, 0, 57, 0
2, 137520, Note_on_c, 0, 55, 95
2, 137760, Note_off_c, 0, 55, 0
2, 137760, Note_on_c, 0, 57, 103
2, 138000, Note_off_c, 0, 57, 0
2, 138000, Note_on_c, 0, 52, 85
2, 138240, Note_off_c, 0, 52, 0
2, 138240, Note_on_c, 0, 57, 102
2, 138480, Note_off_c, 0, 57, 0
2, 138480, Note_on_c, 0, 54, 89
2, 138694, Note_off_c, 0, 54, 0
2, 138720, Note_on_c, 0, 57, 106
2, 138960, Note_off_c, 0, 57, 0
2, 138960, Note_on_c, 0, 50, 88
2, 139200, Note_on_c, 0, 52, 100
2, 139204, Note_off_c, 0, 50, 0
2, 139425, Note_off_c, 0, 52, 0
2, 139440, Note_on_c, 0, 53, 109
2, 139680, Note_off_c, 0, 53, 0
2, 139680, Note_on_c, 0, 50, 95
2, 139920, Note_off_c, 0, 50, 0
2, 139920, Note_on_c, 0, 54, 101
2, 140160, Note_off_c, 0, 54, 0
2, 140160, Note_on_c, 0, 50, 95
2, 140400, Note_off_c, 0, 50, 0
2, 140400, Note_on_c, 0, 55, 101
2, 140640, Note_off_c, 0, 55, 0
2, 140640, Note_on_c, 0, 50, 95
2, 140880, Note_off_c, 0, 50, 0
2, 140880, Note_on_c, 0, 56, 106
2, 141120, Note_off_c, 0, 56, 0
2, 141120, Note_on_c, 0, 50, 90
2, 141360, Note_off_c, 0, 50, 0
2, 141360, Note_on_c, 0, 57, 107
2, 141600, Note_off_c, 0, 57, 0
2, 141600, Note_on_c, 0, 50, 91
2, 141840, Note_off_c, 0, 50, 0
2, 141840, Note_on_c, 0, 58, 106
2, 142080, Note_off_c, 0, 58, 0
2, 142080, Note_on_c, 0, 50, 91
2, 142320, Note_off_c, 0, 50, 0
2, 142320, Note_on_c, 0, 59, 105
2, 142560, Note_off_c, 0, 59, 0
2, 142560, Note_on_c, 0, 50, 92
2, 142800, Note_off_c, 0, 50, 0
2, 142800, Note_on_c, 0, 60, 116
2, 143040, Note_off_c, 0, 60, 0
2, 143040, Note_on_c, 0, 50, 95
2, 143280, Note_off_c, 0, 50, 0
2, 143280, Note_on_c, 0, 61, 123
2, 143520, Note_off_c, 0, 61, 0
2, 143520, Note_on_c, 0, 50, 88
2, 143760, Note_off_c, 0, 50, 0
2, 143760, Note_on_c, 0, 62, 122
2, 144000, Note_off_c, 0, 62, 0
2, 144000, Note_on_c, 0, 50, 88
2, 144240, Note_off_c, 0, 50, 0
2, 144240, Note_on_c, 0, 63, 122
2, 144480, Note_off_c, 0, 63, 0
2, 144480, Note_on_c, 0, 50, 87
2, 144720, Note_off_c, 0, 50, 0
2, 144720, Note_on_c, 0, 64, 120
2, 144960, Note_off_c, 0, 64, 0
2, 144960, Note_on_c, 0, 50, 89
2, 145200, Note_off_c, 0, 50, 0
2, 145200, Note_on_c, 0, 65, 121
2, 145440, Note_off_c, 0, 65, 0
2, 145440, Note_on_c, 0, 50, 83
2, 145680, Note_off_c, 0, 50, 0
2, 145680, Note_on_c, 0, 66, 127
2, 145920, Note_off_c, 0, 66, 0
2, 145920, Note_on_c, 0, 50, 89
2, 146160, Note_off_c, 0, 50, 0
2, 146160, Note_on_c, 0, 67, 125
2, 146400, Note_off_c, 0, 67, 0
2, 146400, Note_on_c, 0, 59, 93
2, 146640, Note_on_c, 0, 50, 84
2, 146644, Note_off_c, 0, 59, 0
2, 146880, Note_on_c, 0, 59, 108
2, 146884, Note_off_c, 0, 50, 0
2, 147105, Note_off_c, 0, 59, 0
2, 147120, Note_on_c, 0, 67, 119
2, 147360, Note_off_c, 0, 67, 0
2, 147360, Note_on_c, 0, 59, 95
2, 147600, Note_off_c, 0, 59, 0
2, 147600, Note_on_c, 0, 67, 120
2, 147840, Note_off_c, 0, 67, 0
2, 147840, Note_on_c, 0, 59, 85
2, 148080, Note_off_c, 0, 59, 0
2, 148080, Note_on_c, 0, 67, 114
2, 148320, Note_off_c, 0, 67, 0
2, 148320, Note_on_c, 0, 59, 94
2, 148560, Note_off_c, 0, 59, 0
2, 148560, Note_on_c, 0, 50, 90
2, 148800, Note_off_c, 0, 50, 0
2, 148800, Note_on_c, 0, 59, 106
2, 149040, Note_off_c, 0, 59, 0
2, 149040, Note_on_c, 0, 67, 119
2, 149280, Note_off_c, 0, 67, 0
2, 149280, Note_on_c, 0, 59, 94
2, 149520, Note_off_c, 0, 59, 0
2, 149520, Note_on_c, 0, 67, 120
2, 149760, Note_off_c, 0, 67, 0
2, 149760, Note_on_c, 0, 59, 94
2, 150000, Note_off_c, 0, 59, 0
2, 150000, Note_on_c, 0, 67, 117
2, 150240, Note_off_c, 0, 67, 0
2, 150240, Note_on_c, 0, 57, 89
2, 150480, Note_on_c, 0, 50, 87
2, 150484, Note_off_c, 0, 57, 0
2, 150720, Note_on_c, 0, 57, 98
2, 150724, Note_off_c, 0, 50, 0
2, 150945, Note_off_c, 0, 57, 0
2, 150960, Note_on_c, 0, 67, 123
2, 151200, Note_off_c, 0, 67, 0
2, 151200, Note_on_c, 0, 57, 86
2, 151440, Note_off_c, 0, 57, 0
2, 151440, Note_on_c, 0, 67, 121
2, 151680, Note_off_c, 0, 67, 0
2, 151680, Note_on_c, 0, 57, 88
2, 151920, Note_off_c, 0, 57, 0
2, 151920, Note_on_c, 0, 67, 121
2, 152160, Note_off_c, 0, 67, 0
2, 152160, Note_on_c, 0, 57, 90
2, 152400, Note_off_c, 0, 57, 0
2, 152400, Note_on_c, 0, 50, 89
2, 152640, Note_off_c, 0, 50, 0
2, 152640, Note_on_c, 0, 57, 102
2, 152880, Note_off_c, 0, 57, 0
2, 152880, Note_on_c, 0, 67, 123
2, 153120, Note_off_c, 0, 67, 0
2, 153120, Note_on_c, 0, 57, 92
2, 153360, Note_off_c, 0, 57, 0
2, 153360, Note_on_c, 0, 67, 119
2, 153600, Note_off_c, 0, 67, 0
2, 153600, Note_on_c, 0, 57, 92
2, 153840, Note_off_c, 0, 57, 0
2, 153840, Note_on_c, 0, 66, 118
2, 154080, Note_off_c, 0, 66, 0
2, 154080, Note_on_c, 0, 60, 83
2, 154320, Note_on_c, 0, 50, 82
2, 154324, Note_off_c, 0, 60, 0
2, 154560, Note_on_c, 0, 60, 117
2, 154564, Note_off_c, 0, 50, 0
2, 154785, Note_off_c, 0, 60, 0
2, 154800, Note_on_c, 0, 66, 116
2, 155040, Note_off_c, 0, 66, 0
2, 155040, Note_on_c, 0, 60, 89
2, 155280, Note_off_c, 0, 60, 0
2, 155280, Note_on_c, 0, 66, 110
2, 155520, Note_off_c, 0, 66, 0
2, 155520, Note_on_c, 0, 60, 86
2, 155760, Note_off_c, 0, 60, 0
2, 155760, Note_on_c, 0, 66, 115
2, 156000, Note_off_c, 0, 66, 0
2, 156000, Note_on_c, 0, 60, 83
2, 156240, Note_off_c, 0, 60, 0
2, 156240, Note_on_c, 0, 50, 82
2, 156480, Note_off_c, 0, 50, 0
2, 156480, Note_on_c, 0, 60, 114
2, 156720, Note_off_c, 0, 60, 0
2, 156720, Note_on_c, 0, 66, 119
2, 156960, Note_off_c, 0, 66, 0
2, 156960, Note_on_c, 0, 60, 84
2, 157200, Note_off_c, 0, 60, 0
2, 157200, Note_on_c, 0, 66, 107
2, 157440, Note_off_c, 0, 66, 0
2, 157440, Note_on_c, 0, 60, 90
2, 157680, Note_off_c, 0, 60, 0
2, 157680, Note_on_c, 0, 43, 113
2, 157680, Note_on_c, 0, 59, 113
2, 157680, Note_on_c, 0, 67, 113
2, 163440, Note_off_c, 0, 43, 0
2, 163440, Note_off_c, 0, 59, 0
2, 163440, Note_off_c, 0, 67, 0
2, 167280, Note_on_c, 0, 59, 89
2, 167520, Note_off_c, 0, 59, 0
2, 167520, Note_on_c, 0, 43, 97
2, 167520, Note_on_c, 0, 50, 97
2, 167520, Note_on_c, 0, 59, 97
2, 168480, Note_off_c, 0, 43, 0
2, 168480, Note_off_c, 0, 50, 0
2, 168720, Note_off_c, 0, 59, 0
2, 168720, Note_on_c, 0, 57, 99
2, 168960, Note_on_c, 0, 55, 95
2, 168964, Note_off_c, 0, 57, 0
2, 169200, Note_on_c, 0, 54, 96
2, 169204, Note_off_c, 0, 55, 0
2, 169425, Note_off_c, 0, 54, 0
2, 169440, Note_on_c, 0, 55, 104
2, 169680, Note_on_c, 0, 50, 94
2, 169684, Note_off_c, 0, 55, 0
2, 169920, Note_on_c, 0, 52, 98
2, 169924, Note_off_c, 0, 50, 0
2, 170160, Note_on_c, 0, 54, 99
2, 170164, Note_off_c, 0, 52, 0
2, 170385, Note_off_c, 0, 54, 0
2, 170400, Note_on_c, 0, 55, 103
2, 170640, Note_on_c, 0, 57, 100
2, 170644, Note_off_c, 0, 55, 0
2, 170880, Note_on_c, 0, 59, 100
2, 170884, Note_off_c, 0, 57, 0
2, 171120, Note_on_c, 0, 60, 101
2, 171124, Note_off_c, 0, 59, 0
2, 171345, Note_off_c, 0, 60, 0
2, 171360, Note_on_c, 0, 62, 104
2, 171600, Note_off_c, 0, 62, 0
2, 171600, Note_on_c, 0, 59, 96
2, 171840, Note_off_c, 0, 59, 0
2, 171840, Note_on_c, 0, 55, 90
2, 172080, Note_on_c, 0, 54, 96
2, 172084, Note_off_c, 0, 55, 0
2, 172320, Note_on_c, 0, 55, 98
2, 172324, Note_off_c, 0, 54, 0
2, 172545, Note_off_c, 0, 55, 0
2, 172560, Note_on_c, 0, 52, 95
2, 172800, Note_off_c, 0, 52, 0
2, 172800, Note_on_c, 0, 50, 98
2, 173040, Note_off_c, 0, 50, 0
2, 173040, Note_on_c, 0, 48, 96
2, 173280, Note_off_c, 0, 48, 0
2, 173280, Note_on_c, 0, 47, 97
2, 173520, Note_on_c, 0, 48, 104
2, 173524, Note_off_c, 0, 47, 0
2, 173760, Note_on_c, 0, 50, 99
2, 173764, Note_off_c, 0, 48, 0
2, 174000, Note_on_c, 0, 52, 100
2, 174004, Note_off_c, 0, 50, 0
2, 174225, Note_off_c, 0, 52, 0
2, 174240, Note_on_c, 0, 54, 96
2, 174480, Note_on_c, 0, 55, 104
2, 174484, Note_off_c, 0, 54, 0
2, 174720, Note_on_c, 0, 57, 97
2, 174724, Note_off_c, 0, 55, 0
2, 174960, Note_on_c, 0, 59, 102
2, 174964, Note_off_c, 0, 57, 0
2, 175185, Note_off_c, 0, 59, 0
2, 175200, Note_on_c, 0, 60, 106
2, 175440, Note_off_c, 0, 60, 0
2, 175440, Note_on_c, 0, 57, 91
2, 175680, Note_off_c, 0, 57, 0
2, 175680, Note_on_c, 0, 55, 92
2, 175920, Note_on_c, 0, 54, 95
2, 175924, Note_off_c, 0, 55, 0
2, 176160, Note_on_c, 0, 55, 103
2, 176164, Note_off_c, 0, 54, 0
2, 176385, Note_off_c, 0, 55, 0
2, 176400, Note_on_c, 0, 52, 101
2, 176640, Note_off_c, 0, 52, 0
2, 176640, Note_on_c, 0, 54, 98
2, 176880, Note_off_c, 0, 54, 0
2, 176880, Note_on_c, 0, 55, 99
2, 177120, Note_off_c, 0, 55, 0
2, 177120, Note_on_c, 0, 45, 88
2, 177360, Note_off_c, 0, 45, 0
2, 177360, Note_on_c, 0, 50, 101
2, 177600, Note_on_c, 0, 54, 103
2, 177604, Note_off_c, 0, 50, 0
2, 177840, Note_on_c, 0, 55, 99
2, 177844, Note_off_c, 0, 54, 0
2, 178065, Note_off_c, 0, 55, 0
2, 178080, Note_on_c, 0, 57, 99
2, 178320, Note_off_c, 0, 57, 0
2, 178320, Note_on_c, 0, 59, 98
2, 178560, Note_off_c, 0, 59, 0
2, 178560, Note_on_c, 0, 60, 106
2, 178800, Note_off_c, 0, 60, 0
2, 178800, Note_on_c, 0, 57, 95
2, 179040, Note_off_c, 0, 57, 0
2, 179040, Note_on_c, 0, 59, 101
2, 179280, Note_on_c, 0, 55, 92
2, 179284, Note_off_c, 0, 59, 0
2, 179505, Note_off_c, 0, 55, 0
2, 179520, Note_on_c, 0, 55, 96
2, 179760, Note_on_c, 0, 50, 92
2, 179764, Note_off_c, 0, 55, 0
2, 179985, Note_off_c, 0, 50, 0
2, 180000, Note_on_c, 0, 50, 96
2, 180240, Note_on_c, 0, 47, 94
2, 180244, Note_off_c, 0, 50, 0
2, 180465, Note_off_c, 0, 47, 0
2, 180480, Note_on_c, 0, 47, 99
2, 180720, Note_on_c, 0, 43, 97
2, 180724, Note_off_c, 0, 47, 0
2, 180840, Note_off_c, 0, 43, 0
2, 180960, Note_on_c, 0, 43, 98
2, 181680, Note_off_c, 0, 43, 0
2, 181680, Note_on_c, 0, 59, 112
2, 181920, Note_off_c, 0, 59, 0
2, 181920, Note_on_c, 0, 60, 105
2, 182160, Note_off_c, 0, 60, 0
2, 182160, Note_on_c, 0, 59, 96
2, 182400, Note_off_c, 0, 59, 0
2, 182400, Note_on_c, 0, 57, 99
2, 182640, Note_off_c, 0, 57, 0
2, 182640, Note_on_c, 0, 55, 94
2, 182880, Note_off_c, 0, 55, 0
2, 182880, Note_on_c, 0, 57, 104
2, 183120, Note_on_c, 0, 59, 95
2, 183124, Note_off_c, 0, 57, 0
2, 183360, Note_on_c, 0, 60, 104
2, 183364, Note_off_c, 0, 59, 0
2, 183585, Note_off_c, 0, 60, 0
2, 183600, Note_on_c, 0, 57, 91
2, 183840, Note_off_c, 0, 57, 0
2, 183840, Note_on_c, 0, 55, 93
2, 184080, Note_on_c, 0, 54, 94
2, 184084, Note_off_c, 0, 55, 0
2, 184320, Note_on_c, 0, 55, 100
2, 184324, Note_off_c, 0, 54, 0
2, 184545, Note_off_c, 0, 55, 0
2, 184560, Note_on_c, 0, 57, 101
2, 184800, Note_off_c, 0, 57, 0
2, 184800, Note_on_c, 0, 51, 91
2, 184913, Note_off_c, 0, 51, 0
2, 184935, Note_on_c, 0, 52, 91
2, 185040, Note_off_c, 0, 52, 0
2, 185059, Note_on_c, 0, 51, 91
2, 185156, Note_off_c, 0, 51, 0
2, 185175, Note_on_c, 0, 52, 91
2, 185265, Note_off_c, 0, 52, 0
2, 185299, Note_on_c, 0, 51, 91
2, 185396, Note_off_c, 0, 51, 0
2, 185434, Note_on_c, 0, 52, 91
2, 185516, Note_off_c, 0, 52, 0
2, 185520, Note_on_c, 0, 60, 114
2, 185760, Note_off_c, 0, 60, 0
2, 185760, Note_on_c, 0, 59, 103
2, 186000, Note_off_c, 0, 59, 0
2, 186000, Note_on_c, 0, 57, 92
2, 186240, Note_off_c, 0, 57, 0
2, 186240, Note_on_c, 0, 55, 98
2, 186480, Note_off_c, 0, 55, 0
2, 186480, Note_on_c, 0, 54, 92
2, 186720, Note_off_c, 0, 54, 0
2, 186720, Note_on_c, 0, 55, 100
2, 186960, Note_on_c, 0, 52, 94
2, 186964, Note_off_c, 0, 55, 0
2, 187185, Note_off_c, 0, 52, 0
2, 187200, Note_on_c, 0, 52, 100
2, 187440, Note_on_c, 0, 47, 91
2, 187444, Note_off_c, 0, 52, 0
2, 187665, Note_off_c, 0, 47, 0
2, 187680, Note_on_c, 0, 47, 98
2, 187920, Note_on_c, 0, 43, 90
2, 187924, Note_off_c, 0, 47, 0
2, 188145, Note_off_c, 0, 43, 0
2, 188160, Note_on_c, 0, 43, 98
2, 188400, Note_on_c, 0, 40, 94
2, 188404, Note_off_c, 0, 43, 0
2, 188625, Note_off_c, 0, 40, 0
2, 188640, Note_on_c, 0, 40, 101
2, 189360, Note_off_c, 0, 40, 0
2, 189360, Note_on_c, 0, 47, 102
2, 189600, Note_off_c, 0, 47, 0
2, 189600, Note_on_c, 0, 52, 104
2, 189840, Note_off_c, 0, 52, 0
2, 189840, Note_on_c, 0, 55, 106
2, 190080, Note_off_c, 0, 55, 0
2, 190080, Note_on_c, 0, 54, 97
2, 190320, Note_off_c, 0, 54, 0
2, 190320, Note_on_c, 0, 57, 102
2, 190560, Note_off_c, 0, 57, 0
2, 190560, Note_on_c, 0, 55, 97
2, 190800, Note_on_c, 0, 54, 101
2, 190804, Note_off_c, 0, 55, 0
2, 191040, Note_on_c, 0, 52, 96
2, 191044, Note_off_c, 0, 54, 0
2, 191265, Note_off_c, 0, 52, 0
2, 191280, Note_on_c, 0, 54, 101
2, 191520, Note_off_c, 0, 54, 0
2, 191520, Note_on_c, 0, 55, 100
2, 191760, Note_off_c, 0, 55, 0
2, 191760, Note_on_c, 0, 61, 117
2, 192000, Note_off_c, 0, 61, 0
2, 192000, Note_on_c, 0, 55, 91
2, 192240, Note_on_c, 0, 54, 97
2, 192244, Note_off_c, 0, 55, 0
2, 192480, Note_on_c, 0, 55, 102
2, 192484, Note_off_c, 0, 54, 0
2, 192705, Note_off_c, 0, 55, 0
2, 192720, Note_on_c, 0, 61, 113
2, 192960, Note_off_c, 0, 61, 0
2, 192960, Note_on_c, 0, 52, 89
2, 193200, Note_on_c, 0, 54, 103
2, 193204, Note_off_c, 0, 52, 0
2, 193440, Note_on_c, 0, 55, 98
2, 193444, Note_off_c, 0, 54, 0
2, 193665, Note_off_c, 0, 55, 0
2, 193680, Note_on_c, 0, 52, 97
2, 193920, Note_off_c, 0, 52, 0
2, 193920, Note_on_c, 0, 45, 86
2, 194160, Note_off_c, 0, 45, 0
2, 194160, Note_on_c, 0, 55, 113
2, 194400, Note_off_c, 0, 55, 0
2, 194400, Note_on_c, 0, 54, 97
2, 194880, Note_off_c, 0, 54, 0
2, 194880, Note_on_c, 0, 50, 94
2, 195120, Note_on_c, 0, 52, 98
2, 195124, Note_off_c, 0, 50, 0
2, 195345, Note_off_c, 0, 52, 0
2, 195360, Note_on_c, 0, 54, 103
2, 195600, Note_off_c, 0, 54, 0
2, 195600, Note_on_c, 0, 50, 90
2, 195840, Note_off_c, 0, 50, 0
2, 195840, Note_on_c, 0, 55, 102
2, 196080, Note_off_c, 0, 55, 0
2, 196080, Note_on_c, 0, 52, 94
2, 196320, Note_off_c, 0, 52, 0
2, 196320, Note_on_c, 0, 54, 103
2, 196560, Note_off_c, 0, 54, 0
2, 196560, Note_on_c, 0, 50, 96
2, 196800, Note_on_c, 0, 54, 102
2, 196804, Note_off_c, 0, 50, 0
2, 197040, Note_on_c, 0, 55, 95
2, 197044, Note_off_c, 0, 54, 0
2, 197265, Note_off_c, 0, 55, 0
2, 197280, Note_on_c, 0, 57, 98
2, 197520, Note_off_c, 0, 57, 0
2, 197520, Note_on_c, 0, 59, 100
2, 197760, Note_off_c, 0, 59, 0
2, 197760, Note_on_c, 0, 60, 101
2, 198000, Note_off_c, 0, 60, 0
2, 198000, Note_on_c, 0, 57, 93
2, 198240, Note_off_c, 0, 57, 0
2, 198240, Note_on_c, 0, 59, 106
2, 198480, Note_on_c, 0, 50, 83
2, 198484, Note_off_c, 0, 59, 0
2, 198720, Note_on_c, 0, 43, 83
2, 198724, Note_off_c, 0, 50, 0
2, 198945, Note_off_c, 0, 43, 0
2, 198960, Note_on_c, 0, 50, 107
2, 199200, Note_off_c, 0, 50, 0
2, 199200, Note_on_c, 0, 59, 111
2, 199440, Note_off_c, 0, 59, 0
2, 199440, Note_on_c, 0, 55, 99
2, 199680, Note_off_c, 0, 55, 0
2, 199680, Note_on_c, 0, 57, 97
2, 199920, Note_off_c, 0, 57, 0
2, 199920, Note_on_c, 0, 54, 100
2, 200160, Note_off_c, 0, 54, 0
2, 200160, Note_on_c, 0, 55, 98
2, 200400, Note_off_c, 0, 55, 0
2, 200400, Note_on_c, 0, 52, 91
2, 200640, Note_on_c, 0, 55, 102
2, 200644, Note_off_c, 0, 52, 0
2, 200880, Note_on_c, 0, 57, 96
2, 200884, Note_off_c, 0, 55, 0
2, 201105, Note_off_c, 0, 57, 0
2, 201120, Note_on_c, 0, 59, 100
2, 201360, Note_off_c, 0, 59, 0
2, 201360, Note_on_c, 0, 61, 101
2, 201600, Note_off_c, 0, 61, 0
2, 201600, Note_on_c, 0, 62, 101
2, 201840, Note_off_c, 0, 62, 0
2, 201840, Note_on_c, 0, 59, 98
2, 202080, Note_off_c, 0, 59, 0
2, 202080, Note_on_c, 0, 61, 105
2, 202320, Note_on_c, 0, 52, 86
2, 202324, Note_off_c, 0, 61, 0
2, 202560, Note_on_c, 0, 43, 86
2, 202564, Note_off_c, 0, 52, 0
2, 202785, Note_off_c, 0, 43, 0
2, 202800, Note_on_c, 0, 52, 111
2, 203040, Note_off_c, 0, 52, 0
2, 203040, Note_on_c, 0, 61, 125
2, 203280, Note_off_c, 0, 61, 0
2, 203280, Note_on_c, 0, 57, 97
2, 203520, Note_off_c, 0, 57, 0
2, 203520, Note_on_c, 0, 59, 103
2, 203760, Note_off_c, 0, 59, 0
2, 203760, Note_on_c, 0, 62, 110
2, 204000, Note_off_c, 0, 62, 0
2, 204000, Note_on_c, 0, 61, 99
2, 204240, Note_off_c, 0, 61, 0
2, 204240, Note_on_c, 0, 57, 89
2, 204480, Note_off_c, 0, 57, 0
2, 204480, Note_on_c, 0, 62, 109
2, 204720, Note_off_c, 0, 62, 0
2, 204720, Note_on_c, 0, 59, 94
2, 204960, Note_off_c, 0, 59, 0
2, 204960, Note_on_c, 0, 61, 107
2, 205200, Note_off_c, 0, 61, 0
2, 205200, Note_on_c, 0, 57, 93
2, 205440, Note_off_c, 0, 57, 0
2, 205440, Note_on_c, 0, 64, 116
2, 205680, Note_off_c, 0, 64, 0
2, 205680, Note_on_c, 0, 55, 93
2, 205920, Note_off_c, 0, 55, 0
2, 205920, Note_on_c, 0, 54, 93
2, 206033, Note_off_c, 0, 54, 0
2, 206055, Note_on_c, 0, 55, 93
2, 206160, Note_off_c, 0, 55, 0
2, 206179, Note_on_c, 0, 54, 93
2, 206276, Note_off_c, 0, 54, 0
2, 206295, Note_on_c, 0, 55, 93
2, 206385, Note_off_c, 0, 55, 0
2, 206419, Note_on_c, 0, 54, 93
2, 206516, Note_off_c, 0, 54, 0
2, 206554, Note_on_c, 0, 55, 93
2, 206636, Note_off_c, 0, 55, 0
2, 206640, Note_on_c, 0, 62, 119
2, 206880, Note_off_c, 0, 62, 0
2, 206880, Note_on_c, 0, 57, 92
2, 207120, Note_on_c, 0, 55, 92
2, 207124, Note_off_c, 0, 57, 0
2, 207345, Note_off_c, 0, 55, 0
2, 207360, Note_on_c, 0, 54, 91
2, 207600, Note_on_c, 0, 52, 95
2, 207604, Note_off_c, 0, 54, 0
2, 207825, Note_off_c, 0, 52, 0
2, 207840, Note_on_c, 0, 50, 94
2, 208080, Note_off_c, 0, 50, 0
2, 208080, Note_on_c, 0, 57, 107
2, 208320, Note_off_c, 0, 57, 0
2, 208320, Note_on_c, 0, 55, 96
2, 208560, Note_off_c, 0, 55, 0
2, 208560, Note_on_c, 0, 52, 94
2, 208800, Note_off_c, 0, 52, 0
2, 208800, Note_on_c, 0, 54, 100
2, 209040, Note_off_c, 0, 54, 0
2, 209040, Note_on_c, 0, 50, 92
2, 209280, Note_off_c, 0, 50, 0
2, 209280, Note_on_c, 0, 57, 104
2, 209520, Note_off_c, 0, 57, 0
2, 209520, Note_on_c, 0, 48, 91
2, 209760, Note_off_c, 0, 48, 0
2, 209760, Note_on_c, 0, 47, 95
2, 209873, Note_off_c, 0, 47, 0
2, 209895, Note_on_c, 0, 48, 95
2, 210000, Note_off_c, 0, 48, 0
2, 210019, Note_on_c, 0, 47, 95
2, 210116, Note_off_c, 0, 47, 0
2, 210135, Note_on_c, 0, 48, 95
2, 210225, Note_off_c, 0, 48, 0
2, 210259, Note_on_c, 0, 47, 95
2, 210356, Note_off_c, 0, 47, 0
2, 210394, Note_on_c, 0, 48, 95
2, 210476, Note_off_c, 0, 48, 0
2, 210480, Note_on_c, 0, 55, 110
2, 210720, Note_off_c, 0, 55, 0
2, 210720, Note_on_c, 0, 50, 99
2, 210960, Note_on_c, 0, 48, 91
2, 210964, Note_off_c, 0, 50, 0
2, 211185, Note_off_c, 0, 48, 0
2, 211200, Note_on_c, 0, 47, 103
2, 211440, Note_on_c, 0, 45, 101
2, 211444, Note_off_c, 0, 47, 0
2, 211665, Note_off_c, 0, 45, 0
2, 211680, Note_on_c, 0, 43, 93
2, 211920, Note_off_c, 0, 43, 0
2, 211920, Note_on_c, 0, 50, 109
2, 212160, Note_off_c, 0, 50, 0
2, 212160, Note_on_c, 0, 48, 95
2, 212400, Note_off_c, 0, 48, 0
2, 212400, Note_on_c, 0, 45, 90
2, 212640, Note_off_c, 0, 45, 0
2, 212640, Note_on_c, 0, 47, 99
2, 212880, Note_off_c, 0, 47, 0
2, 212880, Note_on_c, 0, 43, 94
2, 213120, Note_off_c, 0, 43, 0
2, 213120, Note_on_c, 0, 50, 104
2, 213360, Note_off_c, 0, 50, 0
2, 213360, Note_on_c, 0, 42, 84
2, 213600, Note_off_c, 0, 42, 0
2, 213600, Note_on_c, 0, 40, 102
2, 213840, Note_off_c, 0, 40, 0
2, 213840, Note_on_c, 0, 43, 107
2, 214080, Note_on_c, 0, 45, 100
2, 214084, Note_off_c, 0, 43, 0
2, 214320, Note_on_c, 0, 47, 104
2, 214324, Note_off_c, 0, 45, 0
2, 214545, Note_off_c, 0, 47, 0
2, 214560, Note_on_c, 0, 49, 94
2, 214778, Note_off_c, 0, 49, 0
2, 214800, Note_on_c, 0, 50, 99
2, 215040, Note_on_c, 0, 52, 103
2, 215044, Note_off_c, 0, 50, 0
2, 215280, Note_on_c, 0, 54, 100
2, 215284, Note_off_c, 0, 52, 0
2, 215505, Note_off_c, 0, 54, 0
2, 215520, Note_on_c, 0, 55, 108
2, 215760, Note_on_c, 0, 57, 102
2, 215764, Note_off_c, 0, 55, 0
2, 216000, Note_on_c, 0, 61, 105
2, 216004, Note_off_c, 0, 57, 0
2, 216240, Note_on_c, 0, 62, 105
2, 216244, Note_off_c, 0, 61, 0
2, 216465, Note_off_c, 0, 62, 0
2, 216480, Note_on_c, 0, 64, 98
2, 216698, Note_off_c, 0, 64, 0
2, 216720, Note_on_c, 0, 57, 94
2, 216960, Note_on_c, 0, 67, 118
2, 216964, Note_off_c, 0, 57, 0
2, 217414, Note_off_c, 0, 67, 0
2, 217440, Note_on_c, 0, 50, 91
2, 217680, Note_off_c, 0, 50, 0
2, 217680, Note_on_c, 0, 67, 127
2, 217920, Note_on_c, 0, 66, 100
2, 217924, Note_off_c, 0, 67, 0
2, 218160, Note_on_c, 0, 64, 92
2, 218164, Note_off_c, 0, 66, 0
2, 218385, Note_off_c, 0, 64, 0
2, 218400, Note_on_c, 0, 66, 102
2, 218640, Note_off_c, 0, 66, 0
2, 218640, Note_on_c, 0, 62, 83
2, 218880, Note_off_c, 0, 62, 0
2, 218880, Note_on_c, 0, 57, 88
2, 219120, Note_off_c, 0, 57, 0
2, 219120, Note_on_c, 0, 62, 110
2, 219360, Note_off_c, 0, 62, 0
2, 219360, Note_on_c, 0, 50, 86
2, 219600, Note_on_c, 0, 54, 103
2, 219604, Note_off_c, 0, 50, 0
2, 219840, Note_on_c, 0, 57, 106
2, 219844, Note_off_c, 0, 54, 0
2, 220065, Note_off_c, 0, 57, 0
2, 220080, Note_on_c, 0, 60, 107
2, 220320, Note_off_c, 0, 60, 0
2, 220320, Note_on_c, 0, 59, 97
2, 220433, Note_off_c, 0, 59, 0
2, 220455, Note_on_c, 0, 60, 97
2, 220560, Note_off_c, 0, 60, 0
2, 220579, Note_on_c, 0, 59, 97
2, 220676, Note_off_c, 0, 59, 0
2, 220695, Note_on_c, 0, 60, 97
2, 220785, Note_off_c, 0, 60, 0
2, 220819, Note_on_c, 0, 59, 97
2, 220916, Note_off_c, 0, 59, 0
2, 220954, Note_on_c, 0, 60, 97
2, 221036, Note_off_c, 0, 60, 0
2, 221040, Note_on_c, 0, 57, 95
2, 221280, Note_off_c, 0, 57, 0
2, 221280, Note_on_c, 0, 43, 100
2, 221280, Note_on_c, 0, 50, 100
2, 221280, Note_on_c, 0, 59, 100
2, 222000, Note_off_c, 0, 43, 0
2, 222000, Note_off_c, 0, 50, 0
2, 222000, Note_off_c, 0, 59, 0
2, 222000, Note_on_c, 0, 57, 97
2, 222240, Note_off_c, 0, 57, 0
2, 222240, Note_on_c, 0, 55, 94
2, 222480, Note_on_c, 0, 54, 96
2, 222484, Note_off_c, 0, 55, 0
2, 222720, Note_on_c, 0, 52, 96
2, 222724, Note_off_c, 0, 54, 0
2, 222945, Note_off_c, 0, 52, 0
2, 222960, Note_on_c, 0, 62, 119
2, 223200, Note_off_c, 0, 62, 0
2, 223200, Note_on_c, 0, 61, 89
2, 223440, Note_off_c, 0, 61, 0
2, 223440, Note_on_c, 0, 64, 110
2, 223680, Note_off_c, 0, 64, 0
2, 223680, Note_on_c, 0, 57, 93
2, 223920, Note_off_c, 0, 57, 0
2, 223920, Note_on_c, 0, 55, 96
2, 224160, Note_off_c, 0, 55, 0
2, 224160, Note_on_c, 0, 54, 95
2, 224400, Note_off_c, 0, 54, 0
2, 224400, Note_on_c, 0, 50, 91
2, 224640, Note_off_c, 0, 50, 0
2, 224640, Note_on_c, 0, 45, 96
2, 224880, Note_off_c, 0, 45, 0
2, 224880, Note_on_c, 0, 49, 106
2, 225120, Note_off_c, 0, 49, 0
2, 225120, Note_on_c, 0, 38, 92
2, 225840, Note_off_c, 0, 38, 0
2, 225840, Note_on_c, 0, 45, 105
2, 226080, Note_off_c, 0, 45, 0
2, 226080, Note_on_c, 0, 50, 104
2, 226320, Note_off_c, 0, 50, 0
2, 226320, Note_on_c, 0, 54, 104
2, 226560, Note_off_c, 0, 54, 0
2, 226560, Note_on_c, 0, 57, 105
2, 226800, Note_off_c, 0, 57, 0
2, 226800, Note_on_c, 0, 61, 109
2, 227040, Note_off_c, 0, 61, 0
2, 227040, Note_on_c, 0, 62, 105
2, 227280, Note_off_c, 0, 62, 0
2, 227280, Note_on_c, 0, 57, 97
2, 227520, Note_off_c, 0, 57, 0
2, 227520, Note_on_c, 0, 54, 89
2, 227760, Note_off_c, 0, 54, 0
2, 227760, Note_on_c, 0, 50, 88
2, 228000, Note_off_c, 0, 50, 0
2, 228000, Note_on_c, 0, 38, 87
2, 228720, Note_off_c, 0, 38, 0
2, 228720, Note_on_c, 0, 57, 114
2, 228960, Note_off_c, 0, 57, 0
2, 228960, Note_on_c, 0, 50, 107
2, 228960, Note_on_c, 0, 57, 107
2, 229920, Note_off_c, 0, 50, 0
2, 230160, Note_off_c, 0, 57, 0
2, 230160, Note_on_c, 0, 54, 96
2, 230400, Note_on_c, 0, 55, 98
2, 230404, Note_off_c, 0, 54, 0
2, 230640, Note_on_c, 0, 57, 102
2, 230644, Note_off_c, 0, 55, 0
2, 230865, Note_off_c, 0, 57, 0
2, 230880, Note_on_c, 0, 50, 91
2, 231120, Note_on_c, 0, 52, 100
2, 231124, Note_off_c, 0, 50, 0
2, 231360, Note_on_c, 0, 54, 99
2, 231364, Note_off_c, 0, 52, 0
2, 231600, Note_on_c, 0, 55, 99
2, 231604, Note_off_c, 0, 54, 0
2, 231825, Note_off_c, 0, 55, 0
2, 231840, Note_on_c, 0, 57, 101
2, 232080, Note_off_c, 0, 57, 0
2, 232080, Note_on_c, 0, 54, 93
2, 232320, Note_off_c, 0, 54, 0
2, 232320, Note_on_c, 0, 50, 91
2, 232560, Note_on_c, 0, 48, 91
2, 232564, Note_off_c, 0, 50, 0
2, 232785, Note_off_c, 0, 48, 0
2, 232800, Note_on_c, 0, 47, 96
2, 233040, Note_off_c, 0, 47, 0
2, 233040, Note_on_c, 0, 50, 97
2, 233258, Note_off_c, 0, 50, 0
2, 233280, Note_on_c, 0, 55, 108
2, 233520, Note_on_c, 0, 54, 99
2, 233524, Note_off_c, 0, 55, 0
2, 233745, Note_off_c, 0, 54, 0
2, 233760, Note_on_c, 0, 55, 99
2, 234000, Note_off_c, 0, 55, 0
2, 234000, Note_on_c, 0, 57, 100
2, 234240, Note_off_c, 0, 57, 0
2, 234240, Note_on_c, 0, 59, 105
2, 234480, Note_off_c, 0, 59, 0
2, 234480, Note_on_c, 0, 60, 99
2, 234720, Note_off_c, 0, 60, 0
2, 234720, Note_on_c, 0, 62, 106
2, 234960, Note_off_c, 0, 62, 0
2, 234960, Note_on_c, 0, 59, 95
2, 235200, Note_off_c, 0, 59, 0
2, 235200, Note_on_c, 0, 57, 92
2, 235440, Note_off_c, 0, 57, 0
2, 235440, Note_on_c, 0, 55, 95
2, 235680, Note_off_c, 0, 55, 0
2, 235680, Note_on_c, 0, 53, 93
2, 235920, Note_on_c, 0, 52, 89
2, 235924, Note_off_c, 0, 53, 0
2, 236160, Note_on_c, 0, 53, 100
2, 236164, Note_off_c, 0, 52, 0
2, 236385, Note_off_c, 0, 53, 0
2, 236400, Note_on_c, 0, 62, 117
2, 236640, Note_off_c, 0, 62, 0
2, 236640, Note_on_c, 0, 52, 94
2, 236753, Note_off_c, 0, 52, 0
2, 236764, Note_on_c, 0, 54, 94
2, 236861, Note_off_c, 0, 54, 0
2, 236884, Note_on_c, 0, 52, 94
2, 236978, Note_off_c, 0, 52, 0
2, 237019, Note_on_c, 0, 54, 94
2, 237038, Note_off_c, 0, 54, 0
2, 237041, Note_on_c, 0, 50, 91
2, 237120, Note_off_c, 0, 50, 0
2, 237120, Note_on_c, 0, 48, 93
2, 237574, Note_off_c, 0, 48, 0
2, 237600, Note_on_c, 0, 60, 125
2, 237840, Note_off_c, 0, 60, 0
2, 237840, Note_on_c, 0, 45, 87
2, 238080, Note_off_c, 0, 45, 0
2, 238080, Note_on_c, 0, 47, 102
2, 238320, Note_off_c, 0, 47, 0
2, 238320, Note_on_c, 0, 48, 105
2, 238560, Note_off_c, 0, 48, 0
2, 238560, Note_on_c, 0, 38, 87
2, 238800, Note_off_c, 0, 38, 0
2, 238800, Note_on_c, 0, 60, 120
2, 239040, Note_on_c, 0, 59, 101
2, 239044, Note_off_c, 0, 60, 0
2, 239280, Note_on_c, 0, 60, 104
2, 239284, Note_off_c, 0, 59, 0
2, 239505, Note_off_c, 0, 60, 0
2, 239520, Note_on_c, 0, 62, 101
2, 239760, Note_off_c, 0, 62, 0
2, 239760, Note_on_c, 0, 59, 92
2, 240000, Note_off_c, 0, 59, 0
2, 240000, Note_on_c, 0, 60, 106
2, 240240, Note_off_c, 0, 60, 0
2, 240240, Note_on_c, 0, 57, 95
2, 240480, Note_off_c, 0, 57, 0
2, 240480, Note_on_c, 0, 56, 98
2, 240593, Note_off_c, 0, 56, 0
2, 240604, Note_on_c, 0, 57, 98
2, 240701, Note_off_c, 0, 57, 0
2, 240724, Note_on_c, 0, 56, 98
2, 240818, Note_off_c, 0, 56, 0
2, 240859, Note_on_c, 0, 57, 98
2, 240878, Note_off_c, 0, 57, 0
2, 240881, Note_on_c, 0, 54, 94
2, 240960, Note_off_c, 0, 54, 0
2, 240960, Note_on_c, 0, 52, 97
2, 241414, Note_off_c, 0, 52, 0
2, 241440, Note_on_c, 0, 59, 111
2, 241680, Note_off_c, 0, 59, 0
2, 241680, Note_on_c, 0, 50, 87
2, 241920, Note_off_c, 0, 50, 0
2, 241920, Note_on_c, 0, 48, 93
2, 242160, Note_off_c, 0, 48, 0
2, 242160, Note_on_c, 0, 47, 97
2, 242400, Note_off_c, 0, 47, 0
2, 242400, Note_on_c, 0, 48, 102
2, 242640, Note_off_c, 0, 48, 0
2, 242640, Note_on_c, 0, 52, 107
2, 242880, Note_off_c, 0, 52, 0
2, 242880, Note_on_c, 0, 54, 99
2, 243120, Note_off_c, 0, 54, 0
2, 243120, Note_on_c, 0, 56, 103
2, 243360, Note_off_c, 0, 56, 0
2, 243360, Note_on_c, 0, 57, 102
2, 243600, Note_off_c, 0, 57, 0
2, 243600, Note_on_c, 0, 60, 105
2, 243840, Note_on_c, 0, 59, 98
2, 243844, Note_off_c, 0, 60, 0
2, 244080, Note_on_c, 0, 57, 97
2, 244084, Note_off_c, 0, 59, 0
2, 244305, Note_off_c, 0, 57, 0
2, 244320, Note_on_c, 0, 62, 114
2, 244800, Note_off_c, 0, 62, 0
2, 244800, Note_on_c, 0, 47, 88
2, 245040, Note_on_c, 0, 48, 99
2, 245044, Note_off_c, 0, 47, 0
2, 245265, Note_off_c, 0, 48, 0
2, 245280, Note_on_c, 0, 50, 101
2, 245520, Note_on_c, 0, 52, 98
2, 245524, Note_off_c, 0, 50, 0
2, 245760, Note_on_c, 0, 53, 100
2, 245764, Note_off_c, 0, 52, 0
2, 245985, Note_off_c, 0, 53, 0
2, 246000, Note_on_c, 0, 45, 95
2, 246240, Note_off_c, 0, 45, 0
2, 246240, Note_on_c, 0, 44, 99
2, 246353, Note_off_c, 0, 44, 0
2, 246375, Note_on_c, 0, 45, 99
2, 246480, Note_off_c, 0, 45, 0
2, 246499, Note_on_c, 0, 44, 99
2, 246596, Note_off_c, 0, 44, 0
2, 246615, Note_on_c, 0, 45, 99
2, 246705, Note_off_c, 0, 45, 0
2, 246739, Note_on_c, 0, 44, 99
2, 246836, Note_off_c, 0, 44, 0
2, 246874, Note_on_c, 0, 45, 99
2, 246956, Note_off_c, 0, 45, 0
2, 246960, Note_on_c, 0, 52, 102
2, 247200, Note_off_c, 0, 52, 0
2, 247200, Note_on_c, 0, 59, 107
2, 247440, Note_off_c, 0, 59, 0
2, 247440, Note_on_c, 0, 62, 109
2, 247680, Note_off_c, 0, 62, 0
2, 247680, Note_on_c, 0, 60, 92
2, 247920, Note_off_c, 0, 60, 0
2, 247920, Note_on_c, 0, 59, 96
2, 248160, Note_off_c, 0, 59, 0
2, 248160, Note_on_c, 0, 45, 102
2, 248160, Note_on_c, 0, 52, 102
2, 248160, Note_on_c, 0, 60, 102
2, 248880, Note_off_c, 0, 45, 0
2, 248880, Note_off_c, 0, 52, 0
2, 248880, Note_off_c, 0, 60, 0
2, 248880, Note_on_c, 0, 59, 99
2, 249120, Note_off_c, 0, 59, 0
2, 249120, Note_on_c, 0, 57, 96
2, 249360, Note_off_c, 0, 57, 0
2, 249360, Note_on_c, 0, 55, 94
2, 249600, Note_off_c, 0, 55, 0
2, 249600, Note_on_c, 0, 53, 95
2, 249840, Note_off_c, 0, 53, 0
2, 249840, Note_on_c, 0, 52, 94
2, 250080, Note_off_c, 0, 52, 0
2, 250080, Note_on_c, 0, 53, 98
2, 250320, Note_off_c, 0, 53, 0
2, 250320, Note_on_c, 0, 50, 94
2, 250560, Note_off_c, 0, 50, 0
2, 250560, Note_on_c, 0, 58, 110
2, 250800, Note_off_c, 0, 58, 0
2, 250800, Note_on_c, 0, 57, 101
2, 251040, Note_off_c, 0, 57, 0
2, 251040, Note_on_c, 0, 58, 103
2, 251280, Note_on_c, 0, 60, 106
2, 251284, Note_off_c, 0, 58, 0
2, 251520, Note_on_c, 0, 62, 107
2, 251524, Note_off_c, 0, 60, 0
2, 251745, Note_off_c, 0, 62, 0
2, 251760, Note_on_c, 0, 57, 91
2, 252000, Note_off_c, 0, 57, 0
2, 252000, Note_on_c, 0, 56, 99
2, 252240, Note_on_c, 0, 57, 103
2, 252244, Note_off_c, 0, 56, 0
2, 252480, Note_on_c, 0, 59, 103
2, 252484, Note_off_c, 0, 57, 0
2, 252705, Note_off_c, 0, 59, 0
2, 252720, Note_on_c, 0, 52, 93
2, 252960, Note_off_c, 0, 52, 0
2, 252960, Note_on_c, 0, 53, 98
2, 253200, Note_off_c, 0, 53, 0
2, 253200, Note_on_c, 0, 50, 98
2, 253440, Note_on_c, 0, 48, 92
2, 253444, Note_off_c, 0, 50, 0
2, 253680, Note_on_c, 0, 47, 98
2, 253684, Note_off_c, 0, 48, 0
2, 253905, Note_off_c, 0, 47, 0
2, 253920, Note_on_c, 0, 48, 100
2, 254160, Note_off_c, 0, 48, 0
2, 254160, Note_on_c, 0, 52, 103
2, 254400, Note_off_c, 0, 52, 0
2, 254400, Note_on_c, 0, 57, 104
2, 254640, Note_off_c, 0, 57, 0
2, 254640, Note_on_c, 0, 59, 101
2, 254880, Note_off_c, 0, 59, 0
2, 254880, Note_on_c, 0, 52, 99
2, 254880, Note_on_c, 0, 59, 99
2, 254993, Note_off_c, 0, 52, 0
2, 254993, Note_off_c, 0, 59, 0
2, 255015, Note_on_c, 0, 53, 99
2, 255015, Note_on_c, 0, 60, 99
2, 255120, Note_off_c, 0, 53, 0
2, 255120, Note_off_c, 0, 60, 0
2, 255139, Note_on_c, 0, 52, 99
2, 255139, Note_on_c, 0, 59, 99
2, 255236, Note_off_c, 0, 52, 0
2, 255236, Note_off_c, 0, 59, 0
2, 255255, Note_on_c, 0, 53, 99
2, 255255, Note_on_c, 0, 60, 99
2, 255345, Note_off_c, 0, 53, 0
2, 255345, Note_off_c, 0, 60, 0
2, 255379, Note_on_c, 0, 52, 99
2, 255379, Note_on_c, 0, 59, 99
2, 255476, Note_off_c, 0, 52, 0
2, 255476, Note_off_c, 0, 59, 0
2, 255514, Note_on_c, 0, 53, 99
2, 255514, Note_on_c, 0, 60, 99
2, 255596, Note_off_c, 0, 53, 0
2, 255596, Note_off_c, 0, 60, 0
2, 255600, Note_on_c, 0, 57, 90
2, 255840, Note_off_c, 0, 57, 0
2, 255840, Note_on_c, 0, 45, 99
2, 255840, Note_on_c, 0, 52, 99
2, 255840, Note_on_c, 0, 57, 99
2, 256560, Note_off_c, 0, 45, 0
2, 256560, Note_off_c, 0, 52, 0
2, 256560, Note_off_c, 0, 57, 0
2, 256560, Note_on_c, 0, 59, 97
2, 256800, Note_off_c, 0, 59, 0
2, 256800, Note_on_c, 0, 60, 102
2, 257040, Note_on_c, 0, 59, 98
2, 257044, Note_off_c, 0, 60, 0
2, 257280, Note_on_c, 0, 60, 103
2, 257284, Note_off_c, 0, 59, 0
2, 257505, Note_off_c, 0, 60, 0
2, 257520, Note_on_c, 0, 55, 91
2, 257760, Note_off_c, 0, 55, 0
2, 257760, Note_on_c, 0, 54, 97
2, 258000, Note_on_c, 0, 55, 100
2, 258004, Note_off_c, 0, 54, 0
2, 258240, Note_on_c, 0, 57, 100
2, 258244, Note_off_c, 0, 55, 0
2, 258465, Note_off_c, 0, 57, 0
2, 258480, Note_on_c, 0, 52, 93
2, 258720, Note_off_c, 0, 52, 0
2, 258720, Note_on_c, 0, 50, 92
2, 258960, Note_off_c, 0, 50, 0
2, 258960, Note_on_c, 0, 48, 97
2, 259200, Note_off_c, 0, 48, 0
2, 259200, Note_on_c, 0, 47, 96
2, 259440, Note_off_c, 0, 47, 0
2, 259440, Note_on_c, 0, 45, 98
2, 259680, Note_off_c, 0, 45, 0
2, 259680, Note_on_c, 0, 43, 100
2, 259920, Note_off_c, 0, 43, 0
2, 259920, Note_on_c, 0, 50, 107
2, 260160, Note_on_c, 0, 54, 102
2, 260164, Note_off_c, 0, 50, 0
2, 260400, Note_on_c, 0, 60, 111
2, 260404, Note_off_c, 0, 54, 0
2, 260625, Note_off_c, 0, 60, 0
2, 260640, Note_on_c, 0, 59, 99
2, 260880, Note_off_c, 0, 59, 0
2, 260880, Note_on_c, 0, 57, 97
2, 261120, Note_off_c, 0, 57, 0
2, 261120, Note_on_c, 0, 55, 95
2, 261360, Note_off_c, 0, 55, 0
2, 261360, Note_on_c, 0, 57, 99
2, 261600, Note_off_c, 0, 57, 0
2, 261600, Note_on_c, 0, 59, 101
2, 261840, Note_off_c, 0, 59, 0
2, 261840, Note_on_c, 0, 60, 106
2, 262080, Note_off_c, 0, 60, 0
2, 262080, Note_on_c, 0, 62, 103
2, 262320, Note_off_c, 0, 62, 0
2, 262320, Note_on_c, 0, 64, 103
2, 262560, Note_off_c, 0, 64, 0
2, 262560, Note_on_c, 0, 62, 92
2, 262800, Note_off_c, 0, 62, 0
2, 262800, Note_on_c, 0, 64, 106
2, 263040, Note_off_c, 0, 64, 0
2, 263040, Note_on_c, 0, 65, 104
2, 263280, Note_off_c, 0, 65, 0
2, 263280, Note_on_c, 0, 62, 91
2, 263520, Note_off_c, 0, 62, 0
2, 263520, Note_on_c, 0, 64, 98
2, 264000, Note_off_c, 0, 64, 0
2, 264000, Note_on_c, 0, 55, 86
2, 264480, Note_off_c, 0, 55, 0
2, 264480, Note_on_c, 0, 48, 82
2, 264720, Note_off_c, 0, 48, 0
2, 264720, Note_on_c, 0, 62, 123
2, 264960, Note_on_c, 0, 60, 102
2, 264964, Note_off_c, 0, 62, 0
2, 265200, Note_on_c, 0, 59, 97
2, 265204, Note_off_c, 0, 60, 0
2, 265425, Note_off_c, 0, 59, 0
2, 265440, Note_on_c, 0, 57, 98
2, 265680, Note_on_c, 0, 59, 100
2, 265684, Note_off_c, 0, 57, 0
2, 265920, Note_on_c, 0, 60, 104
2, 265924, Note_off_c, 0, 59, 0
2, 266145, Note_off_c, 0, 60, 0
2, 266160, Note_on_c, 0, 64, 109
2, 266400, Note_off_c, 0, 64, 0
2, 266400, Note_on_c, 0, 62, 93
2, 267120, Note_off_c, 0, 62, 0
2, 267120, Note_on_c, 0, 60, 90
2, 267360, Note_off_c, 0, 60, 0
2, 267360, Note_on_c, 0, 62, 106
2, 267840, Note_off_c, 0, 62, 0
2, 267840, Note_on_c, 0, 57, 96
2, 268320, Note_off_c, 0, 57, 0
2, 268320, Note_on_c, 0, 47, 86
2, 268560, Note_off_c, 0, 47, 0
2, 268560, Note_on_c, 0, 60, 118
2, 268800, Note_on_c, 0, 59, 96
2, 268804, Note_off_c, 0, 60, 0
2, 269040, Note_on_c, 0, 57, 96
2, 269044, Note_off_c, 0, 59, 0
2, 269265, Note_off_c, 0, 57, 0
2, 269280, Note_on_c, 0, 55, 96
2, 269520, Note_on_c, 0, 54, 95
2, 269524, Note_off_c, 0, 55, 0
2, 269760, Note_on_c, 0, 52, 96
2, 269764, Note_off_c, 0, 54, 0
2, 269985, Note_off_c, 0, 52, 0
2, 270000, Note_on_c, 0, 55, 99
2, 270240, Note_off_c, 0, 55, 0
2, 270240, Note_on_c, 0, 59, 98
2, 270480, Note_off_c, 0, 59, 0
2, 270480, Note_on_c, 0, 62, 105
2, 270720, Note_off_c, 0, 62, 0
2, 270720, Note_on_c, 0, 60, 90
2, 270960, Note_off_c, 0, 60, 0
2, 270960, Note_on_c, 0, 59, 98
2, 271200, Note_off_c, 0, 59, 0
2, 271200, Note_on_c, 0, 60, 100
2, 271680, Note_off_c, 0, 60, 0
2, 271680, Note_on_c, 0, 55, 96
2, 272160, Note_off_c, 0, 55, 0
2, 272160, Note_on_c, 0, 45, 89
2, 272400, Note_off_c, 0, 45, 0
2, 272400, Note_on_c, 0, 52, 104
2, 272640, Note_on_c, 0, 54, 103
2, 272644, Note_off_c, 0, 52, 0
2, 272880, Note_on_c, 0, 55, 103
2, 272884, Note_off_c, 0, 54, 0
2, 273105, Note_off_c, 0, 55, 0
2, 273120, Note_on_c, 0, 54, 93
2, 273360, Note_off_c, 0, 54, 0
2, 273360, Note_on_c, 0, 57, 96
2, 273600, Note_on_c, 0, 59, 97
2, 273604, Note_off_c, 0, 57, 0
2, 273840, Note_on_c, 0, 60, 100
2, 273844, Note_off_c, 0, 59, 0
2, 274065, Note_off_c, 0, 60, 0
2, 274080, Note_on_c, 0, 50, 83
2, 274320, Note_off_c, 0, 50, 0
2, 274320, Note_on_c, 0, 48, 96
2, 274560, Note_off_c, 0, 48, 0
2, 274560, Note_on_c, 0, 47, 92
2, 274800, Note_off_c, 0, 47, 0
2, 274800, Note_on_c, 0, 45, 96
2, 275040, Note_off_c, 0, 45, 0
2, 275040, Note_on_c, 0, 43, 95
2, 275280, Note_off_c, 0, 43, 0
2, 275280, Note_on_c, 0, 50, 108
2, 275520, Note_on_c, 0, 54, 103
2, 275524, Note_off_c, 0, 50, 0
2, 275760, Note_on_c, 0, 57, 103
2, 275764, Note_off_c, 0, 54, 0
2, 275985, Note_off_c, 0, 57, 0
2, 276000, Note_on_c, 0, 60, 106
2, 276240, Note_off_c, 0, 60, 0
2, 276240, Note_on_c, 0, 57, 97
2, 276480, Note_off_c, 0, 57, 0
2, 276480, Note_on_c, 0, 54, 96
2, 276720, Note_off_c, 0, 54, 0
2, 276720, Note_on_c, 0, 50, 94
2, 276960, Note_off_c, 0, 50, 0
2, 276960, Note_on_c, 0, 43, 107
2, 276960, Note_on_c, 0, 50, 107
2, 276960, Note_on_c, 0, 59, 107
2, 277680, Note_off_c, 0, 43, 0
2, 277680, Note_off_c, 0, 50, 0
2, 277680, Note_off_c, 0, 59, 0
2, 277680, Note_on_c, 0, 50, 86
2, 277920, Note_off_c, 0, 50, 0
2, 277920, Note_on_c, 0, 52, 102
2, 278160, Note_off_c, 0, 52, 0
2, 278160, Note_on_c, 0, 55, 103
2, 278400, Note_off_c, 0, 55, 0
2, 278400, Note_on_c, 0, 57, 103
2, 278640, Note_off_c, 0, 57, 0
2, 278640, Note_on_c, 0, 61, 106
2, 278880, Note_off_c, 0, 61, 0
2, 278880, Note_on_c, 0, 62, 102
2, 279120, Note_off_c, 0, 62, 0
2, 279120, Note_on_c, 0, 57, 93
2, 279360, Note_on_c, 0, 54, 95
2, 279364, Note_off_c, 0, 57, 0
2, 279600, Note_on_c, 0, 52, 96
2, 279604, Note_off_c, 0, 54, 0
2, 279825, Note_off_c, 0, 52, 0
2, 279840, Note_on_c, 0, 50, 95
2, 280080, Note_off_c, 0, 50, 0
2, 280080, Note_on_c, 0, 53, 96
2, 280320, Note_off_c, 0, 53, 0
2, 280320, Note_on_c, 0, 55, 100
2, 280560, Note_off_c, 0, 55, 0
2, 280560, Note_on_c, 0, 59, 104
2, 280800, Note_off_c, 0, 59, 0
2, 280800, Note_on_c, 0, 60, 103
2, 281040, Note_off_c, 0, 60, 0
2, 281040, Note_on_c, 0, 55, 96
2, 281280, Note_on_c, 0, 52, 92
2, 281284, Note_off_c, 0, 55, 0
2, 281520, Note_on_c, 0, 50, 98
2, 281524, Note_off_c, 0, 52, 0
2, 281745, Note_off_c, 0, 50, 0
2, 281760, Note_on_c, 0, 48, 91
2, 282000, Note_off_c, 0, 48, 0
2, 282000, Note_on_c, 0, 52, 103
2, 282240, Note_off_c, 0, 52, 0
2, 282240, Note_on_c, 0, 57, 98
2, 282480, Note_off_c, 0, 57, 0
2, 282480, Note_on_c, 0, 60, 110
2, 282720, Note_off_c, 0, 60, 0
2, 282720, Note_on_c, 0, 54, 89
2, 282960, Note_off_c, 0, 54, 0
2, 282960, Note_on_c, 0, 57, 97
2, 283200, Note_off_c, 0, 57, 0
2, 283200, Note_on_c, 0, 60, 103
2, 283440, Note_off_c, 0, 60, 0
2, 283440, Note_on_c, 0, 64, 113
2, 283680, Note_off_c, 0, 64, 0
2, 283680, Note_on_c, 0, 62, 91
2, 284400, Note_off_c, 0, 62, 0
2, 284400, Note_on_c, 0, 48, 85
2, 284640, Note_off_c, 0, 48, 0
2, 284640, Note_on_c, 0, 47, 92
2, 284880, Note_off_c, 0, 47, 0
2, 284880, Note_on_c, 0, 55, 107
2, 285120, Note_off_c, 0, 55, 0
2, 285120, Note_on_c, 0, 45, 86
2, 285360, Note_off_c, 0, 45, 0
2, 285360, Note_on_c, 0, 43, 97
2, 285600, Note_off_c, 0, 43, 0
2, 285600, Note_on_c, 0, 38, 90
2, 285840, Note_off_c, 0, 38, 0
2, 285840, Note_on_c, 0, 45, 107
2, 286080, Note_off_c, 0, 45, 0
2, 286080, Note_on_c, 0, 55, 113
2, 286320, Note_off_c, 0, 55, 0
2, 286320, Note_on_c, 0, 54, 99
2, 286560, Note_off_c, 0, 54, 0
2, 286560, Note_on_c, 0, 55, 100
2, 286800, Note_off_c, 0, 55, 0
2, 286800, Note_on_c, 0, 43, 84
2, 287040, Note_off_c, 0, 43, 0
2, 287040, Note_on_c, 0, 47, 97
2, 287280, Note_off_c, 0, 47, 0
2, 287280, Note_on_c, 0, 50, 101
2, 287520, Note_off_c, 0, 50, 0
2, 287520, Note_on_c, 0, 55, 104
2, 287760, Note_off_c, 0, 55, 0
2, 287760, Note_on_c, 0, 59, 105
2, 288000, Note_off_c, 0, 59, 0
2, 288000, Note_on_c, 0, 62, 107
2, 288240, Note_off_c, 0, 62, 0
2, 288240, Note_on_c, 0, 66, 110
2, 288480, Note_off_c, 0, 66, 0
2, 288480, Note_on_c, 0, 67, 105
2, 288720, Note_off_c, 0, 67, 0
2, 288720, Note_on_c, 0, 62, 92
2, 288960, Note_off_c, 0, 62, 0
2, 288960, Note_on_c, 0, 59, 95
2, 289200, Note_off_c, 0, 59, 0
2, 289200, Note_on_c, 0, 55, 88
2, 289440, Note_off_c, 0, 55, 0
2, 289440, Note_on_c, 0, 43, 83
2, 290160, Note_off_c, 0, 43, 0
2, 294240, Note_on_c, 0, 55, 89
2, 294720, Note_off_c, 0, 55, 0
2, 294720, Note_on_c, 0, 55, 96
2, 295200, Note_off_c, 0, 55, 0
2, 295200, Note_on_c, 0, 50, 90
2, 295680, Note_off_c, 0, 50, 0
2, 295680, Note_on_c, 0, 43, 90
2, 296160, Note_off_c, 0, 43, 0
2, 296160, Note_on_c, 0, 59, 107
2, 296400, Note_on_c, 0, 60, 111
2, 296404, Note_off_c, 0, 59, 0
2, 296640, Note_on_c, 0, 62, 104
2, 296644, Note_off_c, 0, 60, 0
2, 296880, Note_on_c, 0, 60, 91
2, 296884, Note_off_c, 0, 62, 0
2, 297120, Note_on_c, 0, 59, 96
2, 297124, Note_off_c, 0, 60, 0
2, 297360, Note_on_c, 0, 57, 98
2, 297364, Note_off_c, 0, 59, 0
2, 297585, Note_off_c, 0, 57, 0
2, 297600, Note_on_c, 0, 59, 103
2, 298080, Note_off_c, 0, 59, 0
2, 298080, Note_on_c, 0, 50, 88
2, 298560, Note_off_c, 0, 50, 0
2, 298560, Note_on_c, 0, 43, 90
2, 299040, Note_off_c, 0, 43, 0
2, 299040, Note_on_c, 0, 55, 112
2, 299280, Note_on_c, 0, 57, 102
2, 299284, Note_off_c, 0, 55, 0
2, 299505, Note_off_c, 0, 57, 0
2, 299520, Note_on_c, 0, 59, 101
2, 300000, Note_off_c, 0, 59, 0
2, 300000, Note_on_c, 0, 55, 91
2, 300480, Note_off_c, 0, 55, 0
2, 300480, Note_on_c, 0, 52, 89
2, 300960, Note_off_c, 0, 52, 0
2, 300960, Note_on_c, 0, 48, 88
2, 301440, Note_off_c, 0, 48, 0
2, 301440, Note_on_c, 0, 36, 92
2, 301920, Note_off_c, 0, 36, 0
2, 301920, Note_on_c, 0, 57, 110
2, 302160, Note_on_c, 0, 59, 100
2, 302164, Note_off_c, 0, 57, 0
2, 302400, Note_on_c, 0, 60, 105
2, 302404, Note_off_c, 0, 59, 0
2, 302640, Note_on_c, 0, 59, 93
2, 302644, Note_off_c, 0, 60, 0
2, 302880, Note_on_c, 0, 57, 94
2, 302884, Note_off_c, 0, 59, 0
2, 303120, Note_on_c, 0, 55, 97
2, 303124, Note_off_c, 0, 57, 0
2, 303345, Note_off_c, 0, 55, 0
2, 303360, Note_on_c, 0, 54, 96
2, 303840, Note_off_c, 0, 54, 0
2, 303840, Note_on_c, 0, 50, 96
2, 304320, Note_off_c, 0, 50, 0
2, 304320, Note_on_c, 0, 38, 81
2, 304800, Note_off_c, 0, 38, 0
2, 304800, Note_on_c, 0, 50, 110
2, 305040, Note_on_c, 0, 52, 107
2, 305044, Note_off_c, 0, 50, 0
2, 305280, Note_on_c, 0, 54, 101
2, 305284, Note_off_c, 0, 52, 0
2, 305520, Note_on_c, 0, 55, 98
2, 305524, Note_off_c, 0, 54, 0
2, 305760, Note_on_c, 0, 57, 101
2, 305764, Note_off_c, 0, 55, 0
2, 306000, Note_on_c, 0, 59, 101
2, 306004, Note_off_c, 0, 57, 0
2, 306225, Note_off_c, 0, 59, 0
2, 306240, Note_on_c, 0, 60, 100
2, 306480, Note_on_c, 0, 59, 92
2, 306484, Note_off_c, 0, 60, 0
2, 306720, Note_on_c, 0, 60, 103
2, 306724, Note_off_c, 0, 59, 0
2, 306945, Note_off_c, 0, 60, 0
2, 306960, Note_on_c, 0, 57, 98
2, 307200, Note_off_c, 0, 57, 0
2, 307200, Note_on_c, 0, 60, 104
2, 307440, Note_on_c, 0, 59, 94
2, 307444, Note_off_c, 0, 60, 0
2, 307680, Note_on_c, 0, 60, 102
2, 307684, Note_off_c, 0, 59, 0
2, 307905, Note_off_c, 0, 60, 0
2, 307920, Note_on_c, 0, 57, 91
2, 308160, Note_off_c, 0, 57, 0
2, 308160, Note_on_c, 0, 50, 90
2, 308400, Note_off_c, 0, 50, 0
2, 308400, Note_on_c, 0, 60, 120
2, 308640, Note_off_c, 0, 60, 0
2, 308640, Note_on_c, 0, 59, 100
2, 308880, Note_off_c, 0, 59, 0
2, 308880, Note_on_c, 0, 57, 91
2, 309120, Note_off_c, 0, 57, 0
2, 309120, Note_on_c, 0, 59, 99
2, 309360, Note_on_c, 0, 57, 93
2, 309364, Note_off_c, 0, 59, 0
2, 309600, Note_on_c, 0, 59, 104
2, 309604, Note_off_c, 0, 57, 0
2, 309825, Note_off_c, 0, 59, 0
2, 309840, Note_on_c, 0, 55, 95
2, 310080, Note_off_c, 0, 55, 0
2, 310080, Note_on_c, 0, 59, 102
2, 310320, Note_on_c, 0, 57, 96
2, 310324, Note_off_c, 0, 59, 0
2, 310560, Note_on_c, 0, 59, 102
2, 310564, Note_off_c, 0, 57, 0
2, 310785, Note_off_c, 0, 59, 0
2, 310800, Note_on_c, 0, 55, 90
2, 311040, Note_off_c, 0, 55, 0
2, 311040, Note_on_c, 0, 48, 92
2, 311280, Note_off_c, 0, 48, 0
2, 311280, Note_on_c, 0, 59, 109
2, 311520, Note_off_c, 0, 59, 0
2, 311520, Note_on_c, 0, 57, 99
2, 311760, Note_off_c, 0, 57, 0
2, 311760, Note_on_c, 0, 55, 99
2, 312000, Note_off_c, 0, 55, 0
2, 312000, Note_on_c, 0, 54, 97
2, 312240, Note_off_c, 0, 54, 0
2, 312240, Note_on_c, 0, 57, 102
2, 312480, Note_off_c, 0, 57, 0
2, 312480, Note_on_c, 0, 62, 110
2, 312720, Note_off_c, 0, 62, 0
2, 312720, Note_on_c, 0, 50, 91
2, 312960, Note_off_c, 0, 50, 0
2, 312960, Note_on_c, 0, 55, 100
2, 313440, Note_off_c, 0, 55, 0
2, 313440, Note_on_c, 0, 47, 91
2, 313920, Note_off_c, 0, 47, 0
2, 313920, Note_on_c, 0, 38, 88
2, 314400, Note_off_c, 0, 38, 0
2, 314400, Note_on_c, 0, 54, 112
2, 314880, Note_off_c, 0, 54, 0
2, 314880, Note_on_c, 0, 43, 103
2, 314880, Note_on_c, 0, 55, 103
2, 316320, Note_off_c, 0, 43, 0
2, 316320, Note_off_c, 0, 55, 0
2, 316320, Note_on_c, 0, 59, 105
2, 316560, Note_on_c, 0, 57, 93
2, 316564, Note_off_c, 0, 59, 0
2, 316800, Note_on_c, 0, 55, 95
2, 316804, Note_off_c, 0, 57, 0
2, 317040, Note_on_c, 0, 54, 92
2, 317044, Note_off_c, 0, 55, 0
2, 317280, Note_on_c, 0, 52, 97
2, 317284, Note_off_c, 0, 54, 0
2, 317520, Note_on_c, 0, 50, 96
2, 317524, Note_off_c, 0, 52, 0
2, 317745, Note_off_c, 0, 50, 0
2, 317760, Note_on_c, 0, 64, 122
2, 318240, Note_off_c, 0, 64, 0
2, 318240, Note_on_c, 0, 61, 93
2, 318720, Note_off_c, 0, 61, 0
2, 318720, Note_on_c, 0, 57, 89
2, 319200, Note_off_c, 0, 57, 0
2, 319200, Note_on_c, 0, 59, 98
2, 319440, Note_on_c, 0, 61, 106
2, 319444, Note_off_c, 0, 59, 0
2, 319665, Note_off_c, 0, 61, 0
2, 319680, Note_on_c, 0, 62, 100
2, 319920, Note_off_c, 0, 62, 0
2, 319920, Note_on_c, 0, 54, 87
2, 320160, Note_on_c, 0, 52, 91
2, 320164, Note_off_c, 0, 54, 0
2, 320400, Note_on_c, 0, 50, 90
2, 320404, Note_off_c, 0, 52, 0
2, 320625, Note_off_c, 0, 50, 0
2, 320640, Note_on_c, 0, 45, 91
2, 321120, Note_off_c, 0, 45, 0
2, 321120, Note_on_c, 0, 62, 123
2, 321600, Note_off_c, 0, 62, 0
2, 321600, Note_on_c, 0, 61, 98
2, 321690, Note_off_c, 0, 61, 0
2, 321705, Note_on_c, 0, 62, 98
2, 321788, Note_off_c, 0, 62, 0
2, 321803, Note_on_c, 0, 61, 98
2, 321878, Note_off_c, 0, 61, 0
2, 321900, Note_on_c, 0, 62, 98
2, 321975, Note_off_c, 0, 62, 0
2, 322005, Note_on_c, 0, 61, 98
2, 322076, Note_off_c, 0, 61, 0
2, 322080, Note_on_c, 0, 59, 96
2, 322320, Note_on_c, 0, 57, 95
2, 322324, Note_off_c, 0, 59, 0
2, 322545, Note_off_c, 0, 57, 0
2, 322560, Note_on_c, 0, 62, 119
2, 322800, Note_off_c, 0, 62, 0
2, 322800, Note_on_c, 0, 57, 95
2, 323040, Note_off_c, 0, 57, 0
2, 323040, Note_on_c, 0, 59, 98
2, 323280, Note_off_c, 0, 59, 0
2, 323280, Note_on_c, 0, 54, 92
2, 323520, Note_off_c, 0, 54, 0
2, 323520, Note_on_c, 0, 55, 102
2, 323760, Note_on_c, 0, 54, 93
2, 323764, Note_off_c, 0, 55, 0
2, 324000, Note_on_c, 0, 55, 101
2, 324004, Note_off_c, 0, 54, 0
2, 324225, Note_off_c, 0, 55, 0
2, 324240, Note_on_c, 0, 52, 90
2, 324480, Note_off_c, 0, 52, 0
2, 324480, Note_on_c, 0, 55, 100
2, 324720, Note_on_c, 0, 54, 97
2, 324724, Note_off_c, 0, 55, 0
2, 324960, Note_on_c, 0, 55, 99
2, 324964, Note_off_c, 0, 54, 0
2, 325185, Note_off_c, 0, 55, 0
2, 325200, Note_on_c, 0, 52, 96
2, 325440, Note_off_c, 0, 52, 0
2, 325440, Note_on_c, 0, 45, 89
2, 325680, Note_off_c, 0, 45, 0
2, 325680, Note_on_c, 0, 55, 104
2, 325920, Note_off_c, 0, 55, 0
2, 325920, Note_on_c, 0, 54, 95
2, 326160, Note_off_c, 0, 54, 0
2, 326160, Note_on_c, 0, 52, 94
2, 326400, Note_off_c, 0, 52, 0
2, 326400, Note_on_c, 0, 54, 101
2, 326640, Note_on_c, 0, 52, 95
2, 326644, Note_off_c, 0, 54, 0
2, 326880, Note_on_c, 0, 54, 103
2, 326884, Note_off_c, 0, 52, 0
2, 327105, Note_off_c, 0, 54, 0
2, 327120, Note_on_c, 0, 50, 93
2, 327360, Note_off_c, 0, 50, 0
2, 327360, Note_on_c, 0, 54, 101
2, 327600, Note_on_c, 0, 52, 101
2, 327604, Note_off_c, 0, 54, 0
2, 327840, Note_on_c, 0, 54, 99
2, 327844, Note_off_c, 0, 52, 0
2, 328065, Note_off_c, 0, 54, 0
2, 328080, Note_on_c, 0, 50, 94
2, 328320, Note_off_c, 0, 50, 0
2, 328320, Note_on_c, 0, 43, 90
2, 328560, Note_off_c, 0, 43, 0
2, 328560, Note_on_c, 0, 54, 103
2, 328800, Note_off_c, 0, 54, 0
2, 328800, Note_on_c, 0, 52, 94
2, 329040, Note_off_c, 0, 52, 0
2, 329040, Note_on_c, 0, 50, 95
2, 329280, Note_off_c, 0, 50, 0
2, 329280, Note_on_c, 0, 62, 124
2, 329520, Note_on_c, 0, 61, 101
2, 329524, Note_off_c, 0, 62, 0
2, 329760, Note_on_c, 0, 59, 98
2, 329764, Note_off_c, 0, 61, 0
2, 329985, Note_off_c, 0, 59, 0
2, 330000, Note_on_c, 0, 57, 97
2, 330240, Note_off_c, 0, 57, 0
2, 330240, Note_on_c, 0, 62, 112
2, 330720, Note_off_c, 0, 62, 0
2, 330720, Note_on_c, 0, 61, 95
2, 330960, Note_on_c, 0, 59, 93
2, 330964, Note_off_c, 0, 61, 0
2, 331200, Note_on_c, 0, 57, 98
2, 331204, Note_off_c, 0, 59, 0
2, 331440, Note_on_c, 0, 55, 92
2, 331444, Note_off_c, 0, 57, 0
2, 331680, Note_on_c, 0, 54, 94
2, 331684, Note_off_c, 0, 55, 0
2, 331920, Note_on_c, 0, 52, 94
2, 331924, Note_off_c, 0, 54, 0
2, 332145, Note_off_c, 0, 52, 0
2, 332160, Note_on_c, 0, 50, 93
2, 332400, Note_on_c, 0, 52, 103
2, 332404, Note_off_c, 0, 50, 0
2, 332640, Note_on_c, 0, 50, 95
2, 332644, Note_off_c, 0, 52, 0
2, 332865, Note_off_c, 0, 50, 0
2, 332880, Note_on_c, 0, 54, 107
2, 333120, Note_off_c, 0, 54, 0
2, 333120, Note_on_c, 0, 50, 93
2, 333360, Note_on_c, 0, 52, 97
2, 333364, Note_off_c, 0, 50, 0
2, 333600, Note_on_c, 0, 50, 100
2, 333604, Note_off_c, 0, 52, 0
2, 333825, Note_off_c, 0, 50, 0
2, 333840, Note_on_c, 0, 55, 105
2, 334080, Note_off_c, 0, 55, 0
2, 334080, Note_on_c, 0, 50, 92
2, 334320, Note_on_c, 0, 52, 101
2, 334324, Note_off_c, 0, 50, 0
2, 334560, Note_on_c, 0, 50, 96
2, 334564, Note_off_c, 0, 52, 0
2, 334785, Note_off_c, 0, 50, 0
2, 334800, Note_on_c, 0, 57, 108
2, 335040, Note_off_c, 0, 57, 0
2, 335040, Note_on_c, 0, 50, 84
2, 335280, Note_on_c, 0, 52, 97
2, 335284, Note_off_c, 0, 50, 0
2, 335520, Note_on_c, 0, 50, 96
2, 335524, Note_off_c, 0, 52, 0
2, 335745, Note_off_c, 0, 50, 0
2, 335760, Note_on_c, 0, 59, 109
2, 336000, Note_off_c, 0, 59, 0
2, 336000, Note_on_c, 0, 50, 88
2, 336240, Note_on_c, 0, 52, 96
2, 336244, Note_off_c, 0, 50, 0
2, 336480, Note_on_c, 0, 50, 99
2, 336484, Note_off_c, 0, 52, 0
2, 336705, Note_off_c, 0, 50, 0
2, 336720, Note_on_c, 0, 61, 123
2, 336960, Note_off_c, 0, 61, 0
2, 336960, Note_on_c, 0, 50, 87
2, 337200, Note_on_c, 0, 52, 104
2, 337204, Note_off_c, 0, 50, 0
2, 337440, Note_on_c, 0, 50, 91
2, 337444, Note_off_c, 0, 52, 0
2, 337665, Note_off_c, 0, 50, 0
2, 337680, Note_on_c, 0, 62, 126
2, 337920, Note_off_c, 0, 62, 0
2, 337920, Note_on_c, 0, 55, 97
2, 338160, Note_on_c, 0, 54, 98
2, 338164, Note_off_c, 0, 55, 0
2, 338400, Note_on_c, 0, 52, 101
2, 338404, Note_off_c, 0, 54, 0
2, 338625, Note_off_c, 0, 52, 0
2, 338640, Note_on_c, 0, 50, 98
2, 338880, Note_off_c, 0, 50, 0
2, 338880, Note_on_c, 0, 49, 92
2, 339120, Note_off_c, 0, 49, 0
2, 339120, Note_on_c, 0, 47, 95
2, 339360, Note_off_c, 0, 47, 0
2, 339360, Note_on_c, 0, 45, 95
2, 339600, Note_off_c, 0, 45, 0
2, 339600, Note_on_c, 0, 55, 110
2, 339840, Note_off_c, 0, 55, 0
2, 339840, Note_on_c, 0, 54, 94
2, 339930, Note_off_c, 0, 54, 0
2, 339949, Note_on_c, 0, 55, 94
2, 340035, Note_off_c, 0, 55, 0
2, 340050, Note_on_c, 0, 54, 94
2, 340129, Note_off_c, 0, 54, 0
2, 340148, Note_on_c, 0, 55, 94
2, 340223, Note_off_c, 0, 55, 0
2, 340241, Note_on_c, 0, 54, 94
2, 340316, Note_off_c, 0, 54, 0
2, 340339, Note_on_c, 0, 55, 94
2, 340414, Note_off_c, 0, 55, 0
2, 340444, Note_on_c, 0, 54, 94
2, 340526, Note_off_c, 0, 54, 0
2, 340553, Note_on_c, 0, 55, 94
2, 340556, Note_off_c, 0, 55, 0
2, 340560, Note_on_c, 0, 52, 94
2, 340800, Note_off_c, 0, 52, 0
2, 340800, Note_on_c, 0, 57, 106
2, 341040, Note_off_c, 0, 57, 0
2, 341040, Note_on_c, 0, 55, 97
2, 341280, Note_off_c, 0, 55, 0
2, 341280, Note_on_c, 0, 59, 104
2, 341520, Note_on_c, 0, 57, 96
2, 341524, Note_off_c, 0, 59, 0
2, 341760, Note_on_c, 0, 55, 95
2, 341764, Note_off_c, 0, 57, 0
2, 342000, Note_on_c, 0, 54, 96
2, 342004, Note_off_c, 0, 55, 0
2, 342240, Note_on_c, 0, 52, 94
2, 342244, Note_off_c, 0, 54, 0
2, 342480, Note_on_c, 0, 50, 94
2, 342484, Note_off_c, 0, 52, 0
2, 342705, Note_off_c, 0, 50, 0
2, 342720, Note_on_c, 0, 45, 87
2, 343151, Note_off_c, 0, 45, 0
2, 343200, Note_on_c, 0, 49, 100
2, 343631, Note_off_c, 0, 49, 0
2, 343680, Note_on_c, 0, 38, 84
2, 345600, Note_off_c, 0, 38, 0
2, 346080, Note_on_c, 0, 55, 98
2, 346560, Note_off_c, 0, 55, 0
2, 346560, Note_on_c, 0, 55, 97
2, 347040, Note_off_c, 0, 55, 0
2, 347040, Note_on_c, 0, 50, 92
2, 347520, Note_off_c, 0, 50, 0
2, 347520, Note_on_c, 0, 43, 86
2, 348000, Note_off_c, 0, 43, 0
2, 348000, Note_on_c, 0, 59, 111
2, 348240, Note_on_c, 0, 60, 109
2, 348244, Note_off_c, 0, 59, 0
2, 348480, Note_on_c, 0, 62, 106
2, 348484, Note_off_c, 0, 60, 0
2, 348720, Note_on_c, 0, 60, 90
2, 348724, Note_off_c, 0, 62, 0
2, 348960, Note_on_c, 0, 59, 94
2, 348964, Note_off_c, 0, 60, 0
2, 349200, Note_on_c, 0, 57, 92
2, 349204, Note_off_c, 0, 59, 0
2, 349425, Note_off_c, 0, 57, 0
2, 349440, Note_on_c, 0, 59, 100
2, 349920, Note_off_c, 0, 59, 0
2, 349920, Note_on_c, 0, 50, 90
2, 350400, Note_off_c, 0, 50, 0
2, 350400, Note_on_c, 0, 43, 90
2, 350880, Note_off_c, 0, 43, 0
2, 350880, Note_on_c, 0, 55, 112
2, 351120, Note_on_c, 0, 57, 104
2, 351124, Note_off_c, 0, 55, 0
2, 351345, Note_off_c, 0, 57, 0
2, 351360, Note_on_c, 0, 59, 103
2, 351840, Note_off_c, 0, 59, 0
2, 351840, Note_on_c, 0, 55, 89
2, 352320, Note_off_c, 0, 55, 0
2, 352320, Note_on_c, 0, 52, 97
2, 352800, Note_off_c, 0, 52, 0
2, 352800, Note_on_c, 0, 48, 90
2, 353280, Note_off_c, 0, 48, 0
2, 353280, Note_on_c, 0, 36, 86
2, 353760, Note_off_c, 0, 36, 0
2, 353760, Note_on_c, 0, 57, 107
2, 354000, Note_on_c, 0, 59, 104
2, 354004, Note_off_c, 0, 57, 0
2, 354240, Note_on_c, 0, 60, 103
2, 354244, Note_off_c, 0, 59, 0
2, 354480, Note_on_c, 0, 59, 102
2, 354484, Note_off_c, 0, 60, 0
2, 354720, Note_on_c, 0, 57, 99
2, 354724, Note_off_c, 0, 59, 0
2, 354960, Note_on_c, 0, 55, 94
2, 354964, Note_off_c, 0, 57, 0
2, 355185, Note_off_c, 0, 55, 0
2, 355200, Note_on_c, 0, 54, 98
2, 355680, Note_off_c, 0, 54, 0
2, 355680, Note_on_c, 0, 50, 94
2, 356160, Note_off_c, 0, 50, 0
2, 356160, Note_on_c, 0, 38, 86
2, 356640, Note_off_c, 0, 38, 0
2, 356640, Note_on_c, 0, 50, 113
2, 356880, Note_on_c, 0, 52, 101
2, 356884, Note_off_c, 0, 50, 0
2, 357120, Note_on_c, 0, 54, 98
2, 357124, Note_off_c, 0, 52, 0
2, 357360, Note_on_c, 0, 55, 99
2, 357364, Note_off_c, 0, 54, 0
2, 357600, Note_on_c, 0, 57, 96
2, 357604, Note_off_c, 0, 55, 0
2, 357840, Note_on_c, 0, 59, 97
2, 357844, Note_off_c, 0, 57, 0
2, 358065, Note_off_c, 0, 59, 0
2, 358080, Note_on_c, 0, 60, 99
2, 358320, Note_on_c, 0, 59, 97
2, 358324, Note_off_c, 0, 60, 0
2, 358560, Note_on_c, 0, 60, 104
2, 358564, Note_off_c, 0, 59, 0
2, 358785, Note_off_c, 0, 60, 0
2, 358800, Note_on_c, 0, 57, 88
2, 359040, Note_off_c, 0, 57, 0
2, 359040, Note_on_c, 0, 60, 109
2, 359280, Note_on_c, 0, 59, 99
2, 359284, Note_off_c, 0, 60, 0
2, 359520, Note_on_c, 0, 60, 106
2, 359524, Note_off_c, 0, 59, 0
2, 359745, Note_off_c, 0, 60, 0
2, 359760, Note_on_c, 0, 57, 93
2, 360000, Note_off_c, 0, 57, 0
2, 360000, Note_on_c, 0, 50, 90
2, 360240, Note_off_c, 0, 50, 0
2, 360240, Note_on_c, 0, 60, 122
2, 360480, Note_off_c, 0, 60, 0
2, 360480, Note_on_c, 0, 59, 98
2, 360720, Note_off_c, 0, 59, 0
2, 360720, Note_on_c, 0, 57, 95
2, 360960, Note_off_c, 0, 57, 0
2, 360960, Note_on_c, 0, 59, 98
2, 361200, Note_on_c, 0, 57, 95
2, 361204, Note_off_c, 0, 59, 0
2, 361440, Note_on_c, 0, 59, 102
2, 361444, Note_off_c, 0, 57, 0
2, 361665, Note_off_c, 0, 59, 0
2, 361680, Note_on_c, 0, 55, 96
2, 361920, Note_off_c, 0, 55, 0
2, 361920, Note_on_c, 0, 59, 103
2, 362160, Note_on_c, 0, 57, 98
2, 362164, Note_off_c, 0, 59, 0
2, 362400, Note_on_c, 0, 59, 103
2, 362404, Note_off_c, 0, 57, 0
2, 362625, Note_off_c, 0, 59, 0
2, 362640, Note_on_c, 0, 55, 92
2, 362880, Note_off_c, 0, 55, 0
2, 362880, Note_on_c, 0, 48, 90
2, 363120, Note_off_c, 0, 48, 0
2, 363120, Note_on_c, 0, 59, 107
2, 363360, Note_off_c, 0, 59, 0
2, 363360, Note_on_c, 0, 57, 97
2, 363600, Note_off_c, 0, 57, 0
2, 363600, Note_on_c, 0, 55, 101
2, 363840, Note_off_c, 0, 55, 0
2, 363840, Note_on_c, 0, 54, 94
2, 364080, Note_off_c, 0, 54, 0
2, 364080, Note_on_c, 0, 57, 98
2, 364320, Note_off_c, 0, 57, 0
2, 364320, Note_on_c, 0, 62, 111
2, 364560, Note_off_c, 0, 62, 0
2, 364560, Note_on_c, 0, 50, 86
2, 364800, Note_off_c, 0, 50, 0
2, 364800, Note_on_c, 0, 55, 105
2, 365280, Note_off_c, 0, 55, 0
2, 365280, Note_on_c, 0, 47, 91
2, 365760, Note_off_c, 0, 47, 0
2, 365760, Note_on_c, 0, 38, 83
2, 366240, Note_off_c, 0, 38, 0
2, 366240, Note_on_c, 0, 54, 111
2, 366720, Note_off_c, 0, 54, 0
2, 366720, Note_on_c, 0, 43, 100
2, 366720, Note_on_c, 0, 55, 100
2, 368160, Note_off_c, 0, 43, 0
2, 368160, Note_off_c, 0, 55, 0
2, 368160, Note_on_c, 0, 59, 102
2, 368400, Note_on_c, 0, 57, 94
2, 368404, Note_off_c, 0, 59, 0
2, 368640, Note_on_c, 0, 55, 96
2, 368644, Note_off_c, 0, 57, 0
2, 368880, Note_on_c, 0, 54, 95
2, 368884, Note_off_c, 0, 55, 0
2, 369120, Note_on_c, 0, 52, 95
2, 369124, Note_off_c, 0, 54, 0
2, 369360, Note_on_c, 0, 50, 93
2, 369364, Note_off_c, 0, 52, 0
2, 369585, Note_off_c, 0, 50, 0
2, 369600, Note_on_c, 0, 64, 125
2, 370080, Note_off_c, 0, 64, 0
2, 370080, Note_on_c, 0, 61, 94
2, 370560, Note_off_c, 0, 61, 0
2, 370560, Note_on_c, 0, 57, 96
2, 371040, Note_off_c, 0, 57, 0
2, 371040, Note_on_c, 0, 59, 101
2, 371280, Note_on_c, 0, 61, 101
2, 371284, Note_off_c, 0, 59, 0
2, 371505, Note_off_c, 0, 61, 0
2, 371520, Note_on_c, 0, 62, 109
2, 371760, Note_off_c, 0, 62, 0
2, 371760, Note_on_c, 0, 54, 87
2, 372000, Note_on_c, 0, 52, 96
2, 372004, Note_off_c, 0, 54, 0
2, 372240, Note_on_c, 0, 50, 94
2, 372244, Note_off_c, 0, 52, 0
2, 372465, Note_off_c, 0, 50, 0
2, 372480, Note_on_c, 0, 45, 88
2, 372960, Note_off_c, 0, 45, 0
2, 372960, Note_on_c, 0, 62, 121
2, 373440, Note_off_c, 0, 62, 0
2, 373440, Note_on_c, 0, 61, 97
2, 373530, Note_off_c, 0, 61, 0
2, 373545, Note_on_c, 0, 62, 97
2, 373628, Note_off_c, 0, 62, 0
2, 373643, Note_on_c, 0, 61, 97
2, 373718, Note_off_c, 0, 61, 0
2, 373740, Note_on_c, 0, 62, 97
2, 373815, Note_off_c, 0, 62, 0
2, 373845, Note_on_c, 0, 61, 97
2, 373916, Note_off_c, 0, 61, 0
2, 373920, Note_on_c, 0, 59, 88
2, 374160, Note_on_c, 0, 57, 93
2, 374164, Note_off_c, 0, 59, 0
2, 374385, Note_off_c, 0, 57, 0
2, 374400, Note_on_c, 0, 62, 124
2, 374640, Note_off_c, 0, 62, 0
2, 374640, Note_on_c, 0, 57, 92
2, 374880, Note_off_c, 0, 57, 0
2, 374880, Note_on_c, 0, 59, 104
2, 375120, Note_off_c, 0, 59, 0
2, 375120, Note_on_c, 0, 54, 91
2, 375360, Note_off_c, 0, 54, 0
2, 375360, Note_on_c, 0, 55, 100
2, 375600, Note_on_c, 0, 54, 98
2, 375604, Note_off_c, 0, 55, 0
2, 375840, Note_on_c, 0, 55, 97
2, 375844, Note_off_c, 0, 54, 0
2, 376065, Note_off_c, 0, 55, 0
2, 376080, Note_on_c, 0, 52, 97
2, 376320, Note_off_c, 0, 52, 0
2, 376320, Note_on_c, 0, 55, 101
2, 376560, Note_on_c, 0, 54, 97
2, 376564, Note_off_c, 0, 55, 0
2, 376800, Note_on_c, 0, 55, 106
2, 376804, Note_off_c, 0, 54, 0
2, 377025, Note_off_c, 0, 55, 0
2, 377040, Note_on_c, 0, 52, 93
2, 377280, Note_off_c, 0, 52, 0
2, 377280, Note_on_c, 0, 45, 92
2, 377520, Note_off_c, 0, 45, 0
2, 377520, Note_on_c, 0, 55, 106
2, 377760, Note_off_c, 0, 55, 0
2, 377760, Note_on_c, 0, 54, 99
2, 378000, Note_off_c, 0, 54, 0
2, 378000, Note_on_c, 0, 52, 98
2, 378240, Note_off_c, 0, 52, 0
2, 378240, Note_on_c, 0, 54, 100
2, 378480, Note_on_c, 0, 52, 93
2, 378484, Note_off_c, 0, 54, 0
2, 378720, Note_on_c, 0, 54, 100
2, 378724, Note_off_c, 0, 52, 0
2, 378945, Note_off_c, 0, 54, 0
2, 378960, Note_on_c, 0, 50, 90
2, 379200, Note_off_c, 0, 50, 0
2, 379200, Note_on_c, 0, 54, 98
2, 379440, Note_on_c, 0, 52, 97
2, 379444, Note_off_c, 0, 54, 0
2, 379680, Note_on_c, 0, 54, 102
2, 379684, Note_off_c, 0, 52, 0
2, 379905, Note_off_c, 0, 54, 0
2, 379920, Note_on_c, 0, 50, 93
2, 380160, Note_off_c, 0, 50, 0
2, 380160, Note_on_c, 0, 43, 89
2, 380400, Note_off_c, 0, 43, 0
2, 380400, Note_on_c, 0, 54, 109
2, 380640, Note_off_c, 0, 54, 0
2, 380640, Note_on_c, 0, 52, 98
2, 380880, Note_off_c, 0, 52, 0
2, 380880, Note_on_c, 0, 50, 88
2, 381120, Note_off_c, 0, 50, 0
2, 381120, Note_on_c, 0, 62, 126
2, 381360, Note_on_c, 0, 61, 95
2, 381364, Note_off_c, 0, 62, 0
2, 381600, Note_on_c, 0, 59, 93
2, 381604, Note_off_c, 0, 61, 0
2, 381825, Note_off_c, 0, 59, 0
2, 381840, Note_on_c, 0, 57, 92
2, 382080, Note_off_c, 0, 57, 0
2, 382080, Note_on_c, 0, 62, 108
2, 382560, Note_off_c, 0, 62, 0
2, 382560, Note_on_c, 0, 61, 96
2, 382800, Note_on_c, 0, 59, 98
2, 382804, Note_off_c, 0, 61, 0
2, 383040, Note_on_c, 0, 57, 94
2, 383044, Note_off_c, 0, 59, 0
2, 383280, Note_on_c, 0, 55, 93
2, 383284, Note_off_c, 0, 57, 0
2, 383520, Note_on_c, 0, 54, 96
2, 383524, Note_off_c, 0, 55, 0
2, 383760, Note_on_c, 0, 52, 93
2, 383764, Note_off_c, 0, 54, 0
2, 383985, Note_off_c, 0, 52, 0
2, 384000, Note_on_c, 0, 50, 97
2, 384240, Note_on_c, 0, 52, 94
2, 384244, Note_off_c, 0, 50, 0
2, 384480, Note_on_c, 0, 50, 92
2, 384484, Note_off_c, 0, 52, 0
2, 384705, Note_off_c, 0, 50, 0
2, 384720, Note_on_c, 0, 54, 104
2, 384960, Note_off_c, 0, 54, 0
2, 384960, Note_on_c, 0, 50, 89
2, 385200, Note_on_c, 0, 52, 99
2, 385204, Note_off_c, 0, 50, 0
2, 385440, Note_on_c, 0, 50, 94
2, 385444, Note_off_c, 0, 52, 0
2, 385665, Note_off_c, 0, 50, 0
2, 385680, Note_on_c, 0, 55, 103
2, 385920, Note_off_c, 0, 55, 0
2, 385920, Note_on_c, 0, 50, 86
2, 386160, Note_on_c, 0, 52, 99
2, 386164, Note_off_c, 0, 50, 0
2, 386400, Note_on_c, 0, 50, 97
2, 386404, Note_off_c, 0, 52, 0
2, 386625, Note_off_c, 0, 50, 0
2, 386640, Note_on_c, 0, 57, 104
2, 386880, Note_off_c, 0, 57, 0
2, 386880, Note_on_c, 0, 50, 91
2, 387120, Note_on_c, 0, 52, 100
2, 387124, Note_off_c, 0, 50, 0
2, 387360, Note_on_c, 0, 50, 96
2, 387364, Note_off_c, 0, 52, 0
2, 387585, Note_off_c, 0, 50, 0
2, 387600, Note_on_c, 0, 59, 108
2, 387840, Note_off_c, 0, 59, 0
2, 387840, Note_on_c, 0, 50, 90
2, 388080, Note_on_c, 0, 52, 103
2, 388084, Note_off_c, 0, 50, 0
2, 388320, Note_on_c, 0, 50, 97
2, 388324, Note_off_c, 0, 52, 0
2, 388545, Note_off_c, 0, 50, 0
2, 388560, Note_on_c, 0, 61, 121
2, 388800, Note_off_c, 0, 61, 0
2, 388800, Note_on_c, 0, 50, 86
2, 389040, Note_on_c, 0, 52, 101
2, 389044, Note_off_c, 0, 50, 0
2, 389280, Note_on_c, 0, 50, 94
2, 389284, Note_off_c, 0, 52, 0
2, 389505, Note_off_c, 0, 50, 0
2, 389520, Note_on_c, 0, 62, 125
2, 389760, Note_off_c, 0, 62, 0
2, 389760, Note_on_c, 0, 55, 98
2, 390000, Note_on_c, 0, 54, 91
2, 390004, Note_off_c, 0, 55, 0
2, 390240, Note_on_c, 0, 52, 97
2, 390244, Note_off_c, 0, 54, 0
2, 390465, Note_off_c, 0, 52, 0
2, 390480, Note_on_c, 0, 50, 92
2, 390720, Note_off_c, 0, 50, 0
2, 390720, Note_on_c, 0, 49, 98
2, 390960, Note_off_c, 0, 49, 0
2, 390960, Note_on_c, 0, 47, 96
2, 391200, Note_off_c, 0, 47, 0
2, 391200, Note_on_c, 0, 45, 92
2, 391440, Note_off_c, 0, 45, 0
2, 391440, Note_on_c, 0, 55, 106
2, 391680, Note_off_c, 0, 55, 0
2, 391680, Note_on_c, 0, 54, 95
2, 391770, Note_off_c, 0, 54, 0
2, 391789, Note_on_c, 0, 55, 95
2, 391875, Note_off_c, 0, 55, 0
2, 391890, Note_on_c, 0, 54, 95
2, 391969, Note_off_c, 0, 54, 0
2, 391988, Note_on_c, 0, 55, 95
2, 392063, Note_off_c, 0, 55, 0
2, 392081, Note_on_c, 0, 54, 95
2, 392156, Note_off_c, 0, 54, 0
2, 392179, Note_on_c, 0, 55, 95
2, 392254, Note_off_c, 0, 55, 0
2, 392284, Note_on_c, 0, 54, 95
2, 392366, Note_off_c, 0, 54, 0
2, 392393, Note_on_c, 0, 55, 95
2, 392396, Note_off_c, 0, 55, 0
2, 392400, Note_on_c, 0, 52, 94
2, 392640, Note_off_c, 0, 52, 0
2, 392640, Note_on_c, 0, 57, 103
2, 392880, Note_off_c, 0, 57, 0
2, 392880, Note_on_c, 0, 55, 97
2, 393120, Note_off_c, 0, 55, 0
2, 393120, Note_on_c, 0, 59, 107
2, 393360, Note_on_c, 0, 57, 95
2, 393364, Note_off_c, 0, 59, 0
2, 393600, Note_on_c, 0, 55, 97
2, 393604, Note_off_c, 0, 57, 0
2, 393840, Note_on_c, 0, 54, 96
2, 393844, Note_off_c, 0, 55, 0
2, 394080, Note_on_c, 0, 52, 98
2, 394084, Note_off_c, 0, 54, 0
2, 394320, Note_on_c, 0, 50, 92
2, 394324, Note_off_c, 0, 52, 0
2, 394545, Note_off_c, 0, 50, 0
2, 394560, Note_on_c, 0, 45, 86
2, 394991, Note_off_c, 0, 45, 0
2, 395040, Note_on_c, 0, 49, 100
2, 395471, Note_off_c, 0, 49, 0
2, 395520, Note_on_c, 0, 38, 82
2, 397440, Note_off_c, 0, 38, 0
2, 397920, Note_on_c, 0, 57, 94
2, 398400, Note_off_c, 0, 57, 0
2, 398400, Note_on_c, 0, 57, 93
2, 398880, Note_off_c, 0, 57, 0
2, 398880, Note_on_c, 0, 54, 90
2, 399360, Note_off_c, 0, 54, 0
2, 399360, Note_on_c, 0, 50, 94
2, 399840, Note_off_c, 0, 50, 0
2, 399840, Note_on_c, 0, 52, 104
2, 400080, Note_on_c, 0, 54, 98
2, 400084, Note_off_c, 0, 52, 0
2, 400320, Note_on_c, 0, 55, 99
2, 400324, Note_off_c, 0, 54, 0
2, 400560, Note_on_c, 0, 54, 98
2, 400564, Note_off_c, 0, 55, 0
2, 400800, Note_on_c, 0, 52, 94
2, 400804, Note_off_c, 0, 54, 0
2, 401040, Note_on_c, 0, 50, 96
2, 401044, Note_off_c, 0, 52, 0
2, 401265, Note_off_c, 0, 50, 0
2, 401280, Note_on_c, 0, 62, 124
2, 401760, Note_off_c, 0, 62, 0
2, 401760, Note_on_c, 0, 54, 92
2, 402240, Note_off_c, 0, 54, 0
2, 402240, Note_on_c, 0, 48, 90
2, 402720, Note_off_c, 0, 48, 0
2, 402720, Note_on_c, 0, 47, 92
2, 402960, Note_on_c, 0, 48, 102
2, 402964, Note_off_c, 0, 47, 0
2, 403200, Note_on_c, 0, 50, 101
2, 403204, Note_off_c, 0, 48, 0
2, 403440, Note_on_c, 0, 48, 96
2, 403444, Note_off_c, 0, 50, 0
2, 403680, Note_on_c, 0, 47, 99
2, 403684, Note_off_c, 0, 48, 0
2, 403920, Note_on_c, 0, 45, 96
2, 403924, Note_off_c, 0, 47, 0
2, 404145, Note_off_c, 0, 45, 0
2, 404160, Note_on_c, 0, 47, 111
2, 404400, Note_off_c, 0, 47, 0
2, 404400, Note_on_c, 0, 55, 109
2, 404640, Note_off_c, 0, 55, 0
2, 404640, Note_on_c, 0, 57, 98
2, 404880, Note_off_c, 0, 57, 0
2, 404880, Note_on_c, 0, 59, 104
2, 405120, Note_off_c, 0, 59, 0
2, 405120, Note_on_c, 0, 60, 105
2, 405360, Note_off_c, 0, 60, 0
2, 405360, Note_on_c, 0, 59, 96
2, 405600, Note_off_c, 0, 59, 0
2, 405600, Note_on_c, 0, 57, 96
2, 405840, Note_off_c, 0, 57, 0
2, 405840, Note_on_c, 0, 55, 94
2, 406080, Note_off_c, 0, 55, 0
2, 406080, Note_on_c, 0, 54, 98
2, 406560, Note_off_c, 0, 54, 0
2, 406560, Note_on_c, 0, 62, 118
2, 407040, Note_off_c, 0, 62, 0
2, 407040, Note_on_c, 0, 59, 93
2, 407520, Note_off_c, 0, 59, 0
2, 407520, Note_on_c, 0, 55, 97
2, 408000, Note_off_c, 0, 55, 0
2, 408000, Note_on_c, 0, 43, 84
2, 408480, Note_off_c, 0, 43, 0
2, 408480, Note_on_c, 0, 59, 108
2, 408720, Note_off_c, 0, 59, 0
2, 408720, Note_on_c, 0, 57, 93
2, 408960, Note_off_c, 0, 57, 0
2, 408960, Note_on_c, 0, 60, 101
2, 409178, Note_off_c, 0, 60, 0
2, 409200, Note_on_c, 0, 59, 99
2, 409440, Note_on_c, 0, 57, 99
2, 409444, Note_off_c, 0, 59, 0
2, 409680, Note_on_c, 0, 55, 92
2, 409684, Note_off_c, 0, 57, 0
2, 409905, Note_off_c, 0, 55, 0
2, 409920, Note_on_c, 0, 57, 101
2, 410400, Note_off_c, 0, 57, 0
2, 410400, Note_on_c, 0, 54, 92
2, 410880, Note_off_c, 0, 54, 0
2, 410880, Note_on_c, 0, 51, 97
2, 411120, Note_on_c, 0, 57, 107
2, 411124, Note_off_c, 0, 51, 0
2, 411360, Note_on_c, 0, 59, 101
2, 411364, Note_off_c, 0, 57, 0
2, 411600, Note_on_c, 0, 60, 103
2, 411604, Note_off_c, 0, 59, 0
2, 411825, Note_off_c, 0, 60, 0
2, 411840, Note_on_c, 0, 59, 94
2, 412080, Note_on_c, 0, 57, 90
2, 412084, Note_off_c, 0, 59, 0
2, 412320, Note_on_c, 0, 55, 96
2, 412324, Note_off_c, 0, 57, 0
2, 412560, Note_on_c, 0, 54, 96
2, 412564, Note_off_c, 0, 55, 0
2, 412785, Note_off_c, 0, 54, 0
2, 412800, Note_on_c, 0, 55, 100
2, 413280, Note_off_c, 0, 55, 0
2, 413280, Note_on_c, 0, 52, 96
2, 413760, Note_off_c, 0, 52, 0
2, 413760, Note_on_c, 0, 40, 89
2, 414240, Note_off_c, 0, 40, 0
2, 414240, Note_on_c, 0, 55, 110
2, 414480, Note_on_c, 0, 54, 96
2, 414484, Note_off_c, 0, 55, 0
2, 414720, Note_on_c, 0, 57, 100
2, 414724, Note_off_c, 0, 54, 0
2, 414960, Note_on_c, 0, 55, 101
2, 414964, Note_off_c, 0, 57, 0
2, 415200, Note_on_c, 0, 54, 90
2, 415204, Note_off_c, 0, 55, 0
2, 415440, Note_on_c, 0, 52, 93
2, 415444, Note_off_c, 0, 54, 0
2, 415665, Note_off_c, 0, 52, 0
2, 415680, Note_on_c, 0, 53, 100
2, 415920, Note_on_c, 0, 52, 99
2, 415924, Note_off_c, 0, 53, 0
2, 416160, Note_on_c, 0, 53, 103
2, 416164, Note_off_c, 0, 52, 0
2, 416385, Note_off_c, 0, 53, 0
2, 416400, Note_on_c, 0, 57, 101
2, 416640, Note_off_c, 0, 57, 0
2, 416640, Note_on_c, 0, 53, 92
2, 416880, Note_on_c, 0, 52, 100
2, 416884, Note_off_c, 0, 53, 0
2, 417120, Note_on_c, 0, 53, 100
2, 417124, Note_off_c, 0, 52, 0
2, 417345, Note_off_c, 0, 53, 0
2, 417360, Note_on_c, 0, 57, 105
2, 417600, Note_off_c, 0, 57, 0
2, 417600, Note_on_c, 0, 60, 106
2, 417840, Note_on_c, 0, 59, 95
2, 417844, Note_off_c, 0, 60, 0
2, 418080, Note_on_c, 0, 60, 103
2, 418084, Note_off_c, 0, 59, 0
2, 418305, Note_off_c, 0, 60, 0
2, 418320, Note_on_c, 0, 57, 93
2, 418560, Note_off_c, 0, 57, 0
2, 418560, Note_on_c, 0, 63, 110
2, 418650, Note_off_c, 0, 63, 0
2, 418673, Note_on_c, 0, 64, 110
2, 418763, Note_off_c, 0, 64, 0
2, 418781, Note_on_c, 0, 63, 110
2, 418868, Note_off_c, 0, 63, 0
2, 418886, Note_on_c, 0, 64, 110
2, 418969, Note_off_c, 0, 64, 0
2, 418988, Note_on_c, 0, 63, 110
2, 419066, Note_off_c, 0, 63, 0
2, 419085, Note_on_c, 0, 64, 110
2, 419160, Note_off_c, 0, 64, 0
2, 419179, Note_on_c, 0, 63, 110
2, 419254, Note_off_c, 0, 63, 0
2, 419273, Note_on_c, 0, 64, 110
2, 419348, Note_off_c, 0, 64, 0
2, 419370, Note_on_c, 0, 63, 110
2, 419445, Note_off_c, 0, 63, 0
2, 419471, Note_on_c, 0, 64, 110
2, 419550, Note_off_c, 0, 64, 0
2, 419576, Note_on_c, 0, 63, 110
2, 419659, Note_off_c, 0, 63, 0
2, 419685, Note_on_c, 0, 64, 110
2, 419756, Note_off_c, 0, 64, 0
2, 419760, Note_on_c, 0, 60, 92
2, 420000, Note_off_c, 0, 60, 0
2, 420000, Note_on_c, 0, 59, 97
2, 420240, Note_off_c, 0, 59, 0
2, 420240, Note_on_c, 0, 57, 95
2, 420480, Note_off_c, 0, 57, 0
2, 420480, Note_on_c, 0, 55, 91
2, 420720, Note_on_c, 0, 54, 94
2, 420724, Note_off_c, 0, 55, 0
2, 420945, Note_off_c, 0, 54, 0
2, 420960, Note_on_c, 0, 57, 101
2, 421200, Note_on_c, 0, 51, 90
2, 421204, Note_off_c, 0, 57, 0
2, 421425, Note_off_c, 0, 51, 0
2, 421440, Note_on_c, 0, 43, 82
2, 421920, Note_off_c, 0, 43, 0
2, 421920, Note_on_c, 0, 59, 106
2, 422400, Note_off_c, 0, 59, 0
2, 422400, Note_on_c, 0, 57, 93
2, 422640, Note_on_c, 0, 55, 97
2, 422644, Note_off_c, 0, 57, 0
2, 422865, Note_off_c, 0, 55, 0
2, 422880, Note_on_c, 0, 54, 89
2, 423120, Note_on_c, 0, 52, 93
2, 423124, Note_off_c, 0, 54, 0
2, 423345, Note_off_c, 0, 52, 0
2, 423360, Note_on_c, 0, 47, 96
2, 423840, Note_off_c, 0, 47, 0
2, 423840, Note_on_c, 0, 51, 105
2, 424320, Note_off_c, 0, 51, 0
2, 424320, Note_on_c, 0, 40, 83
2, 425760, Note_off_c, 0, 40, 0
2, 425760, Note_on_c, 0, 52, 105
2, 426000, Note_on_c, 0, 54, 105
2, 426004, Note_off_c, 0, 52, 0
2, 426240, Note_on_c, 0, 55, 104
2, 426244, Note_off_c, 0, 54, 0
2, 426480, Note_on_c, 0, 57, 102
2, 426484, Note_off_c, 0, 55, 0
2, 426720, Note_on_c, 0, 59, 102
2, 426724, Note_off_c, 0, 57, 0
2, 426960, Note_on_c, 0, 60, 104
2, 426964, Note_off_c, 0, 59, 0
2, 427185, Note_off_c, 0, 60, 0
2, 427200, Note_on_c, 0, 62, 100
2, 427680, Note_off_c, 0, 62, 0
2, 427680, Note_on_c, 0, 53, 87
2, 428160, Note_off_c, 0, 53, 0
2, 428160, Note_on_c, 0, 47, 90
2, 428640, Note_off_c, 0, 47, 0
2, 428640, Note_on_c, 0, 52, 107
2, 428880, Note_on_c, 0, 53, 101
2, 428884, Note_off_c, 0, 52, 0
2, 429120, Note_on_c, 0, 55, 102
2, 429124, Note_off_c, 0, 53, 0
2, 429360, Note_on_c, 0, 53, 91
2, 429364, Note_off_c, 0, 55, 0
2, 429600, Note_on_c, 0, 52, 94
2, 429604, Note_off_c, 0, 53, 0
2, 429840, Note_on_c, 0, 50, 98
2, 429844, Note_off_c, 0, 52, 0
2, 430065, Note_off_c, 0, 50, 0
2, 430080, Note_on_c, 0, 52, 103
2, 430560, Note_off_c, 0, 52, 0
2, 430560, Note_on_c, 0, 48, 97
2, 431040, Note_off_c, 0, 48, 0
2, 431040, Note_on_c, 0, 36, 80
2, 431520, Note_off_c, 0, 36, 0
2, 431520, Note_on_c, 0, 48, 108
2, 431760, Note_on_c, 0, 50, 102
2, 431764, Note_off_c, 0, 48, 0
2, 432000, Note_on_c, 0, 52, 103
2, 432004, Note_off_c, 0, 50, 0
2, 432240, Note_on_c, 0, 54, 102
2, 432244, Note_off_c, 0, 52, 0
2, 432480, Note_on_c, 0, 55, 99
2, 432484, Note_off_c, 0, 54, 0
2, 432720, Note_on_c, 0, 52, 92
2, 432724, Note_off_c, 0, 55, 0
2, 432945, Note_off_c, 0, 52, 0
2, 432960, Note_on_c, 0, 49, 98
2, 433200, Note_on_c, 0, 55, 98
2, 433204, Note_off_c, 0, 49, 0
2, 433440, Note_on_c, 0, 57, 97
2, 433444, Note_off_c, 0, 55, 0
2, 433665, Note_off_c, 0, 57, 0
2, 433680, Note_on_c, 0, 55, 93
2, 433920, Note_off_c, 0, 55, 0
2, 433920, Note_on_c, 0, 57, 101
2, 434160, Note_off_c, 0, 57, 0
2, 434160, Note_on_c, 0, 55, 96
2, 434400, Note_off_c, 0, 55, 0
2, 434400, Note_on_c, 0, 49, 89
2, 434640, Note_off_c, 0, 49, 0
2, 434640, Note_on_c, 0, 55, 104
2, 434880, Note_off_c, 0, 55, 0
2, 434880, Note_on_c, 0, 49, 92
2, 435120, Note_on_c, 0, 55, 108
2, 435124, Note_off_c, 0, 49, 0
2, 435360, Note_on_c, 0, 57, 101
2, 435364, Note_off_c, 0, 55, 0
2, 435585, Note_off_c, 0, 57, 0
2, 435600, Note_on_c, 0, 55, 93
2, 435840, Note_off_c, 0, 55, 0
2, 435840, Note_on_c, 0, 48, 94
2, 436080, Note_on_c, 0, 54, 106
2, 436084, Note_off_c, 0, 48, 0
2, 436320, Note_on_c, 0, 57, 107
2, 436324, Note_off_c, 0, 54, 0
2, 436545, Note_off_c, 0, 57, 0
2, 436560, Note_on_c, 0, 54, 95
2, 436800, Note_off_c, 0, 54, 0
2, 436800, Note_on_c, 0, 57, 105
2, 437040, Note_off_c, 0, 57, 0
2, 437040, Note_on_c, 0, 54, 97
2, 437280, Note_off_c, 0, 54, 0
2, 437280, Note_on_c, 0, 48, 89
2, 437520, Note_off_c, 0, 48, 0
2, 437520, Note_on_c, 0, 54, 102
2, 437760, Note_off_c, 0, 54, 0
2, 437760, Note_on_c, 0, 48, 91
2, 438000, Note_on_c, 0, 54, 106
2, 438004, Note_off_c, 0, 48, 0
2, 438240, Note_on_c, 0, 57, 99
2, 438244, Note_off_c, 0, 54, 0
2, 438465, Note_off_c, 0, 57, 0
2, 438480, Note_on_c, 0, 54, 90
2, 438720, Note_off_c, 0, 54, 0
2, 438720, Note_on_c, 0, 47, 96
2, 438960, Note_off_c, 0, 47, 0
2, 438960, Note_on_c, 0, 50, 95
2, 439178, Note_off_c, 0, 50, 0
2, 439200, Note_on_c, 0, 52, 105
2, 439440, Note_on_c, 0, 53, 103
2, 439444, Note_off_c, 0, 52, 0
2, 439665, Note_off_c, 0, 53, 0
2, 439680, Note_on_c, 0, 43, 85
2, 439920, Note_off_c, 0, 43, 0
2, 439920, Note_on_c, 0, 53, 107
2, 440160, Note_on_c, 0, 52, 95
2, 440164, Note_off_c, 0, 53, 0
2, 440400, Note_on_c, 0, 50, 91
2, 440404, Note_off_c, 0, 52, 0
2, 440625, Note_off_c, 0, 50, 0
2, 440640, Note_on_c, 0, 52, 94
2, 440880, Note_off_c, 0, 52, 0
2, 440880, Note_on_c, 0, 62, 118
2, 441120, Note_on_c, 0, 60, 97
2, 441124, Note_off_c, 0, 62, 0
2, 441360, Note_on_c, 0, 59, 94
2, 441364, Note_off_c, 0, 60, 0
2, 441585, Note_off_c, 0, 59, 0
2, 441600, Note_on_c, 0, 54, 90
2, 441840, Note_off_c, 0, 54, 0
2, 441840, Note_on_c, 0, 57, 95
2, 442080, Note_on_c, 0, 59, 106
2, 442084, Note_off_c, 0, 57, 0
2, 442320, Note_on_c, 0, 60, 101
2, 442324, Note_off_c, 0, 59, 0
2, 442545, Note_off_c, 0, 60, 0
2, 442560, Note_on_c, 0, 50, 87
2, 442800, Note_off_c, 0, 50, 0
2, 442800, Note_on_c, 0, 60, 121
2, 443040, Note_on_c, 0, 59, 96
2, 443044, Note_off_c, 0, 60, 0
2, 443280, Note_on_c, 0, 57, 94
2, 443284, Note_off_c, 0, 59, 0
2, 443505, Note_off_c, 0, 57, 0
2, 443520, Note_on_c, 0, 59, 103
2, 444000, Note_off_c, 0, 59, 0
2, 444000, Note_on_c, 0, 43, 84
2, 444480, Note_off_c, 0, 43, 0
2, 444480, Note_on_c, 0, 36, 88
2, 444960, Note_off_c, 0, 36, 0
2, 444960, Note_on_c, 0, 59, 108
2, 445200, Note_off_c, 0, 59, 0
2, 445200, Note_on_c, 0, 57, 93
2, 445440, Note_off_c, 0, 57, 0
2, 445440, Note_on_c, 0, 60, 104
2, 445680, Note_on_c, 0, 59, 99
2, 445684, Note_off_c, 0, 60, 0
2, 445920, Note_on_c, 0, 57, 95
2, 445924, Note_off_c, 0, 59, 0
2, 446160, Note_on_c, 0, 55, 100
2, 446164, Note_off_c, 0, 57, 0
2, 446385, Note_off_c, 0, 55, 0
2, 446400, Note_on_c, 0, 50, 93
2, 446880, Note_off_c, 0, 50, 0
2, 446880, Note_on_c, 0, 54, 102
2, 447360, Note_off_c, 0, 54, 0
2, 447360, Note_on_c, 0, 43, 85
2, 447600, Note_on_c, 0, 45, 98
2, 447604, Note_off_c, 0, 43, 0
2, 447840, Note_on_c, 0, 43, 97
2, 447844, Note_off_c, 0, 45, 0
2, 448065, Note_off_c, 0, 43, 0
2, 448080, Note_on_c, 0, 47, 105
2, 448320, Note_off_c, 0, 47, 0
2, 448320, Note_on_c, 0, 43, 95
2, 448560, Note_on_c, 0, 45, 104
2, 448564, Note_off_c, 0, 43, 0
2, 448800, Note_on_c, 0, 43, 94
2, 448804, Note_off_c, 0, 45, 0
2, 449025, Note_off_c, 0, 43, 0
2, 449040, Note_on_c, 0, 48, 105
2, 449280, Note_off_c, 0, 48, 0
2, 449280, Note_on_c, 0, 43, 95
2, 449520, Note_on_c, 0, 45, 100
2, 449524, Note_off_c, 0, 43, 0
2, 449760, Note_on_c, 0, 43, 93
2, 449764, Note_off_c, 0, 45, 0
2, 449985, Note_off_c, 0, 43, 0
2, 450000, Note_on_c, 0, 50, 106
2, 450240, Note_off_c, 0, 50, 0
2, 450240, Note_on_c, 0, 43, 89
2, 450480, Note_on_c, 0, 45, 98
2, 450484, Note_off_c, 0, 43, 0
2, 450720, Note_on_c, 0, 43, 94
2, 450724, Note_off_c, 0, 45, 0
2, 450945, Note_off_c, 0, 43, 0
2, 450960, Note_on_c, 0, 52, 107
2, 451200, Note_off_c, 0, 52, 0
2, 451200, Note_on_c, 0, 43, 93
2, 451440, Note_on_c, 0, 45, 101
2, 451444, Note_off_c, 0, 43, 0
2, 451680, Note_on_c, 0, 43, 95
2, 451684, Note_off_c, 0, 45, 0
2, 451905, Note_off_c, 0, 43, 0
2, 451920, Note_on_c, 0, 54, 108
2, 452160, Note_off_c, 0, 54, 0
2, 452160, Note_on_c, 0, 43, 84
2, 452400, Note_on_c, 0, 45, 101
2, 452404, Note_off_c, 0, 43, 0
2, 452640, Note_on_c, 0, 43, 94
2, 452644, Note_off_c, 0, 45, 0
2, 452865, Note_off_c, 0, 43, 0
2, 452880, Note_on_c, 0, 55, 113
2, 453120, Note_off_c, 0, 55, 0
2, 453120, Note_on_c, 0, 60, 113
2, 453360, Note_on_c, 0, 59, 97
2, 453364, Note_off_c, 0, 60, 0
2, 453600, Note_on_c, 0, 57, 91
2, 453604, Note_off_c, 0, 59, 0
2, 453840, Note_on_c, 0, 55, 95
2, 453844, Note_off_c, 0, 57, 0
2, 454080, Note_on_c, 0, 54, 94
2, 454084, Note_off_c, 0, 55, 0
2, 454320, Note_on_c, 0, 52, 93
2, 454324, Note_off_c, 0, 54, 0
2, 454560, Note_on_c, 0, 50, 94
2, 454564, Note_off_c, 0, 52, 0
2, 454785, Note_off_c, 0, 50, 0
2, 454800, Note_on_c, 0, 60, 120
2, 455040, Note_on_c, 0, 59, 101
2, 455044, Note_off_c, 0, 60, 0
2, 455130, Note_off_c, 0, 59, 0
2, 455149, Note_on_c, 0, 60, 101
2, 455235, Note_off_c, 0, 60, 0
2, 455254, Note_on_c, 0, 59, 101
2, 455336, Note_off_c, 0, 59, 0
2, 455351, Note_on_c, 0, 60, 101
2, 455426, Note_off_c, 0, 60, 0
2, 455445, Note_on_c, 0, 59, 101
2, 455520, Note_off_c, 0, 59, 0
2, 455543, Note_on_c, 0, 60, 101
2, 455618, Note_off_c, 0, 60, 0
2, 455648, Note_on_c, 0, 59, 101
2, 455730, Note_off_c, 0, 59, 0
2, 455756, Note_on_c, 0, 60, 101
2, 455760, Note_on_c, 0, 57, 96
2, 455768, Note_off_c, 0, 60, 0
2, 455985, Note_off_c, 0, 57, 0
2, 456000, Note_on_c, 0, 62, 111
2, 456240, Note_on_c, 0, 60, 97
2, 456244, Note_off_c, 0, 62, 0
2, 456480, Note_on_c, 0, 62, 105
2, 456484, Note_off_c, 0, 60, 0
2, 456705, Note_off_c, 0, 62, 0
2, 456720, Note_on_c, 0, 59, 98
2, 456960, Note_off_c, 0, 59, 0
2, 456960, Note_on_c, 0, 62, 103
2, 457200, Note_on_c, 0, 60, 94
2, 457204, Note_off_c, 0, 62, 0
2, 457440, Note_on_c, 0, 62, 103
2, 457444, Note_off_c, 0, 60, 0
2, 457665, Note_off_c, 0, 62, 0
2, 457680, Note_on_c, 0, 59, 93
2, 457920, Note_off_c, 0, 59, 0
2, 457920, Note_on_c, 0, 52, 89
2, 458160, Note_off_c, 0, 52, 0
2, 458160, Note_on_c, 0, 62, 116
2, 458400, Note_off_c, 0, 62, 0
2, 458400, Note_on_c, 0, 60, 93
2, 458640, Note_off_c, 0, 60, 0
2, 458640, Note_on_c, 0, 59, 95
2, 458880, Note_off_c, 0, 59, 0
2, 458880, Note_on_c, 0, 60, 102
2, 459120, Note_on_c, 0, 59, 94
2, 459124, Note_off_c, 0, 60, 0
2, 459360, Note_on_c, 0, 60, 100
2, 459364, Note_off_c, 0, 59, 0
2, 459585, Note_off_c, 0, 60, 0
2, 459600, Note_on_c, 0, 57, 94
2, 459840, Note_off_c, 0, 57, 0
2, 459840, Note_on_c, 0, 60, 111
2, 460080, Note_on_c, 0, 59, 96
2, 460084, Note_off_c, 0, 60, 0
2, 460320, Note_on_c, 0, 60, 99
2, 460324, Note_off_c, 0, 59, 0
2, 460545, Note_off_c, 0, 60, 0
2, 460560, Note_on_c, 0, 57, 95
2, 460800, Note_off_c, 0, 57, 0
2, 460800, Note_on_c, 0, 50, 90
2, 461040, Note_off_c, 0, 50, 0
2, 461040, Note_on_c, 0, 60, 121
2, 461280, Note_off_c, 0, 60, 0
2, 461280, Note_on_c, 0, 59, 99
2, 461520, Note_off_c, 0, 59, 0
2, 461520, Note_on_c, 0, 57, 97
2, 461760, Note_off_c, 0, 57, 0
2, 461760, Note_on_c, 0, 59, 105
2, 462000, Note_on_c, 0, 57, 95
2, 462004, Note_off_c, 0, 59, 0
2, 462240, Note_on_c, 0, 59, 98
2, 462244, Note_off_c, 0, 57, 0
2, 462465, Note_off_c, 0, 59, 0
2, 462480, Note_on_c, 0, 55, 90
2, 462720, Note_off_c, 0, 55, 0
2, 462720, Note_on_c, 0, 48, 90
2, 462960, Note_off_c, 0, 48, 0
2, 462960, Note_on_c, 0, 59, 109
2, 463200, Note_off_c, 0, 59, 0
2, 463200, Note_on_c, 0, 57, 95
2, 463440, Note_off_c, 0, 57, 0
2, 463440, Note_on_c, 0, 55, 95
2, 463680, Note_off_c, 0, 55, 0
2, 463680, Note_on_c, 0, 50, 89
2, 464160, Note_off_c, 0, 50, 0
2, 464160, Note_on_c, 0, 54, 105
2, 464640, Note_off_c, 0, 54, 0
2, 464640, Note_on_c, 0, 43, 98
2, 464640, Note_on_c, 0, 55, 98
2, 466560, Note_off_c, 0, 43, 0
2, 466560, Note_off_c, 0, 55, 0
2, 470880, Note_on_c, 0, 43, 96
2, 470880, Note_on_c, 0, 50, 96
2, 470880, Note_on_c, 0, 59, 96
2, 471840, Note_off_c, 0, 43, 0
2, 471840, Note_off_c, 0, 50, 0
2, 471840, Note_off_c, 0, 59, 0
2, 471840, Note_on_c, 0, 60, 112
2, 471840, Note_on_c, 0, 43, 74
2, 471840, Note_on_c, 0, 52, 74
2, 472800, Note_off_c, 0, 43, 0
2, 472800, Note_off_c, 0, 52, 0
2, 473280, Note_off_c, 0, 60, 0
2, 473280, Note_on_c, 0, 59, 94
2, 473760, Note_off_c, 0, 59, 0
2, 473760, Note_on_c, 0, 54, 94
2, 474000, Note_off_c, 0, 54, 0
2, 474000, Note_on_c, 0, 57, 100
2, 474240, Note_on_c, 0, 59, 102
2, 474244, Note_off_c, 0, 57, 0
2, 474480, Note_on_c, 0, 60, 106
2, 474484, Note_off_c, 0, 59, 0
2, 474705, Note_off_c, 0, 60, 0
2, 474720, Note_on_c, 0, 43, 93
2, 474720, Note_on_c, 0, 50, 93
2, 474720, Note_on_c, 0, 59, 93
2, 474773, Note_off_c, 0, 43, 0
2, 474773, Note_off_c, 0, 50, 0
2, 474773, Note_off_c, 0, 59, 0
2, 474788, Note_on_c, 0, 45, 93
2, 474788, Note_on_c, 0, 52, 93
2, 474788, Note_on_c, 0, 60, 93
2, 474840, Note_off_c, 0, 45, 0
2, 474840, Note_off_c, 0, 52, 0
2, 474840, Note_off_c, 0, 60, 0
2, 474855, Note_on_c, 0, 43, 93
2, 474855, Note_on_c, 0, 50, 93
2, 474855, Note_on_c, 0, 59, 93
2, 474908, Note_off_c, 0, 43, 0
2, 474908, Note_off_c, 0, 50, 0
2, 474908, Note_off_c, 0, 59, 0
2, 474919, Note_on_c, 0, 45, 93
2, 474919, Note_on_c, 0, 52, 93
2, 474919, Note_on_c, 0, 60, 93
2, 474968, Note_off_c, 0, 45, 0
2, 474968, Note_off_c, 0, 52, 0
2, 474968, Note_off_c, 0, 60, 0
2, 474983, Note_on_c, 0, 43, 93
2, 474983, Note_on_c, 0, 50, 93
2, 474983, Note_on_c, 0, 59, 93
2, 475031, Note_off_c, 0, 43, 0
2, 475031, Note_off_c, 0, 50, 0
2, 475031, Note_off_c, 0, 59, 0
2, 475043, Note_on_c, 0, 45, 93
2, 475043, Note_on_c, 0, 52, 93
2, 475043, Note_on_c, 0, 60, 93
2, 475088, Note_off_c, 0, 45, 0
2, 475088, Note_off_c, 0, 52, 0
2, 475088, Note_off_c, 0, 60, 0
2, 475103, Note_on_c, 0, 43, 93
2, 475103, Note_on_c, 0, 50, 93
2, 475103, Note_on_c, 0, 59, 93
2, 475148, Note_off_c, 0, 43, 0
2, 475148, Note_off_c, 0, 50, 0
2, 475148, Note_off_c, 0, 59, 0
2, 475163, Note_on_c, 0, 45, 93
2, 475163, Note_on_c, 0, 52, 93
2, 475163, Note_on_c, 0, 60, 93
2, 475208, Note_off_c, 0, 45, 0
2, 475208, Note_off_c, 0, 52, 0
2, 475208, Note_off_c, 0, 60, 0
2, 475219, Note_on_c, 0, 43, 93
2, 475219, Note_on_c, 0, 50, 93
2, 475219, Note_on_c, 0, 59, 93
2, 475264, Note_off_c, 0, 43, 0
2, 475264, Note_off_c, 0, 50, 0
2, 475264, Note_off_c, 0, 59, 0
2, 475275, Note_on_c, 0, 45, 93
2, 475275, Note_on_c, 0, 52, 93
2, 475275, Note_on_c, 0, 60, 93
2, 475320, Note_off_c, 0, 45, 0
2, 475320, Note_off_c, 0, 52, 0
2, 475320, Note_off_c, 0, 60, 0
2, 475331, Note_on_c, 0, 43, 93
2, 475331, Note_on_c, 0, 50, 93
2, 475331, Note_on_c, 0, 59, 93
2, 475376, Note_off_c, 0, 43, 0
2, 475376, Note_off_c, 0, 50, 0
2, 475376, Note_off_c, 0, 59, 0
2, 475391, Note_on_c, 0, 45, 93
2, 475391, Note_on_c, 0, 52, 93
2, 475391, Note_on_c, 0, 60, 93
2, 475436, Note_off_c, 0, 45, 0
2, 475436, Note_off_c, 0, 52, 0
2, 475436, Note_off_c, 0, 60, 0
2, 475451, Note_on_c, 0, 43, 93
2, 475451, Note_on_c, 0, 50, 93
2, 475451, Note_on_c, 0, 59, 93
2, 475496, Note_off_c, 0, 43, 0
2, 475496, Note_off_c, 0, 50, 0
2, 475496, Note_off_c, 0, 59, 0
2, 475511, Note_on_c, 0, 45, 93
2, 475511, Note_on_c, 0, 52, 93
2, 475511, Note_on_c, 0, 60, 93
2, 475556, Note_off_c, 0, 45, 0
2, 475556, Note_off_c, 0, 52, 0
2, 475556, Note_off_c, 0, 60, 0
2, 475575, Note_on_c, 0, 43, 93
2, 475575, Note_on_c, 0, 50, 93
2, 475575, Note_on_c, 0, 59, 93
2, 475624, Note_off_c, 0, 43, 0
2, 475624, Note_off_c, 0, 50, 0
2, 475624, Note_off_c, 0, 59, 0
2, 475639, Note_on_c, 0, 45, 93
2, 475639, Note_on_c, 0, 52, 93
2, 475639, Note_on_c, 0, 60, 93
2, 475676, Note_off_c, 0, 45, 0
2, 475676, Note_off_c, 0, 52, 0
2, 475676, Note_off_c, 0, 60, 0
2, 475680, Note_on_c, 0, 57, 93
2, 476160, Note_on_c, 0, 55, 91
2, 476168, Note_off_c, 0, 57, 0
2, 476614, Note_off_c, 0, 55, 0
2, 476640, Note_on_c, 0, 62, 115
2, 477120, Note_off_c, 0, 62, 0
2, 477120, Note_on_c, 0, 53, 91
2, 477600, Note_off_c, 0, 53, 0
2, 477600, Note_on_c, 0, 52, 90
2, 477653, Note_off_c, 0, 52, 0
2, 477668, Note_on_c, 0, 53, 90
2, 477720, Note_off_c, 0, 53, 0
2, 477731, Note_on_c, 0, 52, 90
2, 477780, Note_off_c, 0, 52, 0
2, 477795, Note_on_c, 0, 53, 90
2, 477844, Note_off_c, 0, 53, 0
2, 477855, Note_on_c, 0, 52, 90
2, 477900, Note_off_c, 0, 52, 0
2, 477915, Note_on_c, 0, 53, 90
2, 477960, Note_off_c, 0, 53, 0
2, 477971, Note_on_c, 0, 52, 90
2, 478016, Note_off_c, 0, 52, 0
2, 478028, Note_on_c, 0, 53, 90
2, 478073, Note_off_c, 0, 53, 0
2, 478084, Note_on_c, 0, 52, 90
2, 478129, Note_off_c, 0, 52, 0
2, 478144, Note_on_c, 0, 53, 90
2, 478189, Note_off_c, 0, 53, 0
2, 478204, Note_on_c, 0, 52, 90
2, 478249, Note_off_c, 0, 52, 0
2, 478268, Note_on_c, 0, 53, 90
2, 478316, Note_off_c, 0, 53, 0
2, 478320, Note_on_c, 0, 50, 98
2, 478399, Note_off_c, 0, 50, 0
2, 478399, Note_on_c, 0, 48, 100
2, 478478, Note_off_c, 0, 48, 0
2, 478478, Note_on_c, 0, 47, 98
2, 478560, Note_off_c, 0, 47, 0
2, 478560, Note_on_c, 0, 48, 103
2, 479014, Note_off_c, 0, 48, 0
2, 479040, Note_on_c, 0, 52, 106
2, 479520, Note_off_c, 0, 52, 0
2, 479520, Note_on_c, 0, 54, 100
2, 479760, Note_off_c, 0, 54, 0
2, 479760, Note_on_c, 0, 60, 108
2, 480000, Note_on_c, 0, 59, 93
2, 480004, Note_off_c, 0, 60, 0
2, 480240, Note_on_c, 0, 55, 93
2, 480244, Note_off_c, 0, 59, 0
2, 480465, Note_off_c, 0, 55, 0
2, 480480, Note_on_c, 0, 38, 98
2, 480480, Note_on_c, 0, 45, 98
2, 480480, Note_on_c, 0, 54, 98
2, 480533, Note_off_c, 0, 38, 0
2, 480533, Note_off_c, 0, 45, 0
2, 480533, Note_off_c, 0, 54, 0
2, 480548, Note_on_c, 0, 40, 98
2, 480548, Note_on_c, 0, 47, 98
2, 480548, Note_on_c, 0, 55, 98
2, 480600, Note_off_c, 0, 40, 0
2, 480600, Note_off_c, 0, 47, 0
2, 480600, Note_off_c, 0, 55, 0
2, 480615, Note_on_c, 0, 38, 98
2, 480615, Note_on_c, 0, 45, 98
2, 480615, Note_on_c, 0, 54, 98
2, 480668, Note_off_c, 0, 38, 0
2, 480668, Note_off_c, 0, 45, 0
2, 480668, Note_off_c, 0, 54, 0
2, 480679, Note_on_c, 0, 40, 98
2, 480679, Note_on_c, 0, 47, 98
2, 480679, Note_on_c, 0, 55, 98
2, 480728, Note_off_c, 0, 40, 0
2, 480728, Note_off_c, 0, 47, 0
2, 480728, Note_off_c, 0, 55, 0
2, 480743, Note_on_c, 0, 38, 98
2, 480743, Note_on_c, 0, 45, 98
2, 480743, Note_on_c, 0, 54, 98
2, 480791, Note_off_c, 0, 38, 0
2, 480791, Note_off_c, 0, 45, 0
2, 480791, Note_off_c, 0, 54, 0
2, 480803, Note_on_c, 0, 40, 98
2, 480803, Note_on_c, 0, 47, 98
2, 480803, Note_on_c, 0, 55, 98
2, 480848, Note_off_c, 0, 40, 0
2, 480848, Note_off_c, 0, 47, 0
2, 480848, Note_off_c, 0, 55, 0
2, 480863, Note_on_c, 0, 38, 98
2, 480863, Note_on_c, 0, 45, 98
2, 480863, Note_on_c, 0, 54, 98
2, 480908, Note_off_c, 0, 38, 0
2, 480908, Note_off_c, 0, 45, 0
2, 480908, Note_off_c, 0, 54, 0
2, 480923, Note_on_c, 0, 40, 98
2, 480923, Note_on_c, 0, 47, 98
2, 480923, Note_on_c, 0, 55, 98
2, 480968, Note_off_c, 0, 40, 0
2, 480968, Note_off_c, 0, 47, 0
2, 480968, Note_off_c, 0, 55, 0
2, 480979, Note_on_c, 0, 38, 98
2, 480979, Note_on_c, 0, 45, 98
2, 480979, Note_on_c, 0, 54, 98
2, 481024, Note_off_c, 0, 38, 0
2, 481024, Note_off_c, 0, 45, 0
2, 481024, Note_off_c, 0, 54, 0
2, 481035, Note_on_c, 0, 40, 98
2, 481035, Note_on_c, 0, 47, 98
2, 481035, Note_on_c, 0, 55, 98
2, 481080, Note_off_c, 0, 40, 0
2, 481080, Note_off_c, 0, 47, 0
2, 481080, Note_off_c, 0, 55, 0
2, 481091, Note_on_c, 0, 38, 98
2, 481091, Note_on_c, 0, 45, 98
2, 481091, Note_on_c, 0, 54, 98
2, 481136, Note_off_c, 0, 38, 0
2, 481136, Note_off_c, 0, 45, 0
2, 481136, Note_off_c, 0, 54, 0
2, 481151, Note_on_c, 0, 40, 98
2, 481151, Note_on_c, 0, 47, 98
2, 481151, Note_on_c, 0, 55, 98
2, 481196, Note_off_c, 0, 40, 0
2, 481196, Note_off_c, 0, 47, 0
2, 481196, Note_off_c, 0, 55, 0
2, 481211, Note_on_c, 0, 38, 98
2, 481211, Note_on_c, 0, 45, 98
2, 481211, Note_on_c, 0, 54, 98
2, 481256, Note_off_c, 0, 38, 0
2, 481256, Note_off_c, 0, 45, 0
2, 481256, Note_off_c, 0, 54, 0
2, 481271, Note_on_c, 0, 40, 98
2, 481271, Note_on_c, 0, 47, 98
2, 481271, Note_on_c, 0, 55, 98
2, 481316, Note_off_c, 0, 40, 0
2, 481316, Note_off_c, 0, 47, 0
2, 481316, Note_off_c, 0, 55, 0
2, 481335, Note_on_c, 0, 38, 98
2, 481335, Note_on_c, 0, 45, 98
2, 481335, Note_on_c, 0, 54, 98
2, 481384, Note_off_c, 0, 38, 0
2, 481384, Note_off_c, 0, 45, 0
2, 481384, Note_off_c, 0, 54, 0
2, 481399, Note_on_c, 0, 40, 98
2, 481399, Note_on_c, 0, 47, 98
2, 481399, Note_on_c, 0, 55, 98
2, 481436, Note_off_c, 0, 40, 0
2, 481436, Note_off_c, 0, 47, 0
2, 481436, Note_off_c, 0, 55, 0
2, 481440, Note_on_c, 0, 52, 92
2, 481920, Note_on_c, 0, 50, 94
2, 481928, Note_off_c, 0, 52, 0
2, 482374, Note_off_c, 0, 50, 0
2, 482400, Note_on_c, 0, 57, 103
2, 482640, Note_off_c, 0, 57, 0
2, 482640, Note_on_c, 0, 54, 97
2, 482880, Note_on_c, 0, 50, 90
2, 482884, Note_off_c, 0, 54, 0
2, 483120, Note_on_c, 0, 48, 95
2, 483124, Note_off_c, 0, 50, 0
2, 483345, Note_off_c, 0, 48, 0
2, 483360, Note_on_c, 0, 47, 93
2, 484080, Note_off_c, 0, 47, 0
2, 484080, Note_on_c, 0, 43, 92
2, 484320, Note_on_c, 0, 47, 99
2, 484324, Note_off_c, 0, 43, 0
2, 484560, Note_on_c, 0, 50, 95
2, 484564, Note_off_c, 0, 47, 0
2, 484800, Note_on_c, 0, 55, 102
2, 484804, Note_off_c, 0, 50, 0
2, 485040, Note_on_c, 0, 57, 104
2, 485044, Note_off_c, 0, 55, 0
2, 485265, Note_off_c, 0, 57, 0
2, 485280, Note_on_c, 0, 59, 99
2, 485520, Note_off_c, 0, 59, 0
2, 485520, Note_on_c, 0, 55, 96
2, 485760, Note_on_c, 0, 52, 91
2, 485764, Note_off_c, 0, 55, 0
2, 486000, Note_on_c, 0, 50, 95
2, 486004, Note_off_c, 0, 52, 0
2, 486225, Note_off_c, 0, 50, 0
2, 486240, Note_on_c, 0, 49, 98
2, 486293, Note_off_c, 0, 49, 0
2, 486308, Note_on_c, 0, 50, 98
2, 486360, Note_off_c, 0, 50, 0
2, 486371, Note_on_c, 0, 49, 98
2, 486420, Note_off_c, 0, 49, 0
2, 486435, Note_on_c, 0, 50, 98
2, 486484, Note_off_c, 0, 50, 0
2, 486495, Note_on_c, 0, 49, 98
2, 486540, Note_off_c, 0, 49, 0
2, 486555, Note_on_c, 0, 50, 98
2, 486600, Note_off_c, 0, 50, 0
2, 486611, Note_on_c, 0, 49, 98
2, 486656, Note_off_c, 0, 49, 0
2, 486668, Note_on_c, 0, 50, 98
2, 486713, Note_off_c, 0, 50, 0
2, 486728, Note_on_c, 0, 49, 98
2, 486773, Note_off_c, 0, 49, 0
2, 486788, Note_on_c, 0, 50, 98
2, 486833, Note_off_c, 0, 50, 0
2, 486851, Note_on_c, 0, 49, 98
2, 486900, Note_off_c, 0, 49, 0
2, 486915, Note_on_c, 0, 50, 98
2, 486956, Note_off_c, 0, 50, 0
2, 486960, Note_on_c, 0, 45, 93
2, 487080, Note_off_c, 0, 45, 0
2, 487080, Note_on_c, 0, 47, 97
2, 487200, Note_off_c, 0, 47, 0
2, 487200, Note_on_c, 0, 49, 102
2, 487440, Note_on_c, 0, 50, 99
2, 487444, Note_off_c, 0, 49, 0
2, 487680, Note_on_c, 0, 52, 95
2, 487684, Note_off_c, 0, 50, 0
2, 487920, Note_on_c, 0, 54, 100
2, 487924, Note_off_c, 0, 52, 0
2, 488145, Note_off_c, 0, 54, 0
2, 488160, Note_on_c, 0, 55, 100
2, 488400, Note_off_c, 0, 55, 0
2, 488400, Note_on_c, 0, 61, 113
2, 488640, Note_on_c, 0, 62, 105
2, 488644, Note_off_c, 0, 61, 0
2, 488880, Note_on_c, 0, 61, 97
2, 488884, Note_off_c, 0, 62, 0
2, 489105, Note_off_c, 0, 61, 0
2, 489120, Note_on_c, 0, 62, 102
2, 489360, Note_on_c, 0, 57, 88
2, 489364, Note_off_c, 0, 62, 0
2, 489585, Note_off_c, 0, 57, 0
2, 489600, Note_on_c, 0, 55, 90
2, 489840, Note_on_c, 0, 54, 96
2, 489844, Note_off_c, 0, 55, 0
2, 490065, Note_off_c, 0, 54, 0
2, 490080, Note_on_c, 0, 52, 96
2, 490320, Note_on_c, 0, 55, 102
2, 490324, Note_off_c, 0, 52, 0
2, 490545, Note_off_c, 0, 55, 0
2, 490560, Note_on_c, 0, 54, 94
2, 490800, Note_on_c, 0, 50, 91
2, 490804, Note_off_c, 0, 54, 0
2, 491025, Note_off_c, 0, 50, 0
2, 491040, Note_on_c, 0, 45, 92
2, 491280, Note_off_c, 0, 45, 0
2, 491280, Note_on_c, 0, 50, 102
2, 491520, Note_on_c, 0, 52, 101
2, 491524, Note_off_c, 0, 50, 0
2, 491760, Note_on_c, 0, 49, 94
2, 491764, Note_off_c, 0, 52, 0
2, 491985, Note_off_c, 0, 49, 0
2, 492000, Note_on_c, 0, 50, 98
2, 492960, Note_off_c, 0, 50, 0
2, 492960, Note_on_c, 0, 38, 85
2, 493920, Note_off_c, 0, 38, 0
2, 493920, Note_on_c, 0, 43, 118
2, 493920, Note_on_c, 0, 50, 118
2, 493920, Note_on_c, 0, 59, 118
2, 494880, Note_off_c, 0, 43, 0
2, 494880, Note_off_c, 0, 50, 0
2, 494880, Note_off_c, 0, 59, 0
2, 494880, Note_on_c, 0, 60, 118
2, 494880, Note_on_c, 0, 43, 72
2, 494880, Note_on_c, 0, 52, 72
2, 495840, Note_off_c, 0, 43, 0
2, 495840, Note_off_c, 0, 52, 0
2, 496320, Note_off_c, 0, 60, 0
2, 496320, Note_on_c, 0, 59, 91
2, 496800, Note_off_c, 0, 59, 0
2, 496800, Note_on_c, 0, 54, 94
2, 497040, Note_off_c, 0, 54, 0
2, 497040, Note_on_c, 0, 57, 101
2, 497280, Note_on_c, 0, 59, 99
2, 497284, Note_off_c, 0, 57, 0
2, 497520, Note_on_c, 0, 60, 106
2, 497524, Note_off_c, 0, 59, 0
2, 497745, Note_off_c, 0, 60, 0
2, 497760, Note_on_c, 0, 43, 97
2, 497760, Note_on_c, 0, 50, 97
2, 497760, Note_on_c, 0, 59, 97
2, 497813, Note_off_c, 0, 43, 0
2, 497813, Note_off_c, 0, 50, 0
2, 497813, Note_off_c, 0, 59, 0
2, 497828, Note_on_c, 0, 45, 97
2, 497828, Note_on_c, 0, 52, 97
2, 497828, Note_on_c, 0, 60, 97
2, 497880, Note_off_c, 0, 45, 0
2, 497880, Note_off_c, 0, 52, 0
2, 497880, Note_off_c, 0, 60, 0
2, 497895, Note_on_c, 0, 43, 97
2, 497895, Note_on_c, 0, 50, 97
2, 497895, Note_on_c, 0, 59, 97
2, 497948, Note_off_c, 0, 43, 0
2, 497948, Note_off_c, 0, 50, 0
2, 497948, Note_off_c, 0, 59, 0
2, 497959, Note_on_c, 0, 45, 97
2, 497959, Note_on_c, 0, 52, 97
2, 497959, Note_on_c, 0, 60, 97
2, 498008, Note_off_c, 0, 45, 0
2, 498008, Note_off_c, 0, 52, 0
2, 498008, Note_off_c, 0, 60, 0
2, 498023, Note_on_c, 0, 43, 97
2, 498023, Note_on_c, 0, 50, 97
2, 498023, Note_on_c, 0, 59, 97
2, 498071, Note_off_c, 0, 43, 0
2, 498071, Note_off_c, 0, 50, 0
2, 498071, Note_off_c, 0, 59, 0
2, 498083, Note_on_c, 0, 45, 97
2, 498083, Note_on_c, 0, 52, 97
2, 498083, Note_on_c, 0, 60, 97
2, 498128, Note_off_c, 0, 45, 0
2, 498128, Note_off_c, 0, 52, 0
2, 498128, Note_off_c, 0, 60, 0
2, 498143, Note_on_c, 0, 43, 97
2, 498143, Note_on_c, 0, 50, 97
2, 498143, Note_on_c, 0, 59, 97
2, 498188, Note_off_c, 0, 43, 0
2, 498188, Note_off_c, 0, 50, 0
2, 498188, Note_off_c, 0, 59, 0
2, 498203, Note_on_c, 0, 45, 97
2, 498203, Note_on_c, 0, 52, 97
2, 498203, Note_on_c, 0, 60, 97
2, 498248, Note_off_c, 0, 45, 0
2, 498248, Note_off_c, 0, 52, 0
2, 498248, Note_off_c, 0, 60, 0
2, 498259, Note_on_c, 0, 43, 97
2, 498259, Note_on_c, 0, 50, 97
2, 498259, Note_on_c, 0, 59, 97
2, 498304, Note_off_c, 0, 43, 0
2, 498304, Note_off_c, 0, 50, 0
2, 498304, Note_off_c, 0, 59, 0
2, 498315, Note_on_c, 0, 45, 97
2, 498315, Note_on_c, 0, 52, 97
2, 498315, Note_on_c, 0, 60, 97
2, 498360, Note_off_c, 0, 45, 0
2, 498360, Note_off_c, 0, 52, 0
2, 498360, Note_off_c, 0, 60, 0
2, 498371, Note_on_c, 0, 43, 97
2, 498371, Note_on_c, 0, 50, 97
2, 498371, Note_on_c, 0, 59, 97
2, 498416, Note_off_c, 0, 43, 0
2, 498416, Note_off_c, 0, 50, 0
2, 498416, Note_off_c, 0, 59, 0
2, 498431, Note_on_c, 0, 45, 97
2, 498431, Note_on_c, 0, 52, 97
2, 498431, Note_on_c, 0, 60, 97
2, 498476, Note_off_c, 0, 45, 0
2, 498476, Note_off_c, 0, 52, 0
2, 498476, Note_off_c, 0, 60, 0
2, 498491, Note_on_c, 0, 43, 97
2, 498491, Note_on_c, 0, 50, 97
2, 498491, Note_on_c, 0, 59, 97
2, 498536, Note_off_c, 0, 43, 0
2, 498536, Note_off_c, 0, 50, 0
2, 498536, Note_off_c, 0, 59, 0
2, 498551, Note_on_c, 0, 45, 97
2, 498551, Note_on_c, 0, 52, 97
2, 498551, Note_on_c, 0, 60, 97
2, 498596, Note_off_c, 0, 45, 0
2, 498596, Note_off_c, 0, 52, 0
2, 498596, Note_off_c, 0, 60, 0
2, 498615, Note_on_c, 0, 43, 97
2, 498615, Note_on_c, 0, 50, 97
2, 498615, Note_on_c, 0, 59, 97
2, 498664, Note_off_c, 0, 43, 0
2, 498664, Note_off_c, 0, 50, 0
2, 498664, Note_off_c, 0, 59, 0
2, 498679, Note_on_c, 0, 45, 97
2, 498679, Note_on_c, 0, 52, 97
2, 498679, Note_on_c, 0, 60, 97
2, 498716, Note_off_c, 0, 45, 0
2, 498716, Note_off_c, 0, 52, 0
2, 498716, Note_off_c, 0, 60, 0
2, 498720, Note_on_c, 0, 57, 91
2, 499200, Note_on_c, 0, 55, 93
2, 499208, Note_off_c, 0, 57, 0
2, 499654, Note_off_c, 0, 55, 0
2, 499680, Note_on_c, 0, 62, 112
2, 500160, Note_off_c, 0, 62, 0
2, 500160, Note_on_c, 0, 53, 93
2, 500640, Note_off_c, 0, 53, 0
2, 500640, Note_on_c, 0, 52, 96
2, 500693, Note_off_c, 0, 52, 0
2, 500708, Note_on_c, 0, 53, 96
2, 500760, Note_off_c, 0, 53, 0
2, 500771, Note_on_c, 0, 52, 96
2, 500820, Note_off_c, 0, 52, 0
2, 500835, Note_on_c, 0, 53, 96
2, 500884, Note_off_c, 0, 53, 0
2, 500895, Note_on_c, 0, 52, 96
2, 500940, Note_off_c, 0, 52, 0
2, 500955, Note_on_c, 0, 53, 96
2, 501000, Note_off_c, 0, 53, 0
2, 501011, Note_on_c, 0, 52, 96
2, 501056, Note_off_c, 0, 52, 0
2, 501068, Note_on_c, 0, 53, 96
2, 501113, Note_off_c, 0, 53, 0
2, 501124, Note_on_c, 0, 52, 96
2, 501169, Note_off_c, 0, 52, 0
2, 501184, Note_on_c, 0, 53, 96
2, 501229, Note_off_c, 0, 53, 0
2, 501244, Note_on_c, 0, 52, 96
2, 501289, Note_off_c, 0, 52, 0
2, 501308, Note_on_c, 0, 53, 96
2, 501356, Note_off_c, 0, 53, 0
2, 501360, Note_on_c, 0, 50, 93
2, 501439, Note_off_c, 0, 50, 0
2, 501439, Note_on_c, 0, 48, 94
2, 501518, Note_off_c, 0, 48, 0
2, 501518, Note_on_c, 0, 47, 97
2, 501600, Note_off_c, 0, 47, 0
2, 501600, Note_on_c, 0, 48, 99
2, 502054, Note_off_c, 0, 48, 0
2, 502080, Note_on_c, 0, 52, 103
2, 502560, Note_off_c, 0, 52, 0
2, 502560, Note_on_c, 0, 54, 101
2, 502800, Note_off_c, 0, 54, 0
2, 502800, Note_on_c, 0, 60, 110
2, 503040, Note_on_c, 0, 59, 97
2, 503044, Note_off_c, 0, 60, 0
2, 503280, Note_on_c, 0, 55, 92
2, 503284, Note_off_c, 0, 59, 0
2, 503505, Note_off_c, 0, 55, 0
2, 503520, Note_on_c, 0, 38, 94
2, 503520, Note_on_c, 0, 45, 94
2, 503520, Note_on_c, 0, 54, 94
2, 503573, Note_off_c, 0, 38, 0
2, 503573, Note_off_c, 0, 45, 0
2, 503573, Note_off_c, 0, 54, 0
2, 503588, Note_on_c, 0, 40, 94
2, 503588, Note_on_c, 0, 47, 94
2, 503588, Note_on_c, 0, 55, 94
2, 503640, Note_off_c, 0, 40, 0
2, 503640, Note_off_c, 0, 47, 0
2, 503640, Note_off_c, 0, 55, 0
2, 503655, Note_on_c, 0, 38, 94
2, 503655, Note_on_c, 0, 45, 94
2, 503655, Note_on_c, 0, 54, 94
2, 503708, Note_off_c, 0, 38, 0
2, 503708, Note_off_c, 0, 45, 0
2, 503708, Note_off_c, 0, 54, 0
2, 503719, Note_on_c, 0, 40, 94
2, 503719, Note_on_c, 0, 47, 94
2, 503719, Note_on_c, 0, 55, 94
2, 503768, Note_off_c, 0, 40, 0
2, 503768, Note_off_c, 0, 47, 0
2, 503768, Note_off_c, 0, 55, 0
2, 503783, Note_on_c, 0, 38, 94
2, 503783, Note_on_c, 0, 45, 94
2, 503783, Note_on_c, 0, 54, 94
2, 503831, Note_off_c, 0, 38, 0
2, 503831, Note_off_c, 0, 45, 0
2, 503831, Note_off_c, 0, 54, 0
2, 503843, Note_on_c, 0, 40, 94
2, 503843, Note_on_c, 0, 47, 94
2, 503843, Note_on_c, 0, 55, 94
2, 503888, Note_off_c, 0, 40, 0
2, 503888, Note_off_c, 0, 47, 0
2, 503888, Note_off_c, 0, 55, 0
2, 503903, Note_on_c, 0, 38, 94
2, 503903, Note_on_c, 0, 45, 94
2, 503903, Note_on_c, 0, 54, 94
2, 503948, Note_off_c, 0, 38, 0
2, 503948, Note_off_c, 0, 45, 0
2, 503948, Note_off_c, 0, 54, 0
2, 503963, Note_on_c, 0, 40, 94
2, 503963, Note_on_c, 0, 47, 94
2, 503963, Note_on_c, 0, 55, 94
2, 504008, Note_off_c, 0, 40, 0
2, 504008, Note_off_c, 0, 47, 0
2, 504008, Note_off_c, 0, 55, 0
2, 504019, Note_on_c, 0, 38, 94
2, 504019, Note_on_c, 0, 45, 94
2, 504019, Note_on_c, 0, 54, 94
2, 504064, Note_off_c, 0, 38, 0
2, 504064, Note_off_c, 0, 45, 0
2, 504064, Note_off_c, 0, 54, 0
2, 504075, Note_on_c, 0, 40, 94
2, 504075, Note_on_c, 0, 47, 94
2, 504075, Note_on_c, 0, 55, 94
2, 504120, Note_off_c, 0, 40, 0
2, 504120, Note_off_c, 0, 47, 0
2, 504120, Note_off_c, 0, 55, 0
2, 504131, Note_on_c, 0, 38, 94
2, 504131, Note_on_c, 0, 45, 94
2, 504131, Note_on_c, 0, 54, 94
2, 504176, Note_off_c, 0, 38, 0
2, 504176, Note_off_c, 0, 45, 0
2, 504176, Note_off_c, 0, 54, 0
2, 504191, Note_on_c, 0, 40, 94
2, 504191, Note_on_c, 0, 47, 94
2, 504191, Note_on_c, 0, 55, 94
2, 504236, Note_off_c, 0, 40, 0
2, 504236, Note_off_c, 0, 47, 0
2, 504236, Note_off_c, 0, 55, 0
2, 504251, Note_on_c, 0, 38, 94
2, 504251, Note_on_c, 0, 45, 94
2, 504251, Note_on_c, 0, 54, 94
2, 504296, Note_off_c, 0, 38, 0
2, 504296, Note_off_c, 0, 45, 0
2, 504296, Note_off_c, 0, 54, 0
2, 504311, Note_on_c, 0, 40, 94
2, 504311, Note_on_c, 0, 47, 94
2, 504311, Note_on_c, 0, 55, 94
2, 504356, Note_off_c, 0, 40, 0
2, 504356, Note_off_c, 0, 47, 0
2, 504356, Note_off_c, 0, 55, 0
2, 504375, Note_on_c, 0, 38, 94
2, 504375, Note_on_c, 0, 45, 94
2, 504375, Note_on_c, 0, 54, 94
2, 504424, Note_off_c, 0, 38, 0
2, 504424, Note_off_c, 0, 45, 0
2, 504424, Note_off_c, 0, 54, 0
2, 504439, Note_on_c, 0, 40, 94
2, 504439, Note_on_c, 0, 47, 94
2, 504439, Note_on_c, 0, 55, 94
2, 504476, Note_off_c, 0, 40, 0
2, 504476, Note_off_c, 0, 47, 0
2, 504476, Note_off_c, 0, 55, 0
2, 504480, Note_on_c, 0, 52, 99
2, 504960, Note_on_c, 0, 50, 98
2, 504968, Note_off_c, 0, 52, 0
2, 505414, Note_off_c, 0, 50, 0
2, 505440, Note_on_c, 0, 57, 104
2, 505680, Note_off_c, 0, 57, 0
2, 505680, Note_on_c, 0, 54, 100
2, 505920, Note_on_c, 0, 50, 93
2, 505924, Note_off_c, 0, 54, 0
2, 506160, Note_on_c, 0, 48, 100
2, 506164, Note_off_c, 0, 50, 0
2, 506385, Note_off_c, 0, 48, 0
2, 506400, Note_on_c, 0, 47, 96
2, 507120, Note_off_c, 0, 47, 0
2, 507120, Note_on_c, 0, 43, 94
2, 507360, Note_on_c, 0, 47, 101
2, 507364, Note_off_c, 0, 43, 0
2, 507600, Note_on_c, 0, 50, 101
2, 507604, Note_off_c, 0, 47, 0
2, 507840, Note_on_c, 0, 55, 102
2, 507844, Note_off_c, 0, 50, 0
2, 508080, Note_on_c, 0, 57, 100
2, 508084, Note_off_c, 0, 55, 0
2, 508305, Note_off_c, 0, 57, 0
2, 508320, Note_on_c, 0, 59, 95
2, 508560, Note_off_c, 0, 59, 0
2, 508560, Note_on_c, 0, 55, 94
2, 508800, Note_on_c, 0, 52, 95
2, 508804, Note_off_c, 0, 55, 0
2, 509040, Note_on_c, 0, 50, 92
2, 509044, Note_off_c, 0, 52, 0
2, 509265, Note_off_c, 0, 50, 0
2, 509280, Note_on_c, 0, 49, 100
2, 509333, Note_off_c, 0, 49, 0
2, 509348, Note_on_c, 0, 50, 100
2, 509400, Note_off_c, 0, 50, 0
2, 509411, Note_on_c, 0, 49, 100
2, 509460, Note_off_c, 0, 49, 0
2, 509475, Note_on_c, 0, 50, 100
2, 509524, Note_off_c, 0, 50, 0
2, 509535, Note_on_c, 0, 49, 100
2, 509580, Note_off_c, 0, 49, 0
2, 509595, Note_on_c, 0, 50, 100
2, 509640, Note_off_c, 0, 50, 0
2, 509651, Note_on_c, 0, 49, 100
2, 509696, Note_off_c, 0, 49, 0
2, 509708, Note_on_c, 0, 50, 100
2, 509753, Note_off_c, 0, 50, 0
2, 509768, Note_on_c, 0, 49, 100
2, 509813, Note_off_c, 0, 49, 0
2, 509828, Note_on_c, 0, 50, 100
2, 509873, Note_off_c, 0, 50, 0
2, 509891, Note_on_c, 0, 49, 100
2, 509940, Note_off_c, 0, 49, 0
2, 509955, Note_on_c, 0, 50, 100
2, 509996, Note_off_c, 0, 50, 0
2, 510000, Note_on_c, 0, 45, 94
2, 510120, Note_off_c, 0, 45, 0
2, 510120, Note_on_c, 0, 47, 99
2, 510240, Note_off_c, 0, 47, 0
2, 510240, Note_on_c, 0, 49, 102
2, 510480, Note_on_c, 0, 50, 102
2, 510484, Note_off_c, 0, 49, 0
2, 510720, Note_on_c, 0, 52, 101
2, 510724, Note_off_c, 0, 50, 0
2, 510960, Note_on_c, 0, 54, 97
2, 510964, Note_off_c, 0, 52, 0
2, 511185, Note_off_c, 0, 54, 0
2, 511200, Note_on_c, 0, 55, 101
2, 511440, Note_off_c, 0, 55, 0
2, 511440, Note_on_c, 0, 61, 116
2, 511680, Note_on_c, 0, 62, 105
2, 511684, Note_off_c, 0, 61, 0
2, 511920, Note_on_c, 0, 61, 95
2, 511924, Note_off_c, 0, 62, 0
2, 512145, Note_off_c, 0, 61, 0
2, 512160, Note_on_c, 0, 62, 103
2, 512400, Note_on_c, 0, 57, 97
2, 512404, Note_off_c, 0, 62, 0
2, 512625, Note_off_c, 0, 57, 0
2, 512640, Note_on_c, 0, 55, 98
2, 512880, Note_on_c, 0, 54, 96
2, 512884, Note_off_c, 0, 55, 0
2, 513105, Note_off_c, 0, 54, 0
2, 513120, Note_on_c, 0, 52, 97
2, 513360, Note_on_c, 0, 55, 100
2, 513364, Note_off_c, 0, 52, 0
2, 513585, Note_off_c, 0, 55, 0
2, 513600, Note_on_c, 0, 54, 98
2, 513840, Note_on_c, 0, 50, 96
2, 513844, Note_off_c, 0, 54, 0
2, 514065, Note_off_c, 0, 50, 0
2, 514080, Note_on_c, 0, 45, 87
2, 514320, Note_off_c, 0, 45, 0
2, 514320, Note_on_c, 0, 50, 100
2, 514560, Note_on_c, 0, 52, 104
2, 514564, Note_off_c, 0, 50, 0
2, 514800, Note_on_c, 0, 49, 93
2, 514804, Note_off_c, 0, 52, 0
2, 515025, Note_off_c, 0, 49, 0
2, 515040, Note_on_c, 0, 50, 107
2, 516000, Note_off_c, 0, 50, 0
2, 516000, Note_on_c, 0, 38, 82
2, 516960, Note_off_c, 0, 38, 0
2, 516960, Note_on_c, 0, 38, 112
2, 516960, Note_on_c, 0, 45, 112
2, 516960, Note_on_c, 0, 54, 112
2, 517440, Note_off_c, 0, 38, 0
2, 517440, Note_off_c, 0, 45, 0
2, 517440, Note_off_c, 0, 54, 0
2, 517440, Note_on_c, 0, 52, 96
2, 517680, Note_on_c, 0, 50, 96
2, 517684, Note_off_c, 0, 52, 0
2, 517905, Note_off_c, 0, 50, 0
2, 517920, Note_on_c, 0, 38, 125
2, 517920, Note_on_c, 0, 45, 125
2, 517920, Note_on_c, 0, 54, 125
2, 517920, Note_on_c, 0, 60, 125
2, 519360, Note_off_c, 0, 38, 0
2, 519360, Note_off_c, 0, 45, 0
2, 519360, Note_off_c, 0, 54, 0
2, 519360, Note_off_c, 0, 60, 0
2, 519360, Note_on_c, 0, 59, 97
2, 519600, Note_on_c, 0, 57, 97
2, 519604, Note_off_c, 0, 59, 0
2, 519825, Note_off_c, 0, 57, 0
2, 519840, Note_on_c, 0, 43, 102
2, 519840, Note_on_c, 0, 50, 102
2, 519840, Note_on_c, 0, 59, 102
2, 520080, Note_off_c, 0, 43, 0
2, 520080, Note_off_c, 0, 50, 0
2, 520080, Note_off_c, 0, 59, 0
2, 520080, Note_on_c, 0, 54, 88
2, 520320, Note_on_c, 0, 55, 98
2, 520324, Note_off_c, 0, 54, 0
2, 520560, Note_on_c, 0, 52, 91
2, 520564, Note_off_c, 0, 55, 0
2, 520785, Note_off_c, 0, 52, 0
2, 520800, Note_on_c, 0, 45, 92
2, 520800, Note_on_c, 0, 51, 92
2, 520853, Note_off_c, 0, 45, 0
2, 520853, Note_off_c, 0, 51, 0
2, 520868, Note_on_c, 0, 47, 92
2, 520868, Note_on_c, 0, 52, 92
2, 520920, Note_off_c, 0, 47, 0
2, 520920, Note_off_c, 0, 52, 0
2, 520931, Note_on_c, 0, 45, 92
2, 520931, Note_on_c, 0, 51, 92
2, 520980, Note_off_c, 0, 45, 0
2, 520980, Note_off_c, 0, 51, 0
2, 520995, Note_on_c, 0, 47, 92
2, 520995, Note_on_c, 0, 52, 92
2, 521044, Note_off_c, 0, 47, 0
2, 521044, Note_off_c, 0, 52, 0
2, 521055, Note_on_c, 0, 45, 92
2, 521055, Note_on_c, 0, 51, 92
2, 521100, Note_off_c, 0, 45, 0
2, 521100, Note_off_c, 0, 51, 0
2, 521115, Note_on_c, 0, 47, 92
2, 521115, Note_on_c, 0, 52, 92
2, 521160, Note_off_c, 0, 47, 0
2, 521160, Note_off_c, 0, 52, 0
2, 521171, Note_on_c, 0, 45, 92
2, 521171, Note_on_c, 0, 51, 92
2, 521216, Note_off_c, 0, 45, 0
2, 521216, Note_off_c, 0, 51, 0
2, 521228, Note_on_c, 0, 47, 92
2, 521228, Note_on_c, 0, 52, 92
2, 521273, Note_off_c, 0, 47, 0
2, 521273, Note_off_c, 0, 52, 0
2, 521288, Note_on_c, 0, 45, 92
2, 521288, Note_on_c, 0, 51, 92
2, 521333, Note_off_c, 0, 45, 0
2, 521333, Note_off_c, 0, 51, 0
2, 521348, Note_on_c, 0, 47, 92
2, 521348, Note_on_c, 0, 52, 92
2, 521393, Note_off_c, 0, 47, 0
2, 521393, Note_off_c, 0, 52, 0
2, 521411, Note_on_c, 0, 45, 92
2, 521411, Note_on_c, 0, 51, 92
2, 521460, Note_off_c, 0, 45, 0
2, 521460, Note_off_c, 0, 51, 0
2, 521475, Note_on_c, 0, 47, 92
2, 521475, Note_on_c, 0, 52, 92
2, 521516, Note_off_c, 0, 47, 0
2, 521516, Note_off_c, 0, 52, 0
2, 521520, Note_on_c, 0, 52, 101
2, 521760, Note_off_c, 0, 52, 0
2, 521760, Note_on_c, 0, 54, 102
2, 522000, Note_off_c, 0, 54, 0
2, 522000, Note_on_c, 0, 55, 98
2, 522240, Note_on_c, 0, 57, 104
2, 522244, Note_off_c, 0, 55, 0
2, 522480, Note_on_c, 0, 59, 100
2, 522484, Note_off_c, 0, 57, 0
2, 522705, Note_off_c, 0, 59, 0
2, 522720, Note_on_c, 0, 51, 89
2, 522960, Note_off_c, 0, 51, 0
2, 522960, Note_on_c, 0, 57, 105
2, 523200, Note_on_c, 0, 59, 103
2, 523204, Note_off_c, 0, 57, 0
2, 523440, Note_on_c, 0, 60, 102
2, 523444, Note_off_c, 0, 59, 0
2, 523665, Note_off_c, 0, 60, 0
2, 523680, Note_on_c, 0, 59, 97
2, 523733, Note_off_c, 0, 59, 0
2, 523748, Note_on_c, 0, 60, 97
2, 523800, Note_off_c, 0, 60, 0
2, 523811, Note_on_c, 0, 59, 97
2, 523860, Note_off_c, 0, 59, 0
2, 523871, Note_on_c, 0, 60, 97
2, 523916, Note_off_c, 0, 60, 0
2, 523928, Note_on_c, 0, 59, 97
2, 523973, Note_off_c, 0, 59, 0
2, 523984, Note_on_c, 0, 60, 97
2, 524029, Note_off_c, 0, 60, 0
2, 524044, Note_on_c, 0, 59, 97
2, 524089, Note_off_c, 0, 59, 0
2, 524108, Note_on_c, 0, 60, 97
2, 524156, Note_off_c, 0, 60, 0
2, 524160, Note_on_c, 0, 57, 94
2, 524400, Note_on_c, 0, 55, 94
2, 524404, Note_off_c, 0, 57, 0
2, 524625, Note_off_c, 0, 55, 0
2, 524640, Note_on_c, 0, 54, 96
2, 524880, Note_on_c, 0, 52, 91
2, 524884, Note_off_c, 0, 54, 0
2, 525105, Note_off_c, 0, 52, 0
2, 525120, Note_on_c, 0, 57, 101
2, 525360, Note_on_c, 0, 54, 93
2, 525364, Note_off_c, 0, 57, 0
2, 525585, Note_off_c, 0, 54, 0
2, 525600, Note_on_c, 0, 55, 104
2, 525840, Note_on_c, 0, 52, 94
2, 525844, Note_off_c, 0, 55, 0
2, 526065, Note_off_c, 0, 52, 0
2, 526080, Note_on_c, 0, 54, 103
2, 526320, Note_on_c, 0, 51, 94
2, 526324, Note_off_c, 0, 54, 0
2, 526545, Note_off_c, 0, 51, 0
2, 526560, Note_on_c, 0, 52, 103
2, 527520, Note_off_c, 0, 52, 0
2, 527520, Note_on_c, 0, 40, 84
2, 528480, Note_off_c, 0, 40, 0
2, 528480, Note_on_c, 0, 47, 105
2, 528480, Note_on_c, 0, 50, 105
2, 529200, Note_off_c, 0, 47, 0
2, 529200, Note_off_c, 0, 50, 0
2, 529200, Note_on_c, 0, 52, 109
2, 529320, Note_off_c, 0, 52, 0
2, 529320, Note_on_c, 0, 53, 101
2, 529433, Note_off_c, 0, 53, 0
2, 529440, Note_on_c, 0, 36, 99
2, 529440, Note_on_c, 0, 43, 99
2, 529440, Note_on_c, 0, 52, 99
2, 530160, Note_off_c, 0, 36, 0
2, 530160, Note_off_c, 0, 43, 0
2, 530160, Note_off_c, 0, 52, 0
2, 530160, Note_on_c, 0, 54, 102
2, 530400, Note_off_c, 0, 54, 0
2, 530400, Note_on_c, 0, 55, 99
2, 530640, Note_off_c, 0, 55, 0
2, 530640, Note_on_c, 0, 57, 99
2, 530880, Note_on_c, 0, 59, 101
2, 530884, Note_off_c, 0, 57, 0
2, 531120, Note_on_c, 0, 60, 105
2, 531124, Note_off_c, 0, 59, 0
2, 531345, Note_off_c, 0, 60, 0
2, 531360, Note_on_c, 0, 44, 87
2, 531600, Note_off_c, 0, 44, 0
2, 531600, Note_on_c, 0, 62, 122
2, 531840, Note_on_c, 0, 60, 96
2, 531844, Note_off_c, 0, 62, 0
2, 532080, Note_on_c, 0, 59, 98
2, 532084, Note_off_c, 0, 60, 0
2, 532305, Note_off_c, 0, 59, 0
2, 532320, Note_on_c, 0, 45, 103
2, 532320, Note_on_c, 0, 52, 103
2, 532320, Note_on_c, 0, 60, 103
2, 533040, Note_off_c, 0, 45, 0
2, 533040, Note_off_c, 0, 52, 0
2, 533040, Note_off_c, 0, 60, 0
2, 533040, Note_on_c, 0, 59, 100
2, 533280, Note_off_c, 0, 59, 0
2, 533280, Note_on_c, 0, 57, 94
2, 533520, Note_off_c, 0, 57, 0
2, 533520, Note_on_c, 0, 55, 96
2, 533760, Note_off_c, 0, 55, 0
2, 533760, Note_on_c, 0, 54, 95
2, 534000, Note_off_c, 0, 54, 0
2, 534000, Note_on_c, 0, 52, 92
2, 534240, Note_off_c, 0, 52, 0
2, 534240, Note_on_c, 0, 50, 97
2, 534480, Note_on_c, 0, 47, 65
2, 534720, Note_off_c, 0, 47, 0
2, 534720, Note_on_c, 0, 48, 75
2, 534960, Note_off_c, 0, 48, 0
2, 534960, Note_on_c, 0, 45, 73
2, 535200, Note_off_c, 0, 45, 0
2, 535200, Note_on_c, 0, 47, 99
2, 535440, Note_off_c, 0, 50, 0
2, 535440, Note_off_c, 0, 47, 0
2, 535440, Note_on_c, 0, 52, 100
2, 535680, Note_on_c, 0, 54, 100
2, 535684, Note_off_c, 0, 52, 0
2, 535920, Note_on_c, 0, 55, 101
2, 535924, Note_off_c, 0, 54, 0
2, 536145, Note_off_c, 0, 55, 0
2, 536160, Note_on_c, 0, 57, 101
2, 536400, Note_on_c, 0, 60, 106
2, 536404, Note_off_c, 0, 57, 0
2, 536625, Note_off_c, 0, 60, 0
2, 536640, Note_on_c, 0, 59, 97
2, 536880, Note_on_c, 0, 55, 86
2, 536884, Note_off_c, 0, 59, 0
2, 537105, Note_off_c, 0, 55, 0
2, 537120, Note_on_c, 0, 50, 96
2, 537360, Note_off_c, 0, 50, 0
2, 537360, Note_on_c, 0, 55, 100
2, 537600, Note_on_c, 0, 57, 97
2, 537604, Note_off_c, 0, 55, 0
2, 537840, Note_on_c, 0, 54, 94
2, 537844, Note_off_c, 0, 57, 0
2, 538065, Note_off_c, 0, 54, 0
2, 538080, Note_on_c, 0, 55, 103
2, 539040, Note_off_c, 0, 55, 0
2, 539040, Note_on_c, 0, 43, 86
2, 540000, Note_off_c, 0, 43, 0
2, 543840, Note_on_c, 0, 43, 110
2, 544320, Note_off_c, 0, 43, 0
2, 544320, Note_on_c, 0, 50, 107
2, 544800, Note_off_c, 0, 50, 0
2, 544800, Note_on_c, 0, 59, 112
2, 545760, Note_off_c, 0, 59, 0
2, 545760, Note_on_c, 0, 57, 97
2, 546240, Note_on_c, 0, 59, 104
2, 546248, Note_off_c, 0, 57, 0
2, 546480, Note_on_c, 0, 60, 103
2, 546484, Note_off_c, 0, 59, 0
2, 546705, Note_off_c, 0, 60, 0
2, 546720, Note_on_c, 0, 59, 96
2, 547200, Note_on_c, 0, 57, 96
2, 547208, Note_off_c, 0, 59, 0
2, 547654, Note_off_c, 0, 57, 0
2, 547680, Note_on_c, 0, 55, 94
2, 548160, Note_on_c, 0, 54, 92
2, 548168, Note_off_c, 0, 55, 0
2, 548614, Note_off_c, 0, 54, 0
2, 548640, Note_on_c, 0, 55, 100
2, 549120, Note_on_c, 0, 50, 91
2, 549128, Note_off_c, 0, 55, 0
2, 549574, Note_off_c, 0, 50, 0
2, 549600, Note_on_c, 0, 52, 125
2, 550080, Note_on_c, 0, 55, 104
2, 550088, Note_off_c, 0, 52, 0
2, 550534, Note_off_c, 0, 55, 0
2, 550560, Note_on_c, 0, 60, 112
2, 551040, Note_on_c, 0, 57, 98
2, 551048, Note_off_c, 0, 60, 0
2, 551494, Note_off_c, 0, 57, 0
2, 551520, Note_on_c, 0, 54, 92
2, 552000, Note_on_c, 0, 62, 117
2, 552008, Note_off_c, 0, 54, 0
2, 552454, Note_off_c, 0, 62, 0
2, 552480, Note_on_c, 0, 43, 93
2, 552480, Note_on_c, 0, 50, 93
2, 552480, Note_on_c, 0, 59, 93
2, 552593, Note_off_c, 0, 43, 0
2, 552593, Note_off_c, 0, 50, 0
2, 552593, Note_off_c, 0, 59, 0
2, 552619, Note_on_c, 0, 45, 93
2, 552619, Note_on_c, 0, 52, 93
2, 552619, Note_on_c, 0, 60, 93
2, 552728, Note_off_c, 0, 45, 0
2, 552728, Note_off_c, 0, 52, 0
2, 552728, Note_off_c, 0, 60, 0
2, 552754, Note_on_c, 0, 43, 93
2, 552754, Note_on_c, 0, 50, 93
2, 552754, Note_on_c, 0, 59, 93
2, 552859, Note_off_c, 0, 43, 0
2, 552859, Note_off_c, 0, 50, 0
2, 552859, Note_off_c, 0, 59, 0
2, 552885, Note_on_c, 0, 45, 93
2, 552885, Note_on_c, 0, 52, 93
2, 552885, Note_on_c, 0, 60, 93
2, 552990, Note_off_c, 0, 45, 0
2, 552990, Note_off_c, 0, 52, 0
2, 552990, Note_off_c, 0, 60, 0
2, 553013, Note_on_c, 0, 43, 93
2, 553013, Note_on_c, 0, 50, 93
2, 553013, Note_on_c, 0, 59, 93
2, 553114, Note_off_c, 0, 43, 0
2, 553114, Note_off_c, 0, 50, 0
2, 553114, Note_off_c, 0, 59, 0
2, 553136, Note_on_c, 0, 45, 93
2, 553136, Note_on_c, 0, 52, 93
2, 553136, Note_on_c, 0, 60, 93
2, 553234, Note_off_c, 0, 45, 0
2, 553234, Note_off_c, 0, 52, 0
2, 553234, Note_off_c, 0, 60, 0
2, 553256, Note_on_c, 0, 43, 93
2, 553256, Note_on_c, 0, 50, 93
2, 553256, Note_on_c, 0, 59, 93
2, 553350, Note_off_c, 0, 43, 0
2, 553350, Note_off_c, 0, 50, 0
2, 553350, Note_off_c, 0, 59, 0
2, 553373, Note_on_c, 0, 45, 93
2, 553373, Note_on_c, 0, 52, 93
2, 553373, Note_on_c, 0, 60, 93
2, 553463, Note_off_c, 0, 45, 0
2, 553463, Note_off_c, 0, 52, 0
2, 553463, Note_off_c, 0, 60, 0
2, 553489, Note_on_c, 0, 43, 93
2, 553489, Note_on_c, 0, 50, 93
2, 553489, Note_on_c, 0, 59, 93
2, 553579, Note_off_c, 0, 43, 0
2, 553579, Note_off_c, 0, 50, 0
2, 553579, Note_off_c, 0, 59, 0
2, 553609, Note_on_c, 0, 45, 93
2, 553609, Note_on_c, 0, 52, 93
2, 553609, Note_on_c, 0, 60, 93
2, 553703, Note_off_c, 0, 45, 0
2, 553703, Note_off_c, 0, 52, 0
2, 553703, Note_off_c, 0, 60, 0
2, 553733, Note_on_c, 0, 43, 93
2, 553733, Note_on_c, 0, 50, 93
2, 553733, Note_on_c, 0, 59, 93
2, 553830, Note_off_c, 0, 43, 0
2, 553830, Note_off_c, 0, 50, 0
2, 553830, Note_off_c, 0, 59, 0
2, 553860, Note_on_c, 0, 45, 93
2, 553860, Note_on_c, 0, 52, 93
2, 553860, Note_on_c, 0, 60, 93
2, 553961, Note_off_c, 0, 45, 0
2, 553961, Note_off_c, 0, 52, 0
2, 553961, Note_off_c, 0, 60, 0
2, 553991, Note_on_c, 0, 43, 93
2, 553991, Note_on_c, 0, 50, 93
2, 553991, Note_on_c, 0, 59, 93
2, 554096, Note_off_c, 0, 43, 0
2, 554096, Note_off_c, 0, 50, 0
2, 554096, Note_off_c, 0, 59, 0
2, 554126, Note_on_c, 0, 45, 93
2, 554126, Note_on_c, 0, 52, 93
2, 554126, Note_on_c, 0, 60, 93
2, 554231, Note_off_c, 0, 45, 0
2, 554231, Note_off_c, 0, 52, 0
2, 554231, Note_off_c, 0, 60, 0
2, 554250, Note_on_c, 0, 57, 96
2, 554321, Note_on_c, 0, 59, 96
2, 554400, Note_off_c, 0, 57, 0
2, 554400, Note_off_c, 0, 59, 0
2, 554400, Note_on_c, 0, 50, 91
2, 554400, Note_on_c, 0, 57, 91
2, 555360, Note_off_c, 0, 50, 0
2, 555360, Note_off_c, 0, 57, 0
2, 555360, Note_on_c, 0, 45, 57
2, 555840, Note_on_c, 0, 54, 68
2, 555848, Note_off_c, 0, 45, 0
2, 556294, Note_off_c, 0, 54, 0
2, 556320, Note_on_c, 0, 60, 73
2, 557280, Note_off_c, 0, 60, 0
2, 557280, Note_on_c, 0, 59, 64
2, 557760, Note_on_c, 0, 60, 67
2, 557768, Note_off_c, 0, 59, 0
2, 558000, Note_on_c, 0, 62, 64
2, 558004, Note_off_c, 0, 60, 0
2, 558225, Note_off_c, 0, 62, 0
2, 558240, Note_on_c, 0, 60, 59
2, 558720, Note_on_c, 0, 59, 58
2, 558728, Note_off_c, 0, 60, 0
2, 559174, Note_off_c, 0, 59, 0
2, 559200, Note_on_c, 0, 57, 57
2, 559680, Note_on_c, 0, 55, 55
2, 559688, Note_off_c, 0, 57, 0
2, 560134, Note_off_c, 0, 55, 0
2, 560160, Note_on_c, 0, 54, 61
2, 560640, Note_on_c, 0, 52, 57
2, 560648, Note_off_c, 0, 54, 0
2, 561094, Note_off_c, 0, 52, 0
2, 561120, Note_on_c, 0, 54, 79
2, 561600, Note_on_c, 0, 55, 66
2, 561608, Note_off_c, 0, 54, 0
2, 561840, Note_on_c, 0, 57, 65
2, 561844, Note_off_c, 0, 55, 0
2, 562065, Note_off_c, 0, 57, 0
2, 562080, Note_on_c, 0, 55, 60
2, 562560, Note_on_c, 0, 54, 58
2, 562568, Note_off_c, 0, 55, 0
2, 563014, Note_off_c, 0, 54, 0
2, 563040, Note_on_c, 0, 52, 54
2, 563280, Note_off_c, 0, 52, 0
2, 563520, Note_on_c, 0, 54, 68
2, 563760, Note_off_c, 0, 54, 0
2, 564000, Note_on_c, 0, 50, 59
2, 564960, Note_off_c, 0, 50, 0
2, 564960, Note_on_c, 0, 45, 48
2, 565823, Note_off_c, 0, 45, 0
2, 565920, Note_on_c, 0, 38, 56
2, 566783, Note_off_c, 0, 38, 0
2, 566880, Note_on_c, 0, 43, 127
2, 567360, Note_off_c, 0, 43, 0
2, 567360, Note_on_c, 0, 50, 106
2, 567840, Note_off_c, 0, 50, 0
2, 567840, Note_on_c, 0, 59, 106
2, 568800, Note_off_c, 0, 59, 0
2, 568800, Note_on_c, 0, 57, 96
2, 569280, Note_on_c, 0, 59, 101
2, 569288, Note_off_c, 0, 57, 0
2, 569520, Note_on_c, 0, 60, 99
2, 569524, Note_off_c, 0, 59, 0
2, 569745, Note_off_c, 0, 60, 0
2, 569760, Note_on_c, 0, 59, 102
2, 570240, Note_on_c, 0, 57, 92
2, 570248, Note_off_c, 0, 59, 0
2, 570694, Note_off_c, 0, 57, 0
2, 570720, Note_on_c, 0, 55, 93
2, 571200, Note_on_c, 0, 54, 94
2, 571208, Note_off_c, 0, 55, 0
2, 571654, Note_off_c, 0, 54, 0
2, 571680, Note_on_c, 0, 55, 103
2, 572160, Note_on_c, 0, 50, 96
2, 572168, Note_off_c, 0, 55, 0
2, 572614, Note_off_c, 0, 50, 0
2, 572640, Note_on_c, 0, 52, 118
2, 573120, Note_on_c, 0, 55, 104
2, 573128, Note_off_c, 0, 52, 0
2, 573574, Note_off_c, 0, 55, 0
2, 573600, Note_on_c, 0, 60, 112
2, 574080, Note_on_c, 0, 57, 97
2, 574088, Note_off_c, 0, 60, 0
2, 574534, Note_off_c, 0, 57, 0
2, 574560, Note_on_c, 0, 54, 97
2, 575040, Note_on_c, 0, 62, 117
2, 575048, Note_off_c, 0, 54, 0
2, 575494, Note_off_c, 0, 62, 0
2, 575520, Note_on_c, 0, 43, 100
2, 575520, Note_on_c, 0, 50, 100
2, 575520, Note_on_c, 0, 59, 100
2, 575633, Note_off_c, 0, 43, 0
2, 575633, Note_off_c, 0, 50, 0
2, 575633, Note_off_c, 0, 59, 0
2, 575659, Note_on_c, 0, 45, 100
2, 575659, Note_on_c, 0, 52, 100
2, 575659, Note_on_c, 0, 60, 100
2, 575768, Note_off_c, 0, 45, 0
2, 575768, Note_off_c, 0, 52, 0
2, 575768, Note_off_c, 0, 60, 0
2, 575794, Note_on_c, 0, 43, 100
2, 575794, Note_on_c, 0, 50, 100
2, 575794, Note_on_c, 0, 59, 100
2, 575899, Note_off_c, 0, 43, 0
2, 575899, Note_off_c, 0, 50, 0
2, 575899, Note_off_c, 0, 59, 0
2, 575925, Note_on_c, 0, 45, 100
2, 575925, Note_on_c, 0, 52, 100
2, 575925, Note_on_c, 0, 60, 100
2, 576030, Note_off_c, 0, 45, 0
2, 576030, Note_off_c, 0, 52, 0
2, 576030, Note_off_c, 0, 60, 0
2, 576053, Note_on_c, 0, 43, 100
2, 576053, Note_on_c, 0, 50, 100
2, 576053, Note_on_c, 0, 59, 100
2, 576154, Note_off_c, 0, 43, 0
2, 576154, Note_off_c, 0, 50, 0
2, 576154, Note_off_c, 0, 59, 0
2, 576176, Note_on_c, 0, 45, 100
2, 576176, Note_on_c, 0, 52, 100
2, 576176, Note_on_c, 0, 60, 100
2, 576274, Note_off_c, 0, 45, 0
2, 576274, Note_off_c, 0, 52, 0
2, 576274, Note_off_c, 0, 60, 0
2, 576296, Note_on_c, 0, 43, 100
2, 576296, Note_on_c, 0, 50, 100
2, 576296, Note_on_c, 0, 59, 100
2, 576390, Note_off_c, 0, 43, 0
2, 576390, Note_off_c, 0, 50, 0
2, 576390, Note_off_c, 0, 59, 0
2, 576413, Note_on_c, 0, 45, 100
2, 576413, Note_on_c, 0, 52, 100
2, 576413, Note_on_c, 0, 60, 100
2, 576503, Note_off_c, 0, 45, 0
2, 576503, Note_off_c, 0, 52, 0
2, 576503, Note_off_c, 0, 60, 0
2, 576529, Note_on_c, 0, 43, 100
2, 576529, Note_on_c, 0, 50, 100
2, 576529, Note_on_c, 0, 59, 100
2, 576619, Note_off_c, 0, 43, 0
2, 576619, Note_off_c, 0, 50, 0
2, 576619, Note_off_c, 0, 59, 0
2, 576649, Note_on_c, 0, 45, 100
2, 576649, Note_on_c, 0, 52, 100
2, 576649, Note_on_c, 0, 60, 100
2, 576743, Note_off_c, 0, 45, 0
2, 576743, Note_off_c, 0, 52, 0
2, 576743, Note_off_c, 0, 60, 0
2, 576773, Note_on_c, 0, 43, 100
2, 576773, Note_on_c, 0, 50, 100
2, 576773, Note_on_c, 0, 59, 100
2, 576870, Note_off_c, 0, 43, 0
2, 576870, Note_off_c, 0, 50, 0
2, 576870, Note_off_c, 0, 59, 0
2, 576900, Note_on_c, 0, 45, 100
2, 576900, Note_on_c, 0, 52, 100
2, 576900, Note_on_c, 0, 60, 100
2, 577001, Note_off_c, 0, 45, 0
2, 577001, Note_off_c, 0, 52, 0
2, 577001, Note_off_c, 0, 60, 0
2, 577031, Note_on_c, 0, 43, 100
2, 577031, Note_on_c, 0, 50, 100
2, 577031, Note_on_c, 0, 59, 100
2, 577136, Note_off_c, 0, 43, 0
2, 577136, Note_off_c, 0, 50, 0
2, 577136, Note_off_c, 0, 59, 0
2, 577166, Note_on_c, 0, 45, 100
2, 577166, Note_on_c, 0, 52, 100
2, 577166, Note_on_c, 0, 60, 100
2, 577271, Note_off_c, 0, 45, 0
2, 577271, Note_off_c, 0, 52, 0
2, 577271, Note_off_c, 0, 60, 0
2, 577290, Note_on_c, 0, 57, 93
2, 577361, Note_on_c, 0, 59, 93
2, 577440, Note_off_c, 0, 57, 0
2, 577440, Note_off_c, 0, 59, 0
2, 577440, Note_on_c, 0, 50, 99
2, 577440, Note_on_c, 0, 57, 99
2, 578400, Note_off_c, 0, 50, 0
2, 578400, Note_off_c, 0, 57, 0
2, 578400, Note_on_c, 0, 45, 66
2, 578880, Note_on_c, 0, 54, 68
2, 578888, Note_off_c, 0, 45, 0
2, 579334, Note_off_c, 0, 54, 0
2, 579360, Note_on_c, 0, 60, 71
2, 580320, Note_off_c, 0, 60, 0
2, 580320, Note_on_c, 0, 59, 65
2, 580800, Note_on_c, 0, 60, 66
2, 580808, Note_off_c, 0, 59, 0
2, 581040, Note_on_c, 0, 62, 69
2, 581044, Note_off_c, 0, 60, 0
2, 581265, Note_off_c, 0, 62, 0
2, 581280, Note_on_c, 0, 60, 54
2, 581760, Note_on_c, 0, 59, 57
2, 581768, Note_off_c, 0, 60, 0
2, 582214, Note_off_c, 0, 59, 0
2, 582240, Note_on_c, 0, 57, 58
2, 582720, Note_on_c, 0, 55, 60
2, 582728, Note_off_c, 0, 57, 0
2, 583174, Note_off_c, 0, 55, 0
2, 583200, Note_on_c, 0, 54, 58
2, 583680, Note_on_c, 0, 52, 59
2, 583688, Note_off_c, 0, 54, 0
2, 584134, Note_off_c, 0, 52, 0
2, 584160, Note_on_c, 0, 54, 74
2, 584640, Note_on_c, 0, 55, 65
2, 584648, Note_off_c, 0, 54, 0
2, 584880, Note_on_c, 0, 57, 62
2, 584884, Note_off_c, 0, 55, 0
2, 585105, Note_off_c, 0, 57, 0
2, 585120, Note_on_c, 0, 55, 60
2, 585600, Note_on_c, 0, 54, 59
2, 585608, Note_off_c, 0, 55, 0
2, 586054, Note_off_c, 0, 54, 0
2, 586080, Note_on_c, 0, 52, 61
2, 586320, Note_off_c, 0, 52, 0
2, 586560, Note_on_c, 0, 54, 62
2, 586800, Note_off_c, 0, 54, 0
2, 587040, Note_on_c, 0, 50, 59
2, 588000, Note_off_c, 0, 50, 0
2, 588000, Note_on_c, 0, 45, 55
2, 588863, Note_off_c, 0, 45, 0
2, 588960, Note_on_c, 0, 38, 54
2, 589823, Note_off_c, 0, 38, 0
2, 589920, Note_on_c, 0, 50, 112
2, 590400, Note_on_c, 0, 54, 107
2, 590408, Note_off_c, 0, 50, 0
2, 590854, Note_off_c, 0, 54, 0
2, 590880, Note_on_c, 0, 57, 105
2, 591840, Note_off_c, 0, 57, 0
2, 591840, Note_on_c, 0, 55, 92
2, 592320, Note_on_c, 0, 57, 103
2, 592328, Note_off_c, 0, 55, 0
2, 592545, Note_off_c, 0, 57, 0
2, 592560, Note_on_c, 0, 59, 98
2, 592800, Note_off_c, 0, 59, 0
2, 592800, Note_on_c, 0, 57, 97
2, 593280, Note_on_c, 0, 55, 97
2, 593288, Note_off_c, 0, 57, 0
2, 593734, Note_off_c, 0, 55, 0
2, 593760, Note_on_c, 0, 54, 96
2, 594240, Note_on_c, 0, 52, 93
2, 594248, Note_off_c, 0, 54, 0
2, 594694, Note_off_c, 0, 52, 0
2, 594720, Note_on_c, 0, 50, 95
2, 595200, Note_on_c, 0, 54, 105
2, 595208, Note_off_c, 0, 50, 0
2, 595654, Note_off_c, 0, 54, 0
2, 595680, Note_on_c, 0, 47, 110
2, 596160, Note_off_c, 0, 47, 0
2, 596160, Note_on_c, 0, 50, 98
2, 596640, Note_off_c, 0, 50, 0
2, 596640, Note_on_c, 0, 56, 108
2, 597120, Note_off_c, 0, 56, 0
2, 597120, Note_on_c, 0, 57, 101
2, 597600, Note_off_c, 0, 57, 0
2, 597600, Note_on_c, 0, 59, 101
2, 598080, Note_off_c, 0, 59, 0
2, 598080, Note_on_c, 0, 62, 104
2, 598560, Note_off_c, 0, 62, 0
2, 598560, Note_on_c, 0, 45, 92
2, 599040, Note_off_c, 0, 45, 0
2, 599040, Note_on_c, 0, 62, 125
2, 599520, Note_on_c, 0, 60, 100
2, 599528, Note_off_c, 0, 62, 0
2, 600000, Note_on_c, 0, 59, 89
2, 600008, Note_off_c, 0, 60, 0
2, 600360, Note_off_c, 0, 59, 0
2, 600480, Note_on_c, 0, 60, 103
2, 601440, Note_off_c, 0, 60, 0
2, 601440, Note_on_c, 0, 51, 59
2, 601920, Note_on_c, 0, 54, 58
2, 601928, Note_off_c, 0, 51, 0
2, 602400, Note_on_c, 0, 57, 61
2, 602408, Note_off_c, 0, 54, 0
2, 602854, Note_off_c, 0, 57, 0
2, 602880, Note_on_c, 0, 60, 69
2, 603360, Note_off_c, 0, 60, 0
2, 603360, Note_on_c, 0, 59, 65
2, 603840, Note_off_c, 0, 59, 0
2, 603840, Note_on_c, 0, 57, 58
2, 604320, Note_off_c, 0, 57, 0
2, 604320, Note_on_c, 0, 59, 62
2, 604800, Note_on_c, 0, 52, 56
2, 604808, Note_off_c, 0, 59, 0
2, 605280, Note_on_c, 0, 43, 54
2, 605288, Note_off_c, 0, 52, 0
2, 605734, Note_off_c, 0, 43, 0
2, 605760, Note_on_c, 0, 57, 70
2, 606240, Note_off_c, 0, 57, 0
2, 606240, Note_on_c, 0, 60, 69
2, 606720, Note_off_c, 0, 60, 0
2, 606720, Note_on_c, 0, 59, 63
2, 607200, Note_off_c, 0, 59, 0
2, 607200, Note_on_c, 0, 57, 58
2, 607680, Note_on_c, 0, 55, 61
2, 607688, Note_off_c, 0, 57, 0
2, 608160, Note_on_c, 0, 54, 60
2, 608168, Note_off_c, 0, 55, 0
2, 608614, Note_off_c, 0, 54, 0
2, 608640, Note_on_c, 0, 52, 61
2, 609120, Note_off_c, 0, 52, 0
2, 609120, Note_on_c, 0, 47, 56
2, 609600, Note_off_c, 0, 47, 0
2, 609600, Note_on_c, 0, 51, 66
2, 609960, Note_off_c, 0, 51, 0
2, 610080, Note_on_c, 0, 40, 53
2, 611520, Note_off_c, 0, 40, 0
2, 611520, Note_on_c, 0, 52, 50
2, 612000, Note_off_c, 0, 52, 0
2, 612000, Note_on_c, 0, 50, 44
2, 612480, Note_off_c, 0, 50, 0
2, 612480, Note_on_c, 0, 48, 41
2, 612960, Note_off_c, 0, 48, 0
2, 612960, Note_on_c, 0, 47, 45
2, 613440, Note_on_c, 0, 50, 44
2, 613448, Note_off_c, 0, 47, 0
2, 613894, Note_off_c, 0, 50, 0
2, 613920, Note_on_c, 0, 55, 39
2, 614783, Note_off_c, 0, 55, 0
2, 614880, Note_on_c, 0, 50, 37
2, 615319, Note_off_c, 0, 50, 0
2, 615360, Note_on_c, 0, 52, 44
2, 615600, Note_on_c, 0, 53, 45
2, 615604, Note_off_c, 0, 52, 0
2, 615825, Note_off_c, 0, 53, 0
2, 615840, Note_on_c, 0, 53, 46
2, 616320, Note_on_c, 0, 50, 40
2, 616328, Note_off_c, 0, 53, 0
2, 616800, Note_on_c, 0, 52, 45
2, 616808, Note_off_c, 0, 50, 0
2, 617254, Note_off_c, 0, 52, 0
2, 617280, Note_on_c, 0, 48, 36
2, 617760, Note_off_c, 0, 48, 0
2, 617760, Note_on_c, 0, 36, 36
2, 618240, Note_off_c, 0, 36, 0
2, 618240, Note_on_c, 0, 47, 49
2, 618720, Note_off_c, 0, 47, 0
2, 618720, Note_on_c, 0, 49, 74
2, 619200, Note_on_c, 0, 52, 73
2, 619208, Note_off_c, 0, 49, 0
2, 619654, Note_off_c, 0, 52, 0
2, 619680, Note_on_c, 0, 57, 73
2, 620543, Note_off_c, 0, 57, 0
2, 620640, Note_on_c, 0, 52, 61
2, 621079, Note_off_c, 0, 52, 0
2, 621120, Note_on_c, 0, 54, 74
2, 621360, Note_on_c, 0, 55, 74
2, 621364, Note_off_c, 0, 54, 0
2, 621585, Note_off_c, 0, 55, 0
2, 621600, Note_on_c, 0, 55, 70
2, 622080, Note_on_c, 0, 52, 68
2, 622088, Note_off_c, 0, 55, 0
2, 622560, Note_on_c, 0, 54, 70
2, 622568, Note_off_c, 0, 52, 0
2, 623014, Note_off_c, 0, 54, 0
2, 623040, Note_on_c, 0, 50, 65
2, 623520, Note_off_c, 0, 50, 0
2, 623520, Note_on_c, 0, 38, 60
2, 624000, Note_off_c, 0, 38, 0
2, 624000, Note_on_c, 0, 45, 75
2, 624480, Note_off_c, 0, 45, 0
2, 624480, Note_on_c, 0, 50, 90
2, 624960, Note_on_c, 0, 54, 90
2, 624968, Note_off_c, 0, 50, 0
2, 625440, Note_on_c, 0, 57, 85
2, 625448, Note_off_c, 0, 54, 0
2, 625894, Note_off_c, 0, 57, 0
2, 625920, Note_on_c, 0, 60, 95
2, 626400, Note_off_c, 0, 60, 0
2, 626400, Note_on_c, 0, 59, 85
2, 626880, Note_off_c, 0, 59, 0
2, 626880, Note_on_c, 0, 62, 91
2, 627360, Note_off_c, 0, 62, 0
2, 627360, Note_on_c, 0, 52, 90
2, 627840, Note_on_c, 0, 55, 100
2, 627848, Note_off_c, 0, 52, 0
2, 628320, Note_on_c, 0, 59, 106
2, 628328, Note_off_c, 0, 55, 0
2, 628774, Note_off_c, 0, 59, 0
2, 628800, Note_on_c, 0, 62, 108
2, 629280, Note_off_c, 0, 62, 0
2, 629280, Note_on_c, 0, 60, 92
2, 629760, Note_off_c, 0, 60, 0
2, 629760, Note_on_c, 0, 64, 107
2, 630240, Note_off_c, 0, 64, 0
2, 630240, Note_on_c, 0, 62, 94
2, 630720, Note_off_c, 0, 62, 0
2, 630720, Note_on_c, 0, 54, 87
2, 631200, Note_off_c, 0, 54, 0
2, 631200, Note_on_c, 0, 55, 97
2, 631680, Note_off_c, 0, 55, 0
2, 631680, Note_on_c, 0, 47, 84
2, 632160, Note_off_c, 0, 47, 0
2, 632160, Note_on_c, 0, 38, 80
2, 632640, Note_off_c, 0, 38, 0
2, 632640, Note_on_c, 0, 54, 98
2, 633120, Note_off_c, 0, 54, 0
2, 633120, Note_on_c, 0, 43, 87
2, 633120, Note_on_c, 0, 55, 87
2, 636000, Note_off_c, 0, 43, 0
2, 636000, Note_off_c, 0, 55, 0
2, 636000, Note_on_c, 0, 58, 94
2, 636480, Note_on_c, 0, 57, 83
2, 636488, Note_off_c, 0, 58, 0
2, 636960, Note_on_c, 0, 58, 84
2, 636968, Note_off_c, 0, 57, 0
2, 637414, Note_off_c, 0, 58, 0
2, 637440, Note_on_c, 0, 50, 89
2, 637680, Note_off_c, 0, 50, 0
2, 637920, Note_on_c, 0, 51, 94
2, 638160, Note_off_c, 0, 51, 0
2, 638400, Note_on_c, 0, 43, 83
2, 638640, Note_off_c, 0, 43, 0
2, 638880, Note_on_c, 0, 41, 83
2, 639840, Note_off_c, 0, 41, 0
2, 639840, Note_on_c, 0, 57, 90
2, 640703, Note_off_c, 0, 57, 0
2, 640800, Note_on_c, 0, 50, 74
2, 641663, Note_off_c, 0, 50, 0
2, 641760, Note_on_c, 0, 55, 96
2, 642240, Note_on_c, 0, 54, 79
2, 642248, Note_off_c, 0, 55, 0
2, 642720, Note_on_c, 0, 55, 84
2, 642728, Note_off_c, 0, 54, 0
2, 643174, Note_off_c, 0, 55, 0
2, 643200, Note_on_c, 0, 46, 78
2, 643680, Note_off_c, 0, 46, 0
2, 643680, Note_on_c, 0, 48, 85
2, 644160, Note_off_c, 0, 48, 0
2, 644160, Note_on_c, 0, 39, 68
2, 644640, Note_off_c, 0, 39, 0
2, 644640, Note_on_c, 0, 38, 83
2, 645120, Note_on_c, 0, 45, 91
2, 645128, Note_off_c, 0, 38, 0
2, 645600, Note_on_c, 0, 50, 93
2, 645608, Note_off_c, 0, 45, 0
2, 646054, Note_off_c, 0, 50, 0
2, 646080, Note_on_c, 0, 55, 91
2, 646560, Note_off_c, 0, 55, 0
2, 646560, Note_on_c, 0, 54, 82
2, 647040, Note_off_c, 0, 54, 0
2, 647040, Note_on_c, 0, 57, 86
2, 647520, Note_off_c, 0, 57, 0
2, 647520, Note_on_c, 0, 58, 96
2, 648000, Note_on_c, 0, 57, 81
2, 648008, Note_off_c, 0, 58, 0
2, 648480, Note_on_c, 0, 58, 82
2, 648488, Note_off_c, 0, 57, 0
2, 648934, Note_off_c, 0, 58, 0
2, 648960, Note_on_c, 0, 50, 84
2, 649200, Note_off_c, 0, 50, 0
2, 649440, Note_on_c, 0, 51, 95
2, 649680, Note_off_c, 0, 51, 0
2, 649920, Note_on_c, 0, 43, 81
2, 650160, Note_off_c, 0, 43, 0
2, 650400, Note_on_c, 0, 41, 76
2, 651360, Note_off_c, 0, 41, 0
2, 651360, Note_on_c, 0, 57, 86
2, 652223, Note_off_c, 0, 57, 0
2, 652320, Note_on_c, 0, 50, 74
2, 653183, Note_off_c, 0, 50, 0
2, 653280, Note_on_c, 0, 55, 91
2, 653760, Note_on_c, 0, 54, 83
2, 653768, Note_off_c, 0, 55, 0
2, 654240, Note_on_c, 0, 55, 88
2, 654248, Note_off_c, 0, 54, 0
2, 654694, Note_off_c, 0, 55, 0
2, 654720, Note_on_c, 0, 46, 74
2, 655200, Note_off_c, 0, 46, 0
2, 655200, Note_on_c, 0, 48, 82
2, 655680, Note_off_c, 0, 48, 0
2, 655680, Note_on_c, 0, 40, 73
2, 656160, Note_off_c, 0, 40, 0
2, 656160, Note_on_c, 0, 38, 79
2, 656640, Note_on_c, 0, 55, 99
2, 656648, Note_off_c, 0, 38, 0
2, 657094, Note_off_c, 0, 55, 0
2, 657120, Note_on_c, 0, 54, 81
2, 659040, Note_off_c, 0, 54, 0
2, 659040, Note_on_c, 0, 50, 96
2, 659520, Note_on_c, 0, 54, 99
2, 659528, Note_off_c, 0, 50, 0
2, 659974, Note_off_c, 0, 54, 0
2, 660000, Note_on_c, 0, 57, 101
2, 660960, Note_off_c, 0, 57, 0
2, 660960, Note_on_c, 0, 55, 95
2, 661440, Note_on_c, 0, 57, 100
2, 661448, Note_off_c, 0, 55, 0
2, 661665, Note_off_c, 0, 57, 0
2, 661680, Note_on_c, 0, 59, 100
2, 661920, Note_off_c, 0, 59, 0
2, 661920, Note_on_c, 0, 57, 100
2, 662400, Note_on_c, 0, 55, 94
2, 662408, Note_off_c, 0, 57, 0
2, 662854, Note_off_c, 0, 55, 0
2, 662880, Note_on_c, 0, 54, 93
2, 663360, Note_on_c, 0, 52, 93
2, 663368, Note_off_c, 0, 54, 0
2, 663814, Note_off_c, 0, 52, 0
2, 663840, Note_on_c, 0, 50, 94
2, 664320, Note_on_c, 0, 54, 101
2, 664328, Note_off_c, 0, 50, 0
2, 664774, Note_off_c, 0, 54, 0
2, 664800, Note_on_c, 0, 47, 108
2, 665280, Note_off_c, 0, 47, 0
2, 665280, Note_on_c, 0, 50, 102
2, 665760, Note_off_c, 0, 50, 0
2, 665760, Note_on_c, 0, 56, 107
2, 666240, Note_off_c, 0, 56, 0
2, 666240, Note_on_c, 0, 57, 99
2, 666720, Note_off_c, 0, 57, 0
2, 666720, Note_on_c, 0, 59, 98
2, 667200, Note_off_c, 0, 59, 0
2, 667200, Note_on_c, 0, 62, 107
2, 667680, Note_off_c, 0, 62, 0
2, 667680, Note_on_c, 0, 45, 87
2, 668160, Note_off_c, 0, 45, 0
2, 668160, Note_on_c, 0, 62, 125
2, 668640, Note_on_c, 0, 60, 91
2, 668648, Note_off_c, 0, 62, 0
2, 669120, Note_on_c, 0, 59, 97
2, 669128, Note_off_c, 0, 60, 0
2, 669480, Note_off_c, 0, 59, 0
2, 669600, Note_on_c, 0, 60, 101
2, 670560, Note_off_c, 0, 60, 0
2, 670560, Note_on_c, 0, 51, 61
2, 671040, Note_on_c, 0, 54, 60
2, 671048, Note_off_c, 0, 51, 0
2, 671520, Note_on_c, 0, 57, 60
2, 671528, Note_off_c, 0, 54, 0
2, 671974, Note_off_c, 0, 57, 0
2, 672000, Note_on_c, 0, 60, 71
2, 672480, Note_off_c, 0, 60, 0
2, 672480, Note_on_c, 0, 59, 61
2, 672960, Note_off_c, 0, 59, 0
2, 672960, Note_on_c, 0, 57, 60
2, 673440, Note_off_c, 0, 57, 0
2, 673440, Note_on_c, 0, 59, 61
2, 673920, Note_on_c, 0, 52, 57
2, 673928, Note_off_c, 0, 59, 0
2, 674400, Note_on_c, 0, 43, 55
2, 674408, Note_off_c, 0, 52, 0
2, 674854, Note_off_c, 0, 43, 0
2, 674880, Note_on_c, 0, 57, 67
2, 675360, Note_off_c, 0, 57, 0
2, 675360, Note_on_c, 0, 60, 68
2, 675840, Note_off_c, 0, 60, 0
2, 675840, Note_on_c, 0, 59, 58
2, 676320, Note_off_c, 0, 59, 0
2, 676320, Note_on_c, 0, 57, 59
2, 676800, Note_on_c, 0, 55, 60
2, 676808, Note_off_c, 0, 57, 0
2, 677280, Note_on_c, 0, 54, 60
2, 677288, Note_off_c, 0, 55, 0
2, 677734, Note_off_c, 0, 54, 0
2, 677760, Note_on_c, 0, 52, 61
2, 678240, Note_off_c, 0, 52, 0
2, 678240, Note_on_c, 0, 47, 56
2, 678720, Note_off_c, 0, 47, 0
2, 678720, Note_on_c, 0, 51, 65
2, 678960, Note_off_c, 0, 51, 0
2, 679200, Note_on_c, 0, 40, 47
2, 680640, Note_off_c, 0, 40, 0
2, 680640, Note_on_c, 0, 52, 50
2, 681120, Note_off_c, 0, 52, 0
2, 681120, Note_on_c, 0, 50, 43
2, 681600, Note_off_c, 0, 50, 0
2, 681600, Note_on_c, 0, 48, 41
2, 682080, Note_off_c, 0, 48, 0
2, 682080, Note_on_c, 0, 47, 40
2, 682560, Note_on_c, 0, 50, 48
2, 682568, Note_off_c, 0, 47, 0
2, 683014, Note_off_c, 0, 50, 0
2, 683040, Note_on_c, 0, 55, 48
2, 683903, Note_off_c, 0, 55, 0
2, 684000, Note_on_c, 0, 50, 42
2, 684439, Note_off_c, 0, 50, 0
2, 684480, Note_on_c, 0, 52, 39
2, 684720, Note_on_c, 0, 53, 44
2, 684724, Note_off_c, 0, 52, 0
2, 684945, Note_off_c, 0, 53, 0
2, 684960, Note_on_c, 0, 53, 45
2, 685440, Note_on_c, 0, 50, 42
2, 685448, Note_off_c, 0, 53, 0
2, 685920, Note_on_c, 0, 52, 47
2, 685928, Note_off_c, 0, 50, 0
2, 686374, Note_off_c, 0, 52, 0
2, 686400, Note_on_c, 0, 48, 38
2, 686880, Note_off_c, 0, 48, 0
2, 686880, Note_on_c, 0, 36, 40
2, 687360, Note_off_c, 0, 36, 0
2, 687360, Note_on_c, 0, 47, 47
2, 687840, Note_off_c, 0, 47, 0
2, 687840, Note_on_c, 0, 49, 74
2, 688320, Note_on_c, 0, 52, 72
2, 688328, Note_off_c, 0, 49, 0
2, 688774, Note_off_c, 0, 52, 0
2, 688800, Note_on_c, 0, 57, 76
2, 689663, Note_off_c, 0, 57, 0
2, 689760, Note_on_c, 0, 52, 58
2, 690199, Note_off_c, 0, 52, 0
2, 690240, Note_on_c, 0, 54, 74
2, 690480, Note_on_c, 0, 55, 78
2, 690484, Note_off_c, 0, 54, 0
2, 690705, Note_off_c, 0, 55, 0
2, 690720, Note_on_c, 0, 55, 70
2, 691200, Note_on_c, 0, 52, 66
2, 691208, Note_off_c, 0, 55, 0
2, 691680, Note_on_c, 0, 54, 74
2, 691688, Note_off_c, 0, 52, 0
2, 692134, Note_off_c, 0, 54, 0
2, 692160, Note_on_c, 0, 50, 68
2, 692640, Note_off_c, 0, 50, 0
2, 692640, Note_on_c, 0, 38, 60
2, 693120, Note_off_c, 0, 38, 0
2, 693120, Note_on_c, 0, 45, 78
2, 693600, Note_off_c, 0, 45, 0
2, 693600, Note_on_c, 0, 50, 89
2, 694080, Note_on_c, 0, 54, 90
2, 694088, Note_off_c, 0, 50, 0
2, 694560, Note_on_c, 0, 57, 87
2, 694568, Note_off_c, 0, 54, 0
2, 695014, Note_off_c, 0, 57, 0
2, 695040, Note_on_c, 0, 60, 90
2, 695520, Note_off_c, 0, 60, 0
2, 695520, Note_on_c, 0, 59, 83
2, 696000, Note_off_c, 0, 59, 0
2, 696000, Note_on_c, 0, 62, 92
2, 696480, Note_off_c, 0, 62, 0
2, 696480, Note_on_c, 0, 52, 87
2, 696960, Note_on_c, 0, 55, 100
2, 696968, Note_off_c, 0, 52, 0
2, 697440, Note_on_c, 0, 59, 101
2, 697448, Note_off_c, 0, 55, 0
2, 697894, Note_off_c, 0, 59, 0
2, 697920, Note_on_c, 0, 62, 108
2, 698400, Note_off_c, 0, 62, 0
2, 698400, Note_on_c, 0, 60, 92
2, 698880, Note_off_c, 0, 60, 0
2, 698880, Note_on_c, 0, 64, 109
2, 699360, Note_off_c, 0, 64, 0
2, 699360, Note_on_c, 0, 62, 97
2, 699840, Note_off_c, 0, 62, 0
2, 699840, Note_on_c, 0, 54, 87
2, 700320, Note_off_c, 0, 54, 0
2, 700320, Note_on_c, 0, 55, 94
2, 700800, Note_off_c, 0, 55, 0
2, 700800, Note_on_c, 0, 47, 85
2, 701280, Note_off_c, 0, 47, 0
2, 701280, Note_on_c, 0, 38, 75
2, 701760, Note_off_c, 0, 38, 0
2, 701760, Note_on_c, 0, 54, 104
2, 702240, Note_off_c, 0, 54, 0
2, 702240, Note_on_c, 0, 43, 89
2, 702240, Note_on_c, 0, 55, 89
2, 705120, Note_off_c, 0, 43, 0
2, 705120, Note_off_c, 0, 55, 0
2, 705120, Note_on_c, 0, 58, 96
2, 705600, Note_on_c, 0, 57, 81
2, 705608, Note_off_c, 0, 58, 0
2, 706080, Note_on_c, 0, 58, 87
2, 706088, Note_off_c, 0, 57, 0
2, 706534, Note_off_c, 0, 58, 0
2, 706560, Note_on_c, 0, 50, 83
2, 706800, Note_off_c, 0, 50, 0
2, 707040, Note_on_c, 0, 51, 93
2, 707280, Note_off_c, 0, 51, 0
2, 707520, Note_on_c, 0, 43, 84
2, 707760, Note_off_c, 0, 43, 0
2, 708000, Note_on_c, 0, 41, 83
2, 708960, Note_off_c, 0, 41, 0
2, 708960, Note_on_c, 0, 57, 89
2, 709823, Note_off_c, 0, 57, 0
2, 709920, Note_on_c, 0, 50, 74
2, 710783, Note_off_c, 0, 50, 0
2, 710880, Note_on_c, 0, 55, 95
2, 711360, Note_on_c, 0, 54, 81
2, 711368, Note_off_c, 0, 55, 0
2, 711840, Note_on_c, 0, 55, 83
2, 711848, Note_off_c, 0, 54, 0
2, 712294, Note_off_c, 0, 55, 0
2, 712320, Note_on_c, 0, 46, 75
2, 712800, Note_off_c, 0, 46, 0
2, 712800, Note_on_c, 0, 48, 86
2, 713280, Note_off_c, 0, 48, 0
2, 713280, Note_on_c, 0, 39, 75
2, 713760, Note_off_c, 0, 39, 0
2, 713760, Note_on_c, 0, 38, 85
2, 714240, Note_on_c, 0, 45, 89
2, 714248, Note_off_c, 0, 38, 0
2, 714720, Note_on_c, 0, 50, 92
2, 714728, Note_off_c, 0, 45, 0
2, 715174, Note_off_c, 0, 50, 0
2, 715200, Note_on_c, 0, 55, 90
2, 715680, Note_off_c, 0, 55, 0
2, 715680, Note_on_c, 0, 54, 84
2, 716160, Note_off_c, 0, 54, 0
2, 716160, Note_on_c, 0, 57, 88
2, 716640, Note_off_c, 0, 57, 0
2, 716640, Note_on_c, 0, 58, 91
2, 717120, Note_on_c, 0, 57, 84
2, 717128, Note_off_c, 0, 58, 0
2, 717600, Note_on_c, 0, 58, 83
2, 717608, Note_off_c, 0, 57, 0
2, 718054, Note_off_c, 0, 58, 0
2, 718080, Note_on_c, 0, 50, 86
2, 718320, Note_off_c, 0, 50, 0
2, 718560, Note_on_c, 0, 51, 96
2, 718800, Note_off_c, 0, 51, 0
2, 719040, Note_on_c, 0, 43, 86
2, 719280, Note_off_c, 0, 43, 0
2, 719520, Note_on_c, 0, 41, 79
2, 720480, Note_off_c, 0, 41, 0
2, 720480, Note_on_c, 0, 57, 91
2, 721343, Note_off_c, 0, 57, 0
2, 721440, Note_on_c, 0, 50, 73
2, 722303, Note_off_c, 0, 50, 0
2, 722400, Note_on_c, 0, 55, 86
2, 722880, Note_on_c, 0, 54, 84
2, 722888, Note_off_c, 0, 55, 0
2, 723360, Note_on_c, 0, 55, 84
2, 723368, Note_off_c, 0, 54, 0
2, 723814, Note_off_c, 0, 55, 0
2, 723840, Note_on_c, 0, 46, 76
2, 724320, Note_off_c, 0, 46, 0
2, 724320, Note_on_c, 0, 48, 84
2, 724800, Note_off_c, 0, 48, 0
2, 724800, Note_on_c, 0, 40, 72
2, 725280, Note_off_c, 0, 40, 0
2, 725280, Note_on_c, 0, 38, 79
2, 725760, Note_on_c, 0, 55, 99
2, 725768, Note_off_c, 0, 38, 0
2, 726214, Note_off_c, 0, 55, 0
2, 726240, Note_on_c, 0, 54, 89
2, 728160, Note_off_c, 0, 54, 0
2, 728160, Note_on_c, 0, 50, 81
2, 728640, Note_on_c, 0, 54, 93
2, 728648, Note_off_c, 0, 50, 0
2, 729120, Note_on_c, 0, 57, 86
2, 729128, Note_off_c, 0, 54, 0
2, 729574, Note_off_c, 0, 57, 0
2, 729600, Note_on_c, 0, 60, 95
2, 730080, Note_off_c, 0, 60, 0
2, 730080, Note_on_c, 0, 63, 93
2, 730560, Note_off_c, 0, 63, 0
2, 730560, Note_on_c, 0, 62, 78
2, 731040, Note_off_c, 0, 62, 0
2, 731040, Note_on_c, 0, 60, 75
2, 731520, Note_on_c, 0, 58, 81
2, 731528, Note_off_c, 0, 60, 0
2, 732000, Note_on_c, 0, 57, 81
2, 732008, Note_off_c, 0, 58, 0
2, 732480, Note_on_c, 0, 58, 74
2, 732488, Note_off_c, 0, 57, 0
2, 732934, Note_off_c, 0, 58, 0
2, 732960, Note_on_c, 0, 55, 70
2, 733920, Note_off_c, 0, 55, 0
2, 733920, Note_on_c, 0, 48, 68
2, 734400, Note_on_c, 0, 52, 70
2, 734408, Note_off_c, 0, 48, 0
2, 734880, Note_on_c, 0, 55, 71
2, 734888, Note_off_c, 0, 52, 0
2, 735334, Note_off_c, 0, 55, 0
2, 735360, Note_on_c, 0, 58, 73
2, 735840, Note_off_c, 0, 58, 0
2, 735840, Note_on_c, 0, 62, 82
2, 736320, Note_off_c, 0, 62, 0
2, 736320, Note_on_c, 0, 60, 67
2, 736800, Note_off_c, 0, 60, 0
2, 736800, Note_on_c, 0, 58, 67
2, 737280, Note_on_c, 0, 57, 68
2, 737288, Note_off_c, 0, 58, 0
2, 737760, Note_on_c, 0, 55, 67
2, 737768, Note_off_c, 0, 57, 0
2, 738214, Note_off_c, 0, 55, 0
2, 738240, Note_on_c, 0, 57, 74
2, 738720, Note_off_c, 0, 57, 0
2, 738720, Note_on_c, 0, 53, 67
2, 739200, Note_off_c, 0, 53, 0
2, 739200, Note_on_c, 0, 51, 64
2, 739680, Note_off_c, 0, 51, 0
2, 739680, Note_on_c, 0, 50, 71
2, 740160, Note_off_c, 0, 50, 0
2, 740160, Note_on_c, 0, 53, 73
2, 740640, Note_off_c, 0, 53, 0
2, 740640, Note_on_c, 0, 58, 78
2, 741120, Note_on_c, 0, 57, 73
2, 741128, Note_off_c, 0, 58, 0
2, 741600, Note_on_c, 0, 58, 73
2, 741608, Note_off_c, 0, 57, 0
2, 742054, Note_off_c, 0, 58, 0
2, 742080, Note_on_c, 0, 50, 62
2, 742560, Note_off_c, 0, 50, 0
2, 742560, Note_on_c, 0, 51, 66
2, 743040, Note_off_c, 0, 51, 0
2, 743040, Note_on_c, 0, 55, 72
2, 743520, Note_off_c, 0, 55, 0
2, 743520, Note_on_c, 0, 58, 72
2, 744000, Note_on_c, 0, 57, 66
2, 744008, Note_off_c, 0, 58, 0
2, 744480, Note_on_c, 0, 58, 78
2, 744488, Note_off_c, 0, 57, 0
2, 744934, Note_off_c, 0, 58, 0
2, 744960, Note_on_c, 0, 62, 79
2, 745440, Note_off_c, 0, 62, 0
2, 745440, Note_on_c, 0, 60, 64
2, 745920, Note_off_c, 0, 60, 0
2, 745920, Note_on_c, 0, 63, 79
2, 746400, Note_off_c, 0, 63, 0
2, 746400, Note_on_c, 0, 62, 67
2, 746880, Note_off_c, 0, 62, 0
2, 746880, Note_on_c, 0, 58, 64
2, 747360, Note_off_c, 0, 58, 0
2, 747360, Note_on_c, 0, 53, 64
2, 747840, Note_off_c, 0, 53, 0
2, 747840, Note_on_c, 0, 57, 74
2, 748320, Note_off_c, 0, 57, 0
2, 748320, Note_on_c, 0, 58, 74
2, 748800, Note_off_c, 0, 58, 0
2, 748800, Note_on_c, 0, 53, 63
2, 749280, Note_off_c, 0, 53, 0
2, 749280, Note_on_c, 0, 50, 71
2, 749760, Note_off_c, 0, 50, 0
2, 749760, Note_on_c, 0, 53, 75
2, 750240, Note_off_c, 0, 53, 0
2, 750240, Note_on_c, 0, 46, 61
2, 751200, Note_off_c, 0, 46, 0
2, 751200, Note_on_c, 0, 47, 75
2, 751680, Note_on_c, 0, 50, 71
2, 751688, Note_off_c, 0, 47, 0
2, 752160, Note_on_c, 0, 53, 72
2, 752168, Note_off_c, 0, 50, 0
2, 752614, Note_off_c, 0, 53, 0
2, 752640, Note_on_c, 0, 56, 74
2, 753120, Note_off_c, 0, 56, 0
2, 753120, Note_on_c, 0, 55, 70
2, 753600, Note_off_c, 0, 55, 0
2, 753600, Note_on_c, 0, 53, 70
2, 754080, Note_off_c, 0, 53, 0
2, 754080, Note_on_c, 0, 51, 75
2, 754560, Note_on_c, 0, 55, 72
2, 754575, Note_off_c, 0, 51, 0
2, 755021, Note_off_c, 0, 55, 0
2, 755040, Note_on_c, 0, 60, 88
2, 755520, Note_on_c, 0, 62, 78
2, 755535, Note_off_c, 0, 60, 0
2, 755948, Note_off_c, 0, 62, 0
2, 756000, Note_on_c, 0, 63, 72
2, 756863, Note_off_c, 0, 63, 0
2, 756960, Note_on_c, 0, 45, 64
2, 757440, Note_on_c, 0, 48, 74
2, 757448, Note_off_c, 0, 45, 0
2, 757920, Note_on_c, 0, 51, 79
2, 757928, Note_off_c, 0, 48, 0
2, 758374, Note_off_c, 0, 51, 0
2, 758400, Note_on_c, 0, 55, 74
2, 758880, Note_off_c, 0, 55, 0
2, 758880, Note_on_c, 0, 53, 72
2, 759360, Note_off_c, 0, 53, 0
2, 759360, Note_on_c, 0, 51, 68
2, 759840, Note_off_c, 0, 51, 0
2, 759840, Note_on_c, 0, 50, 77
2, 760320, Note_on_c, 0, 53, 82
2, 760335, Note_off_c, 0, 50, 0
2, 760781, Note_off_c, 0, 53, 0
2, 760800, Note_on_c, 0, 58, 78
2, 761280, Note_on_c, 0, 60, 77
2, 761295, Note_off_c, 0, 58, 0
2, 761708, Note_off_c, 0, 60, 0
2, 761760, Note_on_c, 0, 62, 72
2, 762623, Note_off_c, 0, 62, 0
2, 762720, Note_on_c, 0, 42, 65
2, 763200, Note_on_c, 0, 45, 77
2, 763208, Note_off_c, 0, 42, 0
2, 763680, Note_on_c, 0, 48, 74
2, 763688, Note_off_c, 0, 45, 0
2, 764134, Note_off_c, 0, 48, 0
2, 764160, Note_on_c, 0, 51, 75
2, 764640, Note_off_c, 0, 51, 0
2, 764640, Note_on_c, 0, 50, 70
2, 765120, Note_off_c, 0, 50, 0
2, 765120, Note_on_c, 0, 48, 67
2, 765600, Note_off_c, 0, 48, 0
2, 765600, Note_on_c, 0, 46, 69
2, 766080, Note_on_c, 0, 50, 79
2, 766088, Note_off_c, 0, 46, 0
2, 766560, Note_on_c, 0, 55, 76
2, 766568, Note_off_c, 0, 50, 0
2, 767014, Note_off_c, 0, 55, 0
2, 767040, Note_on_c, 0, 57, 78
2, 767520, Note_off_c, 0, 57, 0
2, 767520, Note_on_c, 0, 58, 74
2, 768000, Note_off_c, 0, 58, 0
2, 768000, Note_on_c, 0, 55, 66
2, 768480, Note_off_c, 0, 55, 0
2, 768480, Note_on_c, 0, 48, 70
2, 768960, Note_off_c, 0, 48, 0
2, 768960, Note_on_c, 0, 58, 82
2, 769440, Note_on_c, 0, 57, 74
2, 769448, Note_off_c, 0, 58, 0
2, 769920, Note_on_c, 0, 55, 66
2, 769928, Note_off_c, 0, 57, 0
2, 770374, Note_off_c, 0, 55, 0
2, 770400, Note_on_c, 0, 50, 65
2, 770880, Note_off_c, 0, 50, 0
2, 770880, Note_on_c, 0, 54, 75
2, 771360, Note_off_c, 0, 54, 0
2, 771360, Note_on_c, 0, 43, 64
2, 774240, Note_off_c, 0, 43, 0
2, 778080, Note_on_c, 0, 50, 79
2, 778560, Note_off_c, 0, 50, 0
2, 778560, Note_on_c, 0, 55, 75
2, 779040, Note_on_c, 0, 50, 65
2, 779048, Note_off_c, 0, 55, 0
2, 779520, Note_on_c, 0, 52, 71
2, 779528, Note_off_c, 0, 50, 0
2, 779974, Note_off_c, 0, 52, 0
2, 780000, Note_on_c, 0, 52, 74
2, 780480, Note_on_c, 0, 48, 69
2, 780488, Note_off_c, 0, 52, 0
2, 780960, Note_on_c, 0, 50, 74
2, 780968, Note_off_c, 0, 48, 0
2, 781414, Note_off_c, 0, 50, 0
2, 781440, Note_on_c, 0, 50, 66
2, 781680, Note_off_c, 0, 50, 0
2, 781920, Note_on_c, 0, 55, 67
2, 782160, Note_off_c, 0, 55, 0
2, 782400, Note_on_c, 0, 50, 60
2, 782640, Note_off_c, 0, 50, 0
2, 782880, Note_on_c, 0, 47, 59
2, 783360, Note_off_c, 0, 47, 0
2, 783360, Note_on_c, 0, 43, 56
2, 783840, Note_off_c, 0, 43, 0
2, 783840, Note_on_c, 0, 50, 66
2, 784320, Note_off_c, 0, 50, 0
2, 784320, Note_on_c, 0, 55, 66
2, 784560, Note_on_c, 0, 57, 62
2, 784564, Note_off_c, 0, 55, 0
2, 784800, Note_on_c, 0, 59, 61
2, 784804, Note_off_c, 0, 57, 0
2, 785254, Note_off_c, 0, 59, 0
2, 785280, Note_on_c, 0, 57, 63
2, 785760, Note_off_c, 0, 57, 0
2, 785760, Note_on_c, 0, 57, 67
2, 786000, Note_on_c, 0, 59, 69
2, 786004, Note_off_c, 0, 57, 0
2, 786240, Note_on_c, 0, 60, 74
2, 786244, Note_off_c, 0, 59, 0
2, 786694, Note_off_c, 0, 60, 0
2, 786720, Note_on_c, 0, 59, 72
2, 787200, Note_off_c, 0, 59, 0
2, 787200, Note_on_c, 0, 43, 72
2, 787200, Note_on_c, 0, 50, 72
2, 787200, Note_on_c, 0, 59, 72
2, 787335, Note_off_c, 0, 43, 0
2, 787335, Note_off_c, 0, 50, 0
2, 787335, Note_off_c, 0, 59, 0
2, 787365, Note_on_c, 0, 45, 72
2, 787365, Note_on_c, 0, 52, 72
2, 787365, Note_on_c, 0, 60, 72
2, 787496, Note_off_c, 0, 45, 0
2, 787496, Note_off_c, 0, 52, 0
2, 787496, Note_off_c, 0, 60, 0
2, 787523, Note_on_c, 0, 43, 72
2, 787523, Note_on_c, 0, 50, 72
2, 787523, Note_on_c, 0, 59, 72
2, 787646, Note_off_c, 0, 43, 0
2, 787646, Note_off_c, 0, 50, 0
2, 787646, Note_off_c, 0, 59, 0
2, 787673, Note_on_c, 0, 45, 72
2, 787673, Note_on_c, 0, 52, 72
2, 787673, Note_on_c, 0, 60, 72
2, 787793, Note_off_c, 0, 45, 0
2, 787793, Note_off_c, 0, 52, 0
2, 787793, Note_off_c, 0, 60, 0
2, 787819, Note_on_c, 0, 43, 72
2, 787819, Note_on_c, 0, 50, 72
2, 787819, Note_on_c, 0, 59, 72
2, 787935, Note_off_c, 0, 43, 0
2, 787935, Note_off_c, 0, 50, 0
2, 787935, Note_off_c, 0, 59, 0
2, 787958, Note_on_c, 0, 45, 72
2, 787958, Note_on_c, 0, 52, 72
2, 787958, Note_on_c, 0, 60, 72
2, 788066, Note_off_c, 0, 45, 0
2, 788066, Note_off_c, 0, 52, 0
2, 788066, Note_off_c, 0, 60, 0
2, 788104, Note_on_c, 0, 43, 72
2, 788104, Note_on_c, 0, 50, 72
2, 788104, Note_on_c, 0, 59, 72
2, 788220, Note_off_c, 0, 43, 0
2, 788220, Note_off_c, 0, 50, 0
2, 788220, Note_off_c, 0, 59, 0
2, 788258, Note_on_c, 0, 45, 72
2, 788258, Note_on_c, 0, 52, 72
2, 788258, Note_on_c, 0, 60, 72
2, 788378, Note_off_c, 0, 45, 0
2, 788378, Note_off_c, 0, 52, 0
2, 788378, Note_off_c, 0, 60, 0
2, 788419, Note_on_c, 0, 43, 72
2, 788419, Note_on_c, 0, 50, 72
2, 788419, Note_on_c, 0, 59, 72
2, 788546, Note_off_c, 0, 43, 0
2, 788546, Note_off_c, 0, 50, 0
2, 788546, Note_off_c, 0, 59, 0
2, 788588, Note_on_c, 0, 45, 72
2, 788588, Note_on_c, 0, 52, 72
2, 788588, Note_on_c, 0, 60, 72
2, 788636, Note_off_c, 0, 45, 0
2, 788636, Note_off_c, 0, 52, 0
2, 788636, Note_off_c, 0, 60, 0
2, 788640, Note_on_c, 0, 50, 70
2, 788640, Note_on_c, 0, 57, 70
2, 789600, Note_off_c, 0, 50, 0
2, 789600, Note_off_c, 0, 57, 0
2, 789600, Note_on_c, 0, 57, 72
2, 790080, Note_off_c, 0, 57, 0
2, 790080, Note_on_c, 0, 59, 71
2, 790560, Note_on_c, 0, 54, 67
2, 790568, Note_off_c, 0, 59, 0
2, 791040, Note_on_c, 0, 55, 71
2, 791048, Note_off_c, 0, 54, 0
2, 791494, Note_off_c, 0, 55, 0
2, 791520, Note_on_c, 0, 55, 73
2, 792000, Note_on_c, 0, 52, 73
2, 792008, Note_off_c, 0, 55, 0
2, 792480, Note_on_c, 0, 55, 70
2, 792488, Note_off_c, 0, 52, 0
2, 792934, Note_off_c, 0, 55, 0
2, 792960, Note_on_c, 0, 57, 73
2, 793440, Note_on_c, 0, 52, 64
2, 793448, Note_off_c, 0, 57, 0
2, 793920, Note_on_c, 0, 54, 66
2, 793928, Note_off_c, 0, 52, 0
2, 794374, Note_off_c, 0, 54, 0
2, 794400, Note_on_c, 0, 54, 71
2, 794880, Note_on_c, 0, 50, 69
2, 794888, Note_off_c, 0, 54, 0
2, 795360, Note_on_c, 0, 54, 78
2, 795368, Note_off_c, 0, 50, 0
2, 795814, Note_off_c, 0, 54, 0
2, 795840, Note_on_c, 0, 55, 68
2, 796080, Note_off_c, 0, 55, 0
2, 796320, Note_on_c, 0, 59, 75
2, 796560, Note_off_c, 0, 59, 0
2, 796800, Note_on_c, 0, 55, 73
2, 797040, Note_off_c, 0, 55, 0
2, 797280, Note_on_c, 0, 52, 65
2, 797760, Note_off_c, 0, 52, 0
2, 797760, Note_on_c, 0, 47, 70
2, 798240, Note_off_c, 0, 47, 0
2, 798240, Note_on_c, 0, 50, 71
2, 798720, Note_off_c, 0, 50, 0
2, 798720, Note_on_c, 0, 49, 68
2, 799200, Note_on_c, 0, 52, 78
2, 799208, Note_off_c, 0, 49, 0
2, 799680, Note_on_c, 0, 57, 80
2, 799688, Note_off_c, 0, 52, 0
2, 800134, Note_off_c, 0, 57, 0
2, 800160, Note_on_c, 0, 45, 66
2, 801120, Note_off_c, 0, 45, 0
2, 801120, Note_on_c, 0, 52, 69
2, 801600, Note_off_c, 0, 52, 0
2, 801600, Note_on_c, 0, 53, 65
2, 802080, Note_on_c, 0, 52, 63
2, 802088, Note_off_c, 0, 53, 0
2, 802560, Note_on_c, 0, 55, 60
2, 802568, Note_off_c, 0, 52, 0
2, 803014, Note_off_c, 0, 55, 0
2, 803040, Note_on_c, 0, 55, 65
2, 803520, Note_on_c, 0, 53, 63
2, 803528, Note_off_c, 0, 55, 0
2, 804000, Note_on_c, 0, 57, 60
2, 804008, Note_off_c, 0, 53, 0
2, 804454, Note_off_c, 0, 57, 0
2, 804480, Note_on_c, 0, 57, 60
2, 804960, Note_on_c, 0, 55, 62
2, 804968, Note_off_c, 0, 57, 0
2, 805440, Note_on_c, 0, 58, 57
2, 805448, Note_off_c, 0, 55, 0
2, 805894, Note_off_c, 0, 58, 0
2, 805920, Note_on_c, 0, 58, 59
2, 806400, Note_on_c, 0, 57, 56
2, 806408, Note_off_c, 0, 58, 0
2, 806880, Note_on_c, 0, 55, 55
2, 806888, Note_off_c, 0, 57, 0
2, 807334, Note_off_c, 0, 55, 0
2, 807360, Note_on_c, 0, 53, 55
2, 807840, Note_on_c, 0, 52, 59
2, 807848, Note_off_c, 0, 53, 0
2, 808320, Note_on_c, 0, 50, 53
2, 808328, Note_off_c, 0, 52, 0
2, 808774, Note_off_c, 0, 50, 0
2, 808800, Note_on_c, 0, 45, 55
2, 809280, Note_on_c, 0, 50, 64
2, 809288, Note_off_c, 0, 45, 0
2, 809760, Note_on_c, 0, 49, 58
2, 809768, Note_off_c, 0, 50, 0
2, 810214, Note_off_c, 0, 49, 0
2, 810240, Note_on_c, 0, 50, 65
2, 810720, Note_off_c, 0, 50, 0
2, 810720, Note_on_c, 0, 45, 54
2, 811200, Note_off_c, 0, 45, 0
2, 811200, Note_on_c, 0, 42, 61
2, 811680, Note_off_c, 0, 42, 0
2, 811680, Note_on_c, 0, 38, 55
2, 812640, Note_off_c, 0, 38, 0
2, 812640, Note_on_c, 0, 50, 73
2, 813120, Note_off_c, 0, 50, 0
2, 813120, Note_on_c, 0, 55, 66
2, 813600, Note_on_c, 0, 50, 62
2, 813608, Note_off_c, 0, 55, 0
2, 814080, Note_on_c, 0, 52, 62
2, 814088, Note_off_c, 0, 50, 0
2, 814534, Note_off_c, 0, 52, 0
2, 814560, Note_on_c, 0, 52, 63
2, 815040, Note_on_c, 0, 48, 54
2, 815048, Note_off_c, 0, 52, 0
2, 815520, Note_on_c, 0, 50, 63
2, 815528, Note_off_c, 0, 48, 0
2, 815974, Note_off_c, 0, 50, 0
2, 816000, Note_on_c, 0, 50, 65
2, 816240, Note_off_c, 0, 50, 0
2, 816480, Note_on_c, 0, 55, 64
2, 816720, Note_off_c, 0, 55, 0
2, 816960, Note_on_c, 0, 50, 55
2, 817200, Note_off_c, 0, 50, 0
2, 817440, Note_on_c, 0, 47, 57
2, 817920, Note_off_c, 0, 47, 0
2, 817920, Note_on_c, 0, 43, 52
2, 818400, Note_off_c, 0, 43, 0
2, 818400, Note_on_c, 0, 50, 65
2, 818880, Note_off_c, 0, 50, 0
2, 818880, Note_on_c, 0, 55, 65
2, 819120, Note_on_c, 0, 57, 68
2, 819124, Note_off_c, 0, 55, 0
2, 819360, Note_on_c, 0, 59, 70
2, 819364, Note_off_c, 0, 57, 0
2, 819814, Note_off_c, 0, 59, 0
2, 819840, Note_on_c, 0, 57, 66
2, 820320, Note_off_c, 0, 57, 0
2, 820320, Note_on_c, 0, 57, 68
2, 820560, Note_on_c, 0, 59, 73
2, 820564, Note_off_c, 0, 57, 0
2, 820800, Note_on_c, 0, 60, 67
2, 820804, Note_off_c, 0, 59, 0
2, 821254, Note_off_c, 0, 60, 0
2, 821280, Note_on_c, 0, 59, 70
2, 821760, Note_off_c, 0, 59, 0
2, 821760, Note_on_c, 0, 43, 70
2, 821760, Note_on_c, 0, 50, 70
2, 821760, Note_on_c, 0, 59, 70
2, 821895, Note_off_c, 0, 43, 0
2, 821895, Note_off_c, 0, 50, 0
2, 821895, Note_off_c, 0, 59, 0
2, 821925, Note_on_c, 0, 45, 70
2, 821925, Note_on_c, 0, 52, 70
2, 821925, Note_on_c, 0, 60, 70
2, 822056, Note_off_c, 0, 45, 0
2, 822056, Note_off_c, 0, 52, 0
2, 822056, Note_off_c, 0, 60, 0
2, 822083, Note_on_c, 0, 43, 70
2, 822083, Note_on_c, 0, 50, 70
2, 822083, Note_on_c, 0, 59, 70
2, 822206, Note_off_c, 0, 43, 0
2, 822206, Note_off_c, 0, 50, 0
2, 822206, Note_off_c, 0, 59, 0
2, 822233, Note_on_c, 0, 45, 70
2, 822233, Note_on_c, 0, 52, 70
2, 822233, Note_on_c, 0, 60, 70
2, 822353, Note_off_c, 0, 45, 0
2, 822353, Note_off_c, 0, 52, 0
2, 822353, Note_off_c, 0, 60, 0
2, 822379, Note_on_c, 0, 43, 70
2, 822379, Note_on_c, 0, 50, 70
2, 822379, Note_on_c, 0, 59, 70
2, 822495, Note_off_c, 0, 43, 0
2, 822495, Note_off_c, 0, 50, 0
2, 822495, Note_off_c, 0, 59, 0
2, 822518, Note_on_c, 0, 45, 70
2, 822518, Note_on_c, 0, 52, 70
2, 822518, Note_on_c, 0, 60, 70
2, 822626, Note_off_c, 0, 45, 0
2, 822626, Note_off_c, 0, 52, 0
2, 822626, Note_off_c, 0, 60, 0
2, 822664, Note_on_c, 0, 43, 70
2, 822664, Note_on_c, 0, 50, 70
2, 822664, Note_on_c, 0, 59, 70
2, 822780, Note_off_c, 0, 43, 0
2, 822780, Note_off_c, 0, 50, 0
2, 822780, Note_off_c, 0, 59, 0
2, 822818, Note_on_c, 0, 45, 70
2, 822818, Note_on_c, 0, 52, 70
2, 822818, Note_on_c, 0, 60, 70
2, 822938, Note_off_c, 0, 45, 0
2, 822938, Note_off_c, 0, 52, 0
2, 822938, Note_off_c, 0, 60, 0
2, 822979, Note_on_c, 0, 43, 70
2, 822979, Note_on_c, 0, 50, 70
2, 822979, Note_on_c, 0, 59, 70
2, 823106, Note_off_c, 0, 43, 0
2, 823106, Note_off_c, 0, 50, 0
2, 823106, Note_off_c, 0, 59, 0
2, 823148, Note_on_c, 0, 45, 70
2, 823148, Note_on_c, 0, 52, 70
2, 823148, Note_on_c, 0, 60, 70
2, 823196, Note_off_c, 0, 45, 0
2, 823196, Note_off_c, 0, 52, 0
2, 823196, Note_off_c, 0, 60, 0
2, 823200, Note_on_c, 0, 50, 65
2, 823200, Note_on_c, 0, 57, 65
2, 824160, Note_off_c, 0, 50, 0
2, 824160, Note_off_c, 0, 57, 0
2, 824160, Note_on_c, 0, 57, 67
2, 824640, Note_off_c, 0, 57, 0
2, 824640, Note_on_c, 0, 59, 75
2, 825120, Note_on_c, 0, 54, 70
2, 825128, Note_off_c, 0, 59, 0
2, 825600, Note_on_c, 0, 55, 72
2, 825608, Note_off_c, 0, 54, 0
2, 826054, Note_off_c, 0, 55, 0
2, 826080, Note_on_c, 0, 55, 69
2, 826560, Note_on_c, 0, 52, 70
2, 826568, Note_off_c, 0, 55, 0
2, 827040, Note_on_c, 0, 55, 74
2, 827048, Note_off_c, 0, 52, 0
2, 827494, Note_off_c, 0, 55, 0
2, 827520, Note_on_c, 0, 57, 74
2, 828000, Note_on_c, 0, 52, 62
2, 828008, Note_off_c, 0, 57, 0
2, 828480, Note_on_c, 0, 54, 69
2, 828488, Note_off_c, 0, 52, 0
2, 828934, Note_off_c, 0, 54, 0
2, 828960, Note_on_c, 0, 54, 76
2, 829440, Note_on_c, 0, 50, 65
2, 829448, Note_off_c, 0, 54, 0
2, 829920, Note_on_c, 0, 54, 75
2, 829928, Note_off_c, 0, 50, 0
2, 830374, Note_off_c, 0, 54, 0
2, 830400, Note_on_c, 0, 55, 72
2, 830640, Note_off_c, 0, 55, 0
2, 830880, Note_on_c, 0, 59, 72
2, 831120, Note_off_c, 0, 59, 0
2, 831360, Note_on_c, 0, 55, 66
2, 831600, Note_off_c, 0, 55, 0
2, 831840, Note_on_c, 0, 52, 68
2, 832320, Note_off_c, 0, 52, 0
2, 832320, Note_on_c, 0, 47, 68
2, 832800, Note_off_c, 0, 47, 0
2, 832800, Note_on_c, 0, 50, 76
2, 833280, Note_off_c, 0, 50, 0
2, 833280, Note_on_c, 0, 49, 69
2, 833760, Note_on_c, 0, 52, 74
2, 833768, Note_off_c, 0, 49, 0
2, 834240, Note_on_c, 0, 57, 74
2, 834248, Note_off_c, 0, 52, 0
2, 834694, Note_off_c, 0, 57, 0
2, 834720, Note_on_c, 0, 45, 60
2, 835680, Note_off_c, 0, 45, 0
2, 835680, Note_on_c, 0, 52, 68
2, 836160, Note_off_c, 0, 52, 0
2, 836160, Note_on_c, 0, 53, 66
2, 836640, Note_on_c, 0, 52, 59
2, 836648, Note_off_c, 0, 53, 0
2, 837120, Note_on_c, 0, 55, 65
2, 837128, Note_off_c, 0, 52, 0
2, 837574, Note_off_c, 0, 55, 0
2, 837600, Note_on_c, 0, 55, 61
2, 838080, Note_on_c, 0, 53, 62
2, 838088, Note_off_c, 0, 55, 0
2, 838560, Note_on_c, 0, 57, 67
2, 838568, Note_off_c, 0, 53, 0
2, 839014, Note_off_c, 0, 57, 0
2, 839040, Note_on_c, 0, 57, 60
2, 839520, Note_on_c, 0, 55, 58
2, 839528, Note_off_c, 0, 57, 0
2, 840000, Note_on_c, 0, 58, 64
2, 840008, Note_off_c, 0, 55, 0
2, 840454, Note_off_c, 0, 58, 0
2, 840480, Note_on_c, 0, 58, 58
2, 840960, Note_on_c, 0, 57, 60
2, 840968, Note_off_c, 0, 58, 0
2, 841440, Note_on_c, 0, 55, 61
2, 841448, Note_off_c, 0, 57, 0
2, 841894, Note_off_c, 0, 55, 0
2, 841920, Note_on_c, 0, 53, 59
2, 842400, Note_on_c, 0, 52, 63
2, 842408, Note_off_c, 0, 53, 0
2, 842880, Note_on_c, 0, 50, 61
2, 842888, Note_off_c, 0, 52, 0
2, 843334, Note_off_c, 0, 50, 0
2, 843360, Note_on_c, 0, 45, 57
2, 843840, Note_on_c, 0, 50, 61
2, 843848, Note_off_c, 0, 45, 0
2, 844320, Note_on_c, 0, 49, 59
2, 844328, Note_off_c, 0, 50, 0
2, 844774, Note_off_c, 0, 49, 0
2, 844800, Note_on_c, 0, 50, 65
2, 845280, Note_off_c, 0, 50, 0
2, 845280, Note_on_c, 0, 45, 59
2, 845760, Note_off_c, 0, 45, 0
2, 845760, Note_on_c, 0, 42, 57
2, 846240, Note_off_c, 0, 42, 0
2, 846240, Note_on_c, 0, 38, 59
2, 847200, Note_off_c, 0, 38, 0
2, 847200, Note_on_c, 0, 57, 75
2, 847680, Note_off_c, 0, 57, 0
2, 847680, Note_on_c, 0, 57, 63
2, 848160, Note_on_c, 0, 54, 57
2, 848168, Note_off_c, 0, 57, 0
2, 848640, Note_on_c, 0, 55, 65
2, 848648, Note_off_c, 0, 54, 0
2, 849094, Note_off_c, 0, 55, 0
2, 849120, Note_on_c, 0, 55, 65
2, 849600, Note_on_c, 0, 52, 57
2, 849608, Note_off_c, 0, 55, 0
2, 850080, Note_on_c, 0, 54, 62
2, 850088, Note_off_c, 0, 52, 0
2, 850534, Note_off_c, 0, 54, 0
2, 850560, Note_on_c, 0, 54, 60
2, 850800, Note_on_c, 0, 55, 63
2, 850804, Note_off_c, 0, 54, 0
2, 851040, Note_on_c, 0, 57, 64
2, 851044, Note_off_c, 0, 55, 0
2, 851494, Note_off_c, 0, 57, 0
2, 851520, Note_on_c, 0, 54, 59
2, 852000, Note_off_c, 0, 54, 0
2, 852000, Note_on_c, 0, 50, 60
2, 852480, Note_off_c, 0, 50, 0
2, 852480, Note_on_c, 0, 60, 75
2, 852960, Note_on_c, 0, 59, 62
2, 852968, Note_off_c, 0, 60, 0
2, 853414, Note_off_c, 0, 59, 0
2, 853440, Note_on_c, 0, 59, 62
2, 853920, Note_on_c, 0, 55, 57
2, 853928, Note_off_c, 0, 59, 0
2, 854400, Note_on_c, 0, 57, 61
2, 854408, Note_off_c, 0, 55, 0
2, 854854, Note_off_c, 0, 57, 0
2, 854880, Note_on_c, 0, 57, 58
2, 855360, Note_on_c, 0, 54, 56
2, 855368, Note_off_c, 0, 57, 0
2, 855840, Note_on_c, 0, 55, 61
2, 855848, Note_off_c, 0, 54, 0
2, 856294, Note_off_c, 0, 55, 0
2, 856320, Note_on_c, 0, 55, 57
2, 856560, Note_on_c, 0, 57, 63
2, 856564, Note_off_c, 0, 55, 0
2, 856800, Note_on_c, 0, 59, 59
2, 856804, Note_off_c, 0, 57, 0
2, 857254, Note_off_c, 0, 59, 0
2, 857280, Note_on_c, 0, 55, 54
2, 857760, Note_off_c, 0, 55, 0
2, 857760, Note_on_c, 0, 52, 59
2, 858240, Note_off_c, 0, 52, 0
2, 858240, Note_on_c, 0, 62, 76
2, 858720, Note_on_c, 0, 60, 60
2, 858728, Note_off_c, 0, 62, 0
2, 859174, Note_off_c, 0, 60, 0
2, 859200, Note_on_c, 0, 57, 59
2, 859680, Note_off_c, 0, 57, 0
2, 859680, Note_on_c, 0, 62, 69
2, 860160, Note_on_c, 0, 60, 57
2, 860168, Note_off_c, 0, 62, 0
2, 860614, Note_off_c, 0, 60, 0
2, 860640, Note_on_c, 0, 50, 56
2, 861120, Note_off_c, 0, 50, 0
2, 861120, Note_on_c, 0, 60, 72
2, 861600, Note_on_c, 0, 59, 60
2, 861608, Note_off_c, 0, 60, 0
2, 862054, Note_off_c, 0, 59, 0
2, 862080, Note_on_c, 0, 55, 60
2, 862560, Note_off_c, 0, 55, 0
2, 862560, Note_on_c, 0, 60, 66
2, 863040, Note_on_c, 0, 59, 58
2, 863048, Note_off_c, 0, 60, 0
2, 863494, Note_off_c, 0, 59, 0
2, 863520, Note_on_c, 0, 48, 55
2, 864000, Note_off_c, 0, 48, 0
2, 864000, Note_on_c, 0, 59, 68
2, 864480, Note_on_c, 0, 57, 60
2, 864488, Note_off_c, 0, 59, 0
2, 864934, Note_off_c, 0, 57, 0
2, 864960, Note_on_c, 0, 55, 55
2, 865440, Note_on_c, 0, 54, 64
2, 865448, Note_off_c, 0, 55, 0
2, 865920, Note_on_c, 0, 52, 56
2, 865928, Note_off_c, 0, 54, 0
2, 866374, Note_off_c, 0, 52, 0
2, 866400, Note_on_c, 0, 47, 57
2, 866880, Note_on_c, 0, 52, 60
2, 866888, Note_off_c, 0, 47, 0
2, 867360, Note_on_c, 0, 51, 62
2, 867368, Note_off_c, 0, 52, 0
2, 867814, Note_off_c, 0, 51, 0
2, 867840, Note_on_c, 0, 52, 67
2, 868320, Note_off_c, 0, 52, 0
2, 868320, Note_on_c, 0, 47, 54
2, 868751, Note_off_c, 0, 47, 0
2, 868800, Note_on_c, 0, 43, 51
2, 869231, Note_off_c, 0, 43, 0
2, 869280, Note_on_c, 0, 40, 64
2, 870240, Note_off_c, 0, 40, 0
2, 870240, Note_on_c, 0, 55, 71
2, 870720, Note_off_c, 0, 55, 0
2, 870720, Note_on_c, 0, 57, 61
2, 871200, Note_on_c, 0, 54, 58
2, 871208, Note_off_c, 0, 57, 0
2, 871680, Note_on_c, 0, 55, 62
2, 871688, Note_off_c, 0, 54, 0
2, 872134, Note_off_c, 0, 55, 0
2, 872160, Note_on_c, 0, 61, 65
2, 872378, Note_off_c, 0, 61, 0
2, 872400, Note_on_c, 0, 62, 62
2, 872640, Note_on_c, 0, 64, 69
2, 872644, Note_off_c, 0, 62, 0
2, 873094, Note_off_c, 0, 64, 0
2, 873120, Note_on_c, 0, 54, 52
2, 873551, Note_off_c, 0, 54, 0
2, 873600, Note_on_c, 0, 55, 63
2, 874080, Note_on_c, 0, 52, 57
2, 874088, Note_off_c, 0, 55, 0
2, 874560, Note_on_c, 0, 53, 63
2, 874568, Note_off_c, 0, 52, 0
2, 875014, Note_off_c, 0, 53, 0
2, 875040, Note_on_c, 0, 59, 59
2, 875258, Note_off_c, 0, 59, 0
2, 875280, Note_on_c, 0, 60, 65
2, 875520, Note_on_c, 0, 62, 66
2, 875524, Note_off_c, 0, 60, 0
2, 875974, Note_off_c, 0, 62, 0
2, 876000, Note_on_c, 0, 52, 54
2, 876431, Note_off_c, 0, 52, 0
2, 876480, Note_on_c, 0, 53, 59
2, 876960, Note_on_c, 0, 50, 61
2, 876968, Note_off_c, 0, 53, 0
2, 877440, Note_on_c, 0, 52, 65
2, 877448, Note_off_c, 0, 50, 0
2, 877894, Note_off_c, 0, 52, 0
2, 877920, Note_on_c, 0, 57, 66
2, 878160, Note_on_c, 0, 59, 64
2, 878164, Note_off_c, 0, 57, 0
2, 878400, Note_on_c, 0, 60, 67
2, 878404, Note_off_c, 0, 59, 0
2, 878854, Note_off_c, 0, 60, 0
2, 878880, Note_on_c, 0, 57, 56
2, 879311, Note_off_c, 0, 57, 0
2, 879360, Note_on_c, 0, 54, 57
2, 879600, Note_on_c, 0, 55, 67
2, 879604, Note_off_c, 0, 54, 0
2, 879840, Note_on_c, 0, 57, 63
2, 879844, Note_off_c, 0, 55, 0
2, 880294, Note_off_c, 0, 57, 0
2, 880320, Note_on_c, 0, 54, 57
2, 880800, Note_off_c, 0, 54, 0
2, 880800, Note_on_c, 0, 50, 60
2, 881760, Note_off_c, 0, 50, 0
2, 881760, Note_on_c, 0, 57, 68
2, 882240, Note_off_c, 0, 57, 0
2, 882240, Note_on_c, 0, 58, 66
2, 882720, Note_on_c, 0, 57, 62
2, 882728, Note_off_c, 0, 58, 0
2, 883200, Note_on_c, 0, 60, 69
2, 883208, Note_off_c, 0, 57, 0
2, 883654, Note_off_c, 0, 60, 0
2, 883680, Note_on_c, 0, 60, 64
2, 884160, Note_on_c, 0, 58, 68
2, 884168, Note_off_c, 0, 60, 0
2, 884640, Note_on_c, 0, 62, 75
2, 884648, Note_off_c, 0, 58, 0
2, 885094, Note_off_c, 0, 62, 0
2, 885120, Note_on_c, 0, 62, 73
2, 885600, Note_on_c, 0, 60, 65
2, 885608, Note_off_c, 0, 62, 0
2, 886080, Note_on_c, 0, 63, 79
2, 886088, Note_off_c, 0, 60, 0
2, 886534, Note_off_c, 0, 63, 0
2, 886560, Note_on_c, 0, 63, 73
2, 887040, Note_on_c, 0, 62, 67
2, 887048, Note_off_c, 0, 63, 0
2, 887520, Note_on_c, 0, 60, 65
2, 887528, Note_off_c, 0, 62, 0
2, 887974, Note_off_c, 0, 60, 0
2, 888000, Note_on_c, 0, 58, 67
2, 888480, Note_on_c, 0, 57, 69
2, 888488, Note_off_c, 0, 58, 0
2, 888960, Note_on_c, 0, 55, 70
2, 888968, Note_off_c, 0, 57, 0
2, 889414, Note_off_c, 0, 55, 0
2, 889440, Note_on_c, 0, 50, 63
2, 889920, Note_on_c, 0, 55, 75
2, 889928, Note_off_c, 0, 50, 0
2, 890400, Note_on_c, 0, 54, 69
2, 890408, Note_off_c, 0, 55, 0
2, 890854, Note_off_c, 0, 54, 0
2, 890880, Note_on_c, 0, 55, 67
2, 891360, Note_off_c, 0, 55, 0
2, 891360, Note_on_c, 0, 47, 62
2, 891600, Note_on_c, 0, 48, 68
2, 891604, Note_off_c, 0, 47, 0
2, 891840, Note_on_c, 0, 50, 79
2, 891844, Note_off_c, 0, 48, 0
2, 892294, Note_off_c, 0, 50, 0
2, 892320, Note_on_c, 0, 43, 66
2, 892800, Note_on_c, 0, 47, 70
2, 892808, Note_off_c, 0, 43, 0
2, 893254, Note_off_c, 0, 47, 0
2, 893280, Note_on_c, 0, 50, 74
2, 893760, Note_off_c, 0, 50, 0
2, 893760, Note_on_c, 0, 55, 78
2, 894240, Note_off_c, 0, 55, 0
2, 894240, Note_on_c, 0, 52, 67
2, 894480, Note_on_c, 0, 53, 70
2, 894484, Note_off_c, 0, 52, 0
2, 894720, Note_on_c, 0, 55, 78
2, 894724, Note_off_c, 0, 53, 0
2, 895174, Note_off_c, 0, 55, 0
2, 895200, Note_on_c, 0, 47, 66
2, 895680, Note_on_c, 0, 48, 70
2, 895688, Note_off_c, 0, 47, 0
2, 896134, Note_off_c, 0, 48, 0
2, 896160, Note_on_c, 0, 52, 73
2, 896640, Note_off_c, 0, 52, 0
2, 896640, Note_on_c, 0, 57, 80
2, 897120, Note_off_c, 0, 57, 0
2, 897120, Note_on_c, 0, 54, 69
2, 897360, Note_on_c, 0, 55, 72
2, 897364, Note_off_c, 0, 54, 0
2, 897600, Note_on_c, 0, 57, 73
2, 897604, Note_off_c, 0, 55, 0
2, 898054, Note_off_c, 0, 57, 0
2, 898080, Note_on_c, 0, 49, 66
2, 898560, Note_on_c, 0, 50, 74
2, 898568, Note_off_c, 0, 49, 0
2, 899014, Note_off_c, 0, 50, 0
2, 899040, Note_on_c, 0, 54, 78
2, 899520, Note_off_c, 0, 54, 0
2, 899520, Note_on_c, 0, 59, 75
2, 900000, Note_off_c, 0, 59, 0
2, 900000, Note_on_c, 0, 55, 66
2, 900240, Note_on_c, 0, 57, 75
2, 900244, Note_off_c, 0, 55, 0
2, 900480, Note_on_c, 0, 59, 74
2, 900484, Note_off_c, 0, 57, 0
2, 900934, Note_off_c, 0, 59, 0
2, 900960, Note_on_c, 0, 51, 59
2, 901440, Note_on_c, 0, 52, 68
2, 901448, Note_off_c, 0, 51, 0
2, 901894, Note_off_c, 0, 52, 0
2, 901920, Note_on_c, 0, 60, 81
2, 902400, Note_off_c, 0, 60, 0
2, 902400, Note_on_c, 0, 52, 68
2, 902880, Note_on_c, 0, 54, 72
2, 902888, Note_off_c, 0, 52, 0
2, 903334, Note_off_c, 0, 54, 0
2, 903360, Note_on_c, 0, 62, 85
2, 903840, Note_off_c, 0, 62, 0
2, 903840, Note_on_c, 0, 54, 69
2, 904320, Note_on_c, 0, 55, 68
2, 904328, Note_off_c, 0, 54, 0
2, 904774, Note_off_c, 0, 55, 0
2, 904800, Note_on_c, 0, 64, 79
2, 905280, Note_off_c, 0, 64, 0
2, 905280, Note_on_c, 0, 50, 61
2, 905760, Note_on_c, 0, 52, 71
2, 905768, Note_off_c, 0, 50, 0
2, 906000, Note_on_c, 0, 54, 75
2, 906004, Note_off_c, 0, 52, 0
2, 906240, Note_on_c, 0, 55, 73
2, 906244, Note_off_c, 0, 54, 0
2, 906480, Note_on_c, 0, 57, 70
2, 906484, Note_off_c, 0, 55, 0
2, 906705, Note_off_c, 0, 57, 0
2, 906720, Note_on_c, 0, 59, 68
2, 907159, Note_off_c, 0, 59, 0
2, 907200, Note_on_c, 0, 55, 68
2, 907680, Note_on_c, 0, 54, 70
2, 907688, Note_off_c, 0, 55, 0
2, 908134, Note_off_c, 0, 54, 0
2, 908160, Note_on_c, 0, 55, 72
2, 908640, Note_off_c, 0, 55, 0
2, 908640, Note_on_c, 0, 50, 66
2, 909071, Note_off_c, 0, 50, 0
2, 909120, Note_on_c, 0, 47, 69
2, 909551, Note_off_c, 0, 47, 0
2, 909600, Note_on_c, 0, 43, 69
2, 911040, Note_off_c, 0, 43, 0
2, 911040, Note_on_c, 0, 57, 81
2, 911520, Note_off_c, 0, 57, 0
2, 911520, Note_on_c, 0, 57, 76
2, 912000, Note_on_c, 0, 54, 67
2, 912008, Note_off_c, 0, 57, 0
2, 912480, Note_on_c, 0, 55, 69
2, 912488, Note_off_c, 0, 54, 0
2, 912934, Note_off_c, 0, 55, 0
2, 912960, Note_on_c, 0, 55, 68
2, 913440, Note_on_c, 0, 52, 67
2, 913448, Note_off_c, 0, 55, 0
2, 913920, Note_on_c, 0, 54, 70
2, 913928, Note_off_c, 0, 52, 0
2, 914374, Note_off_c, 0, 54, 0
2, 914400, Note_on_c, 0, 54, 69
2, 914640, Note_on_c, 0, 55, 73
2, 914644, Note_off_c, 0, 54, 0
2, 914880, Note_on_c, 0, 57, 75
2, 914884, Note_off_c, 0, 55, 0
2, 915334, Note_off_c, 0, 57, 0
2, 915360, Note_on_c, 0, 54, 70
2, 915840, Note_off_c, 0, 54, 0
2, 915840, Note_on_c, 0, 50, 68
2, 916320, Note_off_c, 0, 50, 0
2, 916320, Note_on_c, 0, 60, 91
2, 916800, Note_on_c, 0, 59, 71
2, 916808, Note_off_c, 0, 60, 0
2, 917254, Note_off_c, 0, 59, 0
2, 917280, Note_on_c, 0, 59, 69
2, 917760, Note_on_c, 0, 55, 66
2, 917768, Note_off_c, 0, 59, 0
2, 918240, Note_on_c, 0, 57, 76
2, 918248, Note_off_c, 0, 55, 0
2, 918694, Note_off_c, 0, 57, 0
2, 918720, Note_on_c, 0, 57, 73
2, 919200, Note_on_c, 0, 54, 68
2, 919208, Note_off_c, 0, 57, 0
2, 919680, Note_on_c, 0, 55, 71
2, 919688, Note_off_c, 0, 54, 0
2, 920134, Note_off_c, 0, 55, 0
2, 920160, Note_on_c, 0, 55, 69
2, 920400, Note_on_c, 0, 57, 75
2, 920404, Note_off_c, 0, 55, 0
2, 920640, Note_on_c, 0, 59, 74
2, 920644, Note_off_c, 0, 57, 0
2, 921094, Note_off_c, 0, 59, 0
2, 921120, Note_on_c, 0, 55, 66
2, 921600, Note_off_c, 0, 55, 0
2, 921600, Note_on_c, 0, 52, 67
2, 922080, Note_off_c, 0, 52, 0
2, 922080, Note_on_c, 0, 62, 88
2, 922560, Note_on_c, 0, 60, 73
2, 922568, Note_off_c, 0, 62, 0
2, 923014, Note_off_c, 0, 60, 0
2, 923040, Note_on_c, 0, 57, 69
2, 923520, Note_off_c, 0, 57, 0
2, 923520, Note_on_c, 0, 62, 79
2, 924000, Note_on_c, 0, 60, 70
2, 924008, Note_off_c, 0, 62, 0
2, 924454, Note_off_c, 0, 60, 0
2, 924480, Note_on_c, 0, 50, 60
2, 924960, Note_off_c, 0, 50, 0
2, 924960, Note_on_c, 0, 60, 85
2, 925440, Note_on_c, 0, 59, 74
2, 925448, Note_off_c, 0, 60, 0
2, 925894, Note_off_c, 0, 59, 0
2, 925920, Note_on_c, 0, 55, 68
2, 926400, Note_off_c, 0, 55, 0
2, 926400, Note_on_c, 0, 60, 79
2, 926880, Note_on_c, 0, 59, 74
2, 926888, Note_off_c, 0, 60, 0
2, 927334, Note_off_c, 0, 59, 0
2, 927360, Note_on_c, 0, 48, 64
2, 927840, Note_off_c, 0, 48, 0
2, 927840, Note_on_c, 0, 59, 73
2, 928320, Note_on_c, 0, 57, 76
2, 928328, Note_off_c, 0, 59, 0
2, 928774, Note_off_c, 0, 57, 0
2, 928800, Note_on_c, 0, 55, 70
2, 929280, Note_on_c, 0, 54, 71
2, 929288, Note_off_c, 0, 55, 0
2, 929760, Note_on_c, 0, 52, 68
2, 929768, Note_off_c, 0, 54, 0
2, 930214, Note_off_c, 0, 52, 0
2, 930240, Note_on_c, 0, 47, 66
2, 930720, Note_on_c, 0, 52, 73
2, 930728, Note_off_c, 0, 47, 0
2, 931200, Note_on_c, 0, 51, 70
2, 931208, Note_off_c, 0, 52, 0
2, 931654, Note_off_c, 0, 51, 0
2, 931680, Note_on_c, 0, 52, 73
2, 932160, Note_off_c, 0, 52, 0
2, 932160, Note_on_c, 0, 47, 57
2, 932591, Note_off_c, 0, 47, 0
2, 932640, Note_on_c, 0, 43, 63
2, 933071, Note_off_c, 0, 43, 0
2, 933120, Note_on_c, 0, 40, 67
2, 934080, Note_off_c, 0, 40, 0
2, 934080, Note_on_c, 0, 55, 81
2, 934560, Note_off_c, 0, 55, 0
2, 934560, Note_on_c, 0, 57, 74
2, 935040, Note_on_c, 0, 54, 70
2, 935048, Note_off_c, 0, 57, 0
2, 935520, Note_on_c, 0, 55, 69
2, 935528, Note_off_c, 0, 54, 0
2, 935974, Note_off_c, 0, 55, 0
2, 936000, Note_on_c, 0, 61, 76
2, 936218, Note_off_c, 0, 61, 0
2, 936240, Note_on_c, 0, 62, 74
2, 936480, Note_on_c, 0, 64, 76
2, 936484, Note_off_c, 0, 62, 0
2, 936934, Note_off_c, 0, 64, 0
2, 936960, Note_on_c, 0, 54, 61
2, 937391, Note_off_c, 0, 54, 0
2, 937440, Note_on_c, 0, 55, 73
2, 937920, Note_on_c, 0, 52, 65
2, 937928, Note_off_c, 0, 55, 0
2, 938400, Note_on_c, 0, 53, 74
2, 938408, Note_off_c, 0, 52, 0
2, 938854, Note_off_c, 0, 53, 0
2, 938880, Note_on_c, 0, 59, 72
2, 939098, Note_off_c, 0, 59, 0
2, 939120, Note_on_c, 0, 60, 71
2, 939360, Note_on_c, 0, 62, 77
2, 939364, Note_off_c, 0, 60, 0
2, 939814, Note_off_c, 0, 62, 0
2, 939840, Note_on_c, 0, 52, 59
2, 940271, Note_off_c, 0, 52, 0
2, 940320, Note_on_c, 0, 53, 72
2, 940800, Note_on_c, 0, 50, 69
2, 940808, Note_off_c, 0, 53, 0
2, 941280, Note_on_c, 0, 52, 73
2, 941288, Note_off_c, 0, 50, 0
2, 941734, Note_off_c, 0, 52, 0
2, 941760, Note_on_c, 0, 57, 74
2, 942000, Note_on_c, 0, 59, 72
2, 942004, Note_off_c, 0, 57, 0
2, 942240, Note_on_c, 0, 60, 67
2, 942244, Note_off_c, 0, 59, 0
2, 942694, Note_off_c, 0, 60, 0
2, 942720, Note_on_c, 0, 57, 66
2, 943151, Note_off_c, 0, 57, 0
2, 943200, Note_on_c, 0, 54, 65
2, 943440, Note_on_c, 0, 55, 72
2, 943444, Note_off_c, 0, 54, 0
2, 943680, Note_on_c, 0, 57, 72
2, 943684, Note_off_c, 0, 55, 0
2, 944134, Note_off_c, 0, 57, 0
2, 944160, Note_on_c, 0, 54, 71
2, 944640, Note_off_c, 0, 54, 0
2, 944640, Note_on_c, 0, 50, 66
2, 945600, Note_off_c, 0, 50, 0
2, 945600, Note_on_c, 0, 57, 73
2, 946080, Note_off_c, 0, 57, 0
2, 946080, Note_on_c, 0, 58, 73
2, 946560, Note_on_c, 0, 57, 69
2, 946568, Note_off_c, 0, 58, 0
2, 947040, Note_on_c, 0, 60, 82
2, 947048, Note_off_c, 0, 57, 0
2, 947494, Note_off_c, 0, 60, 0
2, 947520, Note_on_c, 0, 60, 77
2, 948000, Note_on_c, 0, 58, 76
2, 948008, Note_off_c, 0, 60, 0
2, 948480, Note_on_c, 0, 62, 88
2, 948488, Note_off_c, 0, 58, 0
2, 948934, Note_off_c, 0, 62, 0
2, 948960, Note_on_c, 0, 62, 88
2, 949440, Note_on_c, 0, 60, 78
2, 949448, Note_off_c, 0, 62, 0
2, 949920, Note_on_c, 0, 63, 91
2, 949928, Note_off_c, 0, 60, 0
2, 950374, Note_off_c, 0, 63, 0
2, 950400, Note_on_c, 0, 63, 85
2, 950880, Note_on_c, 0, 62, 78
2, 950888, Note_off_c, 0, 63, 0
2, 951360, Note_on_c, 0, 60, 77
2, 951368, Note_off_c, 0, 62, 0
2, 951814, Note_off_c, 0, 60, 0
2, 951840, Note_on_c, 0, 58, 77
2, 952320, Note_on_c, 0, 57, 82
2, 952328, Note_off_c, 0, 58, 0
2, 952800, Note_on_c, 0, 55, 79
2, 952808, Note_off_c, 0, 57, 0
2, 953254, Note_off_c, 0, 55, 0
2, 953280, Note_on_c, 0, 50, 79
2, 953760, Note_on_c, 0, 55, 88
2, 953768, Note_off_c, 0, 50, 0
2, 954240, Note_on_c, 0, 54, 80
2, 954248, Note_off_c, 0, 55, 0
2, 954694, Note_off_c, 0, 54, 0
2, 954720, Note_on_c, 0, 55, 88
2, 955200, Note_off_c, 0, 55, 0
2, 955200, Note_on_c, 0, 47, 75
2, 955440, Note_on_c, 0, 48, 83
2, 955444, Note_off_c, 0, 47, 0
2, 955680, Note_on_c, 0, 50, 87
2, 955684, Note_off_c, 0, 48, 0
2, 956134, Note_off_c, 0, 50, 0
2, 956160, Note_on_c, 0, 43, 76
2, 956640, Note_on_c, 0, 47, 89
2, 956648, Note_off_c, 0, 43, 0
2, 957094, Note_off_c, 0, 47, 0
2, 957120, Note_on_c, 0, 50, 86
2, 957600, Note_off_c, 0, 50, 0
2, 957600, Note_on_c, 0, 55, 89
2, 958080, Note_off_c, 0, 55, 0
2, 958080, Note_on_c, 0, 52, 84
2, 958320, Note_on_c, 0, 53, 88
2, 958324, Note_off_c, 0, 52, 0
2, 958560, Note_on_c, 0, 55, 86
2, 958564, Note_off_c, 0, 53, 0
2, 959014, Note_off_c, 0, 55, 0
2, 959040, Note_on_c, 0, 47, 74
2, 959520, Note_on_c, 0, 48, 84
2, 959528, Note_off_c, 0, 47, 0
2, 959974, Note_off_c, 0, 48, 0
2, 960000, Note_on_c, 0, 52, 87
2, 960480, Note_off_c, 0, 52, 0
2, 960480, Note_on_c, 0, 57, 92
2, 960960, Note_off_c, 0, 57, 0
2, 960960, Note_on_c, 0, 54, 79
2, 961200, Note_on_c, 0, 55, 84
2, 961204, Note_off_c, 0, 54, 0
2, 961440, Note_on_c, 0, 57, 90
2, 961444, Note_off_c, 0, 55, 0
2, 961894, Note_off_c, 0, 57, 0
2, 961920, Note_on_c, 0, 49, 72
2, 962400, Note_on_c, 0, 50, 88
2, 962408, Note_off_c, 0, 49, 0
2, 962854, Note_off_c, 0, 50, 0
2, 962880, Note_on_c, 0, 54, 90
2, 963360, Note_off_c, 0, 54, 0
2, 963360, Note_on_c, 0, 59, 89
2, 963840, Note_off_c, 0, 59, 0
2, 963840, Note_on_c, 0, 55, 83
2, 964080, Note_on_c, 0, 57, 85
2, 964084, Note_off_c, 0, 55, 0
2, 964320, Note_on_c, 0, 59, 86
2, 964324, Note_off_c, 0, 57, 0
2, 964774, Note_off_c, 0, 59, 0
2, 964800, Note_on_c, 0, 51, 77
2, 965280, Note_on_c, 0, 52, 82
2, 965288, Note_off_c, 0, 51, 0
2, 965734, Note_off_c, 0, 52, 0
2, 965760, Note_on_c, 0, 60, 101
2, 966240, Note_off_c, 0, 60, 0
2, 966240, Note_on_c, 0, 52, 79
2, 966720, Note_on_c, 0, 54, 88
2, 966728, Note_off_c, 0, 52, 0
2, 967174, Note_off_c, 0, 54, 0
2, 967200, Note_on_c, 0, 62, 102
2, 967680, Note_off_c, 0, 62, 0
2, 967680, Note_on_c, 0, 54, 76
2, 968160, Note_on_c, 0, 55, 87
2, 968168, Note_off_c, 0, 54, 0
2, 968614, Note_off_c, 0, 55, 0
2, 968640, Note_on_c, 0, 64, 107
2, 969120, Note_off_c, 0, 64, 0
2, 969120, Note_on_c, 0, 50, 77
2, 969600, Note_on_c, 0, 52, 87
2, 969608, Note_off_c, 0, 50, 0
2, 969840, Note_on_c, 0, 54, 90
2, 969844, Note_off_c, 0, 52, 0
2, 970080, Note_on_c, 0, 55, 88
2, 970084, Note_off_c, 0, 54, 0
2, 970320, Note_on_c, 0, 57, 86
2, 970324, Note_off_c, 0, 55, 0
2, 970545, Note_off_c, 0, 57, 0
2, 970560, Note_on_c, 0, 59, 84
2, 970999, Note_off_c, 0, 59, 0
2, 971040, Note_on_c, 0, 55, 81
2, 971520, Note_on_c, 0, 54, 82
2, 971528, Note_off_c, 0, 55, 0
2, 971974, Note_off_c, 0, 54, 0
2, 972000, Note_on_c, 0, 55, 84
2, 972480, Note_off_c, 0, 55, 0
2, 972480, Note_on_c, 0, 50, 74
2, 972911, Note_off_c, 0, 50, 0
2, 972960, Note_on_c, 0, 47, 80
2, 973391, Note_off_c, 0, 47, 0
2, 973440, Note_on_c, 0, 43, 79
2, 974880, Note_off_c, 0, 43, 0
2, 974881, End_track
0, 0, End_of_file
