0, 0, Header, 0, 1, 480
1, 0, Start_track
1, 0, Title_t, "Far Beyond the Sun"
1, 0, Title_t, "Lead Guitar"
1, 0, Key_signature, 0, "major"
1, 0, Program_c, 0, 30
1, 0, Control_c, 0, 101, 0
1, 0, Control_c, 0, 100, 0
1, 0, Control_c, 0, 6, 6
1, 0, Note_on_c, 0, 53, 89
1, 1600, Note_off_c, 0, 53, 64
1, 1600, Note_on_c, 0, 53, 89
1, 1760, Note_off_c, 0, 53, 64
1, 1760, Note_on_c, 0, 53, 89
1, 1920, Pitch_bend_c, 0, 8192
1, 1920, Note_off_c, 0, 53, 64
1, 1920, Note_on_c, 0, 52, 89
1, 3360, Pitch_bend_c, 0, 8192
1, 3360, Note_off_c, 0, 52, 64
1, 3360, Note_on_c, 0, 55, 89
1, 3520, Note_off_c, 0, 55, 64
1, 3520, Note_on_c, 0, 55, 89
1, 3680, Note_off_c, 0, 55, 64
1, 3680, Note_on_c, 0, 55, 89
1, 3840, Pitch_bend_c, 0, 8192
1, 3840, Note_off_c, 0, 55, 64
1, 3840, Note_on_c, 0, 53, 89
1, 5280, Pitch_bend_c, 0, 8192
1, 5280, Note_off_c, 0, 53, 64
1, 5280, Note_on_c, 0, 56, 89
1, 5440, Note_off_c, 0, 56, 64
1, 5440, Note_on_c, 0, 56, 89
1, 5600, Note_off_c, 0, 56, 64
1, 5600, Note_on_c, 0, 56, 89
1, 5760, Pitch_bend_c, 0, 8192
1, 5760, Note_off_c, 0, 56, 64
1, 5760, Note_on_c, 0, 55, 89
1, 6240, Pitch_bend_c, 0, 8192
1, 6240, Note_off_c, 0, 55, 64
1, 6240, Note_on_c, 0, 58, 89
1, 6400, Note_off_c, 0, 58, 64
1, 6400, Note_on_c, 0, 58, 89
1, 6560, Note_off_c, 0, 58, 64
1, 6560, Note_on_c, 0, 58, 89
1, 6720, Pitch_bend_c, 0, 8192
1, 6720, Note_off_c, 0, 58, 64
1, 6720, Note_on_c, 0, 57, 89
1, 7200, Pitch_bend_c, 0, 8192
1, 7200, Note_off_c, 0, 57, 64
1, 7200, Note_on_c, 0, 57, 89
1, 7360, Note_off_c, 0, 57, 64
1, 7360, Note_on_c, 0, 58, 89
1, 7520, Note_off_c, 0, 58, 64
1, 7520, Note_on_c, 0, 60, 89
1, 7680, Pitch_bend_c, 0, 8192
1, 7680, Note_off_c, 0, 60, 64
1, 7680, Note_on_c, 0, 61, 89
1, 9120, Pitch_bend_c, 0, 8192
1, 9120, Note_off_c, 0, 61, 64
1, 9120, Note_on_c, 0, 56, 89
1, 9280, Note_off_c, 0, 56, 64
1, 9280, Note_on_c, 0, 56, 89
1, 9440, Note_off_c, 0, 56, 64
1, 9440, Note_on_c, 0, 56, 89
1, 9600, Note_off_c, 0, 56, 64
1, 9600, Note_on_c, 0, 55, 89
1, 10080, Note_off_c, 0, 55, 64
1, 10080, Note_on_c, 0, 55, 89
1, 10240, Note_off_c, 0, 55, 64
1, 10240, Note_on_c, 0, 56, 89
1, 10400, Note_off_c, 0, 56, 64
1, 10400, Note_on_c, 0, 58, 89
1, 10560, Pitch_bend_c, 0, 8192
1, 10560, Note_off_c, 0, 58, 64
1, 10560, Note_on_c, 0, 60, 89
1, 11040, Pitch_bend_c, 0, 8192
1, 11040, Note_off_c, 0, 60, 64
1, 11040, Note_on_c, 0, 55, 89
1, 11200, Note_off_c, 0, 55, 64
1, 11200, Note_on_c, 0, 55, 89
1, 11360, Note_off_c, 0, 55, 64
1, 11360, Note_on_c, 0, 55, 89
1, 11520, Pitch_bend_c, 0, 8192
1, 11520, Note_off_c, 0, 55, 64
1, 11520, Note_on_c, 0, 53, 89
1, 12000, Pitch_bend_c, 0, 8192
1, 12000, Note_off_c, 0, 53, 64
1, 12000, Note_on_c, 0, 53, 89
1, 12160, Note_off_c, 0, 53, 64
1, 12160, Note_on_c, 0, 55, 89
1, 12320, Note_off_c, 0, 55, 64
1, 12320, Note_on_c, 0, 56, 89
1, 12480, Pitch_bend_c, 0, 8192
1, 12480, Note_off_c, 0, 56, 64
1, 12480, Note_on_c, 0, 58, 89
1, 12960, Pitch_bend_c, 0, 8192
1, 12960, Note_off_c, 0, 58, 64
1, 12960, Note_on_c, 0, 53, 89
1, 13120, Note_off_c, 0, 53, 64
1, 13120, Note_on_c, 0, 53, 89
1, 13280, Note_off_c, 0, 53, 64
1, 13280, Note_on_c, 0, 53, 89
1, 13440, Note_off_c, 0, 53, 64
1, 13440, Note_on_c, 0, 55, 89
1, 13760, Note_off_c, 0, 55, 64
1, 13760, Note_on_c, 0, 52, 89
1, 14080, Note_off_c, 0, 52, 64
1, 14080, Note_on_c, 0, 49, 89
1, 14400, Note_off_c, 0, 49, 64
1, 14400, Note_on_c, 0, 46, 89
1, 14720, Note_off_c, 0, 46, 64
1, 14720, Note_on_c, 0, 43, 89
1, 15040, Note_off_c, 0, 43, 64
1, 15040, Note_on_c, 0, 40, 89
1, 15360, Note_off_c, 0, 40, 64
1, 15360, Note_on_c, 0, 41, 89
1, 15520, Note_off_c, 0, 41, 64
1, 15520, Note_on_c, 0, 43, 89
1, 15680, Note_off_c, 0, 43, 64
1, 15680, Note_on_c, 0, 44, 89
1, 15840, Note_off_c, 0, 44, 64
1, 15840, Note_on_c, 0, 46, 89
1, 16000, Note_off_c, 0, 46, 64
1, 16000, Note_on_c, 0, 48, 89
1, 16160, Note_off_c, 0, 48, 64
1, 16160, Note_on_c, 0, 49, 89
1, 16320, Note_off_c, 0, 49, 64
1, 16320, Note_on_c, 0, 48, 89
1, 16480, Note_off_c, 0, 48, 64
1, 16480, Note_on_c, 0, 46, 89
1, 16640, Note_off_c, 0, 46, 64
1, 16640, Note_on_c, 0, 44, 89
1, 16800, Note_off_c, 0, 44, 64
1, 16800, Note_on_c, 0, 43, 89
1, 16960, Note_off_c, 0, 43, 64
1, 16960, Note_on_c, 0, 41, 89
1, 17120, Note_off_c, 0, 41, 64
1, 17120, Note_on_c, 0, 40, 89
1, 17280, Note_off_c, 0, 40, 64
1, 17280, Note_on_c, 0, 53, 89
1, 17280, Note_on_c, 0, 48, 89
1, 17280, Note_on_c, 0, 41, 89
1, 17760, Note_off_c, 0, 53, 64
1, 17760, Note_off_c, 0, 48, 64
1, 17760, Note_off_c, 0, 41, 64
1, 20640, Note_on_c, 0, 60, 89
1, 20640, Note_on_c, 0, 55, 89
1, 20640, Note_on_c, 0, 48, 89
1, 21120, Note_off_c, 0, 60, 64
1, 21120, Note_off_c, 0, 55, 64
1, 21120, Note_off_c, 0, 48, 64
1, 21600, Note_on_c, 0, 76, 89
1, 21720, Note_off_c, 0, 76, 64
1, 21720, Note_on_c, 0, 77, 89
1, 21840, Note_off_c, 0, 77, 64
1, 21840, Note_on_c, 0, 76, 89
1, 21960, Note_off_c, 0, 76, 64
1, 21960, Note_on_c, 0, 73, 89
1, 22080, Note_off_c, 0, 73, 64
1, 22080, Note_on_c, 0, 72, 89
1, 22200, Note_off_c, 0, 72, 64
1, 22200, Note_on_c, 0, 70, 89
1, 22320, Note_off_c, 0, 70, 64
1, 22320, Note_on_c, 0, 68, 89
1, 22440, Note_off_c, 0, 68, 64
1, 22440, Note_on_c, 0, 67, 89
1, 22560, Note_off_c, 0, 67, 64
1, 22560, Note_on_c, 0, 65, 89
1, 22680, Note_off_c, 0, 65, 64
1, 22680, Note_on_c, 0, 64, 89
1, 22800, Note_off_c, 0, 64, 64
1, 22800, Note_on_c, 0, 61, 89
1, 22920, Note_off_c, 0, 61, 64
1, 22920, Note_on_c, 0, 60, 89
1, 23040, Note_off_c, 0, 60, 64
1, 23040, Note_on_c, 0, 58, 89
1, 23160, Note_off_c, 0, 58, 64
1, 23160, Note_on_c, 0, 56, 89
1, 23280, Note_off_c, 0, 56, 64
1, 23280, Note_on_c, 0, 55, 89
1, 23400, Note_off_c, 0, 55, 64
1, 23400, Note_on_c, 0, 53, 89
1, 23520, Pitch_bend_c, 0, 8192
1, 23520, Note_off_c, 0, 53, 64
1, 23520, Note_on_c, 0, 52, 89
1, 24000, Pitch_bend_c, 0, 8192
1, 24000, Note_off_c, 0, 52, 64
1, 24960, Note_on_c, 0, 76, 89
1, 25080, Note_off_c, 0, 76, 64
1, 25080, Note_on_c, 0, 77, 89
1, 25200, Note_off_c, 0, 77, 64
1, 25200, Note_on_c, 0, 76, 89
1, 25320, Note_off_c, 0, 76, 64
1, 25320, Note_on_c, 0, 73, 89
1, 25440, Note_off_c, 0, 73, 64
1, 25440, Note_on_c, 0, 72, 89
1, 25560, Note_off_c, 0, 72, 64
1, 25560, Note_on_c, 0, 70, 89
1, 25680, Note_off_c, 0, 70, 64
1, 25680, Note_on_c, 0, 68, 89
1, 25800, Note_off_c, 0, 68, 64
1, 25800, Note_on_c, 0, 67, 89
1, 25920, Note_off_c, 0, 67, 64
1, 25920, Note_on_c, 0, 65, 89
1, 26040, Note_off_c, 0, 65, 64
1, 26040, Note_on_c, 0, 64, 89
1, 26160, Note_off_c, 0, 64, 64
1, 26160, Note_on_c, 0, 61, 89
1, 26280, Note_off_c, 0, 61, 64
1, 26280, Note_on_c, 0, 60, 89
1, 26400, Note_off_c, 0, 60, 64
1, 26400, Note_on_c, 0, 58, 89
1, 26520, Note_off_c, 0, 58, 64
1, 26520, Note_on_c, 0, 56, 89
1, 26640, Note_off_c, 0, 56, 64
1, 26640, Note_on_c, 0, 55, 89
1, 26760, Note_off_c, 0, 55, 64
1, 26760, Note_on_c, 0, 53, 89
1, 26880, Pitch_bend_c, 0, 8192
1, 26880, Note_off_c, 0, 53, 64
1, 26880, Note_on_c, 0, 52, 89
1, 27360, Pitch_bend_c, 0, 8192
1, 27360, Note_off_c, 0, 52, 64
1, 28320, Note_on_c, 0, 64, 89
1, 28416, Note_off_c, 0, 64, 64
1, 28416, Note_on_c, 0, 67, 89
1, 28512, Note_off_c, 0, 67, 64
1, 28512, Note_on_c, 0, 70, 89
1, 28608, Note_off_c, 0, 70, 64
1, 28608, Note_on_c, 0, 73, 89
1, 28704, Note_off_c, 0, 73, 64
1, 28704, Note_on_c, 0, 76, 89
1, 28800, Note_off_c, 0, 76, 64
1, 28800, Note_on_c, 0, 73, 89
1, 28896, Note_off_c, 0, 73, 64
1, 28896, Note_on_c, 0, 70, 89
1, 28992, Note_off_c, 0, 70, 64
1, 28992, Note_on_c, 0, 67, 89
1, 29088, Note_off_c, 0, 67, 64
1, 29088, Note_on_c, 0, 70, 89
1, 29184, Note_off_c, 0, 70, 64
1, 29184, Note_on_c, 0, 73, 89
1, 29280, Note_off_c, 0, 73, 64
1, 29280, Note_on_c, 0, 76, 89
1, 29376, Note_off_c, 0, 76, 64
1, 29376, Note_on_c, 0, 79, 89
1, 29472, Note_off_c, 0, 79, 64
1, 29472, Note_on_c, 0, 76, 89
1, 29568, Note_off_c, 0, 76, 64
1, 29568, Note_on_c, 0, 73, 89
1, 29664, Note_off_c, 0, 73, 64
1, 29664, Note_on_c, 0, 70, 89
1, 29760, Note_off_c, 0, 70, 64
1, 29760, Note_on_c, 0, 73, 89
1, 29856, Note_off_c, 0, 73, 64
1, 29856, Note_on_c, 0, 76, 89
1, 29952, Note_off_c, 0, 76, 64
1, 29952, Note_on_c, 0, 79, 89
1, 30048, Note_off_c, 0, 79, 64
1, 30048, Note_on_c, 0, 82, 89
1, 30144, Pitch_bend_c, 0, 8192
1, 30144, Note_off_c, 0, 82, 64
1, 30144, Note_on_c, 0, 84, 89
1, 30720, Pitch_bend_c, 0, 8192
1, 30720, Note_off_c, 0, 84, 64
1, 31680, Note_on_c, 0, 76, 89
1, 31800, Note_off_c, 0, 76, 64
1, 31800, Note_on_c, 0, 77, 89
1, 31920, Note_off_c, 0, 77, 64
1, 31920, Note_on_c, 0, 76, 89
1, 32040, Note_off_c, 0, 76, 64
1, 32040, Note_on_c, 0, 73, 89
1, 32160, Note_off_c, 0, 73, 64
1, 32160, Note_on_c, 0, 72, 89
1, 32280, Note_off_c, 0, 72, 64
1, 32280, Note_on_c, 0, 70, 89
1, 32400, Note_off_c, 0, 70, 64
1, 32400, Note_on_c, 0, 68, 89
1, 32520, Note_off_c, 0, 68, 64
1, 32520, Note_on_c, 0, 67, 89
1, 32640, Note_off_c, 0, 67, 64
1, 32640, Note_on_c, 0, 65, 89
1, 32760, Note_off_c, 0, 65, 64
1, 32760, Note_on_c, 0, 64, 89
1, 32880, Note_off_c, 0, 64, 64
1, 32880, Note_on_c, 0, 61, 89
1, 33000, Note_off_c, 0, 61, 64
1, 33000, Note_on_c, 0, 60, 89
1, 33120, Note_off_c, 0, 60, 64
1, 33120, Note_on_c, 0, 58, 89
1, 33240, Note_off_c, 0, 58, 64
1, 33240, Note_on_c, 0, 56, 89
1, 33360, Note_off_c, 0, 56, 64
1, 33360, Note_on_c, 0, 55, 89
1, 33480, Note_off_c, 0, 55, 64
1, 33480, Note_on_c, 0, 53, 89
1, 33600, Pitch_bend_c, 0, 8192
1, 33600, Note_off_c, 0, 53, 64
1, 33600, Note_on_c, 0, 52, 89
1, 34080, Pitch_bend_c, 0, 8192
1, 34080, Note_off_c, 0, 52, 64
1, 34560, Note_on_c, 0, 44, 89
1, 35040, Note_off_c, 0, 44, 64
1, 35040, Note_on_c, 0, 53, 89
1, 35200, Note_off_c, 0, 53, 64
1, 35200, Note_on_c, 0, 52, 89
1, 35360, Pitch_bend_c, 0, 8192
1, 35360, Note_off_c, 0, 52, 64
1, 35360, Note_on_c, 0, 53, 89
1, 35840, Pitch_bend_c, 0, 8192
1, 35840, Note_off_c, 0, 53, 64
1, 35840, Note_on_c, 0, 53, 89
1, 36000, Note_off_c, 0, 53, 64
1, 36000, Note_on_c, 0, 56, 89
1, 36160, Note_off_c, 0, 56, 64
1, 36160, Note_on_c, 0, 55, 89
1, 36320, Pitch_bend_c, 0, 8192
1, 36320, Note_off_c, 0, 55, 64
1, 36320, Note_on_c, 0, 56, 89
1, 36800, Pitch_bend_c, 0, 8192
1, 36800, Note_off_c, 0, 56, 64
1, 36800, Note_on_c, 0, 56, 89
1, 36960, Note_off_c, 0, 56, 64
1, 36960, Note_on_c, 0, 60, 89
1, 37120, Note_off_c, 0, 60, 64
1, 37120, Note_on_c, 0, 59, 89
1, 37280, Pitch_bend_c, 0, 8192
1, 37280, Note_off_c, 0, 59, 64
1, 37280, Note_on_c, 0, 60, 89
1, 38720, Pitch_bend_c, 0, 8192
1, 38720, Note_off_c, 0, 60, 64
1, 38720, Note_on_c, 0, 60, 89
1, 38880, Note_off_c, 0, 60, 64
1, 38880, Note_on_c, 0, 65, 89
1, 39040, Note_off_c, 0, 65, 64
1, 39040, Note_on_c, 0, 64, 89
1, 39200, Pitch_bend_c, 0, 8192
1, 39200, Note_off_c, 0, 64, 64
1, 39200, Note_on_c, 0, 65, 89
1, 39840, Pitch_bend_c, 0, 8192
1, 39840, Note_off_c, 0, 65, 64
1, 39840, Note_on_c, 0, 68, 89
1, 40000, Note_off_c, 0, 68, 64
1, 40000, Note_on_c, 0, 67, 89
1, 40160, Pitch_bend_c, 0, 8192
1, 40160, Note_off_c, 0, 67, 64
1, 40160, Note_on_c, 0, 68, 89
1, 40640, Pitch_bend_c, 0, 8192
1, 40640, Note_off_c, 0, 68, 64
1, 40640, Note_on_c, 0, 68, 89
1, 40800, Note_off_c, 0, 68, 64
1, 40800, Note_on_c, 0, 72, 89
1, 40960, Note_off_c, 0, 72, 64
1, 40960, Note_on_c, 0, 71, 89
1, 41120, Pitch_bend_c, 0, 8192
1, 41120, Note_off_c, 0, 71, 64
1, 41120, Note_on_c, 0, 72, 89
1, 42240, Pitch_bend_c, 0, 8192
1, 42240, Note_off_c, 0, 72, 64
1, 42660, Note_on_c, 0, 76, 76
1, 42720, Note_off_c, 0, 76, 64
1, 42720, Note_on_c, 0, 77, 89
1, 42880, Note_off_c, 0, 77, 64
1, 42880, Note_on_c, 0, 76, 89
1, 43040, Pitch_bend_c, 0, 8192
1, 43040, Note_off_c, 0, 76, 64
1, 43040, Note_on_c, 0, 77, 89
1, 43620, Pitch_bend_c, 0, 8192
1, 43620, Note_off_c, 0, 77, 64
1, 43620, Note_on_c, 0, 79, 76
1, 43680, Note_off_c, 0, 79, 64
1, 43680, Note_on_c, 0, 80, 89
1, 43840, Note_off_c, 0, 80, 64
1, 43840, Note_on_c, 0, 79, 89
1, 44000, Pitch_bend_c, 0, 8192
1, 44000, Note_off_c, 0, 79, 64
1, 44000, Note_on_c, 0, 80, 89
1, 44580, Pitch_bend_c, 0, 8192
1, 44580, Note_off_c, 0, 80, 64
1, 44580, Note_on_c, 0, 83, 76
1, 44640, Note_off_c, 0, 83, 64
1, 44640, Note_on_c, 0, 84, 89
1, 44800, Note_off_c, 0, 84, 64
1, 44800, Note_on_c, 0, 83, 89
1, 44960, Pitch_bend_c, 0, 8192
1, 44960, Note_off_c, 0, 83, 64
1, 44960, Note_on_c, 0, 84, 89
1, 46080, Pitch_bend_c, 0, 8192
1, 46080, Note_off_c, 0, 84, 64
1, 46080, Note_on_c, 0, 84, 89
1, 46200, Note_off_c, 0, 84, 64
1, 46200, Note_on_c, 0, 82, 89
1, 46320, Note_off_c, 0, 82, 64
1, 46320, Note_on_c, 0, 80, 89
1, 46440, Note_off_c, 0, 80, 64
1, 46440, Note_on_c, 0, 79, 89
1, 46560, Note_off_c, 0, 79, 64
1, 46560, Note_on_c, 0, 82, 89
1, 46680, Note_off_c, 0, 82, 64
1, 46680, Note_on_c, 0, 80, 89
1, 46800, Note_off_c, 0, 80, 64
1, 46800, Note_on_c, 0, 79, 89
1, 46920, Note_off_c, 0, 79, 64
1, 46920, Note_on_c, 0, 77, 89
1, 47040, Note_off_c, 0, 77, 64
1, 47040, Note_on_c, 0, 80, 89
1, 47160, Note_off_c, 0, 80, 64
1, 47160, Note_on_c, 0, 79, 89
1, 47280, Note_off_c, 0, 79, 64
1, 47280, Note_on_c, 0, 77, 89
1, 47400, Note_off_c, 0, 77, 64
1, 47400, Note_on_c, 0, 76, 89
1, 47520, Note_off_c, 0, 76, 64
1, 47520, Note_on_c, 0, 79, 89
1, 47600, Note_off_c, 0, 79, 64
1, 47600, Note_on_c, 0, 77, 89
1, 47680, Note_off_c, 0, 77, 64
1, 47680, Note_on_c, 0, 76, 89
1, 47760, Note_off_c, 0, 76, 64
1, 47760, Note_on_c, 0, 73, 89
1, 47880, Note_off_c, 0, 73, 64
1, 47880, Note_on_c, 0, 72, 89
1, 48000, Note_off_c, 0, 72, 64
1, 48000, Note_on_c, 0, 70, 89
1, 48096, Note_off_c, 0, 70, 64
1, 48096, Note_on_c, 0, 68, 89
1, 48192, Note_off_c, 0, 68, 64
1, 48192, Note_on_c, 0, 67, 89
1, 48288, Note_off_c, 0, 67, 64
1, 48288, Note_on_c, 0, 65, 89
1, 48384, Note_off_c, 0, 65, 64
1, 48384, Note_on_c, 0, 64, 89
1, 48480, Note_off_c, 0, 64, 64
1, 48480, Note_on_c, 0, 61, 89
1, 48560, Note_off_c, 0, 61, 64
1, 48560, Note_on_c, 0, 60, 89
1, 48640, Note_off_c, 0, 60, 64
1, 48640, Note_on_c, 0, 58, 89
1, 48720, Note_off_c, 0, 58, 64
1, 48720, Note_on_c, 0, 56, 89
1, 48800, Note_off_c, 0, 56, 64
1, 48800, Note_on_c, 0, 55, 89
1, 48880, Note_off_c, 0, 55, 64
1, 48880, Note_on_c, 0, 53, 89
1, 48960, Pitch_bend_c, 0, 8192
1, 48960, Note_off_c, 0, 53, 64
1, 48960, Note_on_c, 0, 52, 89
1, 49440, Pitch_bend_c, 0, 8192
1, 49440, Note_off_c, 0, 52, 64
1, 49920, Note_on_c, 0, 44, 89
1, 50400, Note_off_c, 0, 44, 64
1, 50400, Note_on_c, 0, 53, 89
1, 50560, Note_off_c, 0, 53, 64
1, 50560, Note_on_c, 0, 52, 89
1, 50720, Pitch_bend_c, 0, 8192
1, 50720, Note_off_c, 0, 52, 64
1, 50720, Note_on_c, 0, 53, 89
1, 51200, Pitch_bend_c, 0, 8192
1, 51200, Note_off_c, 0, 53, 64
1, 51200, Note_on_c, 0, 53, 89
1, 51360, Note_off_c, 0, 53, 64
1, 51360, Note_on_c, 0, 56, 89
1, 51520, Note_off_c, 0, 56, 64
1, 51520, Note_on_c, 0, 55, 89
1, 51680, Pitch_bend_c, 0, 8192
1, 51680, Note_off_c, 0, 55, 64
1, 51680, Note_on_c, 0, 56, 89
1, 52160, Pitch_bend_c, 0, 8192
1, 52160, Note_off_c, 0, 56, 64
1, 52160, Note_on_c, 0, 56, 89
1, 52320, Note_off_c, 0, 56, 64
1, 52320, Note_on_c, 0, 60, 89
1, 52480, Note_off_c, 0, 60, 64
1, 52480, Note_on_c, 0, 59, 89
1, 52640, Pitch_bend_c, 0, 8192
1, 52640, Note_off_c, 0, 59, 64
1, 52640, Note_on_c, 0, 60, 89
1, 54080, Pitch_bend_c, 0, 8192
1, 54080, Note_off_c, 0, 60, 64
1, 54080, Note_on_c, 0, 60, 89
1, 54240, Note_off_c, 0, 60, 64
1, 54240, Note_on_c, 0, 65, 89
1, 54400, Note_off_c, 0, 65, 64
1, 54400, Note_on_c, 0, 64, 89
1, 54560, Pitch_bend_c, 0, 8192
1, 54560, Note_off_c, 0, 64, 64
1, 54560, Note_on_c, 0, 65, 89
1, 55200, Pitch_bend_c, 0, 8192
1, 55200, Note_off_c, 0, 65, 64
1, 55200, Note_on_c, 0, 68, 89
1, 55360, Note_off_c, 0, 68, 64
1, 55360, Note_on_c, 0, 67, 89
1, 55520, Pitch_bend_c, 0, 8192
1, 55520, Note_off_c, 0, 67, 64
1, 55520, Note_on_c, 0, 68, 89
1, 56000, Pitch_bend_c, 0, 8192
1, 56000, Note_off_c, 0, 68, 64
1, 56000, Note_on_c, 0, 68, 89
1, 56160, Note_off_c, 0, 68, 64
1, 56160, Note_on_c, 0, 72, 89
1, 56320, Note_off_c, 0, 72, 64
1, 56320, Note_on_c, 0, 71, 89
1, 56480, Pitch_bend_c, 0, 8192
1, 56480, Note_off_c, 0, 71, 64
1, 56480, Note_on_c, 0, 72, 89
1, 57600, Pitch_bend_c, 0, 8192
1, 57600, Note_off_c, 0, 72, 64
1, 58020, Note_on_c, 0, 76, 76
1, 58080, Note_off_c, 0, 76, 64
1, 58080, Note_on_c, 0, 77, 89
1, 58240, Note_off_c, 0, 77, 64
1, 58240, Note_on_c, 0, 76, 89
1, 58400, Pitch_bend_c, 0, 8192
1, 58400, Note_off_c, 0, 76, 64
1, 58400, Note_on_c, 0, 77, 89
1, 58980, Pitch_bend_c, 0, 8192
1, 58980, Note_off_c, 0, 77, 64
1, 58980, Note_on_c, 0, 79, 76
1, 59040, Note_off_c, 0, 79, 64
1, 59040, Note_on_c, 0, 80, 89
1, 59200, Note_off_c, 0, 80, 64
1, 59200, Note_on_c, 0, 79, 89
1, 59360, Pitch_bend_c, 0, 8192
1, 59360, Note_off_c, 0, 79, 64
1, 59360, Note_on_c, 0, 80, 89
1, 59940, Pitch_bend_c, 0, 8192
1, 59940, Note_off_c, 0, 80, 64
1, 59940, Note_on_c, 0, 83, 76
1, 60000, Note_off_c, 0, 83, 64
1, 60000, Note_on_c, 0, 84, 89
1, 60160, Note_off_c, 0, 84, 64
1, 60160, Note_on_c, 0, 83, 89
1, 60320, Pitch_bend_c, 0, 8192
1, 60320, Note_off_c, 0, 83, 64
1, 60320, Note_on_c, 0, 84, 89
1, 61440, Pitch_bend_c, 0, 8192
1, 61440, Note_off_c, 0, 84, 64
1, 61440, Note_on_c, 0, 84, 89
1, 61560, Note_off_c, 0, 84, 64
1, 61560, Note_on_c, 0, 82, 89
1, 61680, Note_off_c, 0, 82, 64
1, 61680, Note_on_c, 0, 80, 89
1, 61800, Note_off_c, 0, 80, 64
1, 61800, Note_on_c, 0, 79, 89
1, 61920, Note_off_c, 0, 79, 64
1, 61920, Note_on_c, 0, 82, 89
1, 62040, Note_off_c, 0, 82, 64
1, 62040, Note_on_c, 0, 80, 89
1, 62160, Note_off_c, 0, 80, 64
1, 62160, Note_on_c, 0, 79, 89
1, 62280, Note_off_c, 0, 79, 64
1, 62280, Note_on_c, 0, 77, 89
1, 62400, Note_off_c, 0, 77, 64
1, 62400, Note_on_c, 0, 80, 89
1, 62520, Note_off_c, 0, 80, 64
1, 62520, Note_on_c, 0, 79, 89
1, 62640, Note_off_c, 0, 79, 64
1, 62640, Note_on_c, 0, 77, 89
1, 62760, Note_off_c, 0, 77, 64
1, 62760, Note_on_c, 0, 76, 89
1, 62880, Note_off_c, 0, 76, 64
1, 62880, Note_on_c, 0, 79, 89
1, 62960, Note_off_c, 0, 79, 64
1, 62960, Note_on_c, 0, 77, 89
1, 63040, Note_off_c, 0, 77, 64
1, 63040, Note_on_c, 0, 76, 89
1, 63120, Note_off_c, 0, 76, 64
1, 63120, Note_on_c, 0, 73, 89
1, 63240, Note_off_c, 0, 73, 64
1, 63240, Note_on_c, 0, 72, 89
1, 63360, Note_off_c, 0, 72, 64
1, 63360, Note_on_c, 0, 70, 89
1, 63456, Note_off_c, 0, 70, 64
1, 63456, Note_on_c, 0, 68, 89
1, 63552, Note_off_c, 0, 68, 64
1, 63552, Note_on_c, 0, 67, 89
1, 63648, Note_off_c, 0, 67, 64
1, 63648, Note_on_c, 0, 65, 89
1, 63744, Note_off_c, 0, 65, 64
1, 63744, Note_on_c, 0, 64, 89
1, 63840, Note_off_c, 0, 64, 64
1, 63840, Note_on_c, 0, 61, 89
1, 63920, Note_off_c, 0, 61, 64
1, 63920, Note_on_c, 0, 60, 89
1, 64000, Note_off_c, 0, 60, 64
1, 64000, Note_on_c, 0, 58, 89
1, 64080, Note_off_c, 0, 58, 64
1, 64080, Note_on_c, 0, 56, 89
1, 64160, Note_off_c, 0, 56, 64
1, 64160, Note_on_c, 0, 55, 89
1, 64240, Note_off_c, 0, 55, 64
1, 64240, Note_on_c, 0, 53, 89
1, 64320, Pitch_bend_c, 0, 8192
1, 64320, Note_off_c, 0, 53, 64
1, 64320, Note_on_c, 0, 52, 89
1, 64800, Pitch_bend_c, 0, 8192
1, 64800, Note_off_c, 0, 52, 64
1, 65220, Note_on_c, 0, 54, 76
1, 65280, Note_off_c, 0, 54, 64
1, 65280, Note_on_c, 0, 61, 89
1, 65760, Note_off_c, 0, 61, 64
1, 65760, Note_on_c, 0, 61, 89
1, 65920, Note_off_c, 0, 61, 64
1, 65920, Note_on_c, 0, 61, 89
1, 66080, Note_off_c, 0, 61, 64
1, 66080, Note_on_c, 0, 61, 89
1, 66240, Note_off_c, 0, 61, 64
1, 66240, Note_on_c, 0, 61, 89
1, 66400, Note_off_c, 0, 61, 64
1, 66400, Note_on_c, 0, 61, 89
1, 66560, Note_off_c, 0, 61, 64
1, 66560, Note_on_c, 0, 61, 89
1, 66720, Note_off_c, 0, 61, 64
1, 66720, Note_on_c, 0, 60, 89
1, 66880, Note_off_c, 0, 60, 64
1, 66880, Note_on_c, 0, 58, 89
1, 67040, Note_off_c, 0, 58, 64
1, 67040, Note_on_c, 0, 56, 89
1, 67200, Note_off_c, 0, 56, 64
1, 67200, Note_on_c, 0, 55, 89
1, 67360, Note_off_c, 0, 55, 64
1, 67360, Note_on_c, 0, 55, 89
1, 67520, Note_off_c, 0, 55, 64
1, 67520, Note_on_c, 0, 55, 89
1, 67680, Note_off_c, 0, 55, 64
1, 67680, Note_on_c, 0, 55, 89
1, 67840, Note_off_c, 0, 55, 64
1, 67840, Note_on_c, 0, 55, 89
1, 68000, Note_off_c, 0, 55, 64
1, 68000, Note_on_c, 0, 55, 89
1, 68160, Note_off_c, 0, 55, 64
1, 68160, Note_on_c, 0, 55, 89
1, 68320, Note_off_c, 0, 55, 64
1, 68320, Note_on_c, 0, 55, 89
1, 68480, Note_off_c, 0, 55, 64
1, 68480, Note_on_c, 0, 55, 89
1, 68640, Note_off_c, 0, 55, 64
1, 68640, Note_on_c, 0, 55, 89
1, 68800, Note_off_c, 0, 55, 64
1, 68800, Note_on_c, 0, 56, 89
1, 68960, Note_off_c, 0, 56, 64
1, 68960, Note_on_c, 0, 58, 89
1, 69120, Note_off_c, 0, 58, 64
1, 69120, Note_on_c, 0, 56, 89
1, 69280, Note_off_c, 0, 56, 64
1, 69280, Note_on_c, 0, 56, 89
1, 69440, Note_off_c, 0, 56, 64
1, 69440, Note_on_c, 0, 56, 89
1, 69600, Note_off_c, 0, 56, 64
1, 69600, Note_on_c, 0, 56, 89
1, 69760, Note_off_c, 0, 56, 64
1, 69760, Note_on_c, 0, 58, 89
1, 69920, Note_off_c, 0, 58, 64
1, 69920, Note_on_c, 0, 60, 89
1, 70080, Note_off_c, 0, 60, 64
1, 70080, Note_on_c, 0, 58, 89
1, 70240, Note_off_c, 0, 58, 64
1, 70240, Note_on_c, 0, 58, 89
1, 70400, Note_off_c, 0, 58, 64
1, 70400, Note_on_c, 0, 58, 89
1, 70560, Note_off_c, 0, 58, 64
1, 70560, Note_on_c, 0, 58, 89
1, 70720, Note_off_c, 0, 58, 64
1, 70720, Note_on_c, 0, 60, 89
1, 70880, Note_off_c, 0, 60, 64
1, 70880, Note_on_c, 0, 61, 89
1, 71040, Note_off_c, 0, 61, 64
1, 71040, Note_on_c, 0, 60, 89
1, 71136, Note_off_c, 0, 60, 64
1, 71136, Note_on_c, 0, 61, 89
1, 71232, Note_off_c, 0, 61, 64
1, 71232, Note_on_c, 0, 60, 89
1, 71328, Note_off_c, 0, 60, 64
1, 71328, Note_on_c, 0, 61, 89
1, 71424, Note_off_c, 0, 61, 64
1, 71520, Note_on_c, 0, 72, 89
1, 71616, Note_off_c, 0, 72, 64
1, 71616, Note_on_c, 0, 73, 89
1, 71712, Note_off_c, 0, 73, 64
1, 71712, Note_on_c, 0, 72, 89
1, 71808, Note_off_c, 0, 72, 64
1, 71808, Note_on_c, 0, 73, 89
1, 71904, Note_off_c, 0, 73, 64
1, 72000, Note_on_c, 0, 60, 89
1, 72096, Note_off_c, 0, 60, 64
1, 72096, Note_on_c, 0, 61, 89
1, 72192, Note_off_c, 0, 61, 64
1, 72192, Note_on_c, 0, 60, 89
1, 72288, Note_off_c, 0, 60, 64
1, 72288, Note_on_c, 0, 61, 89
1, 72384, Note_off_c, 0, 61, 64
1, 72480, Note_on_c, 0, 72, 89
1, 72576, Note_off_c, 0, 72, 64
1, 72576, Note_on_c, 0, 73, 89
1, 72672, Note_off_c, 0, 73, 64
1, 72672, Note_on_c, 0, 72, 89
1, 72768, Note_off_c, 0, 72, 64
1, 72768, Note_on_c, 0, 73, 89
1, 72864, Note_off_c, 0, 73, 64
1, 72960, Note_on_c, 0, 61, 89
1, 73120, Note_off_c, 0, 61, 64
1, 73120, Note_on_c, 0, 61, 89
1, 73280, Note_off_c, 0, 61, 64
1, 73280, Note_on_c, 0, 61, 89
1, 73440, Note_off_c, 0, 61, 64
1, 73440, Note_on_c, 0, 61, 89
1, 73600, Note_off_c, 0, 61, 64
1, 73600, Note_on_c, 0, 61, 89
1, 73760, Note_off_c, 0, 61, 64
1, 73760, Note_on_c, 0, 61, 89
1, 73920, Note_off_c, 0, 61, 64
1, 73920, Note_on_c, 0, 61, 89
1, 74080, Note_off_c, 0, 61, 64
1, 74080, Note_on_c, 0, 61, 89
1, 74240, Note_off_c, 0, 61, 64
1, 74240, Note_on_c, 0, 61, 89
1, 74400, Note_off_c, 0, 61, 64
1, 74400, Note_on_c, 0, 60, 89
1, 74560, Note_off_c, 0, 60, 64
1, 74560, Note_on_c, 0, 58, 89
1, 74720, Note_off_c, 0, 58, 64
1, 74720, Note_on_c, 0, 56, 89
1, 74880, Note_off_c, 0, 56, 64
1, 74880, Note_on_c, 0, 55, 89
1, 75040, Note_off_c, 0, 55, 64
1, 75040, Note_on_c, 0, 55, 89
1, 75200, Note_off_c, 0, 55, 64
1, 75200, Note_on_c, 0, 55, 89
1, 75360, Note_off_c, 0, 55, 64
1, 75360, Note_on_c, 0, 55, 89
1, 75520, Note_off_c, 0, 55, 64
1, 75520, Note_on_c, 0, 55, 89
1, 75680, Note_off_c, 0, 55, 64
1, 75680, Note_on_c, 0, 55, 89
1, 75840, Note_off_c, 0, 55, 64
1, 75840, Note_on_c, 0, 55, 89
1, 76000, Note_off_c, 0, 55, 64
1, 76000, Note_on_c, 0, 55, 89
1, 76160, Note_off_c, 0, 55, 64
1, 76160, Note_on_c, 0, 55, 89
1, 76320, Note_off_c, 0, 55, 64
1, 76320, Note_on_c, 0, 55, 89
1, 76560, Note_off_c, 0, 55, 64
1, 76680, Note_on_c, 0, 72, 89
1, 76800, Note_off_c, 0, 72, 64
1, 76800, Note_on_c, 0, 73, 89
1, 76906, Note_off_c, 0, 73, 64
1, 76906, Note_on_c, 0, 72, 89
1, 77012, Note_off_c, 0, 72, 64
1, 77013, Note_on_c, 0, 70, 89
1, 77119, Note_off_c, 0, 70, 64
1, 77120, Note_on_c, 0, 68, 89
1, 77226, Note_off_c, 0, 68, 64
1, 77226, Note_on_c, 0, 67, 89
1, 77332, Note_off_c, 0, 67, 64
1, 77333, Note_on_c, 0, 65, 89
1, 77439, Note_off_c, 0, 65, 64
1, 77440, Note_on_c, 0, 63, 89
1, 77546, Note_off_c, 0, 63, 64
1, 77546, Note_on_c, 0, 61, 89
1, 77652, Note_off_c, 0, 61, 64
1, 77653, Note_on_c, 0, 60, 102
1, 77759, Note_off_c, 0, 60, 64
1, 77760, Note_on_c, 0, 68, 89
1, 77840, Note_off_c, 0, 68, 64
1, 77840, Note_on_c, 0, 67, 89
1, 77920, Note_off_c, 0, 67, 64
1, 77920, Note_on_c, 0, 65, 89
1, 78000, Note_off_c, 0, 65, 64
1, 78000, Note_on_c, 0, 63, 89
1, 78080, Note_off_c, 0, 63, 64
1, 78080, Note_on_c, 0, 61, 89
1, 78160, Note_off_c, 0, 61, 64
1, 78160, Note_on_c, 0, 60, 89
1, 78240, Note_off_c, 0, 60, 64
1, 78240, Note_on_c, 0, 58, 89
1, 78336, Note_off_c, 0, 58, 64
1, 78336, Note_on_c, 0, 44, 89
1, 78432, Note_off_c, 0, 44, 64
1, 78432, Note_on_c, 0, 65, 89
1, 78528, Note_off_c, 0, 65, 64
1, 78528, Note_on_c, 0, 63, 89
1, 78624, Note_off_c, 0, 63, 64
1, 78624, Note_on_c, 0, 61, 89
1, 78720, Note_off_c, 0, 61, 64
1, 78720, Note_on_c, 0, 60, 89
1, 78800, Note_off_c, 0, 60, 64
1, 78800, Note_on_c, 0, 58, 89
1, 78880, Note_off_c, 0, 58, 64
1, 78880, Note_on_c, 0, 56, 89
1, 78960, Note_off_c, 0, 56, 64
1, 79040, Note_on_c, 0, 61, 89
1, 79120, Note_off_c, 0, 61, 64
1, 79120, Note_on_c, 0, 60, 89
1, 79200, Note_off_c, 0, 60, 64
1, 79200, Note_on_c, 0, 58, 89
1, 79280, Note_off_c, 0, 58, 64
1, 79280, Note_on_c, 0, 56, 89
1, 79360, Note_off_c, 0, 56, 64
1, 79360, Note_on_c, 0, 55, 89
1, 79440, Note_off_c, 0, 55, 64
1, 79440, Note_on_c, 0, 44, 89
1, 79520, Pitch_bend_c, 0, 8192
1, 79520, Note_off_c, 0, 44, 64
1, 79520, Note_on_c, 0, 63, 89
1, 79539, Pitch_bend_c, 0, 8519
1, 79558, Pitch_bend_c, 0, 8847
1, 79577, Pitch_bend_c, 0, 9174
1, 79596, Pitch_bend_c, 0, 9502
1, 79616, Pitch_bend_c, 0, 9830
1, 79635, Pitch_bend_c, 0, 10157
1, 79654, Pitch_bend_c, 0, 10485
1, 79673, Pitch_bend_c, 0, 10813
1, 80400, Pitch_bend_c, 0, 8192
1, 80400, Note_off_c, 0, 63, 64
1, 80580, Note_on_c, 0, 54, 76
1, 80640, Note_off_c, 0, 54, 64
1, 80640, Note_on_c, 0, 61, 89
1, 81120, Note_off_c, 0, 61, 64
1, 81120, Note_on_c, 0, 61, 89
1, 81280, Note_off_c, 0, 61, 64
1, 81280, Note_on_c, 0, 61, 89
1, 81440, Note_off_c, 0, 61, 64
1, 81440, Note_on_c, 0, 61, 89
1, 81600, Note_off_c, 0, 61, 64
1, 81600, Note_on_c, 0, 61, 89
1, 81760, Note_off_c, 0, 61, 64
1, 81760, Note_on_c, 0, 61, 89
1, 81920, Note_off_c, 0, 61, 64
1, 81920, Note_on_c, 0, 61, 89
1, 82080, Note_off_c, 0, 61, 64
1, 82080, Note_on_c, 0, 60, 89
1, 82240, Note_off_c, 0, 60, 64
1, 82240, Note_on_c, 0, 58, 89
1, 82400, Note_off_c, 0, 58, 64
1, 82400, Note_on_c, 0, 56, 89
1, 82560, Note_off_c, 0, 56, 64
1, 82560, Note_on_c, 0, 55, 89
1, 82720, Note_off_c, 0, 55, 64
1, 82720, Note_on_c, 0, 55, 89
1, 82880, Note_off_c, 0, 55, 64
1, 82880, Note_on_c, 0, 55, 89
1, 83040, Note_off_c, 0, 55, 64
1, 83040, Note_on_c, 0, 55, 89
1, 83200, Note_off_c, 0, 55, 64
1, 83200, Note_on_c, 0, 55, 89
1, 83360, Note_off_c, 0, 55, 64
1, 83360, Note_on_c, 0, 55, 89
1, 83520, Note_off_c, 0, 55, 64
1, 83520, Note_on_c, 0, 55, 89
1, 83680, Note_off_c, 0, 55, 64
1, 83680, Note_on_c, 0, 55, 89
1, 83840, Note_off_c, 0, 55, 64
1, 83840, Note_on_c, 0, 55, 89
1, 84000, Note_off_c, 0, 55, 64
1, 84000, Note_on_c, 0, 55, 89
1, 84160, Note_off_c, 0, 55, 64
1, 84160, Note_on_c, 0, 56, 89
1, 84320, Note_off_c, 0, 56, 64
1, 84320, Note_on_c, 0, 58, 89
1, 84480, Note_off_c, 0, 58, 64
1, 84480, Note_on_c, 0, 56, 89
1, 84640, Note_off_c, 0, 56, 64
1, 84640, Note_on_c, 0, 56, 89
1, 84800, Note_off_c, 0, 56, 64
1, 84800, Note_on_c, 0, 56, 89
1, 84960, Note_off_c, 0, 56, 64
1, 84960, Note_on_c, 0, 56, 89
1, 85120, Note_off_c, 0, 56, 64
1, 85120, Note_on_c, 0, 58, 89
1, 85280, Note_off_c, 0, 58, 64
1, 85280, Note_on_c, 0, 60, 89
1, 85440, Note_off_c, 0, 60, 64
1, 85440, Note_on_c, 0, 58, 89
1, 85600, Note_off_c, 0, 58, 64
1, 85600, Note_on_c, 0, 58, 89
1, 85760, Note_off_c, 0, 58, 64
1, 85760, Note_on_c, 0, 58, 89
1, 85920, Note_off_c, 0, 58, 64
1, 85920, Note_on_c, 0, 58, 89
1, 86080, Note_off_c, 0, 58, 64
1, 86080, Note_on_c, 0, 60, 89
1, 86240, Note_off_c, 0, 60, 64
1, 86240, Note_on_c, 0, 61, 89
1, 86400, Note_off_c, 0, 61, 64
1, 86400, Note_on_c, 0, 60, 89
1, 86496, Note_off_c, 0, 60, 64
1, 86496, Note_on_c, 0, 61, 89
1, 86592, Note_off_c, 0, 61, 64
1, 86592, Note_on_c, 0, 60, 89
1, 86688, Note_off_c, 0, 60, 64
1, 86688, Note_on_c, 0, 61, 89
1, 86784, Note_off_c, 0, 61, 64
1, 86880, Note_on_c, 0, 72, 89
1, 86976, Note_off_c, 0, 72, 64
1, 86976, Note_on_c, 0, 73, 89
1, 87072, Note_off_c, 0, 73, 64
1, 87072, Note_on_c, 0, 72, 89
1, 87168, Note_off_c, 0, 72, 64
1, 87168, Note_on_c, 0, 73, 89
1, 87264, Note_off_c, 0, 73, 64
1, 87360, Note_on_c, 0, 60, 89
1, 87456, Note_off_c, 0, 60, 64
1, 87456, Note_on_c, 0, 61, 89
1, 87552, Note_off_c, 0, 61, 64
1, 87552, Note_on_c, 0, 60, 89
1, 87648, Note_off_c, 0, 60, 64
1, 87648, Note_on_c, 0, 61, 89
1, 87744, Note_off_c, 0, 61, 64
1, 87840, Note_on_c, 0, 72, 89
1, 87936, Note_off_c, 0, 72, 64
1, 87936, Note_on_c, 0, 73, 89
1, 88032, Note_off_c, 0, 73, 64
1, 88032, Note_on_c, 0, 72, 89
1, 88128, Note_off_c, 0, 72, 64
1, 88128, Note_on_c, 0, 73, 89
1, 88224, Note_off_c, 0, 73, 64
1, 88320, Note_on_c, 0, 61, 89
1, 88480, Note_off_c, 0, 61, 64
1, 88480, Note_on_c, 0, 61, 89
1, 88640, Note_off_c, 0, 61, 64
1, 88640, Note_on_c, 0, 61, 89
1, 88800, Note_off_c, 0, 61, 64
1, 88800, Note_on_c, 0, 61, 89
1, 88960, Note_off_c, 0, 61, 64
1, 88960, Note_on_c, 0, 61, 89
1, 89120, Note_off_c, 0, 61, 64
1, 89120, Note_on_c, 0, 61, 89
1, 89280, Note_off_c, 0, 61, 64
1, 89280, Note_on_c, 0, 61, 89
1, 89440, Note_off_c, 0, 61, 64
1, 89440, Note_on_c, 0, 61, 89
1, 89600, Note_off_c, 0, 61, 64
1, 89600, Note_on_c, 0, 61, 89
1, 89760, Note_off_c, 0, 61, 64
1, 89760, Note_on_c, 0, 60, 89
1, 89920, Note_off_c, 0, 60, 64
1, 89920, Note_on_c, 0, 58, 89
1, 90080, Note_off_c, 0, 58, 64
1, 90080, Note_on_c, 0, 56, 89
1, 90240, Note_off_c, 0, 56, 64
1, 90240, Note_on_c, 0, 55, 89
1, 90400, Note_off_c, 0, 55, 64
1, 90400, Note_on_c, 0, 55, 89
1, 90560, Note_off_c, 0, 55, 64
1, 90560, Note_on_c, 0, 55, 89
1, 90720, Note_off_c, 0, 55, 64
1, 90720, Note_on_c, 0, 55, 89
1, 90880, Note_off_c, 0, 55, 64
1, 90880, Note_on_c, 0, 55, 89
1, 91040, Note_off_c, 0, 55, 64
1, 91040, Note_on_c, 0, 55, 89
1, 91200, Note_off_c, 0, 55, 64
1, 91200, Note_on_c, 0, 55, 89
1, 91360, Note_off_c, 0, 55, 64
1, 91360, Note_on_c, 0, 55, 89
1, 91520, Note_off_c, 0, 55, 64
1, 91520, Note_on_c, 0, 55, 89
1, 91680, Note_off_c, 0, 55, 64
1, 91680, Note_on_c, 0, 55, 89
1, 91920, Note_off_c, 0, 55, 64
1, 92040, Note_on_c, 0, 72, 89
1, 92160, Note_off_c, 0, 72, 64
1, 92160, Note_on_c, 0, 65, 89
1, 92200, Note_off_c, 0, 65, 64
1, 92200, Note_on_c, 0, 68, 89
1, 92240, Note_off_c, 0, 68, 64
1, 92240, Note_on_c, 0, 72, 89
1, 92320, Note_off_c, 0, 72, 64
1, 92320, Note_on_c, 0, 77, 89
1, 92400, Note_off_c, 0, 77, 64
1, 92400, Note_on_c, 0, 72, 89
1, 92480, Note_off_c, 0, 72, 64
1, 92480, Note_on_c, 0, 68, 89
1, 92560, Note_off_c, 0, 68, 64
1, 92560, Note_on_c, 0, 65, 89
1, 92640, Note_off_c, 0, 65, 64
1, 92640, Note_on_c, 0, 68, 89
1, 92760, Note_off_c, 0, 68, 64
1, 92760, Note_on_c, 0, 72, 89
1, 92880, Note_off_c, 0, 72, 64
1, 92880, Note_on_c, 0, 77, 89
1, 93000, Note_off_c, 0, 77, 64
1, 93000, Note_on_c, 0, 72, 89
1, 93120, Note_off_c, 0, 72, 64
1, 93120, Note_on_c, 0, 80, 89
1, 93240, Note_off_c, 0, 80, 64
1, 93240, Note_on_c, 0, 77, 89
1, 93360, Note_off_c, 0, 77, 64
1, 93360, Note_on_c, 0, 72, 89
1, 93480, Note_off_c, 0, 72, 64
1, 93480, Note_on_c, 0, 68, 89
1, 93600, Note_off_c, 0, 68, 64
1, 93600, Note_on_c, 0, 72, 89
1, 93696, Note_off_c, 0, 72, 64
1, 93696, Note_on_c, 0, 77, 89
1, 93792, Note_off_c, 0, 77, 64
1, 93792, Note_on_c, 0, 80, 89
1, 93888, Note_off_c, 0, 80, 64
1, 93888, Note_on_c, 0, 77, 89
1, 93984, Note_off_c, 0, 77, 64
1, 93984, Note_on_c, 0, 72, 89
1, 94080, Note_off_c, 0, 72, 64
1, 94080, Note_on_c, 0, 77, 89
1, 94176, Note_off_c, 0, 77, 64
1, 94176, Note_on_c, 0, 80, 89
1, 94272, Note_off_c, 0, 80, 64
1, 94272, Note_on_c, 0, 77, 89
1, 94368, Note_off_c, 0, 77, 64
1, 94368, Note_on_c, 0, 72, 89
1, 94464, Note_off_c, 0, 72, 64
1, 94464, Note_on_c, 0, 77, 89
1, 94560, Note_off_c, 0, 77, 64
1, 94560, Note_on_c, 0, 84, 89
1, 94656, Note_off_c, 0, 84, 64
1, 94656, Note_on_c, 0, 80, 89
1, 94752, Note_off_c, 0, 80, 64
1, 94752, Note_on_c, 0, 84, 89
1, 94848, Note_off_c, 0, 84, 64
1, 94848, Note_on_c, 0, 80, 89
1, 94944, Note_off_c, 0, 80, 64
1, 94944, Note_on_c, 0, 77, 89
1, 95040, Pitch_bend_c, 0, 8192
1, 95040, Note_off_c, 0, 77, 64
1, 95040, Note_on_c, 0, 72, 89
1, 95520, Pitch_bend_c, 0, 8192
1, 95520, Note_off_c, 0, 72, 64
1, 95940, Note_on_c, 0, 63, 76
1, 96000, Pitch_bend_c, 0, 8192
1, 96000, Note_off_c, 0, 63, 64
1, 96000, Note_on_c, 0, 65, 89
1, 96480, Pitch_bend_c, 0, 8192
1, 96480, Note_off_c, 0, 65, 64
1, 96480, Note_on_c, 0, 67, 89
1, 96900, Note_off_c, 0, 67, 64
1, 96900, Note_on_c, 0, 67, 76
1, 96960, Note_off_c, 0, 67, 64
1, 96960, Note_on_c, 0, 68, 89
1, 97440, Pitch_bend_c, 0, 8192
1, 97440, Note_off_c, 0, 68, 64
1, 97440, Note_on_c, 0, 65, 89
1, 97920, Pitch_bend_c, 0, 8192
1, 97920, Note_off_c, 0, 65, 64
1, 97920, Note_on_c, 0, 67, 89
1, 98400, Note_off_c, 0, 67, 64
1, 98400, Note_on_c, 0, 68, 89
1, 98880, Note_off_c, 0, 68, 64
1, 98880, Note_on_c, 0, 70, 89
1, 99120, Note_off_c, 0, 70, 64
1, 99120, Note_on_c, 0, 72, 89
1, 99240, Note_off_c, 0, 72, 64
1, 99240, Note_on_c, 0, 70, 89
1, 99360, Note_off_c, 0, 70, 64
1, 99360, Note_on_c, 0, 67, 89
1, 99840, Pitch_bend_c, 0, 8192
1, 99840, Note_off_c, 0, 67, 64
1, 99840, Note_on_c, 0, 70, 89
1, 99854, Pitch_bend_c, 0, 8519
1, 99868, Pitch_bend_c, 0, 8847
1, 99883, Pitch_bend_c, 0, 9174
1, 99897, Pitch_bend_c, 0, 9502
1, 99912, Pitch_bend_c, 0, 9830
1, 99926, Pitch_bend_c, 0, 10157
1, 99940, Pitch_bend_c, 0, 10485
1, 99955, Pitch_bend_c, 0, 10813
1, 100080, Pitch_bend_c, 0, 8192
1, 100080, Note_off_c, 0, 70, 64
1, 100080, Note_on_c, 0, 72, 89
1, 100160, Note_off_c, 0, 72, 64
1, 100160, Note_on_c, 0, 73, 89
1, 100240, Note_off_c, 0, 73, 64
1, 100240, Note_on_c, 0, 72, 89
1, 100320, Note_off_c, 0, 72, 64
1, 100320, Note_on_c, 0, 70, 89
1, 100800, Note_off_c, 0, 70, 64
1, 100800, Note_on_c, 0, 68, 89
1, 101040, Note_off_c, 0, 68, 64
1, 101040, Note_on_c, 0, 70, 89
1, 101160, Note_off_c, 0, 70, 64
1, 101160, Note_on_c, 0, 68, 89
1, 101280, Note_off_c, 0, 68, 64
1, 101280, Note_on_c, 0, 67, 89
1, 101760, Pitch_bend_c, 0, 8192
1, 101760, Note_off_c, 0, 67, 64
1, 101760, Note_on_c, 0, 68, 89
1, 103620, Note_on_c, 0, 67, 76
1, 103680, Pitch_bend_c, 0, 8192
1, 103680, Note_off_c, 0, 68, 64
1, 103680, Note_off_c, 0, 67, 64
1, 103680, Note_on_c, 0, 68, 89
1, 104640, Note_off_c, 0, 68, 64
1, 104640, Note_on_c, 0, 67, 89
1, 105120, Note_off_c, 0, 67, 64
1, 105120, Note_on_c, 0, 63, 89
1, 105600, Note_off_c, 0, 63, 64
1, 105600, Note_on_c, 0, 65, 89
1, 105720, Note_off_c, 0, 65, 64
1, 105720, Note_on_c, 0, 68, 89
1, 105840, Note_off_c, 0, 68, 64
1, 105840, Note_on_c, 0, 72, 89
1, 105960, Note_off_c, 0, 72, 64
1, 105960, Note_on_c, 0, 77, 89
1, 106080, Note_off_c, 0, 77, 64
1, 106080, Note_on_c, 0, 80, 89
1, 106160, Note_off_c, 0, 80, 64
1, 106160, Note_on_c, 0, 77, 89
1, 106240, Note_off_c, 0, 77, 64
1, 106240, Note_on_c, 0, 72, 89
1, 106320, Note_off_c, 0, 72, 64
1, 106320, Note_on_c, 0, 77, 89
1, 106400, Note_off_c, 0, 77, 64
1, 106400, Note_on_c, 0, 84, 89
1, 106480, Note_off_c, 0, 84, 64
1, 106480, Note_on_c, 0, 77, 89
1, 106560, Note_off_c, 0, 77, 64
1, 106560, Note_on_c, 0, 72, 89
1, 106640, Note_off_c, 0, 72, 64
1, 106640, Note_on_c, 0, 77, 89
1, 106720, Note_off_c, 0, 77, 64
1, 106720, Note_on_c, 0, 80, 89
1, 106800, Note_off_c, 0, 80, 64
1, 106800, Note_on_c, 0, 77, 89
1, 106880, Note_off_c, 0, 77, 64
1, 106880, Note_on_c, 0, 72, 89
1, 106960, Note_off_c, 0, 72, 64
1, 106960, Note_on_c, 0, 77, 89
1, 107040, Note_off_c, 0, 77, 64
1, 107040, Note_on_c, 0, 72, 89
1, 107460, Note_on_c, 0, 63, 76
1, 107520, Pitch_bend_c, 0, 8192
1, 107520, Note_off_c, 0, 72, 64
1, 107520, Note_off_c, 0, 63, 64
1, 107520, Note_on_c, 0, 65, 89
1, 108000, Pitch_bend_c, 0, 8192
1, 108000, Note_off_c, 0, 65, 64
1, 108000, Note_on_c, 0, 67, 89
1, 108420, Note_off_c, 0, 67, 64
1, 108420, Note_on_c, 0, 67, 76
1, 108480, Note_off_c, 0, 67, 64
1, 108480, Note_on_c, 0, 68, 89
1, 108960, Pitch_bend_c, 0, 8192
1, 108960, Note_off_c, 0, 68, 64
1, 108960, Note_on_c, 0, 65, 89
1, 109440, Pitch_bend_c, 0, 8192
1, 109440, Note_off_c, 0, 65, 64
1, 109440, Note_on_c, 0, 67, 89
1, 109920, Note_off_c, 0, 67, 64
1, 109920, Note_on_c, 0, 68, 89
1, 110400, Note_off_c, 0, 68, 64
1, 110400, Note_on_c, 0, 70, 89
1, 110640, Note_off_c, 0, 70, 64
1, 110640, Note_on_c, 0, 72, 89
1, 110760, Note_off_c, 0, 72, 64
1, 110760, Note_on_c, 0, 70, 89
1, 110880, Note_off_c, 0, 70, 64
1, 110880, Note_on_c, 0, 67, 89
1, 111360, Pitch_bend_c, 0, 8192
1, 111360, Note_off_c, 0, 67, 64
1, 111360, Note_on_c, 0, 70, 89
1, 111374, Pitch_bend_c, 0, 8519
1, 111388, Pitch_bend_c, 0, 8847
1, 111403, Pitch_bend_c, 0, 9174
1, 111417, Pitch_bend_c, 0, 9502
1, 111432, Pitch_bend_c, 0, 9830
1, 111446, Pitch_bend_c, 0, 10157
1, 111460, Pitch_bend_c, 0, 10485
1, 111475, Pitch_bend_c, 0, 10813
1, 111600, Pitch_bend_c, 0, 8192
1, 111600, Note_off_c, 0, 70, 64
1, 111600, Note_on_c, 0, 72, 89
1, 111680, Note_off_c, 0, 72, 64
1, 111680, Note_on_c, 0, 73, 89
1, 111760, Note_off_c, 0, 73, 64
1, 111760, Note_on_c, 0, 72, 89
1, 111840, Note_off_c, 0, 72, 64
1, 111840, Note_on_c, 0, 70, 89
1, 112320, Note_off_c, 0, 70, 64
1, 112320, Note_on_c, 0, 68, 89
1, 112560, Note_off_c, 0, 68, 64
1, 112560, Note_on_c, 0, 70, 89
1, 112680, Note_off_c, 0, 70, 64
1, 112680, Note_on_c, 0, 68, 89
1, 112800, Note_off_c, 0, 68, 64
1, 112800, Note_on_c, 0, 67, 89
1, 113280, Pitch_bend_c, 0, 8192
1, 113280, Note_off_c, 0, 67, 64
1, 113280, Note_on_c, 0, 68, 89
1, 115140, Note_on_c, 0, 67, 76
1, 115200, Pitch_bend_c, 0, 8192
1, 115200, Note_off_c, 0, 68, 64
1, 115200, Note_off_c, 0, 67, 64
1, 115200, Note_on_c, 0, 68, 89
1, 116160, Note_off_c, 0, 68, 64
1, 116160, Note_on_c, 0, 67, 89
1, 116640, Note_off_c, 0, 67, 64
1, 116640, Note_on_c, 0, 63, 89
1, 116880, Note_off_c, 0, 63, 64
1, 116880, Note_on_c, 0, 65, 89
1, 116960, Note_off_c, 0, 65, 64
1, 116960, Note_on_c, 0, 68, 89
1, 117040, Note_off_c, 0, 68, 64
1, 117040, Note_on_c, 0, 72, 89
1, 117120, Note_off_c, 0, 72, 64
1, 117120, Note_on_c, 0, 77, 89
1, 117280, Note_off_c, 0, 77, 64
1, 117280, Note_on_c, 0, 75, 89
1, 117440, Note_off_c, 0, 75, 64
1, 117440, Note_on_c, 0, 73, 89
1, 117600, Note_off_c, 0, 73, 64
1, 117600, Note_on_c, 0, 72, 89
1, 117720, Note_off_c, 0, 72, 64
1, 117720, Note_on_c, 0, 73, 89
1, 117840, Note_off_c, 0, 73, 64
1, 117840, Note_on_c, 0, 72, 89
1, 117960, Note_off_c, 0, 72, 64
1, 117960, Note_on_c, 0, 70, 89
1, 118080, Note_off_c, 0, 70, 64
1, 118080, Note_on_c, 0, 72, 89
1, 118240, Note_off_c, 0, 72, 64
1, 118240, Note_on_c, 0, 70, 89
1, 118400, Pitch_bend_c, 0, 8192
1, 118400, Note_off_c, 0, 70, 64
1, 118400, Note_on_c, 0, 72, 102
1, 119040, Pitch_bend_c, 0, 8192
1, 119040, Note_off_c, 0, 72, 64
1, 119360, Note_on_c, 0, 67, 89
1, 119680, Note_off_c, 0, 67, 64
1, 119680, Note_on_c, 0, 67, 89
1, 120000, Note_off_c, 0, 67, 64
1, 120000, Note_on_c, 0, 67, 89
1, 120320, Note_off_c, 0, 67, 64
1, 120320, Note_on_c, 0, 68, 89
1, 120640, Note_off_c, 0, 68, 64
1, 120640, Note_on_c, 0, 70, 89
1, 120900, Note_on_c, 0, 68, 76
1, 120960, Note_off_c, 0, 70, 64
1, 120960, Note_off_c, 0, 68, 64
1, 120960, Note_on_c, 0, 70, 89
1, 121600, Note_off_c, 0, 70, 64
1, 121600, Note_on_c, 0, 68, 89
1, 121680, Note_off_c, 0, 68, 64
1, 121680, Note_on_c, 0, 70, 89
1, 121760, Note_off_c, 0, 70, 64
1, 121760, Note_on_c, 0, 68, 89
1, 121840, Note_off_c, 0, 68, 64
1, 121840, Note_on_c, 0, 67, 89
1, 121920, Pitch_bend_c, 0, 8192
1, 121920, Note_off_c, 0, 67, 64
1, 121920, Note_on_c, 0, 68, 89
1, 122880, Pitch_bend_c, 0, 8192
1, 122880, Note_off_c, 0, 68, 64
1, 123200, Note_on_c, 0, 70, 89
1, 123520, Note_off_c, 0, 70, 64
1, 123520, Note_on_c, 0, 70, 89
1, 123840, Note_off_c, 0, 70, 64
1, 123840, Note_on_c, 0, 70, 89
1, 124160, Note_off_c, 0, 70, 64
1, 124160, Note_on_c, 0, 72, 89
1, 124480, Note_off_c, 0, 72, 64
1, 124480, Note_on_c, 0, 73, 89
1, 124800, Note_off_c, 0, 73, 64
1, 124800, Note_on_c, 0, 72, 89
1, 125760, Pitch_bend_c, 0, 8192
1, 125760, Note_off_c, 0, 72, 64
1, 125760, Note_on_c, 0, 73, 89
1, 125798, Pitch_bend_c, 0, 8519
1, 125836, Pitch_bend_c, 0, 8847
1, 125875, Pitch_bend_c, 0, 9174
1, 125913, Pitch_bend_c, 0, 9502
1, 125952, Pitch_bend_c, 0, 9830
1, 125990, Pitch_bend_c, 0, 10157
1, 126028, Pitch_bend_c, 0, 10485
1, 126067, Pitch_bend_c, 0, 10813
1, 126080, Pitch_bend_c, 0, 10922
1, 126118, Pitch_bend_c, 0, 10594
1, 126156, Pitch_bend_c, 0, 10267
1, 126195, Pitch_bend_c, 0, 9939
1, 126233, Pitch_bend_c, 0, 9611
1, 126272, Pitch_bend_c, 0, 9284
1, 126310, Pitch_bend_c, 0, 8956
1, 126348, Pitch_bend_c, 0, 8628
1, 126387, Pitch_bend_c, 0, 8301
1, 126720, Pitch_bend_c, 0, 8192
1, 126720, Note_off_c, 0, 73, 64
1, 126720, Note_on_c, 0, 73, 89
1, 127040, Pitch_bend_c, 0, 8192
1, 127040, Note_off_c, 0, 73, 64
1, 127040, Note_on_c, 0, 73, 114
1, 127360, Note_off_c, 0, 73, 64
1, 127360, Note_on_c, 0, 70, 102
1, 127680, Pitch_bend_c, 0, 8192
1, 127680, Note_off_c, 0, 70, 64
1, 127680, Note_on_c, 0, 70, 89
1, 128640, Pitch_bend_c, 0, 8192
1, 128640, Note_off_c, 0, 70, 64
1, 128640, Note_on_c, 0, 72, 89
1, 128960, Note_off_c, 0, 72, 64
1, 128960, Note_on_c, 0, 73, 89
1, 129280, Note_off_c, 0, 73, 64
1, 129280, Note_on_c, 0, 72, 89
1, 129540, Note_off_c, 0, 72, 64
1, 129540, Note_on_c, 0, 72, 76
1, 129600, Pitch_bend_c, 0, 8192
1, 129600, Note_off_c, 0, 72, 64
1, 129600, Note_on_c, 0, 68, 89
1, 131520, Pitch_bend_c, 0, 8192
1, 131520, Note_off_c, 0, 68, 64
1, 131520, Note_on_c, 0, 67, 89
1, 132000, Note_off_c, 0, 67, 64
1, 132000, Note_on_c, 0, 65, 89
1, 132480, Note_off_c, 0, 65, 64
1, 132480, Note_on_c, 0, 64, 89
1, 132960, Note_off_c, 0, 64, 64
1, 132960, Note_on_c, 0, 65, 89
1, 133440, Pitch_bend_c, 0, 8192
1, 133440, Note_off_c, 0, 65, 64
1, 133440, Note_on_c, 0, 65, 89
1, 133454, Pitch_bend_c, 0, 8519
1, 133468, Pitch_bend_c, 0, 8847
1, 133483, Pitch_bend_c, 0, 9174
1, 133497, Pitch_bend_c, 0, 9502
1, 133512, Pitch_bend_c, 0, 9830
1, 133526, Pitch_bend_c, 0, 10157
1, 133540, Pitch_bend_c, 0, 10485
1, 133555, Pitch_bend_c, 0, 10813
1, 133680, Pitch_bend_c, 0, 8192
1, 133680, Note_off_c, 0, 65, 64
1, 133920, Note_on_c, 0, 53, 89
1, 134080, Note_off_c, 0, 53, 64
1, 134080, Note_on_c, 0, 53, 89
1, 134240, Note_off_c, 0, 53, 64
1, 134240, Note_on_c, 0, 53, 89
1, 134400, Pitch_bend_c, 0, 8192
1, 134400, Note_off_c, 0, 53, 64
1, 134400, Note_on_c, 0, 52, 89
1, 135840, Pitch_bend_c, 0, 8192
1, 135840, Note_off_c, 0, 52, 64
1, 135840, Note_on_c, 0, 55, 89
1, 136000, Note_off_c, 0, 55, 64
1, 136000, Note_on_c, 0, 55, 89
1, 136160, Note_off_c, 0, 55, 64
1, 136160, Note_on_c, 0, 55, 89
1, 136320, Pitch_bend_c, 0, 8192
1, 136320, Note_off_c, 0, 55, 64
1, 136320, Note_on_c, 0, 53, 89
1, 137760, Pitch_bend_c, 0, 8192
1, 137760, Note_off_c, 0, 53, 64
1, 137760, Note_on_c, 0, 56, 89
1, 137920, Note_off_c, 0, 56, 64
1, 137920, Note_on_c, 0, 56, 89
1, 138080, Note_off_c, 0, 56, 64
1, 138080, Note_on_c, 0, 56, 89
1, 138240, Pitch_bend_c, 0, 8192
1, 138240, Note_off_c, 0, 56, 64
1, 138240, Note_on_c, 0, 55, 89
1, 138720, Pitch_bend_c, 0, 8192
1, 138720, Note_off_c, 0, 55, 64
1, 138720, Note_on_c, 0, 58, 89
1, 138880, Note_off_c, 0, 58, 64
1, 138880, Note_on_c, 0, 58, 89
1, 139040, Note_off_c, 0, 58, 64
1, 139040, Note_on_c, 0, 58, 89
1, 139200, Note_off_c, 0, 58, 64
1, 139200, Note_on_c, 0, 57, 89
1, 139680, Note_off_c, 0, 57, 64
1, 139680, Note_on_c, 0, 57, 89
1, 139840, Note_off_c, 0, 57, 64
1, 139840, Note_on_c, 0, 58, 89
1, 140000, Note_off_c, 0, 58, 64
1, 140000, Note_on_c, 0, 60, 89
1, 140160, Pitch_bend_c, 0, 8192
1, 140160, Note_off_c, 0, 60, 64
1, 140160, Note_on_c, 0, 61, 89
1, 141600, Pitch_bend_c, 0, 8192
1, 141600, Note_off_c, 0, 61, 64
1, 141600, Note_on_c, 0, 56, 89
1, 141760, Note_off_c, 0, 56, 64
1, 141760, Note_on_c, 0, 56, 89
1, 141920, Note_off_c, 0, 56, 64
1, 141920, Note_on_c, 0, 56, 89
1, 142080, Note_off_c, 0, 56, 64
1, 142080, Note_on_c, 0, 55, 89
1, 142560, Note_off_c, 0, 55, 64
1, 142560, Note_on_c, 0, 55, 89
1, 142720, Note_off_c, 0, 55, 64
1, 142720, Note_on_c, 0, 56, 89
1, 142880, Note_off_c, 0, 56, 64
1, 142880, Note_on_c, 0, 58, 89
1, 143040, Pitch_bend_c, 0, 8192
1, 143040, Note_off_c, 0, 58, 64
1, 143040, Note_on_c, 0, 60, 89
1, 143520, Pitch_bend_c, 0, 8192
1, 143520, Note_off_c, 0, 60, 64
1, 143520, Note_on_c, 0, 55, 89
1, 143680, Note_off_c, 0, 55, 64
1, 143680, Note_on_c, 0, 55, 89
1, 143840, Note_off_c, 0, 55, 64
1, 143840, Note_on_c, 0, 55, 89
1, 144000, Pitch_bend_c, 0, 8192
1, 144000, Note_off_c, 0, 55, 64
1, 144000, Note_on_c, 0, 53, 89
1, 144480, Pitch_bend_c, 0, 8192
1, 144480, Note_off_c, 0, 53, 64
1, 144480, Note_on_c, 0, 53, 89
1, 144640, Note_off_c, 0, 53, 64
1, 144640, Note_on_c, 0, 55, 89
1, 144800, Note_off_c, 0, 55, 64
1, 144800, Note_on_c, 0, 56, 89
1, 144960, Pitch_bend_c, 0, 8192
1, 144960, Note_off_c, 0, 56, 64
1, 144960, Note_on_c, 0, 58, 89
1, 145440, Pitch_bend_c, 0, 8192
1, 145440, Note_off_c, 0, 58, 64
1, 145440, Note_on_c, 0, 53, 89
1, 145600, Note_off_c, 0, 53, 64
1, 145600, Note_on_c, 0, 53, 89
1, 145760, Note_off_c, 0, 53, 64
1, 145760, Note_on_c, 0, 53, 89
1, 145920, Note_off_c, 0, 53, 64
1, 145920, Note_on_c, 0, 55, 89
1, 146240, Note_off_c, 0, 55, 64
1, 146240, Note_on_c, 0, 52, 89
1, 146560, Note_off_c, 0, 52, 64
1, 146560, Note_on_c, 0, 49, 89
1, 146880, Note_off_c, 0, 49, 64
1, 146880, Note_on_c, 0, 46, 89
1, 147200, Note_off_c, 0, 46, 64
1, 147200, Note_on_c, 0, 43, 89
1, 147520, Note_off_c, 0, 43, 64
1, 147520, Note_on_c, 0, 40, 89
1, 147840, Note_off_c, 0, 40, 64
1, 147840, Note_on_c, 0, 53, 89
1, 148000, Note_off_c, 0, 53, 64
1, 148000, Note_on_c, 0, 55, 89
1, 148160, Note_off_c, 0, 55, 64
1, 148160, Note_on_c, 0, 56, 89
1, 148320, Note_off_c, 0, 56, 64
1, 148320, Note_on_c, 0, 58, 89
1, 148480, Note_off_c, 0, 58, 64
1, 148480, Note_on_c, 0, 60, 89
1, 148640, Note_off_c, 0, 60, 64
1, 148640, Note_on_c, 0, 61, 89
1, 148740, Note_off_c, 0, 61, 64
1, 148740, Note_on_c, 0, 60, 76
1, 148800, Note_off_c, 0, 60, 64
1, 148800, Note_on_c, 0, 61, 89
1, 148880, Note_off_c, 0, 61, 64
1, 148880, Note_on_c, 0, 60, 89
1, 148960, Note_off_c, 0, 60, 64
1, 148960, Note_on_c, 0, 58, 89
1, 149120, Note_off_c, 0, 58, 64
1, 149120, Note_on_c, 0, 56, 89
1, 149280, Note_off_c, 0, 56, 64
1, 149280, Note_on_c, 0, 55, 89
1, 149440, Note_off_c, 0, 55, 64
1, 149440, Note_on_c, 0, 53, 89
1, 149600, Note_off_c, 0, 53, 64
1, 149600, Note_on_c, 0, 52, 89
1, 149760, Note_off_c, 0, 52, 64
1, 149760, Note_on_c, 0, 53, 89
1, 149920, Note_off_c, 0, 53, 64
1, 149920, Note_on_c, 0, 55, 89
1, 150080, Note_off_c, 0, 55, 64
1, 150080, Note_on_c, 0, 56, 89
1, 150240, Note_off_c, 0, 56, 64
1, 150240, Note_on_c, 0, 58, 89
1, 150400, Note_off_c, 0, 58, 64
1, 150400, Note_on_c, 0, 60, 89
1, 150560, Note_off_c, 0, 60, 64
1, 150560, Note_on_c, 0, 61, 89
1, 150720, Note_off_c, 0, 61, 64
1, 150720, Note_on_c, 0, 60, 89
1, 150880, Note_off_c, 0, 60, 64
1, 150880, Note_on_c, 0, 58, 89
1, 151040, Note_off_c, 0, 58, 64
1, 151040, Note_on_c, 0, 56, 89
1, 151200, Note_off_c, 0, 56, 64
1, 151200, Note_on_c, 0, 55, 89
1, 151360, Note_off_c, 0, 55, 64
1, 151360, Note_on_c, 0, 53, 89
1, 151520, Note_off_c, 0, 53, 64
1, 151520, Note_on_c, 0, 52, 89
1, 151680, Note_off_c, 0, 52, 64
1, 151680, Note_on_c, 0, 53, 89
1, 151840, Note_off_c, 0, 53, 64
1, 151840, Note_on_c, 0, 55, 89
1, 152000, Note_off_c, 0, 55, 64
1, 152000, Note_on_c, 0, 56, 89
1, 152160, Note_off_c, 0, 56, 64
1, 152160, Note_on_c, 0, 58, 89
1, 152320, Note_off_c, 0, 58, 64
1, 152320, Note_on_c, 0, 60, 89
1, 152480, Note_off_c, 0, 60, 64
1, 152480, Note_on_c, 0, 61, 89
1, 152580, Note_off_c, 0, 61, 64
1, 152580, Note_on_c, 0, 60, 76
1, 152640, Note_off_c, 0, 60, 64
1, 152640, Note_on_c, 0, 61, 89
1, 152720, Note_off_c, 0, 61, 64
1, 152720, Note_on_c, 0, 60, 89
1, 152800, Note_off_c, 0, 60, 64
1, 152800, Note_on_c, 0, 58, 89
1, 152960, Note_off_c, 0, 58, 64
1, 152960, Note_on_c, 0, 56, 89
1, 153120, Note_off_c, 0, 56, 64
1, 153120, Note_on_c, 0, 55, 89
1, 153280, Note_off_c, 0, 55, 64
1, 153280, Note_on_c, 0, 53, 89
1, 153440, Note_off_c, 0, 53, 64
1, 153440, Note_on_c, 0, 52, 89
1, 153600, Note_off_c, 0, 52, 64
1, 153600, Note_on_c, 0, 53, 89
1, 153760, Note_off_c, 0, 53, 64
1, 153760, Note_on_c, 0, 55, 89
1, 153920, Note_off_c, 0, 55, 64
1, 153920, Note_on_c, 0, 56, 89
1, 154080, Note_off_c, 0, 56, 64
1, 154080, Note_on_c, 0, 58, 89
1, 154240, Note_off_c, 0, 58, 64
1, 154240, Note_on_c, 0, 60, 89
1, 154400, Note_off_c, 0, 60, 64
1, 154400, Note_on_c, 0, 61, 89
1, 154560, Note_off_c, 0, 61, 64
1, 154560, Note_on_c, 0, 64, 89
1, 154720, Note_off_c, 0, 64, 64
1, 154720, Note_on_c, 0, 65, 89
1, 154880, Note_off_c, 0, 65, 64
1, 154880, Note_on_c, 0, 67, 89
1, 155040, Note_off_c, 0, 67, 64
1, 155040, Note_on_c, 0, 68, 102
1, 155200, Note_off_c, 0, 68, 64
1, 155200, Note_on_c, 0, 70, 89
1, 155360, Note_off_c, 0, 70, 64
1, 155360, Note_on_c, 0, 72, 89
1, 155520, Note_off_c, 0, 72, 64
1, 155520, Note_on_c, 0, 73, 89
1, 156480, Pitch_bend_c, 0, 8192
1, 156480, Note_off_c, 0, 73, 64
1, 156480, Note_on_c, 0, 70, 89
1, 157440, Pitch_bend_c, 0, 8192
1, 157440, Note_off_c, 0, 70, 64
1, 157440, Note_on_c, 0, 72, 89
1, 157760, Note_off_c, 0, 72, 64
1, 157760, Note_on_c, 0, 73, 89
1, 158080, Note_off_c, 0, 73, 64
1, 158080, Note_on_c, 0, 72, 89
1, 158400, Pitch_bend_c, 0, 8192
1, 158400, Note_off_c, 0, 72, 64
1, 158400, Note_on_c, 0, 68, 89
1, 159300, Note_on_c, 0, 67, 76
1, 159360, Pitch_bend_c, 0, 8192
1, 159360, Note_off_c, 0, 68, 64
1, 159360, Note_off_c, 0, 67, 64
1, 159360, Note_on_c, 0, 68, 102
1, 160320, Pitch_bend_c, 0, 8192
1, 160320, Note_off_c, 0, 68, 64
1, 160320, Note_on_c, 0, 67, 89
1, 160560, Note_off_c, 0, 67, 64
1, 160560, Note_on_c, 0, 68, 89
1, 160680, Note_off_c, 0, 68, 64
1, 160680, Note_on_c, 0, 67, 89
1, 160800, Note_off_c, 0, 67, 64
1, 160800, Note_on_c, 0, 65, 89
1, 161280, Note_off_c, 0, 65, 64
1, 161280, Note_on_c, 0, 64, 89
1, 161376, Note_off_c, 0, 64, 64
1, 161376, Note_on_c, 0, 67, 89
1, 161472, Note_off_c, 0, 67, 64
1, 161472, Note_on_c, 0, 70, 89
1, 161568, Note_off_c, 0, 70, 64
1, 161568, Note_on_c, 0, 63, 89
1, 161664, Note_off_c, 0, 63, 64
1, 161664, Note_on_c, 0, 76, 89
1, 161760, Note_off_c, 0, 76, 64
1, 161760, Note_on_c, 0, 79, 89
1, 161920, Note_off_c, 0, 79, 64
1, 161920, Note_on_c, 0, 76, 89
1, 162080, Note_off_c, 0, 76, 64
1, 162080, Note_on_c, 0, 73, 89
1, 162240, Pitch_bend_c, 0, 8192
1, 162240, Note_off_c, 0, 73, 64
1, 162240, Note_on_c, 0, 70, 89
1, 163200, Pitch_bend_c, 0, 8192
1, 163200, Note_off_c, 0, 70, 64
1, 163200, Note_on_c, 0, 80, 89
1, 163296, Note_off_c, 0, 80, 64
1, 163296, Note_on_c, 0, 79, 89
1, 163392, Note_off_c, 0, 79, 64
1, 163392, Note_on_c, 0, 77, 89
1, 163488, Note_off_c, 0, 77, 64
1, 163488, Note_on_c, 0, 76, 89
1, 163584, Note_off_c, 0, 76, 64
1, 163584, Note_on_c, 0, 73, 89
1, 163680, Note_off_c, 0, 73, 64
1, 163680, Note_on_c, 0, 77, 89
1, 163800, Note_off_c, 0, 77, 64
1, 163800, Note_on_c, 0, 76, 89
1, 163920, Note_off_c, 0, 76, 64
1, 163920, Note_on_c, 0, 73, 89
1, 164040, Note_off_c, 0, 73, 64
1, 164040, Note_on_c, 0, 72, 89
1, 164160, Note_off_c, 0, 72, 64
1, 164160, Note_on_c, 0, 80, 89
1, 164256, Note_off_c, 0, 80, 64
1, 164256, Note_on_c, 0, 79, 89
1, 164352, Note_off_c, 0, 79, 64
1, 164352, Note_on_c, 0, 77, 89
1, 164448, Note_off_c, 0, 77, 64
1, 164448, Note_on_c, 0, 76, 89
1, 164544, Note_off_c, 0, 76, 64
1, 164544, Note_on_c, 0, 73, 89
1, 164640, Note_off_c, 0, 73, 64
1, 164640, Note_on_c, 0, 77, 89
1, 164760, Note_off_c, 0, 77, 64
1, 164760, Note_on_c, 0, 76, 89
1, 164820, Note_off_c, 0, 76, 64
1, 164820, Note_on_c, 0, 79, 76
1, 164880, Pitch_bend_c, 0, 8192
1, 164880, Note_off_c, 0, 79, 64
1, 164880, Note_on_c, 0, 84, 89
1, 164937, Pitch_bend_c, 0, 8519
1, 164995, Pitch_bend_c, 0, 8847
1, 165052, Pitch_bend_c, 0, 9174
1, 165110, Pitch_bend_c, 0, 9502
1, 165360, Pitch_bend_c, 0, 8192
1, 165360, Note_off_c, 0, 84, 64
1, 165360, Note_on_c, 0, 83, 89
1, 165480, Note_off_c, 0, 83, 64
1, 165480, Note_on_c, 0, 84, 89
1, 165600, Note_off_c, 0, 84, 64
1, 165600, Note_on_c, 0, 83, 89
1, 165720, Note_off_c, 0, 83, 64
1, 165720, Note_on_c, 0, 84, 89
1, 165840, Note_off_c, 0, 84, 64
1, 165840, Note_on_c, 0, 79, 89
1, 165960, Note_off_c, 0, 79, 64
1, 165960, Note_on_c, 0, 80, 89
1, 166080, Note_off_c, 0, 80, 64
1, 166080, Note_on_c, 0, 79, 89
1, 166200, Note_off_c, 0, 79, 64
1, 166200, Note_on_c, 0, 80, 89
1, 166320, Note_off_c, 0, 80, 64
1, 166320, Note_on_c, 0, 76, 89
1, 166440, Note_off_c, 0, 76, 64
1, 166440, Note_on_c, 0, 77, 89
1, 166560, Note_off_c, 0, 77, 64
1, 166560, Note_on_c, 0, 76, 89
1, 166680, Note_off_c, 0, 76, 64
1, 166680, Note_on_c, 0, 77, 89
1, 166800, Note_off_c, 0, 77, 64
1, 166800, Note_on_c, 0, 71, 89
1, 166920, Note_off_c, 0, 71, 64
1, 166920, Note_on_c, 0, 72, 89
1, 167040, Note_off_c, 0, 72, 64
1, 167040, Note_on_c, 0, 71, 89
1, 167160, Note_off_c, 0, 71, 64
1, 167160, Note_on_c, 0, 72, 89
1, 167280, Note_off_c, 0, 72, 64
1, 167280, Note_on_c, 0, 67, 89
1, 167400, Note_off_c, 0, 67, 64
1, 167400, Note_on_c, 0, 68, 89
1, 167520, Note_off_c, 0, 68, 64
1, 167520, Note_on_c, 0, 67, 89
1, 167640, Note_off_c, 0, 67, 64
1, 167640, Note_on_c, 0, 68, 89
1, 167760, Note_off_c, 0, 68, 64
1, 167760, Note_on_c, 0, 64, 89
1, 167880, Note_off_c, 0, 64, 64
1, 167880, Note_on_c, 0, 65, 89
1, 168000, Note_off_c, 0, 65, 64
1, 168000, Note_on_c, 0, 64, 89
1, 168120, Note_off_c, 0, 64, 64
1, 168120, Note_on_c, 0, 65, 89
1, 168240, Note_off_c, 0, 65, 64
1, 168240, Note_on_c, 0, 59, 89
1, 168360, Note_off_c, 0, 59, 64
1, 168360, Note_on_c, 0, 60, 89
1, 168480, Note_off_c, 0, 60, 64
1, 168480, Note_on_c, 0, 59, 89
1, 168600, Note_off_c, 0, 59, 64
1, 168600, Note_on_c, 0, 60, 89
1, 168720, Note_off_c, 0, 60, 64
1, 168720, Note_on_c, 0, 56, 89
1, 168960, Note_off_c, 0, 56, 64
1, 168960, Note_on_c, 0, 55, 89
1, 169120, Note_off_c, 0, 55, 64
1, 169120, Note_on_c, 0, 56, 89
1, 169280, Note_off_c, 0, 56, 64
1, 169280, Note_on_c, 0, 60, 89
1, 169440, Note_off_c, 0, 60, 64
1, 169440, Note_on_c, 0, 56, 89
1, 169600, Note_off_c, 0, 56, 64
1, 169600, Note_on_c, 0, 60, 89
1, 169760, Note_off_c, 0, 60, 64
1, 169760, Note_on_c, 0, 67, 89
1, 169920, Note_off_c, 0, 67, 64
1, 169920, Note_on_c, 0, 68, 89
1, 170240, Pitch_bend_c, 0, 8192
1, 170240, Note_off_c, 0, 68, 64
1, 170240, Note_on_c, 0, 67, 89
1, 170880, Pitch_bend_c, 0, 8192
1, 170880, Note_off_c, 0, 67, 64
1, 170880, Note_on_c, 0, 53, 89
1, 171040, Note_off_c, 0, 53, 64
1, 171040, Note_on_c, 0, 55, 89
1, 171200, Note_off_c, 0, 55, 64
1, 171200, Note_on_c, 0, 56, 89
1, 171360, Note_off_c, 0, 56, 64
1, 171360, Note_on_c, 0, 60, 89
1, 171520, Note_off_c, 0, 60, 64
1, 171520, Note_on_c, 0, 65, 89
1, 171680, Note_off_c, 0, 65, 64
1, 171680, Note_on_c, 0, 67, 89
1, 171840, Pitch_bend_c, 0, 8192
1, 171840, Note_off_c, 0, 67, 64
1, 171840, Note_on_c, 0, 68, 89
1, 172800, Pitch_bend_c, 0, 8192
1, 172800, Note_off_c, 0, 68, 64
1, 172800, Note_on_c, 0, 53, 89
1, 172960, Note_off_c, 0, 53, 64
1, 172960, Note_on_c, 0, 55, 89
1, 173120, Note_off_c, 0, 55, 64
1, 173120, Note_on_c, 0, 56, 89
1, 173280, Note_off_c, 0, 56, 64
1, 173280, Note_on_c, 0, 60, 89
1, 173440, Note_off_c, 0, 60, 64
1, 173440, Note_on_c, 0, 65, 89
1, 173600, Note_off_c, 0, 65, 64
1, 173600, Note_on_c, 0, 67, 89
1, 173760, Pitch_bend_c, 0, 8192
1, 173760, Note_off_c, 0, 67, 64
1, 173760, Note_on_c, 0, 68, 89
1, 174080, Pitch_bend_c, 0, 8192
1, 174080, Note_off_c, 0, 68, 64
1, 174080, Note_on_c, 0, 67, 89
1, 174720, Pitch_bend_c, 0, 8192
1, 174720, Note_off_c, 0, 67, 64
1, 174720, Note_on_c, 0, 53, 89
1, 174880, Note_off_c, 0, 53, 64
1, 174880, Note_on_c, 0, 55, 89
1, 175040, Note_off_c, 0, 55, 64
1, 175040, Note_on_c, 0, 56, 89
1, 175200, Note_off_c, 0, 56, 64
1, 175200, Note_on_c, 0, 60, 89
1, 175360, Note_off_c, 0, 60, 64
1, 175360, Note_on_c, 0, 65, 89
1, 175520, Note_off_c, 0, 65, 64
1, 175520, Note_on_c, 0, 67, 89
1, 175680, Pitch_bend_c, 0, 8192
1, 175680, Note_off_c, 0, 67, 64
1, 175680, Note_on_c, 0, 68, 89
1, 176160, Pitch_bend_c, 0, 8192
1, 176160, Note_off_c, 0, 68, 64
1, 176160, Note_on_c, 0, 68, 89
1, 176256, Note_off_c, 0, 68, 64
1, 176256, Note_on_c, 0, 70, 89
1, 176352, Note_off_c, 0, 70, 64
1, 176352, Note_on_c, 0, 72, 89
1, 176448, Note_off_c, 0, 72, 64
1, 176448, Note_on_c, 0, 73, 89
1, 176544, Note_off_c, 0, 73, 64
1, 176544, Note_on_c, 0, 76, 89
1, 176640, Note_off_c, 0, 76, 64
1, 176640, Note_on_c, 0, 77, 89
1, 176760, Note_off_c, 0, 77, 64
1, 176760, Note_on_c, 0, 76, 89
1, 176880, Note_off_c, 0, 76, 64
1, 176880, Note_on_c, 0, 73, 89
1, 177000, Note_off_c, 0, 73, 64
1, 177000, Note_on_c, 0, 72, 89
1, 177120, Note_off_c, 0, 72, 64
1, 177120, Note_on_c, 0, 70, 89
1, 177240, Note_off_c, 0, 70, 64
1, 177240, Note_on_c, 0, 68, 89
1, 177360, Note_off_c, 0, 68, 64
1, 177360, Note_on_c, 0, 67, 89
1, 177480, Note_off_c, 0, 67, 64
1, 177480, Note_on_c, 0, 65, 89
1, 177600, Note_off_c, 0, 65, 64
1, 177600, Note_on_c, 0, 64, 89
1, 177720, Note_off_c, 0, 64, 64
1, 177720, Note_on_c, 0, 61, 89
1, 177840, Note_off_c, 0, 61, 64
1, 177840, Note_on_c, 0, 60, 89
1, 177960, Note_off_c, 0, 60, 64
1, 177960, Note_on_c, 0, 58, 89
1, 178080, Note_off_c, 0, 58, 64
1, 178080, Note_on_c, 0, 56, 89
1, 178200, Note_off_c, 0, 56, 64
1, 178200, Note_on_c, 0, 55, 89
1, 178320, Note_off_c, 0, 55, 64
1, 178320, Note_on_c, 0, 53, 89
1, 178440, Note_off_c, 0, 53, 64
1, 178440, Note_on_c, 0, 51, 102
1, 178560, Note_off_c, 0, 51, 64
1, 178560, Note_on_c, 0, 53, 89
1, 178720, Note_off_c, 0, 53, 64
1, 178720, Note_on_c, 0, 55, 89
1, 178880, Note_off_c, 0, 55, 64
1, 178880, Note_on_c, 0, 56, 89
1, 179040, Note_off_c, 0, 56, 64
1, 179040, Note_on_c, 0, 60, 89
1, 179200, Note_off_c, 0, 60, 64
1, 179200, Note_on_c, 0, 65, 89
1, 179360, Note_off_c, 0, 65, 64
1, 179360, Note_on_c, 0, 67, 89
1, 179520, Pitch_bend_c, 0, 8192
1, 179520, Note_off_c, 0, 67, 64
1, 179520, Note_on_c, 0, 68, 89
1, 180480, Pitch_bend_c, 0, 8192
1, 180480, Note_off_c, 0, 68, 64
1, 180480, Note_on_c, 0, 53, 89
1, 180640, Note_off_c, 0, 53, 64
1, 180640, Note_on_c, 0, 55, 89
1, 180800, Note_off_c, 0, 55, 64
1, 180800, Note_on_c, 0, 56, 89
1, 180960, Note_off_c, 0, 56, 64
1, 180960, Note_on_c, 0, 60, 89
1, 181120, Note_off_c, 0, 60, 64
1, 181120, Note_on_c, 0, 65, 89
1, 181280, Note_off_c, 0, 65, 64
1, 181280, Note_on_c, 0, 67, 89
1, 181440, Note_off_c, 0, 67, 64
1, 181440, Note_on_c, 0, 68, 89
1, 181760, Pitch_bend_c, 0, 8192
1, 181760, Note_off_c, 0, 68, 64
1, 181760, Note_on_c, 0, 67, 89
1, 182400, Pitch_bend_c, 0, 8192
1, 182400, Note_off_c, 0, 67, 64
1, 182400, Note_on_c, 0, 53, 89
1, 182560, Note_off_c, 0, 53, 64
1, 182560, Note_on_c, 0, 55, 89
1, 182720, Note_off_c, 0, 55, 64
1, 182720, Note_on_c, 0, 56, 89
1, 182880, Note_off_c, 0, 56, 64
1, 182880, Note_on_c, 0, 60, 89
1, 183040, Note_off_c, 0, 60, 64
1, 183040, Note_on_c, 0, 65, 89
1, 183200, Note_off_c, 0, 65, 64
1, 183200, Note_on_c, 0, 67, 89
1, 183360, Pitch_bend_c, 0, 8192
1, 183360, Note_off_c, 0, 67, 64
1, 183360, Note_on_c, 0, 68, 89
1, 184320, Pitch_bend_c, 0, 8192
1, 184320, Note_off_c, 0, 68, 64
1, 184320, Note_on_c, 0, 82, 89
1, 184366, Pitch_bend_c, 0, 8519
1, 184412, Pitch_bend_c, 0, 8847
1, 184458, Pitch_bend_c, 0, 9174
1, 184504, Pitch_bend_c, 0, 9502
1, 184550, Pitch_bend_c, 0, 9830
1, 184596, Pitch_bend_c, 0, 10157
1, 184642, Pitch_bend_c, 0, 10485
1, 184688, Pitch_bend_c, 0, 10813
1, 186240, Pitch_bend_c, 0, 8192
1, 186240, Note_off_c, 0, 82, 64
1, 186240, Note_on_c, 0, 53, 89
1, 186400, Note_off_c, 0, 53, 64
1, 186400, Note_on_c, 0, 55, 89
1, 186560, Note_off_c, 0, 55, 64
1, 186560, Note_on_c, 0, 56, 89
1, 186720, Note_off_c, 0, 56, 64
1, 186720, Note_on_c, 0, 60, 89
1, 186880, Note_off_c, 0, 60, 64
1, 186880, Note_on_c, 0, 65, 89
1, 187040, Note_off_c, 0, 65, 64
1, 187040, Note_on_c, 0, 67, 89
1, 187200, Pitch_bend_c, 0, 8192
1, 187200, Note_off_c, 0, 67, 64
1, 187200, Note_on_c, 0, 68, 89
1, 188160, Pitch_bend_c, 0, 8192
1, 188160, Note_off_c, 0, 68, 64
1, 188160, Note_on_c, 0, 53, 89
1, 188320, Note_off_c, 0, 53, 64
1, 188320, Note_on_c, 0, 55, 89
1, 188480, Note_off_c, 0, 55, 64
1, 188480, Note_on_c, 0, 56, 89
1, 188640, Note_off_c, 0, 56, 64
1, 188640, Note_on_c, 0, 60, 89
1, 188800, Note_off_c, 0, 60, 64
1, 188800, Note_on_c, 0, 65, 89
1, 188960, Note_off_c, 0, 65, 64
1, 188960, Note_on_c, 0, 67, 89
1, 189120, Pitch_bend_c, 0, 8192
1, 189120, Note_off_c, 0, 67, 64
1, 189120, Note_on_c, 0, 68, 89
1, 189440, Pitch_bend_c, 0, 8192
1, 189440, Note_off_c, 0, 68, 64
1, 189440, Note_on_c, 0, 67, 89
1, 190080, Pitch_bend_c, 0, 8192
1, 190080, Note_off_c, 0, 67, 64
1, 190080, Note_on_c, 0, 53, 89
1, 190240, Note_off_c, 0, 53, 64
1, 190240, Note_on_c, 0, 55, 89
1, 190400, Note_off_c, 0, 55, 64
1, 190400, Note_on_c, 0, 56, 89
1, 190560, Note_off_c, 0, 56, 64
1, 190560, Note_on_c, 0, 60, 89
1, 190720, Note_off_c, 0, 60, 64
1, 190720, Note_on_c, 0, 65, 89
1, 190880, Note_off_c, 0, 65, 64
1, 190880, Note_on_c, 0, 67, 89
1, 191040, Pitch_bend_c, 0, 8192
1, 191040, Note_off_c, 0, 67, 64
1, 191040, Note_on_c, 0, 68, 89
1, 191520, Pitch_bend_c, 0, 8192
1, 191520, Note_off_c, 0, 68, 64
1, 191520, Note_on_c, 0, 68, 89
1, 191616, Note_off_c, 0, 68, 64
1, 191616, Note_on_c, 0, 70, 89
1, 191712, Note_off_c, 0, 70, 64
1, 191712, Note_on_c, 0, 72, 89
1, 191808, Note_off_c, 0, 72, 64
1, 191808, Note_on_c, 0, 73, 89
1, 191904, Note_off_c, 0, 73, 64
1, 191904, Note_on_c, 0, 76, 89
1, 192000, Note_off_c, 0, 76, 64
1, 192000, Note_on_c, 0, 77, 89
1, 192120, Note_off_c, 0, 77, 64
1, 192120, Note_on_c, 0, 76, 89
1, 192240, Note_off_c, 0, 76, 64
1, 192240, Note_on_c, 0, 73, 89
1, 192360, Note_off_c, 0, 73, 64
1, 192360, Note_on_c, 0, 72, 89
1, 192480, Note_off_c, 0, 72, 64
1, 192480, Note_on_c, 0, 70, 89
1, 192600, Note_off_c, 0, 70, 64
1, 192600, Note_on_c, 0, 68, 89
1, 192720, Note_off_c, 0, 68, 64
1, 192720, Note_on_c, 0, 67, 89
1, 192840, Note_off_c, 0, 67, 64
1, 192840, Note_on_c, 0, 65, 89
1, 192960, Note_off_c, 0, 65, 64
1, 192960, Note_on_c, 0, 64, 89
1, 193080, Note_off_c, 0, 64, 64
1, 193080, Note_on_c, 0, 61, 89
1, 193200, Note_off_c, 0, 61, 64
1, 193200, Note_on_c, 0, 60, 89
1, 193320, Note_off_c, 0, 60, 64
1, 193320, Note_on_c, 0, 58, 89
1, 193440, Note_off_c, 0, 58, 64
1, 193440, Note_on_c, 0, 56, 89
1, 193560, Note_off_c, 0, 56, 64
1, 193560, Note_on_c, 0, 55, 89
1, 193680, Note_off_c, 0, 55, 64
1, 193680, Note_on_c, 0, 53, 89
1, 193800, Note_off_c, 0, 53, 64
1, 193800, Note_on_c, 0, 51, 102
1, 193920, Note_off_c, 0, 51, 64
1, 193920, Note_on_c, 0, 53, 89
1, 194080, Note_off_c, 0, 53, 64
1, 194080, Note_on_c, 0, 55, 89
1, 194240, Note_off_c, 0, 55, 64
1, 194240, Note_on_c, 0, 56, 89
1, 194400, Note_off_c, 0, 56, 64
1, 194400, Note_on_c, 0, 60, 89
1, 194560, Note_off_c, 0, 60, 64
1, 194560, Note_on_c, 0, 65, 89
1, 194720, Note_off_c, 0, 65, 64
1, 194720, Note_on_c, 0, 67, 89
1, 194880, Pitch_bend_c, 0, 8192
1, 194880, Note_off_c, 0, 67, 64
1, 194880, Note_on_c, 0, 68, 89
1, 195840, Pitch_bend_c, 0, 8192
1, 195840, Note_off_c, 0, 68, 64
1, 195840, Note_on_c, 0, 53, 89
1, 196000, Note_off_c, 0, 53, 64
1, 196000, Note_on_c, 0, 55, 89
1, 196160, Note_off_c, 0, 55, 64
1, 196160, Note_on_c, 0, 56, 89
1, 196320, Note_off_c, 0, 56, 64
1, 196320, Note_on_c, 0, 60, 89
1, 196480, Note_off_c, 0, 60, 64
1, 196480, Note_on_c, 0, 65, 89
1, 196640, Note_off_c, 0, 65, 64
1, 196640, Note_on_c, 0, 67, 89
1, 196800, Pitch_bend_c, 0, 8192
1, 196800, Note_off_c, 0, 67, 64
1, 196800, Note_on_c, 0, 68, 89
1, 197120, Pitch_bend_c, 0, 8192
1, 197120, Note_off_c, 0, 68, 64
1, 197120, Note_on_c, 0, 67, 89
1, 197760, Pitch_bend_c, 0, 8192
1, 197760, Note_off_c, 0, 67, 64
1, 197760, Note_on_c, 0, 53, 89
1, 197920, Note_off_c, 0, 53, 64
1, 197920, Note_on_c, 0, 55, 89
1, 198080, Note_off_c, 0, 55, 64
1, 198080, Note_on_c, 0, 56, 89
1, 198240, Note_off_c, 0, 56, 64
1, 198240, Note_on_c, 0, 60, 89
1, 198400, Note_off_c, 0, 60, 64
1, 198400, Note_on_c, 0, 65, 89
1, 198560, Note_off_c, 0, 65, 64
1, 198560, Note_on_c, 0, 67, 89
1, 198720, Pitch_bend_c, 0, 8192
1, 198720, Note_off_c, 0, 67, 64
1, 198720, Note_on_c, 0, 68, 89
1, 199680, Pitch_bend_c, 0, 8192
1, 199680, Note_off_c, 0, 68, 64
1, 199680, Note_on_c, 0, 68, 89
1, 200000, Note_off_c, 0, 68, 64
1, 200000, Note_on_c, 0, 67, 89
1, 200080, Note_off_c, 0, 67, 64
1, 200080, Note_on_c, 0, 68, 89
1, 200160, Note_off_c, 0, 68, 64
1, 200160, Note_on_c, 0, 67, 89
1, 200320, Note_off_c, 0, 67, 64
1, 200320, Note_on_c, 0, 65, 89
1, 200400, Note_off_c, 0, 65, 64
1, 200400, Note_on_c, 0, 67, 89
1, 200480, Note_off_c, 0, 67, 64
1, 200480, Note_on_c, 0, 65, 89
1, 200640, Pitch_bend_c, 0, 8192
1, 200640, Note_off_c, 0, 65, 64
1, 200640, Note_on_c, 0, 64, 89
1, 200960, Pitch_bend_c, 0, 8192
1, 200960, Note_off_c, 0, 64, 64
1, 200960, Note_on_c, 0, 65, 89
1, 201280, Note_off_c, 0, 65, 64
1, 201280, Note_on_c, 0, 67, 89
1, 201600, Note_off_c, 0, 67, 64
1, 201600, Note_on_c, 0, 68, 89
1, 201920, Note_off_c, 0, 68, 64
1, 201920, Note_on_c, 0, 67, 89
1, 202000, Note_off_c, 0, 67, 64
1, 202000, Note_on_c, 0, 68, 89
1, 202080, Note_off_c, 0, 68, 64
1, 202080, Note_on_c, 0, 67, 89
1, 202240, Note_off_c, 0, 67, 64
1, 202240, Note_on_c, 0, 65, 89
1, 202560, Pitch_bend_c, 0, 8192
1, 202560, Note_off_c, 0, 65, 64
1, 202560, Note_on_c, 0, 64, 89
1, 202880, Pitch_bend_c, 0, 8192
1, 202880, Note_off_c, 0, 64, 64
1, 202880, Note_on_c, 0, 65, 89
1, 203200, Note_off_c, 0, 65, 64
1, 203200, Note_on_c, 0, 67, 89
1, 203520, Note_off_c, 0, 67, 64
1, 203520, Note_on_c, 0, 68, 89
1, 203616, Note_off_c, 0, 68, 64
1, 203616, Note_on_c, 0, 65, 89
1, 203712, Note_off_c, 0, 65, 64
1, 203712, Note_on_c, 0, 67, 89
1, 203808, Note_off_c, 0, 67, 64
1, 203808, Note_on_c, 0, 68, 89
1, 203904, Note_off_c, 0, 68, 64
1, 203904, Note_on_c, 0, 67, 89
1, 204000, Note_off_c, 0, 67, 64
1, 204000, Note_on_c, 0, 65, 89
1, 204096, Note_off_c, 0, 65, 64
1, 204096, Note_on_c, 0, 68, 89
1, 204192, Note_off_c, 0, 68, 64
1, 204192, Note_on_c, 0, 65, 89
1, 204288, Note_off_c, 0, 65, 64
1, 204288, Note_on_c, 0, 67, 89
1, 204384, Note_off_c, 0, 67, 64
1, 204384, Note_on_c, 0, 68, 89
1, 204480, Note_off_c, 0, 68, 64
1, 204480, Note_on_c, 0, 67, 89
1, 204576, Note_off_c, 0, 67, 64
1, 204576, Note_on_c, 0, 65, 89
1, 204672, Note_off_c, 0, 65, 64
1, 204672, Note_on_c, 0, 73, 89
1, 204768, Note_off_c, 0, 73, 64
1, 204768, Note_on_c, 0, 70, 89
1, 204864, Note_off_c, 0, 70, 64
1, 204864, Note_on_c, 0, 72, 89
1, 204960, Note_off_c, 0, 72, 64
1, 204960, Note_on_c, 0, 73, 89
1, 205056, Note_off_c, 0, 73, 64
1, 205056, Note_on_c, 0, 72, 89
1, 205152, Note_off_c, 0, 72, 64
1, 205152, Note_on_c, 0, 70, 89
1, 205248, Note_off_c, 0, 70, 64
1, 205248, Note_on_c, 0, 79, 89
1, 205344, Note_off_c, 0, 79, 64
1, 205344, Note_on_c, 0, 76, 89
1, 205440, Note_off_c, 0, 76, 64
1, 205440, Note_on_c, 0, 77, 89
1, 205536, Note_off_c, 0, 77, 64
1, 205536, Note_on_c, 0, 79, 89
1, 205632, Note_off_c, 0, 79, 64
1, 205632, Note_on_c, 0, 77, 89
1, 205728, Note_off_c, 0, 77, 64
1, 205728, Note_on_c, 0, 76, 89
1, 205824, Note_off_c, 0, 76, 64
1, 205824, Note_on_c, 0, 80, 89
1, 205920, Note_off_c, 0, 80, 64
1, 205920, Note_on_c, 0, 77, 89
1, 206016, Note_off_c, 0, 77, 64
1, 206016, Note_on_c, 0, 79, 89
1, 206112, Note_off_c, 0, 79, 64
1, 206112, Note_on_c, 0, 80, 89
1, 206208, Note_off_c, 0, 80, 64
1, 206208, Note_on_c, 0, 79, 89
1, 206304, Note_off_c, 0, 79, 64
1, 206304, Note_on_c, 0, 77, 89
1, 206400, Note_off_c, 0, 77, 64
1, 206400, Note_on_c, 0, 82, 89
1, 206496, Note_off_c, 0, 82, 64
1, 206496, Note_on_c, 0, 79, 89
1, 206592, Note_off_c, 0, 79, 64
1, 206592, Note_on_c, 0, 80, 89
1, 206688, Note_off_c, 0, 80, 64
1, 206688, Note_on_c, 0, 82, 89
1, 206784, Note_off_c, 0, 82, 64
1, 206784, Note_on_c, 0, 80, 89
1, 206880, Note_off_c, 0, 80, 64
1, 206880, Note_on_c, 0, 79, 89
1, 206976, Pitch_bend_c, 0, 8192
1, 206976, Note_off_c, 0, 79, 64
1, 206976, Note_on_c, 0, 82, 89
1, 207022, Pitch_bend_c, 0, 8519
1, 207068, Pitch_bend_c, 0, 8847
1, 207114, Pitch_bend_c, 0, 9174
1, 207160, Pitch_bend_c, 0, 9502
1, 207206, Pitch_bend_c, 0, 9830
1, 207252, Pitch_bend_c, 0, 10157
1, 207298, Pitch_bend_c, 0, 10485
1, 207344, Pitch_bend_c, 0, 10813
1, 208800, Pitch_bend_c, 0, 8192
1, 208800, Note_off_c, 0, 82, 64
1, 208800, Note_on_c, 0, 82, 89
1, 208814, Pitch_bend_c, 0, 8519
1, 208828, Pitch_bend_c, 0, 8847
1, 208843, Pitch_bend_c, 0, 9174
1, 208857, Pitch_bend_c, 0, 9502
1, 208872, Pitch_bend_c, 0, 9830
1, 208886, Pitch_bend_c, 0, 10157
1, 208900, Pitch_bend_c, 0, 10485
1, 208915, Pitch_bend_c, 0, 10813
1, 209040, Pitch_bend_c, 0, 8192
1, 209040, Note_off_c, 0, 82, 64
1, 209040, Note_on_c, 0, 82, 89
1, 209054, Pitch_bend_c, 0, 8519
1, 209068, Pitch_bend_c, 0, 8847
1, 209083, Pitch_bend_c, 0, 9174
1, 209097, Pitch_bend_c, 0, 9502
1, 209112, Pitch_bend_c, 0, 9830
1, 209126, Pitch_bend_c, 0, 10157
1, 209140, Pitch_bend_c, 0, 10485
1, 209155, Pitch_bend_c, 0, 10813
1, 209280, Pitch_bend_c, 0, 8192
1, 209280, Note_off_c, 0, 82, 64
1, 209280, Note_on_c, 0, 82, 89
1, 209292, Pitch_bend_c, 0, 8519
1, 209305, Pitch_bend_c, 0, 8847
1, 209318, Pitch_bend_c, 0, 9174
1, 209331, Pitch_bend_c, 0, 9502
1, 209344, Pitch_bend_c, 0, 9830
1, 209356, Pitch_bend_c, 0, 10157
1, 209369, Pitch_bend_c, 0, 10485
1, 209382, Pitch_bend_c, 0, 10813
1, 209395, Pitch_bend_c, 0, 11140
1, 209408, Pitch_bend_c, 0, 11468
1, 209420, Pitch_bend_c, 0, 11796
1, 209433, Pitch_bend_c, 0, 12123
1, 209600, Pitch_bend_c, 0, 8192
1, 209600, Note_off_c, 0, 82, 64
1, 209600, Note_on_c, 0, 82, 89
1, 209619, Pitch_bend_c, 0, 8519
1, 209638, Pitch_bend_c, 0, 8847
1, 209657, Pitch_bend_c, 0, 9174
1, 209676, Pitch_bend_c, 0, 9502
1, 209696, Pitch_bend_c, 0, 9830
1, 209715, Pitch_bend_c, 0, 10157
1, 209734, Pitch_bend_c, 0, 10485
1, 209753, Pitch_bend_c, 0, 10813
1, 209920, Pitch_bend_c, 0, 8192
1, 209920, Note_off_c, 0, 82, 64
1, 209920, Note_on_c, 0, 82, 89
1, 209939, Pitch_bend_c, 0, 8519
1, 209958, Pitch_bend_c, 0, 8847
1, 209977, Pitch_bend_c, 0, 9174
1, 209996, Pitch_bend_c, 0, 9502
1, 210016, Pitch_bend_c, 0, 9830
1, 210035, Pitch_bend_c, 0, 10157
1, 210054, Pitch_bend_c, 0, 10485
1, 210073, Pitch_bend_c, 0, 10813
1, 210240, Pitch_bend_c, 0, 8192
1, 210240, Note_off_c, 0, 82, 64
1, 210240, Note_on_c, 0, 84, 89
1, 210254, Pitch_bend_c, 0, 8519
1, 210268, Pitch_bend_c, 0, 8847
1, 210283, Pitch_bend_c, 0, 9174
1, 210297, Pitch_bend_c, 0, 9502
1, 210312, Pitch_bend_c, 0, 9830
1, 210326, Pitch_bend_c, 0, 10157
1, 210340, Pitch_bend_c, 0, 10485
1, 210355, Pitch_bend_c, 0, 10813
1, 210369, Pitch_bend_c, 0, 11140
1, 210384, Pitch_bend_c, 0, 11468
1, 210398, Pitch_bend_c, 0, 11796
1, 210412, Pitch_bend_c, 0, 12123
1, 210427, Pitch_bend_c, 0, 12451
1, 210441, Pitch_bend_c, 0, 12778
1, 210456, Pitch_bend_c, 0, 13106
1, 210470, Pitch_bend_c, 0, 13434
1, 210720, Pitch_bend_c, 0, 13652
1, 210748, Pitch_bend_c, 0, 13325
1, 210777, Pitch_bend_c, 0, 12997
1, 210806, Pitch_bend_c, 0, 12669
1, 210835, Pitch_bend_c, 0, 12342
1, 210864, Pitch_bend_c, 0, 12014
1, 210892, Pitch_bend_c, 0, 11686
1, 210921, Pitch_bend_c, 0, 11359
1, 210950, Pitch_bend_c, 0, 11031
1, 210979, Pitch_bend_c, 0, 10703
1, 211008, Pitch_bend_c, 0, 10376
1, 211036, Pitch_bend_c, 0, 10048
1, 211065, Pitch_bend_c, 0, 9720
1, 211094, Pitch_bend_c, 0, 9393
1, 211123, Pitch_bend_c, 0, 9065
1, 211152, Pitch_bend_c, 0, 8738
1, 211180, Pitch_bend_c, 0, 8410
1, 211200, Pitch_bend_c, 0, 8192
1, 211200, Note_off_c, 0, 84, 64
1, 211200, Note_on_c, 0, 84, 89
1, 212160, Pitch_bend_c, 0, 8192
1, 212160, Note_off_c, 0, 84, 64
1, 212400, Note_on_c, 0, 80, 89
1, 212520, Note_off_c, 0, 80, 64
1, 212520, Note_on_c, 0, 82, 89
1, 212640, Note_off_c, 0, 82, 64
1, 212640, Note_on_c, 0, 84, 89
1, 212736, Note_off_c, 0, 84, 64
1, 212736, Note_on_c, 0, 82, 89
1, 212832, Note_off_c, 0, 82, 64
1, 212832, Note_on_c, 0, 80, 89
1, 212928, Note_off_c, 0, 80, 64
1, 212928, Note_on_c, 0, 79, 89
1, 213024, Note_off_c, 0, 79, 64
1, 213024, Note_on_c, 0, 80, 89
1, 213120, Note_off_c, 0, 80, 64
1, 213120, Note_on_c, 0, 82, 89
1, 213216, Note_off_c, 0, 82, 64
1, 213216, Note_on_c, 0, 80, 89
1, 213312, Note_off_c, 0, 80, 64
1, 213312, Note_on_c, 0, 79, 89
1, 213408, Note_off_c, 0, 79, 64
1, 213408, Note_on_c, 0, 77, 89
1, 213504, Note_off_c, 0, 77, 64
1, 213504, Note_on_c, 0, 79, 89
1, 213600, Note_off_c, 0, 79, 64
1, 213600, Note_on_c, 0, 80, 89
1, 213696, Note_off_c, 0, 80, 64
1, 213696, Note_on_c, 0, 79, 102
1, 213792, Note_off_c, 0, 79, 64
1, 213792, Note_on_c, 0, 77, 102
1, 213888, Note_off_c, 0, 77, 64
1, 213888, Note_on_c, 0, 76, 102
1, 213984, Note_off_c, 0, 76, 64
1, 213984, Note_on_c, 0, 77, 102
1, 214080, Note_off_c, 0, 77, 64
1, 214080, Note_on_c, 0, 76, 102
1, 214160, Note_off_c, 0, 76, 64
1, 214240, Note_on_c, 0, 72, 89
1, 214320, Note_off_c, 0, 72, 64
1, 214320, Note_on_c, 0, 70, 89
1, 214400, Note_off_c, 0, 70, 64
1, 214400, Note_on_c, 0, 68, 89
1, 214480, Note_off_c, 0, 68, 64
1, 214480, Note_on_c, 0, 72, 89
1, 214560, Note_off_c, 0, 72, 64
1, 214560, Note_on_c, 0, 70, 89
1, 214640, Note_off_c, 0, 70, 64
1, 214640, Note_on_c, 0, 68, 89
1, 214720, Note_off_c, 0, 68, 64
1, 214720, Note_on_c, 0, 70, 89
1, 214800, Note_off_c, 0, 70, 64
1, 214800, Note_on_c, 0, 68, 89
1, 214880, Note_off_c, 0, 68, 64
1, 214880, Note_on_c, 0, 67, 89
1, 215280, Note_off_c, 0, 67, 64
1, 215280, Note_on_c, 0, 80, 89
1, 215400, Note_off_c, 0, 80, 64
1, 215400, Note_on_c, 0, 79, 89
1, 215520, Note_off_c, 0, 79, 64
1, 215520, Note_on_c, 0, 77, 89
1, 215640, Note_off_c, 0, 77, 64
1, 215640, Note_on_c, 0, 76, 89
1, 215760, Note_off_c, 0, 76, 64
1, 215760, Note_on_c, 0, 73, 89
1, 215880, Note_off_c, 0, 73, 64
1, 215880, Note_on_c, 0, 72, 89
1, 216000, Note_off_c, 0, 72, 64
1, 216000, Note_on_c, 0, 79, 89
1, 216120, Note_off_c, 0, 79, 64
1, 216120, Note_on_c, 0, 77, 89
1, 216240, Note_off_c, 0, 77, 64
1, 216240, Note_on_c, 0, 76, 102
1, 216360, Note_off_c, 0, 76, 64
1, 216360, Note_on_c, 0, 73, 89
1, 216480, Note_off_c, 0, 73, 64
1, 216480, Note_on_c, 0, 72, 89
1, 216600, Note_off_c, 0, 72, 64
1, 216600, Note_on_c, 0, 80, 89
1, 216720, Note_off_c, 0, 80, 64
1, 216720, Note_on_c, 0, 79, 89
1, 216840, Note_off_c, 0, 79, 64
1, 216840, Note_on_c, 0, 77, 89
1, 216960, Note_off_c, 0, 77, 64
1, 216960, Note_on_c, 0, 76, 89
1, 217080, Note_off_c, 0, 76, 64
1, 217080, Note_on_c, 0, 73, 89
1, 217200, Note_off_c, 0, 73, 64
1, 217200, Note_on_c, 0, 72, 89
1, 217320, Note_off_c, 0, 72, 64
1, 217320, Note_on_c, 0, 79, 89
1, 217440, Note_off_c, 0, 79, 64
1, 217440, Note_on_c, 0, 77, 89
1, 217560, Note_off_c, 0, 77, 64
1, 217560, Note_on_c, 0, 76, 89
1, 217680, Note_off_c, 0, 76, 64
1, 217680, Note_on_c, 0, 73, 89
1, 217800, Note_off_c, 0, 73, 64
1, 217800, Note_on_c, 0, 72, 89
1, 217920, Note_off_c, 0, 72, 64
1, 217920, Note_on_c, 0, 80, 89
1, 218040, Note_off_c, 0, 80, 64
1, 218040, Note_on_c, 0, 79, 89
1, 218160, Note_off_c, 0, 79, 64
1, 218160, Note_on_c, 0, 77, 89
1, 218280, Note_off_c, 0, 77, 64
1, 218280, Note_on_c, 0, 76, 89
1, 218400, Note_off_c, 0, 76, 64
1, 218400, Note_on_c, 0, 79, 89
1, 218520, Note_off_c, 0, 79, 64
1, 218520, Note_on_c, 0, 77, 89
1, 218640, Note_off_c, 0, 77, 64
1, 218640, Note_on_c, 0, 76, 89
1, 218760, Note_off_c, 0, 76, 64
1, 218760, Note_on_c, 0, 73, 89
1, 218880, Note_off_c, 0, 73, 64
1, 218880, Note_on_c, 0, 77, 89
1, 219000, Note_off_c, 0, 77, 64
1, 219000, Note_on_c, 0, 76, 89
1, 219120, Note_off_c, 0, 76, 64
1, 219120, Note_on_c, 0, 73, 89
1, 219240, Note_off_c, 0, 73, 64
1, 219240, Note_on_c, 0, 72, 89
1, 219360, Note_off_c, 0, 72, 64
1, 219360, Note_on_c, 0, 73, 89
1, 219440, Note_off_c, 0, 73, 64
1, 219440, Note_on_c, 0, 76, 89
1, 219520, Note_off_c, 0, 76, 64
1, 219520, Note_on_c, 0, 73, 89
1, 219600, Note_off_c, 0, 73, 64
1, 219600, Note_on_c, 0, 72, 89
1, 219680, Note_off_c, 0, 72, 64
1, 219680, Note_on_c, 0, 73, 89
1, 219760, Note_off_c, 0, 73, 64
1, 219760, Note_on_c, 0, 72, 89
1, 219840, Note_off_c, 0, 72, 64
1, 219840, Note_on_c, 0, 70, 89
1, 219920, Note_off_c, 0, 70, 64
1, 219920, Note_on_c, 0, 68, 89
1, 220000, Note_off_c, 0, 68, 64
1, 220000, Note_on_c, 0, 72, 89
1, 220080, Note_off_c, 0, 72, 64
1, 220080, Note_on_c, 0, 70, 89
1, 220160, Note_off_c, 0, 70, 64
1, 220160, Note_on_c, 0, 68, 89
1, 220240, Note_off_c, 0, 68, 64
1, 220240, Note_on_c, 0, 67, 89
1, 220320, Note_off_c, 0, 67, 64
1, 220320, Note_on_c, 0, 70, 89
1, 220440, Note_off_c, 0, 70, 64
1, 220440, Note_on_c, 0, 68, 89
1, 220560, Note_off_c, 0, 68, 64
1, 220560, Note_on_c, 0, 67, 89
1, 220680, Note_off_c, 0, 67, 64
1, 220680, Note_on_c, 0, 65, 89
1, 220800, Note_off_c, 0, 65, 64
1, 220800, Note_on_c, 0, 68, 89
1, 220920, Note_off_c, 0, 68, 64
1, 220920, Note_on_c, 0, 67, 89
1, 221040, Note_off_c, 0, 67, 64
1, 221040, Note_on_c, 0, 65, 89
1, 221160, Note_off_c, 0, 65, 64
1, 221160, Note_on_c, 0, 67, 89
1, 221280, Note_off_c, 0, 67, 64
1, 221280, Note_on_c, 0, 68, 89
1, 221400, Note_off_c, 0, 68, 64
1, 221400, Note_on_c, 0, 67, 89
1, 221520, Note_off_c, 0, 67, 64
1, 221520, Note_on_c, 0, 65, 89
1, 221640, Note_off_c, 0, 65, 64
1, 221640, Note_on_c, 0, 67, 89
1, 221760, Pitch_bend_c, 0, 8192
1, 221760, Note_off_c, 0, 67, 64
1, 221760, Note_on_c, 0, 65, 89
1, 222720, Pitch_bend_c, 0, 8192
1, 222720, Note_off_c, 0, 65, 64
1, 222720, Note_on_c, 0, 82, 89
1, 223200, Note_off_c, 0, 82, 64
1, 223200, Note_on_c, 0, 79, 89
1, 223440, Note_off_c, 0, 79, 64
1, 223440, Note_on_c, 0, 80, 89
1, 223560, Note_off_c, 0, 80, 64
1, 223560, Note_on_c, 0, 77, 89
1, 223680, Note_off_c, 0, 77, 64
1, 223680, Note_on_c, 0, 79, 89
1, 223800, Note_off_c, 0, 79, 64
1, 223800, Note_on_c, 0, 76, 89
1, 223920, Note_off_c, 0, 76, 64
1, 223920, Note_on_c, 0, 77, 89
1, 224040, Note_off_c, 0, 77, 64
1, 224040, Note_on_c, 0, 73, 89
1, 224160, Note_off_c, 0, 73, 64
1, 224160, Note_on_c, 0, 76, 89
1, 224280, Note_off_c, 0, 76, 64
1, 224280, Note_on_c, 0, 72, 89
1, 224400, Note_off_c, 0, 72, 64
1, 224400, Note_on_c, 0, 73, 89
1, 224480, Note_off_c, 0, 73, 64
1, 224480, Note_on_c, 0, 70, 89
1, 224560, Note_off_c, 0, 70, 64
1, 224560, Note_on_c, 0, 72, 89
1, 224640, Note_off_c, 0, 72, 64
1, 224640, Note_on_c, 0, 67, 89
1, 224760, Note_off_c, 0, 67, 64
1, 224760, Note_on_c, 0, 68, 89
1, 224880, Note_off_c, 0, 68, 64
1, 224880, Note_on_c, 0, 65, 89
1, 225000, Note_off_c, 0, 65, 64
1, 225000, Note_on_c, 0, 67, 89
1, 225120, Note_off_c, 0, 67, 64
1, 225120, Note_on_c, 0, 63, 89
1, 225240, Note_off_c, 0, 63, 64
1, 225240, Note_on_c, 0, 65, 89
1, 225360, Note_off_c, 0, 65, 64
1, 225360, Note_on_c, 0, 61, 89
1, 225480, Note_off_c, 0, 61, 64
1, 225480, Note_on_c, 0, 63, 89
1, 225600, Pitch_bend_c, 0, 8192
1, 225600, Note_off_c, 0, 63, 64
1, 225600, Note_on_c, 0, 60, 89
1, 226320, Pitch_bend_c, 0, 8192
1, 226320, Note_off_c, 0, 60, 64
1, 226320, Note_on_c, 0, 70, 89
1, 226560, Note_off_c, 0, 70, 64
1, 226560, Note_on_c, 0, 72, 89
1, 226666, Note_off_c, 0, 72, 64
1, 226666, Note_on_c, 0, 70, 89
1, 226772, Note_off_c, 0, 70, 64
1, 226773, Note_on_c, 0, 68, 89
1, 226879, Note_off_c, 0, 68, 64
1, 226880, Note_on_c, 0, 67, 89
1, 226986, Note_off_c, 0, 67, 64
1, 226986, Note_on_c, 0, 65, 89
1, 227092, Note_off_c, 0, 65, 64
1, 227093, Note_on_c, 0, 63, 89
1, 227199, Note_off_c, 0, 63, 64
1, 227200, Note_on_c, 0, 61, 89
1, 227306, Note_off_c, 0, 61, 64
1, 227306, Note_on_c, 0, 60, 89
1, 227412, Note_off_c, 0, 60, 64
1, 227413, Note_on_c, 0, 58, 89
1, 227519, Note_off_c, 0, 58, 64
1, 227520, Note_on_c, 0, 67, 89
1, 227626, Note_off_c, 0, 67, 64
1, 227626, Note_on_c, 0, 65, 89
1, 227732, Note_off_c, 0, 65, 64
1, 227733, Note_on_c, 0, 64, 89
1, 227839, Note_off_c, 0, 64, 64
1, 227840, Note_on_c, 0, 61, 89
1, 227946, Note_off_c, 0, 61, 64
1, 227946, Note_on_c, 0, 60, 89
1, 228052, Note_off_c, 0, 60, 64
1, 228053, Note_on_c, 0, 58, 89
1, 228159, Note_off_c, 0, 58, 64
1, 228160, Note_on_c, 0, 56, 89
1, 228266, Note_off_c, 0, 56, 64
1, 228266, Note_on_c, 0, 65, 89
1, 228372, Note_off_c, 0, 65, 64
1, 228373, Note_on_c, 0, 63, 89
1, 228479, Note_off_c, 0, 63, 64
1, 228480, Note_on_c, 0, 61, 89
1, 228600, Note_off_c, 0, 61, 64
1, 228600, Note_on_c, 0, 60, 89
1, 228720, Note_off_c, 0, 60, 64
1, 228720, Note_on_c, 0, 58, 89
1, 228840, Note_off_c, 0, 58, 64
1, 228840, Note_on_c, 0, 56, 89
1, 228960, Note_off_c, 0, 56, 64
1, 228960, Note_on_c, 0, 60, 89
1, 229080, Note_off_c, 0, 60, 64
1, 229080, Note_on_c, 0, 58, 89
1, 229200, Note_off_c, 0, 58, 64
1, 229200, Note_on_c, 0, 56, 89
1, 229320, Note_off_c, 0, 56, 64
1, 229320, Note_on_c, 0, 55, 89
1, 229440, Note_off_c, 0, 55, 64
1, 229440, Note_on_c, 0, 58, 89
1, 229560, Note_off_c, 0, 58, 64
1, 229560, Note_on_c, 0, 56, 89
1, 229680, Note_off_c, 0, 56, 64
1, 229680, Note_on_c, 0, 55, 89
1, 229800, Note_off_c, 0, 55, 64
1, 229800, Note_on_c, 0, 53, 89
1, 229920, Note_off_c, 0, 53, 64
1, 229920, Note_on_c, 0, 56, 89
1, 230040, Note_off_c, 0, 56, 64
1, 230040, Note_on_c, 0, 55, 89
1, 230160, Note_off_c, 0, 55, 64
1, 230160, Note_on_c, 0, 53, 89
1, 230280, Note_off_c, 0, 53, 64
1, 230280, Note_on_c, 0, 52, 102
1, 230400, Pitch_bend_c, 0, 8192
1, 230400, Note_off_c, 0, 52, 64
1, 230400, Note_on_c, 0, 68, 89
1, 230486, Pitch_bend_c, 0, 8519
1, 230572, Pitch_bend_c, 0, 8847
1, 230659, Pitch_bend_c, 0, 9174
1, 230745, Pitch_bend_c, 0, 9502
1, 230832, Pitch_bend_c, 0, 9830
1, 230918, Pitch_bend_c, 0, 10157
1, 231004, Pitch_bend_c, 0, 10485
1, 231091, Pitch_bend_c, 0, 10813
1, 231840, Pitch_bend_c, 0, 8192
1, 231840, Note_off_c, 0, 68, 64
1, 231840, Note_on_c, 0, 70, 89
1, 231960, Note_off_c, 0, 70, 64
1, 231960, Note_on_c, 0, 68, 89
1, 232080, Note_off_c, 0, 68, 64
1, 232080, Note_on_c, 0, 67, 89
1, 232200, Note_off_c, 0, 67, 64
1, 232200, Note_on_c, 0, 65, 89
1, 232320, Note_off_c, 0, 65, 64
1, 232320, Note_on_c, 0, 73, 89
1, 232440, Note_off_c, 0, 73, 64
1, 232440, Note_on_c, 0, 72, 89
1, 232560, Note_off_c, 0, 72, 64
1, 232560, Note_on_c, 0, 70, 89
1, 232680, Note_off_c, 0, 70, 64
1, 232680, Note_on_c, 0, 68, 89
1, 232800, Note_off_c, 0, 68, 64
1, 232800, Note_on_c, 0, 72, 89
1, 232920, Note_off_c, 0, 72, 64
1, 232920, Note_on_c, 0, 70, 89
1, 233040, Note_off_c, 0, 70, 64
1, 233040, Note_on_c, 0, 68, 89
1, 233160, Note_off_c, 0, 68, 64
1, 233160, Note_on_c, 0, 67, 89
1, 233280, Note_off_c, 0, 67, 64
1, 233280, Note_on_c, 0, 58, 89
1, 233400, Note_off_c, 0, 58, 64
1, 233400, Note_on_c, 0, 70, 89
1, 233520, Note_off_c, 0, 70, 64
1, 233520, Note_on_c, 0, 68, 89
1, 233640, Note_off_c, 0, 68, 64
1, 233640, Note_on_c, 0, 67, 89
1, 233760, Note_off_c, 0, 67, 64
1, 233760, Note_on_c, 0, 65, 89
1, 233880, Note_off_c, 0, 65, 64
1, 233880, Note_on_c, 0, 67, 89
1, 234000, Pitch_bend_c, 0, 8192
1, 234000, Note_off_c, 0, 67, 64
1, 234000, Note_on_c, 0, 65, 89
1, 234028, Pitch_bend_c, 0, 8519
1, 234057, Pitch_bend_c, 0, 8847
1, 234086, Pitch_bend_c, 0, 9174
1, 234115, Pitch_bend_c, 0, 9502
1, 234144, Pitch_bend_c, 0, 9830
1, 234172, Pitch_bend_c, 0, 10157
1, 234201, Pitch_bend_c, 0, 10485
1, 234230, Pitch_bend_c, 0, 10813
1, 234560, Pitch_bend_c, 0, 10922
1, 234560, Note_off_c, 0, 65, 64
1, 234560, Note_on_c, 0, 65, 89
1, 234880, Pitch_bend_c, 0, 10922
1, 234880, Note_off_c, 0, 65, 64
1, 234880, Note_on_c, 0, 65, 89
1, 235200, Pitch_bend_c, 0, 8192
1, 235200, Note_off_c, 0, 65, 64
1, 235440, Pitch_bend_c, 0, 10922
1, 235440, Note_on_c, 0, 65, 89
1, 235680, Pitch_bend_c, 0, 8192
1, 235680, Note_off_c, 0, 65, 64
1, 235920, Pitch_bend_c, 0, 10922
1, 235920, Note_on_c, 0, 65, 89
1, 236160, Pitch_bend_c, 0, 8192
1, 236160, Note_off_c, 0, 65, 64
1, 236160, Note_on_c, 0, 65, 89
1, 236174, Pitch_bend_c, 0, 8519
1, 236188, Pitch_bend_c, 0, 8847
1, 236203, Pitch_bend_c, 0, 9174
1, 236217, Pitch_bend_c, 0, 9502
1, 236232, Pitch_bend_c, 0, 9830
1, 236246, Pitch_bend_c, 0, 10157
1, 236260, Pitch_bend_c, 0, 10485
1, 236275, Pitch_bend_c, 0, 10813
1, 236400, Pitch_bend_c, 0, 10922
1, 236414, Pitch_bend_c, 0, 10594
1, 236428, Pitch_bend_c, 0, 10267
1, 236443, Pitch_bend_c, 0, 9939
1, 236457, Pitch_bend_c, 0, 9611
1, 236472, Pitch_bend_c, 0, 9284
1, 236486, Pitch_bend_c, 0, 8956
1, 236500, Pitch_bend_c, 0, 8628
1, 236515, Pitch_bend_c, 0, 8301
1, 236640, Pitch_bend_c, 0, 10922
1, 236640, Note_off_c, 0, 65, 64
1, 236640, Note_on_c, 0, 65, 89
1, 237120, Pitch_bend_c, 0, 10922
1, 237120, Note_off_c, 0, 65, 64
1, 237120, Note_on_c, 0, 65, 89
1, 237158, Pitch_bend_c, 0, 10594
1, 237196, Pitch_bend_c, 0, 10267
1, 237235, Pitch_bend_c, 0, 9939
1, 237273, Pitch_bend_c, 0, 9611
1, 237312, Pitch_bend_c, 0, 9284
1, 237350, Pitch_bend_c, 0, 8956
1, 237388, Pitch_bend_c, 0, 8628
1, 237427, Pitch_bend_c, 0, 8301
1, 237600, Pitch_bend_c, 0, 8192
1, 237600, Note_off_c, 0, 65, 64
1, 237600, Note_on_c, 0, 64, 89
1, 237657, Pitch_bend_c, 0, 8519
1, 237715, Pitch_bend_c, 0, 8847
1, 237772, Pitch_bend_c, 0, 9174
1, 237830, Pitch_bend_c, 0, 9502
1, 237888, Pitch_bend_c, 0, 9830
1, 237945, Pitch_bend_c, 0, 10157
1, 238003, Pitch_bend_c, 0, 10485
1, 238060, Pitch_bend_c, 0, 10813
1, 241920, Note_off_c, 0, 64, 0
1, 241920, Control_c, 0, 123, 0
1, 241920, End_track
0, 0, End_of_file
