0, 0, Header, 0, 1, 960
1, 0, Start_track
1, 0, Title_t, "Solo Cello"
1, 0, Program_c, 0, 42
1, 0, Control_c, 0, 7, 100
1, 0, Control_c, 0, 10, 64
1, 0, Note_on_c, 0, 60, 100
1, 480, Note_on_c, 0, 60, 0
1, 480, Note_on_c, 0, 59, 100
1, 720, Note_on_c, 0, 59, 0
1, 720, Note_on_c, 0, 57, 100
1, 960, Note_on_c, 0, 57, 0
1, 960, Note_on_c, 0, 55, 100
1, 1200, Note_on_c, 0, 55, 0
1, 1200, Note_on_c, 0, 53, 100
1, 1440, Note_on_c, 0, 53, 0
1, 1440, Note_on_c, 0, 52, 100
1, 1680, Note_on_c, 0, 52, 0
1, 1680, Note_on_c, 0, 50, 100
1, 1920, Note_on_c, 0, 50, 0
1, 1920, Note_on_c, 0, 48, 100
1, 2160, Note_on_c, 0, 48, 0
1, 2160, Note_on_c, 0, 43, 100
1, 2400, Note_on_c, 0, 43, 0
1, 2400, Note_on_c, 0, 40, 100
1, 2640, Note_on_c, 0, 40, 0
1, 2640, Note_on_c, 0, 43, 100
1, 2880, Note_on_c, 0, 43, 0
1, 2880, Note_on_c, 0, 36, 100
1, 4080, Note_on_c, 0, 36, 0
1, 4080, Note_on_c, 0, 38, 100
1, 4320, Note_on_c, 0, 38, 0
1, 4320, Note_on_c, 0, 40, 100
1, 4560, Note_on_c, 0, 40, 0
1, 4560, Note_on_c, 0, 41, 100
1, 4800, Note_on_c, 0, 41, 0
1, 4800, Note_on_c, 0, 43, 100
1, 5040, Note_on_c, 0, 43, 0
1, 5040, Note_on_c, 0, 45, 100
1, 5280, Note_on_c, 0, 45, 0
1, 5280, Note_on_c, 0, 47, 100
1, 5520, Note_on_c, 0, 47, 0
1, 5520, Note_on_c, 0, 48, 100
1, 5760, Note_on_c, 0, 48, 0
1, 5760, Note_on_c, 0, 50, 100
1, 6000, Note_on_c, 0, 50, 0
1, 6000, Note_on_c, 0, 48, 100
1, 6240, Note_on_c, 0, 48, 0
1, 6240, Note_on_c, 0, 47, 100
1, 6480, Note_on_c, 0, 47, 0
1, 6480, Note_on_c, 0, 45, 100
1, 6720, Note_on_c, 0, 45, 0
1, 6720, Note_on_c, 0, 43, 100
1, 6960, Note_on_c, 0, 43, 0
1, 6960, Note_on_c, 0, 45, 100
1, 7200, Note_on_c, 0, 45, 0
1, 7200, Note_on_c, 0, 47, 100
1, 7440, Note_on_c, 0, 47, 0
1, 7440, Note_on_c, 0, 48, 100
1, 7680, Note_on_c, 0, 48, 0
1, 7680, Note_on_c, 0, 50, 100
1, 7920, Note_on_c, 0, 50, 0
1, 7920, Note_on_c, 0, 52, 100
1, 8160, Note_on_c, 0, 52, 0
1, 8160, Note_on_c, 0, 53, 100
1, 8400, Note_on_c, 0, 53, 0
1, 8400, Note_on_c, 0, 50, 100
1, 8640, Note_on_c, 0, 50, 0
1, 8640, Note_on_c, 0, 52, 100
1, 8880, Note_on_c, 0, 52, 0
1, 8880, Note_on_c, 0, 53, 100
1, 9120, Note_on_c, 0, 53, 0
1, 9120, Note_on_c, 0, 52, 100
1, 9360, Note_on_c, 0, 52, 0
1, 9360, Note_on_c, 0, 50, 100
1, 9600, Note_on_c, 0, 50, 0
1, 9600, Note_on_c, 0, 48, 100
1, 9840, Note_on_c, 0, 48, 0
1, 9840, Note_on_c, 0, 50, 100
1, 10080, Note_on_c, 0, 50, 0
1, 10080, Note_on_c, 0, 52, 100
1, 10320, Note_on_c, 0, 52, 0
1, 10320, Note_on_c, 0, 53, 100
1, 10560, Note_on_c, 0, 53, 0
1, 10560, Note_on_c, 0, 55, 100
1, 10800, Note_on_c, 0, 55, 0
1, 10800, Note_on_c, 0, 57, 100
1, 11040, Note_on_c, 0, 57, 0
1, 11040, Note_on_c, 0, 59, 100
1, 11280, Note_on_c, 0, 59, 0
1, 11280, Note_on_c, 0, 60, 100
1, 11520, Note_on_c, 0, 60, 0
1, 11520, Note_on_c, 0, 62, 100
1, 11760, Note_on_c, 0, 62, 0
1, 11760, Note_on_c, 0, 60, 100
1, 12000, Note_on_c, 0, 60, 0
1, 12000, Note_on_c, 0, 59, 100
1, 12240, Note_on_c, 0, 59, 0
1, 12240, Note_on_c, 0, 57, 100
1, 12480, Note_on_c, 0, 57, 0
1, 12480, Note_on_c, 0, 55, 100
1, 12720, Note_on_c, 0, 55, 0
1, 12720, Note_on_c, 0, 57, 100
1, 12960, Note_on_c, 0, 57, 0
1, 12960, Note_on_c, 0, 59, 100
1, 13200, Note_on_c, 0, 59, 0
1, 13200, Note_on_c, 0, 60, 100
1, 13440, Note_on_c, 0, 60, 0
1, 13440, Note_on_c, 0, 62, 100
1, 13680, Note_on_c, 0, 62, 0
1, 13680, Note_on_c, 0, 64, 100
1, 13920, Note_on_c, 0, 64, 0
1, 13920, Note_on_c, 0, 65, 100
1, 14160, Note_on_c, 0, 65, 0
1, 14160, Note_on_c, 0, 62, 100
1, 14400, Note_on_c, 0, 62, 0
1, 14400, Note_on_c, 0, 64, 100
1, 14640, Note_on_c, 0, 64, 0
1, 14640, Note_on_c, 0, 65, 100
1, 14880, Note_on_c, 0, 65, 0
1, 14880, Note_on_c, 0, 64, 100
1, 15120, Note_on_c, 0, 64, 0
1, 15120, Note_on_c, 0, 62, 100
1, 15360, Note_on_c, 0, 62, 0
1, 15360, Note_on_c, 0, 60, 100
1, 15600, Note_on_c, 0, 60, 0
1, 15600, Note_on_c, 0, 60, 100
1, 15840, Note_on_c, 0, 60, 0
1, 15840, Note_on_c, 0, 59, 100
1, 16080, Note_on_c, 0, 59, 0
1, 16080, Note_on_c, 0, 57, 100
1, 16320, Note_on_c, 0, 57, 0
1, 16320, Note_on_c, 0, 55, 100
1, 16560, Note_on_c, 0, 55, 0
1, 16560, Note_on_c, 0, 53, 100
1, 16800, Note_on_c, 0, 53, 0
1, 16800, Note_on_c, 0, 52, 100
1, 17040, Note_on_c, 0, 52, 0
1, 17040, Note_on_c, 0, 50, 100
1, 17280, Note_on_c, 0, 50, 0
1, 17280, Note_on_c, 0, 48, 100
1, 17520, Note_on_c, 0, 48, 0
1, 17520, Note_on_c, 0, 59, 100
1, 17760, Note_on_c, 0, 59, 0
1, 17760, Note_on_c, 0, 60, 100
1, 18000, Note_on_c, 0, 60, 0
1, 18000, Note_on_c, 0, 62, 100
1, 18240, Note_on_c, 0, 62, 0
1, 18240, Note_on_c, 0, 64, 100
1, 18480, Note_on_c, 0, 64, 0
1, 18480, Note_on_c, 0, 62, 100
1, 18720, Note_on_c, 0, 62, 0
1, 18720, Note_on_c, 0, 60, 100
1, 18960, Note_on_c, 0, 60, 0
1, 18960, Note_on_c, 0, 59, 100
1, 19200, Note_on_c, 0, 59, 0
1, 19200, Note_on_c, 0, 57, 100
1, 19440, Note_on_c, 0, 57, 0
1, 19440, Note_on_c, 0, 60, 100
1, 19680, Note_on_c, 0, 60, 0
1, 19680, Note_on_c, 0, 55, 100
1, 19920, Note_on_c, 0, 55, 0
1, 19920, Note_on_c, 0, 60, 100
1, 20160, Note_on_c, 0, 60, 0
1, 20160, Note_on_c, 0, 54, 100
1, 20400, Note_on_c, 0, 54, 0
1, 20400, Note_on_c, 0, 52, 100
1, 20640, Note_on_c, 0, 52, 0
1, 20640, Note_on_c, 0, 54, 100
1, 20880, Note_on_c, 0, 54, 0
1, 20880, Note_on_c, 0, 55, 100
1, 21120, Note_on_c, 0, 55, 0
1, 21120, Note_on_c, 0, 57, 100
1, 21360, Note_on_c, 0, 57, 0
1, 21360, Note_on_c, 0, 55, 100
1, 21600, Note_on_c, 0, 55, 0
1, 21600, Note_on_c, 0, 54, 100
1, 21840, Note_on_c, 0, 54, 0
1, 21840, Note_on_c, 0, 52, 100
1, 22080, Note_on_c, 0, 52, 0
1, 22080, Note_on_c, 0, 50, 100
1, 22320, Note_on_c, 0, 50, 0
1, 22320, Note_on_c, 0, 54, 100
1, 22560, Note_on_c, 0, 54, 0
1, 22560, Note_on_c, 0, 48, 100
1, 22800, Note_on_c, 0, 48, 0
1, 22800, Note_on_c, 0, 54, 100
1, 23040, Note_on_c, 0, 54, 0
1, 23040, Note_on_c, 0, 47, 100
1, 23280, Note_on_c, 0, 47, 0
1, 23280, Note_on_c, 0, 57, 100
1, 23520, Note_on_c, 0, 57, 0
1, 23520, Note_on_c, 0, 59, 100
1, 23760, Note_on_c, 0, 59, 0
1, 23760, Note_on_c, 0, 60, 100
1, 24000, Note_on_c, 0, 60, 0
1, 24000, Note_on_c, 0, 62, 100
1, 24240, Note_on_c, 0, 62, 0
1, 24240, Note_on_c, 0, 60, 100
1, 24480, Note_on_c, 0, 60, 0
1, 24480, Note_on_c, 0, 59, 100
1, 24720, Note_on_c, 0, 59, 0
1, 24720, Note_on_c, 0, 57, 100
1, 24960, Note_on_c, 0, 57, 0
1, 24960, Note_on_c, 0, 55, 100
1, 25200, Note_on_c, 0, 55, 0
1, 25200, Note_on_c, 0, 59, 100
1, 25440, Note_on_c, 0, 59, 0
1, 25440, Note_on_c, 0, 54, 100
1, 25680, Note_on_c, 0, 54, 0
1, 25680, Note_on_c, 0, 59, 100
1, 25920, Note_on_c, 0, 59, 0
1, 25920, Note_on_c, 0, 52, 100
1, 26160, Note_on_c, 0, 52, 0
1, 26160, Note_on_c, 0, 50, 100
1, 26400, Note_on_c, 0, 50, 0
1, 26400, Note_on_c, 0, 52, 100
1, 26640, Note_on_c, 0, 52, 0
1, 26640, Note_on_c, 0, 54, 100
1, 26880, Note_on_c, 0, 54, 0
1, 26880, Note_on_c, 0, 55, 100
1, 27120, Note_on_c, 0, 55, 0
1, 27120, Note_on_c, 0, 54, 100
1, 27360, Note_on_c, 0, 54, 0
1, 27360, Note_on_c, 0, 52, 100
1, 27600, Note_on_c, 0, 52, 0
1, 27600, Note_on_c, 0, 50, 100
1, 27840, Note_on_c, 0, 50, 0
1, 27840, Note_on_c, 0, 48, 100
1, 28080, Note_on_c, 0, 48, 0
1, 28080, Note_on_c, 0, 52, 100
1, 28320, Note_on_c, 0, 52, 0
1, 28320, Note_on_c, 0, 47, 100
1, 28560, Note_on_c, 0, 47, 0
1, 28560, Note_on_c, 0, 52, 100
1, 28800, Note_on_c, 0, 52, 0
1, 28800, Note_on_c, 0, 45, 100
1, 29040, Note_on_c, 0, 45, 0
1, 29040, Note_on_c, 0, 55, 100
1, 29280, Note_on_c, 0, 55, 0
1, 29280, Note_on_c, 0, 57, 100
1, 29520, Note_on_c, 0, 57, 0
1, 29520, Note_on_c, 0, 59, 100
1, 29760, Note_on_c, 0, 59, 0
1, 29760, Note_on_c, 0, 60, 100
1, 30000, Note_on_c, 0, 60, 0
1, 30000, Note_on_c, 0, 59, 100
1, 30240, Note_on_c, 0, 59, 0
1, 30240, Note_on_c, 0, 57, 100
1, 30480, Note_on_c, 0, 57, 0
1, 30480, Note_on_c, 0, 55, 100
1, 30720, Note_on_c, 0, 55, 0
1, 30720, Note_on_c, 0, 54, 100
1, 30960, Note_on_c, 0, 54, 0
1, 30960, Note_on_c, 0, 57, 100
1, 31200, Note_on_c, 0, 57, 0
1, 31200, Note_on_c, 0, 52, 100
1, 31440, Note_on_c, 0, 52, 0
1, 31440, Note_on_c, 0, 57, 100
1, 31680, Note_on_c, 0, 57, 0
1, 31680, Note_on_c, 0, 50, 100
1, 31920, Note_on_c, 0, 50, 0
1, 31920, Note_on_c, 0, 48, 100
1, 32160, Note_on_c, 0, 48, 0
1, 32160, Note_on_c, 0, 50, 100
1, 32400, Note_on_c, 0, 50, 0
1, 32400, Note_on_c, 0, 52, 100
1, 32640, Note_on_c, 0, 52, 0
1, 32640, Note_on_c, 0, 54, 100
1, 32880, Note_on_c, 0, 54, 0
1, 32880, Note_on_c, 0, 52, 100
1, 33120, Note_on_c, 0, 52, 0
1, 33120, Note_on_c, 0, 50, 100
1, 33360, Note_on_c, 0, 50, 0
1, 33360, Note_on_c, 0, 48, 100
1, 33600, Note_on_c, 0, 48, 0
1, 33600, Note_on_c, 0, 47, 100
1, 33840, Note_on_c, 0, 47, 0
1, 33840, Note_on_c, 0, 50, 100
1, 34080, Note_on_c, 0, 50, 0
1, 34080, Note_on_c, 0, 45, 100
1, 34320, Note_on_c, 0, 45, 0
1, 34320, Note_on_c, 0, 50, 100
1, 34560, Note_on_c, 0, 50, 0
1, 34560, Note_on_c, 0, 43, 100
1, 34800, Note_on_c, 0, 43, 0
1, 34800, Note_on_c, 0, 50, 100
1, 35040, Note_on_c, 0, 50, 0
1, 35040, Note_on_c, 0, 52, 100
1, 35280, Note_on_c, 0, 52, 0
1, 35280, Note_on_c, 0, 54, 100
1, 35520, Note_on_c, 0, 54, 0
1, 35520, Note_on_c, 0, 55, 100
1, 35760, Note_on_c, 0, 55, 0
1, 35760, Note_on_c, 0, 57, 100
1, 36000, Note_on_c, 0, 57, 0
1, 36000, Note_on_c, 0, 59, 100
1, 36240, Note_on_c, 0, 59, 0
1, 36240, Note_on_c, 0, 60, 100
1, 36480, Note_on_c, 0, 60, 0
1, 36480, Note_on_c, 0, 62, 100
1, 36720, Note_on_c, 0, 62, 0
1, 36720, Note_on_c, 0, 60, 100
1, 36960, Note_on_c, 0, 60, 0
1, 36960, Note_on_c, 0, 59, 100
1, 37200, Note_on_c, 0, 59, 0
1, 37200, Note_on_c, 0, 57, 100
1, 37440, Note_on_c, 0, 57, 0
1, 37440, Note_on_c, 0, 59, 100
1, 37680, Note_on_c, 0, 59, 0
1, 37680, Note_on_c, 0, 60, 100
1, 37920, Note_on_c, 0, 60, 0
1, 37920, Note_on_c, 0, 62, 100
1, 38160, Note_on_c, 0, 62, 0
1, 38160, Note_on_c, 0, 60, 100
1, 38400, Note_on_c, 0, 60, 0
1, 38400, Note_on_c, 0, 59, 100
1, 38640, Note_on_c, 0, 59, 0
1, 38640, Note_on_c, 0, 57, 100
1, 38880, Note_on_c, 0, 57, 0
1, 38880, Note_on_c, 0, 55, 100
1, 39120, Note_on_c, 0, 55, 0
1, 39120, Note_on_c, 0, 57, 100
1, 39360, Note_on_c, 0, 57, 0
1, 39360, Note_on_c, 0, 59, 100
1, 39600, Note_on_c, 0, 59, 0
1, 39600, Note_on_c, 0, 57, 100
1, 39840, Note_on_c, 0, 57, 0
1, 39840, Note_on_c, 0, 55, 100
1, 40080, Note_on_c, 0, 55, 0
1, 40080, Note_on_c, 0, 53, 100
1, 40320, Note_on_c, 0, 53, 0
1, 40320, Note_on_c, 0, 52, 100
1, 40560, Note_on_c, 0, 52, 0
1, 40560, Note_on_c, 0, 55, 100
1, 40800, Note_on_c, 0, 55, 0
1, 40800, Note_on_c, 0, 52, 100
1, 41040, Note_on_c, 0, 52, 0
1, 41040, Note_on_c, 0, 49, 100
1, 41280, Note_on_c, 0, 49, 0
1, 41280, Note_on_c, 0, 45, 100
1, 41520, Note_on_c, 0, 45, 0
1, 41520, Note_on_c, 0, 47, 100
1, 41760, Note_on_c, 0, 47, 0
1, 41760, Note_on_c, 0, 49, 100
1, 42000, Note_on_c, 0, 49, 0
1, 42000, Note_on_c, 0, 50, 100
1, 42240, Note_on_c, 0, 50, 0
1, 42240, Note_on_c, 0, 52, 100
1, 42480, Note_on_c, 0, 52, 0
1, 42480, Note_on_c, 0, 53, 100
1, 42720, Note_on_c, 0, 53, 0
1, 42720, Note_on_c, 0, 55, 100
1, 42960, Note_on_c, 0, 55, 0
1, 42960, Note_on_c, 0, 52, 100
1, 43200, Note_on_c, 0, 52, 0
1, 43200, Note_on_c, 0, 53, 100
1, 43440, Note_on_c, 0, 53, 0
1, 43440, Note_on_c, 0, 62, 100
1, 43680, Note_on_c, 0, 62, 0
1, 43680, Note_on_c, 0, 57, 100
1, 43920, Note_on_c, 0, 57, 0
1, 43920, Note_on_c, 0, 53, 100
1, 44160, Note_on_c, 0, 53, 0
1, 44160, Note_on_c, 0, 50, 100
1, 44400, Note_on_c, 0, 50, 0
1, 44400, Note_on_c, 0, 52, 100
1, 44640, Note_on_c, 0, 52, 0
1, 44640, Note_on_c, 0, 53, 100
1, 44880, Note_on_c, 0, 53, 0
1, 44880, Note_on_c, 0, 55, 100
1, 45120, Note_on_c, 0, 55, 0
1, 45120, Note_on_c, 0, 57, 100
1, 45360, Note_on_c, 0, 57, 0
1, 45360, Note_on_c, 0, 59, 100
1, 45600, Note_on_c, 0, 59, 0
1, 45600, Note_on_c, 0, 60, 100
1, 45840, Note_on_c, 0, 60, 0
1, 45840, Note_on_c, 0, 57, 100
1, 46080, Note_on_c, 0, 57, 0
1, 46080, Note_on_c, 0, 59, 100
1, 46320, Note_on_c, 0, 59, 0
1, 46320, Note_on_c, 0, 62, 100
1, 46560, Note_on_c, 0, 62, 0
1, 46560, Note_on_c, 0, 59, 100
1, 46800, Note_on_c, 0, 59, 0
1, 46800, Note_on_c, 0, 56, 100
1, 47040, Note_on_c, 0, 56, 0
1, 47040, Note_on_c, 0, 52, 100
1, 47280, Note_on_c, 0, 52, 0
1, 47280, Note_on_c, 0, 54, 100
1, 47520, Note_on_c, 0, 54, 0
1, 47520, Note_on_c, 0, 56, 100
1, 47760, Note_on_c, 0, 56, 0
1, 47760, Note_on_c, 0, 57, 100
1, 48000, Note_on_c, 0, 57, 0
1, 48000, Note_on_c, 0, 59, 100
1, 48240, Note_on_c, 0, 59, 0
1, 48240, Note_on_c, 0, 60, 100
1, 48480, Note_on_c, 0, 60, 0
1, 48480, Note_on_c, 0, 62, 100
1, 48720, Note_on_c, 0, 62, 0
1, 48720, Note_on_c, 0, 59, 100
1, 48960, Note_on_c, 0, 59, 0
1, 48960, Note_on_c, 0, 60, 100
1, 49200, Note_on_c, 0, 60, 0
1, 49200, Note_on_c, 0, 62, 100
1, 49440, Note_on_c, 0, 62, 0
1, 49440, Note_on_c, 0, 60, 100
1, 49680, Note_on_c, 0, 60, 0
1, 49680, Note_on_c, 0, 59, 100
1, 49920, Note_on_c, 0, 59, 0
1, 49920, Note_on_c, 0, 57, 100
1, 50160, Note_on_c, 0, 57, 0
1, 50160, Note_on_c, 0, 53, 100
1, 50400, Note_on_c, 0, 53, 0
1, 50400, Note_on_c, 0, 52, 100
1, 50640, Note_on_c, 0, 52, 0
1, 50640, Note_on_c, 0, 50, 100
1, 50880, Note_on_c, 0, 50, 0
1, 50880, Note_on_c, 0, 48, 100
1, 51120, Note_on_c, 0, 48, 0
1, 51120, Note_on_c, 0, 47, 100
1, 51360, Note_on_c, 0, 47, 0
1, 51360, Note_on_c, 0, 45, 100
1, 51600, Note_on_c, 0, 45, 0
1, 51600, Note_on_c, 0, 43, 100
1, 51840, Note_on_c, 0, 43, 0
1, 51840, Note_on_c, 0, 41, 100
1, 52080, Note_on_c, 0, 41, 0
1, 52080, Note_on_c, 0, 45, 100
1, 52320, Note_on_c, 0, 45, 0
1, 52320, Note_on_c, 0, 47, 100
1, 52560, Note_on_c, 0, 47, 0
1, 52560, Note_on_c, 0, 49, 100
1, 52800, Note_on_c, 0, 49, 0
1, 52800, Note_on_c, 0, 50, 100
1, 53040, Note_on_c, 0, 50, 0
1, 53040, Note_on_c, 0, 52, 100
1, 53280, Note_on_c, 0, 52, 0
1, 53280, Note_on_c, 0, 53, 100
1, 53520, Note_on_c, 0, 53, 0
1, 53520, Note_on_c, 0, 50, 100
1, 53760, Note_on_c, 0, 50, 0
1, 53760, Note_on_c, 0, 59, 100
1, 54000, Note_on_c, 0, 59, 0
1, 54000, Note_on_c, 0, 56, 100
1, 54240, Note_on_c, 0, 56, 0
1, 54240, Note_on_c, 0, 57, 100
1, 54480, Note_on_c, 0, 57, 0
1, 54480, Note_on_c, 0, 50, 100
1, 54720, Note_on_c, 0, 50, 0
1, 54720, Note_on_c, 0, 40, 100
1, 54960, Note_on_c, 0, 40, 0
1, 54960, Note_on_c, 0, 47, 100
1, 55200, Note_on_c, 0, 47, 0
1, 55200, Note_on_c, 0, 50, 100
1, 55440, Note_on_c, 0, 50, 0
1, 55440, Note_on_c, 0, 57, 100
1, 55680, Note_on_c, 0, 57, 0
1, 55680, Note_on_c, 0, 56, 100
1, 55920, Note_on_c, 0, 56, 0
1, 55920, Note_on_c, 0, 59, 100
1, 56160, Note_on_c, 0, 59, 0
1, 56160, Note_on_c, 0, 52, 100
1, 56400, Note_on_c, 0, 52, 0
1, 56400, Note_on_c, 0, 56, 100
1, 56640, Note_on_c, 0, 56, 0
1, 56640, Note_on_c, 0, 59, 100
1, 56880, Note_on_c, 0, 59, 0
1, 56880, Note_on_c, 0, 62, 100
1, 57120, Note_on_c, 0, 62, 0
1, 57120, Note_on_c, 0, 60, 100
1, 57360, Note_on_c, 0, 60, 0
1, 57360, Note_on_c, 0, 56, 100
1, 57600, Note_on_c, 0, 56, 0
1, 57600, Note_on_c, 0, 57, 100
1, 57840, Note_on_c, 0, 57, 0
1, 57840, Note_on_c, 0, 51, 100
1, 58080, Note_on_c, 0, 51, 0
1, 58080, Note_on_c, 0, 57, 100
1, 58320, Note_on_c, 0, 57, 0
1, 58320, Note_on_c, 0, 59, 100
1, 58560, Note_on_c, 0, 59, 0
1, 58560, Note_on_c, 0, 57, 100
1, 58800, Note_on_c, 0, 57, 0
1, 58800, Note_on_c, 0, 51, 100
1, 59040, Note_on_c, 0, 51, 0
1, 59040, Note_on_c, 0, 57, 100
1, 59280, Note_on_c, 0, 57, 0
1, 59280, Note_on_c, 0, 59, 100
1, 59520, Note_on_c, 0, 59, 0
1, 59520, Note_on_c, 0, 57, 100
1, 59760, Note_on_c, 0, 57, 0
1, 59760, Note_on_c, 0, 51, 100
1, 60000, Note_on_c, 0, 51, 0
1, 60000, Note_on_c, 0, 57, 100
1, 60240, Note_on_c, 0, 57, 0
1, 60240, Note_on_c, 0, 59, 100
1, 60480, Note_on_c, 0, 59, 0
1, 60480, Note_on_c, 0, 60, 100
1, 60720, Note_on_c, 0, 60, 0
1, 60720, Note_on_c, 0, 52, 100
1, 60960, Note_on_c, 0, 52, 0
1, 60960, Note_on_c, 0, 57, 100
1, 61200, Note_on_c, 0, 57, 0
1, 61200, Note_on_c, 0, 59, 100
1, 61440, Note_on_c, 0, 59, 0
1, 61440, Note_on_c, 0, 60, 100
1, 61680, Note_on_c, 0, 60, 0
1, 61680, Note_on_c, 0, 52, 100
1, 61920, Note_on_c, 0, 52, 0
1, 61920, Note_on_c, 0, 57, 100
1, 62160, Note_on_c, 0, 57, 0
1, 62160, Note_on_c, 0, 59, 100
1, 62400, Note_on_c, 0, 59, 0
1, 62400, Note_on_c, 0, 60, 100
1, 62640, Note_on_c, 0, 60, 0
1, 62640, Note_on_c, 0, 52, 100
1, 62880, Note_on_c, 0, 52, 0
1, 62880, Note_on_c, 0, 59, 100
1, 63120, Note_on_c, 0, 59, 0
1, 63120, Note_on_c, 0, 60, 100
1, 63360, Note_on_c, 0, 60, 0
1, 63360, Note_on_c, 0, 62, 100
1, 63600, Note_on_c, 0, 62, 0
1, 63600, Note_on_c, 0, 52, 100
1, 63840, Note_on_c, 0, 52, 0
1, 63840, Note_on_c, 0, 59, 100
1, 64080, Note_on_c, 0, 59, 0
1, 64080, Note_on_c, 0, 60, 100
1, 64320, Note_on_c, 0, 60, 0
1, 64320, Note_on_c, 0, 62, 100
1, 64560, Note_on_c, 0, 62, 0
1, 64560, Note_on_c, 0, 52, 100
1, 64800, Note_on_c, 0, 52, 0
1, 64800, Note_on_c, 0, 59, 100
1, 65040, Note_on_c, 0, 59, 0
1, 65040, Note_on_c, 0, 60, 100
1, 65280, Note_on_c, 0, 60, 0
1, 65280, Note_on_c, 0, 62, 100
1, 65520, Note_on_c, 0, 62, 0
1, 65520, Note_on_c, 0, 59, 100
1, 65760, Note_on_c, 0, 59, 0
1, 65760, Note_on_c, 0, 56, 100
1, 66000, Note_on_c, 0, 56, 0
1, 66000, Note_on_c, 0, 54, 100
1, 66240, Note_on_c, 0, 54, 0
1, 66240, Note_on_c, 0, 52, 100
1, 66480, Note_on_c, 0, 52, 0
1, 66480, Note_on_c, 0, 60, 100
1, 66720, Note_on_c, 0, 60, 0
1, 66720, Note_on_c, 0, 57, 100
1, 66960, Note_on_c, 0, 57, 0
1, 66960, Note_on_c, 0, 56, 100
1, 67200, Note_on_c, 0, 56, 0
1, 67200, Note_on_c, 0, 57, 100
1, 67440, Note_on_c, 0, 57, 0
1, 67440, Note_on_c, 0, 60, 100
1, 67680, Note_on_c, 0, 60, 0
1, 67680, Note_on_c, 0, 57, 100
1, 67920, Note_on_c, 0, 57, 0
1, 67920, Note_on_c, 0, 56, 100
1, 68160, Note_on_c, 0, 56, 0
1, 68160, Note_on_c, 0, 57, 100
1, 68400, Note_on_c, 0, 57, 0
1, 68400, Note_on_c, 0, 60, 100
1, 68640, Note_on_c, 0, 60, 0
1, 68640, Note_on_c, 0, 57, 100
1, 68880, Note_on_c, 0, 57, 0
1, 68880, Note_on_c, 0, 54, 100
1, 69120, Note_on_c, 0, 54, 0
1, 69120, Note_on_c, 0, 51, 100
1, 69360, Note_on_c, 0, 51, 0
1, 69360, Note_on_c, 0, 60, 100
1, 69600, Note_on_c, 0, 60, 0
1, 69600, Note_on_c, 0, 57, 100
1, 69840, Note_on_c, 0, 57, 0
1, 69840, Note_on_c, 0, 56, 100
1, 70080, Note_on_c, 0, 56, 0
1, 70080, Note_on_c, 0, 57, 100
1, 70320, Note_on_c, 0, 57, 0
1, 70320, Note_on_c, 0, 60, 100
1, 70560, Note_on_c, 0, 60, 0
1, 70560, Note_on_c, 0, 57, 100
1, 70800, Note_on_c, 0, 57, 0
1, 70800, Note_on_c, 0, 56, 100
1, 71040, Note_on_c, 0, 56, 0
1, 71040, Note_on_c, 0, 57, 100
1, 71280, Note_on_c, 0, 57, 0
1, 71280, Note_on_c, 0, 60, 100
1, 71520, Note_on_c, 0, 60, 0
1, 71520, Note_on_c, 0, 57, 100
1, 71760, Note_on_c, 0, 57, 0
1, 71760, Note_on_c, 0, 53, 100
1, 72000, Note_on_c, 0, 53, 0
1, 72000, Note_on_c, 0, 50, 100
1, 72240, Note_on_c, 0, 50, 0
1, 72240, Note_on_c, 0, 59, 100
1, 72480, Note_on_c, 0, 59, 0
1, 72480, Note_on_c, 0, 56, 100
1, 72720, Note_on_c, 0, 56, 0
1, 72720, Note_on_c, 0, 54, 100
1, 72960, Note_on_c, 0, 54, 0
1, 72960, Note_on_c, 0, 56, 100
1, 73200, Note_on_c, 0, 56, 0
1, 73200, Note_on_c, 0, 59, 100
1, 73440, Note_on_c, 0, 59, 0
1, 73440, Note_on_c, 0, 53, 100
1, 73680, Note_on_c, 0, 53, 0
1, 73680, Note_on_c, 0, 52, 100
1, 73920, Note_on_c, 0, 52, 0
1, 73920, Note_on_c, 0, 53, 100
1, 74160, Note_on_c, 0, 53, 0
1, 74160, Note_on_c, 0, 59, 100
1, 74400, Note_on_c, 0, 59, 0
1, 74400, Note_on_c, 0, 52, 100
1, 74640, Note_on_c, 0, 52, 0
1, 74640, Note_on_c, 0, 50, 100
1, 74880, Note_on_c, 0, 50, 0
1, 74880, Note_on_c, 0, 48, 100
1, 75120, Note_on_c, 0, 48, 0
1, 75120, Note_on_c, 0, 45, 100
1, 75360, Note_on_c, 0, 45, 0
1, 75360, Note_on_c, 0, 48, 100
1, 75600, Note_on_c, 0, 48, 0
1, 75600, Note_on_c, 0, 52, 100
1, 75840, Note_on_c, 0, 52, 0
1, 75840, Note_on_c, 0, 48, 100
1, 76080, Note_on_c, 0, 48, 0
1, 76080, Note_on_c, 0, 45, 100
1, 76320, Note_on_c, 0, 45, 0
1, 76320, Note_on_c, 0, 48, 100
1, 76560, Note_on_c, 0, 48, 0
1, 76560, Note_on_c, 0, 52, 100
1, 76800, Note_on_c, 0, 52, 0
1, 76800, Note_on_c, 0, 57, 100
1, 77040, Note_on_c, 0, 57, 0
1, 77040, Note_on_c, 0, 60, 100
1, 77280, Note_on_c, 0, 60, 0
1, 77280, Note_on_c, 0, 57, 100
1, 77520, Note_on_c, 0, 57, 0
1, 77520, Note_on_c, 0, 52, 100
1, 77760, Note_on_c, 0, 52, 0
1, 77760, Note_on_c, 0, 48, 100
1, 78000, Note_on_c, 0, 48, 0
1, 78000, Note_on_c, 0, 45, 100
1, 78240, Note_on_c, 0, 45, 0
1, 78240, Note_on_c, 0, 48, 100
1, 78480, Note_on_c, 0, 48, 0
1, 78480, Note_on_c, 0, 52, 100
1, 78720, Note_on_c, 0, 52, 0
1, 78720, Note_on_c, 0, 48, 100
1, 78960, Note_on_c, 0, 48, 0
1, 78960, Note_on_c, 0, 45, 100
1, 79200, Note_on_c, 0, 45, 0
1, 79200, Note_on_c, 0, 48, 100
1, 79440, Note_on_c, 0, 48, 0
1, 79440, Note_on_c, 0, 52, 100
1, 79680, Note_on_c, 0, 52, 0
1, 79680, Note_on_c, 0, 57, 100
1, 79920, Note_on_c, 0, 57, 0
1, 79920, Note_on_c, 0, 60, 100
1, 80160, Note_on_c, 0, 60, 0
1, 80160, Note_on_c, 0, 57, 100
1, 80400, Note_on_c, 0, 57, 0
1, 80400, Note_on_c, 0, 53, 100
1, 80640, Note_on_c, 0, 53, 0
1, 80640, Note_on_c, 0, 50, 100
1, 80880, Note_on_c, 0, 50, 0
1, 80880, Note_on_c, 0, 47, 100
1, 81120, Note_on_c, 0, 47, 0
1, 81120, Note_on_c, 0, 50, 100
1, 81360, Note_on_c, 0, 50, 0
1, 81360, Note_on_c, 0, 55, 100
1, 81600, Note_on_c, 0, 55, 0
1, 81600, Note_on_c, 0, 50, 100
1, 81840, Note_on_c, 0, 50, 0
1, 81840, Note_on_c, 0, 47, 100
1, 82080, Note_on_c, 0, 47, 0
1, 82080, Note_on_c, 0, 50, 100
1, 82320, Note_on_c, 0, 50, 0
1, 82320, Note_on_c, 0, 55, 100
1, 82560, Note_on_c, 0, 55, 0
1, 82560, Note_on_c, 0, 59, 100
1, 82800, Note_on_c, 0, 59, 0
1, 82800, Note_on_c, 0, 62, 100
1, 83040, Note_on_c, 0, 62, 0
1, 83040, Note_on_c, 0, 59, 100
1, 83280, Note_on_c, 0, 59, 0
1, 83280, Note_on_c, 0, 55, 100
1, 83520, Note_on_c, 0, 55, 0
1, 83520, Note_on_c, 0, 53, 100
1, 83760, Note_on_c, 0, 53, 0
1, 83760, Note_on_c, 0, 47, 100
1, 84000, Note_on_c, 0, 47, 0
1, 84000, Note_on_c, 0, 53, 100
1, 84240, Note_on_c, 0, 53, 0
1, 84240, Note_on_c, 0, 55, 100
1, 84480, Note_on_c, 0, 55, 0
1, 84480, Note_on_c, 0, 53, 100
1, 84720, Note_on_c, 0, 53, 0
1, 84720, Note_on_c, 0, 47, 100
1, 84960, Note_on_c, 0, 47, 0
1, 84960, Note_on_c, 0, 53, 100
1, 85200, Note_on_c, 0, 53, 0
1, 85200, Note_on_c, 0, 55, 100
1, 85440, Note_on_c, 0, 55, 0
1, 85440, Note_on_c, 0, 53, 100
1, 85680, Note_on_c, 0, 53, 0
1, 85680, Note_on_c, 0, 62, 100
1, 85920, Note_on_c, 0, 62, 0
1, 85920, Note_on_c, 0, 59, 100
1, 86160, Note_on_c, 0, 59, 0
1, 86160, Note_on_c, 0, 55, 100
1, 86400, Note_on_c, 0, 55, 0
1, 86400, Note_on_c, 0, 52, 100
1, 86640, Note_on_c, 0, 52, 0
1, 86640, Note_on_c, 0, 48, 100
1, 86880, Note_on_c, 0, 48, 0
1, 86880, Note_on_c, 0, 52, 100
1, 87120, Note_on_c, 0, 52, 0
1, 87120, Note_on_c, 0, 55, 100
1, 87360, Note_on_c, 0, 55, 0
1, 87360, Note_on_c, 0, 52, 100
1, 87600, Note_on_c, 0, 52, 0
1, 87600, Note_on_c, 0, 48, 100
1, 87840, Note_on_c, 0, 48, 0
1, 87840, Note_on_c, 0, 52, 100
1, 88080, Note_on_c, 0, 52, 0
1, 88080, Note_on_c, 0, 55, 100
1, 88320, Note_on_c, 0, 55, 0
1, 88320, Note_on_c, 0, 58, 100
1, 88560, Note_on_c, 0, 58, 0
1, 88560, Note_on_c, 0, 62, 100
1, 88800, Note_on_c, 0, 62, 0
1, 88800, Note_on_c, 0, 58, 100
1, 89040, Note_on_c, 0, 58, 0
1, 89040, Note_on_c, 0, 55, 100
1, 89280, Note_on_c, 0, 55, 0
1, 89280, Note_on_c, 0, 52, 100
1, 89520, Note_on_c, 0, 52, 0
1, 89520, Note_on_c, 0, 48, 100
1, 89760, Note_on_c, 0, 48, 0
1, 89760, Note_on_c, 0, 52, 100
1, 90000, Note_on_c, 0, 52, 0
1, 90000, Note_on_c, 0, 55, 100
1, 90240, Note_on_c, 0, 55, 0
1, 90240, Note_on_c, 0, 52, 100
1, 90480, Note_on_c, 0, 52, 0
1, 90480, Note_on_c, 0, 48, 100
1, 90720, Note_on_c, 0, 48, 0
1, 90720, Note_on_c, 0, 52, 100
1, 90960, Note_on_c, 0, 52, 0
1, 90960, Note_on_c, 0, 55, 100
1, 91200, Note_on_c, 0, 55, 0
1, 91200, Note_on_c, 0, 60, 100
1, 91440, Note_on_c, 0, 60, 0
1, 91440, Note_on_c, 0, 58, 100
1, 91680, Note_on_c, 0, 58, 0
1, 91680, Note_on_c, 0, 57, 100
1, 91920, Note_on_c, 0, 57, 0
1, 91920, Note_on_c, 0, 55, 100
1, 92160, Note_on_c, 0, 55, 0
1, 92160, Note_on_c, 0, 57, 100
1, 92400, Note_on_c, 0, 57, 0
1, 92400, Note_on_c, 0, 53, 100
1, 92640, Note_on_c, 0, 53, 0
1, 92640, Note_on_c, 0, 52, 100
1, 92880, Note_on_c, 0, 52, 0
1, 92880, Note_on_c, 0, 53, 100
1, 93120, Note_on_c, 0, 53, 0
1, 93120, Note_on_c, 0, 55, 100
1, 93360, Note_on_c, 0, 55, 0
1, 93360, Note_on_c, 0, 57, 100
1, 93600, Note_on_c, 0, 57, 0
1, 93600, Note_on_c, 0, 59, 100
1, 93840, Note_on_c, 0, 59, 0
1, 93840, Note_on_c, 0, 60, 100
1, 94080, Note_on_c, 0, 60, 0
1, 94080, Note_on_c, 0, 62, 100
1, 94320, Note_on_c, 0, 62, 0
1, 94320, Note_on_c, 0, 57, 100
1, 94560, Note_on_c, 0, 57, 0
1, 94560, Note_on_c, 0, 53, 100
1, 94800, Note_on_c, 0, 53, 0
1, 94800, Note_on_c, 0, 50, 100
1, 95040, Note_on_c, 0, 50, 0
1, 95040, Note_on_c, 0, 55, 100
1, 95280, Note_on_c, 0, 55, 0
1, 95280, Note_on_c, 0, 52, 100
1, 95520, Note_on_c, 0, 52, 0
1, 95520, Note_on_c, 0, 50, 100
1, 95760, Note_on_c, 0, 50, 0
1, 95760, Note_on_c, 0, 52, 100
1, 96000, Note_on_c, 0, 52, 0
1, 96000, Note_on_c, 0, 53, 100
1, 96240, Note_on_c, 0, 53, 0
1, 96240, Note_on_c, 0, 55, 100
1, 96480, Note_on_c, 0, 55, 0
1, 96480, Note_on_c, 0, 57, 100
1, 96720, Note_on_c, 0, 57, 0
1, 96720, Note_on_c, 0, 59, 100
1, 96960, Note_on_c, 0, 59, 0
1, 96960, Note_on_c, 0, 60, 100
1, 97200, Note_on_c, 0, 60, 0
1, 97200, Note_on_c, 0, 55, 100
1, 97440, Note_on_c, 0, 55, 0
1, 97440, Note_on_c, 0, 52, 100
1, 97680, Note_on_c, 0, 52, 0
1, 97680, Note_on_c, 0, 48, 100
1, 97920, Note_on_c, 0, 48, 0
1, 97920, Note_on_c, 0, 53, 100
1, 98160, Note_on_c, 0, 53, 0
1, 98160, Note_on_c, 0, 50, 100
1, 98400, Note_on_c, 0, 50, 0
1, 98400, Note_on_c, 0, 53, 100
1, 98640, Note_on_c, 0, 53, 0
1, 98640, Note_on_c, 0, 55, 100
1, 98880, Note_on_c, 0, 55, 0
1, 98880, Note_on_c, 0, 53, 100
1, 99120, Note_on_c, 0, 53, 0
1, 99120, Note_on_c, 0, 50, 100
1, 99360, Note_on_c, 0, 50, 0
1, 99360, Note_on_c, 0, 53, 100
1, 99600, Note_on_c, 0, 53, 0
1, 99600, Note_on_c, 0, 55, 100
1, 99840, Note_on_c, 0, 55, 0
1, 99840, Note_on_c, 0, 53, 100
1, 100080, Note_on_c, 0, 53, 0
1, 100080, Note_on_c, 0, 48, 100
1, 100320, Note_on_c, 0, 48, 0
1, 100320, Note_on_c, 0, 53, 100
1, 100560, Note_on_c, 0, 53, 0
1, 100560, Note_on_c, 0, 55, 100
1, 100800, Note_on_c, 0, 55, 0
1, 100800, Note_on_c, 0, 53, 100
1, 101040, Note_on_c, 0, 53, 0
1, 101040, Note_on_c, 0, 47, 100
1, 101280, Note_on_c, 0, 47, 0
1, 101280, Note_on_c, 0, 53, 100
1, 101520, Note_on_c, 0, 53, 0
1, 101520, Note_on_c, 0, 55, 100
1, 101760, Note_on_c, 0, 55, 0
1, 101760, Note_on_c, 0, 53, 100
1, 102000, Note_on_c, 0, 53, 0
1, 102000, Note_on_c, 0, 45, 100
1, 102240, Note_on_c, 0, 45, 0
1, 102240, Note_on_c, 0, 53, 100
1, 102480, Note_on_c, 0, 53, 0
1, 102480, Note_on_c, 0, 55, 100
1, 102720, Note_on_c, 0, 55, 0
1, 102720, Note_on_c, 0, 53, 100
1, 102960, Note_on_c, 0, 53, 0
1, 102960, Note_on_c, 0, 43, 100
1, 103200, Note_on_c, 0, 43, 0
1, 103200, Note_on_c, 0, 53, 100
1, 103440, Note_on_c, 0, 53, 0
1, 103440, Note_on_c, 0, 55, 100
1, 103680, Note_on_c, 0, 55, 0
1, 103680, Note_on_c, 0, 52, 100
1, 103920, Note_on_c, 0, 52, 0
1, 103920, Note_on_c, 0, 43, 100
1, 104160, Note_on_c, 0, 43, 0
1, 104160, Note_on_c, 0, 36, 100
1, 104400, Note_on_c, 0, 36, 0
1, 104400, Note_on_c, 0, 43, 100
1, 104640, Note_on_c, 0, 43, 0
1, 104640, Note_on_c, 0, 52, 100
1, 104880, Note_on_c, 0, 52, 0
1, 104880, Note_on_c, 0, 43, 100
1, 105120, Note_on_c, 0, 43, 0
1, 105120, Note_on_c, 0, 36, 100
1, 105360, Note_on_c, 0, 36, 0
1, 105360, Note_on_c, 0, 43, 100
1, 105600, Note_on_c, 0, 43, 0
1, 105600, Note_on_c, 0, 52, 100
1, 105840, Note_on_c, 0, 52, 0
1, 105840, Note_on_c, 0, 50, 100
1, 106080, Note_on_c, 0, 50, 0
1, 106080, Note_on_c, 0, 48, 100
1, 106320, Note_on_c, 0, 48, 0
1, 106320, Note_on_c, 0, 47, 100
1, 106560, Note_on_c, 0, 47, 0
1, 106560, Note_on_c, 0, 45, 100
1, 106800, Note_on_c, 0, 45, 0
1, 106800, Note_on_c, 0, 52, 100
1, 107040, Note_on_c, 0, 52, 0
1, 107040, Note_on_c, 0, 60, 100
1, 107280, Note_on_c, 0, 60, 0
1, 107280, Note_on_c, 0, 52, 100
1, 107520, Note_on_c, 0, 52, 0
1, 107520, Note_on_c, 0, 45, 100
1, 107760, Note_on_c, 0, 45, 0
1, 107760, Note_on_c, 0, 52, 100
1, 108000, Note_on_c, 0, 52, 0
1, 108000, Note_on_c, 0, 60, 100
1, 108240, Note_on_c, 0, 60, 0
1, 108240, Note_on_c, 0, 52, 100
1, 108480, Note_on_c, 0, 52, 0
1, 108480, Note_on_c, 0, 45, 100
1, 108720, Note_on_c, 0, 45, 0
1, 108720, Note_on_c, 0, 55, 100
1, 108960, Note_on_c, 0, 55, 0
1, 108960, Note_on_c, 0, 53, 100
1, 109200, Note_on_c, 0, 53, 0
1, 109200, Note_on_c, 0, 52, 100
1, 109440, Note_on_c, 0, 52, 0
1, 109440, Note_on_c, 0, 53, 100
1, 109680, Note_on_c, 0, 53, 0
1, 109680, Note_on_c, 0, 45, 100
1, 109920, Note_on_c, 0, 45, 0
1, 109920, Note_on_c, 0, 38, 100
1, 110160, Note_on_c, 0, 38, 0
1, 110160, Note_on_c, 0, 45, 100
1, 110400, Note_on_c, 0, 45, 0
1, 110400, Note_on_c, 0, 53, 100
1, 110640, Note_on_c, 0, 53, 0
1, 110640, Note_on_c, 0, 45, 100
1, 110880, Note_on_c, 0, 45, 0
1, 110880, Note_on_c, 0, 38, 100
1, 111120, Note_on_c, 0, 38, 0
1, 111120, Note_on_c, 0, 45, 100
1, 111360, Note_on_c, 0, 45, 0
1, 111360, Note_on_c, 0, 53, 100
1, 111600, Note_on_c, 0, 53, 0
1, 111600, Note_on_c, 0, 52, 100
1, 111840, Note_on_c, 0, 52, 0
1, 111840, Note_on_c, 0, 50, 100
1, 112080, Note_on_c, 0, 50, 0
1, 112080, Note_on_c, 0, 48, 100
1, 112320, Note_on_c, 0, 48, 0
1, 112320, Note_on_c, 0, 47, 100
1, 112560, Note_on_c, 0, 47, 0
1, 112560, Note_on_c, 0, 54, 100
1, 112800, Note_on_c, 0, 54, 0
1, 112800, Note_on_c, 0, 62, 100
1, 113040, Note_on_c, 0, 62, 0
1, 113040, Note_on_c, 0, 54, 100
1, 113280, Note_on_c, 0, 54, 0
1, 113280, Note_on_c, 0, 47, 100
1, 113520, Note_on_c, 0, 47, 0
1, 113520, Note_on_c, 0, 54, 100
1, 113760, Note_on_c, 0, 54, 0
1, 113760, Note_on_c, 0, 62, 100
1, 114000, Note_on_c, 0, 62, 0
1, 114000, Note_on_c, 0, 54, 100
1, 114240, Note_on_c, 0, 54, 0
1, 114240, Note_on_c, 0, 47, 100
1, 114480, Note_on_c, 0, 47, 0
1, 114480, Note_on_c, 0, 57, 100
1, 114720, Note_on_c, 0, 57, 0
1, 114720, Note_on_c, 0, 55, 100
1, 114960, Note_on_c, 0, 55, 0
1, 114960, Note_on_c, 0, 54, 100
1, 115200, Note_on_c, 0, 54, 0
1, 115200, Note_on_c, 0, 55, 100
1, 115440, Note_on_c, 0, 55, 0
1, 115440, Note_on_c, 0, 47, 100
1, 115680, Note_on_c, 0, 47, 0
1, 115680, Note_on_c, 0, 40, 100
1, 115920, Note_on_c, 0, 40, 0
1, 115920, Note_on_c, 0, 47, 100
1, 116160, Note_on_c, 0, 47, 0
1, 116160, Note_on_c, 0, 55, 100
1, 116400, Note_on_c, 0, 55, 0
1, 116400, Note_on_c, 0, 47, 100
1, 116640, Note_on_c, 0, 47, 0
1, 116640, Note_on_c, 0, 40, 100
1, 116880, Note_on_c, 0, 40, 0
1, 116880, Note_on_c, 0, 47, 100
1, 117120, Note_on_c, 0, 47, 0
1, 117120, Note_on_c, 0, 55, 100
1, 117360, Note_on_c, 0, 55, 0
1, 117360, Note_on_c, 0, 53, 100
1, 117600, Note_on_c, 0, 53, 0
1, 117600, Note_on_c, 0, 52, 100
1, 117840, Note_on_c, 0, 52, 0
1, 117840, Note_on_c, 0, 50, 100
1, 118080, Note_on_c, 0, 50, 0
1, 118080, Note_on_c, 0, 48, 100
1, 118320, Note_on_c, 0, 48, 0
1, 118320, Note_on_c, 0, 55, 100
1, 118560, Note_on_c, 0, 55, 0
1, 118560, Note_on_c, 0, 64, 100
1, 118800, Note_on_c, 0, 64, 0
1, 118800, Note_on_c, 0, 55, 100
1, 119040, Note_on_c, 0, 55, 0
1, 119040, Note_on_c, 0, 48, 100
1, 119280, Note_on_c, 0, 48, 0
1, 119280, Note_on_c, 0, 55, 100
1, 119520, Note_on_c, 0, 55, 0
1, 119520, Note_on_c, 0, 64, 100
1, 119760, Note_on_c, 0, 64, 0
1, 119760, Note_on_c, 0, 55, 100
1, 120000, Note_on_c, 0, 55, 0
1, 120000, Note_on_c, 0, 48, 100
1, 120240, Note_on_c, 0, 48, 0
1, 120240, Note_on_c, 0, 58, 100
1, 120480, Note_on_c, 0, 58, 0
1, 120480, Note_on_c, 0, 57, 100
1, 120720, Note_on_c, 0, 57, 0
1, 120720, Note_on_c, 0, 55, 100
1, 120960, Note_on_c, 0, 55, 0
1, 120960, Note_on_c, 0, 57, 100
1, 121200, Note_on_c, 0, 57, 0
1, 121200, Note_on_c, 0, 48, 100
1, 121440, Note_on_c, 0, 48, 0
1, 121440, Note_on_c, 0, 41, 100
1, 121680, Note_on_c, 0, 41, 0
1, 121680, Note_on_c, 0, 48, 100
1, 121920, Note_on_c, 0, 48, 0
1, 121920, Note_on_c, 0, 57, 100
1, 122160, Note_on_c, 0, 57, 0
1, 122160, Note_on_c, 0, 48, 100
1, 122400, Note_on_c, 0, 48, 0
1, 122400, Note_on_c, 0, 41, 100
1, 122640, Note_on_c, 0, 41, 0
1, 122640, Note_on_c, 0, 48, 100
1, 122880, Note_on_c, 0, 48, 0
1, 122880, Note_on_c, 0, 57, 100
1, 123120, Note_on_c, 0, 57, 0
1, 123120, Note_on_c, 0, 55, 100
1, 123360, Note_on_c, 0, 55, 0
1, 123360, Note_on_c, 0, 53, 100
1, 123600, Note_on_c, 0, 53, 0
1, 123600, Note_on_c, 0, 52, 100
1, 123840, Note_on_c, 0, 52, 0
1, 123840, Note_on_c, 0, 50, 100
1, 124080, Note_on_c, 0, 50, 0
1, 124080, Note_on_c, 0, 57, 100
1, 124320, Note_on_c, 0, 57, 0
1, 124320, Note_on_c, 0, 65, 100
1, 124560, Note_on_c, 0, 65, 0
1, 124560, Note_on_c, 0, 57, 100
1, 124800, Note_on_c, 0, 57, 0
1, 124800, Note_on_c, 0, 50, 100
1, 125040, Note_on_c, 0, 50, 0
1, 125040, Note_on_c, 0, 57, 100
1, 125280, Note_on_c, 0, 57, 0
1, 125280, Note_on_c, 0, 65, 100
1, 125520, Note_on_c, 0, 65, 0
1, 125520, Note_on_c, 0, 57, 100
1, 125760, Note_on_c, 0, 57, 0
1, 125760, Note_on_c, 0, 50, 100
1, 126000, Note_on_c, 0, 50, 0
1, 126000, Note_on_c, 0, 57, 100
1, 126240, Note_on_c, 0, 57, 0
1, 126240, Note_on_c, 0, 59, 100
1, 126480, Note_on_c, 0, 59, 0
1, 126480, Note_on_c, 0, 60, 100
1, 126720, Note_on_c, 0, 60, 0
1, 126720, Note_on_c, 0, 43, 100
1, 126960, Note_on_c, 0, 43, 0
1, 126960, Note_on_c, 0, 59, 100
1, 127200, Note_on_c, 0, 59, 0
1, 127200, Note_on_c, 0, 65, 100
1, 127440, Note_on_c, 0, 65, 0
1, 127440, Note_on_c, 0, 59, 100
1, 127680, Note_on_c, 0, 59, 0
1, 127680, Note_on_c, 0, 43, 100
1, 127920, Note_on_c, 0, 43, 0
1, 127920, Note_on_c, 0, 59, 100
1, 128160, Note_on_c, 0, 59, 0
1, 128160, Note_on_c, 0, 65, 100
1, 128400, Note_on_c, 0, 65, 0
1, 128400, Note_on_c, 0, 59, 100
1, 128640, Note_on_c, 0, 59, 0
1, 128640, Note_on_c, 0, 43, 100
1, 128880, Note_on_c, 0, 43, 0
1, 128880, Note_on_c, 0, 59, 100
1, 129120, Note_on_c, 0, 59, 0
1, 129120, Note_on_c, 0, 65, 100
1, 129360, Note_on_c, 0, 65, 0
1, 129360, Note_on_c, 0, 59, 100
1, 129600, Note_on_c, 0, 59, 0
1, 129600, Note_on_c, 0, 43, 100
1, 129840, Note_on_c, 0, 43, 0
1, 129840, Note_on_c, 0, 60, 100
1, 130080, Note_on_c, 0, 60, 0
1, 130080, Note_on_c, 0, 64, 100
1, 130320, Note_on_c, 0, 64, 0
1, 130320, Note_on_c, 0, 60, 100
1, 130560, Note_on_c, 0, 60, 0
1, 130560, Note_on_c, 0, 43, 100
1, 130800, Note_on_c, 0, 43, 0
1, 130800, Note_on_c, 0, 60, 100
1, 131040, Note_on_c, 0, 60, 0
1, 131040, Note_on_c, 0, 64, 100
1, 131280, Note_on_c, 0, 64, 0
1, 131280, Note_on_c, 0, 60, 100
1, 131520, Note_on_c, 0, 60, 0
1, 131520, Note_on_c, 0, 43, 100
1, 131760, Note_on_c, 0, 43, 0
1, 131760, Note_on_c, 0, 60, 100
1, 132000, Note_on_c, 0, 60, 0
1, 132000, Note_on_c, 0, 64, 100
1, 132240, Note_on_c, 0, 64, 0
1, 132240, Note_on_c, 0, 60, 100
1, 132480, Note_on_c, 0, 60, 0
1, 132480, Note_on_c, 0, 43, 100
1, 132720, Note_on_c, 0, 43, 0
1, 132720, Note_on_c, 0, 60, 100
1, 132960, Note_on_c, 0, 60, 0
1, 132960, Note_on_c, 0, 62, 100
1, 133200, Note_on_c, 0, 62, 0
1, 133200, Note_on_c, 0, 60, 100
1, 133440, Note_on_c, 0, 60, 0
1, 133440, Note_on_c, 0, 43, 100
1, 133680, Note_on_c, 0, 43, 0
1, 133680, Note_on_c, 0, 59, 100
1, 133920, Note_on_c, 0, 59, 0
1, 133920, Note_on_c, 0, 62, 100
1, 134160, Note_on_c, 0, 62, 0
1, 134160, Note_on_c, 0, 59, 100
1, 134400, Note_on_c, 0, 59, 0
1, 134400, Note_on_c, 0, 43, 100
1, 134640, Note_on_c, 0, 43, 0
1, 134640, Note_on_c, 0, 57, 100
1, 134880, Note_on_c, 0, 57, 0
1, 134880, Note_on_c, 0, 62, 100
1, 135120, Note_on_c, 0, 62, 0
1, 135120, Note_on_c, 0, 57, 100
1, 135360, Note_on_c, 0, 57, 0
1, 135360, Note_on_c, 0, 43, 100
1, 135600, Note_on_c, 0, 43, 0
1, 135600, Note_on_c, 0, 59, 100
1, 135840, Note_on_c, 0, 59, 0
1, 135840, Note_on_c, 0, 62, 100
1, 136080, Note_on_c, 0, 62, 0
1, 136080, Note_on_c, 0, 59, 100
1, 136320, Note_on_c, 0, 59, 0
1, 136320, Note_on_c, 0, 43, 100
1, 136560, Note_on_c, 0, 43, 0
1, 136560, Note_on_c, 0, 59, 100
1, 136800, Note_on_c, 0, 59, 0
1, 136800, Note_on_c, 0, 67, 100
1, 137040, Note_on_c, 0, 67, 0
1, 137040, Note_on_c, 0, 59, 100
1, 137280, Note_on_c, 0, 59, 0
1, 137280, Note_on_c, 0, 43, 100
1, 137520, Note_on_c, 0, 43, 0
1, 137520, Note_on_c, 0, 59, 100
1, 137760, Note_on_c, 0, 59, 0
1, 137760, Note_on_c, 0, 62, 100
1, 138000, Note_on_c, 0, 62, 0
1, 138000, Note_on_c, 0, 59, 100
1, 138240, Note_on_c, 0, 59, 0
1, 138240, Note_on_c, 0, 43, 100
1, 138480, Note_on_c, 0, 43, 0
1, 138480, Note_on_c, 0, 59, 100
1, 138720, Note_on_c, 0, 59, 0
1, 138720, Note_on_c, 0, 60, 100
1, 138960, Note_on_c, 0, 60, 0
1, 138960, Note_on_c, 0, 59, 100
1, 139200, Note_on_c, 0, 59, 0
1, 139200, Note_on_c, 0, 43, 100
1, 139440, Note_on_c, 0, 43, 0
1, 139440, Note_on_c, 0, 57, 100
1, 139680, Note_on_c, 0, 57, 0
1, 139680, Note_on_c, 0, 60, 100
1, 139920, Note_on_c, 0, 60, 0
1, 139920, Note_on_c, 0, 57, 100
1, 140160, Note_on_c, 0, 57, 0
1, 140160, Note_on_c, 0, 43, 100
1, 140400, Note_on_c, 0, 43, 0
1, 140400, Note_on_c, 0, 55, 100
1, 140640, Note_on_c, 0, 55, 0
1, 140640, Note_on_c, 0, 60, 100
1, 140880, Note_on_c, 0, 60, 0
1, 140880, Note_on_c, 0, 55, 100
1, 141120, Note_on_c, 0, 55, 0
1, 141120, Note_on_c, 0, 43, 100
1, 141360, Note_on_c, 0, 43, 0
1, 141360, Note_on_c, 0, 57, 100
1, 141600, Note_on_c, 0, 57, 0
1, 141600, Note_on_c, 0, 60, 100
1, 141840, Note_on_c, 0, 60, 0
1, 141840, Note_on_c, 0, 57, 100
1, 142080, Note_on_c, 0, 57, 0
1, 142080, Note_on_c, 0, 43, 100
1, 142320, Note_on_c, 0, 43, 0
1, 142320, Note_on_c, 0, 57, 100
1, 142560, Note_on_c, 0, 57, 0
1, 142560, Note_on_c, 0, 65, 100
1, 142800, Note_on_c, 0, 65, 0
1, 142800, Note_on_c, 0, 57, 100
1, 143040, Note_on_c, 0, 57, 0
1, 143040, Note_on_c, 0, 43, 100
1, 143280, Note_on_c, 0, 43, 0
1, 143280, Note_on_c, 0, 57, 100
1, 143520, Note_on_c, 0, 57, 0
1, 143520, Note_on_c, 0, 60, 100
1, 143760, Note_on_c, 0, 60, 0
1, 143760, Note_on_c, 0, 57, 100
1, 144000, Note_on_c, 0, 57, 0
1, 144000, Note_on_c, 0, 43, 100
1, 144240, Note_on_c, 0, 43, 0
1, 144240, Note_on_c, 0, 57, 100
1, 144480, Note_on_c, 0, 57, 0
1, 144480, Note_on_c, 0, 59, 100
1, 144720, Note_on_c, 0, 59, 0
1, 144720, Note_on_c, 0, 57, 100
1, 144960, Note_on_c, 0, 57, 0
1, 144960, Note_on_c, 0, 43, 100
1, 145200, Note_on_c, 0, 43, 0
1, 145200, Note_on_c, 0, 55, 100
1, 145440, Note_on_c, 0, 55, 0
1, 145440, Note_on_c, 0, 59, 100
1, 145680, Note_on_c, 0, 59, 0
1, 145680, Note_on_c, 0, 55, 100
1, 145920, Note_on_c, 0, 55, 0
1, 145920, Note_on_c, 0, 43, 100
1, 146160, Note_on_c, 0, 43, 0
1, 146160, Note_on_c, 0, 53, 100
1, 146400, Note_on_c, 0, 53, 0
1, 146400, Note_on_c, 0, 59, 100
1, 146640, Note_on_c, 0, 59, 0
1, 146640, Note_on_c, 0, 53, 100
1, 146880, Note_on_c, 0, 53, 0
1, 146880, Note_on_c, 0, 43, 100
1, 147120, Note_on_c, 0, 43, 0
1, 147120, Note_on_c, 0, 55, 100
1, 147360, Note_on_c, 0, 55, 0
1, 147360, Note_on_c, 0, 59, 100
1, 147600, Note_on_c, 0, 59, 0
1, 147600, Note_on_c, 0, 55, 100
1, 147840, Note_on_c, 0, 55, 0
1, 147840, Note_on_c, 0, 43, 100
1, 148080, Note_on_c, 0, 43, 0
1, 148080, Note_on_c, 0, 55, 100
1, 148320, Note_on_c, 0, 55, 0
1, 148320, Note_on_c, 0, 64, 100
1, 148560, Note_on_c, 0, 64, 0
1, 148560, Note_on_c, 0, 55, 100
1, 148800, Note_on_c, 0, 55, 0
1, 148800, Note_on_c, 0, 43, 100
1, 149040, Note_on_c, 0, 43, 0
1, 149040, Note_on_c, 0, 55, 100
1, 149280, Note_on_c, 0, 55, 0
1, 149280, Note_on_c, 0, 59, 100
1, 149520, Note_on_c, 0, 59, 0
1, 149520, Note_on_c, 0, 55, 100
1, 149760, Note_on_c, 0, 55, 0
1, 149760, Note_on_c, 0, 43, 100
1, 150000, Note_on_c, 0, 43, 0
1, 150000, Note_on_c, 0, 55, 100
1, 150240, Note_on_c, 0, 55, 0
1, 150240, Note_on_c, 0, 57, 100
1, 150480, Note_on_c, 0, 57, 0
1, 150480, Note_on_c, 0, 55, 100
1, 150720, Note_on_c, 0, 55, 0
1, 150720, Note_on_c, 0, 43, 100
1, 150960, Note_on_c, 0, 43, 0
1, 150960, Note_on_c, 0, 53, 100
1, 151200, Note_on_c, 0, 53, 0
1, 151200, Note_on_c, 0, 57, 100
1, 151440, Note_on_c, 0, 57, 0
1, 151440, Note_on_c, 0, 53, 100
1, 151680, Note_on_c, 0, 53, 0
1, 151680, Note_on_c, 0, 43, 100
1, 151920, Note_on_c, 0, 43, 0
1, 151920, Note_on_c, 0, 52, 100
1, 152160, Note_on_c, 0, 52, 0
1, 152160, Note_on_c, 0, 57, 100
1, 152400, Note_on_c, 0, 57, 0
1, 152400, Note_on_c, 0, 52, 100
1, 152640, Note_on_c, 0, 52, 0
1, 152640, Note_on_c, 0, 43, 100
1, 152880, Note_on_c, 0, 43, 0
1, 152880, Note_on_c, 0, 53, 100
1, 153120, Note_on_c, 0, 53, 0
1, 153120, Note_on_c, 0, 57, 100
1, 153360, Note_on_c, 0, 57, 0
1, 153360, Note_on_c, 0, 53, 100
1, 153600, Note_on_c, 0, 53, 0
1, 153600, Note_on_c, 0, 43, 100
1, 153840, Note_on_c, 0, 43, 0
1, 153840, Note_on_c, 0, 53, 100
1, 154080, Note_on_c, 0, 53, 0
1, 154080, Note_on_c, 0, 62, 100
1, 154320, Note_on_c, 0, 62, 0
1, 154320, Note_on_c, 0, 53, 100
1, 154560, Note_on_c, 0, 53, 0
1, 154560, Note_on_c, 0, 43, 100
1, 154800, Note_on_c, 0, 43, 0
1, 154800, Note_on_c, 0, 53, 100
1, 155040, Note_on_c, 0, 53, 0
1, 155040, Note_on_c, 0, 57, 100
1, 155280, Note_on_c, 0, 57, 0
1, 155280, Note_on_c, 0, 53, 100
1, 155520, Note_on_c, 0, 53, 0
1, 155520, Note_on_c, 0, 43, 100
1, 155760, Note_on_c, 0, 43, 0
1, 155760, Note_on_c, 0, 53, 100
1, 156000, Note_on_c, 0, 53, 0
1, 156000, Note_on_c, 0, 59, 100
1, 156240, Note_on_c, 0, 59, 0
1, 156240, Note_on_c, 0, 53, 100
1, 156480, Note_on_c, 0, 53, 0
1, 156480, Note_on_c, 0, 43, 100
1, 156720, Note_on_c, 0, 43, 0
1, 156720, Note_on_c, 0, 53, 100
1, 156960, Note_on_c, 0, 53, 0
1, 156960, Note_on_c, 0, 62, 100
1, 157200, Note_on_c, 0, 62, 0
1, 157200, Note_on_c, 0, 53, 100
1, 157440, Note_on_c, 0, 53, 0
1, 157440, Note_on_c, 0, 43, 100
1, 157680, Note_on_c, 0, 43, 0
1, 157680, Note_on_c, 0, 53, 100
1, 157920, Note_on_c, 0, 53, 0
1, 157920, Note_on_c, 0, 59, 100
1, 158160, Note_on_c, 0, 59, 0
1, 158160, Note_on_c, 0, 53, 100
1, 158400, Note_on_c, 0, 53, 0
1, 158400, Note_on_c, 0, 43, 100
1, 158640, Note_on_c, 0, 43, 0
1, 158640, Note_on_c, 0, 52, 100
1, 158880, Note_on_c, 0, 52, 0
1, 158880, Note_on_c, 0, 60, 100
1, 159120, Note_on_c, 0, 60, 0
1, 159120, Note_on_c, 0, 52, 100
1, 159360, Note_on_c, 0, 52, 0
1, 159360, Note_on_c, 0, 43, 100
1, 159600, Note_on_c, 0, 43, 0
1, 159600, Note_on_c, 0, 52, 100
1, 159840, Note_on_c, 0, 52, 0
1, 159840, Note_on_c, 0, 64, 100
1, 160080, Note_on_c, 0, 64, 0
1, 160080, Note_on_c, 0, 52, 100
1, 160320, Note_on_c, 0, 52, 0
1, 160320, Note_on_c, 0, 43, 100
1, 160560, Note_on_c, 0, 43, 0
1, 160560, Note_on_c, 0, 52, 100
1, 160800, Note_on_c, 0, 52, 0
1, 160800, Note_on_c, 0, 60, 100
1, 161040, Note_on_c, 0, 60, 0
1, 161040, Note_on_c, 0, 52, 100
1, 161280, Note_on_c, 0, 52, 0
1, 161280, Note_on_c, 0, 43, 100
1, 161520, Note_on_c, 0, 43, 0
1, 161520, Note_on_c, 0, 53, 100
1, 161760, Note_on_c, 0, 53, 0
1, 161760, Note_on_c, 0, 59, 100
1, 162000, Note_on_c, 0, 59, 0
1, 162000, Note_on_c, 0, 53, 100
1, 162240, Note_on_c, 0, 53, 0
1, 162240, Note_on_c, 0, 43, 100
1, 162480, Note_on_c, 0, 43, 0
1, 162480, Note_on_c, 0, 53, 100
1, 162720, Note_on_c, 0, 53, 0
1, 162720, Note_on_c, 0, 62, 100
1, 162960, Note_on_c, 0, 62, 0
1, 162960, Note_on_c, 0, 53, 100
1, 163200, Note_on_c, 0, 53, 0
1, 163200, Note_on_c, 0, 43, 100
1, 163440, Note_on_c, 0, 43, 0
1, 163440, Note_on_c, 0, 53, 100
1, 163680, Note_on_c, 0, 53, 0
1, 163680, Note_on_c, 0, 59, 100
1, 163920, Note_on_c, 0, 59, 0
1, 163920, Note_on_c, 0, 53, 100
1, 164160, Note_on_c, 0, 53, 0
1, 164160, Note_on_c, 0, 43, 100
1, 164400, Note_on_c, 0, 43, 0
1, 164400, Note_on_c, 0, 51, 100
1, 164640, Note_on_c, 0, 51, 0
1, 164640, Note_on_c, 0, 60, 100
1, 164880, Note_on_c, 0, 60, 0
1, 164880, Note_on_c, 0, 51, 100
1, 165120, Note_on_c, 0, 51, 0
1, 165120, Note_on_c, 0, 43, 100
1, 165360, Note_on_c, 0, 43, 0
1, 165360, Note_on_c, 0, 51, 100
1, 165600, Note_on_c, 0, 51, 0
1, 165600, Note_on_c, 0, 63, 100
1, 165840, Note_on_c, 0, 63, 0
1, 165840, Note_on_c, 0, 51, 100
1, 166080, Note_on_c, 0, 51, 0
1, 166080, Note_on_c, 0, 43, 100
1, 166320, Note_on_c, 0, 43, 0
1, 166320, Note_on_c, 0, 51, 100
1, 166560, Note_on_c, 0, 51, 0
1, 166560, Note_on_c, 0, 60, 100
1, 166800, Note_on_c, 0, 60, 0
1, 166800, Note_on_c, 0, 51, 100
1, 167040, Note_on_c, 0, 51, 0
1, 167040, Note_on_c, 0, 43, 100
1, 167280, Note_on_c, 0, 43, 0
1, 167280, Note_on_c, 0, 54, 100
1, 167520, Note_on_c, 0, 54, 0
1, 167520, Note_on_c, 0, 60, 100
1, 167760, Note_on_c, 0, 60, 0
1, 167760, Note_on_c, 0, 54, 100
1, 168000, Note_on_c, 0, 54, 0
1, 168000, Note_on_c, 0, 43, 100
1, 168240, Note_on_c, 0, 43, 0
1, 168240, Note_on_c, 0, 50, 100
1, 168480, Note_on_c, 0, 50, 0
1, 168480, Note_on_c, 0, 60, 100
1, 168720, Note_on_c, 0, 60, 0
1, 168720, Note_on_c, 0, 50, 100
1, 168960, Note_on_c, 0, 50, 0
1, 168960, Note_on_c, 0, 43, 100
1, 169200, Note_on_c, 0, 43, 0
1, 169200, Note_on_c, 0, 52, 100
1, 169440, Note_on_c, 0, 52, 0
1, 169440, Note_on_c, 0, 60, 100
1, 169680, Note_on_c, 0, 60, 0
1, 169680, Note_on_c, 0, 52, 100
1, 169920, Note_on_c, 0, 52, 0
1, 169920, Note_on_c, 0, 43, 100
1, 170160, Note_on_c, 0, 43, 0
1, 170160, Note_on_c, 0, 54, 100
1, 170400, Note_on_c, 0, 54, 0
1, 170400, Note_on_c, 0, 60, 100
1, 170640, Note_on_c, 0, 60, 0
1, 170640, Note_on_c, 0, 54, 100
1, 170880, Note_on_c, 0, 54, 0
1, 170880, Note_on_c, 0, 43, 100
1, 171120, Note_on_c, 0, 43, 0
1, 171120, Note_on_c, 0, 52, 100
1, 171360, Note_on_c, 0, 52, 0
1, 171360, Note_on_c, 0, 60, 100
1, 171600, Note_on_c, 0, 60, 0
1, 171600, Note_on_c, 0, 52, 100
1, 171840, Note_on_c, 0, 52, 0
1, 171840, Note_on_c, 0, 43, 100
1, 172080, Note_on_c, 0, 43, 0
1, 172080, Note_on_c, 0, 54, 100
1, 172320, Note_on_c, 0, 54, 0
1, 172320, Note_on_c, 0, 60, 100
1, 172560, Note_on_c, 0, 60, 0
1, 172560, Note_on_c, 0, 54, 100
1, 172800, Note_on_c, 0, 54, 0
1, 172800, Note_on_c, 0, 43, 100
1, 173040, Note_on_c, 0, 43, 0
1, 173040, Note_on_c, 0, 55, 100
1, 173280, Note_on_c, 0, 55, 0
1, 173280, Note_on_c, 0, 59, 100
1, 173520, Note_on_c, 0, 59, 0
1, 173520, Note_on_c, 0, 57, 100
1, 173760, Note_on_c, 0, 57, 0
1, 173760, Note_on_c, 0, 55, 100
1, 174000, Note_on_c, 0, 55, 0
1, 174000, Note_on_c, 0, 53, 100
1, 174240, Note_on_c, 0, 53, 0
1, 174240, Note_on_c, 0, 52, 100
1, 174480, Note_on_c, 0, 52, 0
1, 174480, Note_on_c, 0, 50, 100
1, 174720, Note_on_c, 0, 50, 0
1, 174720, Note_on_c, 0, 55, 100
1, 174960, Note_on_c, 0, 55, 0
1, 174960, Note_on_c, 0, 52, 100
1, 175200, Note_on_c, 0, 52, 0
1, 175200, Note_on_c, 0, 55, 100
1, 175440, Note_on_c, 0, 55, 0
1, 175440, Note_on_c, 0, 50, 100
1, 175680, Note_on_c, 0, 50, 0
1, 175680, Note_on_c, 0, 55, 100
1, 175920, Note_on_c, 0, 55, 0
1, 175920, Note_on_c, 0, 49, 100
1, 176160, Note_on_c, 0, 49, 0
1, 176160, Note_on_c, 0, 55, 100
1, 176400, Note_on_c, 0, 55, 0
1, 176400, Note_on_c, 0, 57, 100
1, 176640, Note_on_c, 0, 57, 0
1, 176640, Note_on_c, 0, 55, 100
1, 176880, Note_on_c, 0, 55, 0
1, 176880, Note_on_c, 0, 49, 100
1, 177120, Note_on_c, 0, 49, 0
1, 177120, Note_on_c, 0, 55, 100
1, 177360, Note_on_c, 0, 55, 0
1, 177360, Note_on_c, 0, 57, 100
1, 177600, Note_on_c, 0, 57, 0
1, 177600, Note_on_c, 0, 55, 100
1, 177840, Note_on_c, 0, 55, 0
1, 177840, Note_on_c, 0, 49, 100
1, 178080, Note_on_c, 0, 49, 0
1, 178080, Note_on_c, 0, 55, 100
1, 178320, Note_on_c, 0, 55, 0
1, 178320, Note_on_c, 0, 57, 100
1, 178560, Note_on_c, 0, 57, 0
1, 178560, Note_on_c, 0, 53, 100
1, 178800, Note_on_c, 0, 53, 0
1, 178800, Note_on_c, 0, 50, 100
1, 179040, Note_on_c, 0, 50, 0
1, 179040, Note_on_c, 0, 57, 100
1, 179280, Note_on_c, 0, 57, 0
1, 179280, Note_on_c, 0, 55, 100
1, 179520, Note_on_c, 0, 55, 0
1, 179520, Note_on_c, 0, 53, 100
1, 179760, Note_on_c, 0, 53, 0
1, 179760, Note_on_c, 0, 52, 100
1, 180000, Note_on_c, 0, 52, 0
1, 180000, Note_on_c, 0, 50, 100
1, 180240, Note_on_c, 0, 50, 0
1, 180240, Note_on_c, 0, 48, 100
1, 180480, Note_on_c, 0, 48, 0
1, 180480, Note_on_c, 0, 53, 100
1, 180720, Note_on_c, 0, 53, 0
1, 180720, Note_on_c, 0, 50, 100
1, 180960, Note_on_c, 0, 50, 0
1, 180960, Note_on_c, 0, 53, 100
1, 181200, Note_on_c, 0, 53, 0
1, 181200, Note_on_c, 0, 48, 100
1, 181440, Note_on_c, 0, 48, 0
1, 181440, Note_on_c, 0, 53, 100
1, 181680, Note_on_c, 0, 53, 0
1, 181680, Note_on_c, 0, 47, 100
1, 181920, Note_on_c, 0, 47, 0
1, 181920, Note_on_c, 0, 53, 100
1, 182160, Note_on_c, 0, 53, 0
1, 182160, Note_on_c, 0, 55, 100
1, 182400, Note_on_c, 0, 55, 0
1, 182400, Note_on_c, 0, 53, 100
1, 182640, Note_on_c, 0, 53, 0
1, 182640, Note_on_c, 0, 47, 100
1, 182880, Note_on_c, 0, 47, 0
1, 182880, Note_on_c, 0, 53, 100
1, 183120, Note_on_c, 0, 53, 0
1, 183120, Note_on_c, 0, 55, 100
1, 183360, Note_on_c, 0, 55, 0
1, 183360, Note_on_c, 0, 53, 100
1, 183600, Note_on_c, 0, 53, 0
1, 183600, Note_on_c, 0, 47, 100
1, 183840, Note_on_c, 0, 47, 0
1, 183840, Note_on_c, 0, 53, 100
1, 184080, Note_on_c, 0, 53, 0
1, 184080, Note_on_c, 0, 55, 100
1, 184320, Note_on_c, 0, 55, 0
1, 184320, Note_on_c, 0, 52, 100
1, 184560, Note_on_c, 0, 52, 0
1, 184560, Note_on_c, 0, 48, 100
1, 184800, Note_on_c, 0, 48, 0
1, 184800, Note_on_c, 0, 55, 100
1, 185040, Note_on_c, 0, 55, 0
1, 185040, Note_on_c, 0, 53, 100
1, 185280, Note_on_c, 0, 53, 0
1, 185280, Note_on_c, 0, 52, 100
1, 185520, Note_on_c, 0, 52, 0
1, 185520, Note_on_c, 0, 50, 100
1, 185760, Note_on_c, 0, 50, 0
1, 185760, Note_on_c, 0, 48, 100
1, 186000, Note_on_c, 0, 48, 0
1, 186000, Note_on_c, 0, 47, 100
1, 186240, Note_on_c, 0, 47, 0
1, 186240, Note_on_c, 0, 48, 100
1, 186480, Note_on_c, 0, 48, 0
1, 186480, Note_on_c, 0, 45, 100
1, 186720, Note_on_c, 0, 45, 0
1, 186720, Note_on_c, 0, 48, 100
1, 186960, Note_on_c, 0, 48, 0
1, 186960, Note_on_c, 0, 43, 100
1, 187200, Note_on_c, 0, 43, 0
1, 187200, Note_on_c, 0, 48, 100
1, 187440, Note_on_c, 0, 48, 0
1, 187440, Note_on_c, 0, 42, 100
1, 187680, Note_on_c, 0, 42, 0
1, 187680, Note_on_c, 0, 48, 100
1, 187920, Note_on_c, 0, 48, 0
1, 187920, Note_on_c, 0, 50, 100
1, 188160, Note_on_c, 0, 50, 0
1, 188160, Note_on_c, 0, 48, 100
1, 188400, Note_on_c, 0, 48, 0
1, 188400, Note_on_c, 0, 42, 100
1, 188640, Note_on_c, 0, 42, 0
1, 188640, Note_on_c, 0, 48, 100
1, 188880, Note_on_c, 0, 48, 0
1, 188880, Note_on_c, 0, 50, 100
1, 189120, Note_on_c, 0, 50, 0
1, 189120, Note_on_c, 0, 48, 100
1, 189360, Note_on_c, 0, 48, 0
1, 189360, Note_on_c, 0, 42, 100
1, 189600, Note_on_c, 0, 42, 0
1, 189600, Note_on_c, 0, 48, 100
1, 189840, Note_on_c, 0, 48, 0
1, 189840, Note_on_c, 0, 50, 100
1, 190080, Note_on_c, 0, 50, 0
1, 190080, Note_on_c, 0, 47, 100
1, 190320, Note_on_c, 0, 47, 0
1, 190320, Note_on_c, 0, 43, 100
1, 190560, Note_on_c, 0, 43, 0
1, 190560, Note_on_c, 0, 47, 100
1, 190800, Note_on_c, 0, 47, 0
1, 190800, Note_on_c, 0, 50, 100
1, 191040, Note_on_c, 0, 50, 0
1, 191040, Note_on_c, 0, 47, 100
1, 191280, Note_on_c, 0, 47, 0
1, 191280, Note_on_c, 0, 43, 100
1, 191520, Note_on_c, 0, 43, 0
1, 191520, Note_on_c, 0, 47, 100
1, 191760, Note_on_c, 0, 47, 0
1, 191760, Note_on_c, 0, 50, 100
1, 192000, Note_on_c, 0, 50, 0
1, 192000, Note_on_c, 0, 47, 100
1, 192240, Note_on_c, 0, 47, 0
1, 192240, Note_on_c, 0, 41, 100
1, 192480, Note_on_c, 0, 41, 0
1, 192480, Note_on_c, 0, 47, 100
1, 192720, Note_on_c, 0, 47, 0
1, 192720, Note_on_c, 0, 50, 100
1, 192960, Note_on_c, 0, 50, 0
1, 192960, Note_on_c, 0, 46, 100
1, 193200, Note_on_c, 0, 46, 0
1, 193200, Note_on_c, 0, 40, 100
1, 193440, Note_on_c, 0, 40, 0
1, 193440, Note_on_c, 0, 46, 100
1, 193680, Note_on_c, 0, 46, 0
1, 193680, Note_on_c, 0, 48, 100
1, 193920, Note_on_c, 0, 48, 0
1, 193920, Note_on_c, 0, 46, 100
1, 194160, Note_on_c, 0, 46, 0
1, 194160, Note_on_c, 0, 40, 100
1, 194400, Note_on_c, 0, 40, 0
1, 194400, Note_on_c, 0, 46, 100
1, 194640, Note_on_c, 0, 46, 0
1, 194640, Note_on_c, 0, 48, 100
1, 194880, Note_on_c, 0, 48, 0
1, 194880, Note_on_c, 0, 46, 100
1, 195120, Note_on_c, 0, 46, 0
1, 195120, Note_on_c, 0, 40, 100
1, 195360, Note_on_c, 0, 40, 0
1, 195360, Note_on_c, 0, 46, 100
1, 195600, Note_on_c, 0, 46, 0
1, 195600, Note_on_c, 0, 48, 100
1, 195840, Note_on_c, 0, 48, 0
1, 195840, Note_on_c, 0, 45, 100
1, 196080, Note_on_c, 0, 45, 0
1, 196080, Note_on_c, 0, 41, 100
1, 196320, Note_on_c, 0, 41, 0
1, 196320, Note_on_c, 0, 45, 100
1, 196560, Note_on_c, 0, 45, 0
1, 196560, Note_on_c, 0, 48, 100
1, 196800, Note_on_c, 0, 48, 0
1, 196800, Note_on_c, 0, 45, 100
1, 197040, Note_on_c, 0, 45, 0
1, 197040, Note_on_c, 0, 41, 100
1, 197280, Note_on_c, 0, 41, 0
1, 197280, Note_on_c, 0, 45, 100
1, 197520, Note_on_c, 0, 45, 0
1, 197520, Note_on_c, 0, 48, 100
1, 197760, Note_on_c, 0, 48, 0
1, 197760, Note_on_c, 0, 45, 100
1, 198000, Note_on_c, 0, 45, 0
1, 198000, Note_on_c, 0, 40, 100
1, 198240, Note_on_c, 0, 40, 0
1, 198240, Note_on_c, 0, 45, 100
1, 198480, Note_on_c, 0, 45, 0
1, 198480, Note_on_c, 0, 48, 100
1, 198720, Note_on_c, 0, 48, 0
1, 198720, Note_on_c, 0, 47, 100
1, 198960, Note_on_c, 0, 47, 0
1, 198960, Note_on_c, 0, 38, 100
1, 199200, Note_on_c, 0, 38, 0
1, 199200, Note_on_c, 0, 47, 100
1, 199440, Note_on_c, 0, 47, 0
1, 199440, Note_on_c, 0, 53, 100
1, 199680, Note_on_c, 0, 53, 0
1, 199680, Note_on_c, 0, 47, 100
1, 199920, Note_on_c, 0, 47, 0
1, 199920, Note_on_c, 0, 38, 100
1, 200160, Note_on_c, 0, 38, 0
1, 200160, Note_on_c, 0, 47, 100
1, 200400, Note_on_c, 0, 47, 0
1, 200400, Note_on_c, 0, 53, 100
1, 200640, Note_on_c, 0, 53, 0
1, 200640, Note_on_c, 0, 47, 100
1, 200880, Note_on_c, 0, 47, 0
1, 200880, Note_on_c, 0, 38, 100
1, 201120, Note_on_c, 0, 38, 0
1, 201120, Note_on_c, 0, 47, 100
1, 201360, Note_on_c, 0, 47, 0
1, 201360, Note_on_c, 0, 53, 100
1, 201600, Note_on_c, 0, 53, 0
1, 201600, Note_on_c, 0, 52, 100
1, 201840, Note_on_c, 0, 52, 0
1, 201840, Note_on_c, 0, 36, 100
1, 202080, Note_on_c, 0, 36, 0
1, 202080, Note_on_c, 0, 38, 100
1, 202320, Note_on_c, 0, 38, 0
1, 202320, Note_on_c, 0, 40, 100
1, 202560, Note_on_c, 0, 40, 0
1, 202560, Note_on_c, 0, 41, 100
1, 202800, Note_on_c, 0, 41, 0
1, 202800, Note_on_c, 0, 43, 100
1, 203040, Note_on_c, 0, 43, 0
1, 203040, Note_on_c, 0, 45, 100
1, 203280, Note_on_c, 0, 45, 0
1, 203280, Note_on_c, 0, 47, 100
1, 203520, Note_on_c, 0, 47, 0
1, 203520, Note_on_c, 0, 48, 100
1, 203760, Note_on_c, 0, 48, 0
1, 203760, Note_on_c, 0, 50, 100
1, 204000, Note_on_c, 0, 50, 0
1, 204000, Note_on_c, 0, 52, 100
1, 204240, Note_on_c, 0, 52, 0
1, 204240, Note_on_c, 0, 53, 100
1, 204480, Note_on_c, 0, 53, 0
1, 204480, Note_on_c, 0, 55, 100
1, 204720, Note_on_c, 0, 55, 0
1, 204720, Note_on_c, 0, 52, 100
1, 204960, Note_on_c, 0, 52, 0
1, 204960, Note_on_c, 0, 48, 100
1, 205200, Note_on_c, 0, 48, 0
1, 205200, Note_on_c, 0, 50, 100
1, 205440, Note_on_c, 0, 50, 0
1, 205440, Note_on_c, 0, 52, 100
1, 205680, Note_on_c, 0, 52, 0
1, 205680, Note_on_c, 0, 53, 100
1, 205920, Note_on_c, 0, 53, 0
1, 205920, Note_on_c, 0, 55, 100
1, 206160, Note_on_c, 0, 55, 0
1, 206160, Note_on_c, 0, 57, 100
1, 206400, Note_on_c, 0, 57, 0
1, 206400, Note_on_c, 0, 58, 100
1, 206640, Note_on_c, 0, 58, 0
1, 206640, Note_on_c, 0, 57, 100
1, 206880, Note_on_c, 0, 57, 0
1, 206880, Note_on_c, 0, 58, 100
1, 207120, Note_on_c, 0, 58, 0
1, 207120, Note_on_c, 0, 55, 100
1, 207360, Note_on_c, 0, 55, 0
1, 207360, Note_on_c, 0, 57, 100
1, 207600, Note_on_c, 0, 57, 0
1, 207600, Note_on_c, 0, 53, 100
1, 207840, Note_on_c, 0, 53, 0
1, 207840, Note_on_c, 0, 50, 100
1, 208080, Note_on_c, 0, 50, 0
1, 208080, Note_on_c, 0, 52, 100
1, 208320, Note_on_c, 0, 52, 0
1, 208320, Note_on_c, 0, 53, 100
1, 208560, Note_on_c, 0, 53, 0
1, 208560, Note_on_c, 0, 55, 100
1, 208800, Note_on_c, 0, 55, 0
1, 208800, Note_on_c, 0, 57, 100
1, 209040, Note_on_c, 0, 57, 0
1, 209040, Note_on_c, 0, 59, 100
1, 209280, Note_on_c, 0, 59, 0
1, 209280, Note_on_c, 0, 60, 100
1, 209520, Note_on_c, 0, 60, 0
1, 209520, Note_on_c, 0, 59, 100
1, 209760, Note_on_c, 0, 59, 0
1, 209760, Note_on_c, 0, 60, 100
1, 210000, Note_on_c, 0, 60, 0
1, 210000, Note_on_c, 0, 57, 100
1, 210240, Note_on_c, 0, 57, 0
1, 210240, Note_on_c, 0, 59, 100
1, 210480, Note_on_c, 0, 59, 0
1, 210480, Note_on_c, 0, 55, 100
1, 210720, Note_on_c, 0, 55, 0
1, 210720, Note_on_c, 0, 52, 100
1, 210960, Note_on_c, 0, 52, 0
1, 210960, Note_on_c, 0, 53, 100
1, 211200, Note_on_c, 0, 53, 0
1, 211200, Note_on_c, 0, 55, 100
1, 211440, Note_on_c, 0, 55, 0
1, 211440, Note_on_c, 0, 57, 100
1, 211680, Note_on_c, 0, 57, 0
1, 211680, Note_on_c, 0, 59, 100
1, 211920, Note_on_c, 0, 59, 0
1, 211920, Note_on_c, 0, 60, 100
1, 212160, Note_on_c, 0, 60, 0
1, 212160, Note_on_c, 0, 62, 100
1, 212400, Note_on_c, 0, 62, 0
1, 212400, Note_on_c, 0, 60, 100
1, 212640, Note_on_c, 0, 60, 0
1, 212640, Note_on_c, 0, 62, 100
1, 212880, Note_on_c, 0, 62, 0
1, 212880, Note_on_c, 0, 59, 100
1, 213120, Note_on_c, 0, 59, 0
1, 213120, Note_on_c, 0, 60, 100
1, 213360, Note_on_c, 0, 60, 0
1, 213360, Note_on_c, 0, 57, 100
1, 213600, Note_on_c, 0, 57, 0
1, 213600, Note_on_c, 0, 53, 100
1, 213840, Note_on_c, 0, 53, 0
1, 213840, Note_on_c, 0, 55, 100
1, 214080, Note_on_c, 0, 55, 0
1, 214080, Note_on_c, 0, 57, 100
1, 214320, Note_on_c, 0, 57, 0
1, 214320, Note_on_c, 0, 59, 100
1, 214560, Note_on_c, 0, 59, 0
1, 214560, Note_on_c, 0, 60, 100
1, 214800, Note_on_c, 0, 60, 0
1, 214800, Note_on_c, 0, 62, 100
1, 215040, Note_on_c, 0, 62, 0
1, 215040, Note_on_c, 0, 64, 100
1, 215280, Note_on_c, 0, 64, 0
1, 215280, Note_on_c, 0, 62, 100
1, 215520, Note_on_c, 0, 62, 0
1, 215520, Note_on_c, 0, 64, 100
1, 215760, Note_on_c, 0, 64, 0
1, 215760, Note_on_c, 0, 60, 100
1, 216000, Note_on_c, 0, 60, 0
1, 216000, Note_on_c, 0, 59, 100
1, 216240, Note_on_c, 0, 59, 0
1, 216240, Note_on_c, 0, 57, 100
1, 216480, Note_on_c, 0, 57, 0
1, 216480, Note_on_c, 0, 59, 100
1, 216720, Note_on_c, 0, 59, 0
1, 216720, Note_on_c, 0, 55, 100
1, 216960, Note_on_c, 0, 55, 0
1, 216960, Note_on_c, 0, 53, 100
1, 217200, Note_on_c, 0, 53, 0
1, 217200, Note_on_c, 0, 52, 100
1, 217440, Note_on_c, 0, 52, 0
1, 217440, Note_on_c, 0, 53, 100
1, 217680, Note_on_c, 0, 53, 0
1, 217680, Note_on_c, 0, 50, 100
1, 217920, Note_on_c, 0, 50, 0
1, 217920, Note_on_c, 0, 47, 100
1, 218160, Note_on_c, 0, 47, 0
1, 218160, Note_on_c, 0, 45, 100
1, 218400, Note_on_c, 0, 45, 0
1, 218400, Note_on_c, 0, 47, 100
1, 218640, Note_on_c, 0, 47, 0
1, 218640, Note_on_c, 0, 43, 100
1, 218880, Note_on_c, 0, 43, 0
1, 218880, Note_on_c, 0, 41, 100
1, 219840, Note_on_c, 0, 41, 0
1, 221760, Note_on_c, 0, 40, 100
1, 222000, Note_on_c, 0, 40, 0
1, 222000, Note_on_c, 0, 60, 100
1, 222240, Note_on_c, 0, 60, 0
1, 222240, Note_on_c, 0, 59, 100
1, 222480, Note_on_c, 0, 59, 0
1, 222480, Note_on_c, 0, 57, 100
1, 222720, Note_on_c, 0, 57, 0
1, 222720, Note_on_c, 0, 55, 100
1, 222960, Note_on_c, 0, 55, 0
1, 222960, Note_on_c, 0, 53, 100
1, 223200, Note_on_c, 0, 53, 0
1, 223200, Note_on_c, 0, 52, 100
1, 223440, Note_on_c, 0, 52, 0
1, 223440, Note_on_c, 0, 50, 100
1, 223680, Note_on_c, 0, 50, 0
1, 223680, Note_on_c, 0, 48, 100
1, 223920, Note_on_c, 0, 48, 0
1, 223920, Note_on_c, 0, 43, 100
1, 224160, Note_on_c, 0, 43, 0
1, 224160, Note_on_c, 0, 40, 100
1, 224400, Note_on_c, 0, 40, 0
1, 224400, Note_on_c, 0, 43, 100
1, 224640, Note_on_c, 0, 43, 0
1, 224640, Note_on_c, 0, 39, 100
1, 225600, Note_on_c, 0, 39, 0
1, 227520, Note_on_c, 0, 38, 100
1, 228480, Note_on_c, 0, 38, 0
1, 230400, Note_on_c, 0, 36, 100
1, 231360, Note_on_c, 0, 36, 0
1, 233280, Note_on_c, 0, 36, 100
1, 234240, Note_on_c, 0, 36, 0
1, 236160, Note_on_c, 0, 36, 100
1, 237120, Note_on_c, 0, 36, 0
1, 239040, Note_on_c, 0, 36, 100
1, 240000, Note_on_c, 0, 36, 0
1, 241920, Note_on_c, 0, 36, 100
1, 242880, Note_on_c, 0, 36, 0
1, 250557, Note_on_c, 0, 60, 100
1, 251530, Note_on_c, 0, 60, 0
1, 251539, Title_t, "Solo Cello"
1, 251539, Program_c, 0, 42
1, 251539, Control_c, 0, 7, 100
1, 251539, Control_c, 0, 10, 64
1, 254640, Note_on_c, 0, 55, 100
1, 254880, Note_on_c, 0, 55, 0
1, 254880, Note_on_c, 0, 57, 100
1, 255120, Note_on_c, 0, 57, 0
1, 255120, Note_on_c, 0, 59, 100
1, 255360, Note_on_c, 0, 59, 0
1, 255360, Note_on_c, 0, 60, 100
1, 255600, Note_on_c, 0, 60, 0
1, 255600, Note_on_c, 0, 59, 100
1, 255720, Note_on_c, 0, 59, 0
1, 255720, Note_on_c, 0, 57, 100
1, 255840, Note_on_c, 0, 57, 0
1, 255840, Note_on_c, 0, 55, 100
1, 256080, Note_on_c, 0, 55, 0
1, 256080, Note_on_c, 0, 53, 100
1, 256320, Note_on_c, 0, 53, 0
1, 256320, Note_on_c, 0, 52, 100
1, 256560, Note_on_c, 0, 52, 0
1, 256560, Note_on_c, 0, 55, 100
1, 256680, Note_on_c, 0, 55, 0
1, 256680, Note_on_c, 0, 53, 100
1, 256800, Note_on_c, 0, 53, 0
1, 256800, Note_on_c, 0, 52, 100
1, 257040, Note_on_c, 0, 52, 0
1, 257040, Note_on_c, 0, 50, 100
1, 257280, Note_on_c, 0, 50, 0
1, 257280, Note_on_c, 0, 48, 100
1, 257520, Note_on_c, 0, 48, 0
1, 257520, Note_on_c, 0, 43, 100
1, 257640, Note_on_c, 0, 43, 0
1, 257640, Note_on_c, 0, 41, 100
1, 257760, Note_on_c, 0, 41, 0
1, 257760, Note_on_c, 0, 40, 100
1, 258000, Note_on_c, 0, 40, 0
1, 258000, Note_on_c, 0, 38, 100
1, 258240, Note_on_c, 0, 38, 0
1, 258240, Note_on_c, 0, 36, 100
1, 258480, Note_on_c, 0, 36, 0
1, 258480, Note_on_c, 0, 48, 100
1, 258720, Note_on_c, 0, 48, 0
1, 258720, Note_on_c, 0, 50, 100
1, 258960, Note_on_c, 0, 50, 0
1, 258960, Note_on_c, 0, 52, 100
1, 259200, Note_on_c, 0, 52, 0
1, 259200, Note_on_c, 0, 53, 100
1, 259440, Note_on_c, 0, 53, 0
1, 259440, Note_on_c, 0, 52, 100
1, 259560, Note_on_c, 0, 52, 0
1, 259560, Note_on_c, 0, 50, 100
1, 259680, Note_on_c, 0, 50, 0
1, 259680, Note_on_c, 0, 52, 100
1, 259920, Note_on_c, 0, 52, 0
1, 259920, Note_on_c, 0, 55, 100
1, 260160, Note_on_c, 0, 55, 0
1, 260160, Note_on_c, 0, 50, 100
1, 260400, Note_on_c, 0, 50, 0
1, 260400, Note_on_c, 0, 48, 100
1, 260520, Note_on_c, 0, 48, 0
1, 260520, Note_on_c, 0, 47, 100
1, 260640, Note_on_c, 0, 47, 0
1, 260640, Note_on_c, 0, 48, 100
1, 260880, Note_on_c, 0, 48, 0
1, 260880, Note_on_c, 0, 55, 100
1, 261120, Pitch_bend_c, 0, 12288
1, 261120, Note_on_c, 0, 55, 0
1, 261120, Note_on_c, 0, 47, 100
1, 261180, Pitch_bend_c, 0, 8192
1, 261240, Pitch_bend_c, 0, 12288
1, 261300, Pitch_bend_c, 0, 8192
1, 261600, Note_on_c, 0, 47, 0
1, 261600, Note_on_c, 0, 45, 100
1, 261840, Note_on_c, 0, 45, 0
1, 261840, Note_on_c, 0, 43, 100
1, 262080, Note_on_c, 0, 43, 0
1, 262080, Note_on_c, 0, 55, 100
1, 262200, Note_on_c, 0, 55, 0
1, 262200, Note_on_c, 0, 53, 100
1, 262320, Note_on_c, 0, 53, 0
1, 262320, Note_on_c, 0, 52, 100
1, 262440, Note_on_c, 0, 52, 0
1, 262440, Note_on_c, 0, 53, 100
1, 262560, Note_on_c, 0, 53, 0
1, 262560, Note_on_c, 0, 55, 100
1, 262800, Note_on_c, 0, 55, 0
1, 262800, Note_on_c, 0, 52, 100
1, 263040, Note_on_c, 0, 52, 0
1, 263040, Note_on_c, 0, 45, 100
1, 263280, Note_on_c, 0, 45, 0
1, 263280, Note_on_c, 0, 55, 100
1, 263520, Note_on_c, 0, 55, 0
1, 263520, Note_on_c, 0, 60, 100
1, 263760, Note_on_c, 0, 60, 0
1, 263760, Note_on_c, 0, 52, 100
1, 264000, Note_on_c, 0, 52, 0
1, 264000, Note_on_c, 0, 53, 100
1, 264120, Note_on_c, 0, 53, 0
1, 264120, Note_on_c, 0, 52, 100
1, 264240, Note_on_c, 0, 52, 0
1, 264240, Note_on_c, 0, 50, 100
1, 264360, Note_on_c, 0, 50, 0
1, 264360, Note_on_c, 0, 52, 100
1, 264480, Note_on_c, 0, 52, 0
1, 264480, Note_on_c, 0, 53, 100
1, 264720, Note_on_c, 0, 53, 0
1, 264720, Note_on_c, 0, 50, 100
1, 264960, Note_on_c, 0, 50, 0
1, 264960, Note_on_c, 0, 43, 100
1, 265200, Note_on_c, 0, 43, 0
1, 265200, Note_on_c, 0, 53, 100
1, 265440, Note_on_c, 0, 53, 0
1, 265440, Note_on_c, 0, 59, 100
1, 265680, Note_on_c, 0, 59, 0
1, 265680, Note_on_c, 0, 50, 100
1, 265920, Note_on_c, 0, 50, 0
1, 265920, Note_on_c, 0, 52, 100
1, 266040, Note_on_c, 0, 52, 0
1, 266040, Note_on_c, 0, 50, 100
1, 266160, Note_on_c, 0, 50, 0
1, 266160, Note_on_c, 0, 48, 100
1, 266280, Note_on_c, 0, 48, 0
1, 266280, Note_on_c, 0, 50, 100
1, 266400, Note_on_c, 0, 50, 0
1, 266400, Note_on_c, 0, 52, 100
1, 266640, Note_on_c, 0, 52, 0
1, 266640, Note_on_c, 0, 48, 100
1, 266880, Note_on_c, 0, 48, 0
1, 266880, Note_on_c, 0, 41, 100
1, 267000, Note_on_c, 0, 41, 0
1, 267000, Note_on_c, 0, 45, 100
1, 267120, Note_on_c, 0, 45, 0
1, 267120, Note_on_c, 0, 47, 100
1, 267240, Note_on_c, 0, 47, 0
1, 267240, Note_on_c, 0, 48, 100
1, 267360, Note_on_c, 0, 48, 0
1, 267360, Note_on_c, 0, 50, 100
1, 267600, Note_on_c, 0, 50, 0
1, 267600, Note_on_c, 0, 53, 100
1, 267840, Note_on_c, 0, 53, 0
1, 267840, Note_on_c, 0, 52, 100
1, 268080, Note_on_c, 0, 52, 0
1, 268080, Note_on_c, 0, 48, 100
1, 268320, Note_on_c, 0, 48, 0
1, 268320, Note_on_c, 0, 43, 100
1, 268560, Note_on_c, 0, 43, 0
1, 268560, Note_on_c, 0, 47, 100
1, 268800, Note_on_c, 0, 47, 0
1, 268800, Note_on_c, 0, 48, 100
1, 269280, Note_on_c, 0, 48, 0
1, 269280, Note_on_c, 0, 36, 100
1, 269760, Note_on_c, 0, 36, 0
1, 269760, Note_on_c, 0, 52, 100
1, 269880, Note_on_c, 0, 52, 0
1, 269880, Note_on_c, 0, 50, 100
1, 270000, Note_on_c, 0, 50, 0
1, 270000, Note_on_c, 0, 48, 100
1, 270120, Note_on_c, 0, 48, 0
1, 270120, Note_on_c, 0, 47, 100
1, 270240, Note_on_c, 0, 47, 0
1, 270240, Note_on_c, 0, 48, 100
1, 270480, Note_on_c, 0, 48, 0
1, 270480, Note_on_c, 0, 52, 100
1, 270720, Note_on_c, 0, 52, 0
1, 270720, Note_on_c, 0, 54, 100
1, 270960, Note_on_c, 0, 54, 0
1, 270960, Note_on_c, 0, 57, 100
1, 271200, Note_on_c, 0, 57, 0
1, 271200, Note_on_c, 0, 62, 100
1, 271440, Note_on_c, 0, 62, 0
1, 271440, Note_on_c, 0, 54, 100
1, 271680, Note_on_c, 0, 54, 0
1, 271680, Note_on_c, 0, 55, 100
1, 271920, Note_on_c, 0, 55, 0
1, 271920, Note_on_c, 0, 47, 100
1, 272160, Pitch_bend_c, 0, 16383
1, 272160, Note_on_c, 0, 47, 0
1, 272160, Note_on_c, 0, 45, 100
1, 272220, Pitch_bend_c, 0, 8192
1, 272280, Pitch_bend_c, 0, 16383
1, 272340, Pitch_bend_c, 0, 8192
1, 272400, Note_on_c, 0, 45, 0
1, 272400, Note_on_c, 0, 43, 100
1, 272640, Note_on_c, 0, 43, 0
1, 272640, Note_on_c, 0, 42, 100
1, 273360, Note_on_c, 0, 42, 0
1, 273360, Note_on_c, 0, 50, 100
1, 273480, Note_on_c, 0, 50, 0
1, 273480, Note_on_c, 0, 52, 100
1, 273600, Note_on_c, 0, 52, 0
1, 273600, Note_on_c, 0, 54, 100
1, 273720, Note_on_c, 0, 54, 0
1, 273720, Note_on_c, 0, 55, 100
1, 273840, Note_on_c, 0, 55, 0
1, 273840, Note_on_c, 0, 57, 100
1, 273960, Note_on_c, 0, 57, 0
1, 273960, Note_on_c, 0, 59, 100
1, 274080, Note_on_c, 0, 59, 0
1, 274080, Note_on_c, 0, 60, 100
1, 274320, Note_on_c, 0, 60, 0
1, 274320, Note_on_c, 0, 57, 100
1, 274560, Note_on_c, 0, 57, 0
1, 274560, Note_on_c, 0, 59, 100
1, 274800, Note_on_c, 0, 59, 0
1, 274800, Note_on_c, 0, 50, 100
1, 274920, Note_on_c, 0, 50, 0
1, 274920, Note_on_c, 0, 48, 100
1, 275040, Note_on_c, 0, 48, 0
1, 275040, Note_on_c, 0, 50, 100
1, 275280, Note_on_c, 0, 50, 0
1, 275280, Note_on_c, 0, 52, 100
1, 275520, Note_on_c, 0, 52, 0
1, 275520, Note_on_c, 0, 53, 100
1, 275760, Note_on_c, 0, 53, 0
1, 275760, Note_on_c, 0, 45, 100
1, 276000, Note_on_c, 0, 45, 0
1, 276000, Note_on_c, 0, 47, 100
1, 276240, Note_on_c, 0, 47, 0
1, 276240, Note_on_c, 0, 53, 100
1, 276480, Note_on_c, 0, 53, 0
1, 276480, Note_on_c, 0, 52, 100
1, 276720, Note_on_c, 0, 52, 0
1, 276960, Note_on_c, 0, 54, 100
1, 277200, Note_on_c, 0, 54, 0
1, 277440, Note_on_c, 0, 55, 100
1, 277680, Note_on_c, 0, 55, 0
1, 277920, Note_on_c, 0, 57, 100
1, 278160, Note_on_c, 0, 57, 0
1, 278400, Note_on_c, 0, 59, 100
1, 278640, Note_on_c, 0, 59, 0
1, 278880, Note_on_c, 0, 60, 100
1, 279120, Note_on_c, 0, 60, 0
1, 279360, Note_on_c, 0, 62, 100
1, 279600, Note_on_c, 0, 62, 0
1, 279840, Note_on_c, 0, 64, 100
1, 280080, Note_on_c, 0, 64, 0
1, 280320, Note_on_c, 0, 66, 100
1, 280440, Note_on_c, 0, 66, 0
1, 280440, Note_on_c, 0, 60, 100
1, 280560, Note_on_c, 0, 60, 0
1, 280560, Note_on_c, 0, 50, 100
1, 280680, Note_on_c, 0, 50, 0
1, 280680, Note_on_c, 0, 60, 100
1, 280800, Note_on_c, 0, 60, 0
1, 280800, Note_on_c, 0, 66, 100
1, 281040, Note_on_c, 0, 66, 0
1, 281040, Note_on_c, 0, 60, 100
1, 281280, Note_on_c, 0, 60, 0
1, 281280, Note_on_c, 0, 59, 100
1, 281400, Note_on_c, 0, 59, 0
1, 281400, Note_on_c, 0, 62, 100
1, 281520, Note_on_c, 0, 62, 0
1, 281520, Note_on_c, 0, 64, 100
1, 281640, Note_on_c, 0, 64, 0
1, 281640, Note_on_c, 0, 66, 100
1, 281760, Note_on_c, 0, 66, 0
1, 281760, Note_on_c, 0, 67, 100
1, 282000, Note_on_c, 0, 67, 0
1, 282000, Note_on_c, 0, 59, 100
1, 282240, Note_on_c, 0, 59, 0
1, 282240, Note_on_c, 0, 57, 100
1, 282480, Note_on_c, 0, 57, 0
1, 282480, Note_on_c, 0, 67, 100
1, 282720, Note_on_c, 0, 67, 0
1, 282720, Note_on_c, 0, 66, 100
1, 282960, Note_on_c, 0, 66, 0
1, 282960, Note_on_c, 0, 50, 100
1, 283200, Note_on_c, 0, 50, 0
1, 283200, Note_on_c, 0, 55, 100
1, 283320, Note_on_c, 0, 55, 0
1, 283320, Note_on_c, 0, 59, 100
1, 283440, Note_on_c, 0, 59, 0
1, 283440, Note_on_c, 0, 60, 100
1, 283560, Note_on_c, 0, 60, 0
1, 283560, Note_on_c, 0, 62, 100
1, 283680, Note_on_c, 0, 62, 0
1, 283680, Note_on_c, 0, 64, 100
1, 283920, Note_on_c, 0, 64, 0
1, 283920, Note_on_c, 0, 55, 100
1, 284160, Note_on_c, 0, 55, 0
1, 284160, Note_on_c, 0, 54, 100
1, 284400, Note_on_c, 0, 54, 0
1, 284400, Note_on_c, 0, 64, 100
1, 284640, Note_on_c, 0, 64, 0
1, 284640, Note_on_c, 0, 62, 100
1, 284880, Note_on_c, 0, 62, 0
1, 284880, Note_on_c, 0, 47, 100
1, 285120, Note_on_c, 0, 47, 0
1, 285120, Note_on_c, 0, 52, 100
1, 285240, Note_on_c, 0, 52, 0
1, 285240, Note_on_c, 0, 55, 100
1, 285360, Note_on_c, 0, 55, 0
1, 285360, Note_on_c, 0, 57, 100
1, 285480, Note_on_c, 0, 57, 0
1, 285480, Note_on_c, 0, 59, 100
1, 285600, Note_on_c, 0, 59, 0
1, 285600, Note_on_c, 0, 60, 100
1, 285840, Note_on_c, 0, 60, 0
1, 285840, Note_on_c, 0, 52, 100
1, 286080, Note_on_c, 0, 52, 0
1, 286080, Note_on_c, 0, 50, 100
1, 286320, Note_on_c, 0, 50, 0
1, 286320, Note_on_c, 0, 60, 100
1, 286560, Note_on_c, 0, 60, 0
1, 286560, Note_on_c, 0, 59, 100
1, 286800, Note_on_c, 0, 59, 0
1, 286800, Note_on_c, 0, 43, 100
1, 287040, Note_on_c, 0, 43, 0
1, 287040, Note_on_c, 0, 48, 100
1, 287160, Note_on_c, 0, 48, 0
1, 287160, Note_on_c, 0, 47, 100
1, 287280, Note_on_c, 0, 47, 0
1, 287280, Note_on_c, 0, 48, 100
1, 287520, Note_on_c, 0, 48, 0
1, 287520, Note_on_c, 0, 52, 100
1, 287760, Note_on_c, 0, 52, 0
1, 287760, Note_on_c, 0, 47, 100
1, 288000, Note_on_c, 0, 47, 0
1, 288000, Note_on_c, 0, 48, 100
1, 288240, Note_on_c, 0, 48, 0
1, 288240, Note_on_c, 0, 54, 100
1, 288360, Note_on_c, 0, 54, 0
1, 288360, Note_on_c, 0, 52, 100
1, 288480, Note_on_c, 0, 52, 0
1, 288480, Note_on_c, 0, 54, 100
1, 288720, Note_on_c, 0, 54, 0
1, 288720, Note_on_c, 0, 48, 100
1, 288840, Note_on_c, 0, 48, 0
1, 288840, Note_on_c, 0, 47, 100
1, 288960, Note_on_c, 0, 47, 0
1, 288960, Note_on_c, 0, 48, 100
1, 289200, Note_on_c, 0, 48, 0
1, 289200, Note_on_c, 0, 55, 100
1, 289320, Note_on_c, 0, 55, 0
1, 289320, Note_on_c, 0, 54, 100
1, 289440, Note_on_c, 0, 54, 0
1, 289440, Note_on_c, 0, 55, 100
1, 289680, Note_on_c, 0, 55, 0
1, 289680, Note_on_c, 0, 48, 100
1, 289800, Note_on_c, 0, 48, 0
1, 289800, Note_on_c, 0, 47, 100
1, 289920, Note_on_c, 0, 47, 0
1, 289920, Note_on_c, 0, 48, 100
1, 290160, Note_on_c, 0, 48, 0
1, 290160, Note_on_c, 0, 57, 100
1, 290280, Note_on_c, 0, 57, 0
1, 290280, Note_on_c, 0, 55, 100
1, 290400, Note_on_c, 0, 55, 0
1, 290400, Note_on_c, 0, 57, 100
1, 290640, Note_on_c, 0, 57, 0
1, 290640, Note_on_c, 0, 48, 100
1, 290880, Note_on_c, 0, 48, 0
1, 290880, Note_on_c, 0, 47, 100
1, 291000, Note_on_c, 0, 47, 0
1, 291000, Note_on_c, 0, 50, 100
1, 291120, Note_on_c, 0, 50, 0
1, 291120, Note_on_c, 0, 52, 100
1, 291240, Note_on_c, 0, 52, 0
1, 291240, Note_on_c, 0, 54, 100
1, 291360, Note_on_c, 0, 54, 0
1, 291360, Note_on_c, 0, 55, 100
1, 291600, Note_on_c, 0, 55, 0
1, 291600, Note_on_c, 0, 62, 100
1, 291840, Note_on_c, 0, 62, 0
1, 291840, Note_on_c, 0, 60, 100
1, 292080, Note_on_c, 0, 60, 0
1, 292080, Note_on_c, 0, 54, 100
1, 292200, Note_on_c, 0, 54, 0
1, 292200, Note_on_c, 0, 52, 100
1, 292320, Note_on_c, 0, 52, 0
1, 292320, Note_on_c, 0, 54, 100
1, 292560, Note_on_c, 0, 54, 0
1, 292560, Note_on_c, 0, 45, 100
1, 292800, Note_on_c, 0, 45, 0
1, 292800, Note_on_c, 0, 43, 100
1, 292920, Note_on_c, 0, 43, 0
1, 292920, Note_on_c, 0, 47, 100
1, 293040, Note_on_c, 0, 47, 0
1, 293040, Note_on_c, 0, 48, 100
1, 293160, Note_on_c, 0, 48, 0
1, 293160, Note_on_c, 0, 50, 100
1, 293280, Note_on_c, 0, 50, 0
1, 293280, Note_on_c, 0, 52, 100
1, 293520, Note_on_c, 0, 52, 0
1, 293520, Note_on_c, 0, 59, 100
1, 293760, Note_on_c, 0, 59, 0
1, 293760, Note_on_c, 0, 57, 100
1, 294000, Note_on_c, 0, 57, 0
1, 294000, Note_on_c, 0, 50, 100
1, 294120, Note_on_c, 0, 50, 0
1, 294120, Note_on_c, 0, 48, 100
1, 294240, Note_on_c, 0, 48, 0
1, 294240, Note_on_c, 0, 50, 100
1, 294480, Note_on_c, 0, 50, 0
1, 294480, Note_on_c, 0, 42, 100
1, 294720, Note_on_c, 0, 42, 0
1, 294720, Note_on_c, 0, 40, 100
1, 294840, Note_on_c, 0, 40, 0
1, 294840, Note_on_c, 0, 43, 100
1, 294960, Note_on_c, 0, 43, 0
1, 294960, Note_on_c, 0, 45, 100
1, 295080, Note_on_c, 0, 45, 0
1, 295080, Note_on_c, 0, 47, 100
1, 295200, Note_on_c, 0, 47, 0
1, 295200, Note_on_c, 0, 48, 100
1, 295440, Note_on_c, 0, 48, 0
1, 295440, Note_on_c, 0, 55, 100
1, 295680, Note_on_c, 0, 55, 0
1, 295680, Note_on_c, 0, 54, 100
1, 295800, Note_on_c, 0, 54, 0
1, 295800, Note_on_c, 0, 57, 100
1, 295920, Note_on_c, 0, 57, 0
1, 295920, Note_on_c, 0, 59, 100
1, 296040, Note_on_c, 0, 59, 0
1, 296040, Note_on_c, 0, 60, 100
1, 296160, Note_on_c, 0, 60, 0
1, 296160, Note_on_c, 0, 62, 100
1, 296400, Note_on_c, 0, 62, 0
1, 296400, Note_on_c, 0, 48, 100
1, 296640, Note_on_c, 0, 48, 0
1, 296640, Note_on_c, 0, 47, 100
1, 296880, Note_on_c, 0, 47, 0
1, 296880, Note_on_c, 0, 55, 100
1, 297120, Note_on_c, 0, 55, 0
1, 297120, Note_on_c, 0, 38, 100
1, 297360, Note_on_c, 0, 38, 0
1, 297360, Note_on_c, 0, 54, 100
1, 297600, Note_on_c, 0, 54, 0
1, 297600, Note_on_c, 0, 55, 100
1, 297840, Note_on_c, 0, 55, 0
1, 297840, Note_on_c, 0, 59, 100
1, 297960, Note_on_c, 0, 59, 0
1, 297960, Note_on_c, 0, 60, 100
1, 298080, Note_on_c, 0, 60, 0
1, 298080, Note_on_c, 0, 62, 100
1, 298320, Note_on_c, 0, 62, 0
1, 298320, Note_on_c, 0, 55, 100
1, 298440, Note_on_c, 0, 55, 0
1, 298440, Note_on_c, 0, 57, 100
1, 298560, Note_on_c, 0, 57, 0
1, 298560, Note_on_c, 0, 59, 100
1, 298800, Note_on_c, 0, 59, 0
1, 298800, Note_on_c, 0, 55, 100
1, 299040, Note_on_c, 0, 55, 0
1, 299040, Note_on_c, 0, 50, 100
1, 299280, Note_on_c, 0, 50, 0
1, 299280, Note_on_c, 0, 54, 100
1, 299520, Note_on_c, 0, 54, 0
1, 299520, Note_on_c, 0, 55, 100
1, 300720, Note_on_c, 0, 55, 0
1, 300720, Note_on_c, 0, 55, 100
1, 300960, Note_on_c, 0, 55, 0
1, 300960, Note_on_c, 0, 57, 100
1, 301200, Note_on_c, 0, 57, 0
1, 301200, Note_on_c, 0, 59, 100
1, 301440, Note_on_c, 0, 59, 0
1, 301440, Note_on_c, 0, 60, 100
1, 301680, Note_on_c, 0, 60, 0
1, 301680, Note_on_c, 0, 59, 100
1, 301800, Note_on_c, 0, 59, 0
1, 301800, Note_on_c, 0, 57, 100
1, 301920, Note_on_c, 0, 57, 0
1, 301920, Note_on_c, 0, 55, 100
1, 302160, Note_on_c, 0, 55, 0
1, 302160, Note_on_c, 0, 53, 100
1, 302400, Note_on_c, 0, 53, 0
1, 302400, Note_on_c, 0, 52, 100
1, 302640, Note_on_c, 0, 52, 0
1, 302640, Note_on_c, 0, 55, 100
1, 302760, Note_on_c, 0, 55, 0
1, 302760, Note_on_c, 0, 53, 100
1, 302880, Note_on_c, 0, 53, 0
1, 302880, Note_on_c, 0, 52, 100
1, 303120, Note_on_c, 0, 52, 0
1, 303120, Note_on_c, 0, 50, 100
1, 303360, Note_on_c, 0, 50, 0
1, 303360, Note_on_c, 0, 48, 100
1, 303600, Note_on_c, 0, 48, 0
1, 303600, Note_on_c, 0, 43, 100
1, 303720, Note_on_c, 0, 43, 0
1, 303720, Note_on_c, 0, 41, 100
1, 303840, Note_on_c, 0, 41, 0
1, 303840, Note_on_c, 0, 40, 100
1, 304080, Note_on_c, 0, 40, 0
1, 304080, Note_on_c, 0, 38, 100
1, 304320, Note_on_c, 0, 38, 0
1, 304320, Note_on_c, 0, 36, 100
1, 304560, Note_on_c, 0, 36, 0
1, 304560, Note_on_c, 0, 48, 100
1, 304800, Note_on_c, 0, 48, 0
1, 304800, Note_on_c, 0, 50, 100
1, 305040, Note_on_c, 0, 50, 0
1, 305040, Note_on_c, 0, 52, 100
1, 305280, Note_on_c, 0, 52, 0
1, 305280, Note_on_c, 0, 53, 100
1, 305520, Note_on_c, 0, 53, 0
1, 305520, Note_on_c, 0, 52, 100
1, 305640, Note_on_c, 0, 52, 0
1, 305640, Note_on_c, 0, 50, 100
1, 305760, Note_on_c, 0, 50, 0
1, 305760, Note_on_c, 0, 52, 100
1, 306000, Note_on_c, 0, 52, 0
1, 306000, Note_on_c, 0, 55, 100
1, 306240, Note_on_c, 0, 55, 0
1, 306240, Note_on_c, 0, 50, 100
1, 306480, Note_on_c, 0, 50, 0
1, 306480, Note_on_c, 0, 48, 100
1, 306600, Note_on_c, 0, 48, 0
1, 306600, Note_on_c, 0, 47, 100
1, 306720, Note_on_c, 0, 47, 0
1, 306720, Note_on_c, 0, 48, 100
1, 306960, Note_on_c, 0, 48, 0
1, 306960, Note_on_c, 0, 55, 100
1, 307200, Pitch_bend_c, 0, 12288
1, 307200, Note_on_c, 0, 55, 0
1, 307200, Note_on_c, 0, 47, 100
1, 307260, Pitch_bend_c, 0, 8192
1, 307320, Pitch_bend_c, 0, 12288
1, 307380, Pitch_bend_c, 0, 8192
1, 307680, Note_on_c, 0, 47, 0
1, 307680, Note_on_c, 0, 45, 100
1, 307920, Note_on_c, 0, 45, 0
1, 307920, Note_on_c, 0, 43, 100
1, 308160, Note_on_c, 0, 43, 0
1, 308160, Note_on_c, 0, 55, 100
1, 308280, Note_on_c, 0, 55, 0
1, 308280, Note_on_c, 0, 53, 100
1, 308400, Note_on_c, 0, 53, 0
1, 308400, Note_on_c, 0, 52, 100
1, 308520, Note_on_c, 0, 52, 0
1, 308520, Note_on_c, 0, 53, 100
1, 308640, Note_on_c, 0, 53, 0
1, 308640, Note_on_c, 0, 55, 100
1, 308880, Note_on_c, 0, 55, 0
1, 308880, Note_on_c, 0, 52, 100
1, 309120, Note_on_c, 0, 52, 0
1, 309120, Note_on_c, 0, 45, 100
1, 309360, Note_on_c, 0, 45, 0
1, 309360, Note_on_c, 0, 55, 100
1, 309600, Note_on_c, 0, 55, 0
1, 309600, Note_on_c, 0, 60, 100
1, 309840, Note_on_c, 0, 60, 0
1, 309840, Note_on_c, 0, 52, 100
1, 310080, Note_on_c, 0, 52, 0
1, 310080, Note_on_c, 0, 53, 100
1, 310200, Note_on_c, 0, 53, 0
1, 310200, Note_on_c, 0, 52, 100
1, 310320, Note_on_c, 0, 52, 0
1, 310320, Note_on_c, 0, 50, 100
1, 310440, Note_on_c, 0, 50, 0
1, 310440, Note_on_c, 0, 52, 100
1, 310560, Note_on_c, 0, 52, 0
1, 310560, Note_on_c, 0, 53, 100
1, 310800, Note_on_c, 0, 53, 0
1, 310800, Note_on_c, 0, 50, 100
1, 311040, Note_on_c, 0, 50, 0
1, 311040, Note_on_c, 0, 43, 100
1, 311280, Note_on_c, 0, 43, 0
1, 311280, Note_on_c, 0, 53, 100
1, 311520, Note_on_c, 0, 53, 0
1, 311520, Note_on_c, 0, 59, 100
1, 311760, Note_on_c, 0, 59, 0
1, 311760, Note_on_c, 0, 50, 100
1, 312000, Note_on_c, 0, 50, 0
1, 312000, Note_on_c, 0, 52, 100
1, 312120, Note_on_c, 0, 52, 0
1, 312120, Note_on_c, 0, 50, 100
1, 312240, Note_on_c, 0, 50, 0
1, 312240, Note_on_c, 0, 48, 100
1, 312360, Note_on_c, 0, 48, 0
1, 312360, Note_on_c, 0, 50, 100
1, 312480, Note_on_c, 0, 50, 0
1, 312480, Note_on_c, 0, 52, 100
1, 312720, Note_on_c, 0, 52, 0
1, 312720, Note_on_c, 0, 48, 100
1, 312960, Note_on_c, 0, 48, 0
1, 312960, Note_on_c, 0, 41, 100
1, 313080, Note_on_c, 0, 41, 0
1, 313080, Note_on_c, 0, 45, 100
1, 313200, Note_on_c, 0, 45, 0
1, 313200, Note_on_c, 0, 47, 100
1, 313320, Note_on_c, 0, 47, 0
1, 313320, Note_on_c, 0, 48, 100
1, 313440, Note_on_c, 0, 48, 0
1, 313440, Note_on_c, 0, 50, 100
1, 313680, Note_on_c, 0, 50, 0
1, 313680, Note_on_c, 0, 53, 100
1, 313920, Note_on_c, 0, 53, 0
1, 313920, Note_on_c, 0, 52, 100
1, 314160, Note_on_c, 0, 52, 0
1, 314160, Note_on_c, 0, 48, 100
1, 314400, Note_on_c, 0, 48, 0
1, 314400, Note_on_c, 0, 43, 100
1, 314640, Note_on_c, 0, 43, 0
1, 314640, Note_on_c, 0, 47, 100
1, 314880, Note_on_c, 0, 47, 0
1, 314880, Note_on_c, 0, 48, 100
1, 315360, Note_on_c, 0, 48, 0
1, 315360, Note_on_c, 0, 36, 100
1, 315840, Note_on_c, 0, 36, 0
1, 315840, Note_on_c, 0, 52, 100
1, 315960, Note_on_c, 0, 52, 0
1, 315960, Note_on_c, 0, 50, 100
1, 316080, Note_on_c, 0, 50, 0
1, 316080, Note_on_c, 0, 48, 100
1, 316200, Note_on_c, 0, 48, 0
1, 316200, Note_on_c, 0, 47, 100
1, 316320, Note_on_c, 0, 47, 0
1, 316320, Note_on_c, 0, 48, 100
1, 316560, Note_on_c, 0, 48, 0
1, 316560, Note_on_c, 0, 52, 100
1, 316800, Note_on_c, 0, 52, 0
1, 316800, Note_on_c, 0, 54, 100
1, 317040, Note_on_c, 0, 54, 0
1, 317040, Note_on_c, 0, 57, 100
1, 317280, Note_on_c, 0, 57, 0
1, 317280, Note_on_c, 0, 62, 100
1, 317520, Note_on_c, 0, 62, 0
1, 317520, Note_on_c, 0, 54, 100
1, 317760, Note_on_c, 0, 54, 0
1, 317760, Note_on_c, 0, 55, 100
1, 318000, Note_on_c, 0, 55, 0
1, 318000, Note_on_c, 0, 47, 100
1, 318240, Pitch_bend_c, 0, 16383
1, 318240, Note_on_c, 0, 47, 0
1, 318240, Note_on_c, 0, 45, 100
1, 318300, Pitch_bend_c, 0, 8192
1, 318360, Pitch_bend_c, 0, 16383
1, 318420, Pitch_bend_c, 0, 8192
1, 318480, Note_on_c, 0, 45, 0
1, 318480, Note_on_c, 0, 43, 100
1, 318720, Note_on_c, 0, 43, 0
1, 318720, Note_on_c, 0, 42, 100
1, 319440, Note_on_c, 0, 42, 0
1, 319440, Note_on_c, 0, 50, 100
1, 319560, Note_on_c, 0, 50, 0
1, 319560, Note_on_c, 0, 52, 100
1, 319680, Note_on_c, 0, 52, 0
1, 319680, Note_on_c, 0, 54, 100
1, 319800, Note_on_c, 0, 54, 0
1, 319800, Note_on_c, 0, 55, 100
1, 319920, Note_on_c, 0, 55, 0
1, 319920, Note_on_c, 0, 57, 100
1, 320040, Note_on_c, 0, 57, 0
1, 320040, Note_on_c, 0, 59, 100
1, 320160, Note_on_c, 0, 59, 0
1, 320160, Note_on_c, 0, 60, 100
1, 320400, Note_on_c, 0, 60, 0
1, 320400, Note_on_c, 0, 57, 100
1, 320640, Note_on_c, 0, 57, 0
1, 320640, Note_on_c, 0, 59, 100
1, 320880, Note_on_c, 0, 59, 0
1, 320880, Note_on_c, 0, 50, 100
1, 321000, Note_on_c, 0, 50, 0
1, 321000, Note_on_c, 0, 48, 100
1, 321120, Note_on_c, 0, 48, 0
1, 321120, Note_on_c, 0, 50, 100
1, 321360, Note_on_c, 0, 50, 0
1, 321360, Note_on_c, 0, 52, 100
1, 321600, Note_on_c, 0, 52, 0
1, 321600, Note_on_c, 0, 53, 100
1, 321840, Note_on_c, 0, 53, 0
1, 321840, Note_on_c, 0, 45, 100
1, 322080, Note_on_c, 0, 45, 0
1, 322080, Note_on_c, 0, 47, 100
1, 322320, Note_on_c, 0, 47, 0
1, 322320, Note_on_c, 0, 53, 100
1, 322560, Note_on_c, 0, 53, 0
1, 322560, Note_on_c, 0, 52, 100
1, 322800, Note_on_c, 0, 52, 0
1, 323040, Note_on_c, 0, 54, 100
1, 323280, Note_on_c, 0, 54, 0
1, 323520, Note_on_c, 0, 55, 100
1, 323760, Note_on_c, 0, 55, 0
1, 324000, Note_on_c, 0, 57, 100
1, 324240, Note_on_c, 0, 57, 0
1, 324480, Note_on_c, 0, 59, 100
1, 324720, Note_on_c, 0, 59, 0
1, 324960, Note_on_c, 0, 60, 100
1, 325200, Note_on_c, 0, 60, 0
1, 325440, Note_on_c, 0, 62, 100
1, 325680, Note_on_c, 0, 62, 0
1, 325920, Note_on_c, 0, 64, 100
1, 326160, Note_on_c, 0, 64, 0
1, 326400, Note_on_c, 0, 66, 100
1, 326520, Note_on_c, 0, 66, 0
1, 326520, Note_on_c, 0, 60, 100
1, 326640, Note_on_c, 0, 60, 0
1, 326640, Note_on_c, 0, 50, 100
1, 326760, Note_on_c, 0, 50, 0
1, 326760, Note_on_c, 0, 60, 100
1, 326880, Note_on_c, 0, 60, 0
1, 326880, Note_on_c, 0, 66, 100
1, 327120, Note_on_c, 0, 66, 0
1, 327120, Note_on_c, 0, 60, 100
1, 327360, Note_on_c, 0, 60, 0
1, 327360, Note_on_c, 0, 59, 100
1, 327480, Note_on_c, 0, 59, 0
1, 327480, Note_on_c, 0, 62, 100
1, 327600, Note_on_c, 0, 62, 0
1, 327600, Note_on_c, 0, 64, 100
1, 327720, Note_on_c, 0, 64, 0
1, 327720, Note_on_c, 0, 66, 100
1, 327840, Note_on_c, 0, 66, 0
1, 327840, Note_on_c, 0, 67, 100
1, 328080, Note_on_c, 0, 67, 0
1, 328080, Note_on_c, 0, 59, 100
1, 328320, Note_on_c, 0, 59, 0
1, 328320, Note_on_c, 0, 57, 100
1, 328560, Note_on_c, 0, 57, 0
1, 328560, Note_on_c, 0, 67, 100
1, 328800, Note_on_c, 0, 67, 0
1, 328800, Note_on_c, 0, 66, 100
1, 329040, Note_on_c, 0, 66, 0
1, 329040, Note_on_c, 0, 50, 100
1, 329280, Note_on_c, 0, 50, 0
1, 329280, Note_on_c, 0, 55, 100
1, 329400, Note_on_c, 0, 55, 0
1, 329400, Note_on_c, 0, 59, 100
1, 329520, Note_on_c, 0, 59, 0
1, 329520, Note_on_c, 0, 60, 100
1, 329640, Note_on_c, 0, 60, 0
1, 329640, Note_on_c, 0, 62, 100
1, 329760, Note_on_c, 0, 62, 0
1, 329760, Note_on_c, 0, 64, 100
1, 330000, Note_on_c, 0, 64, 0
1, 330000, Note_on_c, 0, 55, 100
1, 330240, Note_on_c, 0, 55, 0
1, 330240, Note_on_c, 0, 54, 100
1, 330480, Note_on_c, 0, 54, 0
1, 330480, Note_on_c, 0, 64, 100
1, 330720, Note_on_c, 0, 64, 0
1, 330720, Note_on_c, 0, 62, 100
1, 330960, Note_on_c, 0, 62, 0
1, 330960, Note_on_c, 0, 47, 100
1, 331200, Note_on_c, 0, 47, 0
1, 331200, Note_on_c, 0, 52, 100
1, 331320, Note_on_c, 0, 52, 0
1, 331320, Note_on_c, 0, 55, 100
1, 331440, Note_on_c, 0, 55, 0
1, 331440, Note_on_c, 0, 57, 100
1, 331560, Note_on_c, 0, 57, 0
1, 331560, Note_on_c, 0, 59, 100
1, 331680, Note_on_c, 0, 59, 0
1, 331680, Note_on_c, 0, 60, 100
1, 331920, Note_on_c, 0, 60, 0
1, 331920, Note_on_c, 0, 52, 100
1, 332160, Note_on_c, 0, 52, 0
1, 332160, Note_on_c, 0, 50, 100
1, 332400, Note_on_c, 0, 50, 0
1, 332400, Note_on_c, 0, 60, 100
1, 332640, Note_on_c, 0, 60, 0
1, 332640, Note_on_c, 0, 59, 100
1, 332880, Note_on_c, 0, 59, 0
1, 332880, Note_on_c, 0, 43, 100
1, 333120, Note_on_c, 0, 43, 0
1, 333120, Note_on_c, 0, 48, 100
1, 333240, Note_on_c, 0, 48, 0
1, 333240, Note_on_c, 0, 47, 100
1, 333360, Note_on_c, 0, 47, 0
1, 333360, Note_on_c, 0, 48, 100
1, 333600, Note_on_c, 0, 48, 0
1, 333600, Note_on_c, 0, 52, 100
1, 333840, Note_on_c, 0, 52, 0
1, 333840, Note_on_c, 0, 47, 100
1, 334080, Note_on_c, 0, 47, 0
1, 334080, Note_on_c, 0, 48, 100
1, 334320, Note_on_c, 0, 48, 0
1, 334320, Note_on_c, 0, 54, 100
1, 334440, Note_on_c, 0, 54, 0
1, 334440, Note_on_c, 0, 52, 100
1, 334560, Note_on_c, 0, 52, 0
1, 334560, Note_on_c, 0, 54, 100
1, 334800, Note_on_c, 0, 54, 0
1, 334800, Note_on_c, 0, 48, 100
1, 334920, Note_on_c, 0, 48, 0
1, 334920, Note_on_c, 0, 47, 100
1, 335040, Note_on_c, 0, 47, 0
1, 335040, Note_on_c, 0, 48, 100
1, 335280, Note_on_c, 0, 48, 0
1, 335280, Note_on_c, 0, 55, 100
1, 335400, Note_on_c, 0, 55, 0
1, 335400, Note_on_c, 0, 54, 100
1, 335520, Note_on_c, 0, 54, 0
1, 335520, Note_on_c, 0, 55, 100
1, 335760, Note_on_c, 0, 55, 0
1, 335760, Note_on_c, 0, 48, 100
1, 335880, Note_on_c, 0, 48, 0
1, 335880, Note_on_c, 0, 47, 100
1, 336000, Note_on_c, 0, 47, 0
1, 336000, Note_on_c, 0, 48, 100
1, 336240, Note_on_c, 0, 48, 0
1, 336240, Note_on_c, 0, 57, 100
1, 336360, Note_on_c, 0, 57, 0
1, 336360, Note_on_c, 0, 55, 100
1, 336480, Note_on_c, 0, 55, 0
1, 336480, Note_on_c, 0, 57, 100
1, 336720, Note_on_c, 0, 57, 0
1, 336720, Note_on_c, 0, 48, 100
1, 336960, Note_on_c, 0, 48, 0
1, 336960, Note_on_c, 0, 47, 100
1, 337080, Note_on_c, 0, 47, 0
1, 337080, Note_on_c, 0, 50, 100
1, 337200, Note_on_c, 0, 50, 0
1, 337200, Note_on_c, 0, 52, 100
1, 337320, Note_on_c, 0, 52, 0
1, 337320, Note_on_c, 0, 54, 100
1, 337440, Note_on_c, 0, 54, 0
1, 337440, Note_on_c, 0, 55, 100
1, 337680, Note_on_c, 0, 55, 0
1, 337680, Note_on_c, 0, 62, 100
1, 337920, Note_on_c, 0, 62, 0
1, 337920, Note_on_c, 0, 60, 100
1, 338160, Note_on_c, 0, 60, 0
1, 338160, Note_on_c, 0, 54, 100
1, 338280, Note_on_c, 0, 54, 0
1, 338280, Note_on_c, 0, 52, 100
1, 338400, Note_on_c, 0, 52, 0
1, 338400, Note_on_c, 0, 54, 100
1, 338640, Note_on_c, 0, 54, 0
1, 338640, Note_on_c, 0, 45, 100
1, 338880, Note_on_c, 0, 45, 0
1, 338880, Note_on_c, 0, 43, 100
1, 339000, Note_on_c, 0, 43, 0
1, 339000, Note_on_c, 0, 47, 100
1, 339120, Note_on_c, 0, 47, 0
1, 339120, Note_on_c, 0, 48, 100
1, 339240, Note_on_c, 0, 48, 0
1, 339240, Note_on_c, 0, 50, 100
1, 339360, Note_on_c, 0, 50, 0
1, 339360, Note_on_c, 0, 52, 100
1, 339600, Note_on_c, 0, 52, 0
1, 339600, Note_on_c, 0, 59, 100
1, 339840, Note_on_c, 0, 59, 0
1, 339840, Note_on_c, 0, 57, 100
1, 340080, Note_on_c, 0, 57, 0
1, 340080, Note_on_c, 0, 50, 100
1, 340200, Note_on_c, 0, 50, 0
1, 340200, Note_on_c, 0, 48, 100
1, 340320, Note_on_c, 0, 48, 0
1, 340320, Note_on_c, 0, 50, 100
1, 340560, Note_on_c, 0, 50, 0
1, 340560, Note_on_c, 0, 42, 100
1, 340800, Note_on_c, 0, 42, 0
1, 340800, Note_on_c, 0, 40, 100
1, 340920, Note_on_c, 0, 40, 0
1, 340920, Note_on_c, 0, 43, 100
1, 341040, Note_on_c, 0, 43, 0
1, 341040, Note_on_c, 0, 45, 100
1, 341160, Note_on_c, 0, 45, 0
1, 341160, Note_on_c, 0, 47, 100
1, 341280, Note_on_c, 0, 47, 0
1, 341280, Note_on_c, 0, 48, 100
1, 341520, Note_on_c, 0, 48, 0
1, 341520, Note_on_c, 0, 55, 100
1, 341760, Note_on_c, 0, 55, 0
1, 341760, Note_on_c, 0, 54, 100
1, 341880, Note_on_c, 0, 54, 0
1, 341880, Note_on_c, 0, 57, 100
1, 342000, Note_on_c, 0, 57, 0
1, 342000, Note_on_c, 0, 59, 100
1, 342120, Note_on_c, 0, 59, 0
1, 342120, Note_on_c, 0, 60, 100
1, 342240, Note_on_c, 0, 60, 0
1, 342240, Note_on_c, 0, 62, 100
1, 342480, Note_on_c, 0, 62, 0
1, 342480, Note_on_c, 0, 48, 100
1, 342720, Note_on_c, 0, 48, 0
1, 342720, Note_on_c, 0, 47, 100
1, 342960, Note_on_c, 0, 47, 0
1, 342960, Note_on_c, 0, 55, 100
1, 343200, Note_on_c, 0, 55, 0
1, 343200, Note_on_c, 0, 38, 100
1, 343440, Note_on_c, 0, 38, 0
1, 343440, Note_on_c, 0, 54, 100
1, 343680, Note_on_c, 0, 54, 0
1, 343680, Note_on_c, 0, 55, 100
1, 343920, Note_on_c, 0, 55, 0
1, 343920, Note_on_c, 0, 59, 100
1, 344040, Note_on_c, 0, 59, 0
1, 344040, Note_on_c, 0, 60, 100
1, 344160, Note_on_c, 0, 60, 0
1, 344160, Note_on_c, 0, 62, 100
1, 344400, Note_on_c, 0, 62, 0
1, 344400, Note_on_c, 0, 55, 100
1, 344520, Note_on_c, 0, 55, 0
1, 344520, Note_on_c, 0, 57, 100
1, 344640, Note_on_c, 0, 57, 0
1, 344640, Note_on_c, 0, 59, 100
1, 344880, Note_on_c, 0, 59, 0
1, 344880, Note_on_c, 0, 55, 100
1, 345120, Note_on_c, 0, 55, 0
1, 345120, Note_on_c, 0, 50, 100
1, 345360, Note_on_c, 0, 50, 0
1, 345360, Note_on_c, 0, 54, 100
1, 345600, Note_on_c, 0, 54, 0
1, 345600, Note_on_c, 0, 55, 100
1, 346800, Note_on_c, 0, 55, 0
1, 346800, Note_on_c, 0, 62, 100
1, 347040, Note_on_c, 0, 62, 0
1, 347040, Note_on_c, 0, 64, 100
1, 347280, Note_on_c, 0, 64, 0
1, 347280, Note_on_c, 0, 66, 100
1, 347520, Note_on_c, 0, 66, 0
1, 347520, Note_on_c, 0, 67, 100
1, 347760, Note_on_c, 0, 67, 0
1, 347760, Note_on_c, 0, 66, 100
1, 347880, Note_on_c, 0, 66, 0
1, 347880, Note_on_c, 0, 64, 100
1, 348000, Note_on_c, 0, 64, 0
1, 348000, Note_on_c, 0, 62, 100
1, 348240, Note_on_c, 0, 62, 0
1, 348240, Note_on_c, 0, 60, 100
1, 348480, Note_on_c, 0, 60, 0
1, 348480, Note_on_c, 0, 59, 100
1, 348720, Note_on_c, 0, 59, 0
1, 348720, Note_on_c, 0, 62, 100
1, 348840, Note_on_c, 0, 62, 0
1, 348840, Note_on_c, 0, 60, 100
1, 348960, Note_on_c, 0, 60, 0
1, 348960, Note_on_c, 0, 59, 100
1, 349200, Note_on_c, 0, 59, 0
1, 349200, Note_on_c, 0, 57, 100
1, 349440, Note_on_c, 0, 57, 0
1, 349440, Note_on_c, 0, 55, 100
1, 349680, Note_on_c, 0, 55, 0
1, 349680, Note_on_c, 0, 50, 100
1, 349800, Note_on_c, 0, 50, 0
1, 349800, Note_on_c, 0, 48, 100
1, 349920, Note_on_c, 0, 48, 0
1, 349920, Note_on_c, 0, 47, 100
1, 350160, Note_on_c, 0, 47, 0
1, 350160, Note_on_c, 0, 45, 100
1, 350400, Note_on_c, 0, 45, 0
1, 350400, Note_on_c, 0, 43, 100
1, 350640, Note_on_c, 0, 43, 0
1, 350640, Note_on_c, 0, 59, 100
1, 350880, Note_on_c, 0, 59, 0
1, 350880, Note_on_c, 0, 60, 100
1, 351120, Note_on_c, 0, 60, 0
1, 351120, Note_on_c, 0, 62, 100
1, 351360, Note_on_c, 0, 62, 0
1, 351360, Note_on_c, 0, 64, 100
1, 351480, Note_on_c, 0, 64, 0
1, 351480, Note_on_c, 0, 62, 100
1, 351600, Note_on_c, 0, 62, 0
1, 351600, Note_on_c, 0, 60, 100
1, 351720, Note_on_c, 0, 60, 0
1, 351720, Note_on_c, 0, 59, 100
1, 351840, Note_on_c, 0, 59, 0
1, 351840, Note_on_c, 0, 60, 100
1, 352080, Note_on_c, 0, 60, 0
1, 352080, Note_on_c, 0, 57, 100
1, 352320, Note_on_c, 0, 57, 0
1, 352320, Note_on_c, 0, 53, 100
1, 352560, Note_on_c, 0, 53, 0
1, 352560, Note_on_c, 0, 50, 100
1, 352680, Note_on_c, 0, 50, 0
1, 352680, Note_on_c, 0, 52, 100
1, 352800, Note_on_c, 0, 52, 0
1, 352800, Note_on_c, 0, 53, 100
1, 353040, Note_on_c, 0, 53, 0
1, 353040, Note_on_c, 0, 59, 100
1, 353280, Note_on_c, 0, 59, 0
1, 353280, Note_on_c, 0, 56, 100
1, 353520, Note_on_c, 0, 56, 0
1, 353520, Note_on_c, 0, 54, 100
1, 353760, Note_on_c, 0, 54, 0
1, 353760, Note_on_c, 0, 52, 100
1, 354000, Note_on_c, 0, 52, 0
1, 354000, Note_on_c, 0, 50, 100
1, 354240, Note_on_c, 0, 50, 0
1, 354240, Note_on_c, 0, 48, 100
1, 354360, Note_on_c, 0, 48, 0
1, 354360, Note_on_c, 0, 47, 100
1, 354480, Note_on_c, 0, 47, 0
1, 354480, Note_on_c, 0, 48, 100
1, 354600, Note_on_c, 0, 48, 0
1, 354600, Note_on_c, 0, 50, 100
1, 354720, Note_on_c, 0, 50, 0
1, 354720, Note_on_c, 0, 52, 100
1, 354960, Note_on_c, 0, 52, 0
1, 354960, Note_on_c, 0, 48, 100
1, 355200, Note_on_c, 0, 48, 0
1, 355200, Note_on_c, 0, 41, 100
1, 355440, Note_on_c, 0, 41, 0
1, 355440, Note_on_c, 0, 45, 100
1, 355680, Note_on_c, 0, 45, 0
1, 355680, Note_on_c, 0, 48, 100
1, 355920, Note_on_c, 0, 48, 0
1, 355920, Note_on_c, 0, 52, 100
1, 356160, Note_on_c, 0, 52, 0
1, 356160, Note_on_c, 0, 50, 100
1, 356280, Note_on_c, 0, 50, 0
1, 356280, Note_on_c, 0, 48, 100
1, 356400, Note_on_c, 0, 48, 0
1, 356400, Note_on_c, 0, 50, 100
1, 356520, Note_on_c, 0, 50, 0
1, 356520, Note_on_c, 0, 52, 100
1, 356640, Note_on_c, 0, 52, 0
1, 356640, Note_on_c, 0, 53, 100
1, 356880, Note_on_c, 0, 53, 0
1, 356880, Note_on_c, 0, 50, 100
1, 357120, Note_on_c, 0, 50, 0
1, 357120, Note_on_c, 0, 56, 100
1, 357360, Note_on_c, 0, 56, 0
1, 357360, Note_on_c, 0, 50, 100
1, 357600, Note_on_c, 0, 50, 0
1, 357600, Note_on_c, 0, 40, 100
1, 357840, Note_on_c, 0, 40, 0
1, 357840, Note_on_c, 0, 59, 100
1, 358080, Note_on_c, 0, 59, 0
1, 358080, Note_on_c, 0, 60, 100
1, 358200, Note_on_c, 0, 60, 0
1, 358200, Note_on_c, 0, 59, 100
1, 358320, Note_on_c, 0, 59, 0
1, 358320, Note_on_c, 0, 57, 100
1, 358440, Note_on_c, 0, 57, 0
1, 358440, Note_on_c, 0, 59, 100
1, 358560, Note_on_c, 0, 59, 0
1, 358560, Note_on_c, 0, 60, 100
1, 358800, Note_on_c, 0, 60, 0
1, 358800, Note_on_c, 0, 57, 100
1, 359040, Note_on_c, 0, 57, 0
1, 359040, Note_on_c, 0, 53, 100
1, 359160, Note_on_c, 0, 53, 0
1, 359160, Note_on_c, 0, 52, 100
1, 359280, Note_on_c, 0, 52, 0
1, 359280, Note_on_c, 0, 50, 100
1, 359400, Note_on_c, 0, 50, 0
1, 359400, Note_on_c, 0, 52, 100
1, 359520, Note_on_c, 0, 52, 0
1, 359520, Note_on_c, 0, 53, 100
1, 359760, Note_on_c, 0, 53, 0
1, 359760, Note_on_c, 0, 50, 100
1, 360000, Note_on_c, 0, 50, 0
1, 360000, Note_on_c, 0, 47, 100
1, 360120, Note_on_c, 0, 47, 0
1, 360120, Note_on_c, 0, 45, 100
1, 360240, Note_on_c, 0, 45, 0
1, 360240, Note_on_c, 0, 44, 100
1, 360360, Note_on_c, 0, 44, 0
1, 360360, Note_on_c, 0, 45, 100
1, 360480, Note_on_c, 0, 45, 0
1, 360480, Note_on_c, 0, 47, 100
1, 360720, Note_on_c, 0, 47, 0
1, 360720, Note_on_c, 0, 50, 100
1, 360960, Note_on_c, 0, 50, 0
1, 360960, Note_on_c, 0, 40, 100
1, 361680, Note_on_c, 0, 40, 0
1, 361680, Note_on_c, 0, 52, 100
1, 361800, Note_on_c, 0, 52, 0
1, 361800, Note_on_c, 0, 54, 100
1, 361920, Note_on_c, 0, 54, 0
1, 361920, Note_on_c, 0, 56, 100
1, 362040, Note_on_c, 0, 56, 0
1, 362040, Note_on_c, 0, 57, 100
1, 362160, Note_on_c, 0, 57, 0
1, 362160, Note_on_c, 0, 59, 100
1, 362280, Note_on_c, 0, 59, 0
1, 362280, Note_on_c, 0, 60, 100
1, 362400, Note_on_c, 0, 60, 0
1, 362400, Note_on_c, 0, 62, 100
1, 362640, Note_on_c, 0, 62, 0
1, 362640, Note_on_c, 0, 59, 100
1, 362880, Note_on_c, 0, 59, 0
1, 362880, Note_on_c, 0, 60, 100
1, 363000, Note_on_c, 0, 60, 0
1, 363000, Note_on_c, 0, 59, 100
1, 363120, Note_on_c, 0, 59, 0
1, 363120, Note_on_c, 0, 57, 100
1, 363240, Note_on_c, 0, 57, 0
1, 363240, Note_on_c, 0, 56, 100
1, 363360, Note_on_c, 0, 56, 0
1, 363360, Note_on_c, 0, 57, 100
1, 363600, Note_on_c, 0, 57, 0
1, 363600, Note_on_c, 0, 48, 100
1, 363840, Note_on_c, 0, 48, 0
1, 363840, Note_on_c, 0, 50, 100
1, 364080, Note_on_c, 0, 50, 0
1, 364080, Note_on_c, 0, 59, 100
1, 364320, Note_on_c, 0, 59, 0
1, 364320, Note_on_c, 0, 52, 100
1, 364560, Note_on_c, 0, 52, 0
1, 364560, Note_on_c, 0, 56, 100
1, 364800, Note_on_c, 0, 56, 0
1, 364800, Note_on_c, 0, 57, 100
1, 365520, Note_on_c, 0, 57, 0
1, 365520, Note_on_c, 0, 60, 100
1, 365640, Note_on_c, 0, 60, 0
1, 365640, Note_on_c, 0, 62, 100
1, 365760, Note_on_c, 0, 62, 0
1, 365760, Note_on_c, 0, 64, 100
1, 366000, Note_on_c, 0, 64, 0
1, 366000, Note_on_c, 0, 57, 100
1, 366120, Note_on_c, 0, 57, 0
1, 366120, Note_on_c, 0, 59, 100
1, 366240, Note_on_c, 0, 59, 0
1, 366240, Note_on_c, 0, 60, 100
1, 366480, Note_on_c, 0, 60, 0
1, 366480, Note_on_c, 0, 52, 100
1, 366600, Note_on_c, 0, 52, 0
1, 366600, Note_on_c, 0, 53, 100
1, 366720, Note_on_c, 0, 53, 0
1, 366720, Note_on_c, 0, 55, 100
1, 366960, Note_on_c, 0, 55, 0
1, 366960, Note_on_c, 0, 58, 100
1, 367080, Note_on_c, 0, 58, 0
1, 367080, Note_on_c, 0, 57, 100
1, 367200, Note_on_c, 0, 57, 0
1, 367200, Note_on_c, 0, 58, 100
1, 367440, Note_on_c, 0, 58, 0
1, 367440, Note_on_c, 0, 48, 100
1, 367680, Note_on_c, 0, 48, 0
1, 367680, Note_on_c, 0, 40, 100
1, 367920, Note_on_c, 0, 40, 0
1, 367920, Note_on_c, 0, 58, 100
1, 368160, Pitch_bend_c, 0, 12288
1, 368160, Note_on_c, 0, 58, 0
1, 368160, Note_on_c, 0, 57, 100
1, 368190, Pitch_bend_c, 0, 8192
1, 368220, Pitch_bend_c, 0, 12288
1, 368250, Pitch_bend_c, 0, 8192
1, 368400, Note_on_c, 0, 57, 0
1, 368400, Note_on_c, 0, 55, 100
1, 368640, Note_on_c, 0, 55, 0
1, 368640, Note_on_c, 0, 57, 100
1, 368880, Note_on_c, 0, 57, 0
1, 368880, Note_on_c, 0, 53, 100
1, 369000, Note_on_c, 0, 53, 0
1, 369000, Note_on_c, 0, 52, 100
1, 369120, Note_on_c, 0, 52, 0
1, 369120, Note_on_c, 0, 53, 100
1, 369360, Note_on_c, 0, 53, 0
1, 369360, Note_on_c, 0, 57, 100
1, 369600, Note_on_c, 0, 57, 0
1, 369600, Note_on_c, 0, 49, 100
1, 369720, Note_on_c, 0, 49, 0
1, 369720, Note_on_c, 0, 50, 100
1, 369840, Note_on_c, 0, 50, 0
1, 369840, Note_on_c, 0, 52, 100
1, 369960, Note_on_c, 0, 52, 0
1, 369960, Note_on_c, 0, 53, 100
1, 370080, Note_on_c, 0, 53, 0
1, 370080, Note_on_c, 0, 55, 100
1, 370320, Note_on_c, 0, 55, 0
1, 370320, Note_on_c, 0, 45, 100
1, 370560, Note_on_c, 0, 45, 0
1, 370560, Note_on_c, 0, 38, 100
1, 370800, Note_on_c, 0, 38, 0
1, 370800, Note_on_c, 0, 50, 100
1, 370920, Note_on_c, 0, 50, 0
1, 370920, Note_on_c, 0, 52, 100
1, 371040, Note_on_c, 0, 52, 0
1, 371040, Note_on_c, 0, 53, 100
1, 371280, Note_on_c, 0, 53, 0
1, 371280, Note_on_c, 0, 53, 100
1, 371400, Note_on_c, 0, 53, 0
1, 371400, Note_on_c, 0, 55, 100
1, 371520, Note_on_c, 0, 55, 0
1, 371520, Note_on_c, 0, 57, 100
1, 371760, Note_on_c, 0, 57, 0
1, 371760, Note_on_c, 0, 59, 100
1, 371880, Note_on_c, 0, 59, 0
1, 371880, Note_on_c, 0, 60, 100
1, 372000, Note_on_c, 0, 60, 0
1, 372000, Note_on_c, 0, 62, 100
1, 372240, Note_on_c, 0, 62, 0
1, 372240, Note_on_c, 0, 60, 100
1, 372480, Note_on_c, 0, 60, 0
1, 372480, Note_on_c, 0, 59, 100
1, 372600, Note_on_c, 0, 59, 0
1, 372600, Note_on_c, 0, 53, 100
1, 372720, Note_on_c, 0, 53, 0
1, 372720, Note_on_c, 0, 43, 100
1, 372840, Note_on_c, 0, 43, 0
1, 372840, Note_on_c, 0, 53, 100
1, 372960, Note_on_c, 0, 53, 0
1, 372960, Note_on_c, 0, 59, 100
1, 373200, Note_on_c, 0, 59, 0
1, 373200, Note_on_c, 0, 53, 100
1, 373440, Note_on_c, 0, 53, 0
1, 373440, Note_on_c, 0, 52, 100
1, 373560, Note_on_c, 0, 52, 0
1, 373560, Note_on_c, 0, 55, 100
1, 373680, Note_on_c, 0, 55, 0
1, 373680, Note_on_c, 0, 57, 100
1, 373800, Note_on_c, 0, 57, 0
1, 373800, Note_on_c, 0, 59, 100
1, 373920, Note_on_c, 0, 59, 0
1, 373920, Note_on_c, 0, 60, 100
1, 374160, Note_on_c, 0, 60, 0
1, 374160, Note_on_c, 0, 52, 100
1, 374400, Note_on_c, 0, 52, 0
1, 374400, Note_on_c, 0, 50, 100
1, 374640, Note_on_c, 0, 50, 0
1, 374640, Note_on_c, 0, 60, 100
1, 374880, Note_on_c, 0, 60, 0
1, 374880, Note_on_c, 0, 59, 100
1, 375120, Note_on_c, 0, 59, 0
1, 375120, Note_on_c, 0, 43, 100
1, 375360, Note_on_c, 0, 43, 0
1, 375360, Note_on_c, 0, 48, 100
1, 375480, Note_on_c, 0, 48, 0
1, 375480, Note_on_c, 0, 52, 100
1, 375600, Note_on_c, 0, 52, 0
1, 375600, Note_on_c, 0, 53, 100
1, 375720, Note_on_c, 0, 53, 0
1, 375720, Note_on_c, 0, 55, 100
1, 375840, Note_on_c, 0, 55, 0
1, 375840, Note_on_c, 0, 57, 100
1, 376080, Note_on_c, 0, 57, 0
1, 376080, Note_on_c, 0, 48, 100
1, 376320, Note_on_c, 0, 48, 0
1, 376320, Note_on_c, 0, 47, 100
1, 376560, Note_on_c, 0, 47, 0
1, 376560, Note_on_c, 0, 57, 100
1, 376800, Note_on_c, 0, 57, 0
1, 376800, Note_on_c, 0, 55, 100
1, 377040, Note_on_c, 0, 55, 0
1, 377040, Note_on_c, 0, 40, 100
1, 377280, Note_on_c, 0, 40, 0
1, 377280, Note_on_c, 0, 45, 100
1, 377400, Note_on_c, 0, 45, 0
1, 377400, Note_on_c, 0, 48, 100
1, 377520, Note_on_c, 0, 48, 0
1, 377520, Note_on_c, 0, 50, 100
1, 377640, Note_on_c, 0, 50, 0
1, 377640, Note_on_c, 0, 52, 100
1, 377760, Note_on_c, 0, 52, 0
1, 377760, Note_on_c, 0, 53, 100
1, 378000, Note_on_c, 0, 53, 0
1, 378000, Note_on_c, 0, 45, 100
1, 378240, Note_on_c, 0, 45, 0
1, 378240, Note_on_c, 0, 43, 100
1, 378480, Note_on_c, 0, 43, 0
1, 378480, Note_on_c, 0, 53, 100
1, 378720, Note_on_c, 0, 53, 0
1, 378720, Note_on_c, 0, 52, 100
1, 378960, Note_on_c, 0, 52, 0
1, 378960, Note_on_c, 0, 36, 100
1, 379200, Note_on_c, 0, 36, 0
1, 379200, Note_on_c, 0, 41, 100
1, 379440, Note_on_c, 0, 41, 0
1, 379440, Note_on_c, 0, 57, 100
1, 379560, Note_on_c, 0, 57, 0
1, 379560, Note_on_c, 0, 55, 100
1, 379680, Note_on_c, 0, 55, 0
1, 379680, Note_on_c, 0, 53, 100
1, 379920, Note_on_c, 0, 53, 0
1, 379920, Note_on_c, 0, 53, 100
1, 380040, Note_on_c, 0, 53, 0
1, 380040, Note_on_c, 0, 52, 100
1, 380160, Note_on_c, 0, 52, 0
1, 380160, Note_on_c, 0, 50, 100
1, 380400, Note_on_c, 0, 50, 0
1, 380400, Note_on_c, 0, 60, 100
1, 380520, Note_on_c, 0, 60, 0
1, 380520, Note_on_c, 0, 59, 100
1, 380640, Note_on_c, 0, 59, 0
1, 380640, Note_on_c, 0, 60, 100
1, 380880, Note_on_c, 0, 60, 0
1, 380880, Note_on_c, 0, 59, 100
1, 381000, Note_on_c, 0, 59, 0
1, 381000, Note_on_c, 0, 57, 100
1, 381120, Note_on_c, 0, 57, 0
1, 381120, Note_on_c, 0, 55, 100
1, 381360, Note_on_c, 0, 55, 0
1, 381360, Note_on_c, 0, 53, 100
1, 381480, Note_on_c, 0, 53, 0
1, 381480, Note_on_c, 0, 52, 100
1, 381600, Note_on_c, 0, 52, 0
1, 381600, Note_on_c, 0, 50, 100
1, 381840, Note_on_c, 0, 50, 0
1, 381840, Note_on_c, 0, 59, 100
1, 382080, Note_on_c, 0, 59, 0
1, 382080, Note_on_c, 0, 60, 100
1, 382560, Note_on_c, 0, 60, 0
1, 382560, Note_on_c, 0, 45, 100
1, 382680, Note_on_c, 0, 45, 0
1, 382680, Note_on_c, 0, 58, 100
1, 382800, Note_on_c, 0, 58, 0
1, 382800, Note_on_c, 0, 57, 100
1, 382920, Note_on_c, 0, 57, 0
1, 382920, Note_on_c, 0, 55, 100
1, 383040, Note_on_c, 0, 55, 0
1, 383040, Note_on_c, 0, 53, 100
1, 383160, Note_on_c, 0, 53, 0
1, 383160, Note_on_c, 0, 52, 100
1, 383280, Note_on_c, 0, 52, 0
1, 383280, Note_on_c, 0, 53, 100
1, 383520, Note_on_c, 0, 53, 0
1, 383520, Note_on_c, 0, 57, 100
1, 383760, Note_on_c, 0, 57, 0
1, 383760, Note_on_c, 0, 52, 100
1, 384000, Note_on_c, 0, 52, 0
1, 384000, Note_on_c, 0, 53, 100
1, 384240, Note_on_c, 0, 53, 0
1, 384240, Note_on_c, 0, 58, 100
1, 384360, Note_on_c, 0, 58, 0
1, 384360, Note_on_c, 0, 57, 100
1, 384480, Note_on_c, 0, 57, 0
1, 384480, Note_on_c, 0, 58, 100
1, 384720, Note_on_c, 0, 58, 0
1, 384720, Note_on_c, 0, 53, 100
1, 384840, Note_on_c, 0, 53, 0
1, 384840, Note_on_c, 0, 52, 100
1, 384960, Note_on_c, 0, 52, 0
1, 384960, Note_on_c, 0, 53, 100
1, 385200, Note_on_c, 0, 53, 0
1, 385200, Note_on_c, 0, 60, 100
1, 385320, Note_on_c, 0, 60, 0
1, 385320, Note_on_c, 0, 58, 100
1, 385440, Note_on_c, 0, 58, 0
1, 385440, Note_on_c, 0, 60, 100
1, 385680, Note_on_c, 0, 60, 0
1, 385680, Note_on_c, 0, 53, 100
1, 385800, Note_on_c, 0, 53, 0
1, 385800, Note_on_c, 0, 52, 100
1, 385920, Note_on_c, 0, 52, 0
1, 385920, Note_on_c, 0, 53, 100
1, 386160, Note_on_c, 0, 53, 0
1, 386160, Note_on_c, 0, 62, 100
1, 386280, Note_on_c, 0, 62, 0
1, 386280, Note_on_c, 0, 60, 100
1, 386400, Note_on_c, 0, 60, 0
1, 386400, Note_on_c, 0, 62, 100
1, 386640, Note_on_c, 0, 62, 0
1, 386640, Note_on_c, 0, 53, 100
1, 386880, Note_on_c, 0, 53, 0
1, 386880, Note_on_c, 0, 52, 100
1, 387000, Note_on_c, 0, 52, 0
1, 387000, Note_on_c, 0, 50, 100
1, 387120, Note_on_c, 0, 50, 0
1, 387120, Note_on_c, 0, 48, 100
1, 387240, Note_on_c, 0, 48, 0
1, 387240, Note_on_c, 0, 50, 100
1, 387360, Note_on_c, 0, 50, 0
1, 387360, Note_on_c, 0, 52, 100
1, 387600, Note_on_c, 0, 52, 0
1, 387600, Note_on_c, 0, 55, 100
1, 387840, Note_on_c, 0, 55, 0
1, 387840, Note_on_c, 0, 60, 100
1, 388080, Note_on_c, 0, 60, 0
1, 388080, Note_on_c, 0, 59, 100
1, 388200, Note_on_c, 0, 59, 0
1, 388200, Note_on_c, 0, 57, 100
1, 388320, Note_on_c, 0, 57, 0
1, 388320, Note_on_c, 0, 55, 100
1, 388560, Note_on_c, 0, 55, 0
1, 388560, Note_on_c, 0, 53, 100
1, 388800, Note_on_c, 0, 53, 0
1, 388800, Note_on_c, 0, 52, 100
1, 389040, Note_on_c, 0, 52, 0
1, 389040, Note_on_c, 0, 48, 100
1, 389280, Note_on_c, 0, 48, 0
1, 389280, Note_on_c, 0, 43, 100
1, 389520, Note_on_c, 0, 43, 0
1, 389520, Note_on_c, 0, 47, 100
1, 389760, Note_on_c, 0, 47, 0
1, 389760, Note_on_c, 0, 36, 100
1, 390000, Note_on_c, 0, 36, 0
1, 390000, Note_on_c, 0, 60, 100
1, 390120, Note_on_c, 0, 60, 0
1, 390120, Note_on_c, 0, 59, 100
1, 390240, Note_on_c, 0, 59, 0
1, 390240, Note_on_c, 0, 60, 100
1, 390480, Note_on_c, 0, 60, 0
1, 390480, Note_on_c, 0, 55, 100
1, 390600, Note_on_c, 0, 55, 0
1, 390600, Note_on_c, 0, 53, 100
1, 390720, Note_on_c, 0, 53, 0
1, 390720, Note_on_c, 0, 55, 100
1, 390960, Note_on_c, 0, 55, 0
1, 390960, Note_on_c, 0, 52, 100
1, 391080, Note_on_c, 0, 52, 0
1, 391080, Note_on_c, 0, 50, 100
1, 391200, Note_on_c, 0, 50, 0
1, 391200, Note_on_c, 0, 52, 100
1, 391440, Note_on_c, 0, 52, 0
1, 391440, Note_on_c, 0, 48, 100
1, 391680, Note_on_c, 0, 48, 0
1, 391680, Note_on_c, 0, 36, 100
1, 392880, Note_on_c, 0, 36, 0
1, 392880, Note_on_c, 0, 62, 100
1, 393120, Note_on_c, 0, 62, 0
1, 393120, Note_on_c, 0, 64, 100
1, 393360, Note_on_c, 0, 64, 0
1, 393360, Note_on_c, 0, 66, 100
1, 393600, Note_on_c, 0, 66, 0
1, 393600, Note_on_c, 0, 67, 100
1, 393840, Note_on_c, 0, 67, 0
1, 393840, Note_on_c, 0, 66, 100
1, 393960, Note_on_c, 0, 66, 0
1, 393960, Note_on_c, 0, 64, 100
1, 394080, Note_on_c, 0, 64, 0
1, 394080, Note_on_c, 0, 62, 100
1, 394320, Note_on_c, 0, 62, 0
1, 394320, Note_on_c, 0, 60, 100
1, 394560, Note_on_c, 0, 60, 0
1, 394560, Note_on_c, 0, 59, 100
1, 394800, Note_on_c, 0, 59, 0
1, 394800, Note_on_c, 0, 62, 100
1, 394920, Note_on_c, 0, 62, 0
1, 394920, Note_on_c, 0, 60, 100
1, 395040, Note_on_c, 0, 60, 0
1, 395040, Note_on_c, 0, 59, 100
1, 395280, Note_on_c, 0, 59, 0
1, 395280, Note_on_c, 0, 57, 100
1, 395520, Note_on_c, 0, 57, 0
1, 395520, Note_on_c, 0, 55, 100
1, 395760, Note_on_c, 0, 55, 0
1, 395760, Note_on_c, 0, 50, 100
1, 395880, Note_on_c, 0, 50, 0
1, 395880, Note_on_c, 0, 48, 100
1, 396000, Note_on_c, 0, 48, 0
1, 396000, Note_on_c, 0, 47, 100
1, 396240, Note_on_c, 0, 47, 0
1, 396240, Note_on_c, 0, 45, 100
1, 396480, Note_on_c, 0, 45, 0
1, 396480, Note_on_c, 0, 43, 100
1, 396720, Note_on_c, 0, 43, 0
1, 396720, Note_on_c, 0, 59, 100
1, 396960, Note_on_c, 0, 59, 0
1, 396960, Note_on_c, 0, 60, 100
1, 397200, Note_on_c, 0, 60, 0
1, 397200, Note_on_c, 0, 62, 100
1, 397440, Note_on_c, 0, 62, 0
1, 397440, Note_on_c, 0, 64, 100
1, 397560, Note_on_c, 0, 64, 0
1, 397560, Note_on_c, 0, 62, 100
1, 397680, Note_on_c, 0, 62, 0
1, 397680, Note_on_c, 0, 60, 100
1, 397800, Note_on_c, 0, 60, 0
1, 397800, Note_on_c, 0, 59, 100
1, 397920, Note_on_c, 0, 59, 0
1, 397920, Note_on_c, 0, 60, 100
1, 398160, Note_on_c, 0, 60, 0
1, 398160, Note_on_c, 0, 57, 100
1, 398400, Note_on_c, 0, 57, 0
1, 398400, Note_on_c, 0, 53, 100
1, 398640, Note_on_c, 0, 53, 0
1, 398640, Note_on_c, 0, 50, 100
1, 398760, Note_on_c, 0, 50, 0
1, 398760, Note_on_c, 0, 52, 100
1, 398880, Note_on_c, 0, 52, 0
1, 398880, Note_on_c, 0, 53, 100
1, 399120, Note_on_c, 0, 53, 0
1, 399120, Note_on_c, 0, 59, 100
1, 399360, Note_on_c, 0, 59, 0
1, 399360, Note_on_c, 0, 56, 100
1, 399600, Note_on_c, 0, 56, 0
1, 399600, Note_on_c, 0, 54, 100
1, 399840, Note_on_c, 0, 54, 0
1, 399840, Note_on_c, 0, 52, 100
1, 400080, Note_on_c, 0, 52, 0
1, 400080, Note_on_c, 0, 50, 100
1, 400320, Note_on_c, 0, 50, 0
1, 400320, Note_on_c, 0, 48, 100
1, 400440, Note_on_c, 0, 48, 0
1, 400440, Note_on_c, 0, 47, 100
1, 400560, Note_on_c, 0, 47, 0
1, 400560, Note_on_c, 0, 48, 100
1, 400680, Note_on_c, 0, 48, 0
1, 400680, Note_on_c, 0, 50, 100
1, 400800, Note_on_c, 0, 50, 0
1, 400800, Note_on_c, 0, 52, 100
1, 401040, Note_on_c, 0, 52, 0
1, 401040, Note_on_c, 0, 48, 100
1, 401280, Note_on_c, 0, 48, 0
1, 401280, Note_on_c, 0, 41, 100
1, 401520, Note_on_c, 0, 41, 0
1, 401520, Note_on_c, 0, 45, 100
1, 401760, Note_on_c, 0, 45, 0
1, 401760, Note_on_c, 0, 48, 100
1, 402000, Note_on_c, 0, 48, 0
1, 402000, Note_on_c, 0, 52, 100
1, 402240, Note_on_c, 0, 52, 0
1, 402240, Note_on_c, 0, 50, 100
1, 402360, Note_on_c, 0, 50, 0
1, 402360, Note_on_c, 0, 48, 100
1, 402480, Note_on_c, 0, 48, 0
1, 402480, Note_on_c, 0, 50, 100
1, 402600, Note_on_c, 0, 50, 0
1, 402600, Note_on_c, 0, 52, 100
1, 402720, Note_on_c, 0, 52, 0
1, 402720, Note_on_c, 0, 53, 100
1, 402960, Note_on_c, 0, 53, 0
1, 402960, Note_on_c, 0, 50, 100
1, 403200, Note_on_c, 0, 50, 0
1, 403200, Note_on_c, 0, 56, 100
1, 403440, Note_on_c, 0, 56, 0
1, 403440, Note_on_c, 0, 50, 100
1, 403680, Note_on_c, 0, 50, 0
1, 403680, Note_on_c, 0, 40, 100
1, 403920, Note_on_c, 0, 40, 0
1, 403920, Note_on_c, 0, 59, 100
1, 404160, Note_on_c, 0, 59, 0
1, 404160, Note_on_c, 0, 60, 100
1, 404280, Note_on_c, 0, 60, 0
1, 404280, Note_on_c, 0, 59, 100
1, 404400, Note_on_c, 0, 59, 0
1, 404400, Note_on_c, 0, 57, 100
1, 404520, Note_on_c, 0, 57, 0
1, 404520, Note_on_c, 0, 59, 100
1, 404640, Note_on_c, 0, 59, 0
1, 404640, Note_on_c, 0, 60, 100
1, 404880, Note_on_c, 0, 60, 0
1, 404880, Note_on_c, 0, 57, 100
1, 405120, Note_on_c, 0, 57, 0
1, 405120, Note_on_c, 0, 53, 100
1, 405240, Note_on_c, 0, 53, 0
1, 405240, Note_on_c, 0, 52, 100
1, 405360, Note_on_c, 0, 52, 0
1, 405360, Note_on_c, 0, 50, 100
1, 405480, Note_on_c, 0, 50, 0
1, 405480, Note_on_c, 0, 52, 100
1, 405600, Note_on_c, 0, 52, 0
1, 405600, Note_on_c, 0, 53, 100
1, 405840, Note_on_c, 0, 53, 0
1, 405840, Note_on_c, 0, 50, 100
1, 406080, Note_on_c, 0, 50, 0
1, 406080, Note_on_c, 0, 47, 100
1, 406200, Note_on_c, 0, 47, 0
1, 406200, Note_on_c, 0, 45, 100
1, 406320, Note_on_c, 0, 45, 0
1, 406320, Note_on_c, 0, 44, 100
1, 406440, Note_on_c, 0, 44, 0
1, 406440, Note_on_c, 0, 45, 100
1, 406560, Note_on_c, 0, 45, 0
1, 406560, Note_on_c, 0, 47, 100
1, 406800, Note_on_c, 0, 47, 0
1, 406800, Note_on_c, 0, 50, 100
1, 407040, Note_on_c, 0, 50, 0
1, 407040, Note_on_c, 0, 40, 100
1, 407760, Note_on_c, 0, 40, 0
1, 407760, Note_on_c, 0, 52, 100
1, 407880, Note_on_c, 0, 52, 0
1, 407880, Note_on_c, 0, 54, 100
1, 408000, Note_on_c, 0, 54, 0
1, 408000, Note_on_c, 0, 56, 100
1, 408120, Note_on_c, 0, 56, 0
1, 408120, Note_on_c, 0, 57, 100
1, 408240, Note_on_c, 0, 57, 0
1, 408240, Note_on_c, 0, 59, 100
1, 408360, Note_on_c, 0, 59, 0
1, 408360, Note_on_c, 0, 60, 100
1, 408480, Note_on_c, 0, 60, 0
1, 408480, Note_on_c, 0, 62, 100
1, 408720, Note_on_c, 0, 62, 0
1, 408720, Note_on_c, 0, 59, 100
1, 408960, Note_on_c, 0, 59, 0
1, 408960, Note_on_c, 0, 60, 100
1, 409080, Note_on_c, 0, 60, 0
1, 409080, Note_on_c, 0, 59, 100
1, 409200, Note_on_c, 0, 59, 0
1, 409200, Note_on_c, 0, 57, 100
1, 409320, Note_on_c, 0, 57, 0
1, 409320, Note_on_c, 0, 56, 100
1, 409440, Note_on_c, 0, 56, 0
1, 409440, Note_on_c, 0, 57, 100
1, 409680, Note_on_c, 0, 57, 0
1, 409680, Note_on_c, 0, 48, 100
1, 409920, Note_on_c, 0, 48, 0
1, 409920, Note_on_c, 0, 50, 100
1, 410160, Note_on_c, 0, 50, 0
1, 410160, Note_on_c, 0, 59, 100
1, 410400, Note_on_c, 0, 59, 0
1, 410400, Note_on_c, 0, 52, 100
1, 410640, Note_on_c, 0, 52, 0
1, 410640, Note_on_c, 0, 56, 100
1, 410880, Note_on_c, 0, 56, 0
1, 410880, Note_on_c, 0, 57, 100
1, 411600, Note_on_c, 0, 57, 0
1, 411600, Note_on_c, 0, 60, 100
1, 411720, Note_on_c, 0, 60, 0
1, 411720, Note_on_c, 0, 62, 100
1, 411840, Note_on_c, 0, 62, 0
1, 411840, Note_on_c, 0, 64, 100
1, 412080, Note_on_c, 0, 64, 0
1, 412080, Note_on_c, 0, 57, 100
1, 412200, Note_on_c, 0, 57, 0
1, 412200, Note_on_c, 0, 59, 100
1, 412320, Note_on_c, 0, 59, 0
1, 412320, Note_on_c, 0, 60, 100
1, 412560, Note_on_c, 0, 60, 0
1, 412560, Note_on_c, 0, 52, 100
1, 412680, Note_on_c, 0, 52, 0
1, 412680, Note_on_c, 0, 53, 100
1, 412800, Note_on_c, 0, 53, 0
1, 412800, Note_on_c, 0, 55, 100
1, 413040, Note_on_c, 0, 55, 0
1, 413040, Note_on_c, 0, 58, 100
1, 413160, Note_on_c, 0, 58, 0
1, 413160, Note_on_c, 0, 57, 100
1, 413280, Note_on_c, 0, 57, 0
1, 413280, Note_on_c, 0, 58, 100
1, 413520, Note_on_c, 0, 58, 0
1, 413520, Note_on_c, 0, 48, 100
1, 413760, Note_on_c, 0, 48, 0
1, 413760, Note_on_c, 0, 40, 100
1, 414000, Note_on_c, 0, 40, 0
1, 414000, Note_on_c, 0, 58, 100
1, 414240, Pitch_bend_c, 0, 12288
1, 414240, Note_on_c, 0, 58, 0
1, 414240, Note_on_c, 0, 57, 100
1, 414270, Pitch_bend_c, 0, 8192
1, 414300, Pitch_bend_c, 0, 12288
1, 414330, Pitch_bend_c, 0, 8192
1, 414480, Note_on_c, 0, 57, 0
1, 414480, Note_on_c, 0, 55, 100
1, 414720, Note_on_c, 0, 55, 0
1, 414720, Note_on_c, 0, 57, 100
1, 414960, Note_on_c, 0, 57, 0
1, 414960, Note_on_c, 0, 53, 100
1, 415080, Note_on_c, 0, 53, 0
1, 415080, Note_on_c, 0, 52, 100
1, 415200, Note_on_c, 0, 52, 0
1, 415200, Note_on_c, 0, 53, 100
1, 415440, Note_on_c, 0, 53, 0
1, 415440, Note_on_c, 0, 57, 100
1, 415680, Note_on_c, 0, 57, 0
1, 415680, Note_on_c, 0, 49, 100
1, 415800, Note_on_c, 0, 49, 0
1, 415800, Note_on_c, 0, 50, 100
1, 415920, Note_on_c, 0, 50, 0
1, 415920, Note_on_c, 0, 52, 100
1, 416040, Note_on_c, 0, 52, 0
1, 416040, Note_on_c, 0, 53, 100
1, 416160, Note_on_c, 0, 53, 0
1, 416160, Note_on_c, 0, 55, 100
1, 416400, Note_on_c, 0, 55, 0
1, 416400, Note_on_c, 0, 45, 100
1, 416640, Note_on_c, 0, 45, 0
1, 416640, Note_on_c, 0, 38, 100
1, 416880, Note_on_c, 0, 38, 0
1, 416880, Note_on_c, 0, 50, 100
1, 417000, Note_on_c, 0, 50, 0
1, 417000, Note_on_c, 0, 52, 100
1, 417120, Note_on_c, 0, 52, 0
1, 417120, Note_on_c, 0, 53, 100
1, 417360, Note_on_c, 0, 53, 0
1, 417360, Note_on_c, 0, 53, 100
1, 417480, Note_on_c, 0, 53, 0
1, 417480, Note_on_c, 0, 55, 100
1, 417600, Note_on_c, 0, 55, 0
1, 417600, Note_on_c, 0, 57, 100
1, 417840, Note_on_c, 0, 57, 0
1, 417840, Note_on_c, 0, 59, 100
1, 417960, Note_on_c, 0, 59, 0
1, 417960, Note_on_c, 0, 60, 100
1, 418080, Note_on_c, 0, 60, 0
1, 418080, Note_on_c, 0, 62, 100
1, 418320, Note_on_c, 0, 62, 0
1, 418320, Note_on_c, 0, 60, 100
1, 418560, Note_on_c, 0, 60, 0
1, 418560, Note_on_c, 0, 59, 100
1, 418680, Note_on_c, 0, 59, 0
1, 418680, Note_on_c, 0, 53, 100
1, 418800, Note_on_c, 0, 53, 0
1, 418800, Note_on_c, 0, 43, 100
1, 418920, Note_on_c, 0, 43, 0
1, 418920, Note_on_c, 0, 53, 100
1, 419040, Note_on_c, 0, 53, 0
1, 419040, Note_on_c, 0, 59, 100
1, 419280, Note_on_c, 0, 59, 0
1, 419280, Note_on_c, 0, 53, 100
1, 419520, Note_on_c, 0, 53, 0
1, 419520, Note_on_c, 0, 52, 100
1, 419640, Note_on_c, 0, 52, 0
1, 419640, Note_on_c, 0, 55, 100
1, 419760, Note_on_c, 0, 55, 0
1, 419760, Note_on_c, 0, 57, 100
1, 419880, Note_on_c, 0, 57, 0
1, 419880, Note_on_c, 0, 59, 100
1, 420000, Note_on_c, 0, 59, 0
1, 420000, Note_on_c, 0, 60, 100
1, 420240, Note_on_c, 0, 60, 0
1, 420240, Note_on_c, 0, 52, 100
1, 420480, Note_on_c, 0, 52, 0
1, 420480, Note_on_c, 0, 50, 100
1, 420720, Note_on_c, 0, 50, 0
1, 420720, Note_on_c, 0, 60, 100
1, 420960, Note_on_c, 0, 60, 0
1, 420960, Note_on_c, 0, 59, 100
1, 421200, Note_on_c, 0, 59, 0
1, 421200, Note_on_c, 0, 43, 100
1, 421440, Note_on_c, 0, 43, 0
1, 421440, Note_on_c, 0, 48, 100
1, 421560, Note_on_c, 0, 48, 0
1, 421560, Note_on_c, 0, 52, 100
1, 421680, Note_on_c, 0, 52, 0
1, 421680, Note_on_c, 0, 53, 100
1, 421800, Note_on_c, 0, 53, 0
1, 421800, Note_on_c, 0, 55, 100
1, 421920, Note_on_c, 0, 55, 0
1, 421920, Note_on_c, 0, 57, 100
1, 422160, Note_on_c, 0, 57, 0
1, 422160, Note_on_c, 0, 48, 100
1, 422400, Note_on_c, 0, 48, 0
1, 422400, Note_on_c, 0, 47, 100
1, 422640, Note_on_c, 0, 47, 0
1, 422640, Note_on_c, 0, 57, 100
1, 422880, Note_on_c, 0, 57, 0
1, 422880, Note_on_c, 0, 55, 100
1, 423120, Note_on_c, 0, 55, 0
1, 423120, Note_on_c, 0, 40, 100
1, 423360, Note_on_c, 0, 40, 0
1, 423360, Note_on_c, 0, 45, 100
1, 423480, Note_on_c, 0, 45, 0
1, 423480, Note_on_c, 0, 48, 100
1, 423600, Note_on_c, 0, 48, 0
1, 423600, Note_on_c, 0, 50, 100
1, 423720, Note_on_c, 0, 50, 0
1, 423720, Note_on_c, 0, 52, 100
1, 423840, Note_on_c, 0, 52, 0
1, 423840, Note_on_c, 0, 53, 100
1, 424080, Note_on_c, 0, 53, 0
1, 424080, Note_on_c, 0, 45, 100
1, 424320, Note_on_c, 0, 45, 0
1, 424320, Note_on_c, 0, 43, 100
1, 424560, Note_on_c, 0, 43, 0
1, 424560, Note_on_c, 0, 53, 100
1, 424800, Note_on_c, 0, 53, 0
1, 424800, Note_on_c, 0, 52, 100
1, 425040, Note_on_c, 0, 52, 0
1, 425040, Note_on_c, 0, 36, 100
1, 425280, Note_on_c, 0, 36, 0
1, 425280, Note_on_c, 0, 41, 100
1, 425520, Note_on_c, 0, 41, 0
1, 425520, Note_on_c, 0, 57, 100
1, 425640, Note_on_c, 0, 57, 0
1, 425640, Note_on_c, 0, 55, 100
1, 425760, Note_on_c, 0, 55, 0
1, 425760, Note_on_c, 0, 53, 100
1, 426000, Note_on_c, 0, 53, 0
1, 426000, Note_on_c, 0, 53, 100
1, 426120, Note_on_c, 0, 53, 0
1, 426120, Note_on_c, 0, 52, 100
1, 426240, Note_on_c, 0, 52, 0
1, 426240, Note_on_c, 0, 50, 100
1, 426480, Note_on_c, 0, 50, 0
1, 426480, Note_on_c, 0, 60, 100
1, 426600, Note_on_c, 0, 60, 0
1, 426600, Note_on_c, 0, 59, 100
1, 426720, Note_on_c, 0, 59, 0
1, 426720, Note_on_c, 0, 60, 100
1, 426960, Note_on_c, 0, 60, 0
1, 426960, Note_on_c, 0, 59, 100
1, 427080, Note_on_c, 0, 59, 0
1, 427080, Note_on_c, 0, 57, 100
1, 427200, Note_on_c, 0, 57, 0
1, 427200, Note_on_c, 0, 55, 100
1, 427440, Note_on_c, 0, 55, 0
1, 427440, Note_on_c, 0, 53, 100
1, 427560, Note_on_c, 0, 53, 0
1, 427560, Note_on_c, 0, 52, 100
1, 427680, Note_on_c, 0, 52, 0
1, 427680, Note_on_c, 0, 50, 100
1, 427920, Note_on_c, 0, 50, 0
1, 427920, Note_on_c, 0, 59, 100
1, 428160, Note_on_c, 0, 59, 0
1, 428160, Note_on_c, 0, 60, 100
1, 428640, Note_on_c, 0, 60, 0
1, 428640, Note_on_c, 0, 45, 100
1, 428760, Note_on_c, 0, 45, 0
1, 428760, Note_on_c, 0, 58, 100
1, 428880, Note_on_c, 0, 58, 0
1, 428880, Note_on_c, 0, 57, 100
1, 429000, Note_on_c, 0, 57, 0
1, 429000, Note_on_c, 0, 55, 100
1, 429120, Note_on_c, 0, 55, 0
1, 429120, Note_on_c, 0, 53, 100
1, 429240, Note_on_c, 0, 53, 0
1, 429240, Note_on_c, 0, 52, 100
1, 429360, Note_on_c, 0, 52, 0
1, 429360, Note_on_c, 0, 53, 100
1, 429600, Note_on_c, 0, 53, 0
1, 429600, Note_on_c, 0, 57, 100
1, 429840, Note_on_c, 0, 57, 0
1, 429840, Note_on_c, 0, 52, 100
1, 430080, Note_on_c, 0, 52, 0
1, 430080, Note_on_c, 0, 53, 100
1, 430320, Note_on_c, 0, 53, 0
1, 430320, Note_on_c, 0, 58, 100
1, 430440, Note_on_c, 0, 58, 0
1, 430440, Note_on_c, 0, 57, 100
1, 430560, Note_on_c, 0, 57, 0
1, 430560, Note_on_c, 0, 58, 100
1, 430800, Note_on_c, 0, 58, 0
1, 430800, Note_on_c, 0, 53, 100
1, 430920, Note_on_c, 0, 53, 0
1, 430920, Note_on_c, 0, 52, 100
1, 431040, Note_on_c, 0, 52, 0
1, 431040, Note_on_c, 0, 53, 100
1, 431280, Note_on_c, 0, 53, 0
1, 431280, Note_on_c, 0, 60, 100
1, 431400, Note_on_c, 0, 60, 0
1, 431400, Note_on_c, 0, 58, 100
1, 431520, Note_on_c, 0, 58, 0
1, 431520, Note_on_c, 0, 60, 100
1, 431760, Note_on_c, 0, 60, 0
1, 431760, Note_on_c, 0, 53, 100
1, 431880, Note_on_c, 0, 53, 0
1, 431880, Note_on_c, 0, 52, 100
1, 432000, Note_on_c, 0, 52, 0
1, 432000, Note_on_c, 0, 53, 100
1, 432240, Note_on_c, 0, 53, 0
1, 432240, Note_on_c, 0, 62, 100
1, 432360, Note_on_c, 0, 62, 0
1, 432360, Note_on_c, 0, 60, 100
1, 432480, Note_on_c, 0, 60, 0
1, 432480, Note_on_c, 0, 62, 100
1, 432720, Note_on_c, 0, 62, 0
1, 432720, Note_on_c, 0, 53, 100
1, 432960, Note_on_c, 0, 53, 0
1, 432960, Note_on_c, 0, 52, 100
1, 433080, Note_on_c, 0, 52, 0
1, 433080, Note_on_c, 0, 50, 100
1, 433200, Note_on_c, 0, 50, 0
1, 433200, Note_on_c, 0, 48, 100
1, 433320, Note_on_c, 0, 48, 0
1, 433320, Note_on_c, 0, 50, 100
1, 433440, Note_on_c, 0, 50, 0
1, 433440, Note_on_c, 0, 52, 100
1, 433680, Note_on_c, 0, 52, 0
1, 433680, Note_on_c, 0, 55, 100
1, 433920, Note_on_c, 0, 55, 0
1, 433920, Note_on_c, 0, 60, 100
1, 434160, Note_on_c, 0, 60, 0
1, 434160, Note_on_c, 0, 59, 100
1, 434280, Note_on_c, 0, 59, 0
1, 434280, Note_on_c, 0, 57, 100
1, 434400, Note_on_c, 0, 57, 0
1, 434400, Note_on_c, 0, 55, 100
1, 434640, Note_on_c, 0, 55, 0
1, 434640, Note_on_c, 0, 53, 100
1, 434880, Note_on_c, 0, 53, 0
1, 434880, Note_on_c, 0, 52, 100
1, 435120, Note_on_c, 0, 52, 0
1, 435120, Note_on_c, 0, 48, 100
1, 435360, Note_on_c, 0, 48, 0
1, 435360, Note_on_c, 0, 43, 100
1, 435600, Note_on_c, 0, 43, 0
1, 435600, Note_on_c, 0, 47, 100
1, 435840, Note_on_c, 0, 47, 0
1, 435840, Note_on_c, 0, 36, 100
1, 436080, Note_on_c, 0, 36, 0
1, 436080, Note_on_c, 0, 60, 100
1, 436200, Note_on_c, 0, 60, 0
1, 436200, Note_on_c, 0, 59, 100
1, 436320, Note_on_c, 0, 59, 0
1, 436320, Note_on_c, 0, 60, 100
1, 436560, Note_on_c, 0, 60, 0
1, 436560, Note_on_c, 0, 55, 100
1, 436680, Note_on_c, 0, 55, 0
1, 436680, Note_on_c, 0, 53, 100
1, 436800, Note_on_c, 0, 53, 0
1, 436800, Note_on_c, 0, 55, 100
1, 437040, Note_on_c, 0, 55, 0
1, 437040, Note_on_c, 0, 52, 100
1, 437160, Note_on_c, 0, 52, 0
1, 437160, Note_on_c, 0, 50, 100
1, 437280, Note_on_c, 0, 50, 0
1, 437280, Note_on_c, 0, 52, 100
1, 437520, Note_on_c, 0, 52, 0
1, 437520, Note_on_c, 0, 48, 100
1, 437760, Note_on_c, 0, 48, 0
1, 437760, Note_on_c, 0, 36, 100
1, 438960, Note_on_c, 0, 36, 0
1, 439680, Title_t, "Solo Cello"
1, 439680, Program_c, 0, 42
1, 439680, Control_c, 0, 7, 100
1, 439680, Control_c, 0, 10, 64
1, 442080, Note_on_c, 0, 60, 100
1, 442560, Note_on_c, 0, 60, 0
1, 442560, Note_on_c, 0, 60, 100
1, 443040, Note_on_c, 0, 60, 0
1, 443040, Note_on_c, 0, 55, 100
1, 443520, Note_on_c, 0, 55, 0
1, 443520, Note_on_c, 0, 52, 100
1, 443994, Note_on_c, 0, 52, 0
1, 443994, Note_on_c, 0, 48, 100
1, 444480, Note_on_c, 0, 48, 0
1, 444480, Note_on_c, 0, 43, 100
1, 444960, Note_on_c, 0, 43, 0
1, 444960, Note_on_c, 0, 40, 100
1, 445440, Note_on_c, 0, 40, 0
1, 445440, Note_on_c, 0, 36, 100
1, 445920, Note_on_c, 0, 36, 0
1, 445920, Note_on_c, 0, 60, 100
1, 446400, Note_on_c, 0, 60, 0
1, 446400, Note_on_c, 0, 62, 100
1, 446880, Note_on_c, 0, 62, 0
1, 446880, Note_on_c, 0, 60, 100
1, 447360, Note_on_c, 0, 60, 0
1, 447360, Note_on_c, 0, 59, 100
1, 447840, Note_on_c, 0, 59, 0
1, 447840, Note_on_c, 0, 60, 100
1, 448320, Note_on_c, 0, 60, 0
1, 448320, Note_on_c, 0, 62, 100
1, 448800, Note_on_c, 0, 62, 0
1, 448800, Note_on_c, 0, 59, 100
1, 449280, Note_on_c, 0, 59, 0
1, 449280, Note_on_c, 0, 55, 100
1, 449760, Note_on_c, 0, 55, 0
1, 449760, Note_on_c, 0, 50, 100
1, 450240, Note_on_c, 0, 50, 0
1, 450240, Note_on_c, 0, 47, 100
1, 450720, Note_on_c, 0, 47, 0
1, 450720, Note_on_c, 0, 43, 100
1, 451200, Note_on_c, 0, 43, 0
1, 451200, Note_on_c, 0, 41, 100
1, 451680, Note_on_c, 0, 41, 0
1, 451680, Note_on_c, 0, 62, 100
1, 452160, Note_on_c, 0, 62, 0
1, 452160, Note_on_c, 0, 60, 100
1, 452640, Note_on_c, 0, 60, 0
1, 452640, Note_on_c, 0, 59, 100
1, 453120, Note_on_c, 0, 59, 0
1, 453120, Note_on_c, 0, 57, 100
1, 453600, Note_on_c, 0, 57, 0
1, 453600, Note_on_c, 0, 55, 100
1, 454080, Note_on_c, 0, 55, 0
1, 454080, Note_on_c, 0, 60, 100
1, 454560, Note_on_c, 0, 60, 0
1, 454560, Note_on_c, 0, 59, 100
1, 455040, Note_on_c, 0, 59, 0
1, 455040, Note_on_c, 0, 57, 100
1, 455520, Note_on_c, 0, 57, 0
1, 455520, Note_on_c, 0, 55, 100
1, 456000, Note_on_c, 0, 55, 0
1, 456000, Note_on_c, 0, 53, 100
1, 456480, Note_on_c, 0, 53, 0
1, 456480, Note_on_c, 0, 52, 100
1, 456960, Note_on_c, 0, 52, 0
1, 456960, Note_on_c, 0, 53, 100
1, 457440, Note_on_c, 0, 53, 0
1, 457440, Note_on_c, 0, 50, 100
1, 457920, Note_on_c, 0, 50, 0
1, 457920, Note_on_c, 0, 43, 100
1, 458400, Note_on_c, 0, 43, 0
1, 458400, Note_on_c, 0, 57, 100
1, 458880, Note_on_c, 0, 57, 0
1, 458880, Note_on_c, 0, 55, 100
1, 459360, Note_on_c, 0, 55, 0
1, 459360, Note_on_c, 0, 53, 100
1, 459840, Note_on_c, 0, 53, 0
1, 459840, Note_on_c, 0, 52, 100
1, 460320, Note_on_c, 0, 52, 0
1, 460320, Note_on_c, 0, 50, 100
1, 460800, Note_on_c, 0, 50, 0
1, 460800, Note_on_c, 0, 48, 100
1, 461280, Note_on_c, 0, 48, 0
1, 461280, Note_on_c, 0, 47, 100
1, 461760, Note_on_c, 0, 47, 0
1, 461760, Note_on_c, 0, 48, 100
1, 462240, Note_on_c, 0, 48, 0
1, 462240, Note_on_c, 0, 43, 100
1, 462720, Note_on_c, 0, 43, 0
1, 462720, Note_on_c, 0, 36, 100
1, 464160, Note_on_c, 0, 36, 0
1, 464160, Note_on_c, 0, 48, 100
1, 464400, Note_on_c, 0, 48, 0
1, 464400, Note_on_c, 0, 50, 100
1, 464640, Note_on_c, 0, 50, 0
1, 464640, Note_on_c, 0, 52, 100
1, 465120, Note_on_c, 0, 52, 0
1, 465120, Note_on_c, 0, 54, 100
1, 465600, Note_on_c, 0, 54, 0
1, 465600, Note_on_c, 0, 47, 100
1, 466080, Note_on_c, 0, 47, 0
1, 466080, Note_on_c, 0, 50, 100
1, 466560, Note_on_c, 0, 50, 0
1, 466560, Note_on_c, 0, 55, 100
1, 467040, Note_on_c, 0, 55, 0
1, 467040, Note_on_c, 0, 57, 100
1, 467520, Note_on_c, 0, 57, 0
1, 467520, Note_on_c, 0, 59, 100
1, 468000, Note_on_c, 0, 59, 0
1, 468000, Note_on_c, 0, 60, 100
1, 468480, Note_on_c, 0, 60, 0
1, 468480, Note_on_c, 0, 56, 100
1, 468960, Note_on_c, 0, 56, 0
1, 468960, Note_on_c, 0, 62, 100
1, 469440, Note_on_c, 0, 62, 0
1, 469440, Note_on_c, 0, 52, 100
1, 469920, Note_on_c, 0, 52, 0
1, 469920, Note_on_c, 0, 62, 100
1, 470400, Note_on_c, 0, 62, 0
1, 470400, Note_on_c, 0, 60, 100
1, 470880, Note_on_c, 0, 60, 0
1, 470880, Note_on_c, 0, 59, 100
1, 471360, Note_on_c, 0, 59, 0
1, 471360, Note_on_c, 0, 60, 100
1, 471840, Note_on_c, 0, 60, 0
1, 471840, Note_on_c, 0, 59, 100
1, 472320, Note_on_c, 0, 59, 0
1, 472320, Note_on_c, 0, 57, 100
1, 472800, Note_on_c, 0, 57, 0
1, 472800, Note_on_c, 0, 56, 100
1, 473280, Note_on_c, 0, 56, 0
1, 473280, Note_on_c, 0, 57, 100
1, 473760, Note_on_c, 0, 57, 0
1, 473760, Note_on_c, 0, 52, 100
1, 474240, Note_on_c, 0, 52, 0
1, 474240, Note_on_c, 0, 48, 100
1, 474720, Note_on_c, 0, 48, 0
1, 474720, Note_on_c, 0, 50, 100
1, 475200, Note_on_c, 0, 50, 0
1, 475200, Note_on_c, 0, 52, 100
1, 475680, Note_on_c, 0, 52, 0
1, 475680, Note_on_c, 0, 48, 100
1, 476160, Note_on_c, 0, 48, 0
1, 476160, Note_on_c, 0, 45, 100
1, 476640, Note_on_c, 0, 45, 0
1, 476640, Note_on_c, 0, 43, 100
1, 477120, Note_on_c, 0, 43, 0
1, 477120, Note_on_c, 0, 42, 100
1, 477600, Note_on_c, 0, 42, 0
1, 477600, Note_on_c, 0, 45, 100
1, 478080, Note_on_c, 0, 45, 0
1, 478080, Note_on_c, 0, 50, 100
1, 478560, Note_on_c, 0, 50, 0
1, 478560, Note_on_c, 0, 52, 100
1, 479040, Note_on_c, 0, 52, 0
1, 479040, Note_on_c, 0, 54, 100
1, 479520, Note_on_c, 0, 54, 0
1, 479520, Note_on_c, 0, 55, 100
1, 480000, Note_on_c, 0, 55, 0
1, 480000, Note_on_c, 0, 57, 100
1, 480480, Note_on_c, 0, 57, 0
1, 480480, Note_on_c, 0, 54, 100
1, 480960, Note_on_c, 0, 54, 0
1, 480960, Note_on_c, 0, 50, 100
1, 481440, Note_on_c, 0, 50, 0
1, 481440, Note_on_c, 0, 60, 100
1, 481920, Note_on_c, 0, 60, 0
1, 481920, Note_on_c, 0, 59, 100
1, 482400, Note_on_c, 0, 59, 0
1, 482400, Note_on_c, 0, 57, 100
1, 482880, Note_on_c, 0, 57, 0
1, 482880, Note_on_c, 0, 59, 100
1, 483360, Note_on_c, 0, 59, 0
1, 483360, Note_on_c, 0, 57, 100
1, 483840, Note_on_c, 0, 57, 0
1, 483840, Note_on_c, 0, 55, 100
1, 484320, Note_on_c, 0, 55, 0
1, 484320, Note_on_c, 0, 54, 100
1, 484800, Note_on_c, 0, 54, 0
1, 484800, Note_on_c, 0, 55, 100
1, 485280, Note_on_c, 0, 55, 0
1, 485280, Note_on_c, 0, 50, 100
1, 485760, Note_on_c, 0, 50, 0
1, 485760, Note_on_c, 0, 47, 100
1, 486240, Note_on_c, 0, 47, 0
1, 486240, Note_on_c, 0, 48, 100
1, 486720, Note_on_c, 0, 48, 0
1, 486720, Note_on_c, 0, 50, 100
1, 487200, Note_on_c, 0, 50, 0
1, 487200, Note_on_c, 0, 47, 100
1, 487680, Note_on_c, 0, 47, 0
1, 487680, Note_on_c, 0, 43, 100
1, 488160, Note_on_c, 0, 43, 0
1, 488160, Note_on_c, 0, 41, 100
1, 488640, Note_on_c, 0, 41, 0
1, 488640, Note_on_c, 0, 40, 100
1, 489120, Note_on_c, 0, 40, 0
1, 489120, Note_on_c, 0, 55, 100
1, 489600, Note_on_c, 0, 55, 0
1, 489600, Note_on_c, 0, 57, 100
1, 490080, Note_on_c, 0, 57, 0
1, 490080, Note_on_c, 0, 55, 100
1, 490560, Note_on_c, 0, 55, 0
1, 490560, Note_on_c, 0, 54, 100
1, 491040, Note_on_c, 0, 54, 0
1, 491040, Note_on_c, 0, 55, 100
1, 491520, Note_on_c, 0, 55, 0
1, 491520, Note_on_c, 0, 48, 100
1, 492000, Note_on_c, 0, 48, 0
1, 492000, Note_on_c, 0, 50, 100
1, 492480, Note_on_c, 0, 50, 0
1, 492480, Note_on_c, 0, 48, 100
1, 492960, Note_on_c, 0, 48, 0
1, 492960, Note_on_c, 0, 47, 100
1, 493440, Note_on_c, 0, 47, 0
1, 493440, Note_on_c, 0, 45, 100
1, 493920, Note_on_c, 0, 45, 0
1, 493920, Note_on_c, 0, 43, 100
1, 494400, Note_on_c, 0, 43, 0
1, 494400, Note_on_c, 0, 42, 100
1, 494880, Note_on_c, 0, 42, 0
1, 494880, Note_on_c, 0, 57, 100
1, 495360, Note_on_c, 0, 57, 0
1, 495360, Note_on_c, 0, 59, 100
1, 495840, Note_on_c, 0, 59, 0
1, 495840, Note_on_c, 0, 57, 100
1, 496320, Note_on_c, 0, 57, 0
1, 496320, Note_on_c, 0, 55, 100
1, 496800, Note_on_c, 0, 55, 0
1, 496800, Note_on_c, 0, 57, 100
1, 497280, Note_on_c, 0, 57, 0
1, 497280, Note_on_c, 0, 48, 100
1, 497760, Note_on_c, 0, 48, 0
1, 497760, Note_on_c, 0, 52, 100
1, 498240, Note_on_c, 0, 52, 0
1, 498240, Note_on_c, 0, 50, 100
1, 498720, Note_on_c, 0, 50, 0
1, 498720, Note_on_c, 0, 48, 100
1, 499200, Note_on_c, 0, 48, 0
1, 499200, Note_on_c, 0, 47, 100
1, 499680, Note_on_c, 0, 47, 0
1, 499680, Note_on_c, 0, 45, 100
1, 500160, Note_on_c, 0, 45, 0
1, 500160, Note_on_c, 0, 43, 100
1, 500640, Note_on_c, 0, 43, 0
1, 500640, Note_on_c, 0, 59, 100
1, 501120, Note_on_c, 0, 59, 0
1, 501120, Note_on_c, 0, 60, 100
1, 501600, Note_on_c, 0, 60, 0
1, 501600, Note_on_c, 0, 59, 100
1, 502080, Note_on_c, 0, 59, 0
1, 502080, Note_on_c, 0, 52, 100
1, 502560, Note_on_c, 0, 52, 0
1, 502560, Note_on_c, 0, 59, 100
1, 503040, Note_on_c, 0, 59, 0
1, 503040, Note_on_c, 0, 45, 100
1, 503520, Note_on_c, 0, 45, 0
1, 503520, Note_on_c, 0, 60, 100
1, 504000, Note_on_c, 0, 60, 0
1, 504000, Note_on_c, 0, 62, 100
1, 504480, Note_on_c, 0, 62, 0
1, 504480, Note_on_c, 0, 60, 100
1, 504960, Note_on_c, 0, 60, 0
1, 504960, Note_on_c, 0, 54, 100
1, 505440, Note_on_c, 0, 54, 0
1, 505440, Note_on_c, 0, 60, 100
1, 505920, Note_on_c, 0, 60, 0
1, 505920, Note_on_c, 0, 47, 100
1, 506400, Note_on_c, 0, 47, 0
1, 506400, Note_on_c, 0, 62, 100
1, 506880, Note_on_c, 0, 62, 0
1, 506880, Note_on_c, 0, 64, 100
1, 507360, Note_on_c, 0, 64, 0
1, 507360, Note_on_c, 0, 62, 100
1, 507840, Note_on_c, 0, 62, 0
1, 507840, Note_on_c, 0, 60, 100
1, 508320, Note_on_c, 0, 60, 0
1, 508320, Note_on_c, 0, 59, 100
1, 508800, Note_on_c, 0, 59, 0
1, 508800, Note_on_c, 0, 57, 100
1, 509280, Note_on_c, 0, 57, 0
1, 509280, Note_on_c, 0, 55, 100
1, 509760, Note_on_c, 0, 55, 0
1, 509760, Note_on_c, 0, 53, 100
1, 510240, Note_on_c, 0, 53, 0
1, 510240, Note_on_c, 0, 52, 100
1, 510720, Note_on_c, 0, 52, 0
1, 510720, Note_on_c, 0, 53, 100
1, 511200, Note_on_c, 0, 53, 0
1, 511200, Note_on_c, 0, 50, 100
1, 511680, Note_on_c, 0, 50, 0
1, 511680, Note_on_c, 0, 36, 100
1, 512160, Note_on_c, 0, 36, 0
1, 512160, Note_on_c, 0, 53, 100
1, 512640, Note_on_c, 0, 53, 0
1, 512640, Note_on_c, 0, 52, 100
1, 513120, Note_on_c, 0, 52, 0
1, 513120, Note_on_c, 0, 50, 100
1, 513600, Note_on_c, 0, 50, 0
1, 513600, Note_on_c, 0, 52, 100
1, 514080, Note_on_c, 0, 52, 0
1, 514080, Note_on_c, 0, 48, 100
1, 514560, Note_on_c, 0, 48, 0
1, 514560, Note_on_c, 0, 47, 100
1, 515040, Note_on_c, 0, 47, 0
1, 515040, Note_on_c, 0, 48, 100
1, 515520, Note_on_c, 0, 48, 0
1, 515520, Note_on_c, 0, 50, 100
1, 516000, Note_on_c, 0, 50, 0
1, 516000, Note_on_c, 0, 52, 100
1, 516480, Note_on_c, 0, 52, 0
1, 516480, Note_on_c, 0, 54, 100
1, 516960, Note_on_c, 0, 54, 0
1, 516960, Note_on_c, 0, 55, 100
1, 517440, Note_on_c, 0, 55, 0
1, 517440, Note_on_c, 0, 45, 100
1, 517920, Note_on_c, 0, 45, 0
1, 517920, Note_on_c, 0, 50, 100
1, 518400, Note_on_c, 0, 50, 0
1, 518400, Note_on_c, 0, 52, 100
1, 518880, Note_on_c, 0, 52, 0
1, 518880, Note_on_c, 0, 54, 100
1, 519360, Note_on_c, 0, 54, 0
1, 519360, Note_on_c, 0, 55, 100
1, 519840, Note_on_c, 0, 55, 0
1, 519840, Note_on_c, 0, 57, 100
1, 520320, Note_on_c, 0, 57, 0
1, 520320, Note_on_c, 0, 43, 100
1, 520800, Note_on_c, 0, 43, 0
1, 520800, Note_on_c, 0, 52, 100
1, 521280, Note_on_c, 0, 52, 0
1, 521280, Note_on_c, 0, 54, 100
1, 521760, Note_on_c, 0, 54, 0
1, 521760, Note_on_c, 0, 55, 100
1, 522240, Note_on_c, 0, 55, 0
1, 522240, Note_on_c, 0, 57, 100
1, 522720, Note_on_c, 0, 57, 0
1, 522720, Note_on_c, 0, 59, 100
1, 523200, Note_on_c, 0, 59, 0
1, 523200, Note_on_c, 0, 38, 100
1, 523680, Note_on_c, 0, 38, 0
1, 523680, Note_on_c, 0, 60, 100
1, 524160, Note_on_c, 0, 60, 0
1, 524160, Note_on_c, 0, 57, 100
1, 524640, Note_on_c, 0, 57, 0
1, 524640, Note_on_c, 0, 60, 100
1, 525120, Note_on_c, 0, 60, 0
1, 525120, Note_on_c, 0, 54, 100
1, 525600, Note_on_c, 0, 54, 0
1, 525600, Note_on_c, 0, 60, 100
1, 526080, Note_on_c, 0, 60, 0
1, 526080, Note_on_c, 0, 50, 100
1, 526560, Note_on_c, 0, 50, 0
1, 526560, Note_on_c, 0, 60, 100
1, 527040, Note_on_c, 0, 60, 0
1, 527040, Note_on_c, 0, 57, 100
1, 527520, Note_on_c, 0, 57, 0
1, 527520, Note_on_c, 0, 60, 100
1, 528000, Note_on_c, 0, 60, 0
1, 528000, Note_on_c, 0, 54, 100
1, 528480, Note_on_c, 0, 54, 0
1, 528480, Note_on_c, 0, 60, 100
1, 528960, Note_on_c, 0, 60, 0
1, 528960, Note_on_c, 0, 50, 100
1, 529440, Note_on_c, 0, 50, 0
1, 529440, Note_on_c, 0, 58, 100
1, 529920, Note_on_c, 0, 58, 0
1, 529920, Note_on_c, 0, 55, 100
1, 530400, Note_on_c, 0, 55, 0
1, 530400, Note_on_c, 0, 58, 100
1, 530880, Note_on_c, 0, 58, 0
1, 530880, Note_on_c, 0, 54, 100
1, 531360, Note_on_c, 0, 54, 0
1, 531360, Note_on_c, 0, 58, 100
1, 531840, Note_on_c, 0, 58, 0
1, 531840, Note_on_c, 0, 50, 100
1, 532320, Note_on_c, 0, 50, 0
1, 532320, Note_on_c, 0, 58, 100
1, 532800, Note_on_c, 0, 58, 0
1, 532800, Note_on_c, 0, 55, 100
1, 533280, Note_on_c, 0, 55, 0
1, 533280, Note_on_c, 0, 58, 100
1, 533760, Note_on_c, 0, 58, 0
1, 533760, Note_on_c, 0, 54, 100
1, 534240, Note_on_c, 0, 54, 0
1, 534240, Note_on_c, 0, 58, 100
1, 534720, Note_on_c, 0, 58, 0
1, 534720, Note_on_c, 0, 51, 100
1, 535200, Note_on_c, 0, 51, 0
1, 535200, Note_on_c, 0, 57, 100
1, 535680, Note_on_c, 0, 57, 0
1, 535680, Note_on_c, 0, 55, 100
1, 536160, Note_on_c, 0, 55, 0
1, 536160, Note_on_c, 0, 57, 100
1, 536640, Note_on_c, 0, 57, 0
1, 536640, Note_on_c, 0, 54, 100
1, 537120, Note_on_c, 0, 54, 0
1, 537120, Note_on_c, 0, 57, 100
1, 537600, Note_on_c, 0, 57, 0
1, 537600, Note_on_c, 0, 51, 100
1, 538080, Note_on_c, 0, 51, 0
1, 538080, Note_on_c, 0, 57, 100
1, 538560, Note_on_c, 0, 57, 0
1, 538560, Note_on_c, 0, 55, 100
1, 539040, Note_on_c, 0, 55, 0
1, 539040, Note_on_c, 0, 57, 100
1, 539520, Note_on_c, 0, 57, 0
1, 539520, Note_on_c, 0, 54, 100
1, 540000, Note_on_c, 0, 54, 0
1, 540000, Note_on_c, 0, 57, 100
1, 540480, Note_on_c, 0, 57, 0
1, 540480, Note_on_c, 0, 60, 100
1, 540960, Note_on_c, 0, 60, 0
1, 540960, Note_on_c, 0, 57, 100
1, 541440, Note_on_c, 0, 57, 0
1, 541440, Note_on_c, 0, 54, 100
1, 541920, Note_on_c, 0, 54, 0
1, 541920, Note_on_c, 0, 50, 100
1, 542400, Note_on_c, 0, 50, 0
1, 542400, Note_on_c, 0, 45, 100
1, 542880, Note_on_c, 0, 45, 0
1, 542880, Note_on_c, 0, 42, 100
1, 543360, Note_on_c, 0, 42, 0
1, 543360, Note_on_c, 0, 38, 100
1, 544800, Note_on_c, 0, 38, 0
1, 544800, Note_on_c, 0, 50, 100
1, 545280, Note_on_c, 0, 50, 0
1, 545280, Note_on_c, 0, 54, 100
1, 545760, Note_on_c, 0, 54, 0
1, 545760, Note_on_c, 0, 57, 100
1, 546240, Note_on_c, 0, 57, 0
1, 546240, Note_on_c, 0, 59, 100
1, 546720, Note_on_c, 0, 59, 0
1, 546720, Note_on_c, 0, 60, 100
1, 547200, Note_on_c, 0, 60, 0
1, 547200, Note_on_c, 0, 62, 100
1, 547680, Note_on_c, 0, 62, 0
1, 547680, Note_on_c, 0, 57, 100
1, 548160, Note_on_c, 0, 57, 0
1, 548160, Note_on_c, 0, 59, 100
1, 548640, Note_on_c, 0, 59, 0
1, 548640, Note_on_c, 0, 55, 100
1, 549120, Note_on_c, 0, 55, 0
1, 549120, Note_on_c, 0, 57, 100
1, 549600, Note_on_c, 0, 57, 0
1, 549600, Note_on_c, 0, 59, 100
1, 550080, Note_on_c, 0, 59, 0
1, 550080, Note_on_c, 0, 60, 100
1, 550560, Note_on_c, 0, 60, 0
1, 550560, Note_on_c, 0, 55, 100
1, 551040, Note_on_c, 0, 55, 0
1, 551040, Note_on_c, 0, 57, 100
1, 551520, Note_on_c, 0, 57, 0
1, 551520, Note_on_c, 0, 54, 100
1, 552000, Note_on_c, 0, 54, 0
1, 552000, Note_on_c, 0, 55, 100
1, 552480, Note_on_c, 0, 55, 0
1, 552480, Note_on_c, 0, 50, 100
1, 552960, Note_on_c, 0, 50, 0
1, 552960, Note_on_c, 0, 52, 100
1, 553440, Note_on_c, 0, 52, 0
1, 553440, Note_on_c, 0, 48, 100
1, 553920, Note_on_c, 0, 48, 0
1, 553920, Note_on_c, 0, 45, 100
1, 554400, Note_on_c, 0, 45, 0
1, 554400, Note_on_c, 0, 54, 100
1, 554880, Note_on_c, 0, 54, 0
1, 554880, Note_on_c, 0, 43, 100
1, 557280, Note_on_c, 0, 43, 0
1, 557280, Note_on_c, 0, 60, 100
1, 557760, Note_on_c, 0, 60, 0
1, 557760, Note_on_c, 0, 60, 100
1, 558240, Note_on_c, 0, 60, 0
1, 558240, Note_on_c, 0, 55, 100
1, 558720, Note_on_c, 0, 55, 0
1, 558720, Note_on_c, 0, 52, 100
1, 559200, Note_on_c, 0, 52, 0
1, 559200, Note_on_c, 0, 48, 100
1, 559680, Note_on_c, 0, 48, 0
1, 559680, Note_on_c, 0, 43, 100
1, 560160, Note_on_c, 0, 43, 0
1, 560160, Note_on_c, 0, 40, 100
1, 560640, Note_on_c, 0, 40, 0
1, 560640, Note_on_c, 0, 36, 100
1, 561120, Note_on_c, 0, 36, 0
1, 561120, Note_on_c, 0, 60, 100
1, 561600, Note_on_c, 0, 60, 0
1, 561600, Note_on_c, 0, 62, 100
1, 562080, Note_on_c, 0, 62, 0
1, 562080, Note_on_c, 0, 60, 100
1, 562560, Note_on_c, 0, 60, 0
1, 562560, Note_on_c, 0, 59, 100
1, 563040, Note_on_c, 0, 59, 0
1, 563040, Note_on_c, 0, 60, 100
1, 563520, Note_on_c, 0, 60, 0
1, 563520, Note_on_c, 0, 62, 100
1, 564000, Note_on_c, 0, 62, 0
1, 564000, Note_on_c, 0, 59, 100
1, 564480, Note_on_c, 0, 59, 0
1, 564480, Note_on_c, 0, 55, 100
1, 564960, Note_on_c, 0, 55, 0
1, 564960, Note_on_c, 0, 50, 100
1, 565440, Note_on_c, 0, 50, 0
1, 565440, Note_on_c, 0, 47, 100
1, 565920, Note_on_c, 0, 47, 0
1, 565920, Note_on_c, 0, 43, 100
1, 566400, Note_on_c, 0, 43, 0
1, 566400, Note_on_c, 0, 41, 100
1, 566880, Note_on_c, 0, 41, 0
1, 566880, Note_on_c, 0, 62, 100
1, 567360, Note_on_c, 0, 62, 0
1, 567360, Note_on_c, 0, 60, 100
1, 567840, Note_on_c, 0, 60, 0
1, 567840, Note_on_c, 0, 59, 100
1, 568320, Note_on_c, 0, 59, 0
1, 568320, Note_on_c, 0, 57, 100
1, 568800, Note_on_c, 0, 57, 0
1, 568800, Note_on_c, 0, 55, 100
1, 569280, Note_on_c, 0, 55, 0
1, 569280, Note_on_c, 0, 60, 100
1, 569760, Note_on_c, 0, 60, 0
1, 569760, Note_on_c, 0, 59, 100
1, 570240, Note_on_c, 0, 59, 0
1, 570240, Note_on_c, 0, 57, 100
1, 570720, Note_on_c, 0, 57, 0
1, 570720, Note_on_c, 0, 55, 100
1, 571200, Note_on_c, 0, 55, 0
1, 571200, Note_on_c, 0, 53, 100
1, 571680, Note_on_c, 0, 53, 0
1, 571680, Note_on_c, 0, 52, 100
1, 572160, Note_on_c, 0, 52, 0
1, 572160, Note_on_c, 0, 53, 100
1, 572640, Note_on_c, 0, 53, 0
1, 572640, Note_on_c, 0, 50, 100
1, 573120, Note_on_c, 0, 50, 0
1, 573120, Note_on_c, 0, 43, 100
1, 573600, Note_on_c, 0, 43, 0
1, 573600, Note_on_c, 0, 57, 100
1, 574080, Note_on_c, 0, 57, 0
1, 574080, Note_on_c, 0, 55, 100
1, 574560, Note_on_c, 0, 55, 0
1, 574560, Note_on_c, 0, 53, 100
1, 575040, Note_on_c, 0, 53, 0
1, 575040, Note_on_c, 0, 52, 100
1, 575520, Note_on_c, 0, 52, 0
1, 575520, Note_on_c, 0, 50, 100
1, 576000, Note_on_c, 0, 50, 0
1, 576000, Note_on_c, 0, 48, 100
1, 576480, Note_on_c, 0, 48, 0
1, 576480, Note_on_c, 0, 47, 100
1, 576960, Note_on_c, 0, 47, 0
1, 576960, Note_on_c, 0, 48, 100
1, 577440, Note_on_c, 0, 48, 0
1, 577440, Note_on_c, 0, 43, 100
1, 577920, Note_on_c, 0, 43, 0
1, 577920, Note_on_c, 0, 36, 100
1, 579360, Note_on_c, 0, 36, 0
1, 579360, Note_on_c, 0, 48, 100
1, 579600, Note_on_c, 0, 48, 0
1, 579600, Note_on_c, 0, 50, 100
1, 579840, Note_on_c, 0, 50, 0
1, 579840, Note_on_c, 0, 52, 100
1, 580320, Note_on_c, 0, 52, 0
1, 580320, Note_on_c, 0, 54, 100
1, 580800, Note_on_c, 0, 54, 0
1, 580800, Note_on_c, 0, 47, 100
1, 581280, Note_on_c, 0, 47, 0
1, 581280, Note_on_c, 0, 50, 100
1, 581760, Note_on_c, 0, 50, 0
1, 581760, Note_on_c, 0, 55, 100
1, 582240, Note_on_c, 0, 55, 0
1, 582240, Note_on_c, 0, 57, 100
1, 582720, Note_on_c, 0, 57, 0
1, 582720, Note_on_c, 0, 59, 100
1, 583200, Note_on_c, 0, 59, 0
1, 583200, Note_on_c, 0, 60, 100
1, 583680, Note_on_c, 0, 60, 0
1, 583680, Note_on_c, 0, 56, 100
1, 584160, Note_on_c, 0, 56, 0
1, 584160, Note_on_c, 0, 62, 100
1, 584640, Note_on_c, 0, 62, 0
1, 584640, Note_on_c, 0, 52, 100
1, 585120, Note_on_c, 0, 52, 0
1, 585120, Note_on_c, 0, 62, 100
1, 585600, Note_on_c, 0, 62, 0
1, 585600, Note_on_c, 0, 60, 100
1, 586080, Note_on_c, 0, 60, 0
1, 586080, Note_on_c, 0, 59, 100
1, 586560, Note_on_c, 0, 59, 0
1, 586560, Note_on_c, 0, 60, 100
1, 587040, Note_on_c, 0, 60, 0
1, 587040, Note_on_c, 0, 59, 100
1, 587520, Note_on_c, 0, 59, 0
1, 587520, Note_on_c, 0, 57, 100
1, 588000, Note_on_c, 0, 57, 0
1, 588000, Note_on_c, 0, 56, 100
1, 588480, Note_on_c, 0, 56, 0
1, 588480, Note_on_c, 0, 57, 100
1, 588960, Note_on_c, 0, 57, 0
1, 588960, Note_on_c, 0, 52, 100
1, 589440, Note_on_c, 0, 52, 0
1, 589440, Note_on_c, 0, 48, 100
1, 589920, Note_on_c, 0, 48, 0
1, 589920, Note_on_c, 0, 50, 100
1, 590400, Note_on_c, 0, 50, 0
1, 590400, Note_on_c, 0, 52, 100
1, 590880, Note_on_c, 0, 52, 0
1, 590880, Note_on_c, 0, 48, 100
1, 591360, Note_on_c, 0, 48, 0
1, 591360, Note_on_c, 0, 45, 100
1, 591840, Note_on_c, 0, 45, 0
1, 591840, Note_on_c, 0, 43, 100
1, 592320, Note_on_c, 0, 43, 0
1, 592320, Note_on_c, 0, 42, 100
1, 592800, Note_on_c, 0, 42, 0
1, 592800, Note_on_c, 0, 45, 100
1, 593280, Note_on_c, 0, 45, 0
1, 593280, Note_on_c, 0, 50, 100
1, 593760, Note_on_c, 0, 50, 0
1, 593760, Note_on_c, 0, 52, 100
1, 594240, Note_on_c, 0, 52, 0
1, 594240, Note_on_c, 0, 54, 100
1, 594720, Note_on_c, 0, 54, 0
1, 594720, Note_on_c, 0, 55, 100
1, 595200, Note_on_c, 0, 55, 0
1, 595200, Note_on_c, 0, 57, 100
1, 595680, Note_on_c, 0, 57, 0
1, 595680, Note_on_c, 0, 54, 100
1, 596160, Note_on_c, 0, 54, 0
1, 596160, Note_on_c, 0, 50, 100
1, 596640, Note_on_c, 0, 50, 0
1, 596640, Note_on_c, 0, 60, 100
1, 597120, Note_on_c, 0, 60, 0
1, 597120, Note_on_c, 0, 59, 100
1, 597600, Note_on_c, 0, 59, 0
1, 597600, Note_on_c, 0, 57, 100
1, 598080, Note_on_c, 0, 57, 0
1, 598080, Note_on_c, 0, 59, 100
1, 598560, Note_on_c, 0, 59, 0
1, 598560, Note_on_c, 0, 57, 100
1, 599040, Note_on_c, 0, 57, 0
1, 599040, Note_on_c, 0, 55, 100
1, 599520, Note_on_c, 0, 55, 0
1, 599520, Note_on_c, 0, 54, 100
1, 600000, Note_on_c, 0, 54, 0
1, 600000, Note_on_c, 0, 55, 100
1, 600480, Note_on_c, 0, 55, 0
1, 600480, Note_on_c, 0, 50, 100
1, 600960, Note_on_c, 0, 50, 0
1, 600960, Note_on_c, 0, 47, 100
1, 601440, Note_on_c, 0, 47, 0
1, 601440, Note_on_c, 0, 48, 100
1, 601920, Note_on_c, 0, 48, 0
1, 601920, Note_on_c, 0, 50, 100
1, 602400, Note_on_c, 0, 50, 0
1, 602400, Note_on_c, 0, 47, 100
1, 602880, Note_on_c, 0, 47, 0
1, 602880, Note_on_c, 0, 43, 100
1, 603360, Note_on_c, 0, 43, 0
1, 603360, Note_on_c, 0, 41, 100
1, 603840, Note_on_c, 0, 41, 0
1, 603840, Note_on_c, 0, 40, 100
1, 604320, Note_on_c, 0, 40, 0
1, 604320, Note_on_c, 0, 55, 100
1, 604800, Note_on_c, 0, 55, 0
1, 604800, Note_on_c, 0, 57, 100
1, 605280, Note_on_c, 0, 57, 0
1, 605280, Note_on_c, 0, 55, 100
1, 605760, Note_on_c, 0, 55, 0
1, 605760, Note_on_c, 0, 54, 100
1, 606240, Note_on_c, 0, 54, 0
1, 606240, Note_on_c, 0, 55, 100
1, 606720, Note_on_c, 0, 55, 0
1, 606720, Note_on_c, 0, 48, 100
1, 607200, Note_on_c, 0, 48, 0
1, 607200, Note_on_c, 0, 50, 100
1, 607680, Note_on_c, 0, 50, 0
1, 607680, Note_on_c, 0, 48, 100
1, 608160, Note_on_c, 0, 48, 0
1, 608160, Note_on_c, 0, 47, 100
1, 608640, Note_on_c, 0, 47, 0
1, 608640, Note_on_c, 0, 45, 100
1, 609120, Note_on_c, 0, 45, 0
1, 609120, Note_on_c, 0, 43, 100
1, 609600, Note_on_c, 0, 43, 0
1, 609600, Note_on_c, 0, 42, 100
1, 610080, Note_on_c, 0, 42, 0
1, 610080, Note_on_c, 0, 57, 100
1, 610560, Note_on_c, 0, 57, 0
1, 610560, Note_on_c, 0, 59, 100
1, 611040, Note_on_c, 0, 59, 0
1, 611040, Note_on_c, 0, 57, 100
1, 611520, Note_on_c, 0, 57, 0
1, 611520, Note_on_c, 0, 55, 100
1, 612000, Note_on_c, 0, 55, 0
1, 612000, Note_on_c, 0, 57, 100
1, 612480, Note_on_c, 0, 57, 0
1, 612480, Note_on_c, 0, 48, 100
1, 612960, Note_on_c, 0, 48, 0
1, 612960, Note_on_c, 0, 52, 100
1, 613440, Note_on_c, 0, 52, 0
1, 613440, Note_on_c, 0, 50, 100
1, 613920, Note_on_c, 0, 50, 0
1, 613920, Note_on_c, 0, 48, 100
1, 614400, Note_on_c, 0, 48, 0
1, 614400, Note_on_c, 0, 47, 100
1, 614880, Note_on_c, 0, 47, 0
1, 614880, Note_on_c, 0, 45, 100
1, 615360, Note_on_c, 0, 45, 0
1, 615360, Note_on_c, 0, 43, 100
1, 615840, Note_on_c, 0, 43, 0
1, 615840, Note_on_c, 0, 59, 100
1, 616320, Note_on_c, 0, 59, 0
1, 616320, Note_on_c, 0, 60, 100
1, 616800, Note_on_c, 0, 60, 0
1, 616800, Note_on_c, 0, 59, 100
1, 617280, Note_on_c, 0, 59, 0
1, 617280, Note_on_c, 0, 52, 100
1, 617760, Note_on_c, 0, 52, 0
1, 617760, Note_on_c, 0, 59, 100
1, 618240, Note_on_c, 0, 59, 0
1, 618240, Note_on_c, 0, 45, 100
1, 618720, Note_on_c, 0, 45, 0
1, 618720, Note_on_c, 0, 60, 100
1, 619200, Note_on_c, 0, 60, 0
1, 619200, Note_on_c, 0, 62, 100
1, 619680, Note_on_c, 0, 62, 0
1, 619680, Note_on_c, 0, 60, 100
1, 620160, Note_on_c, 0, 60, 0
1, 620160, Note_on_c, 0, 54, 100
1, 620640, Note_on_c, 0, 54, 0
1, 620640, Note_on_c, 0, 60, 100
1, 621120, Note_on_c, 0, 60, 0
1, 621120, Note_on_c, 0, 47, 100
1, 621600, Note_on_c, 0, 47, 0
1, 621600, Note_on_c, 0, 62, 100
1, 622080, Note_on_c, 0, 62, 0
1, 622080, Note_on_c, 0, 64, 100
1, 622560, Note_on_c, 0, 64, 0
1, 622560, Note_on_c, 0, 62, 100
1, 623040, Note_on_c, 0, 62, 0
1, 623040, Note_on_c, 0, 60, 100
1, 623520, Note_on_c, 0, 60, 0
1, 623520, Note_on_c, 0, 59, 100
1, 624000, Note_on_c, 0, 59, 0
1, 624000, Note_on_c, 0, 57, 100
1, 624480, Note_on_c, 0, 57, 0
1, 624480, Note_on_c, 0, 55, 100
1, 624960, Note_on_c, 0, 55, 0
1, 624960, Note_on_c, 0, 53, 100
1, 625440, Note_on_c, 0, 53, 0
1, 625440, Note_on_c, 0, 52, 100
1, 625920, Note_on_c, 0, 52, 0
1, 625920, Note_on_c, 0, 53, 100
1, 626400, Note_on_c, 0, 53, 0
1, 626400, Note_on_c, 0, 50, 100
1, 626880, Note_on_c, 0, 50, 0
1, 626880, Note_on_c, 0, 36, 100
1, 627360, Note_on_c, 0, 36, 0
1, 627360, Note_on_c, 0, 53, 100
1, 627840, Note_on_c, 0, 53, 0
1, 627840, Note_on_c, 0, 52, 100
1, 628320, Note_on_c, 0, 52, 0
1, 628320, Note_on_c, 0, 50, 100
1, 628800, Note_on_c, 0, 50, 0
1, 628800, Note_on_c, 0, 52, 100
1, 629280, Note_on_c, 0, 52, 0
1, 629280, Note_on_c, 0, 48, 100
1, 629760, Note_on_c, 0, 48, 0
1, 629760, Note_on_c, 0, 47, 100
1, 630240, Note_on_c, 0, 47, 0
1, 630240, Note_on_c, 0, 48, 100
1, 630720, Note_on_c, 0, 48, 0
1, 630720, Note_on_c, 0, 50, 100
1, 631200, Note_on_c, 0, 50, 0
1, 631200, Note_on_c, 0, 52, 100
1, 631680, Note_on_c, 0, 52, 0
1, 631680, Note_on_c, 0, 54, 100
1, 632160, Note_on_c, 0, 54, 0
1, 632160, Note_on_c, 0, 55, 100
1, 632640, Note_on_c, 0, 55, 0
1, 632640, Note_on_c, 0, 45, 100
1, 633120, Note_on_c, 0, 45, 0
1, 633120, Note_on_c, 0, 50, 100
1, 633600, Note_on_c, 0, 50, 0
1, 633600, Note_on_c, 0, 52, 100
1, 634080, Note_on_c, 0, 52, 0
1, 634080, Note_on_c, 0, 54, 100
1, 634560, Note_on_c, 0, 54, 0
1, 634560, Note_on_c, 0, 55, 100
1, 635040, Note_on_c, 0, 55, 0
1, 635040, Note_on_c, 0, 57, 100
1, 635520, Note_on_c, 0, 57, 0
1, 635520, Note_on_c, 0, 43, 100
1, 636000, Note_on_c, 0, 43, 0
1, 636000, Note_on_c, 0, 52, 100
1, 636480, Note_on_c, 0, 52, 0
1, 636480, Note_on_c, 0, 54, 100
1, 636960, Note_on_c, 0, 54, 0
1, 636960, Note_on_c, 0, 55, 100
1, 637440, Note_on_c, 0, 55, 0
1, 637440, Note_on_c, 0, 57, 100
1, 637920, Note_on_c, 0, 57, 0
1, 637920, Note_on_c, 0, 59, 100
1, 638400, Note_on_c, 0, 59, 0
1, 638400, Note_on_c, 0, 38, 100
1, 638880, Note_on_c, 0, 38, 0
1, 638880, Note_on_c, 0, 60, 100
1, 639360, Note_on_c, 0, 60, 0
1, 639360, Note_on_c, 0, 57, 100
1, 639840, Note_on_c, 0, 57, 0
1, 639840, Note_on_c, 0, 60, 100
1, 640320, Note_on_c, 0, 60, 0
1, 640320, Note_on_c, 0, 54, 100
1, 640800, Note_on_c, 0, 54, 0
1, 640800, Note_on_c, 0, 60, 100
1, 641280, Note_on_c, 0, 60, 0
1, 641280, Note_on_c, 0, 50, 100
1, 641760, Note_on_c, 0, 50, 0
1, 641760, Note_on_c, 0, 60, 100
1, 642240, Note_on_c, 0, 60, 0
1, 642240, Note_on_c, 0, 57, 100
1, 642720, Note_on_c, 0, 57, 0
1, 642720, Note_on_c, 0, 60, 100
1, 643200, Note_on_c, 0, 60, 0
1, 643200, Note_on_c, 0, 54, 100
1, 643680, Note_on_c, 0, 54, 0
1, 643680, Note_on_c, 0, 60, 100
1, 644160, Note_on_c, 0, 60, 0
1, 644160, Note_on_c, 0, 50, 100
1, 644640, Note_on_c, 0, 50, 0
1, 644640, Note_on_c, 0, 58, 100
1, 645120, Note_on_c, 0, 58, 0
1, 645120, Note_on_c, 0, 55, 100
1, 645600, Note_on_c, 0, 55, 0
1, 645600, Note_on_c, 0, 58, 100
1, 646080, Note_on_c, 0, 58, 0
1, 646080, Note_on_c, 0, 54, 100
1, 646560, Note_on_c, 0, 54, 0
1, 646560, Note_on_c, 0, 58, 100
1, 647040, Note_on_c, 0, 58, 0
1, 647040, Note_on_c, 0, 50, 100
1, 647520, Note_on_c, 0, 50, 0
1, 647520, Note_on_c, 0, 58, 100
1, 648000, Note_on_c, 0, 58, 0
1, 648000, Note_on_c, 0, 55, 100
1, 648480, Note_on_c, 0, 55, 0
1, 648480, Note_on_c, 0, 58, 100
1, 648960, Note_on_c, 0, 58, 0
1, 648960, Note_on_c, 0, 54, 100
1, 649440, Note_on_c, 0, 54, 0
1, 649440, Note_on_c, 0, 58, 100
1, 649920, Note_on_c, 0, 58, 0
1, 649920, Note_on_c, 0, 51, 100
1, 650400, Note_on_c, 0, 51, 0
1, 650400, Note_on_c, 0, 57, 100
1, 650880, Note_on_c, 0, 57, 0
1, 650880, Note_on_c, 0, 55, 100
1, 651360, Note_on_c, 0, 55, 0
1, 651360, Note_on_c, 0, 57, 100
1, 651840, Note_on_c, 0, 57, 0
1, 651840, Note_on_c, 0, 54, 100
1, 652320, Note_on_c, 0, 54, 0
1, 652320, Note_on_c, 0, 57, 100
1, 652800, Note_on_c, 0, 57, 0
1, 652800, Note_on_c, 0, 51, 100
1, 653280, Note_on_c, 0, 51, 0
1, 653280, Note_on_c, 0, 57, 100
1, 653760, Note_on_c, 0, 57, 0
1, 653760, Note_on_c, 0, 55, 100
1, 654240, Note_on_c, 0, 55, 0
1, 654240, Note_on_c, 0, 57, 100
1, 654720, Note_on_c, 0, 57, 0
1, 654720, Note_on_c, 0, 54, 100
1, 655200, Note_on_c, 0, 54, 0
1, 655200, Note_on_c, 0, 57, 100
1, 655680, Note_on_c, 0, 57, 0
1, 655680, Note_on_c, 0, 60, 100
1, 656160, Note_on_c, 0, 60, 0
1, 656160, Note_on_c, 0, 57, 100
1, 656640, Note_on_c, 0, 57, 0
1, 656640, Note_on_c, 0, 54, 100
1, 657120, Note_on_c, 0, 54, 0
1, 657120, Note_on_c, 0, 50, 100
1, 657600, Note_on_c, 0, 50, 0
1, 657600, Note_on_c, 0, 45, 100
1, 658080, Note_on_c, 0, 45, 0
1, 658080, Note_on_c, 0, 42, 100
1, 658560, Note_on_c, 0, 42, 0
1, 658560, Note_on_c, 0, 38, 100
1, 660000, Note_on_c, 0, 38, 0
1, 660000, Note_on_c, 0, 50, 100
1, 660480, Note_on_c, 0, 50, 0
1, 660480, Note_on_c, 0, 54, 100
1, 660960, Note_on_c, 0, 54, 0
1, 660960, Note_on_c, 0, 57, 100
1, 661440, Note_on_c, 0, 57, 0
1, 661440, Note_on_c, 0, 59, 100
1, 661920, Note_on_c, 0, 59, 0
1, 661920, Note_on_c, 0, 60, 100
1, 662400, Note_on_c, 0, 60, 0
1, 662400, Note_on_c, 0, 62, 100
1, 662880, Note_on_c, 0, 62, 0
1, 662880, Note_on_c, 0, 57, 100
1, 663360, Note_on_c, 0, 57, 0
1, 663360, Note_on_c, 0, 59, 100
1, 663840, Note_on_c, 0, 59, 0
1, 663840, Note_on_c, 0, 55, 100
1, 664320, Note_on_c, 0, 55, 0
1, 664320, Note_on_c, 0, 57, 100
1, 664800, Note_on_c, 0, 57, 0
1, 664800, Note_on_c, 0, 59, 100
1, 665280, Note_on_c, 0, 59, 0
1, 665280, Note_on_c, 0, 60, 100
1, 665760, Note_on_c, 0, 60, 0
1, 665760, Note_on_c, 0, 55, 100
1, 666240, Note_on_c, 0, 55, 0
1, 666240, Note_on_c, 0, 57, 100
1, 666720, Note_on_c, 0, 57, 0
1, 666720, Note_on_c, 0, 54, 100
1, 667200, Note_on_c, 0, 54, 0
1, 667200, Note_on_c, 0, 55, 100
1, 667680, Note_on_c, 0, 55, 0
1, 667680, Note_on_c, 0, 50, 100
1, 668160, Note_on_c, 0, 50, 0
1, 668160, Note_on_c, 0, 52, 100
1, 668640, Note_on_c, 0, 52, 0
1, 668640, Note_on_c, 0, 48, 100
1, 669120, Note_on_c, 0, 48, 0
1, 669120, Note_on_c, 0, 45, 100
1, 669600, Note_on_c, 0, 45, 0
1, 669600, Note_on_c, 0, 54, 100
1, 670080, Note_on_c, 0, 54, 0
1, 670080, Note_on_c, 0, 43, 100
1, 672480, Note_on_c, 0, 43, 0
1, 672480, Note_on_c, 0, 62, 100
1, 672960, Note_on_c, 0, 62, 0
1, 672960, Note_on_c, 0, 62, 100
1, 673440, Note_on_c, 0, 62, 0
1, 673440, Note_on_c, 0, 59, 100
1, 673920, Note_on_c, 0, 59, 0
1, 673920, Note_on_c, 0, 55, 100
1, 674400, Note_on_c, 0, 55, 0
1, 674400, Note_on_c, 0, 50, 100
1, 674880, Note_on_c, 0, 50, 0
1, 674880, Note_on_c, 0, 47, 100
1, 675360, Note_on_c, 0, 47, 0
1, 675360, Note_on_c, 0, 50, 100
1, 675840, Note_on_c, 0, 50, 0
1, 675840, Note_on_c, 0, 53, 100
1, 676320, Note_on_c, 0, 53, 0
1, 676320, Note_on_c, 0, 50, 100
1, 676800, Note_on_c, 0, 50, 0
1, 676800, Note_on_c, 0, 47, 100
1, 677280, Note_on_c, 0, 47, 0
1, 677280, Note_on_c, 0, 45, 100
1, 677760, Note_on_c, 0, 45, 0
1, 677760, Note_on_c, 0, 47, 100
1, 678240, Note_on_c, 0, 47, 0
1, 678240, Note_on_c, 0, 43, 100
1, 678720, Note_on_c, 0, 43, 0
1, 678720, Note_on_c, 0, 36, 100
1, 679200, Note_on_c, 0, 36, 0
1, 679200, Note_on_c, 0, 53, 100
1, 679680, Note_on_c, 0, 53, 0
1, 679680, Note_on_c, 0, 52, 100
1, 680160, Note_on_c, 0, 52, 0
1, 680160, Note_on_c, 0, 50, 100
1, 680640, Note_on_c, 0, 50, 0
1, 680640, Note_on_c, 0, 52, 100
1, 681120, Note_on_c, 0, 52, 0
1, 681120, Note_on_c, 0, 55, 100
1, 681600, Note_on_c, 0, 55, 0
1, 681600, Note_on_c, 0, 60, 100
1, 682080, Note_on_c, 0, 60, 0
1, 682080, Note_on_c, 0, 62, 100
1, 682560, Note_on_c, 0, 62, 0
1, 682560, Note_on_c, 0, 64, 100
1, 683040, Note_on_c, 0, 64, 0
1, 683040, Note_on_c, 0, 59, 100
1, 683520, Note_on_c, 0, 59, 0
1, 683520, Note_on_c, 0, 60, 100
1, 684000, Note_on_c, 0, 60, 0
1, 684000, Note_on_c, 0, 57, 100
1, 684480, Note_on_c, 0, 57, 0
1, 684480, Note_on_c, 0, 53, 100
1, 684960, Note_on_c, 0, 53, 0
1, 684960, Note_on_c, 0, 55, 100
1, 685440, Note_on_c, 0, 55, 0
1, 685440, Note_on_c, 0, 57, 100
1, 685920, Note_on_c, 0, 57, 0
1, 685920, Note_on_c, 0, 52, 100
1, 686400, Note_on_c, 0, 52, 0
1, 686400, Note_on_c, 0, 53, 100
1, 686880, Note_on_c, 0, 53, 0
1, 686880, Note_on_c, 0, 50, 100
1, 687360, Note_on_c, 0, 50, 0
1, 687360, Note_on_c, 0, 47, 100
1, 687840, Note_on_c, 0, 47, 0
1, 687840, Note_on_c, 0, 57, 100
1, 688320, Note_on_c, 0, 57, 0
1, 688320, Note_on_c, 0, 59, 100
1, 688800, Note_on_c, 0, 59, 0
1, 688800, Note_on_c, 0, 60, 100
1, 689280, Note_on_c, 0, 60, 0
1, 689280, Note_on_c, 0, 62, 100
1, 689760, Note_on_c, 0, 62, 0
1, 689760, Note_on_c, 0, 59, 100
1, 690240, Note_on_c, 0, 59, 0
1, 690240, Note_on_c, 0, 56, 100
1, 690720, Note_on_c, 0, 56, 0
1, 690720, Note_on_c, 0, 54, 100
1, 691200, Note_on_c, 0, 54, 0
1, 691200, Note_on_c, 0, 56, 100
1, 691680, Note_on_c, 0, 56, 0
1, 691680, Note_on_c, 0, 57, 100
1, 692160, Note_on_c, 0, 57, 0
1, 692160, Note_on_c, 0, 59, 100
1, 692640, Note_on_c, 0, 59, 0
1, 692640, Note_on_c, 0, 56, 100
1, 693120, Note_on_c, 0, 56, 0
1, 693120, Note_on_c, 0, 52, 100
1, 693600, Note_on_c, 0, 52, 0
1, 693600, Note_on_c, 0, 59, 100
1, 694080, Note_on_c, 0, 59, 0
1, 694080, Note_on_c, 0, 56, 100
1, 694560, Note_on_c, 0, 56, 0
1, 694560, Note_on_c, 0, 52, 100
1, 695040, Note_on_c, 0, 52, 0
1, 695040, Note_on_c, 0, 64, 100
1, 695520, Note_on_c, 0, 64, 0
1, 695520, Note_on_c, 0, 50, 100
1, 696000, Note_on_c, 0, 50, 0
1, 696000, Note_on_c, 0, 48, 100
1, 696480, Note_on_c, 0, 48, 0
1, 696480, Note_on_c, 0, 57, 100
1, 696960, Note_on_c, 0, 57, 0
1, 696960, Note_on_c, 0, 52, 100
1, 697440, Note_on_c, 0, 52, 0
1, 697440, Note_on_c, 0, 48, 100
1, 697920, Note_on_c, 0, 48, 0
1, 697920, Note_on_c, 0, 47, 100
1, 698400, Note_on_c, 0, 47, 0
1, 698400, Note_on_c, 0, 55, 100
1, 698880, Note_on_c, 0, 55, 0
1, 698880, Note_on_c, 0, 45, 100
1, 699360, Note_on_c, 0, 45, 0
1, 699360, Note_on_c, 0, 53, 100
1, 699840, Note_on_c, 0, 53, 0
1, 699840, Note_on_c, 0, 48, 100
1, 700320, Note_on_c, 0, 48, 0
1, 700320, Note_on_c, 0, 45, 100
1, 700800, Note_on_c, 0, 45, 0
1, 700800, Note_on_c, 0, 43, 100
1, 701280, Note_on_c, 0, 43, 0
1, 701280, Note_on_c, 0, 52, 100
1, 701760, Note_on_c, 0, 52, 0
1, 701760, Note_on_c, 0, 41, 100
1, 702240, Note_on_c, 0, 41, 0
1, 702240, Note_on_c, 0, 50, 100
1, 702720, Note_on_c, 0, 50, 0
1, 702720, Note_on_c, 0, 45, 100
1, 703200, Note_on_c, 0, 45, 0
1, 703200, Note_on_c, 0, 41, 100
1, 703680, Note_on_c, 0, 41, 0
1, 703680, Note_on_c, 0, 40, 100
1, 704160, Note_on_c, 0, 40, 0
1, 704160, Note_on_c, 0, 48, 100
1, 704640, Note_on_c, 0, 48, 0
1, 704640, Note_on_c, 0, 38, 100
1, 705120, Note_on_c, 0, 38, 0
1, 705120, Note_on_c, 0, 60, 100
1, 705600, Note_on_c, 0, 60, 0
1, 705600, Note_on_c, 0, 59, 100
1, 706080, Note_on_c, 0, 59, 0
1, 706080, Note_on_c, 0, 60, 100
1, 706560, Note_on_c, 0, 60, 0
1, 706560, Note_on_c, 0, 62, 100
1, 707040, Note_on_c, 0, 62, 0
1, 707040, Note_on_c, 0, 56, 100
1, 707520, Note_on_c, 0, 56, 0
1, 707520, Note_on_c, 0, 36, 100
1, 708000, Note_on_c, 0, 36, 0
1, 708000, Note_on_c, 0, 64, 100
1, 708480, Note_on_c, 0, 64, 0
1, 708480, Note_on_c, 0, 62, 100
1, 708960, Note_on_c, 0, 62, 0
1, 708960, Note_on_c, 0, 60, 100
1, 709440, Note_on_c, 0, 60, 0
1, 709440, Note_on_c, 0, 59, 100
1, 709920, Note_on_c, 0, 59, 0
1, 709920, Note_on_c, 0, 57, 100
1, 710400, Note_on_c, 0, 57, 0
1, 710400, Note_on_c, 0, 52, 100
1, 710880, Note_on_c, 0, 52, 0
1, 710880, Note_on_c, 0, 62, 100
1, 711360, Note_on_c, 0, 62, 0
1, 711360, Note_on_c, 0, 60, 100
1, 711840, Note_on_c, 0, 60, 0
1, 711840, Note_on_c, 0, 59, 100
1, 712320, Note_on_c, 0, 59, 0
1, 712320, Note_on_c, 0, 57, 100
1, 712800, Note_on_c, 0, 57, 0
1, 712800, Note_on_c, 0, 56, 100
1, 713280, Note_on_c, 0, 56, 0
1, 713280, Note_on_c, 0, 57, 100
1, 713760, Note_on_c, 0, 57, 0
1, 713760, Note_on_c, 0, 52, 100
1, 714240, Note_on_c, 0, 52, 0
1, 714240, Note_on_c, 0, 50, 100
1, 714720, Note_on_c, 0, 50, 0
1, 714720, Note_on_c, 0, 48, 100
1, 715200, Note_on_c, 0, 48, 0
1, 715200, Note_on_c, 0, 50, 100
1, 715680, Note_on_c, 0, 50, 0
1, 715680, Note_on_c, 0, 52, 100
1, 716160, Note_on_c, 0, 52, 0
1, 716160, Note_on_c, 0, 45, 100
1, 717600, Note_on_c, 0, 45, 0
1, 717600, Note_on_c, 0, 57, 100
1, 717840, Note_on_c, 0, 57, 0
1, 717840, Note_on_c, 0, 59, 100
1, 718080, Note_on_c, 0, 59, 0
1, 718080, Note_on_c, 0, 60, 100
1, 718320, Note_on_c, 0, 60, 0
1, 718320, Note_on_c, 0, 59, 100
1, 718560, Note_on_c, 0, 59, 0
1, 718560, Note_on_c, 0, 60, 100
1, 718800, Note_on_c, 0, 60, 0
1, 718800, Note_on_c, 0, 57, 100
1, 719040, Note_on_c, 0, 57, 0
1, 719040, Note_on_c, 0, 55, 100
1, 719520, Note_on_c, 0, 55, 0
1, 719520, Note_on_c, 0, 52, 100
1, 720000, Note_on_c, 0, 52, 0
1, 720000, Note_on_c, 0, 48, 100
1, 720480, Note_on_c, 0, 48, 0
1, 720480, Note_on_c, 0, 52, 100
1, 720960, Note_on_c, 0, 52, 0
1, 720960, Note_on_c, 0, 55, 100
1, 721440, Note_on_c, 0, 55, 0
1, 721440, Note_on_c, 0, 58, 100
1, 721920, Note_on_c, 0, 58, 0
1, 721920, Note_on_c, 0, 40, 100
1, 722400, Note_on_c, 0, 40, 0
1, 722400, Note_on_c, 0, 62, 100
1, 722880, Note_on_c, 0, 62, 0
1, 722880, Note_on_c, 0, 60, 100
1, 723360, Note_on_c, 0, 60, 0
1, 723360, Note_on_c, 0, 58, 100
1, 723840, Note_on_c, 0, 58, 0
1, 723840, Note_on_c, 0, 57, 100
1, 724320, Note_on_c, 0, 57, 0
1, 724320, Note_on_c, 0, 55, 100
1, 724800, Note_on_c, 0, 55, 0
1, 724800, Note_on_c, 0, 57, 100
1, 725280, Note_on_c, 0, 57, 0
1, 725280, Note_on_c, 0, 53, 100
1, 725760, Note_on_c, 0, 53, 0
1, 725760, Note_on_c, 0, 52, 100
1, 726240, Note_on_c, 0, 52, 0
1, 726240, Note_on_c, 0, 53, 100
1, 726720, Note_on_c, 0, 53, 0
1, 726720, Note_on_c, 0, 48, 100
1, 727200, Note_on_c, 0, 48, 0
1, 727200, Note_on_c, 0, 53, 100
1, 727680, Note_on_c, 0, 53, 0
1, 727680, Note_on_c, 0, 45, 100
1, 728160, Note_on_c, 0, 45, 0
1, 728160, Note_on_c, 0, 48, 100
1, 728640, Note_on_c, 0, 48, 0
1, 728640, Note_on_c, 0, 41, 100
1, 729120, Note_on_c, 0, 41, 0
1, 729120, Note_on_c, 0, 57, 100
1, 729600, Note_on_c, 0, 57, 0
1, 729600, Note_on_c, 0, 55, 100
1, 730080, Note_on_c, 0, 55, 0
1, 730080, Note_on_c, 0, 57, 100
1, 730560, Note_on_c, 0, 57, 0
1, 730560, Note_on_c, 0, 58, 100
1, 731040, Note_on_c, 0, 58, 0
1, 731040, Note_on_c, 0, 57, 100
1, 731520, Note_on_c, 0, 57, 0
1, 731520, Note_on_c, 0, 55, 100
1, 732000, Note_on_c, 0, 55, 0
1, 732000, Note_on_c, 0, 53, 100
1, 732480, Note_on_c, 0, 53, 0
1, 732480, Note_on_c, 0, 52, 100
1, 732960, Note_on_c, 0, 52, 0
1, 732960, Note_on_c, 0, 55, 100
1, 733440, Note_on_c, 0, 55, 0
1, 733440, Note_on_c, 0, 49, 100
1, 733920, Note_on_c, 0, 49, 0
1, 733920, Note_on_c, 0, 52, 100
1, 734400, Note_on_c, 0, 52, 0
1, 734400, Note_on_c, 0, 43, 100
1, 734880, Note_on_c, 0, 43, 0
1, 734880, Note_on_c, 0, 46, 100
1, 735360, Note_on_c, 0, 46, 0
1, 735360, Note_on_c, 0, 45, 100
1, 735840, Note_on_c, 0, 45, 0
1, 735840, Note_on_c, 0, 43, 100
1, 736320, Note_on_c, 0, 43, 0
1, 736320, Note_on_c, 0, 41, 100
1, 736800, Note_on_c, 0, 41, 0
1, 736800, Note_on_c, 0, 40, 100
1, 737280, Note_on_c, 0, 40, 0
1, 737280, Note_on_c, 0, 41, 100
1, 737760, Note_on_c, 0, 41, 0
1, 737760, Note_on_c, 0, 43, 100
1, 738240, Note_on_c, 0, 43, 0
1, 738240, Note_on_c, 0, 45, 100
1, 738720, Note_on_c, 0, 45, 0
1, 738720, Note_on_c, 0, 41, 100
1, 739200, Note_on_c, 0, 41, 0
1, 739200, Note_on_c, 0, 38, 100
1, 739680, Note_on_c, 0, 38, 0
1, 739680, Note_on_c, 0, 41, 100
1, 740160, Note_on_c, 0, 41, 0
1, 740160, Note_on_c, 0, 45, 100
1, 740640, Note_on_c, 0, 45, 0
1, 740640, Note_on_c, 0, 50, 100
1, 741120, Note_on_c, 0, 50, 0
1, 741120, Note_on_c, 0, 52, 100
1, 741600, Note_on_c, 0, 52, 0
1, 741600, Note_on_c, 0, 53, 100
1, 742080, Note_on_c, 0, 53, 0
1, 742080, Note_on_c, 0, 44, 100
1, 742560, Note_on_c, 0, 44, 0
1, 742560, Note_on_c, 0, 53, 100
1, 743040, Note_on_c, 0, 53, 0
1, 743040, Note_on_c, 0, 52, 100
1, 743520, Note_on_c, 0, 52, 0
1, 743520, Note_on_c, 0, 50, 100
1, 744000, Note_on_c, 0, 50, 0
1, 744000, Note_on_c, 0, 48, 100
1, 744480, Note_on_c, 0, 48, 0
1, 744480, Note_on_c, 0, 47, 100
1, 744960, Note_on_c, 0, 47, 0
1, 744960, Note_on_c, 0, 45, 100
1, 745440, Note_on_c, 0, 45, 0
1, 745440, Note_on_c, 0, 48, 100
1, 745920, Note_on_c, 0, 48, 0
1, 745920, Note_on_c, 0, 53, 100
1, 746400, Note_on_c, 0, 53, 0
1, 746400, Note_on_c, 0, 57, 100
1, 746880, Note_on_c, 0, 57, 0
1, 746880, Note_on_c, 0, 53, 100
1, 747360, Note_on_c, 0, 53, 0
1, 747360, Note_on_c, 0, 50, 100
1, 747840, Note_on_c, 0, 50, 0
1, 747840, Note_on_c, 0, 47, 100
1, 748320, Note_on_c, 0, 47, 0
1, 748320, Note_on_c, 0, 57, 100
1, 748800, Note_on_c, 0, 57, 0
1, 748800, Note_on_c, 0, 55, 100
1, 749280, Note_on_c, 0, 55, 0
1, 749280, Note_on_c, 0, 53, 100
1, 749760, Note_on_c, 0, 53, 0
1, 749760, Note_on_c, 0, 52, 100
1, 750240, Note_on_c, 0, 52, 0
1, 750240, Note_on_c, 0, 50, 100
1, 750720, Note_on_c, 0, 50, 0
1, 750720, Note_on_c, 0, 48, 100
1, 751200, Note_on_c, 0, 48, 0
1, 751200, Note_on_c, 0, 52, 100
1, 751680, Note_on_c, 0, 52, 0
1, 751680, Note_on_c, 0, 57, 100
1, 752160, Note_on_c, 0, 57, 0
1, 752160, Note_on_c, 0, 60, 100
1, 752640, Note_on_c, 0, 60, 0
1, 752640, Note_on_c, 0, 57, 100
1, 753120, Note_on_c, 0, 57, 0
1, 753120, Note_on_c, 0, 53, 100
1, 753600, Note_on_c, 0, 53, 0
1, 753600, Note_on_c, 0, 50, 100
1, 754080, Note_on_c, 0, 50, 0
1, 754080, Note_on_c, 0, 60, 100
1, 754560, Note_on_c, 0, 60, 0
1, 754560, Note_on_c, 0, 59, 100
1, 755040, Note_on_c, 0, 59, 0
1, 755040, Note_on_c, 0, 57, 100
1, 755520, Note_on_c, 0, 57, 0
1, 755520, Note_on_c, 0, 55, 100
1, 756000, Note_on_c, 0, 55, 0
1, 756000, Note_on_c, 0, 53, 100
1, 756480, Note_on_c, 0, 53, 0
1, 756480, Note_on_c, 0, 52, 100
1, 756960, Note_on_c, 0, 52, 0
1, 756960, Note_on_c, 0, 55, 100
1, 757440, Note_on_c, 0, 55, 0
1, 757440, Note_on_c, 0, 60, 100
1, 757920, Note_on_c, 0, 60, 0
1, 757920, Note_on_c, 0, 64, 100
1, 758400, Note_on_c, 0, 64, 0
1, 758400, Note_on_c, 0, 60, 100
1, 758880, Note_on_c, 0, 60, 0
1, 758880, Note_on_c, 0, 57, 100
1, 759360, Note_on_c, 0, 57, 0
1, 759360, Note_on_c, 0, 53, 100
1, 759840, Note_on_c, 0, 53, 0
1, 759840, Note_on_c, 0, 64, 100
1, 760320, Note_on_c, 0, 64, 0
1, 760320, Note_on_c, 0, 62, 100
1, 760800, Note_on_c, 0, 62, 0
1, 760800, Note_on_c, 0, 60, 100
1, 761280, Note_on_c, 0, 60, 0
1, 761280, Note_on_c, 0, 59, 100
1, 761760, Note_on_c, 0, 59, 0
1, 761760, Note_on_c, 0, 57, 100
1, 762240, Note_on_c, 0, 57, 0
1, 762240, Note_on_c, 0, 59, 100
1, 762720, Note_on_c, 0, 59, 0
1, 762720, Note_on_c, 0, 62, 100
1, 763200, Note_on_c, 0, 62, 0
1, 763200, Note_on_c, 0, 59, 100
1, 763680, Note_on_c, 0, 59, 0
1, 763680, Note_on_c, 0, 55, 100
1, 764160, Note_on_c, 0, 55, 0
1, 764160, Note_on_c, 0, 50, 100
1, 764640, Note_on_c, 0, 50, 0
1, 764640, Note_on_c, 0, 47, 100
1, 765120, Note_on_c, 0, 47, 0
1, 765120, Note_on_c, 0, 43, 100
1, 765600, Note_on_c, 0, 43, 0
1, 765600, Note_on_c, 0, 53, 100
1, 766080, Note_on_c, 0, 53, 0
1, 766080, Note_on_c, 0, 50, 100
1, 766560, Note_on_c, 0, 50, 0
1, 766560, Note_on_c, 0, 53, 100
1, 767040, Note_on_c, 0, 53, 0
1, 767040, Note_on_c, 0, 47, 100
1, 767520, Note_on_c, 0, 47, 0
1, 767520, Note_on_c, 0, 53, 100
1, 768000, Note_on_c, 0, 53, 0
1, 768000, Note_on_c, 0, 43, 100
1, 768480, Note_on_c, 0, 43, 0
1, 768480, Note_on_c, 0, 53, 100
1, 768960, Note_on_c, 0, 53, 0
1, 768960, Note_on_c, 0, 50, 100
1, 769440, Note_on_c, 0, 50, 0
1, 769440, Note_on_c, 0, 53, 100
1, 769920, Note_on_c, 0, 53, 0
1, 769920, Note_on_c, 0, 47, 100
1, 770400, Note_on_c, 0, 47, 0
1, 770400, Note_on_c, 0, 53, 100
1, 770880, Note_on_c, 0, 53, 0
1, 770880, Note_on_c, 0, 43, 100
1, 771360, Note_on_c, 0, 43, 0
1, 771360, Note_on_c, 0, 51, 100
1, 771840, Note_on_c, 0, 51, 0
1, 771840, Note_on_c, 0, 48, 100
1, 772320, Note_on_c, 0, 48, 0
1, 772320, Note_on_c, 0, 51, 100
1, 772800, Note_on_c, 0, 51, 0
1, 772800, Note_on_c, 0, 47, 100
1, 773280, Note_on_c, 0, 47, 0
1, 773280, Note_on_c, 0, 51, 100
1, 773760, Note_on_c, 0, 51, 0
1, 773760, Note_on_c, 0, 43, 100
1, 774240, Note_on_c, 0, 43, 0
1, 774240, Note_on_c, 0, 51, 100
1, 774720, Note_on_c, 0, 51, 0
1, 774720, Note_on_c, 0, 48, 100
1, 775200, Note_on_c, 0, 48, 0
1, 775200, Note_on_c, 0, 51, 100
1, 775680, Note_on_c, 0, 51, 0
1, 775680, Note_on_c, 0, 47, 100
1, 776160, Note_on_c, 0, 47, 0
1, 776160, Note_on_c, 0, 51, 100
1, 776640, Note_on_c, 0, 51, 0
1, 776640, Note_on_c, 0, 44, 100
1, 777120, Note_on_c, 0, 44, 0
1, 777120, Note_on_c, 0, 50, 100
1, 777600, Note_on_c, 0, 50, 0
1, 777600, Note_on_c, 0, 48, 100
1, 778080, Note_on_c, 0, 48, 0
1, 778080, Note_on_c, 0, 50, 100
1, 778560, Note_on_c, 0, 50, 0
1, 778560, Note_on_c, 0, 47, 100
1, 779040, Note_on_c, 0, 47, 0
1, 779040, Note_on_c, 0, 50, 100
1, 779520, Note_on_c, 0, 50, 0
1, 779520, Note_on_c, 0, 44, 100
1, 780000, Note_on_c, 0, 44, 0
1, 780000, Note_on_c, 0, 50, 100
1, 780480, Note_on_c, 0, 50, 0
1, 780480, Note_on_c, 0, 48, 100
1, 780960, Note_on_c, 0, 48, 0
1, 780960, Note_on_c, 0, 50, 100
1, 781440, Note_on_c, 0, 50, 0
1, 781440, Note_on_c, 0, 47, 100
1, 781920, Note_on_c, 0, 47, 0
1, 781920, Note_on_c, 0, 50, 100
1, 782400, Note_on_c, 0, 50, 0
1, 782400, Note_on_c, 0, 53, 100
1, 782880, Note_on_c, 0, 53, 0
1, 782880, Note_on_c, 0, 43, 100
1, 783360, Note_on_c, 0, 43, 0
1, 783360, Note_on_c, 0, 47, 100
1, 783840, Note_on_c, 0, 47, 0
1, 783840, Note_on_c, 0, 50, 100
1, 784320, Note_on_c, 0, 50, 0
1, 784320, Note_on_c, 0, 53, 100
1, 784800, Note_on_c, 0, 53, 0
1, 784800, Note_on_c, 0, 59, 100
1, 785280, Note_on_c, 0, 59, 0
1, 785280, Note_on_c, 0, 62, 100
1, 786720, Note_on_c, 0, 62, 0
1, 786720, Note_on_c, 0, 60, 100
1, 787200, Note_on_c, 0, 60, 0
1, 787200, Note_on_c, 0, 59, 100
1, 787680, Note_on_c, 0, 59, 0
1, 787680, Note_on_c, 0, 57, 100
1, 788160, Note_on_c, 0, 57, 0
1, 788160, Note_on_c, 0, 55, 100
1, 788640, Note_on_c, 0, 55, 0
1, 788640, Note_on_c, 0, 53, 100
1, 789120, Note_on_c, 0, 53, 0
1, 789120, Note_on_c, 0, 52, 100
1, 789600, Note_on_c, 0, 52, 0
1, 789600, Note_on_c, 0, 55, 100
1, 790080, Note_on_c, 0, 55, 0
1, 790080, Note_on_c, 0, 53, 100
1, 790560, Note_on_c, 0, 53, 0
1, 790560, Note_on_c, 0, 50, 100
1, 791040, Note_on_c, 0, 50, 0
1, 791040, Note_on_c, 0, 52, 100
1, 791520, Note_on_c, 0, 52, 0
1, 791520, Note_on_c, 0, 50, 100
1, 792000, Note_on_c, 0, 50, 0
1, 792000, Note_on_c, 0, 48, 100
1, 792480, Note_on_c, 0, 48, 0
1, 792480, Note_on_c, 0, 52, 100
1, 792960, Note_on_c, 0, 52, 0
1, 792960, Note_on_c, 0, 50, 100
1, 793440, Note_on_c, 0, 50, 0
1, 793440, Note_on_c, 0, 47, 100
1, 793920, Note_on_c, 0, 47, 0
1, 793920, Note_on_c, 0, 48, 100
1, 794400, Note_on_c, 0, 48, 0
1, 794400, Note_on_c, 0, 55, 100
1, 794880, Note_on_c, 0, 55, 0
1, 794880, Note_on_c, 0, 57, 100
1, 795360, Note_on_c, 0, 57, 0
1, 795360, Note_on_c, 0, 53, 100
1, 795840, Note_on_c, 0, 53, 0
1, 795840, Note_on_c, 0, 50, 100
1, 796320, Note_on_c, 0, 50, 0
1, 796320, Note_on_c, 0, 59, 100
1, 796800, Note_on_c, 0, 59, 0
1, 796800, Note_on_c, 0, 60, 100
1, 799200, Note_on_c, 0, 60, 0
1, 799200, Note_on_c, 0, 62, 100
1, 799680, Note_on_c, 0, 62, 0
1, 799680, Note_on_c, 0, 62, 100
1, 800160, Note_on_c, 0, 62, 0
1, 800160, Note_on_c, 0, 59, 100
1, 800640, Note_on_c, 0, 59, 0
1, 800640, Note_on_c, 0, 55, 100
1, 801120, Note_on_c, 0, 55, 0
1, 801120, Note_on_c, 0, 50, 100
1, 801600, Note_on_c, 0, 50, 0
1, 801600, Note_on_c, 0, 47, 100
1, 802080, Note_on_c, 0, 47, 0
1, 802080, Note_on_c, 0, 50, 100
1, 802560, Note_on_c, 0, 50, 0
1, 802560, Note_on_c, 0, 53, 100
1, 803040, Note_on_c, 0, 53, 0
1, 803040, Note_on_c, 0, 50, 100
1, 803520, Note_on_c, 0, 50, 0
1, 803520, Note_on_c, 0, 47, 100
1, 804000, Note_on_c, 0, 47, 0
1, 804000, Note_on_c, 0, 45, 100
1, 804480, Note_on_c, 0, 45, 0
1, 804480, Note_on_c, 0, 47, 100
1, 804960, Note_on_c, 0, 47, 0
1, 804960, Note_on_c, 0, 43, 100
1, 805440, Note_on_c, 0, 43, 0
1, 805440, Note_on_c, 0, 36, 100
1, 805920, Note_on_c, 0, 36, 0
1, 805920, Note_on_c, 0, 53, 100
1, 806400, Note_on_c, 0, 53, 0
1, 806400, Note_on_c, 0, 52, 100
1, 806880, Note_on_c, 0, 52, 0
1, 806880, Note_on_c, 0, 50, 100
1, 807360, Note_on_c, 0, 50, 0
1, 807360, Note_on_c, 0, 52, 100
1, 807840, Note_on_c, 0, 52, 0
1, 807840, Note_on_c, 0, 55, 100
1, 808320, Note_on_c, 0, 55, 0
1, 808320, Note_on_c, 0, 60, 100
1, 808800, Note_on_c, 0, 60, 0
1, 808800, Note_on_c, 0, 62, 100
1, 809280, Note_on_c, 0, 62, 0
1, 809280, Note_on_c, 0, 64, 100
1, 809760, Note_on_c, 0, 64, 0
1, 809760, Note_on_c, 0, 59, 100
1, 810240, Note_on_c, 0, 59, 0
1, 810240, Note_on_c, 0, 60, 100
1, 810720, Note_on_c, 0, 60, 0
1, 810720, Note_on_c, 0, 57, 100
1, 811200, Note_on_c, 0, 57, 0
1, 811200, Note_on_c, 0, 53, 100
1, 811680, Note_on_c, 0, 53, 0
1, 811680, Note_on_c, 0, 55, 100
1, 812160, Note_on_c, 0, 55, 0
1, 812160, Note_on_c, 0, 57, 100
1, 812640, Note_on_c, 0, 57, 0
1, 812640, Note_on_c, 0, 52, 100
1, 813120, Note_on_c, 0, 52, 0
1, 813120, Note_on_c, 0, 53, 100
1, 813600, Note_on_c, 0, 53, 0
1, 813600, Note_on_c, 0, 50, 100
1, 814080, Note_on_c, 0, 50, 0
1, 814080, Note_on_c, 0, 47, 100
1, 814560, Note_on_c, 0, 47, 0
1, 814560, Note_on_c, 0, 57, 100
1, 815040, Note_on_c, 0, 57, 0
1, 815040, Note_on_c, 0, 59, 100
1, 815520, Note_on_c, 0, 59, 0
1, 815520, Note_on_c, 0, 60, 100
1, 816000, Note_on_c, 0, 60, 0
1, 816000, Note_on_c, 0, 62, 100
1, 816480, Note_on_c, 0, 62, 0
1, 816480, Note_on_c, 0, 59, 100
1, 816960, Note_on_c, 0, 59, 0
1, 816960, Note_on_c, 0, 56, 100
1, 817440, Note_on_c, 0, 56, 0
1, 817440, Note_on_c, 0, 54, 100
1, 817920, Note_on_c, 0, 54, 0
1, 817920, Note_on_c, 0, 56, 100
1, 818400, Note_on_c, 0, 56, 0
1, 818400, Note_on_c, 0, 57, 100
1, 818880, Note_on_c, 0, 57, 0
1, 818880, Note_on_c, 0, 59, 100
1, 819360, Note_on_c, 0, 59, 0
1, 819360, Note_on_c, 0, 56, 100
1, 819840, Note_on_c, 0, 56, 0
1, 819840, Note_on_c, 0, 52, 100
1, 820320, Note_on_c, 0, 52, 0
1, 820320, Note_on_c, 0, 59, 100
1, 820800, Note_on_c, 0, 59, 0
1, 820800, Note_on_c, 0, 56, 100
1, 821280, Note_on_c, 0, 56, 0
1, 821280, Note_on_c, 0, 52, 100
1, 821760, Note_on_c, 0, 52, 0
1, 821760, Note_on_c, 0, 64, 100
1, 822240, Note_on_c, 0, 64, 0
1, 822240, Note_on_c, 0, 50, 100
1, 822720, Note_on_c, 0, 50, 0
1, 822720, Note_on_c, 0, 48, 100
1, 823200, Note_on_c, 0, 48, 0
1, 823200, Note_on_c, 0, 57, 100
1, 823680, Note_on_c, 0, 57, 0
1, 823680, Note_on_c, 0, 52, 100
1, 824160, Note_on_c, 0, 52, 0
1, 824160, Note_on_c, 0, 48, 100
1, 824640, Note_on_c, 0, 48, 0
1, 824640, Note_on_c, 0, 47, 100
1, 825120, Note_on_c, 0, 47, 0
1, 825120, Note_on_c, 0, 55, 100
1, 825600, Note_on_c, 0, 55, 0
1, 825600, Note_on_c, 0, 45, 100
1, 826080, Note_on_c, 0, 45, 0
1, 826080, Note_on_c, 0, 53, 100
1, 826560, Note_on_c, 0, 53, 0
1, 826560, Note_on_c, 0, 48, 100
1, 827040, Note_on_c, 0, 48, 0
1, 827040, Note_on_c, 0, 45, 100
1, 827520, Note_on_c, 0, 45, 0
1, 827520, Note_on_c, 0, 43, 100
1, 828000, Note_on_c, 0, 43, 0
1, 828000, Note_on_c, 0, 52, 100
1, 828480, Note_on_c, 0, 52, 0
1, 828480, Note_on_c, 0, 41, 100
1, 828960, Note_on_c, 0, 41, 0
1, 828960, Note_on_c, 0, 50, 100
1, 829440, Note_on_c, 0, 50, 0
1, 829440, Note_on_c, 0, 45, 100
1, 829920, Note_on_c, 0, 45, 0
1, 829920, Note_on_c, 0, 41, 100
1, 830400, Note_on_c, 0, 41, 0
1, 830400, Note_on_c, 0, 40, 100
1, 830880, Note_on_c, 0, 40, 0
1, 830880, Note_on_c, 0, 48, 100
1, 831360, Note_on_c, 0, 48, 0
1, 831360, Note_on_c, 0, 38, 100
1, 831840, Note_on_c, 0, 38, 0
1, 831840, Note_on_c, 0, 60, 100
1, 832320, Note_on_c, 0, 60, 0
1, 832320, Note_on_c, 0, 59, 100
1, 832800, Note_on_c, 0, 59, 0
1, 832800, Note_on_c, 0, 60, 100
1, 833280, Note_on_c, 0, 60, 0
1, 833280, Note_on_c, 0, 62, 100
1, 833760, Note_on_c, 0, 62, 0
1, 833760, Note_on_c, 0, 56, 100
1, 834240, Note_on_c, 0, 56, 0
1, 834240, Note_on_c, 0, 36, 100
1, 834720, Note_on_c, 0, 36, 0
1, 834720, Note_on_c, 0, 64, 100
1, 835200, Note_on_c, 0, 64, 0
1, 835200, Note_on_c, 0, 62, 100
1, 835680, Note_on_c, 0, 62, 0
1, 835680, Note_on_c, 0, 60, 100
1, 836160, Note_on_c, 0, 60, 0
1, 836160, Note_on_c, 0, 59, 100
1, 836640, Note_on_c, 0, 59, 0
1, 836640, Note_on_c, 0, 57, 100
1, 837120, Note_on_c, 0, 57, 0
1, 837120, Note_on_c, 0, 52, 100
1, 837600, Note_on_c, 0, 52, 0
1, 837600, Note_on_c, 0, 62, 100
1, 838080, Note_on_c, 0, 62, 0
1, 838080, Note_on_c, 0, 60, 100
1, 838560, Note_on_c, 0, 60, 0
1, 838560, Note_on_c, 0, 59, 100
1, 839040, Note_on_c, 0, 59, 0
1, 839040, Note_on_c, 0, 57, 100
1, 839520, Note_on_c, 0, 57, 0
1, 839520, Note_on_c, 0, 56, 100
1, 840000, Note_on_c, 0, 56, 0
1, 840000, Note_on_c, 0, 57, 100
1, 840480, Note_on_c, 0, 57, 0
1, 840480, Note_on_c, 0, 52, 100
1, 840960, Note_on_c, 0, 52, 0
1, 840960, Note_on_c, 0, 50, 100
1, 841440, Note_on_c, 0, 50, 0
1, 841440, Note_on_c, 0, 48, 100
1, 841920, Note_on_c, 0, 48, 0
1, 841920, Note_on_c, 0, 50, 100
1, 842400, Note_on_c, 0, 50, 0
1, 842400, Note_on_c, 0, 52, 100
1, 842880, Note_on_c, 0, 52, 0
1, 842880, Note_on_c, 0, 45, 100
1, 844320, Note_on_c, 0, 45, 0
1, 844320, Note_on_c, 0, 57, 100
1, 844560, Note_on_c, 0, 57, 0
1, 844560, Note_on_c, 0, 59, 100
1, 844800, Note_on_c, 0, 59, 0
1, 844800, Note_on_c, 0, 60, 100
1, 845040, Note_on_c, 0, 60, 0
1, 845040, Note_on_c, 0, 59, 100
1, 845280, Note_on_c, 0, 59, 0
1, 845280, Note_on_c, 0, 60, 100
1, 845520, Note_on_c, 0, 60, 0
1, 845520, Note_on_c, 0, 57, 100
1, 845760, Note_on_c, 0, 57, 0
1, 845760, Note_on_c, 0, 55, 100
1, 846240, Note_on_c, 0, 55, 0
1, 846240, Note_on_c, 0, 52, 100
1, 846720, Note_on_c, 0, 52, 0
1, 846720, Note_on_c, 0, 48, 100
1, 847200, Note_on_c, 0, 48, 0
1, 847200, Note_on_c, 0, 52, 100
1, 847680, Note_on_c, 0, 52, 0
1, 847680, Note_on_c, 0, 55, 100
1, 848160, Note_on_c, 0, 55, 0
1, 848160, Note_on_c, 0, 58, 100
1, 848640, Note_on_c, 0, 58, 0
1, 848640, Note_on_c, 0, 40, 100
1, 849120, Note_on_c, 0, 40, 0
1, 849120, Note_on_c, 0, 62, 100
1, 849600, Note_on_c, 0, 62, 0
1, 849600, Note_on_c, 0, 60, 100
1, 850080, Note_on_c, 0, 60, 0
1, 850080, Note_on_c, 0, 58, 100
1, 850560, Note_on_c, 0, 58, 0
1, 850560, Note_on_c, 0, 57, 100
1, 851040, Note_on_c, 0, 57, 0
1, 851040, Note_on_c, 0, 55, 100
1, 851520, Note_on_c, 0, 55, 0
1, 851520, Note_on_c, 0, 57, 100
1, 852000, Note_on_c, 0, 57, 0
1, 852000, Note_on_c, 0, 53, 100
1, 852480, Note_on_c, 0, 53, 0
1, 852480, Note_on_c, 0, 52, 100
1, 852960, Note_on_c, 0, 52, 0
1, 852960, Note_on_c, 0, 53, 100
1, 853440, Note_on_c, 0, 53, 0
1, 853440, Note_on_c, 0, 48, 100
1, 853920, Note_on_c, 0, 48, 0
1, 853920, Note_on_c, 0, 53, 100
1, 854400, Note_on_c, 0, 53, 0
1, 854400, Note_on_c, 0, 45, 100
1, 854880, Note_on_c, 0, 45, 0
1, 854880, Note_on_c, 0, 48, 100
1, 855360, Note_on_c, 0, 48, 0
1, 855360, Note_on_c, 0, 41, 100
1, 855840, Note_on_c, 0, 41, 0
1, 855840, Note_on_c, 0, 57, 100
1, 856320, Note_on_c, 0, 57, 0
1, 856320, Note_on_c, 0, 55, 100
1, 856800, Note_on_c, 0, 55, 0
1, 856800, Note_on_c, 0, 57, 100
1, 857280, Note_on_c, 0, 57, 0
1, 857280, Note_on_c, 0, 58, 100
1, 857760, Note_on_c, 0, 58, 0
1, 857760, Note_on_c, 0, 57, 100
1, 858240, Note_on_c, 0, 57, 0
1, 858240, Note_on_c, 0, 55, 100
1, 858720, Note_on_c, 0, 55, 0
1, 858720, Note_on_c, 0, 53, 100
1, 859200, Note_on_c, 0, 53, 0
1, 859200, Note_on_c, 0, 52, 100
1, 859680, Note_on_c, 0, 52, 0
1, 859680, Note_on_c, 0, 55, 100
1, 860160, Note_on_c, 0, 55, 0
1, 860160, Note_on_c, 0, 49, 100
1, 860640, Note_on_c, 0, 49, 0
1, 860640, Note_on_c, 0, 52, 100
1, 861120, Note_on_c, 0, 52, 0
1, 861120, Note_on_c, 0, 43, 100
1, 861600, Note_on_c, 0, 43, 0
1, 861600, Note_on_c, 0, 46, 100
1, 862080, Note_on_c, 0, 46, 0
1, 862080, Note_on_c, 0, 45, 100
1, 862560, Note_on_c, 0, 45, 0
1, 862560, Note_on_c, 0, 43, 100
1, 863040, Note_on_c, 0, 43, 0
1, 863040, Note_on_c, 0, 41, 100
1, 863520, Note_on_c, 0, 41, 0
1, 863520, Note_on_c, 0, 40, 100
1, 864000, Note_on_c, 0, 40, 0
1, 864000, Note_on_c, 0, 41, 100
1, 864480, Note_on_c, 0, 41, 0
1, 864480, Note_on_c, 0, 43, 100
1, 864960, Note_on_c, 0, 43, 0
1, 864960, Note_on_c, 0, 45, 100
1, 865440, Note_on_c, 0, 45, 0
1, 865440, Note_on_c, 0, 41, 100
1, 865920, Note_on_c, 0, 41, 0
1, 865920, Note_on_c, 0, 38, 100
1, 866400, Note_on_c, 0, 38, 0
1, 866400, Note_on_c, 0, 41, 100
1, 866880, Note_on_c, 0, 41, 0
1, 866880, Note_on_c, 0, 45, 100
1, 867360, Note_on_c, 0, 45, 0
1, 867360, Note_on_c, 0, 50, 100
1, 867840, Note_on_c, 0, 50, 0
1, 867840, Note_on_c, 0, 52, 100
1, 868320, Note_on_c, 0, 52, 0
1, 868320, Note_on_c, 0, 53, 100
1, 868800, Note_on_c, 0, 53, 0
1, 868800, Note_on_c, 0, 44, 100
1, 869280, Note_on_c, 0, 44, 0
1, 869280, Note_on_c, 0, 53, 100
1, 869760, Note_on_c, 0, 53, 0
1, 869760, Note_on_c, 0, 52, 100
1, 870240, Note_on_c, 0, 52, 0
1, 870240, Note_on_c, 0, 50, 100
1, 870720, Note_on_c, 0, 50, 0
1, 870720, Note_on_c, 0, 48, 100
1, 871200, Note_on_c, 0, 48, 0
1, 871200, Note_on_c, 0, 47, 100
1, 871680, Note_on_c, 0, 47, 0
1, 871680, Note_on_c, 0, 45, 100
1, 872160, Note_on_c, 0, 45, 0
1, 872160, Note_on_c, 0, 48, 100
1, 872640, Note_on_c, 0, 48, 0
1, 872640, Note_on_c, 0, 53, 100
1, 873120, Note_on_c, 0, 53, 0
1, 873120, Note_on_c, 0, 57, 100
1, 873600, Note_on_c, 0, 57, 0
1, 873600, Note_on_c, 0, 53, 100
1, 874080, Note_on_c, 0, 53, 0
1, 874080, Note_on_c, 0, 50, 100
1, 874560, Note_on_c, 0, 50, 0
1, 874560, Note_on_c, 0, 47, 100
1, 875040, Note_on_c, 0, 47, 0
1, 875040, Note_on_c, 0, 57, 100
1, 875520, Note_on_c, 0, 57, 0
1, 875520, Note_on_c, 0, 55, 100
1, 876000, Note_on_c, 0, 55, 0
1, 876000, Note_on_c, 0, 53, 100
1, 876480, Note_on_c, 0, 53, 0
1, 876480, Note_on_c, 0, 52, 100
1, 876960, Note_on_c, 0, 52, 0
1, 876960, Note_on_c, 0, 50, 100
1, 877440, Note_on_c, 0, 50, 0
1, 877440, Note_on_c, 0, 48, 100
1, 877920, Note_on_c, 0, 48, 0
1, 877920, Note_on_c, 0, 52, 100
1, 878400, Note_on_c, 0, 52, 0
1, 878400, Note_on_c, 0, 57, 100
1, 878880, Note_on_c, 0, 57, 0
1, 878880, Note_on_c, 0, 60, 100
1, 879360, Note_on_c, 0, 60, 0
1, 879360, Note_on_c, 0, 57, 100
1, 879840, Note_on_c, 0, 57, 0
1, 879840, Note_on_c, 0, 53, 100
1, 880320, Note_on_c, 0, 53, 0
1, 880320, Note_on_c, 0, 50, 100
1, 880800, Note_on_c, 0, 50, 0
1, 880800, Note_on_c, 0, 60, 100
1, 881280, Note_on_c, 0, 60, 0
1, 881280, Note_on_c, 0, 59, 100
1, 881760, Note_on_c, 0, 59, 0
1, 881760, Note_on_c, 0, 57, 100
1, 882240, Note_on_c, 0, 57, 0
1, 882240, Note_on_c, 0, 55, 100
1, 882720, Note_on_c, 0, 55, 0
1, 882720, Note_on_c, 0, 53, 100
1, 883200, Note_on_c, 0, 53, 0
1, 883200, Note_on_c, 0, 52, 100
1, 883680, Note_on_c, 0, 52, 0
1, 883680, Note_on_c, 0, 55, 100
1, 884160, Note_on_c, 0, 55, 0
1, 884160, Note_on_c, 0, 60, 100
1, 884640, Note_on_c, 0, 60, 0
1, 884640, Note_on_c, 0, 64, 100
1, 885120, Note_on_c, 0, 64, 0
1, 885120, Note_on_c, 0, 60, 100
1, 885600, Note_on_c, 0, 60, 0
1, 885600, Note_on_c, 0, 57, 100
1, 886080, Note_on_c, 0, 57, 0
1, 886080, Note_on_c, 0, 53, 100
1, 886560, Note_on_c, 0, 53, 0
1, 886560, Note_on_c, 0, 64, 100
1, 887040, Note_on_c, 0, 64, 0
1, 887040, Note_on_c, 0, 62, 100
1, 887520, Note_on_c, 0, 62, 0
1, 887520, Note_on_c, 0, 60, 100
1, 888000, Note_on_c, 0, 60, 0
1, 888000, Note_on_c, 0, 59, 100
1, 888480, Note_on_c, 0, 59, 0
1, 888480, Note_on_c, 0, 57, 100
1, 888960, Note_on_c, 0, 57, 0
1, 888960, Note_on_c, 0, 59, 100
1, 889440, Note_on_c, 0, 59, 0
1, 889440, Note_on_c, 0, 62, 100
1, 889920, Note_on_c, 0, 62, 0
1, 889920, Note_on_c, 0, 59, 100
1, 890400, Note_on_c, 0, 59, 0
1, 890400, Note_on_c, 0, 55, 100
1, 890880, Note_on_c, 0, 55, 0
1, 890880, Note_on_c, 0, 50, 100
1, 891360, Note_on_c, 0, 50, 0
1, 891360, Note_on_c, 0, 47, 100
1, 891840, Note_on_c, 0, 47, 0
1, 891840, Note_on_c, 0, 43, 100
1, 892320, Note_on_c, 0, 43, 0
1, 892320, Note_on_c, 0, 53, 100
1, 892800, Note_on_c, 0, 53, 0
1, 892800, Note_on_c, 0, 50, 100
1, 893280, Note_on_c, 0, 50, 0
1, 893280, Note_on_c, 0, 53, 100
1, 893760, Note_on_c, 0, 53, 0
1, 893760, Note_on_c, 0, 47, 100
1, 894240, Note_on_c, 0, 47, 0
1, 894240, Note_on_c, 0, 53, 100
1, 894720, Note_on_c, 0, 53, 0
1, 894720, Note_on_c, 0, 43, 100
1, 895200, Note_on_c, 0, 43, 0
1, 895200, Note_on_c, 0, 53, 100
1, 895680, Note_on_c, 0, 53, 0
1, 895680, Note_on_c, 0, 50, 100
1, 896160, Note_on_c, 0, 50, 0
1, 896160, Note_on_c, 0, 53, 100
1, 896640, Note_on_c, 0, 53, 0
1, 896640, Note_on_c, 0, 47, 100
1, 897120, Note_on_c, 0, 47, 0
1, 897120, Note_on_c, 0, 53, 100
1, 897600, Note_on_c, 0, 53, 0
1, 897600, Note_on_c, 0, 43, 100
1, 898080, Note_on_c, 0, 43, 0
1, 898080, Note_on_c, 0, 51, 100
1, 898560, Note_on_c, 0, 51, 0
1, 898560, Note_on_c, 0, 48, 100
1, 899040, Note_on_c, 0, 48, 0
1, 899040, Note_on_c, 0, 51, 100
1, 899520, Note_on_c, 0, 51, 0
1, 899520, Note_on_c, 0, 47, 100
1, 900000, Note_on_c, 0, 47, 0
1, 900000, Note_on_c, 0, 51, 100
1, 900480, Note_on_c, 0, 51, 0
1, 900480, Note_on_c, 0, 43, 100
1, 900960, Note_on_c, 0, 43, 0
1, 900960, Note_on_c, 0, 51, 100
1, 901440, Note_on_c, 0, 51, 0
1, 901440, Note_on_c, 0, 48, 100
1, 901920, Note_on_c, 0, 48, 0
1, 901920, Note_on_c, 0, 51, 100
1, 902400, Note_on_c, 0, 51, 0
1, 902400, Note_on_c, 0, 47, 100
1, 902880, Note_on_c, 0, 47, 0
1, 902880, Note_on_c, 0, 51, 100
1, 903360, Note_on_c, 0, 51, 0
1, 903360, Note_on_c, 0, 44, 100
1, 903840, Note_on_c, 0, 44, 0
1, 903840, Note_on_c, 0, 50, 100
1, 904320, Note_on_c, 0, 50, 0
1, 904320, Note_on_c, 0, 48, 100
1, 904800, Note_on_c, 0, 48, 0
1, 904800, Note_on_c, 0, 50, 100
1, 905280, Note_on_c, 0, 50, 0
1, 905280, Note_on_c, 0, 47, 100
1, 905760, Note_on_c, 0, 47, 0
1, 905760, Note_on_c, 0, 50, 100
1, 906240, Note_on_c, 0, 50, 0
1, 906240, Note_on_c, 0, 44, 100
1, 906720, Note_on_c, 0, 44, 0
1, 906720, Note_on_c, 0, 50, 100
1, 907200, Note_on_c, 0, 50, 0
1, 907200, Note_on_c, 0, 48, 100
1, 907680, Note_on_c, 0, 48, 0
1, 907680, Note_on_c, 0, 50, 100
1, 908160, Note_on_c, 0, 50, 0
1, 908160, Note_on_c, 0, 47, 100
1, 908640, Note_on_c, 0, 47, 0
1, 908640, Note_on_c, 0, 50, 100
1, 909120, Note_on_c, 0, 50, 0
1, 909120, Note_on_c, 0, 53, 100
1, 909600, Note_on_c, 0, 53, 0
1, 909600, Note_on_c, 0, 43, 100
1, 910080, Note_on_c, 0, 43, 0
1, 910080, Note_on_c, 0, 47, 100
1, 910560, Note_on_c, 0, 47, 0
1, 910560, Note_on_c, 0, 50, 100
1, 911040, Note_on_c, 0, 50, 0
1, 911040, Note_on_c, 0, 53, 100
1, 911520, Note_on_c, 0, 53, 0
1, 911520, Note_on_c, 0, 59, 100
1, 912000, Note_on_c, 0, 59, 0
1, 912000, Note_on_c, 0, 62, 100
1, 913440, Note_on_c, 0, 62, 0
1, 913440, Note_on_c, 0, 60, 100
1, 913920, Note_on_c, 0, 60, 0
1, 913920, Note_on_c, 0, 59, 100
1, 914400, Note_on_c, 0, 59, 0
1, 914400, Note_on_c, 0, 57, 100
1, 914880, Note_on_c, 0, 57, 0
1, 914880, Note_on_c, 0, 55, 100
1, 915360, Note_on_c, 0, 55, 0
1, 915360, Note_on_c, 0, 53, 100
1, 915840, Note_on_c, 0, 53, 0
1, 915840, Note_on_c, 0, 52, 100
1, 916320, Note_on_c, 0, 52, 0
1, 916320, Note_on_c, 0, 55, 100
1, 916800, Note_on_c, 0, 55, 0
1, 916800, Note_on_c, 0, 53, 100
1, 917280, Note_on_c, 0, 53, 0
1, 917280, Note_on_c, 0, 50, 100
1, 917760, Note_on_c, 0, 50, 0
1, 917760, Note_on_c, 0, 52, 100
1, 918240, Note_on_c, 0, 52, 0
1, 918240, Note_on_c, 0, 50, 100
1, 918720, Note_on_c, 0, 50, 0
1, 918720, Note_on_c, 0, 48, 100
1, 919200, Note_on_c, 0, 48, 0
1, 919200, Note_on_c, 0, 52, 100
1, 919680, Note_on_c, 0, 52, 0
1, 919680, Note_on_c, 0, 50, 100
1, 920160, Note_on_c, 0, 50, 0
1, 920160, Note_on_c, 0, 47, 100
1, 920640, Note_on_c, 0, 47, 0
1, 920640, Note_on_c, 0, 48, 100
1, 921120, Note_on_c, 0, 48, 0
1, 921120, Note_on_c, 0, 55, 100
1, 921600, Note_on_c, 0, 55, 0
1, 921600, Note_on_c, 0, 57, 100
1, 922080, Note_on_c, 0, 57, 0
1, 922080, Note_on_c, 0, 53, 100
1, 922560, Note_on_c, 0, 53, 0
1, 922560, Note_on_c, 0, 50, 100
1, 923040, Note_on_c, 0, 50, 0
1, 923040, Note_on_c, 0, 59, 100
1, 923520, Note_on_c, 0, 59, 0
1, 923520, Note_on_c, 0, 60, 100
1, 924469, Title_t, "Solo Cello"
1, 924469, Program_c, 0, 42
1, 924469, Control_c, 0, 7, 100
1, 924469, Control_c, 0, 10, 59
1, 924469, Note_off_c, 0, 60, 0
1, 924469, Note_on_c, 0, 60, 100
1, 925440, Note_on_c, 0, 60, 0
1, 925440, Note_on_c, 0, 60, 100
1, 926160, Note_on_c, 0, 60, 0
1, 926160, Note_on_c, 0, 57, 100
1, 926400, Note_on_c, 0, 57, 0
1, 926400, Note_on_c, 0, 59, 100
1, 927360, Note_on_c, 0, 59, 0
1, 927360, Note_on_c, 0, 58, 100
1, 928320, Note_on_c, 0, 58, 0
1, 928320, Note_on_c, 0, 58, 100
1, 929040, Note_on_c, 0, 58, 0
1, 929040, Note_on_c, 0, 55, 100
1, 929280, Note_on_c, 0, 55, 0
1, 929280, Note_on_c, 0, 57, 100
1, 930240, Note_on_c, 0, 57, 0
1, 930240, Note_on_c, 0, 50, 100
1, 930720, Note_on_c, 0, 50, 0
1, 930720, Note_on_c, 0, 52, 100
1, 930960, Note_on_c, 0, 52, 0
1, 930960, Note_on_c, 0, 53, 100
1, 931200, Note_on_c, 0, 53, 0
1, 931200, Note_on_c, 0, 53, 100
1, 931920, Note_on_c, 0, 53, 0
1, 931920, Note_on_c, 0, 50, 100
1, 932160, Note_on_c, 0, 50, 0
1, 932160, Note_on_c, 0, 52, 100
1, 932640, Note_on_c, 0, 52, 0
1, 932640, Note_on_c, 0, 53, 100
1, 933120, Note_on_c, 0, 53, 0
1, 933120, Note_on_c, 0, 48, 100
1, 933360, Note_on_c, 0, 48, 0
1, 933360, Note_on_c, 0, 47, 100
1, 933600, Note_on_c, 0, 47, 0
1, 933600, Note_on_c, 0, 48, 100
1, 933840, Note_on_c, 0, 48, 0
1, 933840, Note_on_c, 0, 45, 100
1, 934080, Note_on_c, 0, 45, 0
1, 934080, Note_on_c, 0, 47, 100
1, 934560, Note_on_c, 0, 47, 0
1, 934560, Note_on_c, 0, 50, 100
1, 935040, Note_on_c, 0, 50, 0
1, 935040, Note_on_c, 0, 43, 100
1, 935520, Note_on_c, 0, 43, 0
1, 935520, Note_on_c, 0, 41, 100
1, 936000, Note_on_c, 0, 41, 0
1, 936000, Note_on_c, 0, 40, 100
1, 936960, Note_on_c, 0, 40, 0
1, 936960, Note_on_c, 0, 45, 100
1, 937920, Note_on_c, 0, 45, 0
1, 938880, Note_on_c, 0, 38, 100
1, 939840, Note_on_c, 0, 38, 0
1, 939840, Note_on_c, 0, 43, 100
1, 940800, Note_on_c, 0, 43, 0
1, 941760, Note_on_c, 0, 49, 100
1, 942240, Note_on_c, 0, 49, 0
1, 942720, Note_on_c, 0, 50, 100
1, 943200, Note_on_c, 0, 50, 0
1, 945600, Note_on_c, 0, 55, 100
1, 947520, Note_on_c, 0, 55, 0
1, 947520, Note_on_c, 0, 60, 100
1, 948480, Note_on_c, 0, 60, 0
1, 948480, Note_on_c, 0, 60, 100
1, 949200, Note_on_c, 0, 60, 0
1, 949200, Note_on_c, 0, 57, 100
1, 949440, Note_on_c, 0, 57, 0
1, 949440, Note_on_c, 0, 59, 100
1, 950400, Note_on_c, 0, 59, 0
1, 950400, Note_on_c, 0, 58, 100
1, 951360, Note_on_c, 0, 58, 0
1, 951360, Note_on_c, 0, 58, 100
1, 952080, Note_on_c, 0, 58, 0
1, 952080, Note_on_c, 0, 55, 100
1, 952320, Note_on_c, 0, 55, 0
1, 952320, Note_on_c, 0, 57, 100
1, 953280, Note_on_c, 0, 57, 0
1, 953280, Note_on_c, 0, 50, 100
1, 953760, Note_on_c, 0, 50, 0
1, 953760, Note_on_c, 0, 52, 100
1, 954000, Note_on_c, 0, 52, 0
1, 954000, Note_on_c, 0, 53, 100
1, 954240, Note_on_c, 0, 53, 0
1, 954240, Note_on_c, 0, 53, 100
1, 954960, Note_on_c, 0, 53, 0
1, 954960, Note_on_c, 0, 50, 100
1, 955200, Note_on_c, 0, 50, 0
1, 955200, Note_on_c, 0, 52, 100
1, 955680, Note_on_c, 0, 52, 0
1, 955680, Note_on_c, 0, 53, 100
1, 956160, Note_on_c, 0, 53, 0
1, 956160, Note_on_c, 0, 48, 100
1, 956400, Note_on_c, 0, 48, 0
1, 956400, Note_on_c, 0, 47, 100
1, 956640, Note_on_c, 0, 47, 0
1, 956640, Note_on_c, 0, 48, 100
1, 956880, Note_on_c, 0, 48, 0
1, 956880, Note_on_c, 0, 45, 100
1, 957120, Note_on_c, 0, 45, 0
1, 957120, Note_on_c, 0, 47, 100
1, 957600, Note_on_c, 0, 47, 0
1, 957600, Note_on_c, 0, 50, 100
1, 958080, Note_on_c, 0, 50, 0
1, 958080, Note_on_c, 0, 43, 100
1, 958560, Note_on_c, 0, 43, 0
1, 958560, Note_on_c, 0, 41, 100
1, 959040, Note_on_c, 0, 41, 0
1, 959040, Note_on_c, 0, 40, 100
1, 960000, Note_on_c, 0, 40, 0
1, 960000, Note_on_c, 0, 45, 100
1, 960960, Note_on_c, 0, 45, 0
1, 961920, Note_on_c, 0, 38, 100
1, 962880, Note_on_c, 0, 38, 0
1, 962880, Note_on_c, 0, 43, 100
1, 963840, Note_on_c, 0, 43, 0
1, 964800, Note_on_c, 0, 49, 100
1, 965280, Note_on_c, 0, 49, 0
1, 965760, Note_on_c, 0, 50, 100
1, 966240, Note_on_c, 0, 50, 0
1, 968640, Note_on_c, 0, 55, 100
1, 970560, Note_on_c, 0, 55, 0
1, 970560, Note_on_c, 0, 59, 100
1, 971520, Note_on_c, 0, 59, 0
1, 971520, Note_on_c, 0, 59, 100
1, 972480, Note_on_c, 0, 59, 0
1, 973440, Note_on_c, 0, 59, 100
1, 974400, Note_on_c, 0, 59, 0
1, 974400, Note_on_c, 0, 59, 100
1, 975360, Note_on_c, 0, 59, 0
1, 991680, Note_on_c, 0, 53, 100
1, 993600, Note_on_c, 0, 53, 0
1, 993600, Note_on_c, 0, 54, 100
1, 994320, Note_on_c, 0, 54, 0
1, 994320, Note_on_c, 0, 55, 100
1, 994440, Note_on_c, 0, 55, 0
1, 994440, Note_on_c, 0, 57, 100
1, 994560, Note_on_c, 0, 57, 0
1, 994560, Note_on_c, 0, 55, 100
1, 994800, Note_on_c, 0, 55, 0
1, 994800, Note_on_c, 0, 54, 100
1, 995040, Note_on_c, 0, 54, 0
1, 995040, Note_on_c, 0, 52, 100
1, 995280, Note_on_c, 0, 52, 0
1, 995280, Note_on_c, 0, 54, 100
1, 995520, Note_on_c, 0, 54, 0
1, 995520, Note_on_c, 0, 55, 100
1, 995760, Note_on_c, 0, 55, 0
1, 995760, Note_on_c, 0, 52, 100
1, 996000, Note_on_c, 0, 52, 0
1, 996000, Note_on_c, 0, 54, 100
1, 996240, Note_on_c, 0, 54, 0
1, 996240, Note_on_c, 0, 57, 100
1, 996480, Note_on_c, 0, 57, 0
1, 996480, Note_on_c, 0, 60, 100
1, 997200, Note_on_c, 0, 60, 0
1, 997200, Note_on_c, 0, 62, 100
1, 997320, Note_on_c, 0, 62, 0
1, 997320, Note_on_c, 0, 64, 100
1, 997440, Note_on_c, 0, 64, 0
1, 997440, Note_on_c, 0, 62, 100
1, 997680, Note_on_c, 0, 62, 0
1, 997680, Note_on_c, 0, 60, 100
1, 997920, Note_on_c, 0, 60, 0
1, 997920, Note_on_c, 0, 59, 100
1, 998160, Note_on_c, 0, 59, 0
1, 998160, Note_on_c, 0, 60, 100
1, 998400, Note_on_c, 0, 60, 0
1, 998400, Note_on_c, 0, 62, 100
1, 998640, Note_on_c, 0, 62, 0
1, 998640, Note_on_c, 0, 59, 100
1, 998880, Note_on_c, 0, 59, 0
1, 998880, Note_on_c, 0, 60, 100
1, 999120, Note_on_c, 0, 60, 0
1, 999120, Note_on_c, 0, 64, 100
1, 999360, Note_on_c, 0, 64, 0
1, 999360, Note_on_c, 0, 62, 100
1, 999840, Note_on_c, 0, 62, 0
1, 999840, Note_on_c, 0, 47, 100
1, 1000320, Note_on_c, 0, 47, 0
1, 1000320, Note_on_c, 0, 48, 100
1, 1000800, Note_on_c, 0, 48, 0
1, 1000800, Note_on_c, 0, 57, 100
1, 1001280, Note_on_c, 0, 57, 0
1, 1001280, Note_on_c, 0, 59, 100
1, 1001760, Note_on_c, 0, 59, 0
1, 1001760, Note_on_c, 0, 60, 100
1, 1002240, Note_on_c, 0, 60, 0
1, 1002240, Note_on_c, 0, 60, 100
1, 1002720, Note_on_c, 0, 60, 0
1, 1002720, Note_on_c, 0, 59, 100
1, 1003200, Note_on_c, 0, 59, 0
1, 1003200, Note_on_c, 0, 57, 100
1, 1003680, Note_on_c, 0, 57, 0
1, 1003680, Note_on_c, 0, 59, 100
1, 1004160, Note_on_c, 0, 59, 0
1, 1004160, Note_on_c, 0, 55, 100
1, 1004640, Note_on_c, 0, 55, 0
1, 1004640, Note_on_c, 0, 45, 100
1, 1005120, Note_on_c, 0, 45, 0
1, 1005120, Note_on_c, 0, 46, 100
1, 1005600, Note_on_c, 0, 46, 0
1, 1005600, Note_on_c, 0, 52, 100
1, 1005840, Note_on_c, 0, 52, 0
1, 1005840, Note_on_c, 0, 53, 100
1, 1006080, Note_on_c, 0, 53, 0
1, 1006080, Note_on_c, 0, 55, 100
1, 1006320, Note_on_c, 0, 55, 0
1, 1006320, Note_on_c, 0, 53, 100
1, 1006560, Note_on_c, 0, 53, 0
1, 1006560, Note_on_c, 0, 52, 100
1, 1006800, Note_on_c, 0, 52, 0
1, 1006800, Note_on_c, 0, 55, 100
1, 1007040, Note_on_c, 0, 55, 0
1, 1007040, Note_on_c, 0, 53, 100
1, 1007520, Note_on_c, 0, 53, 0
1, 1007520, Note_on_c, 0, 47, 100
1, 1008000, Note_on_c, 0, 47, 0
1, 1008000, Note_on_c, 0, 48, 100
1, 1008480, Note_on_c, 0, 48, 0
1, 1008480, Note_on_c, 0, 54, 100
1, 1008720, Note_on_c, 0, 54, 0
1, 1008720, Note_on_c, 0, 55, 100
1, 1008960, Note_on_c, 0, 55, 0
1, 1008960, Note_on_c, 0, 57, 100
1, 1009200, Note_on_c, 0, 57, 0
1, 1009200, Note_on_c, 0, 55, 100
1, 1009440, Note_on_c, 0, 55, 0
1, 1009440, Note_on_c, 0, 54, 100
1, 1009680, Note_on_c, 0, 54, 0
1, 1009680, Note_on_c, 0, 57, 100
1, 1009920, Note_on_c, 0, 57, 0
1, 1009920, Note_on_c, 0, 55, 100
1, 1010160, Note_on_c, 0, 55, 0
1, 1010160, Note_on_c, 0, 62, 100
1, 1010400, Note_on_c, 0, 62, 0
1, 1010400, Note_on_c, 0, 55, 100
1, 1010640, Note_on_c, 0, 55, 0
1, 1010640, Note_on_c, 0, 53, 100
1, 1010880, Note_on_c, 0, 53, 0
1, 1010880, Note_on_c, 0, 52, 100
1, 1011360, Note_on_c, 0, 52, 0
1, 1011360, Note_on_c, 0, 48, 100
1, 1011840, Note_on_c, 0, 48, 0
1, 1011840, Note_on_c, 0, 41, 100
1, 1012320, Note_on_c, 0, 41, 0
1, 1012320, Note_on_c, 0, 50, 100
1, 1012800, Note_on_c, 0, 50, 0
1, 1012800, Note_on_c, 0, 43, 100
1, 1013280, Note_on_c, 0, 43, 0
1, 1013280, Note_on_c, 0, 48, 100
1, 1013520, Note_on_c, 0, 48, 0
1, 1013520, Note_on_c, 0, 47, 100
1, 1013760, Note_on_c, 0, 47, 0
1, 1013760, Note_on_c, 0, 48, 100
1, 1014720, Note_on_c, 0, 48, 0
1, 1014720, Note_on_c, 0, 36, 100
1, 1016640, Note_on_c, 0, 36, 0
1, 1016640, Note_on_c, 0, 59, 100
1, 1017600, Note_on_c, 0, 59, 0
1, 1017600, Note_on_c, 0, 59, 100
1, 1018560, Note_on_c, 0, 59, 0
1, 1019520, Note_on_c, 0, 59, 100
1, 1020480, Note_on_c, 0, 59, 0
1, 1020480, Note_on_c, 0, 59, 100
1, 1021440, Note_on_c, 0, 59, 0
1, 1037760, Note_on_c, 0, 53, 100
1, 1039680, Note_on_c, 0, 53, 0
1, 1039680, Note_on_c, 0, 54, 100
1, 1040400, Note_on_c, 0, 54, 0
1, 1040400, Note_on_c, 0, 55, 100
1, 1040520, Note_on_c, 0, 55, 0
1, 1040520, Note_on_c, 0, 57, 100
1, 1040640, Note_on_c, 0, 57, 0
1, 1040640, Note_on_c, 0, 55, 100
1, 1040880, Note_on_c, 0, 55, 0
1, 1040880, Note_on_c, 0, 54, 100
1, 1041120, Note_on_c, 0, 54, 0
1, 1041120, Note_on_c, 0, 52, 100
1, 1041360, Note_on_c, 0, 52, 0
1, 1041360, Note_on_c, 0, 54, 100
1, 1041600, Note_on_c, 0, 54, 0
1, 1041600, Note_on_c, 0, 55, 100
1, 1041840, Note_on_c, 0, 55, 0
1, 1041840, Note_on_c, 0, 52, 100
1, 1042080, Note_on_c, 0, 52, 0
1, 1042080, Note_on_c, 0, 54, 100
1, 1042320, Note_on_c, 0, 54, 0
1, 1042320, Note_on_c, 0, 57, 100
1, 1042560, Note_on_c, 0, 57, 0
1, 1042560, Note_on_c, 0, 60, 100
1, 1043280, Note_on_c, 0, 60, 0
1, 1043280, Note_on_c, 0, 62, 100
1, 1043400, Note_on_c, 0, 62, 0
1, 1043400, Note_on_c, 0, 64, 100
1, 1043520, Note_on_c, 0, 64, 0
1, 1043520, Note_on_c, 0, 62, 100
1, 1043760, Note_on_c, 0, 62, 0
1, 1043760, Note_on_c, 0, 60, 100
1, 1044000, Note_on_c, 0, 60, 0
1, 1044000, Note_on_c, 0, 59, 100
1, 1044240, Note_on_c, 0, 59, 0
1, 1044240, Note_on_c, 0, 60, 100
1, 1044480, Note_on_c, 0, 60, 0
1, 1044480, Note_on_c, 0, 62, 100
1, 1044720, Note_on_c, 0, 62, 0
1, 1044720, Note_on_c, 0, 59, 100
1, 1044960, Note_on_c, 0, 59, 0
1, 1044960, Note_on_c, 0, 60, 100
1, 1045200, Note_on_c, 0, 60, 0
1, 1045200, Note_on_c, 0, 64, 100
1, 1045440, Note_on_c, 0, 64, 0
1, 1045440, Note_on_c, 0, 62, 100
1, 1045920, Note_on_c, 0, 62, 0
1, 1045920, Note_on_c, 0, 47, 100
1, 1046400, Note_on_c, 0, 47, 0
1, 1046400, Note_on_c, 0, 48, 100
1, 1046880, Note_on_c, 0, 48, 0
1, 1046880, Note_on_c, 0, 57, 100
1, 1047360, Note_on_c, 0, 57, 0
1, 1047360, Note_on_c, 0, 59, 100
1, 1047840, Note_on_c, 0, 59, 0
1, 1047840, Note_on_c, 0, 60, 100
1, 1048320, Note_on_c, 0, 60, 0
1, 1048320, Note_on_c, 0, 60, 100
1, 1048800, Note_on_c, 0, 60, 0
1, 1048800, Note_on_c, 0, 59, 100
1, 1049280, Note_on_c, 0, 59, 0
1, 1049280, Note_on_c, 0, 57, 100
1, 1049760, Note_on_c, 0, 57, 0
1, 1049760, Note_on_c, 0, 59, 100
1, 1050240, Note_on_c, 0, 59, 0
1, 1050240, Note_on_c, 0, 55, 100
1, 1050720, Note_on_c, 0, 55, 0
1, 1050720, Note_on_c, 0, 45, 100
1, 1051200, Note_on_c, 0, 45, 0
1, 1051200, Note_on_c, 0, 46, 100
1, 1051680, Note_on_c, 0, 46, 0
1, 1051680, Note_on_c, 0, 52, 100
1, 1051920, Note_on_c, 0, 52, 0
1, 1051920, Note_on_c, 0, 53, 100
1, 1052160, Note_on_c, 0, 53, 0
1, 1052160, Note_on_c, 0, 55, 100
1, 1052400, Note_on_c, 0, 55, 0
1, 1052400, Note_on_c, 0, 53, 100
1, 1052640, Note_on_c, 0, 53, 0
1, 1052640, Note_on_c, 0, 52, 100
1, 1052880, Note_on_c, 0, 52, 0
1, 1052880, Note_on_c, 0, 55, 100
1, 1053120, Note_on_c, 0, 55, 0
1, 1053120, Note_on_c, 0, 53, 100
1, 1053600, Note_on_c, 0, 53, 0
1, 1053600, Note_on_c, 0, 47, 100
1, 1054080, Note_on_c, 0, 47, 0
1, 1054080, Note_on_c, 0, 48, 100
1, 1054560, Note_on_c, 0, 48, 0
1, 1054560, Note_on_c, 0, 54, 100
1, 1054800, Note_on_c, 0, 54, 0
1, 1054800, Note_on_c, 0, 55, 100
1, 1055040, Note_on_c, 0, 55, 0
1, 1055040, Note_on_c, 0, 57, 100
1, 1055280, Note_on_c, 0, 57, 0
1, 1055280, Note_on_c, 0, 55, 100
1, 1055520, Note_on_c, 0, 55, 0
1, 1055520, Note_on_c, 0, 54, 100
1, 1055760, Note_on_c, 0, 54, 0
1, 1055760, Note_on_c, 0, 57, 100
1, 1056000, Note_on_c, 0, 57, 0
1, 1056000, Note_on_c, 0, 55, 100
1, 1056240, Note_on_c, 0, 55, 0
1, 1056240, Note_on_c, 0, 62, 100
1, 1056480, Note_on_c, 0, 62, 0
1, 1056480, Note_on_c, 0, 55, 100
1, 1056720, Note_on_c, 0, 55, 0
1, 1056720, Note_on_c, 0, 53, 100
1, 1056960, Note_on_c, 0, 53, 0
1, 1056960, Note_on_c, 0, 52, 100
1, 1057440, Note_on_c, 0, 52, 0
1, 1057440, Note_on_c, 0, 48, 100
1, 1057920, Note_on_c, 0, 48, 0
1, 1057920, Note_on_c, 0, 41, 100
1, 1058400, Note_on_c, 0, 41, 0
1, 1058400, Note_on_c, 0, 50, 100
1, 1058880, Note_on_c, 0, 50, 0
1, 1058880, Note_on_c, 0, 43, 100
1, 1059360, Note_on_c, 0, 43, 0
1, 1059360, Note_on_c, 0, 48, 100
1, 1059600, Note_on_c, 0, 48, 0
1, 1059600, Note_on_c, 0, 47, 100
1, 1059840, Note_on_c, 0, 47, 0
1, 1059840, Note_on_c, 0, 48, 100
1, 1060800, Note_on_c, 0, 48, 0
1, 1060800, Note_on_c, 0, 36, 100
1, 1062718, Note_on_c, 0, 36, 0
1, 1062720, Program_c, 0, 42
1, 1062720, Control_c, 0, 7, 100
1, 1062720, Control_c, 0, 10, 64
1, 1063680, Note_on_c, 0, 52, 100
1, 1064160, Note_on_c, 0, 52, 0
1, 1064160, Note_on_c, 0, 53, 100
1, 1064640, Note_on_c, 0, 53, 0
1, 1064640, Note_on_c, 0, 55, 100
1, 1065600, Note_on_c, 0, 55, 0
1, 1065600, Note_on_c, 0, 48, 100
1, 1066080, Note_on_c, 0, 48, 0
1, 1066080, Note_on_c, 0, 47, 100
1, 1066560, Note_on_c, 0, 47, 0
1, 1066560, Note_on_c, 0, 48, 100
1, 1067520, Note_on_c, 0, 48, 0
1, 1067520, Note_on_c, 0, 60, 100
1, 1068480, Pitch_bend_c, 0, 12288
1, 1068480, Note_on_c, 0, 60, 0
1, 1068480, Note_on_c, 0, 59, 100
1, 1068640, Pitch_bend_c, 0, 8192
1, 1068800, Pitch_bend_c, 0, 12288
1, 1068960, Pitch_bend_c, 0, 8192
1, 1069447, Note_on_c, 0, 59, 0
1, 1069447, Note_on_c, 0, 57, 100
1, 1069920, Note_on_c, 0, 57, 0
1, 1069920, Note_on_c, 0, 59, 100
1, 1070400, Note_on_c, 0, 59, 0
1, 1070400, Note_on_c, 0, 55, 100
1, 1071360, Note_on_c, 0, 55, 0
1, 1071360, Note_on_c, 0, 50, 100
1, 1071840, Note_on_c, 0, 50, 0
1, 1071840, Note_on_c, 0, 52, 100
1, 1072316, Note_on_c, 0, 52, 0
1, 1072316, Note_on_c, 0, 53, 100
1, 1073280, Note_on_c, 0, 53, 0
1, 1073280, Note_on_c, 0, 47, 100
1, 1073760, Note_on_c, 0, 47, 0
1, 1073760, Note_on_c, 0, 45, 100
1, 1074240, Note_on_c, 0, 45, 0
1, 1074240, Note_on_c, 0, 47, 100
1, 1075200, Note_on_c, 0, 47, 0
1, 1075200, Note_on_c, 0, 55, 100
1, 1076160, Note_on_c, 0, 55, 0
1, 1076160, Note_on_c, 0, 53, 100
1, 1076640, Note_on_c, 0, 53, 0
1, 1076640, Note_on_c, 0, 52, 100
1, 1077120, Note_on_c, 0, 52, 0
1, 1077120, Note_on_c, 0, 50, 100
1, 1077600, Note_on_c, 0, 50, 0
1, 1077600, Note_on_c, 0, 52, 100
1, 1078080, Note_on_c, 0, 52, 0
1, 1078080, Note_on_c, 0, 48, 100
1, 1079040, Note_on_c, 0, 48, 0
1, 1079040, Note_on_c, 0, 60, 100
1, 1079520, Note_on_c, 0, 60, 0
1, 1079520, Note_on_c, 0, 59, 100
1, 1080000, Note_on_c, 0, 59, 0
1, 1080000, Note_on_c, 0, 57, 100
1, 1080480, Note_on_c, 0, 57, 0
1, 1080480, Note_on_c, 0, 59, 100
1, 1080960, Note_on_c, 0, 59, 0
1, 1080960, Note_on_c, 0, 60, 100
1, 1081440, Note_on_c, 0, 60, 0
1, 1081440, Note_on_c, 0, 55, 100
1, 1081920, Note_on_c, 0, 55, 0
1, 1081920, Note_on_c, 0, 54, 100
1, 1082400, Note_on_c, 0, 54, 0
1, 1082400, Note_on_c, 0, 59, 100
1, 1082880, Note_on_c, 0, 59, 0
1, 1082880, Note_on_c, 0, 60, 100
1, 1083360, Note_on_c, 0, 60, 0
1, 1083360, Note_on_c, 0, 52, 100
1, 1083840, Note_on_c, 0, 52, 0
1, 1083840, Note_on_c, 0, 50, 100
1, 1084320, Note_on_c, 0, 50, 0
1, 1084320, Note_on_c, 0, 59, 100
1, 1084800, Note_on_c, 0, 59, 0
1, 1084800, Note_on_c, 0, 60, 100
1, 1085280, Note_on_c, 0, 60, 0
1, 1085280, Note_on_c, 0, 48, 100
1, 1085760, Note_on_c, 0, 48, 0
1, 1085760, Note_on_c, 0, 47, 100
1, 1086240, Note_on_c, 0, 47, 0
1, 1086240, Note_on_c, 0, 50, 100
1, 1086720, Note_on_c, 0, 50, 0
1, 1086720, Note_on_c, 0, 54, 100
1, 1087200, Note_on_c, 0, 54, 0
1, 1087200, Note_on_c, 0, 57, 100
1, 1087680, Note_on_c, 0, 57, 0
1, 1087680, Note_on_c, 0, 62, 100
1, 1088640, Note_on_c, 0, 62, 0
1, 1088640, Note_on_c, 0, 59, 100
1, 1089120, Note_on_c, 0, 59, 0
1, 1089120, Note_on_c, 0, 55, 100
1, 1089600, Note_on_c, 0, 55, 0
1, 1089600, Note_on_c, 0, 50, 100
1, 1090560, Note_on_c, 0, 50, 0
1, 1090560, Note_on_c, 0, 54, 100
1, 1091520, Note_on_c, 0, 54, 0
1, 1091520, Note_on_c, 0, 55, 100
1, 1092480, Note_on_c, 0, 55, 0
1, 1092480, Note_on_c, 0, 50, 100
1, 1093440, Note_on_c, 0, 50, 0
1, 1093440, Note_on_c, 0, 43, 100
1, 1094400, Note_on_c, 0, 43, 0
1, 1094400, Note_on_c, 0, 52, 100
1, 1094880, Note_on_c, 0, 52, 0
1, 1094880, Note_on_c, 0, 53, 100
1, 1095360, Note_on_c, 0, 53, 0
1, 1095360, Note_on_c, 0, 55, 100
1, 1096320, Note_on_c, 0, 55, 0
1, 1096320, Note_on_c, 0, 48, 100
1, 1096800, Note_on_c, 0, 48, 0
1, 1096800, Note_on_c, 0, 47, 100
1, 1097280, Note_on_c, 0, 47, 0
1, 1097280, Note_on_c, 0, 48, 100
1, 1098240, Note_on_c, 0, 48, 0
1, 1098240, Note_on_c, 0, 60, 100
1, 1099200, Pitch_bend_c, 0, 12288
1, 1099200, Note_on_c, 0, 60, 0
1, 1099200, Note_on_c, 0, 59, 100
1, 1099360, Pitch_bend_c, 0, 8192
1, 1099520, Pitch_bend_c, 0, 12288
1, 1099680, Pitch_bend_c, 0, 8192
1, 1100160, Note_on_c, 0, 59, 0
1, 1100160, Note_on_c, 0, 57, 100
1, 1100640, Note_on_c, 0, 57, 0
1, 1100640, Note_on_c, 0, 59, 100
1, 1101120, Note_on_c, 0, 59, 0
1, 1101120, Note_on_c, 0, 55, 100
1, 1102080, Note_on_c, 0, 55, 0
1, 1102080, Note_on_c, 0, 50, 100
1, 1102560, Note_on_c, 0, 50, 0
1, 1102560, Note_on_c, 0, 52, 100
1, 1103040, Note_on_c, 0, 52, 0
1, 1103040, Note_on_c, 0, 53, 100
1, 1104000, Note_on_c, 0, 53, 0
1, 1104000, Note_on_c, 0, 47, 100
1, 1104480, Note_on_c, 0, 47, 0
1, 1104480, Note_on_c, 0, 45, 100
1, 1104960, Note_on_c, 0, 45, 0
1, 1104960, Note_on_c, 0, 47, 100
1, 1105920, Note_on_c, 0, 47, 0
1, 1105920, Note_on_c, 0, 55, 100
1, 1106880, Note_on_c, 0, 55, 0
1, 1106880, Note_on_c, 0, 53, 100
1, 1107360, Note_on_c, 0, 53, 0
1, 1107360, Note_on_c, 0, 52, 100
1, 1107840, Note_on_c, 0, 52, 0
1, 1107840, Note_on_c, 0, 50, 100
1, 1108320, Note_on_c, 0, 50, 0
1, 1108320, Note_on_c, 0, 52, 100
1, 1108800, Note_on_c, 0, 52, 0
1, 1108800, Note_on_c, 0, 48, 100
1, 1109760, Note_on_c, 0, 48, 0
1, 1109760, Note_on_c, 0, 60, 100
1, 1110240, Note_on_c, 0, 60, 0
1, 1110240, Note_on_c, 0, 59, 100
1, 1110720, Note_on_c, 0, 59, 0
1, 1110720, Note_on_c, 0, 57, 100
1, 1111200, Note_on_c, 0, 57, 0
1, 1111200, Note_on_c, 0, 59, 100
1, 1111680, Note_on_c, 0, 59, 0
1, 1111680, Note_on_c, 0, 60, 100
1, 1112160, Note_on_c, 0, 60, 0
1, 1112160, Note_on_c, 0, 55, 100
1, 1112640, Note_on_c, 0, 55, 0
1, 1112640, Note_on_c, 0, 54, 100
1, 1113120, Note_on_c, 0, 54, 0
1, 1113120, Note_on_c, 0, 59, 100
1, 1113600, Note_on_c, 0, 59, 0
1, 1113600, Note_on_c, 0, 60, 100
1, 1114080, Note_on_c, 0, 60, 0
1, 1114080, Note_on_c, 0, 52, 100
1, 1114560, Note_on_c, 0, 52, 0
1, 1114560, Note_on_c, 0, 50, 100
1, 1115040, Note_on_c, 0, 50, 0
1, 1115040, Note_on_c, 0, 59, 100
1, 1115520, Note_on_c, 0, 59, 0
1, 1115520, Note_on_c, 0, 60, 100
1, 1116000, Note_on_c, 0, 60, 0
1, 1116000, Note_on_c, 0, 48, 100
1, 1116480, Note_on_c, 0, 48, 0
1, 1116480, Note_on_c, 0, 47, 100
1, 1116960, Note_on_c, 0, 47, 0
1, 1116960, Note_on_c, 0, 50, 100
1, 1117440, Note_on_c, 0, 50, 0
1, 1117440, Note_on_c, 0, 54, 100
1, 1117920, Note_on_c, 0, 54, 0
1, 1117920, Note_on_c, 0, 57, 100
1, 1118400, Note_on_c, 0, 57, 0
1, 1118400, Note_on_c, 0, 62, 100
1, 1119360, Note_on_c, 0, 62, 0
1, 1119360, Note_on_c, 0, 59, 100
1, 1119840, Note_on_c, 0, 59, 0
1, 1119840, Note_on_c, 0, 55, 100
1, 1120320, Note_on_c, 0, 55, 0
1, 1120320, Note_on_c, 0, 50, 100
1, 1121280, Note_on_c, 0, 50, 0
1, 1121280, Note_on_c, 0, 54, 100
1, 1122240, Note_on_c, 0, 54, 0
1, 1122240, Note_on_c, 0, 55, 100
1, 1123200, Note_on_c, 0, 55, 0
1, 1123200, Note_on_c, 0, 50, 100
1, 1124160, Note_on_c, 0, 50, 0
1, 1124160, Note_on_c, 0, 43, 100
1, 1125120, Note_on_c, 0, 43, 0
1, 1125120, Note_on_c, 0, 59, 100
1, 1125600, Note_on_c, 0, 59, 0
1, 1125600, Note_on_c, 0, 60, 100
1, 1126080, Note_on_c, 0, 60, 0
1, 1126080, Note_on_c, 0, 62, 100
1, 1127040, Note_on_c, 0, 62, 0
1, 1127040, Note_on_c, 0, 59, 100
1, 1127520, Note_on_c, 0, 59, 0
1, 1127520, Note_on_c, 0, 55, 100
1, 1128000, Note_on_c, 0, 55, 0
1, 1128000, Note_on_c, 0, 53, 100
1, 1128960, Note_on_c, 0, 53, 0
1, 1128960, Note_on_c, 0, 59, 100
1, 1129920, Note_on_c, 0, 59, 0
1, 1129920, Note_on_c, 0, 52, 100
1, 1130400, Note_on_c, 0, 52, 0
1, 1130400, Note_on_c, 0, 55, 100
1, 1130880, Note_on_c, 0, 55, 0
1, 1130880, Note_on_c, 0, 60, 100
1, 1131360, Note_on_c, 0, 60, 0
1, 1131360, Note_on_c, 0, 62, 100
1, 1131840, Note_on_c, 0, 62, 0
1, 1131840, Note_on_c, 0, 64, 100
1, 1132800, Note_on_c, 0, 64, 0
1, 1132800, Note_on_c, 0, 60, 100
1, 1133280, Note_on_c, 0, 60, 0
1, 1133280, Note_on_c, 0, 56, 100
1, 1133760, Note_on_c, 0, 56, 0
1, 1133760, Note_on_c, 0, 57, 100
1, 1134720, Note_on_c, 0, 57, 0
1, 1134720, Note_on_c, 0, 53, 100
1, 1135200, Note_on_c, 0, 53, 0
1, 1135200, Note_on_c, 0, 57, 100
1, 1135680, Note_on_c, 0, 57, 0
1, 1135680, Note_on_c, 0, 50, 100
1, 1136160, Note_on_c, 0, 50, 0
1, 1136160, Note_on_c, 0, 60, 100
1, 1136640, Note_on_c, 0, 60, 0
1, 1136640, Note_on_c, 0, 59, 100
1, 1137120, Note_on_c, 0, 59, 0
1, 1137120, Note_on_c, 0, 57, 100
1, 1137600, Note_on_c, 0, 57, 0
1, 1137600, Note_on_c, 0, 52, 100
1, 1138080, Note_on_c, 0, 52, 0
1, 1138080, Note_on_c, 0, 57, 100
1, 1138560, Note_on_c, 0, 57, 0
1, 1138560, Note_on_c, 0, 56, 100
1, 1139040, Note_on_c, 0, 56, 0
1, 1139040, Note_on_c, 0, 54, 100
1, 1139520, Note_on_c, 0, 54, 0
1, 1139520, Note_on_c, 0, 52, 100
1, 1140480, Note_on_c, 0, 52, 0
1, 1140480, Note_on_c, 0, 59, 100
1, 1140960, Note_on_c, 0, 59, 0
1, 1140960, Note_on_c, 0, 52, 100
1, 1141440, Note_on_c, 0, 52, 0
1, 1141440, Note_on_c, 0, 60, 100
1, 1141920, Note_on_c, 0, 60, 0
1, 1141920, Note_on_c, 0, 57, 100
1, 1142400, Note_on_c, 0, 57, 0
1, 1142400, Note_on_c, 0, 56, 100
1, 1142880, Note_on_c, 0, 56, 0
1, 1142880, Note_on_c, 0, 57, 100
1, 1143360, Note_on_c, 0, 57, 0
1, 1143360, Note_on_c, 0, 59, 100
1, 1143840, Note_on_c, 0, 59, 0
1, 1143840, Note_on_c, 0, 52, 100
1, 1144320, Note_on_c, 0, 52, 0
1, 1144320, Note_on_c, 0, 60, 100
1, 1144800, Note_on_c, 0, 60, 0
1, 1144800, Note_on_c, 0, 52, 100
1, 1145280, Note_on_c, 0, 52, 0
1, 1145280, Note_on_c, 0, 62, 100
1, 1145760, Note_on_c, 0, 62, 0
1, 1145760, Note_on_c, 0, 59, 100
1, 1146240, Note_on_c, 0, 59, 0
1, 1146240, Note_on_c, 0, 57, 100
1, 1146720, Note_on_c, 0, 57, 0
1, 1146720, Note_on_c, 0, 59, 100
1, 1147200, Note_on_c, 0, 59, 0
1, 1147200, Note_on_c, 0, 60, 100
1, 1147680, Note_on_c, 0, 60, 0
1, 1147680, Note_on_c, 0, 52, 100
1, 1148160, Note_on_c, 0, 52, 0
1, 1148160, Note_on_c, 0, 62, 100
1, 1148640, Note_on_c, 0, 62, 0
1, 1148640, Note_on_c, 0, 50, 100
1, 1149120, Note_on_c, 0, 50, 0
1, 1149120, Note_on_c, 0, 48, 100
1, 1149600, Note_on_c, 0, 48, 0
1, 1149600, Note_on_c, 0, 64, 100
1, 1150080, Note_on_c, 0, 64, 0
1, 1150080, Note_on_c, 0, 59, 100
1, 1150560, Note_on_c, 0, 59, 0
1, 1150560, Note_on_c, 0, 60, 100
1, 1151040, Note_on_c, 0, 60, 0
1, 1151040, Note_on_c, 0, 52, 100
1, 1152000, Note_on_c, 0, 52, 0
1, 1152000, Note_on_c, 0, 57, 100
1, 1152480, Note_on_c, 0, 57, 0
1, 1152480, Note_on_c, 0, 56, 100
1, 1152960, Note_on_c, 0, 56, 0
1, 1152960, Note_on_c, 0, 57, 100
1, 1153920, Note_on_c, 0, 57, 0
1, 1153920, Note_on_c, 0, 52, 100
1, 1154880, Note_on_c, 0, 52, 0
1, 1154880, Note_on_c, 0, 45, 100
1, 1155840, Note_on_c, 0, 45, 0
1, 1155840, Note_on_c, 0, 57, 100
1, 1156320, Note_on_c, 0, 57, 0
1, 1156320, Note_on_c, 0, 59, 100
1, 1156800, Note_on_c, 0, 59, 0
1, 1156800, Note_on_c, 0, 60, 100
1, 1157760, Note_on_c, 0, 60, 0
1, 1157760, Note_on_c, 0, 54, 100
1, 1158240, Note_on_c, 0, 54, 0
1, 1158240, Note_on_c, 0, 52, 100
1, 1158720, Note_on_c, 0, 52, 0
1, 1158720, Note_on_c, 0, 54, 100
1, 1159680, Note_on_c, 0, 54, 0
1, 1159680, Note_on_c, 0, 50, 100
1, 1160640, Note_on_c, 0, 50, 0
1, 1160640, Note_on_c, 0, 43, 100
1, 1161120, Note_on_c, 0, 43, 0
1, 1161120, Note_on_c, 0, 50, 100
1, 1161600, Note_on_c, 0, 50, 0
1, 1161600, Note_on_c, 0, 60, 100
1, 1162080, Note_on_c, 0, 60, 0
1, 1162080, Note_on_c, 0, 57, 100
1, 1162560, Note_on_c, 0, 57, 0
1, 1162560, Note_on_c, 0, 59, 100
1, 1163520, Note_on_c, 0, 59, 0
1, 1163520, Note_on_c, 0, 55, 100
1, 1164000, Note_on_c, 0, 55, 0
1, 1164000, Note_on_c, 0, 53, 100
1, 1164480, Note_on_c, 0, 53, 0
1, 1164480, Note_on_c, 0, 52, 100
1, 1164960, Note_on_c, 0, 52, 0
1, 1164960, Note_on_c, 0, 55, 100
1, 1165440, Note_on_c, 0, 55, 0
1, 1165440, Note_on_c, 0, 60, 100
1, 1165920, Note_on_c, 0, 60, 0
1, 1165920, Note_on_c, 0, 52, 100
1, 1166400, Note_on_c, 0, 52, 0
1, 1166400, Note_on_c, 0, 50, 100
1, 1166880, Note_on_c, 0, 50, 0
1, 1166880, Note_on_c, 0, 65, 100
1, 1167360, Note_on_c, 0, 65, 0
1, 1167360, Note_on_c, 0, 64, 100
1, 1167840, Note_on_c, 0, 64, 0
1, 1167840, Note_on_c, 0, 60, 100
1, 1168320, Note_on_c, 0, 60, 0
1, 1168320, Note_on_c, 0, 62, 100
1, 1168800, Note_on_c, 0, 62, 0
1, 1168800, Note_on_c, 0, 60, 100
1, 1169280, Note_on_c, 0, 60, 0
1, 1169280, Note_on_c, 0, 59, 100
1, 1169760, Note_on_c, 0, 59, 0
1, 1169760, Note_on_c, 0, 57, 100
1, 1170240, Note_on_c, 0, 57, 0
1, 1170240, Note_on_c, 0, 55, 100
1, 1171200, Note_on_c, 0, 55, 0
1, 1171200, Note_on_c, 0, 59, 100
1, 1171680, Note_on_c, 0, 59, 0
1, 1171680, Note_on_c, 0, 60, 100
1, 1172160, Note_on_c, 0, 60, 0
1, 1172160, Note_on_c, 0, 62, 100
1, 1172640, Note_on_c, 0, 62, 0
1, 1172640, Note_on_c, 0, 59, 100
1, 1173120, Note_on_c, 0, 59, 0
1, 1173120, Note_on_c, 0, 55, 100
1, 1173600, Note_on_c, 0, 55, 0
1, 1173600, Note_on_c, 0, 57, 100
1, 1174080, Note_on_c, 0, 57, 0
1, 1174080, Note_on_c, 0, 59, 100
1, 1174560, Note_on_c, 0, 59, 0
1, 1174560, Note_on_c, 0, 55, 100
1, 1175040, Note_on_c, 0, 55, 0
1, 1175040, Note_on_c, 0, 50, 100
1, 1175520, Note_on_c, 0, 50, 0
1, 1175520, Note_on_c, 0, 52, 100
1, 1176000, Note_on_c, 0, 52, 0
1, 1176000, Note_on_c, 0, 53, 100
1, 1176480, Note_on_c, 0, 53, 0
1, 1176480, Note_on_c, 0, 50, 100
1, 1176960, Note_on_c, 0, 50, 0
1, 1176960, Note_on_c, 0, 47, 100
1, 1177440, Note_on_c, 0, 47, 0
1, 1177440, Note_on_c, 0, 48, 100
1, 1177920, Note_on_c, 0, 48, 0
1, 1177920, Note_on_c, 0, 50, 100
1, 1178400, Note_on_c, 0, 50, 0
1, 1178400, Note_on_c, 0, 47, 100
1, 1178880, Note_on_c, 0, 47, 0
1, 1178880, Note_on_c, 0, 43, 100
1, 1179360, Note_on_c, 0, 43, 0
1, 1179360, Note_on_c, 0, 53, 100
1, 1179840, Note_on_c, 0, 53, 0
1, 1179840, Note_on_c, 0, 52, 100
1, 1180320, Note_on_c, 0, 52, 0
1, 1180320, Note_on_c, 0, 48, 100
1, 1180800, Note_on_c, 0, 48, 0
1, 1180800, Note_on_c, 0, 43, 100
1, 1181280, Note_on_c, 0, 43, 0
1, 1181280, Note_on_c, 0, 55, 100
1, 1181760, Note_on_c, 0, 55, 0
1, 1181760, Note_on_c, 0, 52, 100
1, 1182240, Note_on_c, 0, 52, 0
1, 1182240, Note_on_c, 0, 48, 100
1, 1182720, Note_on_c, 0, 48, 0
1, 1182720, Note_on_c, 0, 43, 100
1, 1183200, Note_on_c, 0, 43, 0
1, 1183200, Note_on_c, 0, 60, 100
1, 1183680, Note_on_c, 0, 60, 0
1, 1183680, Note_on_c, 0, 55, 100
1, 1184160, Note_on_c, 0, 55, 0
1, 1184160, Note_on_c, 0, 52, 100
1, 1184640, Note_on_c, 0, 52, 0
1, 1184640, Note_on_c, 0, 53, 100
1, 1185120, Note_on_c, 0, 53, 0
1, 1185120, Note_on_c, 0, 50, 100
1, 1185600, Note_on_c, 0, 50, 0
1, 1185600, Note_on_c, 0, 52, 100
1, 1186080, Note_on_c, 0, 52, 0
1, 1186080, Note_on_c, 0, 48, 100
1, 1186560, Note_on_c, 0, 48, 0
1, 1186560, Note_on_c, 0, 43, 100
1, 1187040, Note_on_c, 0, 43, 0
1, 1187040, Note_on_c, 0, 52, 100
1, 1187520, Note_on_c, 0, 52, 0
1, 1187520, Note_on_c, 0, 50, 100
1, 1188000, Note_on_c, 0, 50, 0
1, 1188000, Note_on_c, 0, 52, 100
1, 1188480, Note_on_c, 0, 52, 0
1, 1188480, Note_on_c, 0, 53, 100
1, 1188960, Note_on_c, 0, 53, 0
1, 1188960, Note_on_c, 0, 48, 100
1, 1189440, Note_on_c, 0, 48, 0
1, 1189440, Note_on_c, 0, 47, 100
1, 1189920, Note_on_c, 0, 47, 0
1, 1189920, Note_on_c, 0, 52, 100
1, 1190400, Note_on_c, 0, 52, 0
1, 1190400, Note_on_c, 0, 53, 100
1, 1190880, Note_on_c, 0, 53, 0
1, 1190880, Note_on_c, 0, 45, 100
1, 1191360, Note_on_c, 0, 45, 0
1, 1191360, Note_on_c, 0, 43, 100
1, 1191840, Note_on_c, 0, 43, 0
1, 1191840, Note_on_c, 0, 52, 100
1, 1192320, Note_on_c, 0, 52, 0
1, 1192320, Note_on_c, 0, 53, 100
1, 1192800, Note_on_c, 0, 53, 0
1, 1192800, Note_on_c, 0, 41, 100
1, 1193280, Note_on_c, 0, 41, 0
1, 1193280, Note_on_c, 0, 40, 100
1, 1193760, Note_on_c, 0, 40, 0
1, 1193760, Note_on_c, 0, 43, 100
1, 1194240, Note_on_c, 0, 43, 0
1, 1194240, Note_on_c, 0, 47, 100
1, 1194720, Note_on_c, 0, 47, 0
1, 1194720, Note_on_c, 0, 50, 100
1, 1195200, Note_on_c, 0, 50, 0
1, 1195200, Note_on_c, 0, 55, 100
1, 1196160, Note_on_c, 0, 55, 0
1, 1196160, Note_on_c, 0, 52, 100
1, 1196640, Note_on_c, 0, 52, 0
1, 1196640, Note_on_c, 0, 48, 100
1, 1197120, Note_on_c, 0, 48, 0
1, 1197120, Note_on_c, 0, 43, 100
1, 1198080, Note_on_c, 0, 43, 0
1, 1198080, Note_on_c, 0, 47, 100
1, 1199040, Note_on_c, 0, 47, 0
1, 1199040, Note_on_c, 0, 48, 100
1, 1201920, Note_on_c, 0, 48, 0
1, 1201920, Note_on_c, 0, 59, 100
1, 1202400, Note_on_c, 0, 59, 0
1, 1202400, Note_on_c, 0, 60, 100
1, 1202880, Note_on_c, 0, 60, 0
1, 1202880, Note_on_c, 0, 62, 100
1, 1203840, Note_on_c, 0, 62, 0
1, 1203840, Note_on_c, 0, 59, 100
1, 1204320, Note_on_c, 0, 59, 0
1, 1204320, Note_on_c, 0, 55, 100
1, 1204800, Note_on_c, 0, 55, 0
1, 1204800, Note_on_c, 0, 53, 100
1, 1205760, Note_on_c, 0, 53, 0
1, 1205760, Note_on_c, 0, 59, 100
1, 1206720, Note_on_c, 0, 59, 0
1, 1206720, Note_on_c, 0, 52, 100
1, 1207200, Note_on_c, 0, 52, 0
1, 1207200, Note_on_c, 0, 55, 100
1, 1207680, Note_on_c, 0, 55, 0
1, 1207680, Note_on_c, 0, 60, 100
1, 1208160, Note_on_c, 0, 60, 0
1, 1208160, Note_on_c, 0, 62, 100
1, 1208640, Note_on_c, 0, 62, 0
1, 1208640, Note_on_c, 0, 64, 100
1, 1209600, Note_on_c, 0, 64, 0
1, 1209600, Note_on_c, 0, 60, 100
1, 1210080, Note_on_c, 0, 60, 0
1, 1210080, Note_on_c, 0, 56, 100
1, 1210560, Note_on_c, 0, 56, 0
1, 1210560, Note_on_c, 0, 57, 100
1, 1211520, Note_on_c, 0, 57, 0
1, 1211520, Note_on_c, 0, 53, 100
1, 1212000, Note_on_c, 0, 53, 0
1, 1212000, Note_on_c, 0, 57, 100
1, 1212480, Note_on_c, 0, 57, 0
1, 1212480, Note_on_c, 0, 50, 100
1, 1212960, Note_on_c, 0, 50, 0
1, 1212960, Note_on_c, 0, 60, 100
1, 1213440, Note_on_c, 0, 60, 0
1, 1213440, Note_on_c, 0, 59, 100
1, 1213920, Note_on_c, 0, 59, 0
1, 1213920, Note_on_c, 0, 57, 100
1, 1214400, Note_on_c, 0, 57, 0
1, 1214400, Note_on_c, 0, 52, 100
1, 1214880, Note_on_c, 0, 52, 0
1, 1214880, Note_on_c, 0, 57, 100
1, 1215360, Note_on_c, 0, 57, 0
1, 1215360, Note_on_c, 0, 56, 100
1, 1215840, Note_on_c, 0, 56, 0
1, 1215840, Note_on_c, 0, 54, 100
1, 1216320, Note_on_c, 0, 54, 0
1, 1216320, Note_on_c, 0, 52, 100
1, 1217280, Note_on_c, 0, 52, 0
1, 1217280, Note_on_c, 0, 59, 100
1, 1217760, Note_on_c, 0, 59, 0
1, 1217760, Note_on_c, 0, 52, 100
1, 1218240, Note_on_c, 0, 52, 0
1, 1218240, Note_on_c, 0, 60, 100
1, 1218720, Note_on_c, 0, 60, 0
1, 1218720, Note_on_c, 0, 57, 100
1, 1219200, Note_on_c, 0, 57, 0
1, 1219200, Note_on_c, 0, 56, 100
1, 1219680, Note_on_c, 0, 56, 0
1, 1219680, Note_on_c, 0, 57, 100
1, 1220160, Note_on_c, 0, 57, 0
1, 1220160, Note_on_c, 0, 59, 100
1, 1220640, Note_on_c, 0, 59, 0
1, 1220640, Note_on_c, 0, 52, 100
1, 1221120, Note_on_c, 0, 52, 0
1, 1221120, Note_on_c, 0, 60, 100
1, 1221600, Note_on_c, 0, 60, 0
1, 1221600, Note_on_c, 0, 52, 100
1, 1222080, Note_on_c, 0, 52, 0
1, 1222080, Note_on_c, 0, 62, 100
1, 1222560, Note_on_c, 0, 62, 0
1, 1222560, Note_on_c, 0, 59, 100
1, 1223040, Note_on_c, 0, 59, 0
1, 1223040, Note_on_c, 0, 57, 100
1, 1223520, Note_on_c, 0, 57, 0
1, 1223520, Note_on_c, 0, 59, 100
1, 1224000, Note_on_c, 0, 59, 0
1, 1224000, Note_on_c, 0, 60, 100
1, 1224480, Note_on_c, 0, 60, 0
1, 1224480, Note_on_c, 0, 52, 100
1, 1224960, Note_on_c, 0, 52, 0
1, 1224960, Note_on_c, 0, 62, 100
1, 1225440, Note_on_c, 0, 62, 0
1, 1225440, Note_on_c, 0, 50, 100
1, 1225920, Note_on_c, 0, 50, 0
1, 1225920, Note_on_c, 0, 48, 100
1, 1226400, Note_on_c, 0, 48, 0
1, 1226400, Note_on_c, 0, 64, 100
1, 1226880, Note_on_c, 0, 64, 0
1, 1226880, Note_on_c, 0, 59, 100
1, 1227360, Note_on_c, 0, 59, 0
1, 1227360, Note_on_c, 0, 60, 100
1, 1227840, Note_on_c, 0, 60, 0
1, 1227840, Note_on_c, 0, 52, 100
1, 1228800, Note_on_c, 0, 52, 0
1, 1228800, Note_on_c, 0, 57, 100
1, 1229280, Note_on_c, 0, 57, 0
1, 1229280, Note_on_c, 0, 56, 100
1, 1229760, Note_on_c, 0, 56, 0
1, 1229760, Note_on_c, 0, 57, 100
1, 1230720, Note_on_c, 0, 57, 0
1, 1230720, Note_on_c, 0, 52, 100
1, 1231680, Note_on_c, 0, 52, 0
1, 1231680, Note_on_c, 0, 45, 100
1, 1232640, Note_on_c, 0, 45, 0
1, 1232640, Note_on_c, 0, 57, 100
1, 1233120, Note_on_c, 0, 57, 0
1, 1233120, Note_on_c, 0, 59, 100
1, 1233600, Note_on_c, 0, 59, 0
1, 1233600, Note_on_c, 0, 60, 100
1, 1234560, Note_on_c, 0, 60, 0
1, 1234560, Note_on_c, 0, 54, 100
1, 1235040, Note_on_c, 0, 54, 0
1, 1235040, Note_on_c, 0, 52, 100
1, 1235520, Note_on_c, 0, 52, 0
1, 1235520, Note_on_c, 0, 54, 100
1, 1236480, Note_on_c, 0, 54, 0
1, 1236480, Note_on_c, 0, 50, 100
1, 1237440, Note_on_c, 0, 50, 0
1, 1237440, Note_on_c, 0, 43, 100
1, 1237920, Note_on_c, 0, 43, 0
1, 1237920, Note_on_c, 0, 50, 100
1, 1238400, Note_on_c, 0, 50, 0
1, 1238400, Note_on_c, 0, 60, 100
1, 1238880, Note_on_c, 0, 60, 0
1, 1238880, Note_on_c, 0, 57, 100
1, 1239360, Note_on_c, 0, 57, 0
1, 1239360, Note_on_c, 0, 59, 100
1, 1240320, Note_on_c, 0, 59, 0
1, 1240320, Note_on_c, 0, 55, 100
1, 1240800, Note_on_c, 0, 55, 0
1, 1240800, Note_on_c, 0, 53, 100
1, 1241280, Note_on_c, 0, 53, 0
1, 1241280, Note_on_c, 0, 52, 100
1, 1241760, Note_on_c, 0, 52, 0
1, 1241760, Note_on_c, 0, 55, 100
1, 1242240, Note_on_c, 0, 55, 0
1, 1242240, Note_on_c, 0, 60, 100
1, 1242720, Note_on_c, 0, 60, 0
1, 1242720, Note_on_c, 0, 52, 100
1, 1243200, Note_on_c, 0, 52, 0
1, 1243200, Note_on_c, 0, 50, 100
1, 1243680, Note_on_c, 0, 50, 0
1, 1243680, Note_on_c, 0, 65, 100
1, 1244160, Note_on_c, 0, 65, 0
1, 1244160, Note_on_c, 0, 64, 100
1, 1244640, Note_on_c, 0, 64, 0
1, 1244640, Note_on_c, 0, 60, 100
1, 1245120, Note_on_c, 0, 60, 0
1, 1245120, Note_on_c, 0, 62, 100
1, 1245600, Note_on_c, 0, 62, 0
1, 1245600, Note_on_c, 0, 60, 100
1, 1246080, Note_on_c, 0, 60, 0
1, 1246080, Note_on_c, 0, 59, 100
1, 1246560, Note_on_c, 0, 59, 0
1, 1246560, Note_on_c, 0, 57, 100
1, 1247040, Note_on_c, 0, 57, 0
1, 1247040, Note_on_c, 0, 55, 100
1, 1248000, Note_on_c, 0, 55, 0
1, 1248000, Note_on_c, 0, 59, 100
1, 1248480, Note_on_c, 0, 59, 0
1, 1248480, Note_on_c, 0, 60, 100
1, 1248960, Note_on_c, 0, 60, 0
1, 1248960, Note_on_c, 0, 62, 100
1, 1249440, Note_on_c, 0, 62, 0
1, 1249440, Note_on_c, 0, 59, 100
1, 1249920, Note_on_c, 0, 59, 0
1, 1249920, Note_on_c, 0, 55, 100
1, 1250400, Note_on_c, 0, 55, 0
1, 1250400, Note_on_c, 0, 57, 100
1, 1250880, Note_on_c, 0, 57, 0
1, 1250880, Note_on_c, 0, 59, 100
1, 1251360, Note_on_c, 0, 59, 0
1, 1251360, Note_on_c, 0, 55, 100
1, 1251840, Note_on_c, 0, 55, 0
1, 1251840, Note_on_c, 0, 50, 100
1, 1252320, Note_on_c, 0, 50, 0
1, 1252320, Note_on_c, 0, 52, 100
1, 1252800, Note_on_c, 0, 52, 0
1, 1252800, Note_on_c, 0, 53, 100
1, 1253280, Note_on_c, 0, 53, 0
1, 1253280, Note_on_c, 0, 50, 100
1, 1253760, Note_on_c, 0, 50, 0
1, 1253760, Note_on_c, 0, 47, 100
1, 1254240, Note_on_c, 0, 47, 0
1, 1254240, Note_on_c, 0, 48, 100
1, 1254720, Note_on_c, 0, 48, 0
1, 1254720, Note_on_c, 0, 50, 100
1, 1255200, Note_on_c, 0, 50, 0
1, 1255200, Note_on_c, 0, 47, 100
1, 1255680, Note_on_c, 0, 47, 0
1, 1255680, Note_on_c, 0, 43, 100
1, 1256160, Note_on_c, 0, 43, 0
1, 1256160, Note_on_c, 0, 53, 100
1, 1256640, Note_on_c, 0, 53, 0
1, 1256640, Note_on_c, 0, 52, 100
1, 1257120, Note_on_c, 0, 52, 0
1, 1257120, Note_on_c, 0, 48, 100
1, 1257600, Note_on_c, 0, 48, 0
1, 1257600, Note_on_c, 0, 43, 100
1, 1258080, Note_on_c, 0, 43, 0
1, 1258080, Note_on_c, 0, 55, 100
1, 1258560, Note_on_c, 0, 55, 0
1, 1258560, Note_on_c, 0, 52, 100
1, 1259040, Note_on_c, 0, 52, 0
1, 1259040, Note_on_c, 0, 48, 100
1, 1259520, Note_on_c, 0, 48, 0
1, 1259520, Note_on_c, 0, 43, 100
1, 1260000, Note_on_c, 0, 43, 0
1, 1260000, Note_on_c, 0, 60, 100
1, 1260480, Note_on_c, 0, 60, 0
1, 1260480, Note_on_c, 0, 55, 100
1, 1260960, Note_on_c, 0, 55, 0
1, 1260960, Note_on_c, 0, 52, 100
1, 1261440, Note_on_c, 0, 52, 0
1, 1261440, Note_on_c, 0, 53, 100
1, 1261920, Note_on_c, 0, 53, 0
1, 1261920, Note_on_c, 0, 50, 100
1, 1262400, Note_on_c, 0, 50, 0
1, 1262400, Note_on_c, 0, 52, 100
1, 1262880, Note_on_c, 0, 52, 0
1, 1262880, Note_on_c, 0, 48, 100
1, 1263360, Note_on_c, 0, 48, 0
1, 1263360, Note_on_c, 0, 43, 100
1, 1263840, Note_on_c, 0, 43, 0
1, 1263840, Note_on_c, 0, 52, 100
1, 1264320, Note_on_c, 0, 52, 0
1, 1264320, Note_on_c, 0, 50, 100
1, 1264800, Note_on_c, 0, 50, 0
1, 1264800, Note_on_c, 0, 52, 100
1, 1265280, Note_on_c, 0, 52, 0
1, 1265280, Note_on_c, 0, 53, 100
1, 1265760, Note_on_c, 0, 53, 0
1, 1265760, Note_on_c, 0, 48, 100
1, 1266240, Note_on_c, 0, 48, 0
1, 1266240, Note_on_c, 0, 47, 100
1, 1266720, Note_on_c, 0, 47, 0
1, 1266720, Note_on_c, 0, 52, 100
1, 1267200, Note_on_c, 0, 52, 0
1, 1267200, Note_on_c, 0, 53, 100
1, 1267680, Note_on_c, 0, 53, 0
1, 1267680, Note_on_c, 0, 45, 100
1, 1268160, Note_on_c, 0, 45, 0
1, 1268160, Note_on_c, 0, 43, 100
1, 1268640, Note_on_c, 0, 43, 0
1, 1268640, Note_on_c, 0, 52, 100
1, 1269120, Note_on_c, 0, 52, 0
1, 1269120, Note_on_c, 0, 53, 100
1, 1269600, Note_on_c, 0, 53, 0
1, 1269600, Note_on_c, 0, 41, 100
1, 1270080, Note_on_c, 0, 41, 0
1, 1270080, Note_on_c, 0, 40, 100
1, 1270560, Note_on_c, 0, 40, 0
1, 1270560, Note_on_c, 0, 43, 100
1, 1271040, Note_on_c, 0, 43, 0
1, 1271040, Note_on_c, 0, 47, 100
1, 1271520, Note_on_c, 0, 47, 0
1, 1271520, Note_on_c, 0, 50, 100
1, 1272000, Note_on_c, 0, 50, 0
1, 1272000, Note_on_c, 0, 55, 100
1, 1272960, Note_on_c, 0, 55, 0
1, 1272960, Note_on_c, 0, 52, 100
1, 1273440, Note_on_c, 0, 52, 0
1, 1273440, Note_on_c, 0, 48, 100
1, 1273920, Note_on_c, 0, 48, 0
1, 1273920, Note_on_c, 0, 43, 100
1, 1274880, Note_on_c, 0, 43, 0
1, 1274880, Note_on_c, 0, 47, 100
1, 1275840, Note_on_c, 0, 47, 0
1, 1275840, Note_on_c, 0, 48, 100
1, 1278720, Note_on_c, 0, 48, 0
1, 1278720, Note_on_c, 0, 60, 100
1, 1279200, Note_on_c, 0, 60, 0
1, 1279200, Note_on_c, 0, 62, 100
1, 1279680, Note_on_c, 0, 62, 0
1, 1279680, Note_on_c, 0, 63, 100
1, 1280640, Note_on_c, 0, 63, 0
1, 1280640, Note_on_c, 0, 62, 100
1, 1281120, Note_on_c, 0, 62, 0
1, 1281120, Note_on_c, 0, 60, 100
1, 1281600, Note_on_c, 0, 60, 0
1, 1281600, Note_on_c, 0, 59, 100
1, 1282560, Note_on_c, 0, 59, 0
1, 1282560, Note_on_c, 0, 60, 100
1, 1283520, Note_on_c, 0, 60, 0
1, 1283520, Note_on_c, 0, 62, 100
1, 1284000, Note_on_c, 0, 62, 0
1, 1284000, Note_on_c, 0, 60, 100
1, 1284480, Note_on_c, 0, 60, 0
1, 1284480, Note_on_c, 0, 59, 100
1, 1284960, Note_on_c, 0, 59, 0
1, 1284960, Note_on_c, 0, 57, 100
1, 1285440, Note_on_c, 0, 57, 0
1, 1285440, Note_on_c, 0, 55, 100
1, 1285920, Note_on_c, 0, 55, 0
1, 1285920, Note_on_c, 0, 53, 100
1, 1286400, Note_on_c, 0, 53, 0
1, 1286400, Note_on_c, 0, 51, 100
1, 1286880, Note_on_c, 0, 51, 0
1, 1286880, Note_on_c, 0, 50, 100
1, 1287360, Note_on_c, 0, 50, 0
1, 1287360, Note_on_c, 0, 51, 100
1, 1287840, Note_on_c, 0, 51, 0
1, 1287840, Note_on_c, 0, 55, 100
1, 1288320, Note_on_c, 0, 55, 0
1, 1288320, Note_on_c, 0, 53, 100
1, 1288800, Note_on_c, 0, 53, 0
1, 1288800, Note_on_c, 0, 51, 100
1, 1289280, Note_on_c, 0, 51, 0
1, 1289280, Note_on_c, 0, 50, 100
1, 1289760, Note_on_c, 0, 50, 0
1, 1289760, Note_on_c, 0, 53, 100
1, 1290240, Note_on_c, 0, 53, 0
1, 1290240, Note_on_c, 0, 51, 100
1, 1290720, Note_on_c, 0, 51, 0
1, 1290720, Note_on_c, 0, 50, 100
1, 1291200, Note_on_c, 0, 50, 0
1, 1291200, Note_on_c, 0, 48, 100
1, 1291680, Note_on_c, 0, 48, 0
1, 1291680, Note_on_c, 0, 47, 100
1, 1292160, Note_on_c, 0, 47, 0
1, 1292160, Note_on_c, 0, 48, 100
1, 1292640, Note_on_c, 0, 48, 0
1, 1292640, Note_on_c, 0, 50, 100
1, 1293120, Note_on_c, 0, 50, 0
1, 1293120, Note_on_c, 0, 51, 100
1, 1293600, Note_on_c, 0, 51, 0
1, 1293600, Note_on_c, 0, 53, 100
1, 1294080, Note_on_c, 0, 53, 0
1, 1294080, Note_on_c, 0, 55, 100
1, 1294560, Note_on_c, 0, 55, 0
1, 1294560, Note_on_c, 0, 57, 100
1, 1295040, Note_on_c, 0, 57, 0
1, 1295040, Note_on_c, 0, 58, 100
1, 1296000, Note_on_c, 0, 58, 0
1, 1296000, Note_on_c, 0, 56, 100
1, 1296480, Note_on_c, 0, 56, 0
1, 1296480, Note_on_c, 0, 55, 100
1, 1296960, Note_on_c, 0, 55, 0
1, 1296960, Note_on_c, 0, 53, 100
1, 1297920, Note_on_c, 0, 53, 0
1, 1297920, Note_on_c, 0, 51, 100
1, 1298880, Note_on_c, 0, 51, 0
1, 1298880, Note_on_c, 0, 50, 100
1, 1299360, Note_on_c, 0, 50, 0
1, 1299360, Note_on_c, 0, 51, 100
1, 1299840, Note_on_c, 0, 51, 0
1, 1299840, Note_on_c, 0, 53, 100
1, 1300320, Note_on_c, 0, 53, 0
1, 1300320, Note_on_c, 0, 55, 100
1, 1300800, Note_on_c, 0, 55, 0
1, 1300800, Note_on_c, 0, 56, 100
1, 1301280, Note_on_c, 0, 56, 0
1, 1301280, Note_on_c, 0, 58, 100
1, 1301760, Note_on_c, 0, 58, 0
1, 1301760, Note_on_c, 0, 60, 100
1, 1302240, Note_on_c, 0, 60, 0
1, 1302240, Note_on_c, 0, 62, 100
1, 1302720, Note_on_c, 0, 62, 0
1, 1302720, Note_on_c, 0, 63, 100
1, 1303680, Note_on_c, 0, 63, 0
1, 1303680, Note_on_c, 0, 62, 100
1, 1304160, Note_on_c, 0, 62, 0
1, 1304160, Note_on_c, 0, 60, 100
1, 1304640, Note_on_c, 0, 60, 0
1, 1304640, Note_on_c, 0, 58, 100
1, 1305120, Note_on_c, 0, 58, 0
1, 1305120, Note_on_c, 0, 56, 100
1, 1305600, Note_on_c, 0, 56, 0
1, 1305600, Note_on_c, 0, 55, 100
1, 1306080, Note_on_c, 0, 55, 0
1, 1306080, Note_on_c, 0, 53, 100
1, 1306560, Note_on_c, 0, 53, 0
1, 1306560, Note_on_c, 0, 51, 100
1, 1309440, Note_on_c, 0, 51, 0
1, 1309440, Note_on_c, 0, 60, 100
1, 1309920, Note_on_c, 0, 60, 0
1, 1309920, Note_on_c, 0, 62, 100
1, 1310400, Note_on_c, 0, 62, 0
1, 1310400, Note_on_c, 0, 63, 100
1, 1311360, Note_on_c, 0, 63, 0
1, 1311360, Note_on_c, 0, 62, 100
1, 1311840, Note_on_c, 0, 62, 0
1, 1311840, Note_on_c, 0, 60, 100
1, 1312320, Note_on_c, 0, 60, 0
1, 1312320, Note_on_c, 0, 59, 100
1, 1313280, Note_on_c, 0, 59, 0
1, 1313280, Note_on_c, 0, 60, 100
1, 1314240, Note_on_c, 0, 60, 0
1, 1314240, Note_on_c, 0, 62, 100
1, 1314720, Note_on_c, 0, 62, 0
1, 1314720, Note_on_c, 0, 60, 100
1, 1315200, Note_on_c, 0, 60, 0
1, 1315200, Note_on_c, 0, 59, 100
1, 1315680, Note_on_c, 0, 59, 0
1, 1315680, Note_on_c, 0, 57, 100
1, 1316160, Note_on_c, 0, 57, 0
1, 1316160, Note_on_c, 0, 55, 100
1, 1316640, Note_on_c, 0, 55, 0
1, 1316640, Note_on_c, 0, 53, 100
1, 1317120, Note_on_c, 0, 53, 0
1, 1317120, Note_on_c, 0, 51, 100
1, 1317600, Note_on_c, 0, 51, 0
1, 1317600, Note_on_c, 0, 50, 100
1, 1318080, Note_on_c, 0, 50, 0
1, 1318080, Note_on_c, 0, 51, 100
1, 1318560, Note_on_c, 0, 51, 0
1, 1318560, Note_on_c, 0, 55, 100
1, 1319040, Note_on_c, 0, 55, 0
1, 1319040, Note_on_c, 0, 53, 100
1, 1319520, Note_on_c, 0, 53, 0
1, 1319520, Note_on_c, 0, 51, 100
1, 1320000, Note_on_c, 0, 51, 0
1, 1320000, Note_on_c, 0, 50, 100
1, 1320480, Note_on_c, 0, 50, 0
1, 1320480, Note_on_c, 0, 53, 100
1, 1320960, Note_on_c, 0, 53, 0
1, 1320960, Note_on_c, 0, 51, 100
1, 1321440, Note_on_c, 0, 51, 0
1, 1321440, Note_on_c, 0, 50, 100
1, 1321920, Note_on_c, 0, 50, 0
1, 1321920, Note_on_c, 0, 48, 100
1, 1322400, Note_on_c, 0, 48, 0
1, 1322400, Note_on_c, 0, 47, 100
1, 1322880, Note_on_c, 0, 47, 0
1, 1322880, Note_on_c, 0, 48, 100
1, 1323360, Note_on_c, 0, 48, 0
1, 1323360, Note_on_c, 0, 50, 100
1, 1323840, Note_on_c, 0, 50, 0
1, 1323840, Note_on_c, 0, 51, 100
1, 1324320, Note_on_c, 0, 51, 0
1, 1324320, Note_on_c, 0, 53, 100
1, 1324800, Note_on_c, 0, 53, 0
1, 1324800, Note_on_c, 0, 55, 100
1, 1325280, Note_on_c, 0, 55, 0
1, 1325280, Note_on_c, 0, 57, 100
1, 1325760, Note_on_c, 0, 57, 0
1, 1325760, Note_on_c, 0, 58, 100
1, 1326720, Note_on_c, 0, 58, 0
1, 1326720, Note_on_c, 0, 56, 100
1, 1327200, Note_on_c, 0, 56, 0
1, 1327200, Note_on_c, 0, 55, 100
1, 1327680, Note_on_c, 0, 55, 0
1, 1327680, Note_on_c, 0, 53, 100
1, 1328640, Note_on_c, 0, 53, 0
1, 1328640, Note_on_c, 0, 51, 100
1, 1329600, Note_on_c, 0, 51, 0
1, 1329600, Note_on_c, 0, 50, 100
1, 1330080, Note_on_c, 0, 50, 0
1, 1330080, Note_on_c, 0, 51, 100
1, 1330560, Note_on_c, 0, 51, 0
1, 1330560, Note_on_c, 0, 53, 100
1, 1331040, Note_on_c, 0, 53, 0
1, 1331040, Note_on_c, 0, 55, 100
1, 1331520, Note_on_c, 0, 55, 0
1, 1331520, Note_on_c, 0, 56, 100
1, 1332000, Note_on_c, 0, 56, 0
1, 1332000, Note_on_c, 0, 58, 100
1, 1332480, Note_on_c, 0, 58, 0
1, 1332480, Note_on_c, 0, 60, 100
1, 1332960, Note_on_c, 0, 60, 0
1, 1332960, Note_on_c, 0, 62, 100
1, 1333440, Note_on_c, 0, 62, 0
1, 1333440, Note_on_c, 0, 63, 100
1, 1334400, Note_on_c, 0, 63, 0
1, 1334400, Note_on_c, 0, 62, 100
1, 1334880, Note_on_c, 0, 62, 0
1, 1334880, Note_on_c, 0, 60, 100
1, 1335360, Note_on_c, 0, 60, 0
1, 1335360, Note_on_c, 0, 58, 100
1, 1335840, Note_on_c, 0, 58, 0
1, 1335840, Note_on_c, 0, 56, 100
1, 1336320, Note_on_c, 0, 56, 0
1, 1336320, Note_on_c, 0, 55, 100
1, 1336800, Note_on_c, 0, 55, 0
1, 1336800, Note_on_c, 0, 53, 100
1, 1337280, Note_on_c, 0, 53, 0
1, 1337280, Note_on_c, 0, 51, 100
1, 1340160, Note_on_c, 0, 51, 0
1, 1340160, Note_on_c, 0, 51, 100
1, 1340640, Note_on_c, 0, 51, 0
1, 1340640, Note_on_c, 0, 53, 100
1, 1341120, Note_on_c, 0, 53, 0
1, 1341120, Note_on_c, 0, 55, 100
1, 1342080, Note_on_c, 0, 55, 0
1, 1342080, Note_on_c, 0, 55, 100
1, 1342560, Note_on_c, 0, 55, 0
1, 1342560, Note_on_c, 0, 53, 100
1, 1343040, Note_on_c, 0, 53, 0
1, 1343040, Note_on_c, 0, 55, 100
1, 1344000, Note_on_c, 0, 55, 0
1, 1344000, Note_on_c, 0, 57, 100
1, 1344960, Note_on_c, 0, 57, 0
1, 1344960, Note_on_c, 0, 58, 100
1, 1345440, Note_on_c, 0, 58, 0
1, 1345440, Note_on_c, 0, 57, 100
1, 1345920, Note_on_c, 0, 57, 0
1, 1345920, Note_on_c, 0, 58, 100
1, 1346400, Note_on_c, 0, 58, 0
1, 1346400, Note_on_c, 0, 60, 100
1, 1346880, Note_on_c, 0, 60, 0
1, 1346880, Note_on_c, 0, 58, 100
1, 1347360, Note_on_c, 0, 58, 0
1, 1347360, Note_on_c, 0, 60, 100
1, 1347840, Note_on_c, 0, 60, 0
1, 1347840, Note_on_c, 0, 62, 100
1, 1348320, Note_on_c, 0, 62, 0
1, 1348320, Note_on_c, 0, 58, 100
1, 1348800, Note_on_c, 0, 58, 0
1, 1348800, Note_on_c, 0, 55, 100
1, 1349280, Note_on_c, 0, 55, 0
1, 1349280, Note_on_c, 0, 58, 100
1, 1349760, Note_on_c, 0, 58, 0
1, 1349760, Note_on_c, 0, 57, 100
1, 1350240, Note_on_c, 0, 57, 0
1, 1350240, Note_on_c, 0, 58, 100
1, 1350720, Note_on_c, 0, 58, 0
1, 1350720, Note_on_c, 0, 60, 100
1, 1351200, Note_on_c, 0, 60, 0
1, 1351200, Note_on_c, 0, 58, 100
1, 1351680, Note_on_c, 0, 58, 0
1, 1351680, Note_on_c, 0, 57, 100
1, 1352160, Note_on_c, 0, 57, 0
1, 1352160, Note_on_c, 0, 55, 100
1, 1352640, Note_on_c, 0, 55, 0
1, 1352640, Note_on_c, 0, 54, 100
1, 1353600, Note_on_c, 0, 54, 0
1, 1353600, Note_on_c, 0, 52, 100
1, 1354080, Note_on_c, 0, 52, 0
1, 1354080, Note_on_c, 0, 54, 100
1, 1354560, Note_on_c, 0, 54, 0
1, 1354560, Note_on_c, 0, 50, 100
1, 1355520, Note_on_c, 0, 50, 0
1, 1355520, Note_on_c, 0, 62, 100
1, 1356000, Note_on_c, 0, 62, 0
1, 1356000, Note_on_c, 0, 60, 100
1, 1356480, Note_on_c, 0, 60, 0
1, 1356480, Note_on_c, 0, 62, 100
1, 1357440, Note_on_c, 0, 62, 0
1, 1357440, Note_on_c, 0, 51, 100
1, 1357920, Note_on_c, 0, 51, 0
1, 1357920, Note_on_c, 0, 50, 100
1, 1358400, Note_on_c, 0, 50, 0
1, 1358400, Note_on_c, 0, 51, 100
1, 1359360, Note_on_c, 0, 51, 0
1, 1359360, Note_on_c, 0, 55, 100
1, 1360320, Note_on_c, 0, 55, 0
1, 1360320, Note_on_c, 0, 60, 100
1, 1360800, Note_on_c, 0, 60, 0
1, 1360800, Note_on_c, 0, 59, 100
1, 1361280, Note_on_c, 0, 59, 0
1, 1361280, Note_on_c, 0, 60, 100
1, 1361760, Note_on_c, 0, 60, 0
1, 1361760, Note_on_c, 0, 62, 100
1, 1362240, Note_on_c, 0, 62, 0
1, 1362240, Note_on_c, 0, 63, 100
1, 1363200, Note_on_c, 0, 63, 0
1, 1363200, Note_on_c, 0, 62, 100
1, 1364160, Note_on_c, 0, 62, 0
1, 1364160, Note_on_c, 0, 60, 100
1, 1364640, Note_on_c, 0, 60, 0
1, 1364640, Note_on_c, 0, 58, 100
1, 1365120, Note_on_c, 0, 58, 0
1, 1365120, Note_on_c, 0, 57, 100
1, 1365600, Note_on_c, 0, 57, 0
1, 1365600, Note_on_c, 0, 55, 100
1, 1366080, Note_on_c, 0, 55, 0
1, 1366080, Note_on_c, 0, 58, 100
1, 1366560, Note_on_c, 0, 58, 0
1, 1366560, Note_on_c, 0, 57, 100
1, 1367040, Note_on_c, 0, 57, 0
1, 1367040, Note_on_c, 0, 55, 100
1, 1367520, Note_on_c, 0, 55, 0
1, 1367520, Note_on_c, 0, 54, 100
1, 1368000, Note_on_c, 0, 54, 0
1, 1368000, Note_on_c, 0, 55, 100
1, 1368960, Note_on_c, 0, 55, 0
1, 1368960, Note_on_c, 0, 50, 100
1, 1369920, Note_on_c, 0, 50, 0
1, 1369920, Note_on_c, 0, 43, 100
1, 1370880, Note_on_c, 0, 43, 0
1, 1370880, Note_on_c, 0, 55, 100
1, 1371360, Note_on_c, 0, 55, 0
1, 1371360, Note_on_c, 0, 56, 100
1, 1371840, Note_on_c, 0, 56, 0
1, 1371840, Note_on_c, 0, 58, 100
1, 1372800, Note_on_c, 0, 58, 0
1, 1372800, Note_on_c, 0, 56, 100
1, 1373280, Note_on_c, 0, 56, 0
1, 1373280, Note_on_c, 0, 55, 100
1, 1373760, Note_on_c, 0, 55, 0
1, 1373760, Note_on_c, 0, 53, 100
1, 1374240, Note_on_c, 0, 53, 0
1, 1374240, Note_on_c, 0, 52, 100
1, 1374720, Note_on_c, 0, 52, 0
1, 1374720, Note_on_c, 0, 53, 100
1, 1375200, Note_on_c, 0, 53, 0
1, 1375200, Note_on_c, 0, 55, 100
1, 1375680, Note_on_c, 0, 55, 0
1, 1375680, Note_on_c, 0, 58, 100
1, 1376160, Note_on_c, 0, 58, 0
1, 1376160, Note_on_c, 0, 56, 100
1, 1376640, Note_on_c, 0, 56, 0
1, 1376640, Note_on_c, 0, 55, 100
1, 1377120, Note_on_c, 0, 55, 0
1, 1377120, Note_on_c, 0, 53, 100
1, 1377600, Note_on_c, 0, 53, 0
1, 1377600, Note_on_c, 0, 62, 100
1, 1380000, Note_on_c, 0, 62, 0
1, 1380000, Note_on_c, 0, 59, 100
1, 1380480, Note_on_c, 0, 59, 0
1, 1380480, Note_on_c, 0, 60, 100
1, 1380960, Note_on_c, 0, 60, 0
1, 1380960, Note_on_c, 0, 62, 100
1, 1381440, Note_on_c, 0, 62, 0
1, 1381440, Note_on_c, 0, 63, 100
1, 1381920, Note_on_c, 0, 63, 0
1, 1381920, Note_on_c, 0, 62, 100
1, 1382400, Note_on_c, 0, 62, 0
1, 1382400, Note_on_c, 0, 60, 100
1, 1382880, Note_on_c, 0, 60, 0
1, 1382880, Note_on_c, 0, 63, 100
1, 1383360, Note_on_c, 0, 63, 0
1, 1383360, Note_on_c, 0, 62, 100
1, 1383840, Note_on_c, 0, 62, 0
1, 1383840, Note_on_c, 0, 60, 100
1, 1384320, Note_on_c, 0, 60, 0
1, 1384320, Note_on_c, 0, 59, 100
1, 1384800, Note_on_c, 0, 59, 0
1, 1384800, Note_on_c, 0, 57, 100
1, 1385280, Note_on_c, 0, 57, 0
1, 1385280, Note_on_c, 0, 55, 100
1, 1385760, Note_on_c, 0, 55, 0
1, 1385760, Note_on_c, 0, 53, 100
1, 1386240, Note_on_c, 0, 53, 0
1, 1386240, Note_on_c, 0, 51, 100
1, 1386720, Note_on_c, 0, 51, 0
1, 1386720, Note_on_c, 0, 50, 100
1, 1387200, Note_on_c, 0, 50, 0
1, 1387200, Note_on_c, 0, 51, 100
1, 1387680, Note_on_c, 0, 51, 0
1, 1387680, Note_on_c, 0, 50, 100
1, 1388160, Note_on_c, 0, 50, 0
1, 1388160, Note_on_c, 0, 53, 100
1, 1388640, Note_on_c, 0, 53, 0
1, 1388640, Note_on_c, 0, 51, 100
1, 1389120, Note_on_c, 0, 51, 0
1, 1389120, Note_on_c, 0, 55, 100
1, 1389600, Note_on_c, 0, 55, 0
1, 1389600, Note_on_c, 0, 53, 100
1, 1390080, Note_on_c, 0, 53, 0
1, 1390080, Note_on_c, 0, 56, 100
1, 1390560, Note_on_c, 0, 56, 0
1, 1390560, Note_on_c, 0, 55, 100
1, 1391040, Note_on_c, 0, 55, 0
1, 1391040, Note_on_c, 0, 43, 100
1, 1391520, Note_on_c, 0, 43, 0
1, 1391520, Note_on_c, 0, 45, 100
1, 1392000, Note_on_c, 0, 45, 0
1, 1392000, Note_on_c, 0, 47, 100
1, 1392480, Note_on_c, 0, 47, 0
1, 1392480, Note_on_c, 0, 48, 100
1, 1392960, Note_on_c, 0, 48, 0
1, 1392960, Note_on_c, 0, 50, 100
1, 1393440, Note_on_c, 0, 50, 0
1, 1393440, Note_on_c, 0, 51, 100
1, 1393920, Note_on_c, 0, 51, 0
1, 1393920, Note_on_c, 0, 53, 100
1, 1394400, Note_on_c, 0, 53, 0
1, 1394400, Note_on_c, 0, 50, 100
1, 1394880, Note_on_c, 0, 50, 0
1, 1394880, Note_on_c, 0, 53, 100
1, 1395360, Note_on_c, 0, 53, 0
1, 1395360, Note_on_c, 0, 51, 100
1, 1395840, Note_on_c, 0, 51, 0
1, 1395840, Note_on_c, 0, 50, 100
1, 1396320, Note_on_c, 0, 50, 0
1, 1396320, Note_on_c, 0, 48, 100
1, 1396800, Note_on_c, 0, 48, 0
1, 1396800, Note_on_c, 0, 51, 100
1, 1397280, Note_on_c, 0, 51, 0
1, 1397280, Note_on_c, 0, 50, 100
1, 1397760, Note_on_c, 0, 50, 0
1, 1397760, Note_on_c, 0, 48, 100
1, 1398240, Note_on_c, 0, 48, 0
1, 1398240, Note_on_c, 0, 47, 100
1, 1398720, Note_on_c, 0, 47, 0
1, 1398720, Note_on_c, 0, 48, 100
1, 1401600, Note_on_c, 0, 48, 0
1, 1401600, Note_on_c, 0, 51, 100
1, 1402080, Note_on_c, 0, 51, 0
1, 1402080, Note_on_c, 0, 53, 100
1, 1402560, Note_on_c, 0, 53, 0
1, 1402560, Note_on_c, 0, 55, 100
1, 1403520, Note_on_c, 0, 55, 0
1, 1403520, Note_on_c, 0, 55, 100
1, 1404000, Note_on_c, 0, 55, 0
1, 1404000, Note_on_c, 0, 53, 100
1, 1404480, Note_on_c, 0, 53, 0
1, 1404480, Note_on_c, 0, 55, 100
1, 1405440, Note_on_c, 0, 55, 0
1, 1405440, Note_on_c, 0, 57, 100
1, 1406400, Note_on_c, 0, 57, 0
1, 1406400, Note_on_c, 0, 58, 100
1, 1406880, Note_on_c, 0, 58, 0
1, 1406880, Note_on_c, 0, 57, 100
1, 1407360, Note_on_c, 0, 57, 0
1, 1407360, Note_on_c, 0, 58, 100
1, 1407840, Note_on_c, 0, 58, 0
1, 1407840, Note_on_c, 0, 60, 100
1, 1408320, Note_on_c, 0, 60, 0
1, 1408320, Note_on_c, 0, 58, 100
1, 1408800, Note_on_c, 0, 58, 0
1, 1408800, Note_on_c, 0, 60, 100
1, 1409280, Note_on_c, 0, 60, 0
1, 1409280, Note_on_c, 0, 62, 100
1, 1409760, Note_on_c, 0, 62, 0
1, 1409760, Note_on_c, 0, 58, 100
1, 1410240, Note_on_c, 0, 58, 0
1, 1410240, Note_on_c, 0, 55, 100
1, 1410720, Note_on_c, 0, 55, 0
1, 1410720, Note_on_c, 0, 58, 100
1, 1411200, Note_on_c, 0, 58, 0
1, 1411200, Note_on_c, 0, 57, 100
1, 1411680, Note_on_c, 0, 57, 0
1, 1411680, Note_on_c, 0, 58, 100
1, 1412160, Note_on_c, 0, 58, 0
1, 1412160, Note_on_c, 0, 60, 100
1, 1412640, Note_on_c, 0, 60, 0
1, 1412640, Note_on_c, 0, 58, 100
1, 1413120, Note_on_c, 0, 58, 0
1, 1413120, Note_on_c, 0, 57, 100
1, 1413600, Note_on_c, 0, 57, 0
1, 1413600, Note_on_c, 0, 55, 100
1, 1414080, Note_on_c, 0, 55, 0
1, 1414080, Note_on_c, 0, 54, 100
1, 1415040, Note_on_c, 0, 54, 0
1, 1415040, Note_on_c, 0, 52, 100
1, 1415520, Note_on_c, 0, 52, 0
1, 1415520, Note_on_c, 0, 54, 100
1, 1416000, Note_on_c, 0, 54, 0
1, 1416000, Note_on_c, 0, 50, 100
1, 1416960, Note_on_c, 0, 50, 0
1, 1416960, Note_on_c, 0, 62, 100
1, 1417440, Note_on_c, 0, 62, 0
1, 1417440, Note_on_c, 0, 60, 100
1, 1417920, Note_on_c, 0, 60, 0
1, 1417920, Note_on_c, 0, 62, 100
1, 1418880, Note_on_c, 0, 62, 0
1, 1418880, Note_on_c, 0, 51, 100
1, 1419360, Note_on_c, 0, 51, 0
1, 1419360, Note_on_c, 0, 50, 100
1, 1419840, Note_on_c, 0, 50, 0
1, 1419840, Note_on_c, 0, 51, 100
1, 1420800, Note_on_c, 0, 51, 0
1, 1420800, Note_on_c, 0, 55, 100
1, 1421760, Note_on_c, 0, 55, 0
1, 1421760, Note_on_c, 0, 60, 100
1, 1422240, Note_on_c, 0, 60, 0
1, 1422240, Note_on_c, 0, 59, 100
1, 1422720, Note_on_c, 0, 59, 0
1, 1422720, Note_on_c, 0, 60, 100
1, 1423200, Note_on_c, 0, 60, 0
1, 1423200, Note_on_c, 0, 62, 100
1, 1423680, Note_on_c, 0, 62, 0
1, 1423680, Note_on_c, 0, 63, 100
1, 1424640, Note_on_c, 0, 63, 0
1, 1424640, Note_on_c, 0, 62, 100
1, 1425600, Note_on_c, 0, 62, 0
1, 1425600, Note_on_c, 0, 60, 100
1, 1426080, Note_on_c, 0, 60, 0
1, 1426080, Note_on_c, 0, 58, 100
1, 1426560, Note_on_c, 0, 58, 0
1, 1426560, Note_on_c, 0, 57, 100
1, 1427040, Note_on_c, 0, 57, 0
1, 1427040, Note_on_c, 0, 55, 100
1, 1427520, Note_on_c, 0, 55, 0
1, 1427520, Note_on_c, 0, 58, 100
1, 1428000, Note_on_c, 0, 58, 0
1, 1428000, Note_on_c, 0, 57, 100
1, 1428480, Note_on_c, 0, 57, 0
1, 1428480, Note_on_c, 0, 55, 100
1, 1428960, Note_on_c, 0, 55, 0
1, 1428960, Note_on_c, 0, 54, 100
1, 1429440, Note_on_c, 0, 54, 0
1, 1429440, Note_on_c, 0, 55, 100
1, 1430400, Note_on_c, 0, 55, 0
1, 1430400, Note_on_c, 0, 50, 100
1, 1431360, Note_on_c, 0, 50, 0
1, 1431360, Note_on_c, 0, 43, 100
1, 1432320, Note_on_c, 0, 43, 0
1, 1432320, Note_on_c, 0, 55, 100
1, 1432800, Note_on_c, 0, 55, 0
1, 1432800, Note_on_c, 0, 56, 100
1, 1433280, Note_on_c, 0, 56, 0
1, 1433280, Note_on_c, 0, 58, 100
1, 1434240, Note_on_c, 0, 58, 0
1, 1434240, Note_on_c, 0, 56, 100
1, 1434720, Note_on_c, 0, 56, 0
1, 1434720, Note_on_c, 0, 55, 100
1, 1435200, Note_on_c, 0, 55, 0
1, 1435200, Note_on_c, 0, 53, 100
1, 1435680, Note_on_c, 0, 53, 0
1, 1435680, Note_on_c, 0, 52, 100
1, 1436160, Note_on_c, 0, 52, 0
1, 1436160, Note_on_c, 0, 53, 100
1, 1436640, Note_on_c, 0, 53, 0
1, 1436640, Note_on_c, 0, 55, 100
1, 1437120, Note_on_c, 0, 55, 0
1, 1437120, Note_on_c, 0, 58, 100
1, 1437600, Note_on_c, 0, 58, 0
1, 1437600, Note_on_c, 0, 56, 100
1, 1438080, Note_on_c, 0, 56, 0
1, 1438080, Note_on_c, 0, 55, 100
1, 1438560, Note_on_c, 0, 55, 0
1, 1438560, Note_on_c, 0, 53, 100
1, 1439040, Note_on_c, 0, 53, 0
1, 1439040, Note_on_c, 0, 62, 100
1, 1441440, Note_on_c, 0, 62, 0
1, 1441440, Note_on_c, 0, 59, 100
1, 1441920, Note_on_c, 0, 59, 0
1, 1441920, Note_on_c, 0, 60, 100
1, 1442400, Note_on_c, 0, 60, 0
1, 1442400, Note_on_c, 0, 62, 100
1, 1442880, Note_on_c, 0, 62, 0
1, 1442880, Note_on_c, 0, 63, 100
1, 1443360, Note_on_c, 0, 63, 0
1, 1443360, Note_on_c, 0, 62, 100
1, 1443840, Note_on_c, 0, 62, 0
1, 1443840, Note_on_c, 0, 60, 100
1, 1444320, Note_on_c, 0, 60, 0
1, 1444320, Note_on_c, 0, 63, 100
1, 1444800, Note_on_c, 0, 63, 0
1, 1444800, Note_on_c, 0, 62, 100
1, 1445280, Note_on_c, 0, 62, 0
1, 1445280, Note_on_c, 0, 60, 100
1, 1445760, Note_on_c, 0, 60, 0
1, 1445760, Note_on_c, 0, 59, 100
1, 1446240, Note_on_c, 0, 59, 0
1, 1446240, Note_on_c, 0, 57, 100
1, 1446720, Note_on_c, 0, 57, 0
1, 1446720, Note_on_c, 0, 55, 100
1, 1447200, Note_on_c, 0, 55, 0
1, 1447200, Note_on_c, 0, 53, 100
1, 1447680, Note_on_c, 0, 53, 0
1, 1447680, Note_on_c, 0, 51, 100
1, 1448160, Note_on_c, 0, 51, 0
1, 1448160, Note_on_c, 0, 50, 100
1, 1448640, Note_on_c, 0, 50, 0
1, 1448640, Note_on_c, 0, 51, 100
1, 1449120, Note_on_c, 0, 51, 0
1, 1449120, Note_on_c, 0, 50, 100
1, 1449600, Note_on_c, 0, 50, 0
1, 1449600, Note_on_c, 0, 53, 100
1, 1450080, Note_on_c, 0, 53, 0
1, 1450080, Note_on_c, 0, 51, 100
1, 1450560, Note_on_c, 0, 51, 0
1, 1450560, Note_on_c, 0, 55, 100
1, 1451040, Note_on_c, 0, 55, 0
1, 1451040, Note_on_c, 0, 53, 100
1, 1451520, Note_on_c, 0, 53, 0
1, 1451520, Note_on_c, 0, 56, 100
1, 1452000, Note_on_c, 0, 56, 0
1, 1452000, Note_on_c, 0, 55, 100
1, 1452480, Note_on_c, 0, 55, 0
1, 1452480, Note_on_c, 0, 43, 100
1, 1452960, Note_on_c, 0, 43, 0
1, 1452960, Note_on_c, 0, 45, 100
1, 1453440, Note_on_c, 0, 45, 0
1, 1453440, Note_on_c, 0, 47, 100
1, 1453920, Note_on_c, 0, 47, 0
1, 1453920, Note_on_c, 0, 48, 100
1, 1454400, Note_on_c, 0, 48, 0
1, 1454400, Note_on_c, 0, 50, 100
1, 1454880, Note_on_c, 0, 50, 0
1, 1454880, Note_on_c, 0, 51, 100
1, 1455360, Note_on_c, 0, 51, 0
1, 1455360, Note_on_c, 0, 53, 100
1, 1455840, Note_on_c, 0, 53, 0
1, 1455840, Note_on_c, 0, 50, 100
1, 1456320, Note_on_c, 0, 50, 0
1, 1456320, Note_on_c, 0, 53, 100
1, 1456800, Note_on_c, 0, 53, 0
1, 1456800, Note_on_c, 0, 51, 100
1, 1457280, Note_on_c, 0, 51, 0
1, 1457280, Note_on_c, 0, 50, 100
1, 1457760, Note_on_c, 0, 50, 0
1, 1457760, Note_on_c, 0, 48, 100
1, 1458240, Note_on_c, 0, 48, 0
1, 1458240, Note_on_c, 0, 51, 100
1, 1458720, Note_on_c, 0, 51, 0
1, 1458720, Note_on_c, 0, 50, 100
1, 1459200, Note_on_c, 0, 50, 0
1, 1459200, Note_on_c, 0, 48, 100
1, 1459680, Note_on_c, 0, 48, 0
1, 1459680, Note_on_c, 0, 47, 100
1, 1460160, Note_on_c, 0, 47, 0
1, 1460160, Note_on_c, 0, 48, 100
1, 1463040, Note_on_c, 0, 48, 0
1, 1463040, Note_on_c, 0, 52, 100
1, 1463520, Note_on_c, 0, 52, 0
1, 1463520, Note_on_c, 0, 53, 100
1, 1464000, Note_on_c, 0, 53, 0
1, 1464000, Note_on_c, 0, 55, 100
1, 1464960, Note_on_c, 0, 55, 0
1, 1464960, Note_on_c, 0, 48, 100
1, 1465440, Note_on_c, 0, 48, 0
1, 1465440, Note_on_c, 0, 47, 100
1, 1465920, Note_on_c, 0, 47, 0
1, 1465920, Note_on_c, 0, 48, 100
1, 1466880, Note_on_c, 0, 48, 0
1, 1466880, Note_on_c, 0, 60, 100
1, 1467840, Pitch_bend_c, 0, 12288
1, 1467840, Note_on_c, 0, 60, 0
1, 1467840, Note_on_c, 0, 59, 100
1, 1468000, Pitch_bend_c, 0, 8192
1, 1468160, Pitch_bend_c, 0, 12288
1, 1468320, Pitch_bend_c, 0, 8192
1, 1468800, Note_on_c, 0, 59, 0
1, 1468800, Note_on_c, 0, 57, 100
1, 1469280, Note_on_c, 0, 57, 0
1, 1469280, Note_on_c, 0, 59, 100
1, 1469760, Note_on_c, 0, 59, 0
1, 1469760, Note_on_c, 0, 55, 100
1, 1470720, Note_on_c, 0, 55, 0
1, 1470720, Note_on_c, 0, 50, 100
1, 1471200, Note_on_c, 0, 50, 0
1, 1471200, Note_on_c, 0, 52, 100
1, 1471680, Note_on_c, 0, 52, 0
1, 1471680, Note_on_c, 0, 53, 100
1, 1472640, Note_on_c, 0, 53, 0
1, 1472640, Note_on_c, 0, 47, 100
1, 1473120, Note_on_c, 0, 47, 0
1, 1473120, Note_on_c, 0, 45, 100
1, 1473600, Note_on_c, 0, 45, 0
1, 1473600, Note_on_c, 0, 47, 100
1, 1474560, Note_on_c, 0, 47, 0
1, 1474560, Note_on_c, 0, 55, 100
1, 1475520, Note_on_c, 0, 55, 0
1, 1475520, Note_on_c, 0, 53, 100
1, 1476000, Note_on_c, 0, 53, 0
1, 1476000, Note_on_c, 0, 52, 100
1, 1476480, Note_on_c, 0, 52, 0
1, 1476480, Note_on_c, 0, 50, 100
1, 1476960, Note_on_c, 0, 50, 0
1, 1476960, Note_on_c, 0, 52, 100
1, 1477440, Note_on_c, 0, 52, 0
1, 1477440, Note_on_c, 0, 48, 100
1, 1478400, Note_on_c, 0, 48, 0
1, 1478400, Note_on_c, 0, 60, 100
1, 1478880, Note_on_c, 0, 60, 0
1, 1478880, Note_on_c, 0, 59, 100
1, 1479360, Note_on_c, 0, 59, 0
1, 1479360, Note_on_c, 0, 57, 100
1, 1479840, Note_on_c, 0, 57, 0
1, 1479840, Note_on_c, 0, 59, 100
1, 1480320, Note_on_c, 0, 59, 0
1, 1480320, Note_on_c, 0, 60, 100
1, 1480800, Note_on_c, 0, 60, 0
1, 1480800, Note_on_c, 0, 55, 100
1, 1481280, Note_on_c, 0, 55, 0
1, 1481280, Note_on_c, 0, 54, 100
1, 1481760, Note_on_c, 0, 54, 0
1, 1481760, Note_on_c, 0, 59, 100
1, 1482240, Note_on_c, 0, 59, 0
1, 1482240, Note_on_c, 0, 60, 100
1, 1482720, Note_on_c, 0, 60, 0
1, 1482720, Note_on_c, 0, 52, 100
1, 1483200, Note_on_c, 0, 52, 0
1, 1483200, Note_on_c, 0, 50, 100
1, 1483680, Note_on_c, 0, 50, 0
1, 1483680, Note_on_c, 0, 59, 100
1, 1484160, Note_on_c, 0, 59, 0
1, 1484160, Note_on_c, 0, 60, 100
1, 1484640, Note_on_c, 0, 60, 0
1, 1484640, Note_on_c, 0, 48, 100
1, 1485120, Note_on_c, 0, 48, 0
1, 1485120, Note_on_c, 0, 47, 100
1, 1485600, Note_on_c, 0, 47, 0
1, 1485600, Note_on_c, 0, 50, 100
1, 1486080, Note_on_c, 0, 50, 0
1, 1486080, Note_on_c, 0, 54, 100
1, 1486560, Note_on_c, 0, 54, 0
1, 1486560, Note_on_c, 0, 57, 100
1, 1487040, Note_on_c, 0, 57, 0
1, 1487040, Note_on_c, 0, 62, 100
1, 1488000, Note_on_c, 0, 62, 0
1, 1488000, Note_on_c, 0, 59, 100
1, 1488480, Note_on_c, 0, 59, 0
1, 1488480, Note_on_c, 0, 55, 100
1, 1488960, Note_on_c, 0, 55, 0
1, 1488960, Note_on_c, 0, 50, 100
1, 1489920, Note_on_c, 0, 50, 0
1, 1489920, Note_on_c, 0, 54, 100
1, 1490880, Note_on_c, 0, 54, 0
1, 1490880, Note_on_c, 0, 55, 100
1, 1491840, Note_on_c, 0, 55, 0
1, 1491840, Note_on_c, 0, 50, 100
1, 1492800, Note_on_c, 0, 50, 0
1, 1492800, Note_on_c, 0, 43, 100
1, 1493760, Note_on_c, 0, 43, 0
1, 1493760, Note_on_c, 0, 59, 100
1, 1494240, Note_on_c, 0, 59, 0
1, 1494240, Note_on_c, 0, 60, 100
1, 1494720, Note_on_c, 0, 60, 0
1, 1494720, Note_on_c, 0, 62, 100
1, 1495680, Note_on_c, 0, 62, 0
1, 1495680, Note_on_c, 0, 59, 100
1, 1496160, Note_on_c, 0, 59, 0
1, 1496160, Note_on_c, 0, 55, 100
1, 1496640, Note_on_c, 0, 55, 0
1, 1496640, Note_on_c, 0, 53, 100
1, 1497600, Note_on_c, 0, 53, 0
1, 1497600, Note_on_c, 0, 59, 100
1, 1498560, Note_on_c, 0, 59, 0
1, 1498560, Note_on_c, 0, 52, 100
1, 1499040, Note_on_c, 0, 52, 0
1, 1499040, Note_on_c, 0, 55, 100
1, 1499520, Note_on_c, 0, 55, 0
1, 1499520, Note_on_c, 0, 60, 100
1, 1500000, Note_on_c, 0, 60, 0
1, 1500000, Note_on_c, 0, 62, 100
1, 1500480, Note_on_c, 0, 62, 0
1, 1500480, Note_on_c, 0, 64, 100
1, 1501440, Note_on_c, 0, 64, 0
1, 1501440, Note_on_c, 0, 60, 100
1, 1501920, Note_on_c, 0, 60, 0
1, 1501920, Note_on_c, 0, 56, 100
1, 1502400, Note_on_c, 0, 56, 0
1, 1502400, Note_on_c, 0, 57, 100
1, 1503360, Note_on_c, 0, 57, 0
1, 1503360, Note_on_c, 0, 53, 100
1, 1503840, Note_on_c, 0, 53, 0
1, 1503840, Note_on_c, 0, 57, 100
1, 1504320, Note_on_c, 0, 57, 0
1, 1504320, Note_on_c, 0, 50, 100
1, 1504800, Note_on_c, 0, 50, 0
1, 1504800, Note_on_c, 0, 60, 100
1, 1505280, Note_on_c, 0, 60, 0
1, 1505280, Note_on_c, 0, 59, 100
1, 1505760, Note_on_c, 0, 59, 0
1, 1505760, Note_on_c, 0, 57, 100
1, 1506240, Note_on_c, 0, 57, 0
1, 1506240, Note_on_c, 0, 52, 100
1, 1506720, Note_on_c, 0, 52, 0
1, 1506720, Note_on_c, 0, 57, 100
1, 1507200, Note_on_c, 0, 57, 0
1, 1507200, Note_on_c, 0, 56, 100
1, 1507680, Note_on_c, 0, 56, 0
1, 1507680, Note_on_c, 0, 54, 100
1, 1508160, Note_on_c, 0, 54, 0
1, 1508160, Note_on_c, 0, 52, 100
1, 1509120, Note_on_c, 0, 52, 0
1, 1509120, Note_on_c, 0, 59, 100
1, 1509600, Note_on_c, 0, 59, 0
1, 1509600, Note_on_c, 0, 52, 100
1, 1510080, Note_on_c, 0, 52, 0
1, 1510080, Note_on_c, 0, 60, 100
1, 1510560, Note_on_c, 0, 60, 0
1, 1510560, Note_on_c, 0, 57, 100
1, 1511040, Note_on_c, 0, 57, 0
1, 1511040, Note_on_c, 0, 56, 100
1, 1511520, Note_on_c, 0, 56, 0
1, 1511520, Note_on_c, 0, 57, 100
1, 1512000, Note_on_c, 0, 57, 0
1, 1512000, Note_on_c, 0, 59, 100
1, 1512480, Note_on_c, 0, 59, 0
1, 1512480, Note_on_c, 0, 52, 100
1, 1512960, Note_on_c, 0, 52, 0
1, 1512960, Note_on_c, 0, 60, 100
1, 1513440, Note_on_c, 0, 60, 0
1, 1513440, Note_on_c, 0, 52, 100
1, 1513920, Note_on_c, 0, 52, 0
1, 1513920, Note_on_c, 0, 62, 100
1, 1514400, Note_on_c, 0, 62, 0
1, 1514400, Note_on_c, 0, 59, 100
1, 1514880, Note_on_c, 0, 59, 0
1, 1514880, Note_on_c, 0, 57, 100
1, 1515360, Note_on_c, 0, 57, 0
1, 1515360, Note_on_c, 0, 59, 100
1, 1515840, Note_on_c, 0, 59, 0
1, 1515840, Note_on_c, 0, 60, 100
1, 1516320, Note_on_c, 0, 60, 0
1, 1516320, Note_on_c, 0, 52, 100
1, 1516800, Note_on_c, 0, 52, 0
1, 1516800, Note_on_c, 0, 62, 100
1, 1517280, Note_on_c, 0, 62, 0
1, 1517280, Note_on_c, 0, 50, 100
1, 1517760, Note_on_c, 0, 50, 0
1, 1517760, Note_on_c, 0, 48, 100
1, 1518240, Note_on_c, 0, 48, 0
1, 1518240, Note_on_c, 0, 64, 100
1, 1518720, Note_on_c, 0, 64, 0
1, 1518720, Note_on_c, 0, 59, 100
1, 1519200, Note_on_c, 0, 59, 0
1, 1519200, Note_on_c, 0, 60, 100
1, 1519680, Note_on_c, 0, 60, 0
1, 1519680, Note_on_c, 0, 52, 100
1, 1520640, Note_on_c, 0, 52, 0
1, 1520640, Note_on_c, 0, 57, 100
1, 1521120, Note_on_c, 0, 57, 0
1, 1521120, Note_on_c, 0, 56, 100
1, 1521600, Note_on_c, 0, 56, 0
1, 1521600, Note_on_c, 0, 57, 100
1, 1522560, Note_on_c, 0, 57, 0
1, 1522560, Note_on_c, 0, 52, 100
1, 1523520, Note_on_c, 0, 52, 0
1, 1523520, Note_on_c, 0, 45, 100
1, 1524480, Note_on_c, 0, 45, 0
1, 1524480, Note_on_c, 0, 57, 100
1, 1524960, Note_on_c, 0, 57, 0
1, 1524960, Note_on_c, 0, 59, 100
1, 1525440, Note_on_c, 0, 59, 0
1, 1525440, Note_on_c, 0, 60, 100
1, 1526400, Note_on_c, 0, 60, 0
1, 1526400, Note_on_c, 0, 54, 100
1, 1526880, Note_on_c, 0, 54, 0
1, 1526880, Note_on_c, 0, 52, 100
1, 1527360, Note_on_c, 0, 52, 0
1, 1527360, Note_on_c, 0, 54, 100
1, 1528320, Note_on_c, 0, 54, 0
1, 1528320, Note_on_c, 0, 50, 100
1, 1529280, Note_on_c, 0, 50, 0
1, 1529280, Note_on_c, 0, 43, 100
1, 1529760, Note_on_c, 0, 43, 0
1, 1529760, Note_on_c, 0, 50, 100
1, 1530240, Note_on_c, 0, 50, 0
1, 1530240, Note_on_c, 0, 60, 100
1, 1530720, Note_on_c, 0, 60, 0
1, 1530720, Note_on_c, 0, 57, 100
1, 1531200, Note_on_c, 0, 57, 0
1, 1531200, Note_on_c, 0, 59, 100
1, 1532160, Note_on_c, 0, 59, 0
1, 1532160, Note_on_c, 0, 55, 100
1, 1532640, Note_on_c, 0, 55, 0
1, 1532640, Note_on_c, 0, 53, 100
1, 1533120, Note_on_c, 0, 53, 0
1, 1533120, Note_on_c, 0, 52, 100
1, 1533600, Note_on_c, 0, 52, 0
1, 1533600, Note_on_c, 0, 55, 100
1, 1534080, Note_on_c, 0, 55, 0
1, 1534080, Note_on_c, 0, 60, 100
1, 1534560, Note_on_c, 0, 60, 0
1, 1534560, Note_on_c, 0, 52, 100
1, 1535040, Note_on_c, 0, 52, 0
1, 1535040, Note_on_c, 0, 50, 100
1, 1535520, Note_on_c, 0, 50, 0
1, 1535520, Note_on_c, 0, 65, 100
1, 1536000, Note_on_c, 0, 65, 0
1, 1536000, Note_on_c, 0, 64, 100
1, 1536480, Note_on_c, 0, 64, 0
1, 1536480, Note_on_c, 0, 60, 100
1, 1536960, Note_on_c, 0, 60, 0
1, 1536960, Note_on_c, 0, 62, 100
1, 1537440, Note_on_c, 0, 62, 0
1, 1537440, Note_on_c, 0, 60, 100
1, 1537920, Note_on_c, 0, 60, 0
1, 1537920, Note_on_c, 0, 59, 100
1, 1538400, Note_on_c, 0, 59, 0
1, 1538400, Note_on_c, 0, 57, 100
1, 1538880, Note_on_c, 0, 57, 0
1, 1538880, Note_on_c, 0, 55, 100
1, 1539840, Note_on_c, 0, 55, 0
1, 1539840, Note_on_c, 0, 59, 100
1, 1540320, Note_on_c, 0, 59, 0
1, 1540320, Note_on_c, 0, 60, 100
1, 1540800, Note_on_c, 0, 60, 0
1, 1540800, Note_on_c, 0, 62, 100
1, 1541280, Note_on_c, 0, 62, 0
1, 1541280, Note_on_c, 0, 59, 100
1, 1541760, Note_on_c, 0, 59, 0
1, 1541760, Note_on_c, 0, 55, 100
1, 1542240, Note_on_c, 0, 55, 0
1, 1542240, Note_on_c, 0, 57, 100
1, 1542720, Note_on_c, 0, 57, 0
1, 1542720, Note_on_c, 0, 59, 100
1, 1543200, Note_on_c, 0, 59, 0
1, 1543200, Note_on_c, 0, 55, 100
1, 1543680, Note_on_c, 0, 55, 0
1, 1543680, Note_on_c, 0, 50, 100
1, 1544160, Note_on_c, 0, 50, 0
1, 1544160, Note_on_c, 0, 52, 100
1, 1544640, Note_on_c, 0, 52, 0
1, 1544640, Note_on_c, 0, 53, 100
1, 1545120, Note_on_c, 0, 53, 0
1, 1545120, Note_on_c, 0, 50, 100
1, 1545600, Note_on_c, 0, 50, 0
1, 1545600, Note_on_c, 0, 47, 100
1, 1546080, Note_on_c, 0, 47, 0
1, 1546080, Note_on_c, 0, 48, 100
1, 1546560, Note_on_c, 0, 48, 0
1, 1546560, Note_on_c, 0, 50, 100
1, 1547040, Note_on_c, 0, 50, 0
1, 1547040, Note_on_c, 0, 47, 100
1, 1547520, Note_on_c, 0, 47, 0
1, 1547520, Note_on_c, 0, 43, 100
1, 1548000, Note_on_c, 0, 43, 0
1, 1548000, Note_on_c, 0, 53, 100
1, 1548480, Note_on_c, 0, 53, 0
1, 1548480, Note_on_c, 0, 52, 100
1, 1548960, Note_on_c, 0, 52, 0
1, 1548960, Note_on_c, 0, 48, 100
1, 1549440, Note_on_c, 0, 48, 0
1, 1549440, Note_on_c, 0, 43, 100
1, 1549920, Note_on_c, 0, 43, 0
1, 1549920, Note_on_c, 0, 55, 100
1, 1550400, Note_on_c, 0, 55, 0
1, 1550400, Note_on_c, 0, 52, 100
1, 1550880, Note_on_c, 0, 52, 0
1, 1550880, Note_on_c, 0, 48, 100
1, 1551360, Note_on_c, 0, 48, 0
1, 1551360, Note_on_c, 0, 43, 100
1, 1551840, Note_on_c, 0, 43, 0
1, 1551840, Note_on_c, 0, 60, 100
1, 1552320, Note_on_c, 0, 60, 0
1, 1552320, Note_on_c, 0, 55, 100
1, 1552800, Note_on_c, 0, 55, 0
1, 1552800, Note_on_c, 0, 52, 100
1, 1553280, Note_on_c, 0, 52, 0
1, 1553280, Note_on_c, 0, 53, 100
1, 1553760, Note_on_c, 0, 53, 0
1, 1553760, Note_on_c, 0, 50, 100
1, 1554240, Note_on_c, 0, 50, 0
1, 1554240, Note_on_c, 0, 52, 100
1, 1554720, Note_on_c, 0, 52, 0
1, 1554720, Note_on_c, 0, 48, 100
1, 1555200, Note_on_c, 0, 48, 0
1, 1555200, Note_on_c, 0, 43, 100
1, 1555680, Note_on_c, 0, 43, 0
1, 1555680, Note_on_c, 0, 52, 100
1, 1556160, Note_on_c, 0, 52, 0
1, 1556160, Note_on_c, 0, 50, 100
1, 1556640, Note_on_c, 0, 50, 0
1, 1556640, Note_on_c, 0, 52, 100
1, 1557120, Note_on_c, 0, 52, 0
1, 1557120, Note_on_c, 0, 53, 100
1, 1557600, Note_on_c, 0, 53, 0
1, 1557600, Note_on_c, 0, 48, 100
1, 1558080, Note_on_c, 0, 48, 0
1, 1558080, Note_on_c, 0, 47, 100
1, 1558560, Note_on_c, 0, 47, 0
1, 1558560, Note_on_c, 0, 52, 100
1, 1559040, Note_on_c, 0, 52, 0
1, 1559040, Note_on_c, 0, 53, 100
1, 1559520, Note_on_c, 0, 53, 0
1, 1559520, Note_on_c, 0, 45, 100
1, 1560000, Note_on_c, 0, 45, 0
1, 1560000, Note_on_c, 0, 43, 100
1, 1560480, Note_on_c, 0, 43, 0
1, 1560480, Note_on_c, 0, 52, 100
1, 1560960, Note_on_c, 0, 52, 0
1, 1560960, Note_on_c, 0, 53, 100
1, 1561440, Note_on_c, 0, 53, 0
1, 1561440, Note_on_c, 0, 41, 100
1, 1561920, Note_on_c, 0, 41, 0
1, 1561920, Note_on_c, 0, 40, 100
1, 1562400, Note_on_c, 0, 40, 0
1, 1562400, Note_on_c, 0, 43, 100
1, 1562880, Note_on_c, 0, 43, 0
1, 1562880, Note_on_c, 0, 47, 100
1, 1563360, Note_on_c, 0, 47, 0
1, 1563360, Note_on_c, 0, 50, 100
1, 1563840, Note_on_c, 0, 50, 0
1, 1563840, Note_on_c, 0, 55, 100
1, 1564800, Note_on_c, 0, 55, 0
1, 1564800, Note_on_c, 0, 52, 100
1, 1565280, Note_on_c, 0, 52, 0
1, 1565280, Note_on_c, 0, 48, 100
1, 1565760, Note_on_c, 0, 48, 0
1, 1565760, Note_on_c, 0, 43, 100
1, 1566720, Note_on_c, 0, 43, 0
1, 1566720, Note_on_c, 0, 47, 100
1, 1567680, Note_on_c, 0, 47, 0
1, 1567680, Note_on_c, 0, 48, 100
1, 1570558, Note_on_c, 0, 48, 0
1, 1570560, Title_t, "Solo Cello"
1, 1570560, Program_c, 0, 42
1, 1570560, Control_c, 0, 7, 100
1, 1570560, Control_c, 0, 10, 64
1, 1571520, Note_on_c, 0, 55, 100
1, 1572000, Note_on_c, 0, 55, 0
1, 1572000, Note_on_c, 0, 60, 100
1, 1572480, Note_on_c, 0, 60, 0
1, 1572480, Note_on_c, 0, 48, 100
1, 1572720, Note_on_c, 0, 48, 0
1, 1572720, Note_on_c, 0, 50, 100
1, 1572960, Note_on_c, 0, 50, 0
1, 1572960, Note_on_c, 0, 52, 100
1, 1573200, Note_on_c, 0, 52, 0
1, 1573200, Note_on_c, 0, 53, 100
1, 1573440, Note_on_c, 0, 53, 0
1, 1573440, Note_on_c, 0, 55, 100
1, 1573920, Note_on_c, 0, 55, 0
1, 1573920, Note_on_c, 0, 57, 100
1, 1574400, Note_on_c, 0, 57, 0
1, 1574400, Note_on_c, 0, 59, 100
1, 1574880, Note_on_c, 0, 59, 0
1, 1574880, Note_on_c, 0, 60, 100
1, 1575360, Note_on_c, 0, 60, 0
1, 1575360, Note_on_c, 0, 55, 100
1, 1575840, Note_on_c, 0, 55, 0
1, 1575840, Note_on_c, 0, 64, 100
1, 1576319, Note_on_c, 0, 64, 0
1, 1576319, Note_on_c, 0, 60, 100
1, 1576800, Note_on_c, 0, 60, 0
1, 1576800, Note_on_c, 0, 55, 100
1, 1577280, Note_on_c, 0, 55, 0
1, 1577280, Note_on_c, 0, 64, 100
1, 1577760, Note_on_c, 0, 64, 0
1, 1577760, Note_on_c, 0, 62, 100
1, 1578000, Note_on_c, 0, 62, 0
1, 1578000, Note_on_c, 0, 60, 100
1, 1578240, Note_on_c, 0, 60, 0
1, 1578240, Note_on_c, 0, 62, 100
1, 1578480, Note_on_c, 0, 62, 0
1, 1578480, Note_on_c, 0, 64, 100
1, 1578720, Note_on_c, 0, 64, 0
1, 1578720, Note_on_c, 0, 65, 100
1, 1579200, Note_on_c, 0, 65, 0
1, 1579200, Note_on_c, 0, 59, 100
1, 1579680, Note_on_c, 0, 59, 0
1, 1579680, Note_on_c, 0, 60, 100
1, 1580160, Note_on_c, 0, 60, 0
1, 1580160, Note_on_c, 0, 52, 100
1, 1580640, Note_on_c, 0, 52, 0
1, 1580640, Note_on_c, 0, 43, 100
1, 1581120, Note_on_c, 0, 43, 0
1, 1581120, Note_on_c, 0, 50, 100
1, 1581600, Note_on_c, 0, 50, 0
1, 1581600, Note_on_c, 0, 60, 100
1, 1582080, Note_on_c, 0, 60, 0
1, 1582080, Note_on_c, 0, 59, 100
1, 1582560, Note_on_c, 0, 59, 0
1, 1582560, Note_on_c, 0, 55, 100
1, 1583040, Note_on_c, 0, 55, 0
1, 1583040, Note_on_c, 0, 62, 100
1, 1583520, Note_on_c, 0, 62, 0
1, 1583520, Note_on_c, 0, 62, 100
1, 1584000, Note_on_c, 0, 62, 0
1, 1584000, Note_on_c, 0, 54, 100
1, 1584480, Note_on_c, 0, 54, 0
1, 1584480, Note_on_c, 0, 55, 100
1, 1584960, Note_on_c, 0, 55, 0
1, 1584960, Note_on_c, 0, 52, 100
1, 1585440, Note_on_c, 0, 52, 0
1, 1585440, Note_on_c, 0, 64, 100
1, 1585680, Note_on_c, 0, 64, 0
1, 1585680, Note_on_c, 0, 62, 100
1, 1585920, Note_on_c, 0, 62, 0
1, 1585920, Note_on_c, 0, 60, 100
1, 1586160, Note_on_c, 0, 60, 0
1, 1586160, Note_on_c, 0, 59, 100
1, 1586400, Note_on_c, 0, 59, 0
1, 1586400, Note_on_c, 0, 60, 100
1, 1586880, Note_on_c, 0, 60, 0
1, 1586880, Note_on_c, 0, 45, 100
1, 1587120, Note_on_c, 0, 45, 0
1, 1587120, Note_on_c, 0, 47, 100
1, 1587360, Note_on_c, 0, 47, 0
1, 1587360, Note_on_c, 0, 48, 100
1, 1587600, Note_on_c, 0, 48, 0
1, 1587600, Note_on_c, 0, 50, 100
1, 1587840, Note_on_c, 0, 50, 0
1, 1587840, Note_on_c, 0, 52, 100
1, 1588320, Note_on_c, 0, 52, 0
1, 1588320, Note_on_c, 0, 45, 100
1, 1588800, Note_on_c, 0, 45, 0
1, 1588800, Note_on_c, 0, 60, 100
1, 1589280, Note_on_c, 0, 60, 0
1, 1589280, Note_on_c, 0, 60, 100
1, 1589760, Note_on_c, 0, 60, 0
1, 1589760, Note_on_c, 0, 52, 100
1, 1590240, Note_on_c, 0, 52, 0
1, 1590240, Note_on_c, 0, 54, 100
1, 1590720, Note_on_c, 0, 54, 0
1, 1590720, Note_on_c, 0, 50, 100
1, 1591200, Note_on_c, 0, 50, 0
1, 1591200, Note_on_c, 0, 62, 100
1, 1591440, Note_on_c, 0, 62, 0
1, 1591440, Note_on_c, 0, 60, 100
1, 1591680, Note_on_c, 0, 60, 0
1, 1591680, Note_on_c, 0, 59, 100
1, 1591920, Note_on_c, 0, 59, 0
1, 1591920, Note_on_c, 0, 57, 100
1, 1592160, Note_on_c, 0, 57, 0
1, 1592160, Note_on_c, 0, 59, 100
1, 1592640, Note_on_c, 0, 59, 0
1, 1592640, Note_on_c, 0, 43, 100
1, 1592880, Note_on_c, 0, 43, 0
1, 1592880, Note_on_c, 0, 45, 100
1, 1593120, Note_on_c, 0, 45, 0
1, 1593120, Note_on_c, 0, 47, 100
1, 1593360, Note_on_c, 0, 47, 0
1, 1593360, Note_on_c, 0, 48, 100
1, 1593600, Note_on_c, 0, 48, 0
1, 1593600, Note_on_c, 0, 50, 100
1, 1594080, Note_on_c, 0, 50, 0
1, 1594080, Note_on_c, 0, 43, 100
1, 1594560, Note_on_c, 0, 43, 0
1, 1594560, Note_on_c, 0, 59, 100
1, 1595040, Note_on_c, 0, 59, 0
1, 1595040, Note_on_c, 0, 59, 100
1, 1595520, Note_on_c, 0, 59, 0
1, 1595520, Note_on_c, 0, 50, 100
1, 1596000, Note_on_c, 0, 50, 0
1, 1596000, Note_on_c, 0, 52, 100
1, 1596480, Note_on_c, 0, 52, 0
1, 1596480, Note_on_c, 0, 48, 100
1, 1596960, Note_on_c, 0, 48, 0
1, 1596960, Note_on_c, 0, 60, 100
1, 1597200, Note_on_c, 0, 60, 0
1, 1597200, Note_on_c, 0, 59, 100
1, 1597440, Note_on_c, 0, 59, 0
1, 1597440, Note_on_c, 0, 57, 100
1, 1597680, Note_on_c, 0, 57, 0
1, 1597680, Note_on_c, 0, 55, 100
1, 1597920, Note_on_c, 0, 55, 0
1, 1597920, Note_on_c, 0, 54, 100
1, 1598160, Note_on_c, 0, 54, 0
1, 1598160, Note_on_c, 0, 57, 100
1, 1598400, Note_on_c, 0, 57, 0
1, 1598400, Note_on_c, 0, 55, 100
1, 1598640, Note_on_c, 0, 55, 0
1, 1598640, Note_on_c, 0, 54, 100
1, 1598880, Note_on_c, 0, 54, 0
1, 1598880, Note_on_c, 0, 52, 100
1, 1599120, Note_on_c, 0, 52, 0
1, 1599120, Note_on_c, 0, 50, 100
1, 1599360, Note_on_c, 0, 50, 0
1, 1599360, Note_on_c, 0, 50, 100
1, 1600320, Note_on_c, 0, 50, 0
1, 1600320, Note_on_c, 0, 50, 100
1, 1600800, Note_on_c, 0, 50, 0
1, 1600800, Note_on_c, 0, 48, 100
1, 1601040, Note_on_c, 0, 48, 0
1, 1601280, Note_on_c, 0, 47, 100
1, 1601520, Note_on_c, 0, 47, 0
1, 1601760, Note_on_c, 0, 45, 100
1, 1602000, Note_on_c, 0, 45, 0
1, 1602240, Note_on_c, 0, 47, 100
1, 1602480, Note_on_c, 0, 47, 0
1, 1602720, Note_on_c, 0, 45, 100
1, 1602960, Note_on_c, 0, 45, 0
1, 1603200, Note_on_c, 0, 47, 100
1, 1603440, Note_on_c, 0, 47, 0
1, 1603680, Note_on_c, 0, 48, 100
1, 1603920, Note_on_c, 0, 48, 0
1, 1604160, Note_on_c, 0, 47, 100
1, 1604400, Note_on_c, 0, 47, 0
1, 1604640, Note_on_c, 0, 45, 100
1, 1604880, Note_on_c, 0, 45, 0
1, 1605120, Note_on_c, 0, 47, 100
1, 1605360, Note_on_c, 0, 47, 0
1, 1605600, Note_on_c, 0, 45, 100
1, 1605840, Note_on_c, 0, 45, 0
1, 1606080, Note_on_c, 0, 43, 100
1, 1606320, Note_on_c, 0, 43, 0
1, 1606560, Note_on_c, 0, 53, 100
1, 1606800, Note_on_c, 0, 53, 0
1, 1607056, Note_on_c, 0, 52, 100
1, 1607280, Note_on_c, 0, 52, 0
1, 1607520, Note_on_c, 0, 50, 100
1, 1607760, Note_on_c, 0, 50, 0
1, 1607995, Note_on_c, 0, 52, 100
1, 1608240, Note_on_c, 0, 52, 0
1, 1608480, Note_on_c, 0, 50, 100
1, 1608720, Note_on_c, 0, 50, 0
1, 1608960, Note_on_c, 0, 52, 100
1, 1609200, Note_on_c, 0, 52, 0
1, 1609440, Note_on_c, 0, 53, 100
1, 1609680, Note_on_c, 0, 53, 0
1, 1609920, Note_on_c, 0, 52, 100
1, 1610160, Note_on_c, 0, 52, 0
1, 1610400, Note_on_c, 0, 50, 100
1, 1610640, Note_on_c, 0, 50, 0
1, 1610880, Note_on_c, 0, 52, 100
1, 1611120, Note_on_c, 0, 52, 0
1, 1611360, Note_on_c, 0, 54, 100
1, 1611600, Note_on_c, 0, 54, 0
1, 1611840, Note_on_c, 0, 55, 100
1, 1612080, Note_on_c, 0, 55, 0
1, 1612320, Note_on_c, 0, 54, 100
1, 1612560, Note_on_c, 0, 54, 0
1, 1612800, Note_on_c, 0, 55, 100
1, 1613040, Note_on_c, 0, 55, 0
1, 1613280, Note_on_c, 0, 57, 100
1, 1613520, Note_on_c, 0, 57, 0
1, 1613760, Note_on_c, 0, 55, 100
1, 1614000, Note_on_c, 0, 55, 0
1, 1614240, Note_on_c, 0, 57, 100
1, 1614480, Note_on_c, 0, 57, 0
1, 1614720, Note_on_c, 0, 59, 100
1, 1614960, Note_on_c, 0, 59, 0
1, 1615200, Note_on_c, 0, 57, 100
1, 1615440, Note_on_c, 0, 57, 0
1, 1615680, Note_on_c, 0, 59, 100
1, 1615920, Note_on_c, 0, 59, 0
1, 1616160, Note_on_c, 0, 60, 100
1, 1616640, Note_on_c, 0, 60, 0
1, 1616640, Note_on_c, 0, 50, 100
1, 1617600, Note_on_c, 0, 50, 0
1, 1617600, Note_on_c, 0, 57, 100
1, 1618080, Note_on_c, 0, 57, 0
1, 1618080, Note_on_c, 0, 60, 100
1, 1618320, Note_on_c, 0, 60, 0
1, 1618320, Note_on_c, 0, 62, 100
1, 1618560, Note_on_c, 0, 62, 0
1, 1618560, Note_on_c, 0, 63, 100
1, 1619040, Note_on_c, 0, 63, 0
1, 1619040, Note_on_c, 0, 62, 100
1, 1619520, Note_on_c, 0, 62, 0
1, 1619520, Note_on_c, 0, 60, 100
1, 1620000, Note_on_c, 0, 60, 0
1, 1620000, Note_on_c, 0, 58, 100
1, 1620480, Note_on_c, 0, 58, 0
1, 1620480, Note_on_c, 0, 57, 100
1, 1620960, Note_on_c, 0, 57, 0
1, 1620960, Note_on_c, 0, 66, 100
1, 1621440, Note_on_c, 0, 66, 0
1, 1621440, Note_on_c, 0, 67, 100
1, 1621920, Note_on_c, 0, 67, 0
1, 1621920, Note_on_c, 0, 57, 100
1, 1622400, Note_on_c, 0, 57, 0
1, 1622400, Note_on_c, 0, 66, 100
1, 1622880, Note_on_c, 0, 66, 0
1, 1622880, Note_on_c, 0, 67, 100
1, 1623360, Note_on_c, 0, 67, 0
1, 1623360, Note_on_c, 0, 57, 100
1, 1623840, Note_on_c, 0, 57, 0
1, 1623840, Note_on_c, 0, 60, 100
1, 1624080, Note_on_c, 0, 60, 0
1, 1624080, Note_on_c, 0, 62, 100
1, 1624320, Note_on_c, 0, 62, 0
1, 1624320, Note_on_c, 0, 63, 100
1, 1624800, Note_on_c, 0, 63, 0
1, 1624800, Note_on_c, 0, 62, 100
1, 1625280, Note_on_c, 0, 62, 0
1, 1625280, Note_on_c, 0, 60, 100
1, 1625760, Note_on_c, 0, 60, 0
1, 1625760, Note_on_c, 0, 58, 100
1, 1626240, Note_on_c, 0, 58, 0
1, 1626240, Note_on_c, 0, 57, 100
1, 1626720, Note_on_c, 0, 57, 0
1, 1626720, Note_on_c, 0, 61, 100
1, 1627200, Note_on_c, 0, 61, 0
1, 1627200, Note_on_c, 0, 62, 100
1, 1627680, Note_on_c, 0, 62, 0
1, 1627680, Note_on_c, 0, 57, 100
1, 1628160, Note_on_c, 0, 57, 0
1, 1628160, Note_on_c, 0, 61, 100
1, 1628640, Note_on_c, 0, 61, 0
1, 1628640, Note_on_c, 0, 62, 100
1, 1629120, Note_on_c, 0, 62, 0
1, 1629120, Note_on_c, 0, 50, 100
1, 1629600, Note_on_c, 0, 50, 0
1, 1629600, Note_on_c, 0, 43, 100
1, 1629840, Note_on_c, 0, 43, 0
1, 1629840, Note_on_c, 0, 47, 100
1, 1630080, Note_on_c, 0, 47, 0
1, 1630080, Note_on_c, 0, 50, 100
1, 1630560, Note_on_c, 0, 50, 0
1, 1630560, Note_on_c, 0, 52, 100
1, 1631040, Note_on_c, 0, 52, 0
1, 1631040, Note_on_c, 0, 45, 100
1, 1631280, Note_on_c, 0, 45, 0
1, 1631280, Note_on_c, 0, 48, 100
1, 1631520, Note_on_c, 0, 48, 0
1, 1631520, Note_on_c, 0, 52, 100
1, 1632000, Note_on_c, 0, 52, 0
1, 1632000, Note_on_c, 0, 54, 100
1, 1632480, Note_on_c, 0, 54, 0
1, 1632480, Note_on_c, 0, 47, 100
1, 1632720, Note_on_c, 0, 47, 0
1, 1632720, Note_on_c, 0, 50, 100
1, 1632960, Note_on_c, 0, 50, 0
1, 1632960, Note_on_c, 0, 55, 100
1, 1633200, Note_on_c, 0, 55, 0
1, 1633200, Note_on_c, 0, 52, 100
1, 1633440, Note_on_c, 0, 52, 0
1, 1633440, Note_on_c, 0, 53, 100
1, 1633680, Note_on_c, 0, 53, 0
1, 1633680, Note_on_c, 0, 50, 100
1, 1633920, Note_on_c, 0, 50, 0
1, 1633920, Note_on_c, 0, 48, 100
1, 1634160, Note_on_c, 0, 48, 0
1, 1634160, Note_on_c, 0, 52, 100
1, 1634400, Note_on_c, 0, 52, 0
1, 1634400, Note_on_c, 0, 57, 100
1, 1634640, Note_on_c, 0, 57, 0
1, 1634640, Note_on_c, 0, 59, 100
1, 1634880, Note_on_c, 0, 59, 0
1, 1634880, Note_on_c, 0, 60, 100
1, 1635120, Note_on_c, 0, 60, 0
1, 1635120, Note_on_c, 0, 57, 100
1, 1635360, Note_on_c, 0, 57, 0
1, 1635360, Note_on_c, 0, 62, 100
1, 1635600, Note_on_c, 0, 62, 0
1, 1635600, Note_on_c, 0, 57, 100
1, 1635840, Note_on_c, 0, 57, 0
1, 1635840, Note_on_c, 0, 54, 100
1, 1636080, Note_on_c, 0, 54, 0
1, 1636080, Note_on_c, 0, 52, 100
1, 1636320, Note_on_c, 0, 52, 0
1, 1636320, Note_on_c, 0, 50, 100
1, 1636560, Note_on_c, 0, 50, 0
1, 1636560, Note_on_c, 0, 48, 100
1, 1636800, Note_on_c, 0, 48, 0
1, 1636800, Note_on_c, 0, 47, 100
1, 1637040, Note_on_c, 0, 47, 0
1, 1637040, Note_on_c, 0, 50, 100
1, 1637280, Note_on_c, 0, 50, 0
1, 1637280, Note_on_c, 0, 55, 100
1, 1637520, Note_on_c, 0, 55, 0
1, 1637520, Note_on_c, 0, 47, 100
1, 1637760, Note_on_c, 0, 47, 0
1, 1637760, Note_on_c, 0, 45, 100
1, 1638000, Note_on_c, 0, 45, 0
1, 1638000, Note_on_c, 0, 54, 100
1, 1638240, Note_on_c, 0, 54, 0
1, 1638240, Note_on_c, 0, 55, 100
1, 1638720, Note_on_c, 0, 55, 0
1, 1638720, Note_on_c, 0, 50, 100
1, 1639200, Note_on_c, 0, 50, 0
1, 1639200, Note_on_c, 0, 47, 100
1, 1639680, Note_on_c, 0, 47, 0
1, 1639680, Note_on_c, 0, 43, 100
1, 1640640, Note_on_c, 0, 43, 0
1, 1640640, Note_on_c, 0, 55, 100
1, 1641120, Note_on_c, 0, 55, 0
1, 1641120, Note_on_c, 0, 60, 100
1, 1641600, Note_on_c, 0, 60, 0
1, 1641600, Note_on_c, 0, 48, 100
1, 1641840, Note_on_c, 0, 48, 0
1, 1641840, Note_on_c, 0, 50, 100
1, 1642080, Note_on_c, 0, 50, 0
1, 1642080, Note_on_c, 0, 52, 100
1, 1642320, Note_on_c, 0, 52, 0
1, 1642320, Note_on_c, 0, 53, 100
1, 1642560, Note_on_c, 0, 53, 0
1, 1642560, Note_on_c, 0, 55, 100
1, 1643040, Note_on_c, 0, 55, 0
1, 1643040, Note_on_c, 0, 57, 100
1, 1643520, Note_on_c, 0, 57, 0
1, 1643520, Note_on_c, 0, 59, 100
1, 1644000, Note_on_c, 0, 59, 0
1, 1644000, Note_on_c, 0, 60, 100
1, 1644480, Note_on_c, 0, 60, 0
1, 1644480, Note_on_c, 0, 55, 100
1, 1644960, Note_on_c, 0, 55, 0
1, 1644960, Note_on_c, 0, 64, 100
1, 1645440, Note_on_c, 0, 64, 0
1, 1645440, Note_on_c, 0, 60, 100
1, 1645920, Note_on_c, 0, 60, 0
1, 1645920, Note_on_c, 0, 55, 100
1, 1646400, Note_on_c, 0, 55, 0
1, 1646400, Note_on_c, 0, 64, 100
1, 1646880, Note_on_c, 0, 64, 0
1, 1646880, Note_on_c, 0, 62, 100
1, 1647120, Note_on_c, 0, 62, 0
1, 1647120, Note_on_c, 0, 60, 100
1, 1647360, Note_on_c, 0, 60, 0
1, 1647360, Note_on_c, 0, 62, 100
1, 1647600, Note_on_c, 0, 62, 0
1, 1647600, Note_on_c, 0, 64, 100
1, 1647840, Note_on_c, 0, 64, 0
1, 1647840, Note_on_c, 0, 65, 100
1, 1648320, Note_on_c, 0, 65, 0
1, 1648320, Note_on_c, 0, 59, 100
1, 1648800, Note_on_c, 0, 59, 0
1, 1648800, Note_on_c, 0, 60, 100
1, 1649280, Note_on_c, 0, 60, 0
1, 1649280, Note_on_c, 0, 52, 100
1, 1649760, Note_on_c, 0, 52, 0
1, 1649760, Note_on_c, 0, 43, 100
1, 1650240, Note_on_c, 0, 43, 0
1, 1650240, Note_on_c, 0, 50, 100
1, 1650720, Note_on_c, 0, 50, 0
1, 1650720, Note_on_c, 0, 60, 100
1, 1651200, Note_on_c, 0, 60, 0
1, 1651200, Note_on_c, 0, 59, 100
1, 1651680, Note_on_c, 0, 59, 0
1, 1651680, Note_on_c, 0, 55, 100
1, 1652160, Note_on_c, 0, 55, 0
1, 1652160, Note_on_c, 0, 62, 100
1, 1652640, Note_on_c, 0, 62, 0
1, 1652640, Note_on_c, 0, 62, 100
1, 1653120, Note_on_c, 0, 62, 0
1, 1653120, Note_on_c, 0, 54, 100
1, 1653600, Note_on_c, 0, 54, 0
1, 1653600, Note_on_c, 0, 55, 100
1, 1654080, Note_on_c, 0, 55, 0
1, 1654080, Note_on_c, 0, 52, 100
1, 1654560, Note_on_c, 0, 52, 0
1, 1654560, Note_on_c, 0, 64, 100
1, 1654800, Note_on_c, 0, 64, 0
1, 1654800, Note_on_c, 0, 62, 100
1, 1655040, Note_on_c, 0, 62, 0
1, 1655040, Note_on_c, 0, 60, 100
1, 1655280, Note_on_c, 0, 60, 0
1, 1655280, Note_on_c, 0, 59, 100
1, 1655520, Note_on_c, 0, 59, 0
1, 1655520, Note_on_c, 0, 60, 100
1, 1656000, Note_on_c, 0, 60, 0
1, 1656000, Note_on_c, 0, 45, 100
1, 1656240, Note_on_c, 0, 45, 0
1, 1656240, Note_on_c, 0, 47, 100
1, 1656480, Note_on_c, 0, 47, 0
1, 1656480, Note_on_c, 0, 48, 100
1, 1656720, Note_on_c, 0, 48, 0
1, 1656720, Note_on_c, 0, 50, 100
1, 1656960, Note_on_c, 0, 50, 0
1, 1656960, Note_on_c, 0, 52, 100
1, 1657440, Note_on_c, 0, 52, 0
1, 1657440, Note_on_c, 0, 45, 100
1, 1657920, Note_on_c, 0, 45, 0
1, 1657920, Note_on_c, 0, 60, 100
1, 1658400, Note_on_c, 0, 60, 0
1, 1658400, Note_on_c, 0, 60, 100
1, 1658880, Note_on_c, 0, 60, 0
1, 1658880, Note_on_c, 0, 52, 100
1, 1659360, Note_on_c, 0, 52, 0
1, 1659360, Note_on_c, 0, 54, 100
1, 1659840, Note_on_c, 0, 54, 0
1, 1659840, Note_on_c, 0, 50, 100
1, 1660320, Note_on_c, 0, 50, 0
1, 1660320, Note_on_c, 0, 62, 100
1, 1660560, Note_on_c, 0, 62, 0
1, 1660560, Note_on_c, 0, 60, 100
1, 1660800, Note_on_c, 0, 60, 0
1, 1660800, Note_on_c, 0, 59, 100
1, 1661040, Note_on_c, 0, 59, 0
1, 1661040, Note_on_c, 0, 57, 100
1, 1661280, Note_on_c, 0, 57, 0
1, 1661280, Note_on_c, 0, 59, 100
1, 1661760, Note_on_c, 0, 59, 0
1, 1661760, Note_on_c, 0, 43, 100
1, 1662000, Note_on_c, 0, 43, 0
1, 1662000, Note_on_c, 0, 45, 100
1, 1662240, Note_on_c, 0, 45, 0
1, 1662240, Note_on_c, 0, 47, 100
1, 1662480, Note_on_c, 0, 47, 0
1, 1662480, Note_on_c, 0, 48, 100
1, 1662720, Note_on_c, 0, 48, 0
1, 1662720, Note_on_c, 0, 50, 100
1, 1663200, Note_on_c, 0, 50, 0
1, 1663200, Note_on_c, 0, 43, 100
1, 1663680, Note_on_c, 0, 43, 0
1, 1663680, Note_on_c, 0, 59, 100
1, 1664160, Note_on_c, 0, 59, 0
1, 1664160, Note_on_c, 0, 59, 100
1, 1664640, Note_on_c, 0, 59, 0
1, 1664640, Note_on_c, 0, 50, 100
1, 1665120, Note_on_c, 0, 50, 0
1, 1665120, Note_on_c, 0, 52, 100
1, 1665600, Note_on_c, 0, 52, 0
1, 1665600, Note_on_c, 0, 48, 100
1, 1666080, Note_on_c, 0, 48, 0
1, 1666080, Note_on_c, 0, 60, 100
1, 1666320, Note_on_c, 0, 60, 0
1, 1666320, Note_on_c, 0, 59, 100
1, 1666560, Note_on_c, 0, 59, 0
1, 1666560, Note_on_c, 0, 57, 100
1, 1666800, Note_on_c, 0, 57, 0
1, 1666800, Note_on_c, 0, 55, 100
1, 1667040, Note_on_c, 0, 55, 0
1, 1667040, Note_on_c, 0, 54, 100
1, 1667280, Note_on_c, 0, 54, 0
1, 1667280, Note_on_c, 0, 57, 100
1, 1667520, Note_on_c, 0, 57, 0
1, 1667520, Note_on_c, 0, 55, 100
1, 1667760, Note_on_c, 0, 55, 0
1, 1667760, Note_on_c, 0, 54, 100
1, 1668000, Note_on_c, 0, 54, 0
1, 1668000, Note_on_c, 0, 52, 100
1, 1668240, Note_on_c, 0, 52, 0
1, 1668240, Note_on_c, 0, 50, 100
1, 1668480, Note_on_c, 0, 50, 0
1, 1668480, Note_on_c, 0, 50, 100
1, 1669440, Note_on_c, 0, 50, 0
1, 1669440, Note_on_c, 0, 50, 100
1, 1669920, Note_on_c, 0, 50, 0
1, 1669920, Note_on_c, 0, 48, 100
1, 1670160, Note_on_c, 0, 48, 0
1, 1670400, Note_on_c, 0, 47, 100
1, 1670640, Note_on_c, 0, 47, 0
1, 1670880, Note_on_c, 0, 45, 100
1, 1671120, Note_on_c, 0, 45, 0
1, 1671360, Note_on_c, 0, 47, 100
1, 1671600, Note_on_c, 0, 47, 0
1, 1671840, Note_on_c, 0, 45, 100
1, 1672080, Note_on_c, 0, 45, 0
1, 1672320, Note_on_c, 0, 47, 100
1, 1672560, Note_on_c, 0, 47, 0
1, 1672800, Note_on_c, 0, 48, 100
1, 1673040, Note_on_c, 0, 48, 0
1, 1673280, Note_on_c, 0, 47, 100
1, 1673520, Note_on_c, 0, 47, 0
1, 1673760, Note_on_c, 0, 45, 100
1, 1674000, Note_on_c, 0, 45, 0
1, 1674240, Note_on_c, 0, 47, 100
1, 1674480, Note_on_c, 0, 47, 0
1, 1674720, Note_on_c, 0, 45, 100
1, 1674960, Note_on_c, 0, 45, 0
1, 1675200, Note_on_c, 0, 43, 100
1, 1675440, Note_on_c, 0, 43, 0
1, 1675680, Note_on_c, 0, 53, 100
1, 1675920, Note_on_c, 0, 53, 0
1, 1676160, Note_on_c, 0, 52, 100
1, 1676400, Note_on_c, 0, 52, 0
1, 1676640, Note_on_c, 0, 50, 100
1, 1676880, Note_on_c, 0, 50, 0
1, 1677120, Note_on_c, 0, 52, 100
1, 1677360, Note_on_c, 0, 52, 0
1, 1677600, Note_on_c, 0, 50, 100
1, 1677840, Note_on_c, 0, 50, 0
1, 1678080, Note_on_c, 0, 52, 100
1, 1678320, Note_on_c, 0, 52, 0
1, 1678560, Note_on_c, 0, 53, 100
1, 1678800, Note_on_c, 0, 53, 0
1, 1679040, Note_on_c, 0, 52, 100
1, 1679280, Note_on_c, 0, 52, 0
1, 1679520, Note_on_c, 0, 50, 100
1, 1679760, Note_on_c, 0, 50, 0
1, 1680000, Note_on_c, 0, 52, 100
1, 1680240, Note_on_c, 0, 52, 0
1, 1680480, Note_on_c, 0, 54, 100
1, 1680720, Note_on_c, 0, 54, 0
1, 1680960, Note_on_c, 0, 55, 100
1, 1681200, Note_on_c, 0, 55, 0
1, 1681440, Note_on_c, 0, 54, 100
1, 1681680, Note_on_c, 0, 54, 0
1, 1681920, Note_on_c, 0, 55, 100
1, 1682160, Note_on_c, 0, 55, 0
1, 1682400, Note_on_c, 0, 57, 100
1, 1682640, Note_on_c, 0, 57, 0
1, 1682880, Note_on_c, 0, 55, 100
1, 1683120, Note_on_c, 0, 55, 0
1, 1683360, Note_on_c, 0, 57, 100
1, 1683600, Note_on_c, 0, 57, 0
1, 1683840, Note_on_c, 0, 59, 100
1, 1684080, Note_on_c, 0, 59, 0
1, 1684320, Note_on_c, 0, 57, 100
1, 1684560, Note_on_c, 0, 57, 0
1, 1684800, Note_on_c, 0, 59, 100
1, 1685040, Note_on_c, 0, 59, 0
1, 1685280, Note_on_c, 0, 60, 100
1, 1685760, Note_on_c, 0, 60, 0
1, 1685760, Note_on_c, 0, 50, 100
1, 1686720, Note_on_c, 0, 50, 0
1, 1686720, Note_on_c, 0, 57, 100
1, 1687200, Note_on_c, 0, 57, 0
1, 1687200, Note_on_c, 0, 60, 100
1, 1687440, Note_on_c, 0, 60, 0
1, 1687440, Note_on_c, 0, 62, 100
1, 1687680, Note_on_c, 0, 62, 0
1, 1687680, Note_on_c, 0, 63, 100
1, 1688160, Note_on_c, 0, 63, 0
1, 1688160, Note_on_c, 0, 62, 100
1, 1688640, Note_on_c, 0, 62, 0
1, 1688640, Note_on_c, 0, 60, 100
1, 1689120, Note_on_c, 0, 60, 0
1, 1689120, Note_on_c, 0, 58, 100
1, 1689600, Note_on_c, 0, 58, 0
1, 1689600, Note_on_c, 0, 57, 100
1, 1690080, Note_on_c, 0, 57, 0
1, 1690080, Note_on_c, 0, 66, 100
1, 1690560, Note_on_c, 0, 66, 0
1, 1690560, Note_on_c, 0, 67, 100
1, 1691040, Note_on_c, 0, 67, 0
1, 1691040, Note_on_c, 0, 57, 100
1, 1691520, Note_on_c, 0, 57, 0
1, 1691520, Note_on_c, 0, 66, 100
1, 1692000, Note_on_c, 0, 66, 0
1, 1692000, Note_on_c, 0, 67, 100
1, 1692480, Note_on_c, 0, 67, 0
1, 1692480, Note_on_c, 0, 57, 100
1, 1692960, Note_on_c, 0, 57, 0
1, 1692960, Note_on_c, 0, 60, 100
1, 1693200, Note_on_c, 0, 60, 0
1, 1693200, Note_on_c, 0, 62, 100
1, 1693440, Note_on_c, 0, 62, 0
1, 1693440, Note_on_c, 0, 63, 100
1, 1693920, Note_on_c, 0, 63, 0
1, 1693920, Note_on_c, 0, 62, 100
1, 1694400, Note_on_c, 0, 62, 0
1, 1694400, Note_on_c, 0, 60, 100
1, 1694880, Note_on_c, 0, 60, 0
1, 1694880, Note_on_c, 0, 58, 100
1, 1695360, Note_on_c, 0, 58, 0
1, 1695360, Note_on_c, 0, 57, 100
1, 1695840, Note_on_c, 0, 57, 0
1, 1695840, Note_on_c, 0, 61, 100
1, 1696320, Note_on_c, 0, 61, 0
1, 1696320, Note_on_c, 0, 62, 100
1, 1696800, Note_on_c, 0, 62, 0
1, 1696800, Note_on_c, 0, 57, 100
1, 1697280, Note_on_c, 0, 57, 0
1, 1697280, Note_on_c, 0, 61, 100
1, 1697760, Note_on_c, 0, 61, 0
1, 1697760, Note_on_c, 0, 62, 100
1, 1698240, Note_on_c, 0, 62, 0
1, 1698240, Note_on_c, 0, 50, 100
1, 1698720, Note_on_c, 0, 50, 0
1, 1698720, Note_on_c, 0, 43, 100
1, 1698960, Note_on_c, 0, 43, 0
1, 1698960, Note_on_c, 0, 47, 100
1, 1699200, Note_on_c, 0, 47, 0
1, 1699200, Note_on_c, 0, 50, 100
1, 1699680, Note_on_c, 0, 50, 0
1, 1699680, Note_on_c, 0, 52, 100
1, 1700160, Note_on_c, 0, 52, 0
1, 1700160, Note_on_c, 0, 45, 100
1, 1700400, Note_on_c, 0, 45, 0
1, 1700400, Note_on_c, 0, 48, 100
1, 1700640, Note_on_c, 0, 48, 0
1, 1700640, Note_on_c, 0, 52, 100
1, 1701120, Note_on_c, 0, 52, 0
1, 1701120, Note_on_c, 0, 54, 100
1, 1701600, Note_on_c, 0, 54, 0
1, 1701600, Note_on_c, 0, 47, 100
1, 1701840, Note_on_c, 0, 47, 0
1, 1701840, Note_on_c, 0, 50, 100
1, 1702080, Note_on_c, 0, 50, 0
1, 1702080, Note_on_c, 0, 55, 100
1, 1702320, Note_on_c, 0, 55, 0
1, 1702320, Note_on_c, 0, 52, 100
1, 1702560, Note_on_c, 0, 52, 0
1, 1702560, Note_on_c, 0, 53, 100
1, 1702800, Note_on_c, 0, 53, 0
1, 1702800, Note_on_c, 0, 50, 100
1, 1703040, Note_on_c, 0, 50, 0
1, 1703040, Note_on_c, 0, 48, 100
1, 1703280, Note_on_c, 0, 48, 0
1, 1703280, Note_on_c, 0, 52, 100
1, 1703520, Note_on_c, 0, 52, 0
1, 1703520, Note_on_c, 0, 57, 100
1, 1703760, Note_on_c, 0, 57, 0
1, 1703760, Note_on_c, 0, 59, 100
1, 1704000, Note_on_c, 0, 59, 0
1, 1704000, Note_on_c, 0, 60, 100
1, 1704240, Note_on_c, 0, 60, 0
1, 1704240, Note_on_c, 0, 57, 100
1, 1704480, Note_on_c, 0, 57, 0
1, 1704480, Note_on_c, 0, 62, 100
1, 1704720, Note_on_c, 0, 62, 0
1, 1704720, Note_on_c, 0, 57, 100
1, 1704960, Note_on_c, 0, 57, 0
1, 1704960, Note_on_c, 0, 54, 100
1, 1705200, Note_on_c, 0, 54, 0
1, 1705200, Note_on_c, 0, 52, 100
1, 1705440, Note_on_c, 0, 52, 0
1, 1705440, Note_on_c, 0, 50, 100
1, 1705680, Note_on_c, 0, 50, 0
1, 1705680, Note_on_c, 0, 48, 100
1, 1705920, Note_on_c, 0, 48, 0
1, 1705920, Note_on_c, 0, 47, 100
1, 1706160, Note_on_c, 0, 47, 0
1, 1706160, Note_on_c, 0, 50, 100
1, 1706400, Note_on_c, 0, 50, 0
1, 1706400, Note_on_c, 0, 55, 100
1, 1706640, Note_on_c, 0, 55, 0
1, 1706640, Note_on_c, 0, 47, 100
1, 1706880, Note_on_c, 0, 47, 0
1, 1706880, Note_on_c, 0, 45, 100
1, 1707120, Note_on_c, 0, 45, 0
1, 1707120, Note_on_c, 0, 54, 100
1, 1707360, Note_on_c, 0, 54, 0
1, 1707360, Note_on_c, 0, 55, 100
1, 1707840, Note_on_c, 0, 55, 0
1, 1707840, Note_on_c, 0, 50, 100
1, 1708320, Note_on_c, 0, 50, 0
1, 1708320, Note_on_c, 0, 47, 100
1, 1708800, Note_on_c, 0, 47, 0
1, 1708800, Note_on_c, 0, 43, 100
1, 1709760, Note_on_c, 0, 43, 0
1, 1709760, Note_on_c, 0, 62, 100
1, 1710000, Note_on_c, 0, 62, 0
1, 1710000, Note_on_c, 0, 60, 100
1, 1710240, Note_on_c, 0, 60, 0
1, 1710240, Note_on_c, 0, 59, 100
1, 1710480, Note_on_c, 0, 59, 0
1, 1710480, Note_on_c, 0, 60, 100
1, 1710720, Note_on_c, 0, 60, 0
1, 1710720, Note_on_c, 0, 57, 100
1, 1710960, Note_on_c, 0, 57, 0
1, 1710960, Note_on_c, 0, 59, 100
1, 1711200, Note_on_c, 0, 59, 0
1, 1711200, Note_on_c, 0, 55, 100
1, 1711440, Note_on_c, 0, 55, 0
1, 1711440, Note_on_c, 0, 57, 100
1, 1711680, Note_on_c, 0, 57, 0
1, 1711680, Note_on_c, 0, 53, 100
1, 1711920, Note_on_c, 0, 53, 0
1, 1711920, Note_on_c, 0, 55, 100
1, 1712160, Note_on_c, 0, 55, 0
1, 1712160, Note_on_c, 0, 52, 100
1, 1712400, Note_on_c, 0, 52, 0
1, 1712400, Note_on_c, 0, 53, 100
1, 1712640, Note_on_c, 0, 53, 0
1, 1712640, Note_on_c, 0, 50, 100
1, 1712880, Note_on_c, 0, 50, 0
1, 1712880, Note_on_c, 0, 52, 100
1, 1713120, Note_on_c, 0, 52, 0
1, 1713120, Note_on_c, 0, 48, 100
1, 1713360, Note_on_c, 0, 48, 0
1, 1713360, Note_on_c, 0, 55, 100
1, 1713600, Note_on_c, 0, 55, 0
1, 1713600, Note_on_c, 0, 57, 100
1, 1713840, Note_on_c, 0, 57, 0
1, 1713840, Note_on_c, 0, 59, 100
1, 1714080, Note_on_c, 0, 59, 0
1, 1714080, Note_on_c, 0, 60, 100
1, 1714320, Note_on_c, 0, 60, 0
1, 1714320, Note_on_c, 0, 62, 100
1, 1714560, Note_on_c, 0, 62, 0
1, 1714560, Note_on_c, 0, 64, 100
1, 1715040, Note_on_c, 0, 64, 0
1, 1715040, Note_on_c, 0, 36, 100
1, 1715520, Note_on_c, 0, 36, 0
1, 1715520, Note_on_c, 0, 64, 100
1, 1716000, Note_on_c, 0, 64, 0
1, 1716000, Note_on_c, 0, 53, 100
1, 1716240, Note_on_c, 0, 53, 0
1, 1716240, Note_on_c, 0, 57, 100
1, 1716480, Note_on_c, 0, 57, 0
1, 1716480, Note_on_c, 0, 59, 100
1, 1716720, Note_on_c, 0, 59, 0
1, 1716720, Note_on_c, 0, 60, 100
1, 1716960, Note_on_c, 0, 60, 0
1, 1716960, Note_on_c, 0, 62, 100
1, 1717200, Note_on_c, 0, 62, 0
1, 1717200, Note_on_c, 0, 60, 100
1, 1717440, Note_on_c, 0, 60, 0
1, 1717440, Note_on_c, 0, 50, 100
1, 1717680, Note_on_c, 0, 50, 0
1, 1717680, Note_on_c, 0, 54, 100
1, 1717920, Note_on_c, 0, 54, 0
1, 1717920, Note_on_c, 0, 56, 100
1, 1718160, Note_on_c, 0, 56, 0
1, 1718160, Note_on_c, 0, 57, 100
1, 1718400, Note_on_c, 0, 57, 0
1, 1718400, Note_on_c, 0, 59, 100
1, 1718640, Note_on_c, 0, 59, 0
1, 1718640, Note_on_c, 0, 57, 100
1, 1718880, Note_on_c, 0, 57, 0
1, 1718880, Note_on_c, 0, 56, 100
1, 1719120, Note_on_c, 0, 56, 0
1, 1719120, Note_on_c, 0, 54, 100
1, 1719360, Note_on_c, 0, 54, 0
1, 1719360, Note_on_c, 0, 56, 100
1, 1719600, Note_on_c, 0, 56, 0
1, 1719600, Note_on_c, 0, 57, 100
1, 1719840, Note_on_c, 0, 57, 0
1, 1719840, Note_on_c, 0, 59, 100
1, 1720080, Note_on_c, 0, 59, 0
1, 1720080, Note_on_c, 0, 56, 100
1, 1720320, Pitch_bend_c, 0, 12288
1, 1720320, Note_on_c, 0, 56, 0
1, 1720320, Note_on_c, 0, 52, 100
1, 1720438, Pitch_bend_c, 0, 8192
1, 1720560, Pitch_bend_c, 0, 12288
1, 1720680, Pitch_bend_c, 0, 8192
1, 1721280, Note_on_c, 0, 52, 0
1, 1721280, Note_on_c, 0, 59, 100
1, 1721760, Note_on_c, 0, 59, 0
1, 1721760, Note_on_c, 0, 60, 100
1, 1722240, Note_on_c, 0, 60, 0
1, 1722240, Note_on_c, 0, 52, 100
1, 1722720, Note_on_c, 0, 52, 0
1, 1722720, Note_on_c, 0, 53, 100
1, 1723200, Note_on_c, 0, 53, 0
1, 1723200, Note_on_c, 0, 50, 100
1, 1723680, Note_on_c, 0, 50, 0
1, 1723680, Note_on_c, 0, 62, 100
1, 1723920, Note_on_c, 0, 62, 0
1, 1723920, Note_on_c, 0, 60, 100
1, 1724160, Note_on_c, 0, 60, 0
1, 1724160, Note_on_c, 0, 59, 100
1, 1724400, Note_on_c, 0, 59, 0
1, 1724400, Note_on_c, 0, 57, 100
1, 1724640, Note_on_c, 0, 57, 0
1, 1724640, Note_on_c, 0, 59, 100
1, 1725120, Note_on_c, 0, 59, 0
1, 1725120, Note_on_c, 0, 43, 100
1, 1725360, Note_on_c, 0, 43, 0
1, 1725360, Note_on_c, 0, 45, 100
1, 1725600, Note_on_c, 0, 45, 0
1, 1725600, Note_on_c, 0, 47, 100
1, 1725840, Note_on_c, 0, 47, 0
1, 1725840, Note_on_c, 0, 48, 100
1, 1726080, Note_on_c, 0, 48, 0
1, 1726080, Note_on_c, 0, 50, 100
1, 1726560, Note_on_c, 0, 50, 0
1, 1726560, Note_on_c, 0, 43, 100
1, 1727040, Note_on_c, 0, 43, 0
1, 1727040, Note_on_c, 0, 58, 100
1, 1727520, Note_on_c, 0, 58, 0
1, 1727520, Note_on_c, 0, 58, 100
1, 1728000, Note_on_c, 0, 58, 0
1, 1728000, Note_on_c, 0, 50, 100
1, 1728480, Note_on_c, 0, 50, 0
1, 1728480, Note_on_c, 0, 52, 100
1, 1728960, Note_on_c, 0, 52, 0
1, 1728960, Note_on_c, 0, 48, 100
1, 1729440, Note_on_c, 0, 48, 0
1, 1729440, Note_on_c, 0, 60, 100
1, 1729680, Note_on_c, 0, 60, 0
1, 1729680, Note_on_c, 0, 58, 100
1, 1729920, Note_on_c, 0, 58, 0
1, 1729920, Note_on_c, 0, 57, 100
1, 1730160, Note_on_c, 0, 57, 0
1, 1730160, Note_on_c, 0, 55, 100
1, 1730400, Note_on_c, 0, 55, 0
1, 1730400, Note_on_c, 0, 57, 100
1, 1730880, Note_on_c, 0, 57, 0
1, 1730880, Note_on_c, 0, 41, 100
1, 1731120, Note_on_c, 0, 41, 0
1, 1731120, Note_on_c, 0, 43, 100
1, 1731360, Note_on_c, 0, 43, 0
1, 1731360, Note_on_c, 0, 45, 100
1, 1731600, Note_on_c, 0, 45, 0
1, 1731600, Note_on_c, 0, 46, 100
1, 1731840, Note_on_c, 0, 46, 0
1, 1731840, Note_on_c, 0, 48, 100
1, 1732320, Note_on_c, 0, 48, 0
1, 1732320, Note_on_c, 0, 41, 100
1, 1732800, Note_on_c, 0, 41, 0
1, 1732800, Note_on_c, 0, 57, 100
1, 1733280, Note_on_c, 0, 57, 0
1, 1733280, Note_on_c, 0, 53, 100
1, 1733760, Note_on_c, 0, 53, 0
1, 1733760, Note_on_c, 0, 49, 100
1, 1734240, Note_on_c, 0, 49, 0
1, 1734240, Note_on_c, 0, 50, 100
1, 1734720, Note_on_c, 0, 50, 0
1, 1734720, Note_on_c, 0, 58, 100
1, 1735200, Note_on_c, 0, 58, 0
1, 1735200, Note_on_c, 0, 56, 100
1, 1735680, Note_on_c, 0, 56, 0
1, 1735680, Note_on_c, 0, 57, 100
1, 1736160, Note_on_c, 0, 57, 0
1, 1736160, Note_on_c, 0, 62, 100
1, 1736400, Note_on_c, 0, 62, 0
1, 1736400, Note_on_c, 0, 64, 100
1, 1736640, Note_on_c, 0, 64, 0
1, 1736640, Note_on_c, 0, 65, 100
1, 1737120, Note_on_c, 0, 65, 0
1, 1737120, Note_on_c, 0, 56, 100
1, 1737600, Note_on_c, 0, 56, 0
1, 1737600, Note_on_c, 0, 50, 100
1, 1738560, Note_on_c, 0, 50, 0
1, 1738560, Note_on_c, 0, 65, 100
1, 1739040, Note_on_c, 0, 65, 0
1, 1739040, Note_on_c, 0, 64, 100
1, 1739520, Note_on_c, 0, 64, 0
1, 1739520, Note_on_c, 0, 62, 100
1, 1739760, Note_on_c, 0, 62, 0
1, 1739760, Note_on_c, 0, 60, 100
1, 1740000, Note_on_c, 0, 60, 0
1, 1740000, Note_on_c, 0, 59, 100
1, 1740240, Note_on_c, 0, 59, 0
1, 1740240, Note_on_c, 0, 57, 100
1, 1740480, Note_on_c, 0, 57, 0
1, 1740480, Note_on_c, 0, 59, 100
1, 1740720, Note_on_c, 0, 59, 0
1, 1740720, Note_on_c, 0, 62, 100
1, 1740960, Note_on_c, 0, 62, 0
1, 1740960, Note_on_c, 0, 60, 100
1, 1741200, Note_on_c, 0, 60, 0
1, 1741200, Note_on_c, 0, 57, 100
1, 1741440, Note_on_c, 0, 57, 0
1, 1741440, Note_on_c, 0, 59, 100
1, 1741680, Note_on_c, 0, 59, 0
1, 1741680, Note_on_c, 0, 56, 100
1, 1741920, Note_on_c, 0, 56, 0
1, 1741920, Note_on_c, 0, 57, 100
1, 1742400, Note_on_c, 0, 57, 0
1, 1742400, Note_on_c, 0, 52, 100
1, 1742880, Note_on_c, 0, 52, 0
1, 1742880, Note_on_c, 0, 48, 100
1, 1743360, Note_on_c, 0, 48, 0
1, 1743360, Note_on_c, 0, 45, 100
1, 1744320, Note_on_c, 0, 45, 0
1, 1744320, Note_on_c, 0, 60, 100
1, 1744800, Note_on_c, 0, 60, 0
1, 1744800, Note_on_c, 0, 60, 100
1, 1745760, Note_on_c, 0, 60, 0
1, 1747200, Note_on_c, 0, 60, 100
1, 1747680, Note_on_c, 0, 60, 0
1, 1747680, Note_on_c, 0, 59, 100
1, 1748640, Note_on_c, 0, 59, 0
1, 1762320, Note_on_c, 0, 57, 100
1, 1762560, Note_on_c, 0, 57, 0
1, 1762800, Note_on_c, 0, 57, 100
1, 1763040, Note_on_c, 0, 57, 0
1, 1763280, Note_on_c, 0, 57, 100
1, 1763520, Note_on_c, 0, 57, 0
1, 1763760, Note_on_c, 0, 57, 100
1, 1764000, Note_on_c, 0, 57, 0
1, 1764240, Note_on_c, 0, 57, 100
1, 1764480, Note_on_c, 0, 57, 0
1, 1764720, Note_on_c, 0, 57, 100
1, 1764960, Note_on_c, 0, 57, 0
1, 1765200, Note_on_c, 0, 60, 100
1, 1765440, Note_on_c, 0, 60, 0
1, 1765680, Note_on_c, 0, 60, 100
1, 1765920, Note_on_c, 0, 60, 0
1, 1766160, Note_on_c, 0, 60, 100
1, 1766400, Note_on_c, 0, 60, 0
1, 1766640, Note_on_c, 0, 60, 100
1, 1766880, Note_on_c, 0, 60, 0
1, 1767120, Note_on_c, 0, 60, 100
1, 1767360, Note_on_c, 0, 60, 0
1, 1767600, Note_on_c, 0, 60, 100
1, 1767840, Note_on_c, 0, 60, 0
1, 1767840, Note_on_c, 0, 59, 100
1, 1768080, Note_on_c, 0, 59, 0
1, 1768320, Note_on_c, 0, 57, 100
1, 1768560, Note_on_c, 0, 57, 0
1, 1768800, Note_on_c, 0, 59, 100
1, 1769040, Note_on_c, 0, 59, 0
1, 1769280, Note_on_c, 0, 60, 100
1, 1769520, Note_on_c, 0, 60, 0
1, 1769760, Note_on_c, 0, 59, 100
1, 1770000, Note_on_c, 0, 59, 0
1, 1770240, Note_on_c, 0, 57, 100
1, 1770480, Note_on_c, 0, 57, 0
1, 1770720, Note_on_c, 0, 59, 100
1, 1770960, Note_on_c, 0, 59, 0
1, 1771200, Note_on_c, 0, 62, 100
1, 1771440, Note_on_c, 0, 62, 0
1, 1771680, Note_on_c, 0, 65, 100
1, 1772160, Note_on_c, 0, 65, 0
1, 1773120, Note_on_c, 0, 50, 100
1, 1773600, Note_on_c, 0, 50, 0
1, 1773600, Note_on_c, 0, 43, 100
1, 1774080, Note_on_c, 0, 43, 0
1, 1774080, Note_on_c, 0, 43, 100
1, 1774560, Note_on_c, 0, 43, 0
1, 1774560, Note_on_c, 0, 43, 100
1, 1775040, Note_on_c, 0, 43, 0
1, 1775040, Note_on_c, 0, 43, 100
1, 1775520, Note_on_c, 0, 43, 0
1, 1775520, Note_on_c, 0, 43, 100
1, 1776000, Note_on_c, 0, 43, 0
1, 1776000, Note_on_c, 0, 43, 100
1, 1776480, Note_on_c, 0, 43, 0
1, 1776480, Note_on_c, 0, 43, 100
1, 1777440, Note_on_c, 0, 43, 0
1, 1777440, Note_on_c, 0, 43, 100
1, 1777920, Note_on_c, 0, 43, 0
1, 1777920, Note_on_c, 0, 43, 100
1, 1778880, Note_on_c, 0, 43, 0
1, 1778880, Note_on_c, 0, 43, 100
1, 1779360, Note_on_c, 0, 43, 0
1, 1779360, Note_on_c, 0, 43, 100
1, 1779840, Note_on_c, 0, 43, 0
1, 1779840, Note_on_c, 0, 43, 100
1, 1780320, Note_on_c, 0, 43, 0
1, 1780320, Note_on_c, 0, 43, 100
1, 1780800, Note_on_c, 0, 43, 0
1, 1780800, Note_on_c, 0, 43, 100
1, 1781280, Note_on_c, 0, 43, 0
1, 1781280, Note_on_c, 0, 43, 100
1, 1781760, Note_on_c, 0, 43, 0
1, 1781760, Note_on_c, 0, 43, 100
1, 1782240, Note_on_c, 0, 43, 0
1, 1782240, Note_on_c, 0, 43, 100
1, 1783200, Note_on_c, 0, 43, 0
1, 1783200, Note_on_c, 0, 43, 100
1, 1783680, Note_on_c, 0, 43, 0
1, 1783680, Note_on_c, 0, 43, 100
1, 1784160, Note_on_c, 0, 43, 0
1, 1795200, Note_on_c, 0, 52, 100
1, 1796160, Note_on_c, 0, 52, 0
1, 1796160, Note_on_c, 0, 62, 100
1, 1796400, Note_on_c, 0, 62, 0
1, 1796400, Note_on_c, 0, 60, 100
1, 1796640, Note_on_c, 0, 60, 0
1, 1796640, Note_on_c, 0, 59, 100
1, 1796880, Note_on_c, 0, 59, 0
1, 1796880, Note_on_c, 0, 60, 100
1, 1797120, Note_on_c, 0, 60, 0
1, 1797120, Note_on_c, 0, 57, 100
1, 1797360, Note_on_c, 0, 57, 0
1, 1797360, Note_on_c, 0, 59, 100
1, 1797600, Note_on_c, 0, 59, 0
1, 1797600, Note_on_c, 0, 55, 100
1, 1797840, Note_on_c, 0, 55, 0
1, 1797840, Note_on_c, 0, 57, 100
1, 1798080, Note_on_c, 0, 57, 0
1, 1798080, Note_on_c, 0, 53, 100
1, 1798320, Note_on_c, 0, 53, 0
1, 1798320, Note_on_c, 0, 55, 100
1, 1798560, Note_on_c, 0, 55, 0
1, 1798560, Note_on_c, 0, 52, 100
1, 1798800, Note_on_c, 0, 52, 0
1, 1798800, Note_on_c, 0, 53, 100
1, 1799040, Note_on_c, 0, 53, 0
1, 1799040, Note_on_c, 0, 50, 100
1, 1799280, Note_on_c, 0, 50, 0
1, 1799280, Note_on_c, 0, 52, 100
1, 1799520, Note_on_c, 0, 52, 0
1, 1799520, Note_on_c, 0, 48, 100
1, 1799760, Note_on_c, 0, 48, 0
1, 1799760, Note_on_c, 0, 55, 100
1, 1800000, Note_on_c, 0, 55, 0
1, 1800000, Note_on_c, 0, 57, 100
1, 1800240, Note_on_c, 0, 57, 0
1, 1800240, Note_on_c, 0, 59, 100
1, 1800480, Note_on_c, 0, 59, 0
1, 1800480, Note_on_c, 0, 60, 100
1, 1800720, Note_on_c, 0, 60, 0
1, 1800720, Note_on_c, 0, 62, 100
1, 1800960, Note_on_c, 0, 62, 0
1, 1800960, Note_on_c, 0, 64, 100
1, 1801440, Note_on_c, 0, 64, 0
1, 1801440, Note_on_c, 0, 36, 100
1, 1801920, Note_on_c, 0, 36, 0
1, 1801920, Note_on_c, 0, 64, 100
1, 1802400, Note_on_c, 0, 64, 0
1, 1802400, Note_on_c, 0, 53, 100
1, 1802640, Note_on_c, 0, 53, 0
1, 1802640, Note_on_c, 0, 57, 100
1, 1802880, Note_on_c, 0, 57, 0
1, 1802880, Note_on_c, 0, 59, 100
1, 1803120, Note_on_c, 0, 59, 0
1, 1803120, Note_on_c, 0, 60, 100
1, 1803360, Note_on_c, 0, 60, 0
1, 1803360, Note_on_c, 0, 62, 100
1, 1803600, Note_on_c, 0, 62, 0
1, 1803600, Note_on_c, 0, 60, 100
1, 1803840, Note_on_c, 0, 60, 0
1, 1803840, Note_on_c, 0, 50, 100
1, 1804080, Note_on_c, 0, 50, 0
1, 1804080, Note_on_c, 0, 54, 100
1, 1804320, Note_on_c, 0, 54, 0
1, 1804320, Note_on_c, 0, 56, 100
1, 1804560, Note_on_c, 0, 56, 0
1, 1804560, Note_on_c, 0, 57, 100
1, 1804800, Note_on_c, 0, 57, 0
1, 1804800, Note_on_c, 0, 59, 100
1, 1805040, Note_on_c, 0, 59, 0
1, 1805040, Note_on_c, 0, 57, 100
1, 1805280, Note_on_c, 0, 57, 0
1, 1805280, Note_on_c, 0, 56, 100
1, 1805520, Note_on_c, 0, 56, 0
1, 1805520, Note_on_c, 0, 54, 100
1, 1805760, Note_on_c, 0, 54, 0
1, 1805760, Note_on_c, 0, 56, 100
1, 1806000, Note_on_c, 0, 56, 0
1, 1806000, Note_on_c, 0, 57, 100
1, 1806240, Note_on_c, 0, 57, 0
1, 1806240, Note_on_c, 0, 59, 100
1, 1806480, Note_on_c, 0, 59, 0
1, 1806480, Note_on_c, 0, 56, 100
1, 1806720, Pitch_bend_c, 0, 12288
1, 1806720, Note_on_c, 0, 56, 0
1, 1806720, Note_on_c, 0, 52, 100
1, 1806838, Pitch_bend_c, 0, 8192
1, 1806960, Pitch_bend_c, 0, 12288
1, 1807080, Pitch_bend_c, 0, 8192
1, 1807680, Note_on_c, 0, 52, 0
1, 1807680, Note_on_c, 0, 59, 100
1, 1808160, Note_on_c, 0, 59, 0
1, 1808160, Note_on_c, 0, 60, 100
1, 1808640, Note_on_c, 0, 60, 0
1, 1808640, Note_on_c, 0, 52, 100
1, 1809120, Note_on_c, 0, 52, 0
1, 1809120, Note_on_c, 0, 53, 100
1, 1809600, Note_on_c, 0, 53, 0
1, 1809600, Note_on_c, 0, 50, 100
1, 1810080, Note_on_c, 0, 50, 0
1, 1810080, Note_on_c, 0, 62, 100
1, 1810320, Note_on_c, 0, 62, 0
1, 1810320, Note_on_c, 0, 60, 100
1, 1810560, Note_on_c, 0, 60, 0
1, 1810560, Note_on_c, 0, 59, 100
1, 1810800, Note_on_c, 0, 59, 0
1, 1810800, Note_on_c, 0, 57, 100
1, 1811040, Note_on_c, 0, 57, 0
1, 1811040, Note_on_c, 0, 59, 100
1, 1811520, Note_on_c, 0, 59, 0
1, 1811520, Note_on_c, 0, 43, 100
1, 1811760, Note_on_c, 0, 43, 0
1, 1811760, Note_on_c, 0, 45, 100
1, 1812000, Note_on_c, 0, 45, 0
1, 1812000, Note_on_c, 0, 47, 100
1, 1812240, Note_on_c, 0, 47, 0
1, 1812240, Note_on_c, 0, 48, 100
1, 1812480, Note_on_c, 0, 48, 0
1, 1812480, Note_on_c, 0, 50, 100
1, 1812960, Note_on_c, 0, 50, 0
1, 1812960, Note_on_c, 0, 43, 100
1, 1813440, Note_on_c, 0, 43, 0
1, 1813440, Note_on_c, 0, 58, 100
1, 1813920, Note_on_c, 0, 58, 0
1, 1813920, Note_on_c, 0, 58, 100
1, 1814400, Note_on_c, 0, 58, 0
1, 1814400, Note_on_c, 0, 50, 100
1, 1814880, Note_on_c, 0, 50, 0
1, 1814880, Note_on_c, 0, 52, 100
1, 1815360, Note_on_c, 0, 52, 0
1, 1815360, Note_on_c, 0, 48, 100
1, 1815840, Note_on_c, 0, 48, 0
1, 1815840, Note_on_c, 0, 60, 100
1, 1816080, Note_on_c, 0, 60, 0
1, 1816080, Note_on_c, 0, 58, 100
1, 1816320, Note_on_c, 0, 58, 0
1, 1816320, Note_on_c, 0, 57, 100
1, 1816560, Note_on_c, 0, 57, 0
1, 1816560, Note_on_c, 0, 55, 100
1, 1816800, Note_on_c, 0, 55, 0
1, 1816800, Note_on_c, 0, 57, 100
1, 1817280, Note_on_c, 0, 57, 0
1, 1817280, Note_on_c, 0, 41, 100
1, 1817520, Note_on_c, 0, 41, 0
1, 1817520, Note_on_c, 0, 43, 100
1, 1817760, Note_on_c, 0, 43, 0
1, 1817760, Note_on_c, 0, 45, 100
1, 1818000, Note_on_c, 0, 45, 0
1, 1818000, Note_on_c, 0, 46, 100
1, 1818240, Note_on_c, 0, 46, 0
1, 1818240, Note_on_c, 0, 48, 100
1, 1818720, Note_on_c, 0, 48, 0
1, 1818720, Note_on_c, 0, 41, 100
1, 1819200, Note_on_c, 0, 41, 0
1, 1819200, Note_on_c, 0, 57, 100
1, 1819680, Note_on_c, 0, 57, 0
1, 1819680, Note_on_c, 0, 53, 100
1, 1820160, Note_on_c, 0, 53, 0
1, 1820160, Note_on_c, 0, 49, 100
1, 1820640, Note_on_c, 0, 49, 0
1, 1820640, Note_on_c, 0, 50, 100
1, 1821120, Note_on_c, 0, 50, 0
1, 1821120, Note_on_c, 0, 58, 100
1, 1821600, Note_on_c, 0, 58, 0
1, 1821600, Note_on_c, 0, 56, 100
1, 1822080, Note_on_c, 0, 56, 0
1, 1822080, Note_on_c, 0, 57, 100
1, 1822560, Note_on_c, 0, 57, 0
1, 1822560, Note_on_c, 0, 62, 100
1, 1822800, Note_on_c, 0, 62, 0
1, 1822800, Note_on_c, 0, 64, 100
1, 1823040, Note_on_c, 0, 64, 0
1, 1823040, Note_on_c, 0, 65, 100
1, 1823520, Note_on_c, 0, 65, 0
1, 1823520, Note_on_c, 0, 56, 100
1, 1824000, Note_on_c, 0, 56, 0
1, 1824000, Note_on_c, 0, 50, 100
1, 1824960, Note_on_c, 0, 50, 0
1, 1824960, Note_on_c, 0, 65, 100
1, 1825440, Note_on_c, 0, 65, 0
1, 1825440, Note_on_c, 0, 64, 100
1, 1825920, Note_on_c, 0, 64, 0
1, 1825920, Note_on_c, 0, 62, 100
1, 1826160, Note_on_c, 0, 62, 0
1, 1826160, Note_on_c, 0, 60, 100
1, 1826400, Note_on_c, 0, 60, 0
1, 1826400, Note_on_c, 0, 59, 100
1, 1826640, Note_on_c, 0, 59, 0
1, 1826640, Note_on_c, 0, 57, 100
1, 1826880, Note_on_c, 0, 57, 0
1, 1826880, Note_on_c, 0, 59, 100
1, 1827120, Note_on_c, 0, 59, 0
1, 1827120, Note_on_c, 0, 62, 100
1, 1827360, Note_on_c, 0, 62, 0
1, 1827360, Note_on_c, 0, 60, 100
1, 1827600, Note_on_c, 0, 60, 0
1, 1827600, Note_on_c, 0, 57, 100
1, 1827840, Note_on_c, 0, 57, 0
1, 1827840, Note_on_c, 0, 59, 100
1, 1828080, Note_on_c, 0, 59, 0
1, 1828080, Note_on_c, 0, 56, 100
1, 1828320, Note_on_c, 0, 56, 0
1, 1828320, Note_on_c, 0, 57, 100
1, 1828800, Note_on_c, 0, 57, 0
1, 1828800, Note_on_c, 0, 52, 100
1, 1829280, Note_on_c, 0, 52, 0
1, 1829280, Note_on_c, 0, 48, 100
1, 1829760, Note_on_c, 0, 48, 0
1, 1829760, Note_on_c, 0, 45, 100
1, 1830720, Note_on_c, 0, 45, 0
1, 1830720, Note_on_c, 0, 60, 100
1, 1831200, Note_on_c, 0, 60, 0
1, 1831200, Note_on_c, 0, 60, 100
1, 1832160, Note_on_c, 0, 60, 0
1, 1833600, Note_on_c, 0, 60, 100
1, 1834080, Note_on_c, 0, 60, 0
1, 1834080, Note_on_c, 0, 59, 100
1, 1835040, Note_on_c, 0, 59, 0
1, 1848720, Note_on_c, 0, 57, 100
1, 1848960, Note_on_c, 0, 57, 0
1, 1849200, Note_on_c, 0, 57, 100
1, 1849440, Note_on_c, 0, 57, 0
1, 1849680, Note_on_c, 0, 57, 100
1, 1849920, Note_on_c, 0, 57, 0
1, 1850160, Note_on_c, 0, 57, 100
1, 1850400, Note_on_c, 0, 57, 0
1, 1850640, Note_on_c, 0, 57, 100
1, 1850880, Note_on_c, 0, 57, 0
1, 1851120, Note_on_c, 0, 57, 100
1, 1851360, Note_on_c, 0, 57, 0
1, 1851600, Note_on_c, 0, 60, 100
1, 1851840, Note_on_c, 0, 60, 0
1, 1852080, Note_on_c, 0, 60, 100
1, 1852320, Note_on_c, 0, 60, 0
1, 1852560, Note_on_c, 0, 60, 100
1, 1852800, Note_on_c, 0, 60, 0
1, 1853040, Note_on_c, 0, 60, 100
1, 1853280, Note_on_c, 0, 60, 0
1, 1853520, Note_on_c, 0, 60, 100
1, 1853760, Note_on_c, 0, 60, 0
1, 1854000, Note_on_c, 0, 60, 100
1, 1854240, Note_on_c, 0, 60, 0
1, 1854240, Note_on_c, 0, 59, 100
1, 1854480, Note_on_c, 0, 59, 0
1, 1854720, Note_on_c, 0, 57, 100
1, 1854960, Note_on_c, 0, 57, 0
1, 1855200, Note_on_c, 0, 59, 100
1, 1855440, Note_on_c, 0, 59, 0
1, 1855680, Note_on_c, 0, 60, 100
1, 1855920, Note_on_c, 0, 60, 0
1, 1856160, Note_on_c, 0, 59, 100
1, 1856400, Note_on_c, 0, 59, 0
1, 1856640, Note_on_c, 0, 57, 100
1, 1856880, Note_on_c, 0, 57, 0
1, 1857120, Note_on_c, 0, 59, 100
1, 1857360, Note_on_c, 0, 59, 0
1, 1857600, Note_on_c, 0, 62, 100
1, 1857840, Note_on_c, 0, 62, 0
1, 1858080, Note_on_c, 0, 65, 100
1, 1858560, Note_on_c, 0, 65, 0
1, 1859520, Note_on_c, 0, 50, 100
1, 1860000, Note_on_c, 0, 50, 0
1, 1860000, Note_on_c, 0, 43, 100
1, 1860480, Note_on_c, 0, 43, 0
1, 1860480, Note_on_c, 0, 43, 100
1, 1860960, Note_on_c, 0, 43, 0
1, 1860960, Note_on_c, 0, 43, 100
1, 1861440, Note_on_c, 0, 43, 0
1, 1861440, Note_on_c, 0, 43, 100
1, 1861920, Note_on_c, 0, 43, 0
1, 1861920, Note_on_c, 0, 43, 100
1, 1862400, Note_on_c, 0, 43, 0
1, 1862400, Note_on_c, 0, 43, 100
1, 1862880, Note_on_c, 0, 43, 0
1, 1862880, Note_on_c, 0, 43, 100
1, 1863840, Note_on_c, 0, 43, 0
1, 1863840, Note_on_c, 0, 43, 100
1, 1864320, Note_on_c, 0, 43, 0
1, 1864320, Note_on_c, 0, 43, 100
1, 1865280, Note_on_c, 0, 43, 0
1, 1865280, Note_on_c, 0, 43, 100
1, 1865760, Note_on_c, 0, 43, 0
1, 1865760, Note_on_c, 0, 43, 100
1, 1866240, Note_on_c, 0, 43, 0
1, 1866240, Note_on_c, 0, 43, 100
1, 1866720, Note_on_c, 0, 43, 0
1, 1866720, Note_on_c, 0, 43, 100
1, 1867200, Note_on_c, 0, 43, 0
1, 1867200, Note_on_c, 0, 43, 100
1, 1867680, Note_on_c, 0, 43, 0
1, 1867680, Note_on_c, 0, 43, 100
1, 1868160, Note_on_c, 0, 43, 0
1, 1868160, Note_on_c, 0, 43, 100
1, 1868640, Note_on_c, 0, 43, 0
1, 1868640, Note_on_c, 0, 43, 100
1, 1869600, Note_on_c, 0, 43, 0
1, 1869600, Note_on_c, 0, 43, 100
1, 1870080, Note_on_c, 0, 43, 0
1, 1870080, Note_on_c, 0, 43, 100
1, 1870560, Note_on_c, 0, 43, 0
1, 1881600, Note_on_c, 0, 52, 100
1, 1882558, Note_on_c, 0, 52, 0
1, 1882560, Control_c, 0, 123, 0
1, 1882560, End_track
0, 0, End_of_file
